<?xml version="1.0" encoding="us-ascii" standalone="no"?><svg xmlns="http://www.w3.org/2000/svg" xmlns:xlink="http://www.w3.org/1999/xlink" contentStyleType="text/css" height="939px" preserveAspectRatio="none" style="width:1134px;height:939px;background:#FFFFFF;" version="1.1" viewBox="0 0 1134 939" width="1134px" zoomAndPan="magnify"><defs/><g><rect fill="#FFFFFF" height="744.9453" style="stroke:#181818;stroke-width:1.0;" width="10" x="217" y="92.2813"/><rect fill="#FFFFFF" height="28" style="stroke:#181818;stroke-width:1.0;" width="10" x="222" y="177.8516"/><rect fill="#FFFFFF" height="28" style="stroke:#181818;stroke-width:1.0;" width="10" x="222" y="249.375"/><rect fill="#FFFFFF" height="142.6172" style="stroke:#181818;stroke-width:1.0;" width="10" x="372" y="542.0391"/><rect fill="#FFFFFF" height="150.5703" style="stroke:#181818;stroke-width:1.0;" width="10" x="534.5" y="249.375"/><rect fill="#FFFFFF" height="152.5703" style="stroke:#181818;stroke-width:1.0;" width="10" x="689.5" y="684.6563"/><rect fill="#FFFFFF" height="44" style="stroke:#181818;stroke-width:1.0;" width="10" x="920.5" y="369.9453"/><rect fill="none" height="59.0469" style="stroke:#000000;stroke-width:1.5;" width="517" x="611.5" y="699.6563"/><line style="stroke:#181818;stroke-width:0.5;stroke-dasharray:5.0,5.0;" x1="36" x2="36" y1="82.2813" y2="846.2266"/><line style="stroke:#181818;stroke-width:0.5;stroke-dasharray:5.0,5.0;" x1="221.5" x2="221.5" y1="82.2813" y2="846.2266"/><line style="stroke:#181818;stroke-width:0.5;stroke-dasharray:5.0,5.0;" x1="376.5" x2="376.5" y1="82.2813" y2="846.2266"/><line style="stroke:#181818;stroke-width:0.5;stroke-dasharray:5.0,5.0;" x1="539.5" x2="539.5" y1="82.2813" y2="846.2266"/><line style="stroke:#181818;stroke-width:0.5;stroke-dasharray:5.0,5.0;" x1="694.5" x2="694.5" y1="82.2813" y2="846.2266"/><line style="stroke:#181818;stroke-width:0.5;stroke-dasharray:5.0,5.0;" x1="925.5" x2="925.5" y1="82.2813" y2="846.2266"/><line style="stroke:#181818;stroke-width:0.5;stroke-dasharray:5.0,5.0;" x1="1056.5" x2="1056.5" y1="82.2813" y2="846.2266"/><text fill="#000000" font-family="sans-serif" font-size="14" lengthAdjust="spacing" textLength="56" x="5" y="79.3145">Manager</text><ellipse cx="36" cy="15.1406" fill="#E2E2F0" rx="8" ry="8" style="stroke:#181818;stroke-width:0.5;"/><path d="M36,23.1406 L36,50.1406 M23,31.1406 L49,31.1406 M36,50.1406 L23,65.1406 M36,50.1406 L49,65.1406 " fill="none" style="stroke:#181818;stroke-width:0.5;"/><text fill="#000000" font-family="sans-serif" font-size="14" lengthAdjust="spacing" textLength="56" x="5" y="857.9004">Manager</text><ellipse cx="36" cy="869.3672" fill="#E2E2F0" rx="8" ry="8" style="stroke:#181818;stroke-width:0.5;"/><path d="M36,877.3672 L36,904.3672 M23,885.3672 L49,885.3672 M36,904.3672 L23,919.3672 M36,904.3672 L49,919.3672 " fill="none" style="stroke:#181818;stroke-width:0.5;"/><rect fill="#E2E2F0" height="45.2813" rx="2.5" ry="2.5" style="stroke:#181818;stroke-width:0.5;" width="111" x="166.5" y="36"/><text fill="#000000" font-family="sans-serif" font-size="14" font-style="italic" lengthAdjust="spacing" textLength="95" x="174.5" y="55.6738">&#171;presentation&#187;</text><text fill="#000000" font-family="sans-serif" font-size="14" lengthAdjust="spacing" textLength="97" x="173.5" y="71.3145">EnrollStudentUi</text><rect fill="#E2E2F0" height="45.2813" rx="2.5" ry="2.5" style="stroke:#181818;stroke-width:0.5;" width="111" x="166.5" y="845.2266"/><text fill="#000000" font-family="sans-serif" font-size="14" font-style="italic" lengthAdjust="spacing" textLength="95" x="174.5" y="864.9004">&#171;presentation&#187;</text><text fill="#000000" font-family="sans-serif" font-size="14" lengthAdjust="spacing" textLength="97" x="173.5" y="880.541">EnrollStudentUi</text><rect fill="#E2E2F0" height="45.2813" rx="2.5" ry="2.5" style="stroke:#181818;stroke-width:0.5;" width="161" x="296.5" y="36"/><text fill="#000000" font-family="sans-serif" font-size="14" font-style="italic" lengthAdjust="spacing" textLength="84" x="335" y="55.6738">&#171;application&#187;</text><text fill="#000000" font-family="sans-serif" font-size="14" lengthAdjust="spacing" textLength="147" x="303.5" y="71.3145">EnrollStudentController</text><rect fill="#E2E2F0" height="45.2813" rx="2.5" ry="2.5" style="stroke:#181818;stroke-width:0.5;" width="161" x="296.5" y="845.2266"/><text fill="#000000" font-family="sans-serif" font-size="14" font-style="italic" lengthAdjust="spacing" textLength="84" x="335" y="864.9004">&#171;application&#187;</text><text fill="#000000" font-family="sans-serif" font-size="14" lengthAdjust="spacing" textLength="147" x="303.5" y="880.541">EnrollStudentController</text><rect fill="#E2E2F0" height="45.2813" rx="2.5" ry="2.5" style="stroke:#181818;stroke-width:0.5;" width="144" x="467.5" y="36"/><text fill="#000000" font-family="sans-serif" font-size="14" font-style="italic" lengthAdjust="spacing" textLength="84" x="497.5" y="55.6738">&#171;application&#187;</text><text fill="#000000" font-family="sans-serif" font-size="14" lengthAdjust="spacing" textLength="130" x="474.5" y="71.3145">ListCourseController</text><rect fill="#E2E2F0" height="45.2813" rx="2.5" ry="2.5" style="stroke:#181818;stroke-width:0.5;" width="144" x="467.5" y="845.2266"/><text fill="#000000" font-family="sans-serif" font-size="14" font-style="italic" lengthAdjust="spacing" textLength="84" x="497.5" y="864.9004">&#171;application&#187;</text><text fill="#000000" font-family="sans-serif" font-size="14" lengthAdjust="spacing" textLength="130" x="474.5" y="880.541">ListCourseController</text><rect fill="#E2E2F0" height="45.2813" rx="2.5" ry="2.5" style="stroke:#181818;stroke-width:0.5;" width="146" x="621.5" y="36"/><text fill="#000000" font-family="sans-serif" font-size="14" font-style="italic" lengthAdjust="spacing" textLength="84" x="652.5" y="55.6738">&#171;application&#187;</text><text fill="#000000" font-family="sans-serif" font-size="14" lengthAdjust="spacing" textLength="132" x="628.5" y="71.3145">EnrollStudentService</text><rect fill="#E2E2F0" height="45.2813" rx="2.5" ry="2.5" style="stroke:#181818;stroke-width:0.5;" width="146" x="621.5" y="845.2266"/><text fill="#000000" font-family="sans-serif" font-size="14" font-style="italic" lengthAdjust="spacing" textLength="84" x="652.5" y="864.9004">&#171;application&#187;</text><text fill="#000000" font-family="sans-serif" font-size="14" lengthAdjust="spacing" textLength="132" x="628.5" y="880.541">EnrollStudentService</text><text fill="#000000" font-family="sans-serif" font-size="14" font-style="italic" lengthAdjust="spacing" textLength="79" x="883" y="63.6738">&#171;repository&#187;</text><text fill="#000000" font-family="sans-serif" font-size="14" lengthAdjust="spacing" textLength="114" x="865.5" y="79.3145">CourseRepository</text><path d="M907.5,15 C907.5,5 925.5,5 925.5,5 C925.5,5 943.5,5 943.5,15 L943.5,41 C943.5,51 925.5,51 925.5,51 C925.5,51 907.5,51 907.5,41 L907.5,15 " fill="#E2E2F0" style="stroke:#181818;stroke-width:1.5;"/><path d="M907.5,15 C907.5,25 925.5,25 925.5,25 C925.5,25 943.5,25 943.5,15 " fill="none" style="stroke:#181818;stroke-width:1.5;"/><text fill="#000000" font-family="sans-serif" font-size="14" font-style="italic" lengthAdjust="spacing" textLength="79" x="883" y="857.9004">&#171;repository&#187;</text><text fill="#000000" font-family="sans-serif" font-size="14" lengthAdjust="spacing" textLength="114" x="865.5" y="873.541">CourseRepository</text><path d="M907.5,886.5078 C907.5,876.5078 925.5,876.5078 925.5,876.5078 C925.5,876.5078 943.5,876.5078 943.5,886.5078 L943.5,912.5078 C943.5,922.5078 925.5,922.5078 925.5,922.5078 C925.5,922.5078 907.5,922.5078 907.5,912.5078 L907.5,886.5078 " fill="#E2E2F0" style="stroke:#181818;stroke-width:1.5;"/><path d="M907.5,886.5078 C907.5,896.5078 925.5,896.5078 925.5,896.5078 C925.5,896.5078 943.5,896.5078 943.5,886.5078 " fill="none" style="stroke:#181818;stroke-width:1.5;"/><text fill="#000000" font-family="sans-serif" font-size="14" font-style="italic" lengthAdjust="spacing" textLength="79" x="1014.5" y="63.6738">&#171;repository&#187;</text><text fill="#000000" font-family="sans-serif" font-size="14" lengthAdjust="spacing" textLength="117" x="995.5" y="79.3145">StudentRepository</text><path d="M1039,15 C1039,5 1057,5 1057,5 C1057,5 1075,5 1075,15 L1075,41 C1075,51 1057,51 1057,51 C1057,51 1039,51 1039,41 L1039,15 " fill="#E2E2F0" style="stroke:#181818;stroke-width:1.5;"/><path d="M1039,15 C1039,25 1057,25 1057,25 C1057,25 1075,25 1075,15 " fill="none" style="stroke:#181818;stroke-width:1.5;"/><text fill="#000000" font-family="sans-serif" font-size="14" font-style="italic" lengthAdjust="spacing" textLength="79" x="1014.5" y="857.9004">&#171;repository&#187;</text><text fill="#000000" font-family="sans-serif" font-size="14" lengthAdjust="spacing" textLength="117" x="995.5" y="873.541">StudentRepository</text><path d="M1039,886.5078 C1039,876.5078 1057,876.5078 1057,876.5078 C1057,876.5078 1075,876.5078 1075,886.5078 L1075,912.5078 C1075,922.5078 1057,922.5078 1057,922.5078 C1057,922.5078 1039,922.5078 1039,912.5078 L1039,886.5078 " fill="#E2E2F0" style="stroke:#181818;stroke-width:1.5;"/><path d="M1039,886.5078 C1039,896.5078 1057,896.5078 1057,896.5078 C1057,896.5078 1075,896.5078 1075,886.5078 " fill="none" style="stroke:#181818;stroke-width:1.5;"/><rect fill="#FFFFFF" height="744.9453" style="stroke:#181818;stroke-width:1.0;" width="10" x="217" y="92.2813"/><rect fill="#FFFFFF" height="28" style="stroke:#181818;stroke-width:1.0;" width="10" x="222" y="177.8516"/><rect fill="#FFFFFF" height="28" style="stroke:#181818;stroke-width:1.0;" width="10" x="222" y="249.375"/><rect fill="#FFFFFF" height="142.6172" style="stroke:#181818;stroke-width:1.0;" width="10" x="372" y="542.0391"/><rect fill="#FFFFFF" height="150.5703" style="stroke:#181818;stroke-width:1.0;" width="10" x="534.5" y="249.375"/><rect fill="#FFFFFF" height="152.5703" style="stroke:#181818;stroke-width:1.0;" width="10" x="689.5" y="684.6563"/><rect fill="#FFFFFF" height="44" style="stroke:#181818;stroke-width:1.0;" width="10" x="920.5" y="369.9453"/><polygon fill="#181818" points="365,108.8047,375,112.8047,365,116.8047,369,112.8047" style="stroke:#181818;stroke-width:1.0;"/><line style="stroke:#181818;stroke-width:1.0;" x1="227" x2="371" y1="112.8047" y2="112.8047"/><text fill="#000000" font-family="sans-serif" font-size="13" lengthAdjust="spacing" textLength="36" x="234" y="108.0498">create</text><polygon fill="#181818" points="527.5,137.3281,537.5,141.3281,527.5,145.3281,531.5,141.3281" style="stroke:#181818;stroke-width:1.0;"/><line style="stroke:#181818;stroke-width:1.0;" x1="227" x2="533.5" y1="141.3281" y2="141.3281"/><text fill="#000000" font-family="sans-serif" font-size="13" lengthAdjust="spacing" textLength="36" x="234" y="136.5732">create</text><line style="stroke:#181818;stroke-width:1.0;" x1="232" x2="274" y1="169.8516" y2="169.8516"/><line style="stroke:#181818;stroke-width:1.0;" x1="274" x2="274" y1="169.8516" y2="182.8516"/><line style="stroke:#181818;stroke-width:1.0;" x1="233" x2="274" y1="182.8516" y2="182.8516"/><polygon fill="#181818" points="243,178.8516,233,182.8516,243,186.8516,239,182.8516" style="stroke:#181818;stroke-width:1.0;"/><text fill="#000000" font-family="sans-serif" font-size="13" lengthAdjust="spacing" textLength="54" x="239" y="165.0967">doShow()</text><line style="stroke:#181818;stroke-width:1.0;" x1="232" x2="274" y1="241.375" y2="241.375"/><line style="stroke:#181818;stroke-width:1.0;" x1="274" x2="274" y1="241.375" y2="254.375"/><line style="stroke:#181818;stroke-width:1.0;" x1="233" x2="274" y1="254.375" y2="254.375"/><polygon fill="#181818" points="243,250.375,233,254.375,243,258.375,239,254.375" style="stroke:#181818;stroke-width:1.0;"/><text fill="#000000" font-family="sans-serif" font-size="13" lengthAdjust="spacing" textLength="86" x="239" y="236.6201">showCourses()</text><polygon fill="#181818" points="913.5,308.8984,923.5,312.8984,913.5,316.8984,917.5,312.8984" style="stroke:#181818;stroke-width:1.0;"/><line style="stroke:#181818;stroke-width:1.0;" x1="544.5" x2="919.5" y1="312.8984" y2="312.8984"/><text fill="#000000" font-family="sans-serif" font-size="13" lengthAdjust="spacing" textLength="36" x="551.5" y="308.1436">create</text><polygon fill="#181818" points="522.5,337.4219,532.5,341.4219,522.5,345.4219,526.5,341.4219" style="stroke:#181818;stroke-width:1.0;"/><line style="stroke:#181818;stroke-width:1.0;" x1="227" x2="528.5" y1="341.4219" y2="341.4219"/><text fill="#000000" font-family="sans-serif" font-size="13" lengthAdjust="spacing" textLength="73" x="234" y="336.667">listCourses()</text><polygon fill="#181818" points="908.5,365.9453,918.5,369.9453,908.5,373.9453,912.5,369.9453" style="stroke:#181818;stroke-width:1.0;"/><line style="stroke:#181818;stroke-width:1.0;" x1="544.5" x2="914.5" y1="369.9453" y2="369.9453"/><text fill="#000000" font-family="sans-serif" font-size="13" lengthAdjust="spacing" textLength="43" x="551.5" y="365.1904">findAll()</text><polygon fill="#181818" points="550.5,409.9453,540.5,413.9453,550.5,417.9453,546.5,413.9453" style="stroke:#181818;stroke-width:1.0;"/><line style="stroke:#181818;stroke-width:1.0;" x1="544.5" x2="924.5" y1="413.9453" y2="413.9453"/><polygon fill="#181818" points="238,423.9453,228,427.9453,238,431.9453,234,427.9453" style="stroke:#181818;stroke-width:1.0;"/><line style="stroke:#181818;stroke-width:1.0;" x1="232" x2="538.5" y1="427.9453" y2="427.9453"/><polygon fill="#181818" points="47,452.4688,37,456.4688,47,460.4688,43,456.4688" style="stroke:#181818;stroke-width:1.0;"/><line style="stroke:#181818;stroke-width:1.0;stroke-dasharray:2.0,2.0;" x1="41" x2="216" y1="456.4688" y2="456.4688"/><text fill="#000000" font-family="sans-serif" font-size="13" lengthAdjust="spacing" textLength="157" x="53" y="451.7139">shows all courses available</text><polygon fill="#181818" points="205,480.9922,215,484.9922,205,488.9922,209,484.9922" style="stroke:#181818;stroke-width:1.0;"/><line style="stroke:#181818;stroke-width:1.0;stroke-dasharray:2.0,2.0;" x1="36" x2="211" y1="484.9922" y2="484.9922"/><text fill="#000000" font-family="sans-serif" font-size="13" lengthAdjust="spacing" textLength="156" x="43" y="480.2373">chooses a course available</text><polygon fill="#181818" points="47,509.5156,37,513.5156,47,517.5156,43,513.5156" style="stroke:#181818;stroke-width:1.0;"/><line style="stroke:#181818;stroke-width:1.0;stroke-dasharray:2.0,2.0;" x1="41" x2="216" y1="513.5156" y2="513.5156"/><text fill="#000000" font-family="sans-serif" font-size="13" lengthAdjust="spacing" textLength="132" x="53" y="508.7607">asks for path of csv file</text><polygon fill="#181818" points="205,538.0391,215,542.0391,205,546.0391,209,542.0391" style="stroke:#181818;stroke-width:1.0;"/><line style="stroke:#181818;stroke-width:1.0;stroke-dasharray:2.0,2.0;" x1="36" x2="211" y1="542.0391" y2="542.0391"/><text fill="#000000" font-family="sans-serif" font-size="13" lengthAdjust="spacing" textLength="123" x="43" y="537.2842">input path to CSV file</text><polygon fill="#181818" points="360,566.5625,370,570.5625,360,574.5625,364,570.5625" style="stroke:#181818;stroke-width:1.0;"/><line style="stroke:#181818;stroke-width:1.0;" x1="227" x2="366" y1="570.5625" y2="570.5625"/><text fill="#000000" font-family="sans-serif" font-size="13" lengthAdjust="spacing" textLength="121" x="234" y="565.8076">loadCsv(path,course)</text><polygon fill="#181818" points="682.5,595.0859,692.5,599.0859,682.5,603.0859,686.5,599.0859" style="stroke:#181818;stroke-width:1.0;"/><line style="stroke:#181818;stroke-width:1.0;" x1="382" x2="688.5" y1="599.0859" y2="599.0859"/><text fill="#000000" font-family="sans-serif" font-size="13" lengthAdjust="spacing" textLength="36" x="389" y="594.3311">create</text><polygon fill="#181818" points="1045,623.6094,1055,627.6094,1045,631.6094,1049,627.6094" style="stroke:#181818;stroke-width:1.0;"/><line style="stroke:#181818;stroke-width:1.0;" x1="694.5" x2="1051" y1="627.6094" y2="627.6094"/><text fill="#000000" font-family="sans-serif" font-size="13" lengthAdjust="spacing" textLength="36" x="701.5" y="622.8545">create</text><polygon fill="#181818" points="913.5,652.1328,923.5,656.1328,913.5,660.1328,917.5,656.1328" style="stroke:#181818;stroke-width:1.0;"/><line style="stroke:#181818;stroke-width:1.0;" x1="694.5" x2="919.5" y1="656.1328" y2="656.1328"/><text fill="#000000" font-family="sans-serif" font-size="13" lengthAdjust="spacing" textLength="36" x="701.5" y="651.3779">create</text><polygon fill="#181818" points="677.5,680.6563,687.5,684.6563,677.5,688.6563,681.5,684.6563" style="stroke:#181818;stroke-width:1.0;"/><line style="stroke:#181818;stroke-width:1.0;" x1="377" x2="683.5" y1="684.6563" y2="684.6563"/><text fill="#000000" font-family="sans-serif" font-size="13" lengthAdjust="spacing" textLength="121" x="384" y="679.9014">loadCsv(path,course)</text><path d="M611.5,699.6563 L684.5,699.6563 L684.5,706.1797 L674.5,716.1797 L611.5,716.1797 L611.5,699.6563 " fill="#EEEEEE" style="stroke:#000000;stroke-width:1.5;"/><rect fill="none" height="59.0469" style="stroke:#000000;stroke-width:1.5;" width="517" x="611.5" y="699.6563"/><text fill="#000000" font-family="sans-serif" font-size="13" font-weight="bold" lengthAdjust="spacing" textLength="28" x="626.5" y="712.4248">loop</text><text fill="#000000" font-family="sans-serif" font-size="11" font-weight="bold" lengthAdjust="spacing" textLength="301" x="699.5" y="711.6143">[while there's lines in csv file and add to a student list]</text><polygon fill="#181818" points="1045,732.7031,1055,736.7031,1045,740.7031,1049,736.7031" style="stroke:#181818;stroke-width:1.0;"/><line style="stroke:#181818;stroke-width:1.0;" x1="699.5" x2="1051" y1="736.7031" y2="736.7031"/><text fill="#000000" font-family="sans-serif" font-size="13" lengthAdjust="spacing" textLength="153" x="706.5" y="731.9482">findStudentByEmail(email)</text><polygon fill="#181818" points="710.5,746.7031,700.5,750.7031,710.5,754.7031,706.5,750.7031" style="stroke:#181818;stroke-width:1.0;"/><line style="stroke:#181818;stroke-width:1.0;" x1="704.5" x2="1056" y1="750.7031" y2="750.7031"/><polygon fill="#181818" points="913.5,782.2266,923.5,786.2266,913.5,790.2266,917.5,786.2266" style="stroke:#181818;stroke-width:1.0;"/><line style="stroke:#181818;stroke-width:1.0;" x1="699.5" x2="919.5" y1="786.2266" y2="786.2266"/><text fill="#000000" font-family="sans-serif" font-size="13" lengthAdjust="spacing" textLength="202" x="706.5" y="781.4717">appendStudent(studentList,course)</text><polygon fill="#181818" points="710.5,796.2266,700.5,800.2266,710.5,804.2266,706.5,800.2266" style="stroke:#181818;stroke-width:1.0;"/><line style="stroke:#181818;stroke-width:1.0;" x1="704.5" x2="924.5" y1="800.2266" y2="800.2266"/><polygon fill="#181818" points="388,810.2266,378,814.2266,388,818.2266,384,814.2266" style="stroke:#181818;stroke-width:1.0;"/><line style="stroke:#181818;stroke-width:1.0;" x1="382" x2="688.5" y1="814.2266" y2="814.2266"/><polygon fill="#181818" points="238,824.2266,228,828.2266,238,832.2266,234,828.2266" style="stroke:#181818;stroke-width:1.0;"/><line style="stroke:#181818;stroke-width:1.0;" x1="232" x2="376" y1="828.2266" y2="828.2266"/><!--SRC=[VLFBJiCm4BptArQzK1Jw0rLL2I9kS262-s9lYOMnBTj9nT-pVYH0MhXOyNfcP_OH5D5wU4I3R-G10toKpvL37vLG3as4zRtnLkik3f9CV5Rh11pKVW_EK-0GHcKD70x_i5fhOhgIpsmHlUvWlqVdj1APlwG_gC2imGUwm6t_v_wIxiYFIb3cXb6SCIL6VCL0i2voJ-HiKDoNpqpnV4roVWx_ubIH2wHkIHfKq_01sqEjVmV24qRw4MoNGJwRPWVIThqzRQuvkjtEJqt3yC0FnNcOtdCc5YiP6LgA-4DFpvrE2SuuHsNahTRyb2DJMfOfY2bJkKxgnM1Mug-wLjLj0DGQH944755fVDMqcb3RKZVRxQtDa0h-WJrBZE4zm96tsM7imHv1X96zNqghZ1jYmKKBRVTIS7aePoFI5cKRnas2tnGRfKbTGgM5cjkQBhLntSKejxC65md-5k5-CeHTQMiTd7es2h4dJrU11sUuEShCfG8Q2IXbAWiXbDNCyrrwIqEjgtltUV_1NTrGEikG9sShCdBX7_ZdePcxgHhfPvrzpskHCbHshkMxwa5z0G00]--></g></svg>