<?xml version="1.0" encoding="us-ascii" standalone="no"?><svg xmlns="http://www.w3.org/2000/svg" xmlns:xlink="http://www.w3.org/1999/xlink" contentStyleType="text/css" height="508px" preserveAspectRatio="none" style="width:489px;height:508px;background:#FFFFFF;" version="1.1" viewBox="0 0 489 508" width="489px" zoomAndPan="magnify"><defs/><g><!--class EnrollStudentUI--><g id="elem_EnrollStudentUI"><rect codeLine="1" fill="#F1F1F1" height="86.3281" id="EnrollStudentUI" rx="2.5" ry="2.5" style="stroke:#181818;stroke-width:0.5;" width="171" x="172" y="7"/><ellipse cx="205.9" cy="26.5234" fill="#ADD1B2" rx="11" ry="11" style="stroke:#181818;stroke-width:1.0;"/><path d="M207.9,23.0234 Q208.1031,22.5234 208.3375,22.2734 Q208.5719,22.0234 208.8375,22.0234 Q209.3063,22.0234 209.6031,22.3047 Q209.9,22.5859 209.9,23.2422 L209.9,24.8047 Q209.9,25.4609 209.6188,25.7422 Q209.3375,26.0234 208.9,26.0234 Q208.5094,26.0234 208.2594,25.8516 Q208.0094,25.6797 207.9,25.2266 Q207.8531,24.9141 207.6813,24.7422 Q207.3688,24.4141 206.8063,24.2266 Q206.2438,24.0234 205.6813,24.0234 Q204.9781,24.0234 204.3844,24.3047 Q203.8063,24.5859 203.3531,25.2109 Q202.9,25.8359 202.9,26.6953 L202.9,27.6172 Q202.9,28.6484 203.7438,29.3359 Q204.5875,30.0234 206.0875,30.0234 Q206.9781,30.0234 207.6031,29.8203 Q207.9625,29.7109 208.3688,29.3516 Q208.6344,29.1484 208.775,29.0859 Q208.9156,29.0234 209.0875,29.0234 Q209.4156,29.0234 209.65,29.2891 Q209.9,29.5391 209.9,29.8984 Q209.9,30.2422 209.5563,30.6484 Q209.0563,31.2422 208.2594,31.5703 Q207.2125,32.0234 205.9313,32.0234 Q204.4313,32.0234 203.2281,31.4297 Q202.2594,30.9609 201.5719,29.9453 Q200.9,28.9297 200.9,27.7266 L200.9,26.6328 Q200.9,25.3828 201.4938,24.2891 Q202.1031,23.1953 203.15,22.6172 Q204.2125,22.0234 205.4,22.0234 Q206.1188,22.0234 206.7438,22.2734 Q207.3688,22.5234 207.9,23.0234 Z " fill="#000000"/><text fill="#000000" font-family="sans-serif" font-size="12" font-style="italic" lengthAdjust="spacing" textLength="82" x="231.6" y="22.8633">&#171;presentation&#187;</text><text fill="#000000" font-family="sans-serif" font-size="14" lengthAdjust="spacing" textLength="97" x="224.1" y="38.0801">EnrollStudentUI</text><line style="stroke:#181818;stroke-width:0.5;" x1="173" x2="342" y1="46.0469" y2="46.0469"/><line style="stroke:#181818;stroke-width:0.5;" x1="173" x2="342" y1="54.0469" y2="54.0469"/><ellipse cx="183" cy="67.3672" fill="#84BE84" rx="3" ry="3" style="stroke:#038048;stroke-width:1.0;"/><text fill="#000000" font-family="sans-serif" font-size="14" lengthAdjust="spacing" textLength="60" x="192" y="70.7207">doShow()</text><ellipse cx="183" cy="83.0078" fill="#84BE84" rx="3" ry="3" style="stroke:#038048;stroke-width:1.0;"/><text fill="#000000" font-family="sans-serif" font-size="14" lengthAdjust="spacing" textLength="145" x="192" y="86.3613">showCourses(courses)</text></g><!--class EnrollStudentController--><g id="elem_EnrollStudentController"><rect codeLine="5" fill="#F1F1F1" height="70.6875" id="EnrollStudentController" rx="2.5" ry="2.5" style="stroke:#181818;stroke-width:0.5;" width="179" x="97" y="153"/><ellipse cx="112" cy="172.5234" fill="#ADD1B2" rx="11" ry="11" style="stroke:#181818;stroke-width:1.0;"/><path d="M114,169.0234 Q114.2031,168.5234 114.4375,168.2734 Q114.6719,168.0234 114.9375,168.0234 Q115.4063,168.0234 115.7031,168.3047 Q116,168.5859 116,169.2422 L116,170.8047 Q116,171.4609 115.7188,171.7422 Q115.4375,172.0234 115,172.0234 Q114.6094,172.0234 114.3594,171.8516 Q114.1094,171.6797 114,171.2266 Q113.9531,170.9141 113.7813,170.7422 Q113.4688,170.4141 112.9063,170.2266 Q112.3438,170.0234 111.7813,170.0234 Q111.0781,170.0234 110.4844,170.3047 Q109.9063,170.5859 109.4531,171.2109 Q109,171.8359 109,172.6953 L109,173.6172 Q109,174.6484 109.8438,175.3359 Q110.6875,176.0234 112.1875,176.0234 Q113.0781,176.0234 113.7031,175.8203 Q114.0625,175.7109 114.4688,175.3516 Q114.7344,175.1484 114.875,175.0859 Q115.0156,175.0234 115.1875,175.0234 Q115.5156,175.0234 115.75,175.2891 Q116,175.5391 116,175.8984 Q116,176.2422 115.6563,176.6484 Q115.1563,177.2422 114.3594,177.5703 Q113.3125,178.0234 112.0313,178.0234 Q110.5313,178.0234 109.3281,177.4297 Q108.3594,176.9609 107.6719,175.9453 Q107,174.9297 107,173.7266 L107,172.6328 Q107,171.3828 107.5938,170.2891 Q108.2031,169.1953 109.25,168.6172 Q110.3125,168.0234 111.5,168.0234 Q112.2188,168.0234 112.8438,168.2734 Q113.4688,168.5234 114,169.0234 Z " fill="#000000"/><text fill="#000000" font-family="sans-serif" font-size="12" font-style="italic" lengthAdjust="spacing" textLength="74" x="162.5" y="168.8633">&#171;application&#187;</text><text fill="#000000" font-family="sans-serif" font-size="14" lengthAdjust="spacing" textLength="147" x="126" y="184.0801">EnrollStudentController</text><line style="stroke:#181818;stroke-width:0.5;" x1="98" x2="275" y1="192.0469" y2="192.0469"/><line style="stroke:#181818;stroke-width:0.5;" x1="98" x2="275" y1="200.0469" y2="200.0469"/><ellipse cx="108" cy="213.3672" fill="#84BE84" rx="3" ry="3" style="stroke:#038048;stroke-width:1.0;"/><text fill="#000000" font-family="sans-serif" font-size="14" lengthAdjust="spacing" textLength="136" x="117" y="216.7207">loadCsv(path,course)</text></g><!--class ListCourseController--><g id="elem_ListCourseController"><rect codeLine="9" fill="#F1F1F1" height="70.6875" id="ListCourseController" rx="2.5" ry="2.5" style="stroke:#181818;stroke-width:0.5;" width="162" x="276.5" y="284"/><ellipse cx="291.5" cy="303.5234" fill="#ADD1B2" rx="11" ry="11" style="stroke:#181818;stroke-width:1.0;"/><path d="M293.5,300.0234 Q293.7031,299.5234 293.9375,299.2734 Q294.1719,299.0234 294.4375,299.0234 Q294.9063,299.0234 295.2031,299.3047 Q295.5,299.5859 295.5,300.2422 L295.5,301.8047 Q295.5,302.4609 295.2188,302.7422 Q294.9375,303.0234 294.5,303.0234 Q294.1094,303.0234 293.8594,302.8516 Q293.6094,302.6797 293.5,302.2266 Q293.4531,301.9141 293.2813,301.7422 Q292.9688,301.4141 292.4063,301.2266 Q291.8438,301.0234 291.2813,301.0234 Q290.5781,301.0234 289.9844,301.3047 Q289.4063,301.5859 288.9531,302.2109 Q288.5,302.8359 288.5,303.6953 L288.5,304.6172 Q288.5,305.6484 289.3438,306.3359 Q290.1875,307.0234 291.6875,307.0234 Q292.5781,307.0234 293.2031,306.8203 Q293.5625,306.7109 293.9688,306.3516 Q294.2344,306.1484 294.375,306.0859 Q294.5156,306.0234 294.6875,306.0234 Q295.0156,306.0234 295.25,306.2891 Q295.5,306.5391 295.5,306.8984 Q295.5,307.2422 295.1563,307.6484 Q294.6563,308.2422 293.8594,308.5703 Q292.8125,309.0234 291.5313,309.0234 Q290.0313,309.0234 288.8281,308.4297 Q287.8594,307.9609 287.1719,306.9453 Q286.5,305.9297 286.5,304.7266 L286.5,303.6328 Q286.5,302.3828 287.0938,301.2891 Q287.7031,300.1953 288.75,299.6172 Q289.8125,299.0234 291,299.0234 Q291.7188,299.0234 292.3438,299.2734 Q292.9688,299.5234 293.5,300.0234 Z " fill="#000000"/><text fill="#000000" font-family="sans-serif" font-size="12" font-style="italic" lengthAdjust="spacing" textLength="74" x="333.5" y="299.8633">&#171;application&#187;</text><text fill="#000000" font-family="sans-serif" font-size="14" lengthAdjust="spacing" textLength="130" x="305.5" y="315.0801">ListCourseController</text><line style="stroke:#181818;stroke-width:0.5;" x1="277.5" x2="437.5" y1="323.0469" y2="323.0469"/><line style="stroke:#181818;stroke-width:0.5;" x1="277.5" x2="437.5" y1="331.0469" y2="331.0469"/><ellipse cx="287.5" cy="344.3672" fill="#84BE84" rx="3" ry="3" style="stroke:#038048;stroke-width:1.0;"/><text fill="#000000" font-family="sans-serif" font-size="14" lengthAdjust="spacing" textLength="80" x="296.5" y="347.7207">listCourses()</text></g><!--class EnrollStudentService--><g id="elem_EnrollStudentService"><rect codeLine="13" fill="#F1F1F1" height="70.6875" id="EnrollStudentService" rx="2.5" ry="2.5" style="stroke:#181818;stroke-width:0.5;" width="164" x="77.5" y="284"/><ellipse cx="92.5" cy="303.5234" fill="#ADD1B2" rx="11" ry="11" style="stroke:#181818;stroke-width:1.0;"/><path d="M94.5,300.0234 Q94.7031,299.5234 94.9375,299.2734 Q95.1719,299.0234 95.4375,299.0234 Q95.9063,299.0234 96.2031,299.3047 Q96.5,299.5859 96.5,300.2422 L96.5,301.8047 Q96.5,302.4609 96.2188,302.7422 Q95.9375,303.0234 95.5,303.0234 Q95.1094,303.0234 94.8594,302.8516 Q94.6094,302.6797 94.5,302.2266 Q94.4531,301.9141 94.2813,301.7422 Q93.9688,301.4141 93.4063,301.2266 Q92.8438,301.0234 92.2813,301.0234 Q91.5781,301.0234 90.9844,301.3047 Q90.4063,301.5859 89.9531,302.2109 Q89.5,302.8359 89.5,303.6953 L89.5,304.6172 Q89.5,305.6484 90.3438,306.3359 Q91.1875,307.0234 92.6875,307.0234 Q93.5781,307.0234 94.2031,306.8203 Q94.5625,306.7109 94.9688,306.3516 Q95.2344,306.1484 95.375,306.0859 Q95.5156,306.0234 95.6875,306.0234 Q96.0156,306.0234 96.25,306.2891 Q96.5,306.5391 96.5,306.8984 Q96.5,307.2422 96.1563,307.6484 Q95.6563,308.2422 94.8594,308.5703 Q93.8125,309.0234 92.5313,309.0234 Q91.0313,309.0234 89.8281,308.4297 Q88.8594,307.9609 88.1719,306.9453 Q87.5,305.9297 87.5,304.7266 L87.5,303.6328 Q87.5,302.3828 88.0938,301.2891 Q88.7031,300.1953 89.75,299.6172 Q90.8125,299.0234 92,299.0234 Q92.7188,299.0234 93.3438,299.2734 Q93.9688,299.5234 94.5,300.0234 Z " fill="#000000"/><text fill="#000000" font-family="sans-serif" font-size="12" font-style="italic" lengthAdjust="spacing" textLength="56" x="144.5" y="299.8633">&#171;domain&#187;</text><text fill="#000000" font-family="sans-serif" font-size="14" lengthAdjust="spacing" textLength="132" x="106.5" y="315.0801">EnrollStudentService</text><line style="stroke:#181818;stroke-width:0.5;" x1="78.5" x2="240.5" y1="323.0469" y2="323.0469"/><line style="stroke:#181818;stroke-width:0.5;" x1="78.5" x2="240.5" y1="331.0469" y2="331.0469"/><ellipse cx="88.5" cy="344.3672" fill="#84BE84" rx="3" ry="3" style="stroke:#038048;stroke-width:1.0;"/><text fill="#000000" font-family="sans-serif" font-size="14" lengthAdjust="spacing" textLength="136" x="97.5" y="347.7207">loadCsv(path,course)</text></g><!--class CourseRepository--><g id="elem_CourseRepository"><rect codeLine="17" fill="#F1F1F1" height="86.3281" id="CourseRepository" rx="2.5" ry="2.5" style="stroke:#181818;stroke-width:0.5;" width="249" x="233" y="415"/><ellipse cx="296.25" cy="434.5234" fill="#ADD1B2" rx="11" ry="11" style="stroke:#181818;stroke-width:1.0;"/><path d="M298.25,431.0234 Q298.4531,430.5234 298.6875,430.2734 Q298.9219,430.0234 299.1875,430.0234 Q299.6563,430.0234 299.9531,430.3047 Q300.25,430.5859 300.25,431.2422 L300.25,432.8047 Q300.25,433.4609 299.9688,433.7422 Q299.6875,434.0234 299.25,434.0234 Q298.8594,434.0234 298.6094,433.8516 Q298.3594,433.6797 298.25,433.2266 Q298.2031,432.9141 298.0313,432.7422 Q297.7188,432.4141 297.1563,432.2266 Q296.5938,432.0234 296.0313,432.0234 Q295.3281,432.0234 294.7344,432.3047 Q294.1563,432.5859 293.7031,433.2109 Q293.25,433.8359 293.25,434.6953 L293.25,435.6172 Q293.25,436.6484 294.0938,437.3359 Q294.9375,438.0234 296.4375,438.0234 Q297.3281,438.0234 297.9531,437.8203 Q298.3125,437.7109 298.7188,437.3516 Q298.9844,437.1484 299.125,437.0859 Q299.2656,437.0234 299.4375,437.0234 Q299.7656,437.0234 300,437.2891 Q300.25,437.5391 300.25,437.8984 Q300.25,438.2422 299.9063,438.6484 Q299.4063,439.2422 298.6094,439.5703 Q297.5625,440.0234 296.2813,440.0234 Q294.7813,440.0234 293.5781,439.4297 Q292.6094,438.9609 291.9219,437.9453 Q291.25,436.9297 291.25,435.7266 L291.25,434.6328 Q291.25,433.3828 291.8438,432.2891 Q292.4531,431.1953 293.5,430.6172 Q294.5625,430.0234 295.75,430.0234 Q296.4688,430.0234 297.0938,430.2734 Q297.7188,430.5234 298.25,431.0234 Z " fill="#000000"/><text fill="#000000" font-family="sans-serif" font-size="12" font-style="italic" lengthAdjust="spacing" textLength="68" x="339.75" y="430.8633">&#171;repository&#187;</text><text fill="#000000" font-family="sans-serif" font-size="14" lengthAdjust="spacing" textLength="114" x="316.75" y="446.0801">CourseRepository</text><line style="stroke:#181818;stroke-width:0.5;" x1="234" x2="481" y1="454.0469" y2="454.0469"/><line style="stroke:#181818;stroke-width:0.5;" x1="234" x2="481" y1="462.0469" y2="462.0469"/><ellipse cx="244" cy="475.3672" fill="#84BE84" rx="3" ry="3" style="stroke:#038048;stroke-width:1.0;"/><text fill="#000000" font-family="sans-serif" font-size="14" lengthAdjust="spacing" textLength="48" x="253" y="478.7207">findAll()</text><ellipse cx="244" cy="491.0078" fill="#84BE84" rx="3" ry="3" style="stroke:#038048;stroke-width:1.0;"/><text fill="#000000" font-family="sans-serif" font-size="14" lengthAdjust="spacing" textLength="223" x="253" y="494.3613">appendStudent(studentList,course)</text></g><!--class StudentRepository--><g id="elem_StudentRepository"><rect codeLine="22" fill="#F1F1F1" height="70.6875" id="StudentRepository" rx="2.5" ry="2.5" style="stroke:#181818;stroke-width:0.5;" width="191" x="7" y="422.5"/><ellipse cx="40.9" cy="442.0234" fill="#ADD1B2" rx="11" ry="11" style="stroke:#181818;stroke-width:1.0;"/><path d="M42.9,438.5234 Q43.1031,438.0234 43.3375,437.7734 Q43.5719,437.5234 43.8375,437.5234 Q44.3063,437.5234 44.6031,437.8047 Q44.9,438.0859 44.9,438.7422 L44.9,440.3047 Q44.9,440.9609 44.6188,441.2422 Q44.3375,441.5234 43.9,441.5234 Q43.5094,441.5234 43.2594,441.3516 Q43.0094,441.1797 42.9,440.7266 Q42.8531,440.4141 42.6813,440.2422 Q42.3688,439.9141 41.8063,439.7266 Q41.2438,439.5234 40.6813,439.5234 Q39.9781,439.5234 39.3844,439.8047 Q38.8063,440.0859 38.3531,440.7109 Q37.9,441.3359 37.9,442.1953 L37.9,443.1172 Q37.9,444.1484 38.7438,444.8359 Q39.5875,445.5234 41.0875,445.5234 Q41.9781,445.5234 42.6031,445.3203 Q42.9625,445.2109 43.3688,444.8516 Q43.6344,444.6484 43.775,444.5859 Q43.9156,444.5234 44.0875,444.5234 Q44.4156,444.5234 44.65,444.7891 Q44.9,445.0391 44.9,445.3984 Q44.9,445.7422 44.5563,446.1484 Q44.0563,446.7422 43.2594,447.0703 Q42.2125,447.5234 40.9313,447.5234 Q39.4313,447.5234 38.2281,446.9297 Q37.2594,446.4609 36.5719,445.4453 Q35.9,444.4297 35.9,443.2266 L35.9,442.1328 Q35.9,440.8828 36.4938,439.7891 Q37.1031,438.6953 38.15,438.1172 Q39.2125,437.5234 40.4,437.5234 Q41.1188,437.5234 41.7438,437.7734 Q42.3688,438.0234 42.9,438.5234 Z " fill="#000000"/><text fill="#000000" font-family="sans-serif" font-size="12" font-style="italic" lengthAdjust="spacing" textLength="68" x="83.6" y="438.3633">&#171;repository&#187;</text><text fill="#000000" font-family="sans-serif" font-size="14" lengthAdjust="spacing" textLength="117" x="59.1" y="453.5801">StudentRepository</text><line style="stroke:#181818;stroke-width:0.5;" x1="8" x2="197" y1="461.5469" y2="461.5469"/><line style="stroke:#181818;stroke-width:0.5;" x1="8" x2="197" y1="469.5469" y2="469.5469"/><ellipse cx="18" cy="482.8672" fill="#84BE84" rx="3" ry="3" style="stroke:#038048;stroke-width:1.0;"/><text fill="#000000" font-family="sans-serif" font-size="14" lengthAdjust="spacing" textLength="165" x="27" y="486.2207">findStudentByEmail(email)</text></g><!--link EnrollStudentUI to EnrollStudentController--><g id="link_EnrollStudentUI_EnrollStudentController"><path codeLine="26" d="M235.62,93.07 C226.53,110.54 216.04,130.71 207.09,147.91 " fill="none" id="EnrollStudentUI-to-EnrollStudentController" style="stroke:#181818;stroke-width:1.0;"/><polygon fill="#181818" points="204.61,152.68,212.3235,146.5561,206.9258,148.2486,205.2333,142.8509,204.61,152.68" style="stroke:#181818;stroke-width:1.0;"/></g><!--link EnrollStudentUI to ListCourseController--><g id="link_EnrollStudentUI_ListCourseController"><path codeLine="27" d="M273.24,93.09 C292.31,144.12 324.21,229.44 342.8,279.19 " fill="none" id="EnrollStudentUI-to-ListCourseController" style="stroke:#181818;stroke-width:1.0;"/><polygon fill="#181818" points="344.56,283.89,345.1715,274.0601,342.8169,279.2037,337.6734,276.8491,344.56,283.89" style="stroke:#181818;stroke-width:1.0;"/></g><!--link ListCourseController to CourseRepository--><g id="link_ListCourseController_CourseRepository"><path codeLine="28" d="M357.5,355.3 C357.5,371.76 357.5,391.68 357.5,409.5 " fill="none" id="ListCourseController-to-CourseRepository" style="stroke:#181818;stroke-width:1.0;"/><polygon fill="#181818" points="357.5,414.96,361.5,405.96,357.5,409.96,353.5,405.96,357.5,414.96" style="stroke:#181818;stroke-width:1.0;"/></g><!--link EnrollStudentController to EnrollStudentService--><g id="link_EnrollStudentController_EnrollStudentService"><path codeLine="29" d="M179.26,224.07 C175.75,240.84 171.52,261.09 167.87,278.52 " fill="none" id="EnrollStudentController-to-EnrollStudentService" style="stroke:#181818;stroke-width:1.0;"/><polygon fill="#181818" points="166.76,283.83,172.5283,275.8471,167.7901,278.9373,164.6999,274.199,166.76,283.83" style="stroke:#181818;stroke-width:1.0;"/></g><!--link EnrollStudentService to StudentRepository--><g id="link_EnrollStudentService_StudentRepository"><path codeLine="30" d="M144.97,355.3 C137.06,374.23 127.25,397.73 119.05,417.36 " fill="none" id="EnrollStudentService-to-StudentRepository" style="stroke:#181818;stroke-width:1.0;"/><polygon fill="#181818" points="117,422.27,124.1613,415.5086,118.9281,417.6567,116.78,412.4236,117,422.27" style="stroke:#181818;stroke-width:1.0;"/></g><!--link EnrollStudentService to CourseRepository--><g id="link_EnrollStudentService_CourseRepository"><path codeLine="31" d="M209.72,355.12 C234.73,372.36 265.28,393.43 292.1,411.92 " fill="none" id="EnrollStudentService-to-CourseRepository" style="stroke:#181818;stroke-width:1.0;"/><polygon fill="#181818" points="296.37,414.86,291.2395,406.453,292.2565,412.0177,286.6918,413.0346,296.37,414.86" style="stroke:#181818;stroke-width:1.0;"/></g><!--SRC=[ZP71YiCW48RlFaMEbcpV80IweOU5FJNq0KHdgU0wujYMKlhkgwk4jYQq5qVXdsz-_v5643LRwz6OCHmLsB3_QhhEUQ1u5q6ZxVihQnME1ppp5MifrW6Fde2up7N5RapMf05jI4_maIYSCreMO1E91eKQwCIT28UF34gS0lhM5FAK5vH9H_ok_S772Fwa9SHsXRz2lpK_CtVWa7H0VudDVdfam8-sQcDCoYJQ0glAE4wvfY_Ku29wIIwwpyisMZOSqlcFULxMUjqlnJwddGkMpQQTmCyniAK5LovAw6ns4qbT1R4ihLpy0G00]--></g></svg>