<?xml version="1.0" encoding="UTF-8" standalone="no"?><svg xmlns="http://www.w3.org/2000/svg" xmlns:xlink="http://www.w3.org/1999/xlink" contentStyleType="text/css" height="919px" preserveAspectRatio="none" style="width:760px;height:919px;background:#FFFFFF;" version="1.1" viewBox="0 0 760 919" width="760px" zoomAndPan="magnify"><defs/><g><!--MD5=[3fd616f346a44cd59a91eb10b19e157c]
class User--><g id="elem_User"><rect codeLine="1" fill="#F1F1F1" height="48" id="User" rx="2.5" ry="2.5" style="stroke:#181818;stroke-width:0.5;" width="61" x="324" y="7"/><ellipse cx="339" cy="23" fill="#ADD1B2" rx="11" ry="11" style="stroke:#181818;stroke-width:1.0;"/><path d="M341,19.5 Q341.2031,19 341.4375,18.75 Q341.6719,18.5 341.9375,18.5 Q342.4063,18.5 342.7031,18.7813 Q343,19.0625 343,19.7188 L343,21.2813 Q343,21.9375 342.7188,22.2188 Q342.4375,22.5 342,22.5 Q341.6094,22.5 341.3594,22.3281 Q341.1094,22.1563 341,21.7031 Q340.9531,21.3906 340.7813,21.2188 Q340.4688,20.8906 339.9063,20.7031 Q339.3438,20.5 338.7813,20.5 Q338.0781,20.5 337.4844,20.7813 Q336.9063,21.0625 336.4531,21.6875 Q336,22.3125 336,23.1719 L336,24.0938 Q336,25.125 336.8438,25.8125 Q337.6875,26.5 339.1875,26.5 Q340.0781,26.5 340.7031,26.2969 Q341.0625,26.1875 341.4688,25.8281 Q341.7344,25.625 341.875,25.5625 Q342.0156,25.5 342.1875,25.5 Q342.5156,25.5 342.75,25.7656 Q343,26.0156 343,26.375 Q343,26.7188 342.6563,27.125 Q342.1563,27.7188 341.3594,28.0469 Q340.3125,28.5 339.0313,28.5 Q337.5313,28.5 336.3281,27.9063 Q335.3594,27.4375 334.6719,26.4219 Q334,25.4063 334,24.2031 L334,23.1094 Q334,21.8594 334.5938,20.7656 Q335.2031,19.6719 336.25,19.0938 Q337.3125,18.5 338.5,18.5 Q339.2188,18.5 339.8438,18.75 Q340.4688,19 341,19.5 Z " fill="#000000"/><text fill="#000000" font-family="sans-serif" font-size="14" lengthAdjust="spacing" textLength="29" x="353" y="28.7285">User</text><line style="stroke:#181818;stroke-width:0.5;" x1="325" x2="384" y1="39" y2="39"/><line style="stroke:#181818;stroke-width:0.5;" x1="325" x2="384" y1="47" y2="47"/></g><!--MD5=[c9e8e558ac46bcbdad2d9867d5264139]
class MeetingRepository--><g id="elem_MeetingRepository"><rect codeLine="4" fill="#F1F1F1" height="48" id="MeetingRepository" rx="2.5" ry="2.5" style="stroke:#181818;stroke-width:0.5;" width="150" x="110.5" y="589"/><ellipse cx="125.5" cy="605" fill="#ADD1B2" rx="11" ry="11" style="stroke:#181818;stroke-width:1.0;"/><path d="M127.5,601.5 Q127.7031,601 127.9375,600.75 Q128.1719,600.5 128.4375,600.5 Q128.9063,600.5 129.2031,600.7813 Q129.5,601.0625 129.5,601.7188 L129.5,603.2813 Q129.5,603.9375 129.2188,604.2188 Q128.9375,604.5 128.5,604.5 Q128.1094,604.5 127.8594,604.3281 Q127.6094,604.1563 127.5,603.7031 Q127.4531,603.3906 127.2813,603.2188 Q126.9688,602.8906 126.4063,602.7031 Q125.8438,602.5 125.2813,602.5 Q124.5781,602.5 123.9844,602.7813 Q123.4063,603.0625 122.9531,603.6875 Q122.5,604.3125 122.5,605.1719 L122.5,606.0938 Q122.5,607.125 123.3438,607.8125 Q124.1875,608.5 125.6875,608.5 Q126.5781,608.5 127.2031,608.2969 Q127.5625,608.1875 127.9688,607.8281 Q128.2344,607.625 128.375,607.5625 Q128.5156,607.5 128.6875,607.5 Q129.0156,607.5 129.25,607.7656 Q129.5,608.0156 129.5,608.375 Q129.5,608.7188 129.1563,609.125 Q128.6563,609.7188 127.8594,610.0469 Q126.8125,610.5 125.5313,610.5 Q124.0313,610.5 122.8281,609.9063 Q121.8594,609.4375 121.1719,608.4219 Q120.5,607.4063 120.5,606.2031 L120.5,605.1094 Q120.5,603.8594 121.0938,602.7656 Q121.7031,601.6719 122.75,601.0938 Q123.8125,600.5 125,600.5 Q125.7188,600.5 126.3438,600.75 Q126.9688,601 127.5,601.5 Z " fill="#000000"/><text fill="#000000" font-family="sans-serif" font-size="14" lengthAdjust="spacing" textLength="118" x="139.5" y="610.7285">MeetingRepository</text><line style="stroke:#181818;stroke-width:0.5;" x1="111.5" x2="259.5" y1="621" y2="621"/><line style="stroke:#181818;stroke-width:0.5;" x1="111.5" x2="259.5" y1="629" y2="629"/></g><!--MD5=[ab25c96e8a29c3468f73ace3a92f2ce4]
class MeetingALRepository--><g id="elem_MeetingALRepository"><rect codeLine="7" fill="#F1F1F1" height="65.6094" id="MeetingALRepository" rx="2.5" ry="2.5" style="stroke:#181818;stroke-width:0.5;" width="457" x="296" y="580"/><ellipse cx="452.75" cy="596" fill="#ADD1B2" rx="11" ry="11" style="stroke:#181818;stroke-width:1.0;"/><path d="M454.75,592.5 Q454.9531,592 455.1875,591.75 Q455.4219,591.5 455.6875,591.5 Q456.1563,591.5 456.4531,591.7813 Q456.75,592.0625 456.75,592.7188 L456.75,594.2813 Q456.75,594.9375 456.4688,595.2188 Q456.1875,595.5 455.75,595.5 Q455.3594,595.5 455.1094,595.3281 Q454.8594,595.1563 454.75,594.7031 Q454.7031,594.3906 454.5313,594.2188 Q454.2188,593.8906 453.6563,593.7031 Q453.0938,593.5 452.5313,593.5 Q451.8281,593.5 451.2344,593.7813 Q450.6563,594.0625 450.2031,594.6875 Q449.75,595.3125 449.75,596.1719 L449.75,597.0938 Q449.75,598.125 450.5938,598.8125 Q451.4375,599.5 452.9375,599.5 Q453.8281,599.5 454.4531,599.2969 Q454.8125,599.1875 455.2188,598.8281 Q455.4844,598.625 455.625,598.5625 Q455.7656,598.5 455.9375,598.5 Q456.2656,598.5 456.5,598.7656 Q456.75,599.0156 456.75,599.375 Q456.75,599.7188 456.4063,600.125 Q455.9063,600.7188 455.1094,601.0469 Q454.0625,601.5 452.7813,601.5 Q451.2813,601.5 450.0781,600.9063 Q449.1094,600.4375 448.4219,599.4219 Q447.75,598.4063 447.75,597.2031 L447.75,596.1094 Q447.75,594.8594 448.3438,593.7656 Q448.9531,592.6719 450,592.0938 Q451.0625,591.5 452.25,591.5 Q452.9688,591.5 453.5938,591.75 Q454.2188,592 454.75,592.5 Z " fill="#000000"/><text fill="#000000" font-family="sans-serif" font-size="14" lengthAdjust="spacing" textLength="135" x="473.25" y="601.7285">MeetingALRepository</text><line style="stroke:#181818;stroke-width:0.5;" x1="297" x2="752" y1="612" y2="612"/><line style="stroke:#181818;stroke-width:0.5;" x1="297" x2="752" y1="620" y2="620"/><ellipse cx="307" cy="631" fill="#84BE84" rx="3" ry="3" style="stroke:#038048;stroke-width:1.0;"/><text fill="#000000" font-family="sans-serif" font-size="14" lengthAdjust="spacing" textLength="431" x="316" y="638.5332">verifyAndNotify(List&lt;SystemUser&gt; users, Meeting meeting) : boolean</text></g><!--MD5=[a34068aabe10b770441c32a6cabc8fb8]
class CreateMeetingUI--><g id="elem_CreateMeetingUI"><rect codeLine="11" fill="#F1F1F1" height="83.2188" id="CreateMeetingUI" rx="2.5" ry="2.5" style="stroke:#181818;stroke-width:0.5;" width="149" x="280" y="115"/><ellipse cx="300.4" cy="131" fill="#ADD1B2" rx="11" ry="11" style="stroke:#181818;stroke-width:1.0;"/><path d="M302.4,127.5 Q302.6031,127 302.8375,126.75 Q303.0719,126.5 303.3375,126.5 Q303.8063,126.5 304.1031,126.7813 Q304.4,127.0625 304.4,127.7188 L304.4,129.2813 Q304.4,129.9375 304.1188,130.2188 Q303.8375,130.5 303.4,130.5 Q303.0094,130.5 302.7594,130.3281 Q302.5094,130.1563 302.4,129.7031 Q302.3531,129.3906 302.1813,129.2188 Q301.8688,128.8906 301.3063,128.7031 Q300.7438,128.5 300.1813,128.5 Q299.4781,128.5 298.8844,128.7813 Q298.3063,129.0625 297.8531,129.6875 Q297.4,130.3125 297.4,131.1719 L297.4,132.0938 Q297.4,133.125 298.2438,133.8125 Q299.0875,134.5 300.5875,134.5 Q301.4781,134.5 302.1031,134.2969 Q302.4625,134.1875 302.8688,133.8281 Q303.1344,133.625 303.275,133.5625 Q303.4156,133.5 303.5875,133.5 Q303.9156,133.5 304.15,133.7656 Q304.4,134.0156 304.4,134.375 Q304.4,134.7188 304.0563,135.125 Q303.5563,135.7188 302.7594,136.0469 Q301.7125,136.5 300.4313,136.5 Q298.9313,136.5 297.7281,135.9063 Q296.7594,135.4375 296.0719,134.4219 Q295.4,133.4063 295.4,132.2031 L295.4,131.1094 Q295.4,129.8594 295.9938,128.7656 Q296.6031,127.6719 297.65,127.0938 Q298.7125,126.5 299.9,126.5 Q300.6188,126.5 301.2438,126.75 Q301.8688,127 302.4,127.5 Z " fill="#000000"/><text fill="#000000" font-family="sans-serif" font-size="14" lengthAdjust="spacing" textLength="105" x="315.6" y="136.7285">CreateMeetingUI</text><line style="stroke:#181818;stroke-width:0.5;" x1="281" x2="428" y1="147" y2="147"/><line style="stroke:#181818;stroke-width:0.5;" x1="281" x2="428" y1="155" y2="155"/><ellipse cx="291" cy="166" fill="#84BE84" rx="3" ry="3" style="stroke:#038048;stroke-width:1.0;"/><text fill="#000000" font-family="sans-serif" font-size="14" lengthAdjust="spacing" textLength="123" x="300" y="173.5332">doShow() : boolean</text><ellipse cx="291" cy="183.6094" fill="#84BE84" rx="3" ry="3" style="stroke:#038048;stroke-width:1.0;"/><text fill="#000000" font-family="sans-serif" font-size="14" lengthAdjust="spacing" textLength="113" x="300" y="191.1426">headline() : String</text></g><!--MD5=[c688824c491ed7f0195f2c60fff4a07e]
class CreateMeetingController--><g id="elem_CreateMeetingController"><rect codeLine="16" fill="#F1F1F1" height="100.8281" id="CreateMeetingController" rx="2.5" ry="2.5" style="stroke:#181818;stroke-width:0.5;" width="657" x="26" y="258"/><ellipse cx="272.75" cy="274" fill="#ADD1B2" rx="11" ry="11" style="stroke:#181818;stroke-width:1.0;"/><path d="M274.75,270.5 Q274.9531,270 275.1875,269.75 Q275.4219,269.5 275.6875,269.5 Q276.1563,269.5 276.4531,269.7813 Q276.75,270.0625 276.75,270.7188 L276.75,272.2813 Q276.75,272.9375 276.4688,273.2188 Q276.1875,273.5 275.75,273.5 Q275.3594,273.5 275.1094,273.3281 Q274.8594,273.1563 274.75,272.7031 Q274.7031,272.3906 274.5313,272.2188 Q274.2188,271.8906 273.6563,271.7031 Q273.0938,271.5 272.5313,271.5 Q271.8281,271.5 271.2344,271.7813 Q270.6563,272.0625 270.2031,272.6875 Q269.75,273.3125 269.75,274.1719 L269.75,275.0938 Q269.75,276.125 270.5938,276.8125 Q271.4375,277.5 272.9375,277.5 Q273.8281,277.5 274.4531,277.2969 Q274.8125,277.1875 275.2188,276.8281 Q275.4844,276.625 275.625,276.5625 Q275.7656,276.5 275.9375,276.5 Q276.2656,276.5 276.5,276.7656 Q276.75,277.0156 276.75,277.375 Q276.75,277.7188 276.4063,278.125 Q275.9063,278.7188 275.1094,279.0469 Q274.0625,279.5 272.7813,279.5 Q271.2813,279.5 270.0781,278.9063 Q269.1094,278.4375 268.4219,277.4219 Q267.75,276.4063 267.75,275.2031 L267.75,274.1094 Q267.75,272.8594 268.3438,271.7656 Q268.9531,270.6719 270,270.0938 Q271.0625,269.5 272.25,269.5 Q272.9688,269.5 273.5938,269.75 Q274.2188,270 274.75,270.5 Z " fill="#000000"/><text fill="#000000" font-family="sans-serif" font-size="14" lengthAdjust="spacing" textLength="155" x="293.25" y="279.7285">CreateMeetingController</text><line style="stroke:#181818;stroke-width:0.5;" x1="27" x2="682" y1="290" y2="290"/><rect fill="none" height="6" style="stroke:#C82930;stroke-width:1.0;" width="6" x="34" y="298"/><text fill="#000000" font-family="sans-serif" font-size="14" lengthAdjust="spacing" textLength="189" x="46" y="308.5332">CreateMeetingService service</text><rect fill="none" height="6" style="stroke:#C82930;stroke-width:1.0;" width="6" x="34" y="315.6094"/><text fill="#000000" font-family="sans-serif" font-size="14" lengthAdjust="spacing" textLength="213" x="46" y="326.1426">UserManagementService userSvc</text><line style="stroke:#181818;stroke-width:0.5;" x1="27" x2="682" y1="333.2188" y2="333.2188"/><ellipse cx="37" cy="344.2188" fill="#84BE84" rx="3" ry="3" style="stroke:#038048;stroke-width:1.0;"/><text fill="#000000" font-family="sans-serif" font-size="14" lengthAdjust="spacing" textLength="631" x="46" y="351.752">createMeeting(LocalDate date, LocalTime duration, LocalTime hour, List&lt;String&gt; userList) : boolean</text></g><!--MD5=[6854c9e90c1b07f98854285ee435a70e]
class CreateMeetingService--><g id="elem_CreateMeetingService"><rect codeLine="22" fill="#F1F1F1" height="100.8281" id="CreateMeetingService" rx="2.5" ry="2.5" style="stroke:#181818;stroke-width:0.5;" width="695" x="7" y="419"/><ellipse cx="280.25" cy="435" fill="#ADD1B2" rx="11" ry="11" style="stroke:#181818;stroke-width:1.0;"/><path d="M282.25,431.5 Q282.4531,431 282.6875,430.75 Q282.9219,430.5 283.1875,430.5 Q283.6563,430.5 283.9531,430.7813 Q284.25,431.0625 284.25,431.7188 L284.25,433.2813 Q284.25,433.9375 283.9688,434.2188 Q283.6875,434.5 283.25,434.5 Q282.8594,434.5 282.6094,434.3281 Q282.3594,434.1563 282.25,433.7031 Q282.2031,433.3906 282.0313,433.2188 Q281.7188,432.8906 281.1563,432.7031 Q280.5938,432.5 280.0313,432.5 Q279.3281,432.5 278.7344,432.7813 Q278.1563,433.0625 277.7031,433.6875 Q277.25,434.3125 277.25,435.1719 L277.25,436.0938 Q277.25,437.125 278.0938,437.8125 Q278.9375,438.5 280.4375,438.5 Q281.3281,438.5 281.9531,438.2969 Q282.3125,438.1875 282.7188,437.8281 Q282.9844,437.625 283.125,437.5625 Q283.2656,437.5 283.4375,437.5 Q283.7656,437.5 284,437.7656 Q284.25,438.0156 284.25,438.375 Q284.25,438.7188 283.9063,439.125 Q283.4063,439.7188 282.6094,440.0469 Q281.5625,440.5 280.2813,440.5 Q278.7813,440.5 277.5781,439.9063 Q276.6094,439.4375 275.9219,438.4219 Q275.25,437.4063 275.25,436.2031 L275.25,435.1094 Q275.25,433.8594 275.8438,432.7656 Q276.4531,431.6719 277.5,431.0938 Q278.5625,430.5 279.75,430.5 Q280.4688,430.5 281.0938,430.75 Q281.7188,431 282.25,431.5 Z " fill="#000000"/><text fill="#000000" font-family="sans-serif" font-size="14" lengthAdjust="spacing" textLength="140" x="300.75" y="440.7285">CreateMeetingService</text><line style="stroke:#181818;stroke-width:0.5;" x1="8" x2="701" y1="451" y2="451"/><rect fill="none" height="6" style="stroke:#C82930;stroke-width:1.0;" width="6" x="15" y="459"/><text fill="#000000" font-family="sans-serif" font-size="14" lengthAdjust="spacing" textLength="138" x="27" y="469.5332">MeetingRepository mr</text><rect fill="none" height="6" style="stroke:#C82930;stroke-width:1.0;" width="6" x="15" y="476.6094"/><text fill="#000000" font-family="sans-serif" font-size="14" lengthAdjust="spacing" textLength="170" x="27" y="487.1426">MeetingALRepository macr</text><line style="stroke:#181818;stroke-width:0.5;" x1="8" x2="701" y1="494.2188" y2="494.2188"/><ellipse cx="18" cy="505.2188" fill="#84BE84" rx="3" ry="3" style="stroke:#038048;stroke-width:1.0;"/><text fill="#000000" font-family="sans-serif" font-size="14" lengthAdjust="spacing" textLength="669" x="27" y="512.752">createMeeting(LocalDate date, LocalTime duration, LocalTime hour, List&lt;SystemUser&gt; userList) : boolean</text></g><!--MD5=[231a3ce522baab9e83744ac8e5933a62]
class MeetingAccessList--><g id="elem_MeetingAccessList"><rect codeLine="28" fill="#F1F1F1" height="153.6563" id="MeetingAccessList" rx="2.5" ry="2.5" style="stroke:#181818;stroke-width:0.5;" width="227" x="411" y="732"/><ellipse cx="461.75" cy="748" fill="#ADD1B2" rx="11" ry="11" style="stroke:#181818;stroke-width:1.0;"/><path d="M463.75,744.5 Q463.9531,744 464.1875,743.75 Q464.4219,743.5 464.6875,743.5 Q465.1563,743.5 465.4531,743.7813 Q465.75,744.0625 465.75,744.7188 L465.75,746.2813 Q465.75,746.9375 465.4688,747.2188 Q465.1875,747.5 464.75,747.5 Q464.3594,747.5 464.1094,747.3281 Q463.8594,747.1563 463.75,746.7031 Q463.7031,746.3906 463.5313,746.2188 Q463.2188,745.8906 462.6563,745.7031 Q462.0938,745.5 461.5313,745.5 Q460.8281,745.5 460.2344,745.7813 Q459.6563,746.0625 459.2031,746.6875 Q458.75,747.3125 458.75,748.1719 L458.75,749.0938 Q458.75,750.125 459.5938,750.8125 Q460.4375,751.5 461.9375,751.5 Q462.8281,751.5 463.4531,751.2969 Q463.8125,751.1875 464.2188,750.8281 Q464.4844,750.625 464.625,750.5625 Q464.7656,750.5 464.9375,750.5 Q465.2656,750.5 465.5,750.7656 Q465.75,751.0156 465.75,751.375 Q465.75,751.7188 465.4063,752.125 Q464.9063,752.7188 464.1094,753.0469 Q463.0625,753.5 461.7813,753.5 Q460.2813,753.5 459.0781,752.9063 Q458.1094,752.4375 457.4219,751.4219 Q456.75,750.4063 456.75,749.2031 L456.75,748.1094 Q456.75,746.8594 457.3438,745.7656 Q457.9531,744.6719 459,744.0938 Q460.0625,743.5 461.25,743.5 Q461.9688,743.5 462.5938,743.75 Q463.2188,744 463.75,744.5 Z " fill="#000000"/><text fill="#000000" font-family="sans-serif" font-size="14" lengthAdjust="spacing" textLength="117" x="482.25" y="753.7285">MeetingAccessList</text><line style="stroke:#181818;stroke-width:0.5;" x1="412" x2="637" y1="764" y2="764"/><rect fill="none" height="6" style="stroke:#C82930;stroke-width:1.0;" width="6" x="419" y="772"/><text fill="#000000" font-family="sans-serif" font-size="14" lengthAdjust="spacing" textLength="114" x="431" y="782.5332">Long idAccessList</text><rect fill="none" height="6" style="stroke:#C82930;stroke-width:1.0;" width="6" x="419" y="789.6094"/><text fill="#000000" font-family="sans-serif" font-size="14" lengthAdjust="spacing" textLength="107" x="431" y="800.1426">SystemUser user</text><rect fill="none" height="6" style="stroke:#C82930;stroke-width:1.0;" width="6" x="419" y="807.2188"/><text fill="#000000" font-family="sans-serif" font-size="14" lengthAdjust="spacing" textLength="136" x="431" y="817.752">InviteState inviteState</text><rect fill="none" height="6" style="stroke:#C82930;stroke-width:1.0;" width="6" x="419" y="824.8281"/><text fill="#000000" font-family="sans-serif" font-size="14" lengthAdjust="spacing" textLength="104" x="431" y="835.3613">Meeting meeting</text><line style="stroke:#181818;stroke-width:0.5;" x1="412" x2="637" y1="842.4375" y2="842.4375"/><ellipse cx="422" cy="853.4375" fill="#84BE84" rx="3" ry="3" style="stroke:#038048;stroke-width:1.0;"/><text fill="#000000" font-family="sans-serif" font-size="14" lengthAdjust="spacing" textLength="201" x="431" y="860.9707">sameAs(Object other) : boolean</text><ellipse cx="422" cy="871.0469" fill="#84BE84" rx="3" ry="3" style="stroke:#038048;stroke-width:1.0;"/><text fill="#000000" font-family="sans-serif" font-size="14" lengthAdjust="spacing" textLength="101" x="431" y="878.5801">identity() : Code</text></g><!--MD5=[470de71a3d8a10af421a05b5c0e7e25c]
class MeetingTime--><g id="elem_MeetingTime"><rect codeLine="37" fill="#F1F1F1" height="206.4844" id="MeetingTime" rx="2.5" ry="2.5" style="stroke:#181818;stroke-width:0.5;" width="268" x="51.5" y="706"/><ellipse cx="140.75" cy="722" fill="#ADD1B2" rx="11" ry="11" style="stroke:#181818;stroke-width:1.0;"/><path d="M142.75,718.5 Q142.9531,718 143.1875,717.75 Q143.4219,717.5 143.6875,717.5 Q144.1563,717.5 144.4531,717.7813 Q144.75,718.0625 144.75,718.7188 L144.75,720.2813 Q144.75,720.9375 144.4688,721.2188 Q144.1875,721.5 143.75,721.5 Q143.3594,721.5 143.1094,721.3281 Q142.8594,721.1563 142.75,720.7031 Q142.7031,720.3906 142.5313,720.2188 Q142.2188,719.8906 141.6563,719.7031 Q141.0938,719.5 140.5313,719.5 Q139.8281,719.5 139.2344,719.7813 Q138.6563,720.0625 138.2031,720.6875 Q137.75,721.3125 137.75,722.1719 L137.75,723.0938 Q137.75,724.125 138.5938,724.8125 Q139.4375,725.5 140.9375,725.5 Q141.8281,725.5 142.4531,725.2969 Q142.8125,725.1875 143.2188,724.8281 Q143.4844,724.625 143.625,724.5625 Q143.7656,724.5 143.9375,724.5 Q144.2656,724.5 144.5,724.7656 Q144.75,725.0156 144.75,725.375 Q144.75,725.7188 144.4063,726.125 Q143.9063,726.7188 143.1094,727.0469 Q142.0625,727.5 140.7813,727.5 Q139.2813,727.5 138.0781,726.9063 Q137.1094,726.4375 136.4219,725.4219 Q135.75,724.4063 135.75,723.2031 L135.75,722.1094 Q135.75,720.8594 136.3438,719.7656 Q136.9531,718.6719 138,718.0938 Q139.0625,717.5 140.25,717.5 Q140.9688,717.5 141.5938,717.75 Q142.2188,718 142.75,718.5 Z " fill="#000000"/><text fill="#000000" font-family="sans-serif" font-size="14" lengthAdjust="spacing" textLength="81" x="161.25" y="727.7285">MeetingTime</text><line style="stroke:#181818;stroke-width:0.5;" x1="52.5" x2="318.5" y1="738" y2="738"/><rect fill="none" height="6" style="stroke:#C82930;stroke-width:1.0;" width="6" x="59.5" y="746"/><text fill="#000000" font-family="sans-serif" font-size="14" lengthAdjust="spacing" textLength="121" x="71.5" y="756.5332">LocalTime duration</text><rect fill="none" height="6" style="stroke:#C82930;stroke-width:1.0;" width="6" x="59.5" y="763.6094"/><text fill="#000000" font-family="sans-serif" font-size="14" lengthAdjust="spacing" textLength="98" x="71.5" y="774.1426">LocalTime hour</text><rect fill="none" height="6" style="stroke:#C82930;stroke-width:1.0;" width="6" x="59.5" y="781.2188"/><text fill="#000000" font-family="sans-serif" font-size="14" lengthAdjust="spacing" textLength="96" x="71.5" y="791.752">LocalDate date</text><line style="stroke:#181818;stroke-width:0.5;" x1="52.5" x2="318.5" y1="798.8281" y2="798.8281"/><ellipse cx="62.5" cy="809.8281" fill="#84BE84" rx="3" ry="3" style="stroke:#038048;stroke-width:1.0;"/><text fill="#000000" font-family="sans-serif" font-size="14" lengthAdjust="spacing" textLength="161" x="71.5" y="817.3613">getDuration() : LocalTime</text><ellipse cx="62.5" cy="827.4375" fill="#84BE84" rx="3" ry="3" style="stroke:#038048;stroke-width:1.0;"/><text fill="#000000" font-family="sans-serif" font-size="14" lengthAdjust="spacing" textLength="242" x="71.5" y="834.9707">setDuration(LocalTime duration) : void</text><ellipse cx="62.5" cy="845.0469" fill="#84BE84" rx="3" ry="3" style="stroke:#038048;stroke-width:1.0;"/><text fill="#000000" font-family="sans-serif" font-size="14" lengthAdjust="spacing" textLength="137" x="71.5" y="852.5801">getHour() : LocalTime</text><ellipse cx="62.5" cy="862.6563" fill="#84BE84" rx="3" ry="3" style="stroke:#038048;stroke-width:1.0;"/><text fill="#000000" font-family="sans-serif" font-size="14" lengthAdjust="spacing" textLength="195" x="71.5" y="870.1895">setHour(LocalTime hour) : void</text><ellipse cx="62.5" cy="880.2656" fill="#84BE84" rx="3" ry="3" style="stroke:#038048;stroke-width:1.0;"/><text fill="#000000" font-family="sans-serif" font-size="14" lengthAdjust="spacing" textLength="136" x="71.5" y="887.7988">getDate() : LocalDate</text><ellipse cx="62.5" cy="897.875" fill="#84BE84" rx="3" ry="3" style="stroke:#038048;stroke-width:1.0;"/><text fill="#000000" font-family="sans-serif" font-size="14" lengthAdjust="spacing" textLength="193" x="71.5" y="905.4082">setDate(LocalDate date) : void</text></g><!--MD5=[91a8a89ef5ec18650cc67e40ab8e0df1]
link User to CreateMeetingUI--><g id="link_User_CreateMeetingUI"><path codeLine="49" d="M354.5,55.23 C354.5,70.56 354.5,91.16 354.5,109.7 " fill="none" id="User-to-CreateMeetingUI" style="stroke:#181818;stroke-width:1.0;"/><polygon fill="#181818" points="354.5,114.87,358.5,105.87,354.5,109.87,350.5,105.87,354.5,114.87" style="stroke:#181818;stroke-width:1.0;"/></g><!--MD5=[c28a371b40c03196c8f460ab4b49241d]
link CreateMeetingUI to CreateMeetingController--><g id="link_CreateMeetingUI_CreateMeetingController"><path codeLine="50" d="M354.5,198.09 C354.5,214.91 354.5,234.66 354.5,252.73 " fill="none" id="CreateMeetingUI-to-CreateMeetingController" style="stroke:#181818;stroke-width:1.0;"/><polygon fill="#181818" points="354.5,257.78,358.5,248.78,354.5,252.78,350.5,248.78,354.5,257.78" style="stroke:#181818;stroke-width:1.0;"/></g><!--MD5=[3f94f75a376cf85be15c54425905e4c4]
link CreateMeetingController to CreateMeetingService--><g id="link_CreateMeetingController_CreateMeetingService"><path codeLine="51" d="M354.5,359.37 C354.5,376.54 354.5,395.86 354.5,413.42 " fill="none" id="CreateMeetingController-to-CreateMeetingService" style="stroke:#181818;stroke-width:1.0;"/><polygon fill="#181818" points="354.5,418.8,358.5,409.8,354.5,413.8,350.5,409.8,354.5,418.8" style="stroke:#181818;stroke-width:1.0;"/></g><!--MD5=[a4b462e180221eb041bc67719479c841]
link CreateMeetingService to MeetingRepository--><g id="link_CreateMeetingService_MeetingRepository"><path codeLine="52" d="M294.92,520.39 C268.79,542.26 239.18,567.05 217.36,585.33 " fill="none" id="CreateMeetingService-to-MeetingRepository" style="stroke:#181818;stroke-width:1.0;"/><polygon fill="#181818" points="213.37,588.66,222.8348,585.9366,217.1994,585.445,217.6909,579.8096,213.37,588.66" style="stroke:#181818;stroke-width:1.0;"/></g><!--MD5=[252e9392ebd61d5257b43c75e5e5998a]
link MeetingRepository to MeetingTime--><g id="link_MeetingRepository_MeetingTime"><path codeLine="53" d="M185.5,637.02 C185.5,653.32 185.5,676.49 185.5,700.53 " fill="none" id="MeetingRepository-to-MeetingTime" style="stroke:#181818;stroke-width:1.0;"/><polygon fill="#181818" points="185.5,705.67,189.5,696.67,185.5,700.67,181.5,696.67,185.5,705.67" style="stroke:#181818;stroke-width:1.0;"/></g><!--MD5=[08d46b24d7d2fc428513f1a3c9076191]
link CreateMeetingService to MeetingALRepository--><g id="link_CreateMeetingService_MeetingALRepository"><path codeLine="54" d="M414.44,520.39 C436.75,538.96 461.6,559.64 482.03,576.65 " fill="none" id="CreateMeetingService-to-MeetingALRepository" style="stroke:#181818;stroke-width:1.0;"/><polygon fill="#181818" points="486.05,580,481.6935,571.167,482.2077,576.8005,476.5743,577.3147,486.05,580" style="stroke:#181818;stroke-width:1.0;"/></g><!--MD5=[b712e8cbb36e7c7e9719f26edd978e9f]
link MeetingALRepository to MeetingAccessList--><g id="link_MeetingALRepository_MeetingAccessList"><path codeLine="55" d="M524.5,646.04 C524.5,668.02 524.5,698.25 524.5,726.64 " fill="none" id="MeetingALRepository-to-MeetingAccessList" style="stroke:#181818;stroke-width:1.0;"/><polygon fill="#181818" points="524.5,731.91,528.5,722.91,524.5,726.91,520.5,722.91,524.5,731.91" style="stroke:#181818;stroke-width:1.0;"/></g><!--MD5=[d5f81c9ee4cb0021bca2c8c9ac94111f]
@startuml
class User {
}

class MeetingRepository {
}

class MeetingALRepository {
    +verifyAndNotify(List<SystemUser> users, Meeting meeting) : boolean
}

class CreateMeetingUI {
    +doShow() : boolean
    +headline() : String
}

class CreateMeetingController {
    -CreateMeetingService service
    -UserManagementService userSvc
    +createMeeting(LocalDate date, LocalTime duration, LocalTime hour, List<String> userList) : boolean
}

class CreateMeetingService {
    -MeetingRepository mr
    -MeetingALRepository macr
    +createMeeting(LocalDate date, LocalTime duration, LocalTime hour, List<SystemUser> userList) : boolean
}

class MeetingAccessList {
    - Long idAccessList
    - SystemUser user
    - InviteState inviteState
    - Meeting meeting
    + sameAs(Object other) : boolean
    + identity() : Code
}

class MeetingTime {
    - LocalTime duration
    - LocalTime hour
    - LocalDate date
    + getDuration() : LocalTime
    + setDuration(LocalTime duration) : void
    + getHour() : LocalTime
    + setHour(LocalTime hour) : void
    + getDate() : LocalDate
    + setDate(LocalDate date) : void
}

User - -> CreateMeetingUI
CreateMeetingUI - -> CreateMeetingController
CreateMeetingController - -> CreateMeetingService
CreateMeetingService - -> MeetingRepository
MeetingRepository - -> MeetingTime
CreateMeetingService - -> MeetingALRepository
MeetingALRepository - -> MeetingAccessList
@enduml

PlantUML version 1.2022.4(Sat Apr 09 14:29:17 BST 2022)
(GPL source distribution)
Java Runtime: OpenJDK Runtime Environment
JVM: OpenJDK 64-Bit Server VM
Default Encoding: Cp1252
Language: pt
Country: PT
--></g></svg>