<?xml version="1.0" encoding="UTF-8" standalone="no"?><svg xmlns="http://www.w3.org/2000/svg" xmlns:xlink="http://www.w3.org/1999/xlink" contentStyleType="text/css" height="1703px" preserveAspectRatio="none" style="width:3073px;height:1703px;background:#FFFFFF;" version="1.1" viewBox="0 0 3073 1703" width="3073px" zoomAndPan="magnify"><defs/><g><rect fill="#FFFFFF" height="1518.3047" style="stroke:#181818;stroke-width:1.0;" width="10" x="32.5" y="92.6094"/><rect fill="#FFFFFF" height="303.1641" style="stroke:#181818;stroke-width:1.0;" width="10" x="492.5" y="114.9609"/><rect fill="#FFFFFF" height="1162.4375" style="stroke:#181818;stroke-width:1.0;" width="10" x="492.5" y="448.4766"/><rect fill="#FFFFFF" height="272.8125" style="stroke:#181818;stroke-width:1.0;" width="10" x="787.5" y="145.3125"/><rect fill="#FFFFFF" height="1029.0313" style="stroke:#181818;stroke-width:1.0;" width="10" x="787.5" y="478.8281"/><rect fill="#FFFFFF" height="30.3516" style="stroke:#181818;stroke-width:1.0;" width="10" x="953.5" y="175.6641"/><rect fill="#FFFFFF" height="36.3516" style="stroke:#181818;stroke-width:1.0;" width="10" x="953.5" y="509.1797"/><rect fill="#FFFFFF" height="181.7578" style="stroke:#181818;stroke-width:1.0;" width="10" x="1113.5" y="206.0156"/><rect fill="#FFFFFF" height="754.2188" style="stroke:#181818;stroke-width:1.0;" width="10" x="1113.5" y="723.2891"/><rect fill="#FFFFFF" height="151.4063" style="stroke:#181818;stroke-width:1.0;" width="10" x="1270.5" y="236.3672"/><rect fill="#FFFFFF" height="121.0547" style="stroke:#181818;stroke-width:1.0;" width="10" x="1442.5" y="266.7188"/><rect fill="#FFFFFF" height="30.3516" style="stroke:#181818;stroke-width:1.0;" width="10" x="1594.5" y="783.9922"/><rect fill="#FFFFFF" height="602.4609" style="stroke:#181818;stroke-width:1.0;" width="10" x="1792" y="844.6953"/><rect fill="#FFFFFF" height="30.3516" style="stroke:#181818;stroke-width:1.0;" width="10" x="2564" y="753.6406"/><rect fill="#FFFFFF" height="60.3516" style="stroke:#181818;stroke-width:1.0;" width="10" x="2809" y="297.0703"/><rect fill="#FFFFFF" height="30.3516" style="stroke:#181818;stroke-width:1.0;" width="10" x="2809" y="814.3438"/><rect fill="#FFFFFF" height="60.3516" style="stroke:#181818;stroke-width:1.0;" width="10" x="2951.5" y="327.4219"/><rect fill="#FFFFFF" height="524.4063" style="stroke:#181818;stroke-width:1.0;" width="10" x="2951.5" y="900.3984"/><rect height="126.4063" style="stroke:#000000;stroke-width:1.5;fill:none;" width="244.5" x="678" y="567.5313"/><rect height="94.0547" style="stroke:#000000;stroke-width:1.5;fill:none;" width="224.5" x="688" y="592.8828"/><rect height="61.7031" style="stroke:#000000;stroke-width:1.5;fill:none;" width="204.5" x="698" y="618.2344"/><rect height="558.1094" style="stroke:#000000;stroke-width:1.5;fill:none;" width="1420.5" x="1646.5" y="859.6953"/><rect height="495.4063" style="stroke:#000000;stroke-width:1.5;fill:none;" width="1400.5" x="1656.5" y="915.3984"/><rect height="387.3516" style="stroke:#000000;stroke-width:1.5;fill:none;" width="1380.5" x="1666.5" y="940.75"/><rect height="181.5938" style="stroke:#000000;stroke-width:1.5;fill:none;" width="1360.5" x="1676.5" y="1139.5078"/><rect height="81.0547" style="stroke:#000000;stroke-width:1.5;fill:none;" width="557" x="10" y="1522.8594"/><line style="stroke:#181818;stroke-width:0.5;fill:none;stroke-dasharray:5.0,5.0;" x1="37" x2="37" y1="82.6094" y2="1620.9141"/><line style="stroke:#181818;stroke-width:0.5;fill:none;stroke-dasharray:5.0,5.0;" x1="497" x2="497" y1="82.6094" y2="1620.9141"/><line style="stroke:#181818;stroke-width:0.5;fill:none;stroke-dasharray:5.0,5.0;" x1="792" x2="792" y1="82.6094" y2="1620.9141"/><line style="stroke:#181818;stroke-width:0.5;fill:none;stroke-dasharray:5.0,5.0;" x1="958" x2="958" y1="82.6094" y2="1620.9141"/><line style="stroke:#181818;stroke-width:0.5;fill:none;stroke-dasharray:5.0,5.0;" x1="1118.5" x2="1118.5" y1="82.6094" y2="1620.9141"/><line style="stroke:#181818;stroke-width:0.5;fill:none;stroke-dasharray:5.0,5.0;" x1="1275.5" x2="1275.5" y1="82.6094" y2="1620.9141"/><line style="stroke:#181818;stroke-width:0.5;fill:none;stroke-dasharray:5.0,5.0;" x1="1447.5" x2="1447.5" y1="82.6094" y2="1620.9141"/><line style="stroke:#181818;stroke-width:0.5;fill:none;stroke-dasharray:5.0,5.0;" x1="1599.5" x2="1599.5" y1="82.6094" y2="1620.9141"/><line style="stroke:#181818;stroke-width:0.5;fill:none;stroke-dasharray:5.0,5.0;" x1="1796.5" x2="1796.5" y1="82.6094" y2="1620.9141"/><line style="stroke:#181818;stroke-width:0.5;fill:none;stroke-dasharray:5.0,5.0;" x1="2569" x2="2569" y1="82.6094" y2="1620.9141"/><line style="stroke:#181818;stroke-width:0.5;fill:none;stroke-dasharray:5.0,5.0;" x1="2676" x2="2676" y1="82.6094" y2="1620.9141"/><line style="stroke:#181818;stroke-width:0.5;fill:none;stroke-dasharray:5.0,5.0;" x1="2814" x2="2814" y1="82.6094" y2="1620.9141"/><line style="stroke:#181818;stroke-width:0.5;fill:none;stroke-dasharray:5.0,5.0;" x1="2956" x2="2956" y1="82.6094" y2="1620.9141"/><text fill="#000000" font-family="sans-serif" font-size="14" lengthAdjust="spacing" textLength="29" x="20" y="79.5332">User</text><ellipse cx="37.5" cy="13.5" fill="#E2E2F0" rx="8" ry="8" style="stroke:#181818;stroke-width:0.5;"/><path d="M37.5,21.5 L37.5,48.5 M24.5,29.5 L50.5,29.5 M37.5,48.5 L24.5,63.5 M37.5,48.5 L50.5,63.5 " fill="none" style="stroke:#181818;stroke-width:0.5;"/><text fill="#000000" font-family="sans-serif" font-size="14" lengthAdjust="spacing" textLength="29" x="20" y="1634.4473">User</text><ellipse cx="37.5" cy="1646.0234" fill="#E2E2F0" rx="8" ry="8" style="stroke:#181818;stroke-width:0.5;"/><path d="M37.5,1654.0234 L37.5,1681.0234 M24.5,1662.0234 L50.5,1662.0234 M37.5,1681.0234 L24.5,1696.0234 M37.5,1681.0234 L50.5,1696.0234 " fill="none" style="stroke:#181818;stroke-width:0.5;"/><rect fill="#E2E2F0" height="31.6094" rx="2.5" ry="2.5" style="stroke:#181818;stroke-width:0.5;" width="119" x="438" y="50"/><text fill="#000000" font-family="sans-serif" font-size="14" lengthAdjust="spacing" textLength="105" x="445" y="71.5332">CreateMeetingUI</text><rect fill="#E2E2F0" height="31.6094" rx="2.5" ry="2.5" style="stroke:#181818;stroke-width:0.5;" width="119" x="438" y="1619.9141"/><text fill="#000000" font-family="sans-serif" font-size="14" lengthAdjust="spacing" textLength="105" x="445" y="1641.4473">CreateMeetingUI</text><rect fill="#E2E2F0" height="31.6094" rx="2.5" ry="2.5" style="stroke:#181818;stroke-width:0.5;" width="169" x="708" y="50"/><text fill="#000000" font-family="sans-serif" font-size="14" lengthAdjust="spacing" textLength="155" x="715" y="71.5332">CreateMeetingController</text><rect fill="#E2E2F0" height="31.6094" rx="2.5" ry="2.5" style="stroke:#181818;stroke-width:0.5;" width="169" x="708" y="1619.9141"/><text fill="#000000" font-family="sans-serif" font-size="14" lengthAdjust="spacing" textLength="155" x="715" y="1641.4473">CreateMeetingController</text><rect fill="#E2E2F0" height="31.6094" rx="2.5" ry="2.5" style="stroke:#181818;stroke-width:0.5;" width="143" x="887" y="50"/><text fill="#000000" font-family="sans-serif" font-size="14" lengthAdjust="spacing" textLength="129" x="894" y="71.5332">AuthorizationService</text><rect fill="#E2E2F0" height="31.6094" rx="2.5" ry="2.5" style="stroke:#181818;stroke-width:0.5;" width="143" x="887" y="1619.9141"/><text fill="#000000" font-family="sans-serif" font-size="14" lengthAdjust="spacing" textLength="129" x="894" y="1641.4473">AuthorizationService</text><rect fill="#E2E2F0" height="31.6094" rx="2.5" ry="2.5" style="stroke:#181818;stroke-width:0.5;" width="154" x="1041.5" y="50"/><text fill="#000000" font-family="sans-serif" font-size="14" lengthAdjust="spacing" textLength="140" x="1048.5" y="71.5332">CreateMeetingService</text><rect fill="#E2E2F0" height="31.6094" rx="2.5" ry="2.5" style="stroke:#181818;stroke-width:0.5;" width="154" x="1041.5" y="1619.9141"/><text fill="#000000" font-family="sans-serif" font-size="14" lengthAdjust="spacing" textLength="140" x="1048.5" y="1641.4473">CreateMeetingService</text><rect fill="#E2E2F0" height="31.6094" rx="2.5" ry="2.5" style="stroke:#181818;stroke-width:0.5;" width="140" x="1205.5" y="50"/><text fill="#000000" font-family="sans-serif" font-size="14" lengthAdjust="spacing" textLength="126" x="1212.5" y="71.5332">Persistence Context</text><rect fill="#E2E2F0" height="31.6094" rx="2.5" ry="2.5" style="stroke:#181818;stroke-width:0.5;" width="140" x="1205.5" y="1619.9141"/><text fill="#000000" font-family="sans-serif" font-size="14" lengthAdjust="spacing" textLength="126" x="1212.5" y="1641.4473">Persistence Context</text><rect fill="#E2E2F0" height="31.6094" rx="2.5" ry="2.5" style="stroke:#181818;stroke-width:0.5;" width="130" x="1382.5" y="50"/><text fill="#000000" font-family="sans-serif" font-size="14" lengthAdjust="spacing" textLength="116" x="1389.5" y="71.5332">RepositoryFactory</text><rect fill="#E2E2F0" height="31.6094" rx="2.5" ry="2.5" style="stroke:#181818;stroke-width:0.5;" width="130" x="1382.5" y="1619.9141"/><text fill="#000000" font-family="sans-serif" font-size="14" lengthAdjust="spacing" textLength="116" x="1389.5" y="1641.4473">RepositoryFactory</text><rect fill="#E2E2F0" height="31.6094" rx="2.5" ry="2.5" style="stroke:#181818;stroke-width:0.5;" width="154" x="1522.5" y="50"/><text fill="#000000" font-family="sans-serif" font-size="14" lengthAdjust="spacing" textLength="140" x="1529.5" y="71.5332">JpaMeetingRepository</text><rect fill="#E2E2F0" height="31.6094" rx="2.5" ry="2.5" style="stroke:#181818;stroke-width:0.5;" width="154" x="1522.5" y="1619.9141"/><text fill="#000000" font-family="sans-serif" font-size="14" lengthAdjust="spacing" textLength="140" x="1529.5" y="1641.4473">JpaMeetingRepository</text><rect fill="#E2E2F0" height="31.6094" rx="2.5" ry="2.5" style="stroke:#181818;stroke-width:0.5;" width="221" x="1686.5" y="50"/><text fill="#000000" font-family="sans-serif" font-size="14" lengthAdjust="spacing" textLength="207" x="1693.5" y="71.5332">JpaMeetingAccessListRepository</text><rect fill="#E2E2F0" height="31.6094" rx="2.5" ry="2.5" style="stroke:#181818;stroke-width:0.5;" width="221" x="1686.5" y="1619.9141"/><text fill="#000000" font-family="sans-serif" font-size="14" lengthAdjust="spacing" textLength="207" x="1693.5" y="1641.4473">JpaMeetingAccessListRepository</text><rect fill="#E2E2F0" height="31.6094" rx="2.5" ry="2.5" style="stroke:#181818;stroke-width:0.5;" width="64" x="2537" y="50"/><text fill="#000000" font-family="sans-serif" font-size="14" lengthAdjust="spacing" textLength="50" x="2544" y="71.5332">Meeting</text><rect fill="#E2E2F0" height="31.6094" rx="2.5" ry="2.5" style="stroke:#181818;stroke-width:0.5;" width="64" x="2537" y="1619.9141"/><text fill="#000000" font-family="sans-serif" font-size="14" lengthAdjust="spacing" textLength="50" x="2544" y="1641.4473">Meeting</text><rect fill="#E2E2F0" height="31.6094" rx="2.5" ry="2.5" style="stroke:#181818;stroke-width:0.5;" width="131" x="2611" y="50"/><text fill="#000000" font-family="sans-serif" font-size="14" lengthAdjust="spacing" textLength="117" x="2618" y="71.5332">MeetingAccessList</text><rect fill="#E2E2F0" height="31.6094" rx="2.5" ry="2.5" style="stroke:#181818;stroke-width:0.5;" width="131" x="2611" y="1619.9141"/><text fill="#000000" font-family="sans-serif" font-size="14" lengthAdjust="spacing" textLength="117" x="2618" y="1641.4473">MeetingAccessList</text><text fill="#000000" font-family="sans-serif" font-size="14" lengthAdjust="spacing" textLength="118" x="2752" y="79.5332">MeetingRepository</text><path d="M2796,29 C2796,19 2814,19 2814,19 C2814,19 2832,19 2832,29 L2832,55 C2832,65 2814,65 2814,65 C2814,65 2796,65 2796,55 L2796,29 " fill="#E2E2F0" style="stroke:#181818;stroke-width:1.5;"/><path d="M2796,29 C2796,39 2814,39 2814,39 C2814,39 2832,39 2832,29 " fill="none" style="stroke:#181818;stroke-width:1.5;"/><text fill="#000000" font-family="sans-serif" font-size="14" lengthAdjust="spacing" textLength="118" x="2752" y="1634.4473">MeetingRepository</text><path d="M2796,1647.5234 C2796,1637.5234 2814,1637.5234 2814,1637.5234 C2814,1637.5234 2832,1637.5234 2832,1647.5234 L2832,1673.5234 C2832,1683.5234 2814,1683.5234 2814,1683.5234 C2814,1683.5234 2796,1683.5234 2796,1673.5234 L2796,1647.5234 " fill="#E2E2F0" style="stroke:#181818;stroke-width:1.5;"/><path d="M2796,1647.5234 C2796,1657.5234 2814,1657.5234 2814,1657.5234 C2814,1657.5234 2832,1657.5234 2832,1647.5234 " fill="none" style="stroke:#181818;stroke-width:1.5;"/><text fill="#000000" font-family="sans-serif" font-size="14" lengthAdjust="spacing" textLength="135" x="2886" y="79.5332">MeetingALRepository</text><path d="M2938.5,29 C2938.5,19 2956.5,19 2956.5,19 C2956.5,19 2974.5,19 2974.5,29 L2974.5,55 C2974.5,65 2956.5,65 2956.5,65 C2956.5,65 2938.5,65 2938.5,55 L2938.5,29 " fill="#E2E2F0" style="stroke:#181818;stroke-width:1.5;"/><path d="M2938.5,29 C2938.5,39 2956.5,39 2956.5,39 C2956.5,39 2974.5,39 2974.5,29 " fill="none" style="stroke:#181818;stroke-width:1.5;"/><text fill="#000000" font-family="sans-serif" font-size="14" lengthAdjust="spacing" textLength="135" x="2886" y="1634.4473">MeetingALRepository</text><path d="M2938.5,1647.5234 C2938.5,1637.5234 2956.5,1637.5234 2956.5,1637.5234 C2956.5,1637.5234 2974.5,1637.5234 2974.5,1647.5234 L2974.5,1673.5234 C2974.5,1683.5234 2956.5,1683.5234 2956.5,1683.5234 C2956.5,1683.5234 2938.5,1683.5234 2938.5,1673.5234 L2938.5,1647.5234 " fill="#E2E2F0" style="stroke:#181818;stroke-width:1.5;"/><path d="M2938.5,1647.5234 C2938.5,1657.5234 2956.5,1657.5234 2956.5,1657.5234 C2956.5,1657.5234 2974.5,1657.5234 2974.5,1647.5234 " fill="none" style="stroke:#181818;stroke-width:1.5;"/><rect fill="#FFFFFF" height="1518.3047" style="stroke:#181818;stroke-width:1.0;" width="10" x="32.5" y="92.6094"/><rect fill="#FFFFFF" height="303.1641" style="stroke:#181818;stroke-width:1.0;" width="10" x="492.5" y="114.9609"/><rect fill="#FFFFFF" height="1162.4375" style="stroke:#181818;stroke-width:1.0;" width="10" x="492.5" y="448.4766"/><rect fill="#FFFFFF" height="272.8125" style="stroke:#181818;stroke-width:1.0;" width="10" x="787.5" y="145.3125"/><rect fill="#FFFFFF" height="1029.0313" style="stroke:#181818;stroke-width:1.0;" width="10" x="787.5" y="478.8281"/><rect fill="#FFFFFF" height="30.3516" style="stroke:#181818;stroke-width:1.0;" width="10" x="953.5" y="175.6641"/><rect fill="#FFFFFF" height="36.3516" style="stroke:#181818;stroke-width:1.0;" width="10" x="953.5" y="509.1797"/><rect fill="#FFFFFF" height="181.7578" style="stroke:#181818;stroke-width:1.0;" width="10" x="1113.5" y="206.0156"/><rect fill="#FFFFFF" height="754.2188" style="stroke:#181818;stroke-width:1.0;" width="10" x="1113.5" y="723.2891"/><rect fill="#FFFFFF" height="151.4063" style="stroke:#181818;stroke-width:1.0;" width="10" x="1270.5" y="236.3672"/><rect fill="#FFFFFF" height="121.0547" style="stroke:#181818;stroke-width:1.0;" width="10" x="1442.5" y="266.7188"/><rect fill="#FFFFFF" height="30.3516" style="stroke:#181818;stroke-width:1.0;" width="10" x="1594.5" y="783.9922"/><rect fill="#FFFFFF" height="602.4609" style="stroke:#181818;stroke-width:1.0;" width="10" x="1792" y="844.6953"/><rect fill="#FFFFFF" height="30.3516" style="stroke:#181818;stroke-width:1.0;" width="10" x="2564" y="753.6406"/><rect fill="#FFFFFF" height="60.3516" style="stroke:#181818;stroke-width:1.0;" width="10" x="2809" y="297.0703"/><rect fill="#FFFFFF" height="30.3516" style="stroke:#181818;stroke-width:1.0;" width="10" x="2809" y="814.3438"/><rect fill="#FFFFFF" height="60.3516" style="stroke:#181818;stroke-width:1.0;" width="10" x="2951.5" y="327.4219"/><rect fill="#FFFFFF" height="524.4063" style="stroke:#181818;stroke-width:1.0;" width="10" x="2951.5" y="900.3984"/><polygon fill="#181818" points="480.5,110.9609,490.5,114.9609,480.5,118.9609,484.5,114.9609" style="stroke:#181818;stroke-width:1.0;"/><line style="stroke:#181818;stroke-width:1.0;" x1="42.5" x2="486.5" y1="114.9609" y2="114.9609"/><text fill="#000000" font-family="sans-serif" font-size="13" font-weight="bold" lengthAdjust="spacing" textLength="7" x="49.5" y="110.1045">1</text><text fill="#000000" font-family="sans-serif" font-size="13" lengthAdjust="spacing" textLength="143" x="60.5" y="110.1045">want to create a meeting</text><polygon fill="#181818" points="775.5,141.3125,785.5,145.3125,775.5,149.3125,779.5,145.3125" style="stroke:#181818;stroke-width:1.0;"/><line style="stroke:#181818;stroke-width:1.0;" x1="502.5" x2="781.5" y1="145.3125" y2="145.3125"/><text fill="#000000" font-family="sans-serif" font-size="13" font-weight="bold" lengthAdjust="spacing" textLength="7" x="509.5" y="140.4561">2</text><text fill="#000000" font-family="sans-serif" font-size="13" lengthAdjust="spacing" textLength="147" x="520.5" y="140.4561">CreateMeetingController()</text><polygon fill="#181818" points="941.5,171.6641,951.5,175.6641,941.5,179.6641,945.5,175.6641" style="stroke:#181818;stroke-width:1.0;"/><line style="stroke:#181818;stroke-width:1.0;" x1="797.5" x2="947.5" y1="175.6641" y2="175.6641"/><text fill="#000000" font-family="sans-serif" font-size="13" font-weight="bold" lengthAdjust="spacing" textLength="7" x="804.5" y="170.8076">3</text><text fill="#000000" font-family="sans-serif" font-size="13" lengthAdjust="spacing" textLength="75" x="815.5" y="170.8076">userService()</text><polygon fill="#181818" points="1101.5,202.0156,1111.5,206.0156,1101.5,210.0156,1105.5,206.0156" style="stroke:#181818;stroke-width:1.0;"/><line style="stroke:#181818;stroke-width:1.0;" x1="797.5" x2="1107.5" y1="206.0156" y2="206.0156"/><text fill="#000000" font-family="sans-serif" font-size="13" font-weight="bold" lengthAdjust="spacing" textLength="7" x="804.5" y="201.1592">4</text><text fill="#000000" font-family="sans-serif" font-size="13" lengthAdjust="spacing" textLength="134" x="815.5" y="201.1592">CreateMeetingService()</text><polygon fill="#181818" points="1258.5,232.3672,1268.5,236.3672,1258.5,240.3672,1262.5,236.3672" style="stroke:#181818;stroke-width:1.0;"/><line style="stroke:#181818;stroke-width:1.0;" x1="1123.5" x2="1264.5" y1="236.3672" y2="236.3672"/><text fill="#000000" font-family="sans-serif" font-size="13" font-weight="bold" lengthAdjust="spacing" textLength="7" x="1130.5" y="231.5107">5</text><text fill="#000000" font-family="sans-serif" font-size="13" lengthAdjust="spacing" textLength="75" x="1141.5" y="231.5107">repositories()</text><polygon fill="#181818" points="1430.5,262.7188,1440.5,266.7188,1430.5,270.7188,1434.5,266.7188" style="stroke:#181818;stroke-width:1.0;"/><line style="stroke:#181818;stroke-width:1.0;" x1="1280.5" x2="1436.5" y1="266.7188" y2="266.7188"/><text fill="#000000" font-family="sans-serif" font-size="13" font-weight="bold" lengthAdjust="spacing" textLength="7" x="1287.5" y="261.8623">6</text><text fill="#000000" font-family="sans-serif" font-size="13" lengthAdjust="spacing" textLength="132" x="1298.5" y="261.8623">getRepositoryFactory()</text><polygon fill="#181818" points="2797,293.0703,2807,297.0703,2797,301.0703,2801,297.0703" style="stroke:#181818;stroke-width:1.0;"/><line style="stroke:#181818;stroke-width:1.0;" x1="1452.5" x2="2803" y1="297.0703" y2="297.0703"/><text fill="#000000" font-family="sans-serif" font-size="13" font-weight="bold" lengthAdjust="spacing" textLength="7" x="1459.5" y="292.2139">7</text><text fill="#000000" font-family="sans-serif" font-size="13" lengthAdjust="spacing" textLength="116" x="1470.5" y="292.2139">meetingRepository()</text><polygon fill="#181818" points="2939.5,323.4219,2949.5,327.4219,2939.5,331.4219,2943.5,327.4219" style="stroke:#181818;stroke-width:1.0;"/><line style="stroke:#181818;stroke-width:1.0;" x1="1452.5" x2="2945.5" y1="327.4219" y2="327.4219"/><text fill="#000000" font-family="sans-serif" font-size="13" font-weight="bold" lengthAdjust="spacing" textLength="7" x="1459.5" y="322.5654">8</text><text fill="#000000" font-family="sans-serif" font-size="13" lengthAdjust="spacing" textLength="128" x="1470.5" y="322.5654">meetingAlRepository()</text><polygon fill="#181818" points="1129.5,383.7734,1119.5,387.7734,1129.5,391.7734,1125.5,387.7734" style="stroke:#181818;stroke-width:1.0;"/><line style="stroke:#181818;stroke-width:1.0;stroke-dasharray:2.0,2.0;" x1="1123.5" x2="1274.5" y1="387.7734" y2="387.7734"/><text fill="#000000" font-family="sans-serif" font-size="13" font-weight="bold" lengthAdjust="spacing" textLength="7" x="1135.5" y="382.917">9</text><text fill="#000000" font-family="sans-serif" font-size="13" lengthAdjust="spacing" textLength="39" x="1146.5" y="382.917">factory</text><polygon fill="#181818" points="53.5,414.125,43.5,418.125,53.5,422.125,49.5,418.125" style="stroke:#181818;stroke-width:1.0;"/><line style="stroke:#181818;stroke-width:1.0;stroke-dasharray:2.0,2.0;" x1="47.5" x2="496.5" y1="418.125" y2="418.125"/><text fill="#000000" font-family="sans-serif" font-size="13" font-weight="bold" lengthAdjust="spacing" textLength="14" x="59.5" y="413.2686">10</text><text fill="#000000" font-family="sans-serif" font-size="13" lengthAdjust="spacing" textLength="258" x="77.5" y="413.2686">asks for date, hour, duration and list of users</text><polygon fill="#181818" points="480.5,444.4766,490.5,448.4766,480.5,452.4766,484.5,448.4766" style="stroke:#181818;stroke-width:1.0;"/><line style="stroke:#181818;stroke-width:1.0;" x1="42.5" x2="486.5" y1="448.4766" y2="448.4766"/><text fill="#000000" font-family="sans-serif" font-size="13" font-weight="bold" lengthAdjust="spacing" textLength="14" x="49.5" y="443.6201">11</text><text fill="#000000" font-family="sans-serif" font-size="13" lengthAdjust="spacing" textLength="89" x="67.5" y="443.6201">introduces data</text><polygon fill="#181818" points="775.5,474.8281,785.5,478.8281,775.5,482.8281,779.5,478.8281" style="stroke:#181818;stroke-width:1.0;"/><line style="stroke:#181818;stroke-width:1.0;" x1="502.5" x2="781.5" y1="478.8281" y2="478.8281"/><text fill="#000000" font-family="sans-serif" font-size="13" font-weight="bold" lengthAdjust="spacing" textLength="14" x="509.5" y="473.9717">12</text><text fill="#000000" font-family="sans-serif" font-size="13" lengthAdjust="spacing" textLength="248" x="527.5" y="473.9717">createMeeting(date, duration, hour, emails)</text><polygon fill="#181818" points="941.5,505.1797,951.5,509.1797,941.5,513.1797,945.5,509.1797" style="stroke:#181818;stroke-width:1.0;"/><line style="stroke:#181818;stroke-width:1.0;" x1="797.5" x2="947.5" y1="509.1797" y2="509.1797"/><text fill="#000000" font-family="sans-serif" font-size="13" font-weight="bold" lengthAdjust="spacing" textLength="14" x="804.5" y="504.3232">13</text><text fill="#000000" font-family="sans-serif" font-size="13" lengthAdjust="spacing" textLength="55" x="822.5" y="504.3232">allUsers()</text><line style="stroke:#181818;stroke-width:1.0;" x1="797.5" x2="839.5" y1="544.5313" y2="544.5313"/><line style="stroke:#181818;stroke-width:1.0;" x1="839.5" x2="839.5" y1="544.5313" y2="557.5313"/><line style="stroke:#181818;stroke-width:1.0;" x1="792.5" x2="839.5" y1="557.5313" y2="557.5313"/><polygon fill="#181818" points="802.5,553.5313,792.5,557.5313,802.5,561.5313,798.5,557.5313" style="stroke:#181818;stroke-width:1.0;"/><text fill="#000000" font-family="sans-serif" font-size="13" font-weight="bold" lengthAdjust="spacing" textLength="14" x="804.5" y="539.6748">14</text><text fill="#000000" font-family="sans-serif" font-size="13" lengthAdjust="spacing" textLength="107" x="822.5" y="539.6748">new ArrayList&lt;&gt;();</text><path d="M678,567.5313 L751,567.5313 L751,575.8828 L741,585.8828 L678,585.8828 L678,567.5313 " fill="#EEEEEE" style="stroke:#000000;stroke-width:1.5;"/><rect fill="none" height="126.4063" style="stroke:#000000;stroke-width:1.5;" width="244.5" x="678" y="567.5313"/><text fill="#000000" font-family="sans-serif" font-size="13" font-weight="bold" lengthAdjust="spacing" textLength="28" x="693" y="582.0264">loop</text><text fill="#000000" font-family="sans-serif" font-size="11" font-weight="bold" lengthAdjust="spacing" textLength="76" x="766" y="580.9502">[SystemUser]</text><path d="M688,592.8828 L761,592.8828 L761,601.2344 L751,611.2344 L688,611.2344 L688,592.8828 " fill="#EEEEEE" style="stroke:#000000;stroke-width:1.5;"/><rect fill="none" height="94.0547" style="stroke:#000000;stroke-width:1.5;" width="224.5" x="688" y="592.8828"/><text fill="#000000" font-family="sans-serif" font-size="13" font-weight="bold" lengthAdjust="spacing" textLength="28" x="703" y="607.3779">loop</text><text fill="#000000" font-family="sans-serif" font-size="11" font-weight="bold" lengthAdjust="spacing" textLength="41" x="776" y="606.3018">[String]</text><path d="M698,618.2344 L763,618.2344 L763,626.5859 L753,636.5859 L698,636.5859 L698,618.2344 " fill="#EEEEEE" style="stroke:#000000;stroke-width:1.5;"/><rect fill="none" height="61.7031" style="stroke:#000000;stroke-width:1.5;" width="204.5" x="698" y="618.2344"/><text fill="#000000" font-family="sans-serif" font-size="13" font-weight="bold" lengthAdjust="spacing" textLength="20" x="713" y="632.7295">opt</text><text fill="#000000" font-family="sans-serif" font-size="11" font-weight="bold" lengthAdjust="spacing" textLength="93" x="778" y="631.6533">[if email = string]</text><line style="stroke:#181818;stroke-width:1.0;" x1="797.5" x2="839.5" y1="658.9375" y2="658.9375"/><line style="stroke:#181818;stroke-width:1.0;" x1="839.5" x2="839.5" y1="658.9375" y2="671.9375"/><line style="stroke:#181818;stroke-width:1.0;" x1="798.5" x2="839.5" y1="671.9375" y2="671.9375"/><polygon fill="#181818" points="808.5,667.9375,798.5,671.9375,808.5,675.9375,804.5,671.9375" style="stroke:#181818;stroke-width:1.0;"/><text fill="#000000" font-family="sans-serif" font-size="13" font-weight="bold" lengthAdjust="spacing" textLength="14" x="804.5" y="654.0811">15</text><text fill="#000000" font-family="sans-serif" font-size="13" lengthAdjust="spacing" textLength="68" x="822.5" y="654.0811">list.add(su);</text><polygon fill="#181818" points="1101.5,719.2891,1111.5,723.2891,1101.5,727.2891,1105.5,723.2891" style="stroke:#181818;stroke-width:1.0;"/><line style="stroke:#181818;stroke-width:1.0;" x1="797.5" x2="1107.5" y1="723.2891" y2="723.2891"/><text fill="#000000" font-family="sans-serif" font-size="13" font-weight="bold" lengthAdjust="spacing" textLength="14" x="804.5" y="718.4326">16</text><text fill="#000000" font-family="sans-serif" font-size="13" lengthAdjust="spacing" textLength="279" x="822.5" y="718.4326">createMeeting(date, duration, hour, userAccess)</text><polygon fill="#181818" points="2552,749.6406,2562,753.6406,2552,757.6406,2556,753.6406" style="stroke:#181818;stroke-width:1.0;"/><line style="stroke:#181818;stroke-width:1.0;" x1="1123.5" x2="2558" y1="753.6406" y2="753.6406"/><text fill="#000000" font-family="sans-serif" font-size="13" font-weight="bold" lengthAdjust="spacing" textLength="14" x="1130.5" y="748.7842">17</text><text fill="#000000" font-family="sans-serif" font-size="13" lengthAdjust="spacing" textLength="193" x="1148.5" y="748.7842">new Meeting(duration, date, hour)</text><polygon fill="#181818" points="1582.5,779.9922,1592.5,783.9922,1582.5,787.9922,1586.5,783.9922" style="stroke:#181818;stroke-width:1.0;"/><line style="stroke:#181818;stroke-width:1.0;" x1="1123.5" x2="1588.5" y1="783.9922" y2="783.9922"/><text fill="#000000" font-family="sans-serif" font-size="13" font-weight="bold" lengthAdjust="spacing" textLength="14" x="1130.5" y="779.1357">18</text><text fill="#000000" font-family="sans-serif" font-size="13" lengthAdjust="spacing" textLength="80" x="1148.5" y="779.1357">save(meeting)</text><polygon fill="#181818" points="2797,810.3438,2807,814.3438,2797,818.3438,2801,814.3438" style="stroke:#181818;stroke-width:1.0;"/><line style="stroke:#181818;stroke-width:1.0;" x1="1599.5" x2="2803" y1="814.3438" y2="814.3438"/><text fill="#000000" font-family="sans-serif" font-size="13" font-weight="bold" lengthAdjust="spacing" textLength="14" x="1606.5" y="809.4873">19</text><text fill="#000000" font-family="sans-serif" font-size="13" lengthAdjust="spacing" textLength="109" x="1624.5" y="809.4873">repo.save(meeting)</text><polygon fill="#181818" points="1780,840.6953,1790,844.6953,1780,848.6953,1784,844.6953" style="stroke:#181818;stroke-width:1.0;"/><line style="stroke:#181818;stroke-width:1.0;" x1="1123.5" x2="1786" y1="844.6953" y2="844.6953"/><text fill="#000000" font-family="sans-serif" font-size="13" font-weight="bold" lengthAdjust="spacing" textLength="14" x="1130.5" y="839.8389">20</text><text fill="#000000" font-family="sans-serif" font-size="13" lengthAdjust="spacing" textLength="193" x="1148.5" y="839.8389">verifyAndNotify(userList, meeting)</text><path d="M1646.5,859.6953 L1719.5,859.6953 L1719.5,868.0469 L1709.5,878.0469 L1646.5,878.0469 L1646.5,859.6953 " fill="#EEEEEE" style="stroke:#000000;stroke-width:1.5;"/><rect fill="none" height="558.1094" style="stroke:#000000;stroke-width:1.5;" width="1420.5" x="1646.5" y="859.6953"/><text fill="#000000" font-family="sans-serif" font-size="13" font-weight="bold" lengthAdjust="spacing" textLength="28" x="1661.5" y="874.1904">loop</text><text fill="#000000" font-family="sans-serif" font-size="11" font-weight="bold" lengthAdjust="spacing" textLength="96" x="1734.5" y="873.1143">[SystemUser list]</text><polygon fill="#181818" points="2939.5,896.3984,2949.5,900.3984,2939.5,904.3984,2943.5,900.3984" style="stroke:#181818;stroke-width:1.0;"/><line style="stroke:#181818;stroke-width:1.0;" x1="1802" x2="2945.5" y1="900.3984" y2="900.3984"/><text fill="#000000" font-family="sans-serif" font-size="13" font-weight="bold" lengthAdjust="spacing" textLength="14" x="1809" y="895.542">21</text><text fill="#000000" font-family="sans-serif" font-size="13" lengthAdjust="spacing" textLength="79" x="1827" y="895.542">createQuery()</text><path d="M1656.5,915.3984 L1717.5,915.3984 L1717.5,923.75 L1707.5,933.75 L1656.5,933.75 L1656.5,915.3984 " fill="#EEEEEE" style="stroke:#000000;stroke-width:1.5;"/><rect fill="none" height="495.4063" style="stroke:#000000;stroke-width:1.5;" width="1400.5" x="1656.5" y="915.3984"/><text fill="#000000" font-family="sans-serif" font-size="13" font-weight="bold" lengthAdjust="spacing" textLength="16" x="1671.5" y="929.8936">alt</text><text fill="#000000" font-family="sans-serif" font-size="11" font-weight="bold" lengthAdjust="spacing" textLength="107" x="1732.5" y="928.8174">[if list is not empty]</text><path d="M1666.5,940.75 L1739.5,940.75 L1739.5,949.1016 L1729.5,959.1016 L1666.5,959.1016 L1666.5,940.75 " fill="#EEEEEE" style="stroke:#000000;stroke-width:1.5;"/><rect fill="none" height="387.3516" style="stroke:#000000;stroke-width:1.5;" width="1380.5" x="1666.5" y="940.75"/><text fill="#000000" font-family="sans-serif" font-size="13" font-weight="bold" lengthAdjust="spacing" textLength="28" x="1681.5" y="955.2451">loop</text><text fill="#000000" font-family="sans-serif" font-size="11" font-weight="bold" lengthAdjust="spacing" textLength="73" x="1754.5" y="954.1689">[Meeting list]</text><line style="stroke:#181818;stroke-width:1.0;" x1="1802" x2="1844" y1="981.4531" y2="981.4531"/><line style="stroke:#181818;stroke-width:1.0;" x1="1844" x2="1844" y1="981.4531" y2="994.4531"/><line style="stroke:#181818;stroke-width:1.0;" x1="1803" x2="1844" y1="994.4531" y2="994.4531"/><polygon fill="#181818" points="1813,990.4531,1803,994.4531,1813,998.4531,1809,994.4531" style="stroke:#181818;stroke-width:1.0;"/><text fill="#000000" font-family="sans-serif" font-size="13" font-weight="bold" lengthAdjust="spacing" textLength="14" x="1809" y="976.5967">22</text><text fill="#000000" font-family="sans-serif" font-size="13" lengthAdjust="spacing" textLength="157" x="1827" y="976.5967">getMeetingTime().getHour()</text><line style="stroke:#181818;stroke-width:1.0;" x1="1802" x2="1844" y1="1024.8047" y2="1024.8047"/><line style="stroke:#181818;stroke-width:1.0;" x1="1844" x2="1844" y1="1024.8047" y2="1037.8047"/><line style="stroke:#181818;stroke-width:1.0;" x1="1803" x2="1844" y1="1037.8047" y2="1037.8047"/><polygon fill="#181818" points="1813,1033.8047,1803,1037.8047,1813,1041.8047,1809,1037.8047" style="stroke:#181818;stroke-width:1.0;"/><text fill="#000000" font-family="sans-serif" font-size="13" font-weight="bold" lengthAdjust="spacing" textLength="14" x="1809" y="1019.9482">23</text><text fill="#000000" font-family="sans-serif" font-size="13" lengthAdjust="spacing" textLength="157" x="1827" y="1019.9482">getMeetingTime().getHour()</text><line style="stroke:#181818;stroke-width:1.0;" x1="1802" x2="1844" y1="1068.1563" y2="1068.1563"/><line style="stroke:#181818;stroke-width:1.0;" x1="1844" x2="1844" y1="1068.1563" y2="1081.1563"/><line style="stroke:#181818;stroke-width:1.0;" x1="1803" x2="1844" y1="1081.1563" y2="1081.1563"/><polygon fill="#181818" points="1813,1077.1563,1803,1081.1563,1813,1085.1563,1809,1081.1563" style="stroke:#181818;stroke-width:1.0;"/><text fill="#000000" font-family="sans-serif" font-size="13" font-weight="bold" lengthAdjust="spacing" textLength="14" x="1809" y="1063.2998">24</text><text fill="#000000" font-family="sans-serif" font-size="13" lengthAdjust="spacing" textLength="730" x="1827" y="1063.2998">plusHours(meeting.getMeetingTime().getDuration().getHour()).plusMinutes(meeting.getMeetingTime().getDuration().getMinute())</text><line style="stroke:#181818;stroke-width:1.0;" x1="1802" x2="1844" y1="1111.5078" y2="1111.5078"/><line style="stroke:#181818;stroke-width:1.0;" x1="1844" x2="1844" y1="1111.5078" y2="1124.5078"/><line style="stroke:#181818;stroke-width:1.0;" x1="1803" x2="1844" y1="1124.5078" y2="1124.5078"/><polygon fill="#181818" points="1813,1120.5078,1803,1124.5078,1813,1128.5078,1809,1124.5078" style="stroke:#181818;stroke-width:1.0;"/><text fill="#000000" font-family="sans-serif" font-size="13" font-weight="bold" lengthAdjust="spacing" textLength="14" x="1809" y="1106.6514">25</text><text fill="#000000" font-family="sans-serif" font-size="13" lengthAdjust="spacing" textLength="648" x="1827" y="1106.6514">plusHours(l.getMeetingTime().getDuration().getHour()).plusMinutes(l.getMeetingTime().getDuration().getMinute());</text><path d="M1676.5,1139.5078 L1737.5,1139.5078 L1737.5,1147.8594 L1727.5,1157.8594 L1676.5,1157.8594 L1676.5,1139.5078 " fill="#EEEEEE" style="stroke:#000000;stroke-width:1.5;"/><rect fill="none" height="181.5938" style="stroke:#000000;stroke-width:1.5;" width="1360.5" x="1676.5" y="1139.5078"/><text fill="#000000" font-family="sans-serif" font-size="13" font-weight="bold" lengthAdjust="spacing" textLength="16" x="1691.5" y="1154.0029">alt</text><text fill="#000000" font-family="sans-serif" font-size="11" font-weight="bold" lengthAdjust="spacing" textLength="121" x="1752.5" y="1152.9268">[if user is unavailable]</text><line style="stroke:#181818;stroke-width:1.0;" x1="1802" x2="1844" y1="1180.2109" y2="1180.2109"/><line style="stroke:#181818;stroke-width:1.0;" x1="1844" x2="1844" y1="1180.2109" y2="1193.2109"/><line style="stroke:#181818;stroke-width:1.0;" x1="1803" x2="1844" y1="1193.2109" y2="1193.2109"/><polygon fill="#181818" points="1813,1189.2109,1803,1193.2109,1813,1197.2109,1809,1193.2109" style="stroke:#181818;stroke-width:1.0;"/><text fill="#000000" font-family="sans-serif" font-size="13" font-weight="bold" lengthAdjust="spacing" textLength="14" x="1809" y="1175.3545">26</text><text fill="#000000" font-family="sans-serif" font-size="13" lengthAdjust="spacing" textLength="332" x="1827" y="1175.3545">new MeetingAccessList(user, new InviteState("Ocupado")</text><polygon fill="#181818" points="2939.5,1219.5625,2949.5,1223.5625,2939.5,1227.5625,2943.5,1223.5625" style="stroke:#181818;stroke-width:1.0;"/><line style="stroke:#181818;stroke-width:1.0;" x1="1802" x2="2945.5" y1="1223.5625" y2="1223.5625"/><text fill="#000000" font-family="sans-serif" font-size="13" font-weight="bold" lengthAdjust="spacing" textLength="14" x="1809" y="1218.7061">27</text><text fill="#000000" font-family="sans-serif" font-size="13" lengthAdjust="spacing" textLength="80" x="1827" y="1218.7061">repo.save(list)</text><line style="stroke:#000000;stroke-width:1.0;stroke-dasharray:2.0,2.0;" x1="1676.5" x2="3037" y1="1232.5625" y2="1232.5625"/><text fill="#000000" font-family="sans-serif" font-size="11" font-weight="bold" lengthAdjust="spacing" textLength="111" x="1681.5" y="1243.9814">[user is unavailable]</text><line style="stroke:#181818;stroke-width:1.0;" x1="1802" x2="1844" y1="1269.75" y2="1269.75"/><line style="stroke:#181818;stroke-width:1.0;" x1="1844" x2="1844" y1="1269.75" y2="1282.75"/><line style="stroke:#181818;stroke-width:1.0;" x1="1803" x2="1844" y1="1282.75" y2="1282.75"/><polygon fill="#181818" points="1813,1278.75,1803,1282.75,1813,1286.75,1809,1282.75" style="stroke:#181818;stroke-width:1.0;"/><text fill="#000000" font-family="sans-serif" font-size="13" font-weight="bold" lengthAdjust="spacing" textLength="14" x="1809" y="1264.8936">28</text><text fill="#000000" font-family="sans-serif" font-size="13" lengthAdjust="spacing" textLength="383" x="1827" y="1264.8936">new MeetingAccessList(user, new InviteState("Enviado"), meeting)</text><polygon fill="#181818" points="2939.5,1309.1016,2949.5,1313.1016,2939.5,1317.1016,2943.5,1313.1016" style="stroke:#181818;stroke-width:1.0;"/><line style="stroke:#181818;stroke-width:1.0;" x1="1802" x2="2945.5" y1="1313.1016" y2="1313.1016"/><text fill="#000000" font-family="sans-serif" font-size="13" font-weight="bold" lengthAdjust="spacing" textLength="14" x="1809" y="1308.2451">29</text><text fill="#000000" font-family="sans-serif" font-size="13" lengthAdjust="spacing" textLength="80" x="1827" y="1308.2451">repo.save(list)</text><line style="stroke:#000000;stroke-width:1.0;stroke-dasharray:2.0,2.0;" x1="1656.5" x2="3057" y1="1336.1016" y2="1336.1016"/><line style="stroke:#181818;stroke-width:1.0;" x1="1802" x2="1844" y1="1359.4531" y2="1359.4531"/><line style="stroke:#181818;stroke-width:1.0;" x1="1844" x2="1844" y1="1359.4531" y2="1372.4531"/><line style="stroke:#181818;stroke-width:1.0;" x1="1803" x2="1844" y1="1372.4531" y2="1372.4531"/><polygon fill="#181818" points="1813,1368.4531,1803,1372.4531,1813,1376.4531,1809,1372.4531" style="stroke:#181818;stroke-width:1.0;"/><text fill="#000000" font-family="sans-serif" font-size="13" font-weight="bold" lengthAdjust="spacing" textLength="14" x="1809" y="1354.5967">30</text><text fill="#000000" font-family="sans-serif" font-size="13" lengthAdjust="spacing" textLength="383" x="1827" y="1354.5967">new MeetingAccessList(user, new InviteState("Enviado"), meeting)</text><polygon fill="#181818" points="2939.5,1398.8047,2949.5,1402.8047,2939.5,1406.8047,2943.5,1402.8047" style="stroke:#181818;stroke-width:1.0;"/><line style="stroke:#181818;stroke-width:1.0;" x1="1802" x2="2945.5" y1="1402.8047" y2="1402.8047"/><text fill="#000000" font-family="sans-serif" font-size="13" font-weight="bold" lengthAdjust="spacing" textLength="14" x="1809" y="1397.9482">31</text><text fill="#000000" font-family="sans-serif" font-size="13" lengthAdjust="spacing" textLength="80" x="1827" y="1397.9482">repo.save(list)</text><polygon fill="#181818" points="1134.5,1443.1563,1124.5,1447.1563,1134.5,1451.1563,1130.5,1447.1563" style="stroke:#181818;stroke-width:1.0;"/><line style="stroke:#181818;stroke-width:1.0;stroke-dasharray:2.0,2.0;" x1="1128.5" x2="1796" y1="1447.1563" y2="1447.1563"/><text fill="#000000" font-family="sans-serif" font-size="13" font-weight="bold" lengthAdjust="spacing" textLength="14" x="1140.5" y="1442.2998">32</text><text fill="#000000" font-family="sans-serif" font-size="13" lengthAdjust="spacing" textLength="89" x="1158.5" y="1442.2998">returns boolean</text><polygon fill="#181818" points="808.5,1473.5078,798.5,1477.5078,808.5,1481.5078,804.5,1477.5078" style="stroke:#181818;stroke-width:1.0;"/><line style="stroke:#181818;stroke-width:1.0;stroke-dasharray:2.0,2.0;" x1="802.5" x2="1117.5" y1="1477.5078" y2="1477.5078"/><text fill="#000000" font-family="sans-serif" font-size="13" font-weight="bold" lengthAdjust="spacing" textLength="14" x="814.5" y="1472.6514">33</text><text fill="#000000" font-family="sans-serif" font-size="13" lengthAdjust="spacing" textLength="89" x="832.5" y="1472.6514">returns boolean</text><polygon fill="#181818" points="513.5,1503.8594,503.5,1507.8594,513.5,1511.8594,509.5,1507.8594" style="stroke:#181818;stroke-width:1.0;"/><line style="stroke:#181818;stroke-width:1.0;stroke-dasharray:2.0,2.0;" x1="507.5" x2="791.5" y1="1507.8594" y2="1507.8594"/><text fill="#000000" font-family="sans-serif" font-size="13" font-weight="bold" lengthAdjust="spacing" textLength="14" x="519.5" y="1503.0029">34</text><text fill="#000000" font-family="sans-serif" font-size="13" lengthAdjust="spacing" textLength="89" x="537.5" y="1503.0029">returns boolean</text><path d="M10,1522.8594 L71,1522.8594 L71,1531.2109 L61,1541.2109 L10,1541.2109 L10,1522.8594 " fill="#EEEEEE" style="stroke:#000000;stroke-width:1.5;"/><rect fill="none" height="81.0547" style="stroke:#000000;stroke-width:1.5;" width="557" x="10" y="1522.8594"/><text fill="#000000" font-family="sans-serif" font-size="13" font-weight="bold" lengthAdjust="spacing" textLength="16" x="25" y="1537.3545">alt</text><text fill="#000000" font-family="sans-serif" font-size="11" font-weight="bold" lengthAdjust="spacing" textLength="91" x="86" y="1536.2783">[boolean is true]</text><polygon fill="#181818" points="53.5,1559.5625,43.5,1563.5625,53.5,1567.5625,49.5,1563.5625" style="stroke:#181818;stroke-width:1.0;"/><line style="stroke:#181818;stroke-width:1.0;stroke-dasharray:2.0,2.0;" x1="47.5" x2="491.5" y1="1563.5625" y2="1563.5625"/><text fill="#000000" font-family="sans-serif" font-size="13" font-weight="bold" lengthAdjust="spacing" textLength="14" x="59.5" y="1558.7061">35</text><text fill="#000000" font-family="sans-serif" font-size="13" lengthAdjust="spacing" textLength="218" x="77.5" y="1558.7061">Informs if the meeting was scheduled.</text><line style="stroke:#000000;stroke-width:1.0;stroke-dasharray:2.0,2.0;" x1="10" x2="567" y1="1572.5625" y2="1572.5625"/><polygon fill="#181818" points="53.5,1591.9141,43.5,1595.9141,53.5,1599.9141,49.5,1595.9141" style="stroke:#181818;stroke-width:1.0;"/><line style="stroke:#181818;stroke-width:1.0;stroke-dasharray:2.0,2.0;" x1="47.5" x2="491.5" y1="1595.9141" y2="1595.9141"/><text fill="#000000" font-family="sans-serif" font-size="13" font-weight="bold" lengthAdjust="spacing" textLength="14" x="59.5" y="1591.0576">36</text><text fill="#000000" font-family="sans-serif" font-size="13" lengthAdjust="spacing" textLength="408" x="77.5" y="1591.0576">Informs that an error has occurred and the meeting was not scheduled.</text><!--MD5=[96fb02a8b79953bee1357dec502015fc]
@startuml
autonumber
actor "User" as U
participant "CreateMeetingUI" as UI
participant "CreateMeetingController" as CTL
participant "AuthorizationService" as AS
participant "CreateMeetingService" as SV
participant "Persistence Context" as PC
participant "RepositoryFactory" as RF
participant "JpaMeetingRepository" as JPAM
participant "JpaMeetingAccessListRepository" as JPAAL
participant "Meeting" as M
participant "MeetingAccessList" as MAL
database "MeetingRepository" as MRPS
database "MeetingALRepository" as MALRPS

activate U
U -> UI : want to create a meeting
activate UI
UI -> CTL : CreateMeetingController()
activate CTL
CTL -> AS : userService()
activate AS
CTL -> SV : CreateMeetingService()
deactivate AS
activate SV

SV -> PC :repositories()
activate PC
PC -> RF :getRepositoryFactory()
activate RF
RF -> MRPS : meetingRepository()
activate MRPS
RF -> MALRPS : meetingAlRepository()
activate MALRPS
deactivate MRPS
PC - -> SV :factory
deactivate PC
deactivate RF
deactivate MALRPS
deactivate SV
UI - -> U : asks for date, hour, duration and list of users
deactivate UI
deactivate CTL
U -> UI : introduces data

activate UI
UI -> CTL : createMeeting(date, duration, hour, emails)
activate CTL

CTL -> AS : allUsers()
activate AS
CTL -> CTL : new ArrayList<>();
deactivate AS
loop SystemUser
loop String
opt if email = string
CTL -> CTL : list.add(su);
end opt
end
end
CTL -> SV : createMeeting(date, duration, hour, userAccess)
activate SV
SV -> M : new Meeting(duration, date, hour)
activate M
SV -> JPAM : save(meeting)
deactivate M
activate JPAM
JPAM -> MRPS : repo.save(meeting)
deactivate JPAM
activate MRPS
SV -> JPAAL : verifyAndNotify(userList, meeting)
deactivate MRPS
activate JPAAL

loop SystemUser list
JPAAL -> MALRPS : createQuery()
activate MALRPS
alt if list is not empty
loop Meeting list
JPAAL -> JPAAL : getMeetingTime().getHour()
JPAAL -> JPAAL : getMeetingTime().getHour()
JPAAL -> JPAAL : plusHours(meeting.getMeetingTime().getDuration().getHour()).plusMinutes(meeting.getMeetingTime().getDuration().getMinute())
JPAAL -> JPAAL : plusHours(l.getMeetingTime().getDuration().getHour()).plusMinutes(l.getMeetingTime().getDuration().getMinute());
alt if user is unavailable
JPAAL -> JPAAL : new MeetingAccessList(user, new InviteState("Ocupado")
JPAAL -> MALRPS : repo.save(list)
else user is unavailable
JPAAL -> JPAAL : new MeetingAccessList(user, new InviteState("Enviado"), meeting)
JPAAL -> MALRPS : repo.save(list)
end alt
end
else
JPAAL -> JPAAL : new MeetingAccessList(user, new InviteState("Enviado"), meeting)
JPAAL -> MALRPS : repo.save(list)
end alt
end
deactivate MALRPS
deactivate MRPS
JPAAL - -> SV : returns boolean
deactivate JPAAL
SV - -> CTL : returns boolean
deactivate MRPS
deactivate SV
CTL - -> UI : returns boolean
deactivate CTL
alt boolean is true
    UI - -> U : Informs if the meeting was scheduled.
else
    UI - -> U : Informs that an error has occurred and the meeting was not scheduled.
end alt
deactivate UI
deactivate U

@enduml

PlantUML version 1.2022.4(Sat Apr 09 14:29:17 BST 2022)
(GPL source distribution)
Java Runtime: OpenJDK Runtime Environment
JVM: OpenJDK 64-Bit Server VM
Default Encoding: Cp1252
Language: pt
Country: PT
--></g></svg>