<?xml version="1.0" encoding="us-ascii" standalone="no"?><svg xmlns="http://www.w3.org/2000/svg" xmlns:xlink="http://www.w3.org/1999/xlink" contentStyleType="text/css" height="600px" preserveAspectRatio="none" style="width:780px;height:600px;background:#FFFFFF;" version="1.1" viewBox="0 0 780 600" width="780px" zoomAndPan="magnify"><defs/><g><!--class TCPClient--><g id="elem_TCPClient"><rect codeLine="1" fill="#F1F1F1" height="48" id="TCPClient" rx="2.5" ry="2.5" style="stroke:#181818;stroke-width:0.5;" width="96" x="257" y="7"/><ellipse cx="272" cy="23" fill="#ADD1B2" rx="11" ry="11" style="stroke:#181818;stroke-width:1.0;"/><path d="M274,19.5 Q274.2031,19 274.4375,18.75 Q274.6719,18.5 274.9375,18.5 Q275.4063,18.5 275.7031,18.7813 Q276,19.0625 276,19.7188 L276,21.2813 Q276,21.9375 275.7188,22.2188 Q275.4375,22.5 275,22.5 Q274.6094,22.5 274.3594,22.3281 Q274.1094,22.1563 274,21.7031 Q273.9531,21.3906 273.7813,21.2188 Q273.4688,20.8906 272.9063,20.7031 Q272.3438,20.5 271.7813,20.5 Q271.0781,20.5 270.4844,20.7813 Q269.9063,21.0625 269.4531,21.6875 Q269,22.3125 269,23.1719 L269,24.0938 Q269,25.125 269.8438,25.8125 Q270.6875,26.5 272.1875,26.5 Q273.0781,26.5 273.7031,26.2969 Q274.0625,26.1875 274.4688,25.8281 Q274.7344,25.625 274.875,25.5625 Q275.0156,25.5 275.1875,25.5 Q275.5156,25.5 275.75,25.7656 Q276,26.0156 276,26.375 Q276,26.7188 275.6563,27.125 Q275.1563,27.7188 274.3594,28.0469 Q273.3125,28.5 272.0313,28.5 Q270.5313,28.5 269.3281,27.9063 Q268.3594,27.4375 267.6719,26.4219 Q267,25.4063 267,24.2031 L267,23.1094 Q267,21.8594 267.5938,20.7656 Q268.2031,19.6719 269.25,19.0938 Q270.3125,18.5 271.5,18.5 Q272.2188,18.5 272.8438,18.75 Q273.4688,19 274,19.5 Z " fill="#000000"/><text fill="#000000" font-family="sans-serif" font-size="14" lengthAdjust="spacing" textLength="64" x="286" y="27.8535">TCPClient</text><line style="stroke:#181818;stroke-width:0.5;" x1="258" x2="352" y1="39" y2="39"/><line style="stroke:#181818;stroke-width:0.5;" x1="258" x2="352" y1="47" y2="47"/></g><!--class TCPServer--><g id="elem_TCPServer"><rect codeLine="4" fill="#F1F1F1" height="48" id="TCPServer" rx="2.5" ry="2.5" style="stroke:#181818;stroke-width:0.5;" width="102" x="184" y="118.5"/><ellipse cx="199" cy="134.5" fill="#ADD1B2" rx="11" ry="11" style="stroke:#181818;stroke-width:1.0;"/><path d="M201,131 Q201.2031,130.5 201.4375,130.25 Q201.6719,130 201.9375,130 Q202.4063,130 202.7031,130.2813 Q203,130.5625 203,131.2188 L203,132.7813 Q203,133.4375 202.7188,133.7188 Q202.4375,134 202,134 Q201.6094,134 201.3594,133.8281 Q201.1094,133.6563 201,133.2031 Q200.9531,132.8906 200.7813,132.7188 Q200.4688,132.3906 199.9063,132.2031 Q199.3438,132 198.7813,132 Q198.0781,132 197.4844,132.2813 Q196.9063,132.5625 196.4531,133.1875 Q196,133.8125 196,134.6719 L196,135.5938 Q196,136.625 196.8438,137.3125 Q197.6875,138 199.1875,138 Q200.0781,138 200.7031,137.7969 Q201.0625,137.6875 201.4688,137.3281 Q201.7344,137.125 201.875,137.0625 Q202.0156,137 202.1875,137 Q202.5156,137 202.75,137.2656 Q203,137.5156 203,137.875 Q203,138.2188 202.6563,138.625 Q202.1563,139.2188 201.3594,139.5469 Q200.3125,140 199.0313,140 Q197.5313,140 196.3281,139.4063 Q195.3594,138.9375 194.6719,137.9219 Q194,136.9063 194,135.7031 L194,134.6094 Q194,133.3594 194.5938,132.2656 Q195.2031,131.1719 196.25,130.5938 Q197.3125,130 198.5,130 Q199.2188,130 199.8438,130.25 Q200.4688,130.5 201,131 Z " fill="#000000"/><text fill="#000000" font-family="sans-serif" font-size="14" lengthAdjust="spacing" textLength="70" x="213" y="139.3535">TCPServer</text><line style="stroke:#181818;stroke-width:0.5;" x1="185" x2="285" y1="150.5" y2="150.5"/><line style="stroke:#181818;stroke-width:0.5;" x1="185" x2="285" y1="158.5" y2="158.5"/></g><!--class AddPostItUI--><g id="elem_AddPostItUI"><rect codeLine="7" fill="#F1F1F1" height="55.0469" id="AddPostItUI" rx="2.5" ry="2.5" style="stroke:#181818;stroke-width:0.5;" width="110" x="321" y="115"/><ellipse cx="336" cy="134.5234" fill="#ADD1B2" rx="11" ry="11" style="stroke:#181818;stroke-width:1.0;"/><path d="M338,131.0234 Q338.2031,130.5234 338.4375,130.2734 Q338.6719,130.0234 338.9375,130.0234 Q339.4063,130.0234 339.7031,130.3047 Q340,130.5859 340,131.2422 L340,132.8047 Q340,133.4609 339.7188,133.7422 Q339.4375,134.0234 339,134.0234 Q338.6094,134.0234 338.3594,133.8516 Q338.1094,133.6797 338,133.2266 Q337.9531,132.9141 337.7813,132.7422 Q337.4688,132.4141 336.9063,132.2266 Q336.3438,132.0234 335.7813,132.0234 Q335.0781,132.0234 334.4844,132.3047 Q333.9063,132.5859 333.4531,133.2109 Q333,133.8359 333,134.6953 L333,135.6172 Q333,136.6484 333.8438,137.3359 Q334.6875,138.0234 336.1875,138.0234 Q337.0781,138.0234 337.7031,137.8203 Q338.0625,137.7109 338.4688,137.3516 Q338.7344,137.1484 338.875,137.0859 Q339.0156,137.0234 339.1875,137.0234 Q339.5156,137.0234 339.75,137.2891 Q340,137.5391 340,137.8984 Q340,138.2422 339.6563,138.6484 Q339.1563,139.2422 338.3594,139.5703 Q337.3125,140.0234 336.0313,140.0234 Q334.5313,140.0234 333.3281,139.4297 Q332.3594,138.9609 331.6719,137.9453 Q331,136.9297 331,135.7266 L331,134.6328 Q331,133.3828 331.5938,132.2891 Q332.2031,131.1953 333.25,130.6172 Q334.3125,130.0234 335.5,130.0234 Q336.2188,130.0234 336.8438,130.2734 Q337.4688,130.5234 338,131.0234 Z " fill="#000000"/><text fill="#000000" font-family="sans-serif" font-size="12" font-style="italic" lengthAdjust="spacing" textLength="82" x="348" y="130.8633">&#171;presentation&#187;</text><text fill="#000000" font-family="sans-serif" font-size="14" lengthAdjust="spacing" textLength="72" x="353" y="146.0801">AddPostItUI</text><line style="stroke:#181818;stroke-width:0.5;" x1="322" x2="430" y1="154.0469" y2="154.0469"/><line style="stroke:#181818;stroke-width:0.5;" x1="322" x2="430" y1="162.0469" y2="162.0469"/></g><!--class AddPostItController--><g id="elem_AddPostItController"><rect codeLine="9" fill="#F1F1F1" height="86.3281" id="AddPostItController" rx="2.5" ry="2.5" style="stroke:#181818;stroke-width:0.5;" width="287" x="91.5" y="230"/><ellipse cx="169.75" cy="249.5234" fill="#ADD1B2" rx="11" ry="11" style="stroke:#181818;stroke-width:1.0;"/><path d="M171.75,246.0234 Q171.9531,245.5234 172.1875,245.2734 Q172.4219,245.0234 172.6875,245.0234 Q173.1563,245.0234 173.4531,245.3047 Q173.75,245.5859 173.75,246.2422 L173.75,247.8047 Q173.75,248.4609 173.4688,248.7422 Q173.1875,249.0234 172.75,249.0234 Q172.3594,249.0234 172.1094,248.8516 Q171.8594,248.6797 171.75,248.2266 Q171.7031,247.9141 171.5313,247.7422 Q171.2188,247.4141 170.6563,247.2266 Q170.0938,247.0234 169.5313,247.0234 Q168.8281,247.0234 168.2344,247.3047 Q167.6563,247.5859 167.2031,248.2109 Q166.75,248.8359 166.75,249.6953 L166.75,250.6172 Q166.75,251.6484 167.5938,252.3359 Q168.4375,253.0234 169.9375,253.0234 Q170.8281,253.0234 171.4531,252.8203 Q171.8125,252.7109 172.2188,252.3516 Q172.4844,252.1484 172.625,252.0859 Q172.7656,252.0234 172.9375,252.0234 Q173.2656,252.0234 173.5,252.2891 Q173.75,252.5391 173.75,252.8984 Q173.75,253.2422 173.4063,253.6484 Q172.9063,254.2422 172.1094,254.5703 Q171.0625,255.0234 169.7813,255.0234 Q168.2813,255.0234 167.0781,254.4297 Q166.1094,253.9609 165.4219,252.9453 Q164.75,251.9297 164.75,250.7266 L164.75,249.6328 Q164.75,248.3828 165.3438,247.2891 Q165.9531,246.1953 167,245.6172 Q168.0625,245.0234 169.25,245.0234 Q169.9688,245.0234 170.5938,245.2734 Q171.2188,245.5234 171.75,246.0234 Z " fill="#000000"/><text fill="#000000" font-family="sans-serif" font-size="12" font-style="italic" lengthAdjust="spacing" textLength="74" x="214.25" y="245.8633">&#171;application&#187;</text><text fill="#000000" font-family="sans-serif" font-size="14" lengthAdjust="spacing" textLength="122" x="190.25" y="261.0801">AddPostItController</text><line style="stroke:#181818;stroke-width:0.5;" x1="92.5" x2="377.5" y1="269.0469" y2="269.0469"/><line style="stroke:#181818;stroke-width:0.5;" x1="92.5" x2="377.5" y1="277.0469" y2="277.0469"/><ellipse cx="102.5" cy="290.3672" fill="#84BE84" rx="3" ry="3" style="stroke:#038048;stroke-width:1.0;"/><text fill="#000000" font-family="sans-serif" font-size="14" lengthAdjust="spacing" textLength="153" x="111.5" y="293.7207">findBoardPresent(email)</text><ellipse cx="102.5" cy="306.0078" fill="#84BE84" rx="3" ry="3" style="stroke:#038048;stroke-width:1.0;"/><text fill="#000000" font-family="sans-serif" font-size="14" lengthAdjust="spacing" textLength="261" x="111.5" y="309.3613">addPostIt(email,data,row,column,boardId)</text></g><!--class BoardManagementService--><g id="elem_BoardManagementService"><rect codeLine="14" fill="#F1F1F1" height="70.6875" id="BoardManagementService" rx="2.5" ry="2.5" style="stroke:#181818;stroke-width:0.5;" width="287" x="214.5" y="376"/><ellipse cx="270.25" cy="395.5234" fill="#ADD1B2" rx="11" ry="11" style="stroke:#181818;stroke-width:1.0;"/><path d="M272.25,392.0234 Q272.4531,391.5234 272.6875,391.2734 Q272.9219,391.0234 273.1875,391.0234 Q273.6563,391.0234 273.9531,391.3047 Q274.25,391.5859 274.25,392.2422 L274.25,393.8047 Q274.25,394.4609 273.9688,394.7422 Q273.6875,395.0234 273.25,395.0234 Q272.8594,395.0234 272.6094,394.8516 Q272.3594,394.6797 272.25,394.2266 Q272.2031,393.9141 272.0313,393.7422 Q271.7188,393.4141 271.1563,393.2266 Q270.5938,393.0234 270.0313,393.0234 Q269.3281,393.0234 268.7344,393.3047 Q268.1563,393.5859 267.7031,394.2109 Q267.25,394.8359 267.25,395.6953 L267.25,396.6172 Q267.25,397.6484 268.0938,398.3359 Q268.9375,399.0234 270.4375,399.0234 Q271.3281,399.0234 271.9531,398.8203 Q272.3125,398.7109 272.7188,398.3516 Q272.9844,398.1484 273.125,398.0859 Q273.2656,398.0234 273.4375,398.0234 Q273.7656,398.0234 274,398.2891 Q274.25,398.5391 274.25,398.8984 Q274.25,399.2422 273.9063,399.6484 Q273.4063,400.2422 272.6094,400.5703 Q271.5625,401.0234 270.2813,401.0234 Q268.7813,401.0234 267.5781,400.4297 Q266.6094,399.9609 265.9219,398.9453 Q265.25,397.9297 265.25,396.7266 L265.25,395.6328 Q265.25,394.3828 265.8438,393.2891 Q266.4531,392.1953 267.5,391.6172 Q268.5625,391.0234 269.75,391.0234 Q270.4688,391.0234 271.0938,391.2734 Q271.7188,391.5234 272.25,392.0234 Z " fill="#000000"/><text fill="#000000" font-family="sans-serif" font-size="12" font-style="italic" lengthAdjust="spacing" textLength="74" x="337.25" y="391.8633">&#171;application&#187;</text><text fill="#000000" font-family="sans-serif" font-size="14" lengthAdjust="spacing" textLength="167" x="290.75" y="407.0801">BoardManagementService</text><line style="stroke:#181818;stroke-width:0.5;" x1="215.5" x2="500.5" y1="415.0469" y2="415.0469"/><line style="stroke:#181818;stroke-width:0.5;" x1="215.5" x2="500.5" y1="423.0469" y2="423.0469"/><ellipse cx="225.5" cy="436.3672" fill="#84BE84" rx="3" ry="3" style="stroke:#038048;stroke-width:1.0;"/><text fill="#000000" font-family="sans-serif" font-size="14" lengthAdjust="spacing" textLength="261" x="234.5" y="439.7207">addPostIt(email,data,row,column,boardId)</text></g><!--class PostItRepository--><g id="elem_PostItRepository"><rect codeLine="18" fill="#F1F1F1" height="70.6875" id="PostItRepository" rx="2.5" ry="2.5" style="stroke:#181818;stroke-width:0.5;" width="207" x="254.5" y="514.5"/><ellipse cx="302.25" cy="534.0234" fill="#ADD1B2" rx="11" ry="11" style="stroke:#181818;stroke-width:1.0;"/><path d="M304.25,530.5234 Q304.4531,530.0234 304.6875,529.7734 Q304.9219,529.5234 305.1875,529.5234 Q305.6563,529.5234 305.9531,529.8047 Q306.25,530.0859 306.25,530.7422 L306.25,532.3047 Q306.25,532.9609 305.9688,533.2422 Q305.6875,533.5234 305.25,533.5234 Q304.8594,533.5234 304.6094,533.3516 Q304.3594,533.1797 304.25,532.7266 Q304.2031,532.4141 304.0313,532.2422 Q303.7188,531.9141 303.1563,531.7266 Q302.5938,531.5234 302.0313,531.5234 Q301.3281,531.5234 300.7344,531.8047 Q300.1563,532.0859 299.7031,532.7109 Q299.25,533.3359 299.25,534.1953 L299.25,535.1172 Q299.25,536.1484 300.0938,536.8359 Q300.9375,537.5234 302.4375,537.5234 Q303.3281,537.5234 303.9531,537.3203 Q304.3125,537.2109 304.7188,536.8516 Q304.9844,536.6484 305.125,536.5859 Q305.2656,536.5234 305.4375,536.5234 Q305.7656,536.5234 306,536.7891 Q306.25,537.0391 306.25,537.3984 Q306.25,537.7422 305.9063,538.1484 Q305.4063,538.7422 304.6094,539.0703 Q303.5625,539.5234 302.2813,539.5234 Q300.7813,539.5234 299.5781,538.9297 Q298.6094,538.4609 297.9219,537.4453 Q297.25,536.4297 297.25,535.2266 L297.25,534.1328 Q297.25,532.8828 297.8438,531.7891 Q298.4531,530.6953 299.5,530.1172 Q300.5625,529.5234 301.75,529.5234 Q302.4688,529.5234 303.0938,529.7734 Q303.7188,530.0234 304.25,530.5234 Z " fill="#000000"/><text fill="#000000" font-family="sans-serif" font-size="12" font-style="italic" lengthAdjust="spacing" textLength="68" x="340.25" y="530.3633">&#171;repository&#187;</text><text fill="#000000" font-family="sans-serif" font-size="14" lengthAdjust="spacing" textLength="103" x="322.75" y="545.5801">PostItRepository</text><line style="stroke:#181818;stroke-width:0.5;" x1="255.5" x2="460.5" y1="553.5469" y2="553.5469"/><line style="stroke:#181818;stroke-width:0.5;" x1="255.5" x2="460.5" y1="561.5469" y2="561.5469"/><ellipse cx="265.5" cy="574.8672" fill="#84BE84" rx="3" ry="3" style="stroke:#038048;stroke-width:1.0;"/><text fill="#000000" font-family="sans-serif" font-size="14" lengthAdjust="spacing" textLength="181" x="274.5" y="578.2207">findPostItByBoardId(boardId)</text></g><!--class BoardRepository--><g id="elem_BoardRepository"><rect codeLine="22" fill="#F1F1F1" height="86.3281" id="BoardRepository" rx="2.5" ry="2.5" style="stroke:#181818;stroke-width:0.5;" width="212" x="7" y="507"/><ellipse cx="55.75" cy="526.5234" fill="#ADD1B2" rx="11" ry="11" style="stroke:#181818;stroke-width:1.0;"/><path d="M57.75,523.0234 Q57.9531,522.5234 58.1875,522.2734 Q58.4219,522.0234 58.6875,522.0234 Q59.1563,522.0234 59.4531,522.3047 Q59.75,522.5859 59.75,523.2422 L59.75,524.8047 Q59.75,525.4609 59.4688,525.7422 Q59.1875,526.0234 58.75,526.0234 Q58.3594,526.0234 58.1094,525.8516 Q57.8594,525.6797 57.75,525.2266 Q57.7031,524.9141 57.5313,524.7422 Q57.2188,524.4141 56.6563,524.2266 Q56.0938,524.0234 55.5313,524.0234 Q54.8281,524.0234 54.2344,524.3047 Q53.6563,524.5859 53.2031,525.2109 Q52.75,525.8359 52.75,526.6953 L52.75,527.6172 Q52.75,528.6484 53.5938,529.3359 Q54.4375,530.0234 55.9375,530.0234 Q56.8281,530.0234 57.4531,529.8203 Q57.8125,529.7109 58.2188,529.3516 Q58.4844,529.1484 58.625,529.0859 Q58.7656,529.0234 58.9375,529.0234 Q59.2656,529.0234 59.5,529.2891 Q59.75,529.5391 59.75,529.8984 Q59.75,530.2422 59.4063,530.6484 Q58.9063,531.2422 58.1094,531.5703 Q57.0625,532.0234 55.7813,532.0234 Q54.2813,532.0234 53.0781,531.4297 Q52.1094,530.9609 51.4219,529.9453 Q50.75,528.9297 50.75,527.7266 L50.75,526.6328 Q50.75,525.3828 51.3438,524.2891 Q51.9531,523.1953 53,522.6172 Q54.0625,522.0234 55.25,522.0234 Q55.9688,522.0234 56.5938,522.2734 Q57.2188,522.5234 57.75,523.0234 Z " fill="#000000"/><text fill="#000000" font-family="sans-serif" font-size="12" font-style="italic" lengthAdjust="spacing" textLength="68" x="95.25" y="522.8633">&#171;repository&#187;</text><text fill="#000000" font-family="sans-serif" font-size="14" lengthAdjust="spacing" textLength="106" x="76.25" y="538.0801">BoardRepository</text><line style="stroke:#181818;stroke-width:0.5;" x1="8" x2="218" y1="546.0469" y2="546.0469"/><line style="stroke:#181818;stroke-width:0.5;" x1="8" x2="218" y1="554.0469" y2="554.0469"/><ellipse cx="18" cy="567.3672" fill="#84BE84" rx="3" ry="3" style="stroke:#038048;stroke-width:1.0;"/><text fill="#000000" font-family="sans-serif" font-size="14" lengthAdjust="spacing" textLength="186" x="27" y="570.7207">findBoardPresentWrite(email)</text><ellipse cx="18" cy="583.0078" fill="#84BE84" rx="3" ry="3" style="stroke:#038048;stroke-width:1.0;"/><text fill="#000000" font-family="sans-serif" font-size="14" lengthAdjust="spacing" textLength="146" x="27" y="586.3613">findBoardById(boardId)</text></g><!--class UserRepository--><g id="elem_UserRepository"><rect codeLine="27" fill="#F1F1F1" height="63.6406" id="UserRepository" rx="2.5" ry="2.5" style="stroke:#181818;stroke-width:0.5;" width="157" x="496.5" y="518"/><ellipse cx="524.1" cy="534" fill="#ADD1B2" rx="11" ry="11" style="stroke:#181818;stroke-width:1.0;"/><path d="M526.1,530.5 Q526.3031,530 526.5375,529.75 Q526.7719,529.5 527.0375,529.5 Q527.5063,529.5 527.8031,529.7813 Q528.1,530.0625 528.1,530.7188 L528.1,532.2813 Q528.1,532.9375 527.8188,533.2188 Q527.5375,533.5 527.1,533.5 Q526.7094,533.5 526.4594,533.3281 Q526.2094,533.1563 526.1,532.7031 Q526.0531,532.3906 525.8813,532.2188 Q525.5688,531.8906 525.0063,531.7031 Q524.4438,531.5 523.8813,531.5 Q523.1781,531.5 522.5844,531.7813 Q522.0063,532.0625 521.5531,532.6875 Q521.1,533.3125 521.1,534.1719 L521.1,535.0938 Q521.1,536.125 521.9438,536.8125 Q522.7875,537.5 524.2875,537.5 Q525.1781,537.5 525.8031,537.2969 Q526.1625,537.1875 526.5688,536.8281 Q526.8344,536.625 526.975,536.5625 Q527.1156,536.5 527.2875,536.5 Q527.6156,536.5 527.85,536.7656 Q528.1,537.0156 528.1,537.375 Q528.1,537.7188 527.7563,538.125 Q527.2563,538.7188 526.4594,539.0469 Q525.4125,539.5 524.1313,539.5 Q522.6313,539.5 521.4281,538.9063 Q520.4594,538.4375 519.7719,537.4219 Q519.1,536.4063 519.1,535.2031 L519.1,534.1094 Q519.1,532.8594 519.6938,531.7656 Q520.3031,530.6719 521.35,530.0938 Q522.4125,529.5 523.6,529.5 Q524.3188,529.5 524.9438,529.75 Q525.5688,530 526.1,530.5 Z " fill="#000000"/><text fill="#000000" font-family="sans-serif" font-size="14" lengthAdjust="spacing" textLength="97" x="540.9" y="538.8535">UserRepository</text><line style="stroke:#181818;stroke-width:0.5;" x1="497.5" x2="652.5" y1="550" y2="550"/><line style="stroke:#181818;stroke-width:0.5;" x1="497.5" x2="652.5" y1="558" y2="558"/><text fill="#000000" font-family="sans-serif" font-size="14" lengthAdjust="spacing" textLength="145" x="502.5" y="574.6738">findUserByEmail(email)</text></g><!--class PostIts--><g id="elem_PostIts"><rect codeLine="31" fill="#F1F1F1" height="55.0469" id="PostIts" rx="2.5" ry="2.5" style="stroke:#181818;stroke-width:0.5;" width="84" x="689" y="522.5"/><ellipse cx="704" cy="542.0234" fill="#ADD1B2" rx="11" ry="11" style="stroke:#181818;stroke-width:1.0;"/><path d="M706,538.5234 Q706.2031,538.0234 706.4375,537.7734 Q706.6719,537.5234 706.9375,537.5234 Q707.4063,537.5234 707.7031,537.8047 Q708,538.0859 708,538.7422 L708,540.3047 Q708,540.9609 707.7188,541.2422 Q707.4375,541.5234 707,541.5234 Q706.6094,541.5234 706.3594,541.3516 Q706.1094,541.1797 706,540.7266 Q705.9531,540.4141 705.7813,540.2422 Q705.4688,539.9141 704.9063,539.7266 Q704.3438,539.5234 703.7813,539.5234 Q703.0781,539.5234 702.4844,539.8047 Q701.9063,540.0859 701.4531,540.7109 Q701,541.3359 701,542.1953 L701,543.1172 Q701,544.1484 701.8438,544.8359 Q702.6875,545.5234 704.1875,545.5234 Q705.0781,545.5234 705.7031,545.3203 Q706.0625,545.2109 706.4688,544.8516 Q706.7344,544.6484 706.875,544.5859 Q707.0156,544.5234 707.1875,544.5234 Q707.5156,544.5234 707.75,544.7891 Q708,545.0391 708,545.3984 Q708,545.7422 707.6563,546.1484 Q707.1563,546.7422 706.3594,547.0703 Q705.3125,547.5234 704.0313,547.5234 Q702.5313,547.5234 701.3281,546.9297 Q700.3594,546.4609 699.6719,545.4453 Q699,544.4297 699,543.2266 L699,542.1328 Q699,540.8828 699.5938,539.7891 Q700.2031,538.6953 701.25,538.1172 Q702.3125,537.5234 703.5,537.5234 Q704.2188,537.5234 704.8438,537.7734 Q705.4688,538.0234 706,538.5234 Z " fill="#000000"/><text fill="#000000" font-family="sans-serif" font-size="12" font-style="italic" lengthAdjust="spacing" textLength="56" x="716" y="538.3633">&#171;doamin&#187;</text><text fill="#000000" font-family="sans-serif" font-size="14" lengthAdjust="spacing" textLength="42" x="723" y="553.5801">PostIts</text><line style="stroke:#181818;stroke-width:0.5;" x1="690" x2="772" y1="561.5469" y2="561.5469"/><line style="stroke:#181818;stroke-width:0.5;" x1="690" x2="772" y1="569.5469" y2="569.5469"/></g><!--link TCPClient to AddPostItUI--><g id="link_TCPClient_AddPostItUI"><path codeLine="35" d="M320.06,55.22 C330.49,71.31 344.49,92.91 355.88,110.47 " fill="none" id="TCPClient-to-AddPostItUI" style="stroke:#181818;stroke-width:1.0;"/><polygon fill="#181818" points="358.72,114.84,357.1794,105.1124,355.9996,110.6448,350.4671,109.465,358.72,114.84" style="stroke:#181818;stroke-width:1.0;"/></g><!--link TCPClient to TCPServer--><g id="link_TCPClient_TCPServer"><path codeLine="36" d="M290.15,55.22 C279.2,72.35 264.26,95.73 252.69,113.83 " fill="none" id="TCPClient-to-TCPServer" style="stroke:#181818;stroke-width:1.0;"/><polygon fill="#181818" points="249.82,118.31,258.0301,112.8699,252.5072,114.0935,251.2836,108.5705,249.82,118.31" style="stroke:#181818;stroke-width:1.0;"/></g><!--link TCPServer to AddPostItController--><g id="link_TCPServer_AddPostItController"><path codeLine="37" d="M235,166.77 C235,182.9 235,204.95 235,224.7 " fill="none" id="TCPServer-to-AddPostItController" style="stroke:#181818;stroke-width:1.0;"/><polygon fill="#181818" points="235,229.93,239,220.93,235,224.93,231,220.93,235,229.93" style="stroke:#181818;stroke-width:1.0;"/></g><!--link AddPostItController to BoardRepository--><g id="link_AddPostItController_BoardRepository"><path codeLine="38" d="M216.34,316.07 C194.05,366.31 156.88,450.09 133.72,502.3 " fill="none" id="AddPostItController-to-BoardRepository" style="stroke:#181818;stroke-width:1.0;"/><polygon fill="#181818" points="131.66,506.94,138.9667,500.336,133.688,502.3698,131.6543,497.0911,131.66,506.94" style="stroke:#181818;stroke-width:1.0;"/></g><!--link AddPostItController to BoardManagementService--><g id="link_AddPostItController_BoardManagementService"><path codeLine="39" d="M272.91,316.07 C288.92,333.84 307.45,354.4 323.12,371.79 " fill="none" id="AddPostItController-to-BoardManagementService" style="stroke:#181818;stroke-width:1.0;"/><polygon fill="#181818" points="326.62,375.68,323.5725,366.3145,323.2752,371.9635,317.6261,371.6662,326.62,375.68" style="stroke:#181818;stroke-width:1.0;"/></g><!--link BoardManagementService to UserRepository--><g id="link_BoardManagementService_UserRepository"><path codeLine="40" d="M413.04,447.12 C446.21,467.98 488.26,494.44 521.2,515.16 " fill="none" id="BoardManagementService-to-UserRepository" style="stroke:#181818;stroke-width:1.0;"/><polygon fill="#181818" points="525.58,517.91,520.1076,509.7214,521.3529,515.2395,515.8348,516.4848,525.58,517.91" style="stroke:#181818;stroke-width:1.0;"/></g><!--link BoardManagementService to BoardRepository--><g id="link_BoardManagementService_BoardRepository"><path codeLine="41" d="M295.86,447.12 C264.65,464.51 226.48,485.77 193.1,504.37 " fill="none" id="BoardManagementService-to-BoardRepository" style="stroke:#181818;stroke-width:1.0;"/><polygon fill="#181818" points="188.64,506.86,198.4465,505.9477,193.0013,504.4148,194.5342,498.9696,188.64,506.86" style="stroke:#181818;stroke-width:1.0;"/></g><!--link BoardManagementService to PostItRepository--><g id="link_BoardManagementService_PostItRepository"><path codeLine="42" d="M358,447.3 C358,466.15 358,489.53 358,509.11 " fill="none" id="BoardManagementService-to-PostItRepository" style="stroke:#181818;stroke-width:1.0;"/><polygon fill="#181818" points="358,514.27,362,505.27,358,509.27,354,505.27,358,514.27" style="stroke:#181818;stroke-width:1.0;"/></g><!--link BoardManagementService to PostIts--><g id="link_BoardManagementService_PostIts"><path codeLine="43" d="M501.83,445.62 C556.28,460.79 617.89,481.22 671,507 C678.29,510.54 685.68,514.92 692.65,519.51 " fill="none" id="BoardManagementService-to-PostIts" style="stroke:#181818;stroke-width:1.0;"/><polygon fill="#181818" points="696.94,522.39,691.7034,514.0487,692.7908,519.6,687.2394,520.6874,696.94,522.39" style="stroke:#181818;stroke-width:1.0;"/></g><!--SRC=[bPB1ReCm343l_WgEhKh_e48QQ0SEaz2sQcUFU5Eaa20dsuJG_drab40pscetS9vV7DkrGckJvw8gb2JjUlW6gAVO4_4dyI9s9qHbh2lTiKmEXvR93ZdefD5Pvh68AensR9GY7cXiMoNh4vpqi7kJMkG6MLIZPqCDIhM57KxvOoGLw31byvNMHdqqEdtrIQNOpdNzQXvGupirWydNBMjQk_J_xX5_fDPOwGntWvN3p_oI4SkxV1HiBXHvqxFio0jBHw4juJJlLlr7IpphU_2yZ-NTlJTCdkXXTgX366paQOG0OHcI_JvRZZmw2Gi2uUiyOnu_hAs4PwEUNEV-31WkpDrdd7VZ6XdNS0MDT-4sQ-47]--></g></svg>