<?xml version="1.0" encoding="us-ascii" standalone="no"?><svg xmlns="http://www.w3.org/2000/svg" xmlns:xlink="http://www.w3.org/1999/xlink" contentStyleType="text/css" height="750px" preserveAspectRatio="none" style="width:1297px;height:750px;background:#FFFFFF;" version="1.1" viewBox="0 0 1297 750" width="1297px" zoomAndPan="magnify"><defs/><g><rect fill="none" height="59.0469" style="stroke:#000000;stroke-width:1.5;" width="353" x="627.5" y="453.9922"/><line style="stroke:#181818;stroke-width:0.5;stroke-dasharray:5.0,5.0;" x1="22" x2="22" y1="82.2813" y2="657.0859"/><line style="stroke:#181818;stroke-width:0.5;stroke-dasharray:5.0,5.0;" x1="89" x2="89" y1="82.2813" y2="657.0859"/><line style="stroke:#181818;stroke-width:0.5;stroke-dasharray:5.0,5.0;" x1="202" x2="202" y1="82.2813" y2="657.0859"/><line style="stroke:#181818;stroke-width:0.5;stroke-dasharray:5.0,5.0;" x1="308" x2="308" y1="82.2813" y2="657.0859"/><line style="stroke:#181818;stroke-width:0.5;stroke-dasharray:5.0,5.0;" x1="465" x2="465" y1="82.2813" y2="657.0859"/><line style="stroke:#181818;stroke-width:0.5;stroke-dasharray:5.0,5.0;" x1="727.5" x2="727.5" y1="82.2813" y2="657.0859"/><line style="stroke:#181818;stroke-width:0.5;stroke-dasharray:5.0,5.0;" x1="915.5" x2="915.5" y1="82.2813" y2="657.0859"/><line style="stroke:#181818;stroke-width:0.5;stroke-dasharray:5.0,5.0;" x1="1036.5" x2="1036.5" y1="82.2813" y2="657.0859"/><line style="stroke:#181818;stroke-width:0.5;stroke-dasharray:5.0,5.0;" x1="1153.5" x2="1153.5" y1="82.2813" y2="657.0859"/><line style="stroke:#181818;stroke-width:0.5;stroke-dasharray:5.0,5.0;" x1="1253.5" x2="1253.5" y1="82.2813" y2="657.0859"/><text fill="#000000" font-family="sans-serif" font-size="14" lengthAdjust="spacing" textLength="29" x="5" y="79.3145">User</text><ellipse cx="22.5" cy="15.1406" fill="#E2E2F0" rx="8" ry="8" style="stroke:#181818;stroke-width:0.5;"/><path d="M22.5,23.1406 L22.5,50.1406 M9.5,31.1406 L35.5,31.1406 M22.5,50.1406 L9.5,65.1406 M22.5,50.1406 L35.5,65.1406 " fill="none" style="stroke:#181818;stroke-width:0.5;"/><text fill="#000000" font-family="sans-serif" font-size="14" lengthAdjust="spacing" textLength="29" x="5" y="668.7598">User</text><ellipse cx="22.5" cy="680.2266" fill="#E2E2F0" rx="8" ry="8" style="stroke:#181818;stroke-width:0.5;"/><path d="M22.5,688.2266 L22.5,715.2266 M9.5,696.2266 L35.5,696.2266 M22.5,715.2266 L9.5,730.2266 M22.5,715.2266 L35.5,730.2266 " fill="none" style="stroke:#181818;stroke-width:0.5;"/><rect fill="#E2E2F0" height="29.6406" rx="2.5" ry="2.5" style="stroke:#181818;stroke-width:0.5;" width="78" x="50" y="51.6406"/><text fill="#000000" font-family="sans-serif" font-size="14" lengthAdjust="spacing" textLength="64" x="57" y="71.3145">TCPClient</text><rect fill="#E2E2F0" height="29.6406" rx="2.5" ry="2.5" style="stroke:#181818;stroke-width:0.5;" width="78" x="50" y="656.0859"/><text fill="#000000" font-family="sans-serif" font-size="14" lengthAdjust="spacing" textLength="64" x="57" y="675.7598">TCPClient</text><rect fill="#E2E2F0" height="29.6406" rx="2.5" ry="2.5" style="stroke:#181818;stroke-width:0.5;" width="84" x="160" y="51.6406"/><text fill="#000000" font-family="sans-serif" font-size="14" lengthAdjust="spacing" textLength="70" x="167" y="71.3145">TCPServer</text><rect fill="#E2E2F0" height="29.6406" rx="2.5" ry="2.5" style="stroke:#181818;stroke-width:0.5;" width="84" x="160" y="656.0859"/><text fill="#000000" font-family="sans-serif" font-size="14" lengthAdjust="spacing" textLength="70" x="167" y="675.7598">TCPServer</text><rect fill="#E2E2F0" height="45.2813" rx="2.5" ry="2.5" style="stroke:#181818;stroke-width:0.5;" width="109" x="254" y="36"/><text fill="#000000" font-family="sans-serif" font-size="14" font-style="italic" lengthAdjust="spacing" textLength="95" x="261" y="55.6738">&#171;presentation&#187;</text><text fill="#000000" font-family="sans-serif" font-size="14" lengthAdjust="spacing" textLength="72" x="272.5" y="71.3145">AddPostItUi</text><rect fill="#E2E2F0" height="45.2813" rx="2.5" ry="2.5" style="stroke:#181818;stroke-width:0.5;" width="109" x="254" y="656.0859"/><text fill="#000000" font-family="sans-serif" font-size="14" font-style="italic" lengthAdjust="spacing" textLength="95" x="261" y="675.7598">&#171;presentation&#187;</text><text fill="#000000" font-family="sans-serif" font-size="14" lengthAdjust="spacing" textLength="72" x="272.5" y="691.4004">AddPostItUi</text><rect fill="#E2E2F0" height="45.2813" rx="2.5" ry="2.5" style="stroke:#181818;stroke-width:0.5;" width="136" x="397" y="36"/><text fill="#000000" font-family="sans-serif" font-size="14" font-style="italic" lengthAdjust="spacing" textLength="84" x="423" y="55.6738">&#171;application&#187;</text><text fill="#000000" font-family="sans-serif" font-size="14" lengthAdjust="spacing" textLength="122" x="404" y="71.3145">AddPostItController</text><rect fill="#E2E2F0" height="45.2813" rx="2.5" ry="2.5" style="stroke:#181818;stroke-width:0.5;" width="136" x="397" y="656.0859"/><text fill="#000000" font-family="sans-serif" font-size="14" font-style="italic" lengthAdjust="spacing" textLength="84" x="423" y="675.7598">&#171;application&#187;</text><text fill="#000000" font-family="sans-serif" font-size="14" lengthAdjust="spacing" textLength="122" x="404" y="691.4004">AddPostItController</text><rect fill="#E2E2F0" height="45.2813" rx="2.5" ry="2.5" style="stroke:#181818;stroke-width:0.5;" width="181" x="637.5" y="36"/><text fill="#000000" font-family="sans-serif" font-size="14" font-style="italic" lengthAdjust="spacing" textLength="84" x="686" y="55.6738">&#171;application&#187;</text><text fill="#000000" font-family="sans-serif" font-size="14" lengthAdjust="spacing" textLength="167" x="644.5" y="71.3145">BoardManagementService</text><rect fill="#E2E2F0" height="45.2813" rx="2.5" ry="2.5" style="stroke:#181818;stroke-width:0.5;" width="181" x="637.5" y="656.0859"/><text fill="#000000" font-family="sans-serif" font-size="14" font-style="italic" lengthAdjust="spacing" textLength="84" x="686" y="675.7598">&#171;application&#187;</text><text fill="#000000" font-family="sans-serif" font-size="14" lengthAdjust="spacing" textLength="167" x="644.5" y="691.4004">BoardManagementService</text><text fill="#000000" font-family="sans-serif" font-size="14" font-style="italic" lengthAdjust="spacing" textLength="79" x="873.5" y="63.6738">&#171;repository&#187;</text><text fill="#000000" font-family="sans-serif" font-size="14" lengthAdjust="spacing" textLength="103" x="861.5" y="79.3145">PostItRepository</text><path d="M898,15 C898,5 916,5 916,5 C916,5 934,5 934,15 L934,41 C934,51 916,51 916,51 C916,51 898,51 898,41 L898,15 " fill="#E2E2F0" style="stroke:#181818;stroke-width:1.5;"/><path d="M898,15 C898,25 916,25 916,25 C916,25 934,25 934,15 " fill="none" style="stroke:#181818;stroke-width:1.5;"/><text fill="#000000" font-family="sans-serif" font-size="14" font-style="italic" lengthAdjust="spacing" textLength="79" x="873.5" y="668.7598">&#171;repository&#187;</text><text fill="#000000" font-family="sans-serif" font-size="14" lengthAdjust="spacing" textLength="103" x="861.5" y="684.4004">PostItRepository</text><path d="M898,697.3672 C898,687.3672 916,687.3672 916,687.3672 C916,687.3672 934,687.3672 934,697.3672 L934,723.3672 C934,733.3672 916,733.3672 916,733.3672 C916,733.3672 898,733.3672 898,723.3672 L898,697.3672 " fill="#E2E2F0" style="stroke:#181818;stroke-width:1.5;"/><path d="M898,697.3672 C898,707.3672 916,707.3672 916,707.3672 C916,707.3672 934,707.3672 934,697.3672 " fill="none" style="stroke:#181818;stroke-width:1.5;"/><text fill="#000000" font-family="sans-serif" font-size="14" font-style="italic" lengthAdjust="spacing" textLength="79" x="994" y="63.6738">&#171;repository&#187;</text><text fill="#000000" font-family="sans-serif" font-size="14" lengthAdjust="spacing" textLength="106" x="980.5" y="79.3145">BoardRepository</text><path d="M1018.5,15 C1018.5,5 1036.5,5 1036.5,5 C1036.5,5 1054.5,5 1054.5,15 L1054.5,41 C1054.5,51 1036.5,51 1036.5,51 C1036.5,51 1018.5,51 1018.5,41 L1018.5,15 " fill="#E2E2F0" style="stroke:#181818;stroke-width:1.5;"/><path d="M1018.5,15 C1018.5,25 1036.5,25 1036.5,25 C1036.5,25 1054.5,25 1054.5,15 " fill="none" style="stroke:#181818;stroke-width:1.5;"/><text fill="#000000" font-family="sans-serif" font-size="14" font-style="italic" lengthAdjust="spacing" textLength="79" x="994" y="668.7598">&#171;repository&#187;</text><text fill="#000000" font-family="sans-serif" font-size="14" lengthAdjust="spacing" textLength="106" x="980.5" y="684.4004">BoardRepository</text><path d="M1018.5,697.3672 C1018.5,687.3672 1036.5,687.3672 1036.5,687.3672 C1036.5,687.3672 1054.5,687.3672 1054.5,697.3672 L1054.5,723.3672 C1054.5,733.3672 1036.5,733.3672 1036.5,733.3672 C1036.5,733.3672 1018.5,733.3672 1018.5,723.3672 L1018.5,697.3672 " fill="#E2E2F0" style="stroke:#181818;stroke-width:1.5;"/><path d="M1018.5,697.3672 C1018.5,707.3672 1036.5,707.3672 1036.5,707.3672 C1036.5,707.3672 1054.5,707.3672 1054.5,697.3672 " fill="none" style="stroke:#181818;stroke-width:1.5;"/><text fill="#000000" font-family="sans-serif" font-size="14" font-style="italic" lengthAdjust="spacing" textLength="79" x="1111.5" y="63.6738">&#171;repository&#187;</text><text fill="#000000" font-family="sans-serif" font-size="14" lengthAdjust="spacing" textLength="97" x="1102.5" y="79.3145">UserRepository</text><path d="M1136,15 C1136,5 1154,5 1154,5 C1154,5 1172,5 1172,15 L1172,41 C1172,51 1154,51 1154,51 C1154,51 1136,51 1136,41 L1136,15 " fill="#E2E2F0" style="stroke:#181818;stroke-width:1.5;"/><path d="M1136,15 C1136,25 1154,25 1154,25 C1154,25 1172,25 1172,15 " fill="none" style="stroke:#181818;stroke-width:1.5;"/><text fill="#000000" font-family="sans-serif" font-size="14" font-style="italic" lengthAdjust="spacing" textLength="79" x="1111.5" y="668.7598">&#171;repository&#187;</text><text fill="#000000" font-family="sans-serif" font-size="14" lengthAdjust="spacing" textLength="97" x="1102.5" y="684.4004">UserRepository</text><path d="M1136,697.3672 C1136,687.3672 1154,687.3672 1154,687.3672 C1154,687.3672 1172,687.3672 1172,697.3672 L1172,723.3672 C1172,733.3672 1154,733.3672 1154,733.3672 C1154,733.3672 1136,733.3672 1136,723.3672 L1136,697.3672 " fill="#E2E2F0" style="stroke:#181818;stroke-width:1.5;"/><path d="M1136,697.3672 C1136,707.3672 1154,707.3672 1154,707.3672 C1154,707.3672 1172,707.3672 1172,697.3672 " fill="none" style="stroke:#181818;stroke-width:1.5;"/><rect fill="#E2E2F0" height="45.2813" rx="2.5" ry="2.5" style="stroke:#181818;stroke-width:0.5;" width="76" x="1215.5" y="36"/><text fill="#000000" font-family="sans-serif" font-size="14" font-style="italic" lengthAdjust="spacing" textLength="62" x="1222.5" y="55.6738">&#171;domain&#187;</text><text fill="#000000" font-family="sans-serif" font-size="14" lengthAdjust="spacing" textLength="42" x="1232.5" y="71.3145">PostIts</text><rect fill="#E2E2F0" height="45.2813" rx="2.5" ry="2.5" style="stroke:#181818;stroke-width:0.5;" width="76" x="1215.5" y="656.0859"/><text fill="#000000" font-family="sans-serif" font-size="14" font-style="italic" lengthAdjust="spacing" textLength="62" x="1222.5" y="675.7598">&#171;domain&#187;</text><text fill="#000000" font-family="sans-serif" font-size="14" lengthAdjust="spacing" textLength="42" x="1232.5" y="691.4004">PostIts</text><polygon fill="#181818" points="77,94.2813,87,98.2813,77,102.2813,81,98.2813" style="stroke:#181818;stroke-width:1.0;"/><line style="stroke:#181818;stroke-width:1.0;stroke-dasharray:2.0,2.0;" x1="22.5" x2="83" y1="98.2813" y2="98.2813"/><polygon fill="#181818" points="190,122.8047,200,126.8047,190,130.8047,194,126.8047" style="stroke:#181818;stroke-width:1.0;"/><line style="stroke:#181818;stroke-width:1.0;" x1="89" x2="196" y1="126.8047" y2="126.8047"/><text fill="#000000" font-family="sans-serif" font-size="13" font-weight="bold" lengthAdjust="spacing" textLength="73" x="96" y="122.0498">Message 40</text><text fill="#000000" font-family="sans-serif" font-size="13" lengthAdjust="spacing" textLength="4" x="181" y="122.0498">&#160;</text><polygon fill="#181818" points="453,151.3281,463,155.3281,453,159.3281,457,155.3281" style="stroke:#181818;stroke-width:1.0;"/><line style="stroke:#181818;stroke-width:1.0;" x1="202" x2="459" y1="155.3281" y2="155.3281"/><text fill="#000000" font-family="sans-serif" font-size="13" lengthAdjust="spacing" textLength="138" x="209" y="150.5732">findBoardPresent(email)</text><polygon fill="#181818" points="1024.5,179.8516,1034.5,183.8516,1024.5,187.8516,1028.5,183.8516" style="stroke:#181818;stroke-width:1.0;"/><line style="stroke:#181818;stroke-width:1.0;" x1="465" x2="1030.5" y1="183.8516" y2="183.8516"/><text fill="#000000" font-family="sans-serif" font-size="13" lengthAdjust="spacing" textLength="169" x="472" y="179.0967">findBoardPresentWrite(email)</text><polygon fill="#181818" points="476,193.8516,466,197.8516,476,201.8516,472,197.8516" style="stroke:#181818;stroke-width:1.0;"/><line style="stroke:#181818;stroke-width:1.0;" x1="470" x2="1035.5" y1="197.8516" y2="197.8516"/><polygon fill="#181818" points="213,207.8516,203,211.8516,213,215.8516,209,211.8516" style="stroke:#181818;stroke-width:1.0;"/><line style="stroke:#181818;stroke-width:1.0;" x1="207" x2="464" y1="211.8516" y2="211.8516"/><polygon fill="#181818" points="100,221.8516,90,225.8516,100,229.8516,96,225.8516" style="stroke:#181818;stroke-width:1.0;"/><line style="stroke:#181818;stroke-width:1.0;" x1="94" x2="201" y1="225.8516" y2="225.8516"/><polygon fill="#181818" points="296.5,250.375,306.5,254.375,296.5,258.375,300.5,254.375" style="stroke:#181818;stroke-width:1.0;"/><line style="stroke:#181818;stroke-width:1.0;" x1="89" x2="302.5" y1="254.375" y2="254.375"/><text fill="#000000" font-family="sans-serif" font-size="13" lengthAdjust="spacing" textLength="80" x="96" y="249.6201">addPostIt(list)</text><polygon fill="#181818" points="100,264.375,90,268.375,100,272.375,96,268.375" style="stroke:#181818;stroke-width:1.0;"/><line style="stroke:#181818;stroke-width:1.0;" x1="94" x2="307.5" y1="268.375" y2="268.375"/><polygon fill="#181818" points="190,292.8984,200,296.8984,190,300.8984,194,296.8984" style="stroke:#181818;stroke-width:1.0;"/><line style="stroke:#181818;stroke-width:1.0;" x1="89" x2="196" y1="296.8984" y2="296.8984"/><text fill="#000000" font-family="sans-serif" font-size="13" font-weight="bold" lengthAdjust="spacing" textLength="73" x="96" y="292.1436">Message 41</text><text fill="#000000" font-family="sans-serif" font-size="13" lengthAdjust="spacing" textLength="4" x="181" y="292.1436">&#160;</text><polygon fill="#181818" points="453,321.4219,463,325.4219,453,329.4219,457,325.4219" style="stroke:#181818;stroke-width:1.0;"/><line style="stroke:#181818;stroke-width:1.0;" x1="202" x2="459" y1="325.4219" y2="325.4219"/><text fill="#000000" font-family="sans-serif" font-size="13" lengthAdjust="spacing" textLength="239" x="209" y="320.667">addPostIt(email,data,row,column,boardId)</text><polygon fill="#181818" points="716,349.9453,726,353.9453,716,357.9453,720,353.9453" style="stroke:#181818;stroke-width:1.0;"/><line style="stroke:#181818;stroke-width:1.0;" x1="465" x2="722" y1="353.9453" y2="353.9453"/><text fill="#000000" font-family="sans-serif" font-size="13" lengthAdjust="spacing" textLength="239" x="472" y="349.1904">addPostIt(email,data,row,column,boardId)</text><polygon fill="#181818" points="1142,378.4688,1152,382.4688,1142,386.4688,1146,382.4688" style="stroke:#181818;stroke-width:1.0;"/><line style="stroke:#181818;stroke-width:1.0;" x1="728" x2="1148" y1="382.4688" y2="382.4688"/><text fill="#000000" font-family="sans-serif" font-size="13" lengthAdjust="spacing" textLength="135" x="735" y="377.7139">findUserByEmail(email)</text><polygon fill="#181818" points="739,392.4688,729,396.4688,739,400.4688,735,396.4688" style="stroke:#181818;stroke-width:1.0;"/><line style="stroke:#181818;stroke-width:1.0;" x1="733" x2="1153" y1="396.4688" y2="396.4688"/><polygon fill="#181818" points="1024.5,420.9922,1034.5,424.9922,1024.5,428.9922,1028.5,424.9922" style="stroke:#181818;stroke-width:1.0;"/><line style="stroke:#181818;stroke-width:1.0;" x1="728" x2="1030.5" y1="424.9922" y2="424.9922"/><text fill="#000000" font-family="sans-serif" font-size="13" lengthAdjust="spacing" textLength="130" x="735" y="420.2373">findBoardById(boardId)</text><polygon fill="#181818" points="739,434.9922,729,438.9922,739,442.9922,735,438.9922" style="stroke:#181818;stroke-width:1.0;"/><line style="stroke:#181818;stroke-width:1.0;" x1="733" x2="1035.5" y1="438.9922" y2="438.9922"/><path d="M627.5,453.9922 L700.5,453.9922 L700.5,460.5156 L690.5,470.5156 L627.5,470.5156 L627.5,453.9922 " fill="#EEEEEE" style="stroke:#000000;stroke-width:1.5;"/><rect fill="none" height="59.0469" style="stroke:#000000;stroke-width:1.5;" width="353" x="627.5" y="453.9922"/><text fill="#000000" font-family="sans-serif" font-size="13" font-weight="bold" lengthAdjust="spacing" textLength="28" x="642.5" y="466.7607">loop</text><polygon fill="#181818" points="904,487.0391,914,491.0391,904,495.0391,908,491.0391" style="stroke:#181818;stroke-width:1.0;"/><line style="stroke:#181818;stroke-width:1.0;" x1="728" x2="910" y1="491.0391" y2="491.0391"/><text fill="#000000" font-family="sans-serif" font-size="13" lengthAdjust="spacing" textLength="164" x="735" y="486.2842">findPostItByBoardId(boardid)</text><polygon fill="#181818" points="739,501.0391,729,505.0391,739,509.0391,735,505.0391" style="stroke:#181818;stroke-width:1.0;"/><line style="stroke:#181818;stroke-width:1.0;" x1="733" x2="915" y1="505.0391" y2="505.0391"/><polygon fill="#181818" points="1241.5,536.5625,1251.5,540.5625,1241.5,544.5625,1245.5,540.5625" style="stroke:#181818;stroke-width:1.0;"/><line style="stroke:#181818;stroke-width:1.0;" x1="728" x2="1247.5" y1="540.5625" y2="540.5625"/><text fill="#000000" font-family="sans-serif" font-size="13" lengthAdjust="spacing" textLength="48" x="735" y="535.8076">create ()</text><polygon fill="#181818" points="904,565.0859,914,569.0859,904,573.0859,908,569.0859" style="stroke:#181818;stroke-width:1.0;"/><line style="stroke:#181818;stroke-width:1.0;" x1="728" x2="910" y1="569.0859" y2="569.0859"/><text fill="#000000" font-family="sans-serif" font-size="13" lengthAdjust="spacing" textLength="59" x="735" y="564.3311">save(post)</text><polygon fill="#181818" points="739,579.0859,729,583.0859,739,587.0859,735,583.0859" style="stroke:#181818;stroke-width:1.0;"/><line style="stroke:#181818;stroke-width:1.0;" x1="733" x2="915" y1="583.0859" y2="583.0859"/><polygon fill="#181818" points="476,593.0859,466,597.0859,476,601.0859,472,597.0859" style="stroke:#181818;stroke-width:1.0;"/><line style="stroke:#181818;stroke-width:1.0;" x1="470" x2="727" y1="597.0859" y2="597.0859"/><polygon fill="#181818" points="213,607.0859,203,611.0859,213,615.0859,209,611.0859" style="stroke:#181818;stroke-width:1.0;"/><line style="stroke:#181818;stroke-width:1.0;" x1="207" x2="464" y1="611.0859" y2="611.0859"/><polygon fill="#181818" points="100,621.0859,90,625.0859,100,629.0859,96,625.0859" style="stroke:#181818;stroke-width:1.0;"/><line style="stroke:#181818;stroke-width:1.0;" x1="94" x2="201" y1="625.0859" y2="625.0859"/><polygon fill="#181818" points="33.5,635.0859,23.5,639.0859,33.5,643.0859,29.5,639.0859" style="stroke:#181818;stroke-width:1.0;"/><line style="stroke:#181818;stroke-width:1.0;stroke-dasharray:2.0,2.0;" x1="27.5" x2="88" y1="639.0859" y2="639.0859"/><!--SRC=[hPHDQ-Cm48Rl_XM3Jmwaq8Kz1TTGXptaK32RDJsF9NKHgrX6ahFat- -CPAUEcq8FUxAjUP_vU4SOHR0EMgySe8UHdjc0BcYX1-m3_DetUwCLlL4qY66_ZXwLEoUMeiURQFuiPMDzE8HMvp6xBaiOdFAK3uEsFLJL9yJUzi5POvIBf0ZEG5dYC1Wj8hecQujElc2FlzM9qdDRMgW8-xFum4eCsA5NaATwFzLWlIOhBX5nzDaGvAx7DqmiTWUfFqVOuJj4koPkXagz-QWcJI2nj2VKF476kuA7Xogj1STW-_7KqTdtHyZBDp8GX3NMFNK6nP-gxAeNvJtv0uy0USOK9Fguf7sm0mUF78o-x-1DzpBEtAJb5OgQC9iiXacMPj-jPQzE1pLhasRAUILZzRbQ76JkQzHK6EVxK1ZjmoQZmti3V_lV0x_NZTrlUOzRP_zkgS1uwhSTJtcGxmxm7TjzcMBrP5ixsSltexxyO6xfM3ibNoBrSYFrvI2BQ-AhoOmOIuCjk6RYKe_rfKvKelL4DpEjUZd3yUhjG3Y5GK6nMIVrU5O5YrOf9jcN5iuRvv_FFm00]--></g></svg>