<?xml version="1.0" encoding="UTF-8" standalone="no"?><svg xmlns="http://www.w3.org/2000/svg" xmlns:xlink="http://www.w3.org/1999/xlink" contentStyleType="text/css" height="498px" preserveAspectRatio="none" style="width:345px;height:498px;background:#FFFFFF;" version="1.1" viewBox="0 0 345 498" width="345px" zoomAndPan="magnify"><defs/><g><!--MD5=[0497b3d9576bcdabd30d7bd51ed3bd32]
class AddQuestionsUI--><g id="elem_AddQuestionsUI"><rect codeLine="1" fill="#F1F1F1" height="76.3125" id="AddQuestionsUI" rx="2.5" ry="2.5" style="stroke:#181818;stroke-width:0.5;" width="133" x="76" y="7"/><ellipse cx="91" cy="28.3516" fill="#ADD1B2" rx="11" ry="11" style="stroke:#181818;stroke-width:1.0;"/><path d="M93,24.8516 Q93.2031,24.3516 93.4375,24.1016 Q93.6719,23.8516 93.9375,23.8516 Q94.4063,23.8516 94.7031,24.1328 Q95,24.4141 95,25.0703 L95,26.6328 Q95,27.2891 94.7188,27.5703 Q94.4375,27.8516 94,27.8516 Q93.6094,27.8516 93.3594,27.6797 Q93.1094,27.5078 93,27.0547 Q92.9531,26.7422 92.7813,26.5703 Q92.4688,26.2422 91.9063,26.0547 Q91.3438,25.8516 90.7813,25.8516 Q90.0781,25.8516 89.4844,26.1328 Q88.9063,26.4141 88.4531,27.0391 Q88,27.6641 88,28.5234 L88,29.4453 Q88,30.4766 88.8438,31.1641 Q89.6875,31.8516 91.1875,31.8516 Q92.0781,31.8516 92.7031,31.6484 Q93.0625,31.5391 93.4688,31.1797 Q93.7344,30.9766 93.875,30.9141 Q94.0156,30.8516 94.1875,30.8516 Q94.5156,30.8516 94.75,31.1172 Q95,31.3672 95,31.7266 Q95,32.0703 94.6563,32.4766 Q94.1563,33.0703 93.3594,33.3984 Q92.3125,33.8516 91.0313,33.8516 Q89.5313,33.8516 88.3281,33.2578 Q87.3594,32.7891 86.6719,31.7734 Q86,30.7578 86,29.5547 L86,28.4609 Q86,27.2109 86.5938,26.1172 Q87.2031,25.0234 88.25,24.4453 Q89.3125,23.8516 90.5,23.8516 Q91.2188,23.8516 91.8438,24.1016 Q92.4688,24.3516 93,24.8516 Z " fill="#000000"/><text fill="#000000" font-family="sans-serif" font-size="12" font-style="italic" lengthAdjust="spacing" textLength="82" x="114.5" y="24.457">«presentation»</text><text fill="#000000" font-family="sans-serif" font-size="14" lengthAdjust="spacing" textLength="101" x="105" y="41.627">AddQuestionsUI</text><line style="stroke:#181818;stroke-width:0.5;" x1="77" x2="208" y1="49.7031" y2="49.7031"/><line style="stroke:#181818;stroke-width:0.5;" x1="77" x2="208" y1="57.7031" y2="57.7031"/><ellipse cx="87" cy="72.0078" fill="#84BE84" rx="3" ry="3" style="stroke:#038048;stroke-width:1.0;"/><text fill="#000000" font-family="sans-serif" font-size="14" lengthAdjust="spacing" textLength="60" x="96" y="76.2363">doShow()</text></g><!--MD5=[29013b01f80ece3194acec8874b64d24]
class AddQuestionsController--><g id="elem_AddQuestionsController"><rect codeLine="5" fill="#F1F1F1" height="76.3125" id="AddQuestionsController" rx="2.5" ry="2.5" style="stroke:#181818;stroke-width:0.5;" width="207" x="39" y="143"/><ellipse cx="64.8" cy="164.3516" fill="#ADD1B2" rx="11" ry="11" style="stroke:#181818;stroke-width:1.0;"/><path d="M66.8,160.8516 Q67.0031,160.3516 67.2375,160.1016 Q67.4719,159.8516 67.7375,159.8516 Q68.2063,159.8516 68.5031,160.1328 Q68.8,160.4141 68.8,161.0703 L68.8,162.6328 Q68.8,163.2891 68.5188,163.5703 Q68.2375,163.8516 67.8,163.8516 Q67.4094,163.8516 67.1594,163.6797 Q66.9094,163.5078 66.8,163.0547 Q66.7531,162.7422 66.5813,162.5703 Q66.2688,162.2422 65.7063,162.0547 Q65.1438,161.8516 64.5813,161.8516 Q63.8781,161.8516 63.2844,162.1328 Q62.7063,162.4141 62.2531,163.0391 Q61.8,163.6641 61.8,164.5234 L61.8,165.4453 Q61.8,166.4766 62.6438,167.1641 Q63.4875,167.8516 64.9875,167.8516 Q65.8781,167.8516 66.5031,167.6484 Q66.8625,167.5391 67.2688,167.1797 Q67.5344,166.9766 67.675,166.9141 Q67.8156,166.8516 67.9875,166.8516 Q68.3156,166.8516 68.55,167.1172 Q68.8,167.3672 68.8,167.7266 Q68.8,168.0703 68.4563,168.4766 Q67.9563,169.0703 67.1594,169.3984 Q66.1125,169.8516 64.8313,169.8516 Q63.3313,169.8516 62.1281,169.2578 Q61.1594,168.7891 60.4719,167.7734 Q59.8,166.7578 59.8,165.5547 L59.8,164.4609 Q59.8,163.2109 60.3938,162.1172 Q61.0031,161.0234 62.05,160.4453 Q63.1125,159.8516 64.3,159.8516 Q65.0188,159.8516 65.6438,160.1016 Q66.2688,160.3516 66.8,160.8516 Z " fill="#000000"/><text fill="#000000" font-family="sans-serif" font-size="12" font-style="italic" lengthAdjust="spacing" textLength="74" x="119.7" y="160.457">«application»</text><text fill="#000000" font-family="sans-serif" font-size="14" lengthAdjust="spacing" textLength="151" x="81.2" y="177.627">AddQuestionsController</text><line style="stroke:#181818;stroke-width:0.5;" x1="40" x2="245" y1="185.7031" y2="185.7031"/><line style="stroke:#181818;stroke-width:0.5;" x1="40" x2="245" y1="193.7031" y2="193.7031"/><ellipse cx="50" cy="208.0078" fill="#84BE84" rx="3" ry="3" style="stroke:#038048;stroke-width:1.0;"/><text fill="#000000" font-family="sans-serif" font-size="14" lengthAdjust="spacing" textLength="181" x="59" y="212.2363">addQuestions(teacher input)</text></g><!--MD5=[a710722c09c1d835475b17f5cf71a216]
class AddQuestionsService--><g id="elem_AddQuestionsService"><rect codeLine="9" fill="#F1F1F1" height="76.3125" id="AddQuestionsService" rx="2.5" ry="2.5" style="stroke:#181818;stroke-width:0.5;" width="207" x="39" y="279"/><ellipse cx="71.55" cy="300.3516" fill="#ADD1B2" rx="11" ry="11" style="stroke:#181818;stroke-width:1.0;"/><path d="M73.55,296.8516 Q73.7531,296.3516 73.9875,296.1016 Q74.2219,295.8516 74.4875,295.8516 Q74.9563,295.8516 75.2531,296.1328 Q75.55,296.4141 75.55,297.0703 L75.55,298.6328 Q75.55,299.2891 75.2688,299.5703 Q74.9875,299.8516 74.55,299.8516 Q74.1594,299.8516 73.9094,299.6797 Q73.6594,299.5078 73.55,299.0547 Q73.5031,298.7422 73.3313,298.5703 Q73.0188,298.2422 72.4563,298.0547 Q71.8938,297.8516 71.3313,297.8516 Q70.6281,297.8516 70.0344,298.1328 Q69.4563,298.4141 69.0031,299.0391 Q68.55,299.6641 68.55,300.5234 L68.55,301.4453 Q68.55,302.4766 69.3938,303.1641 Q70.2375,303.8516 71.7375,303.8516 Q72.6281,303.8516 73.2531,303.6484 Q73.6125,303.5391 74.0188,303.1797 Q74.2844,302.9766 74.425,302.9141 Q74.5656,302.8516 74.7375,302.8516 Q75.0656,302.8516 75.3,303.1172 Q75.55,303.3672 75.55,303.7266 Q75.55,304.0703 75.2063,304.4766 Q74.7063,305.0703 73.9094,305.3984 Q72.8625,305.8516 71.5813,305.8516 Q70.0813,305.8516 68.8781,305.2578 Q67.9094,304.7891 67.2219,303.7734 Q66.55,302.7578 66.55,301.5547 L66.55,300.4609 Q66.55,299.2109 67.1438,298.1172 Q67.7531,297.0234 68.8,296.4453 Q69.8625,295.8516 71.05,295.8516 Q71.7688,295.8516 72.3938,296.1016 Q73.0188,296.3516 73.55,296.8516 Z " fill="#000000"/><text fill="#000000" font-family="sans-serif" font-size="12" font-style="italic" lengthAdjust="spacing" textLength="74" x="120.45" y="296.457">«application»</text><text fill="#000000" font-family="sans-serif" font-size="14" lengthAdjust="spacing" textLength="136" x="89.45" y="313.627">AddQuestionsService</text><line style="stroke:#181818;stroke-width:0.5;" x1="40" x2="245" y1="321.7031" y2="321.7031"/><line style="stroke:#181818;stroke-width:0.5;" x1="40" x2="245" y1="329.7031" y2="329.7031"/><ellipse cx="50" cy="344.0078" fill="#84BE84" rx="3" ry="3" style="stroke:#038048;stroke-width:1.0;"/><text fill="#000000" font-family="sans-serif" font-size="14" lengthAdjust="spacing" textLength="181" x="59" y="348.2363">addQuestions(teacher input)</text></g><!--MD5=[fc7123defb831ecdd44b2d9bcef6cceb]
class Question--><g id="elem_Question"><rect codeLine="13" fill="#F1F1F1" height="58.7031" id="Question" rx="2.5" ry="2.5" style="stroke:#181818;stroke-width:0.5;" width="89" x="7" y="423.5"/><ellipse cx="22" cy="444.8516" fill="#ADD1B2" rx="11" ry="11" style="stroke:#181818;stroke-width:1.0;"/><path d="M24,441.3516 Q24.2031,440.8516 24.4375,440.6016 Q24.6719,440.3516 24.9375,440.3516 Q25.4063,440.3516 25.7031,440.6328 Q26,440.9141 26,441.5703 L26,443.1328 Q26,443.7891 25.7188,444.0703 Q25.4375,444.3516 25,444.3516 Q24.6094,444.3516 24.3594,444.1797 Q24.1094,444.0078 24,443.5547 Q23.9531,443.2422 23.7813,443.0703 Q23.4688,442.7422 22.9063,442.5547 Q22.3438,442.3516 21.7813,442.3516 Q21.0781,442.3516 20.4844,442.6328 Q19.9063,442.9141 19.4531,443.5391 Q19,444.1641 19,445.0234 L19,445.9453 Q19,446.9766 19.8438,447.6641 Q20.6875,448.3516 22.1875,448.3516 Q23.0781,448.3516 23.7031,448.1484 Q24.0625,448.0391 24.4688,447.6797 Q24.7344,447.4766 24.875,447.4141 Q25.0156,447.3516 25.1875,447.3516 Q25.5156,447.3516 25.75,447.6172 Q26,447.8672 26,448.2266 Q26,448.5703 25.6563,448.9766 Q25.1563,449.5703 24.3594,449.8984 Q23.3125,450.3516 22.0313,450.3516 Q20.5313,450.3516 19.3281,449.7578 Q18.3594,449.2891 17.6719,448.2734 Q17,447.2578 17,446.0547 L17,444.9609 Q17,443.7109 17.5938,442.6172 Q18.2031,441.5234 19.25,440.9453 Q20.3125,440.3516 21.5,440.3516 Q22.2188,440.3516 22.8438,440.6016 Q23.4688,440.8516 24,441.3516 Z " fill="#000000"/><text fill="#000000" font-family="sans-serif" font-size="12" font-style="italic" lengthAdjust="spacing" textLength="56" x="36.5" y="440.957">«domain»</text><text fill="#000000" font-family="sans-serif" font-size="14" lengthAdjust="spacing" textLength="57" x="36" y="458.127">Question</text><line style="stroke:#181818;stroke-width:0.5;" x1="8" x2="95" y1="466.2031" y2="466.2031"/><line style="stroke:#181818;stroke-width:0.5;" x1="8" x2="95" y1="474.2031" y2="474.2031"/></g><!--MD5=[5827badb0a9de8dc241b9962ade803a2]
class QuestionsRepository--><g id="elem_QuestionsRepository"><rect codeLine="17" fill="#F1F1F1" height="76.3125" id="QuestionsRepository" rx="2.5" ry="2.5" style="stroke:#181818;stroke-width:0.5;" width="207" x="131" y="415"/><ellipse cx="165.35" cy="436.3516" fill="#ADD1B2" rx="11" ry="11" style="stroke:#181818;stroke-width:1.0;"/><path d="M167.35,432.8516 Q167.5531,432.3516 167.7875,432.1016 Q168.0219,431.8516 168.2875,431.8516 Q168.7563,431.8516 169.0531,432.1328 Q169.35,432.4141 169.35,433.0703 L169.35,434.6328 Q169.35,435.2891 169.0688,435.5703 Q168.7875,435.8516 168.35,435.8516 Q167.9594,435.8516 167.7094,435.6797 Q167.4594,435.5078 167.35,435.0547 Q167.3031,434.7422 167.1313,434.5703 Q166.8188,434.2422 166.2563,434.0547 Q165.6938,433.8516 165.1313,433.8516 Q164.4281,433.8516 163.8344,434.1328 Q163.2563,434.4141 162.8031,435.0391 Q162.35,435.6641 162.35,436.5234 L162.35,437.4453 Q162.35,438.4766 163.1938,439.1641 Q164.0375,439.8516 165.5375,439.8516 Q166.4281,439.8516 167.0531,439.6484 Q167.4125,439.5391 167.8188,439.1797 Q168.0844,438.9766 168.225,438.9141 Q168.3656,438.8516 168.5375,438.8516 Q168.8656,438.8516 169.1,439.1172 Q169.35,439.3672 169.35,439.7266 Q169.35,440.0703 169.0063,440.4766 Q168.5063,441.0703 167.7094,441.3984 Q166.6625,441.8516 165.3813,441.8516 Q163.8813,441.8516 162.6781,441.2578 Q161.7094,440.7891 161.0219,439.7734 Q160.35,438.7578 160.35,437.5547 L160.35,436.4609 Q160.35,435.2109 160.9438,434.1172 Q161.5531,433.0234 162.6,432.4453 Q163.6625,431.8516 164.85,431.8516 Q165.5688,431.8516 166.1938,432.1016 Q166.8188,432.3516 167.35,432.8516 Z " fill="#000000"/><text fill="#000000" font-family="sans-serif" font-size="12" font-style="italic" lengthAdjust="spacing" textLength="68" x="215.65" y="432.457">«repository»</text><text fill="#000000" font-family="sans-serif" font-size="14" lengthAdjust="spacing" textLength="132" x="183.65" y="449.627">QuestionsRepository</text><line style="stroke:#181818;stroke-width:0.5;" x1="132" x2="337" y1="457.7031" y2="457.7031"/><line style="stroke:#181818;stroke-width:0.5;" x1="132" x2="337" y1="465.7031" y2="465.7031"/><ellipse cx="142" cy="480.0078" fill="#84BE84" rx="3" ry="3" style="stroke:#038048;stroke-width:1.0;"/><text fill="#000000" font-family="sans-serif" font-size="14" lengthAdjust="spacing" textLength="181" x="151" y="484.2363">addQuestions(teacher input)</text></g><!--MD5=[92a8f150ef39f704436816b3f6891188]
link AddQuestionsUI to AddQuestionsController--><g id="link_AddQuestionsUI_AddQuestionsController"><path codeLine="22" d="M142.5,83.33 C142.5,100.17 142.5,120.15 142.5,137.56 " fill="none" id="AddQuestionsUI-to-AddQuestionsController" style="stroke:#181818;stroke-width:1.0;"/><polygon fill="#181818" points="142.5,142.87,146.5,133.87,142.5,137.87,138.5,133.87,142.5,142.87" style="stroke:#181818;stroke-width:1.0;"/></g><!--MD5=[c78b600423b0ae3abac53d10056653fa]
link AddQuestionsController to AddQuestionsService--><g id="link_AddQuestionsController_AddQuestionsService"><path codeLine="23" d="M142.5,219.33 C142.5,236.17 142.5,256.15 142.5,273.56 " fill="none" id="AddQuestionsController-to-AddQuestionsService" style="stroke:#181818;stroke-width:1.0;"/><polygon fill="#181818" points="142.5,278.87,146.5,269.87,142.5,273.87,138.5,269.87,142.5,278.87" style="stroke:#181818;stroke-width:1.0;"/></g><!--MD5=[a1f4b4debdf265bfb44f7f367e510799]
link AddQuestionsService to Question--><g id="link_AddQuestionsService_Question"><path codeLine="24" d="M117.15,355.33 C103.56,375.34 86.96,399.78 73.85,419.08 " fill="none" id="AddQuestionsService-to-Question" style="stroke:#181818;stroke-width:1.0;"/><polygon fill="#181818" points="70.94,423.37,79.306,418.173,73.7496,419.234,72.6885,413.6776,70.94,423.37" style="stroke:#181818;stroke-width:1.0;"/></g><!--MD5=[77f6f85cfe547fab7f20c939eb691700]
link AddQuestionsService to QuestionsRepository--><g id="link_AddQuestionsService_QuestionsRepository"><path codeLine="25" d="M168.13,355.33 C179.89,372.46 193.88,392.84 205.98,410.46 " fill="none" id="AddQuestionsService-to-QuestionsRepository" style="stroke:#181818;stroke-width:1.0;"/><polygon fill="#181818" points="209.01,414.87,207.2074,405.1875,206.1774,410.7498,200.6151,409.7197,209.01,414.87" style="stroke:#181818;stroke-width:1.0;"/></g><!--MD5=[43dc962d432504737a4c02a8a475f32f]
@startuml
class AddQuestionsUI <<presentation>>{
+doShow()
}

class AddQuestionsController <<application>> {
+addQuestions(teacher input)
}

class AddQuestionsService <<application>> {
+addQuestions(teacher input)
}

class Question <<domain>> {

}

class QuestionsRepository <<repository>> {
+addQuestions(teacher input)

}

AddQuestionsUI - -> AddQuestionsController
AddQuestionsController - -> AddQuestionsService
AddQuestionsService - -> Question
AddQuestionsService - -> QuestionsRepository


@enduml

PlantUML version 1.2022.12(Sun Oct 23 19:12:26 BST 2022)
(GPL source distribution)
Java Runtime: OpenJDK Runtime Environment
JVM: OpenJDK 64-Bit Server VM
Default Encoding: Cp1252
Language: pt
Country: PT
--></g></svg>