<?xml version="1.0" encoding="UTF-8" standalone="no"?><svg xmlns="http://www.w3.org/2000/svg" xmlns:xlink="http://www.w3.org/1999/xlink" contentStyleType="text/css" height="531px" preserveAspectRatio="none" style="width:1193px;height:531px;background:#FFFFFF;" version="1.1" viewBox="0 0 1193 531" width="1193px" zoomAndPan="magnify"><defs/><g><rect fill="#FFFFFF" height="347.8672" style="stroke:#181818;stroke-width:1.0;" width="10" x="29.5" y="92.6094"/><rect fill="#FFFFFF" height="316.5156" style="stroke:#181818;stroke-width:1.0;" width="10" x="306.5" y="114.9609"/><rect fill="#FFFFFF" height="212.4609" style="stroke:#181818;stroke-width:1.0;" width="10" x="656.5" y="188.6641"/><rect fill="#FFFFFF" height="151.7578" style="stroke:#181818;stroke-width:1.0;" width="10" x="926.5" y="219.0156"/><rect fill="#FFFFFF" height="60.7031" style="stroke:#181818;stroke-width:1.0;" width="10" x="1116.5" y="279.7188"/><line style="stroke:#181818;stroke-width:0.5;stroke-dasharray:5.0,5.0;" x1="34" x2="34" y1="82.6094" y2="449.4766"/><line style="stroke:#181818;stroke-width:0.5;stroke-dasharray:5.0,5.0;" x1="311" x2="311" y1="82.6094" y2="449.4766"/><line style="stroke:#181818;stroke-width:0.5;stroke-dasharray:5.0,5.0;" x1="661" x2="661" y1="82.6094" y2="449.4766"/><line style="stroke:#181818;stroke-width:0.5;stroke-dasharray:5.0,5.0;" x1="931.5" x2="931.5" y1="82.6094" y2="449.4766"/><line style="stroke:#181818;stroke-width:0.5;stroke-dasharray:5.0,5.0;" x1="1121.5" x2="1121.5" y1="82.6094" y2="449.4766"/><text fill="#000000" font-family="sans-serif" font-size="14" lengthAdjust="spacing" textLength="53" x="5" y="79.5332">Teacher</text><ellipse cx="34.5" cy="13.5" fill="#E2E2F0" rx="8" ry="8" style="stroke:#181818;stroke-width:0.5;"/><path d="M34.5,21.5 L34.5,48.5 M21.5,29.5 L47.5,29.5 M34.5,48.5 L21.5,63.5 M34.5,48.5 L47.5,63.5 " fill="none" style="stroke:#181818;stroke-width:0.5;"/><text fill="#000000" font-family="sans-serif" font-size="14" lengthAdjust="spacing" textLength="53" x="5" y="463.0098">Teacher</text><ellipse cx="34.5" cy="474.5859" fill="#E2E2F0" rx="8" ry="8" style="stroke:#181818;stroke-width:0.5;"/><path d="M34.5,482.5859 L34.5,509.5859 M21.5,490.5859 L47.5,490.5859 M34.5,509.5859 L21.5,524.5859 M34.5,509.5859 L47.5,524.5859 " fill="none" style="stroke:#181818;stroke-width:0.5;"/><rect fill="#E2E2F0" height="31.6094" rx="2.5" ry="2.5" style="stroke:#181818;stroke-width:0.5;" width="119" x="252" y="50"/><text fill="#000000" font-family="sans-serif" font-size="14" lengthAdjust="spacing" textLength="105" x="259" y="71.5332">:AddQuestionsUI</text><rect fill="#E2E2F0" height="31.6094" rx="2.5" ry="2.5" style="stroke:#181818;stroke-width:0.5;" width="119" x="252" y="448.4766"/><text fill="#000000" font-family="sans-serif" font-size="14" lengthAdjust="spacing" textLength="105" x="259" y="470.0098">:AddQuestionsUI</text><rect fill="#E2E2F0" height="31.6094" rx="2.5" ry="2.5" style="stroke:#181818;stroke-width:0.5;" width="169" x="577" y="50"/><text fill="#000000" font-family="sans-serif" font-size="14" lengthAdjust="spacing" textLength="155" x="584" y="71.5332">:AddQuestionsController</text><rect fill="#E2E2F0" height="31.6094" rx="2.5" ry="2.5" style="stroke:#181818;stroke-width:0.5;" width="169" x="577" y="448.4766"/><text fill="#000000" font-family="sans-serif" font-size="14" lengthAdjust="spacing" textLength="155" x="584" y="470.0098">:AddQuestionsController</text><rect fill="#E2E2F0" height="31.6094" rx="2.5" ry="2.5" style="stroke:#181818;stroke-width:0.5;" width="154" x="854.5" y="50"/><text fill="#000000" font-family="sans-serif" font-size="14" lengthAdjust="spacing" textLength="140" x="861.5" y="71.5332">:AddQuestionsService</text><rect fill="#E2E2F0" height="31.6094" rx="2.5" ry="2.5" style="stroke:#181818;stroke-width:0.5;" width="154" x="854.5" y="448.4766"/><text fill="#000000" font-family="sans-serif" font-size="14" lengthAdjust="spacing" textLength="140" x="861.5" y="470.0098">:AddQuestionsService</text><text fill="#000000" font-family="sans-serif" font-size="14" lengthAdjust="spacing" textLength="136" x="1050.5" y="79.5332">:QuestionsRepository</text><path d="M1103.5,29 C1103.5,19 1121.5,19 1121.5,19 C1121.5,19 1139.5,19 1139.5,29 L1139.5,55 C1139.5,65 1121.5,65 1121.5,65 C1121.5,65 1103.5,65 1103.5,55 L1103.5,29 " fill="#E2E2F0" style="stroke:#181818;stroke-width:1.5;"/><path d="M1103.5,29 C1103.5,39 1121.5,39 1121.5,39 C1121.5,39 1139.5,39 1139.5,29 " fill="none" style="stroke:#181818;stroke-width:1.5;"/><text fill="#000000" font-family="sans-serif" font-size="14" lengthAdjust="spacing" textLength="136" x="1050.5" y="463.0098">:QuestionsRepository</text><path d="M1103.5,476.0859 C1103.5,466.0859 1121.5,466.0859 1121.5,466.0859 C1121.5,466.0859 1139.5,466.0859 1139.5,476.0859 L1139.5,502.0859 C1139.5,512.0859 1121.5,512.0859 1121.5,512.0859 C1121.5,512.0859 1103.5,512.0859 1103.5,502.0859 L1103.5,476.0859 " fill="#E2E2F0" style="stroke:#181818;stroke-width:1.5;"/><path d="M1103.5,476.0859 C1103.5,486.0859 1121.5,486.0859 1121.5,486.0859 C1121.5,486.0859 1139.5,486.0859 1139.5,476.0859 " fill="none" style="stroke:#181818;stroke-width:1.5;"/><rect fill="#FFFFFF" height="347.8672" style="stroke:#181818;stroke-width:1.0;" width="10" x="29.5" y="92.6094"/><rect fill="#FFFFFF" height="316.5156" style="stroke:#181818;stroke-width:1.0;" width="10" x="306.5" y="114.9609"/><rect fill="#FFFFFF" height="212.4609" style="stroke:#181818;stroke-width:1.0;" width="10" x="656.5" y="188.6641"/><rect fill="#FFFFFF" height="151.7578" style="stroke:#181818;stroke-width:1.0;" width="10" x="926.5" y="219.0156"/><rect fill="#FFFFFF" height="60.7031" style="stroke:#181818;stroke-width:1.0;" width="10" x="1116.5" y="279.7188"/><polygon fill="#181818" points="294.5,110.9609,304.5,114.9609,294.5,118.9609,298.5,114.9609" style="stroke:#181818;stroke-width:1.0;"/><line style="stroke:#181818;stroke-width:1.0;" x1="39.5" x2="300.5" y1="114.9609" y2="114.9609"/><text fill="#000000" font-family="sans-serif" font-size="13" font-weight="bold" lengthAdjust="spacing" textLength="7" x="46.5" y="110.1045">1</text><text fill="#000000" font-family="sans-serif" font-size="13" lengthAdjust="spacing" textLength="38" x="57.5" y="110.1045">show()</text><line style="stroke:#181818;stroke-width:1.0;" x1="316.5" x2="358.5" y1="145.3125" y2="145.3125"/><line style="stroke:#181818;stroke-width:1.0;" x1="358.5" x2="358.5" y1="145.3125" y2="158.3125"/><line style="stroke:#181818;stroke-width:1.0;" x1="317.5" x2="358.5" y1="158.3125" y2="158.3125"/><polygon fill="#181818" points="327.5,154.3125,317.5,158.3125,327.5,162.3125,323.5,158.3125" style="stroke:#181818;stroke-width:1.0;"/><text fill="#000000" font-family="sans-serif" font-size="13" font-weight="bold" lengthAdjust="spacing" textLength="7" x="323.5" y="140.4561">2</text><text fill="#000000" font-family="sans-serif" font-size="13" lengthAdjust="spacing" textLength="54" x="334.5" y="140.4561">doShow()</text><polygon fill="#181818" points="644.5,184.6641,654.5,188.6641,644.5,192.6641,648.5,188.6641" style="stroke:#181818;stroke-width:1.0;"/><line style="stroke:#181818;stroke-width:1.0;" x1="316.5" x2="650.5" y1="188.6641" y2="188.6641"/><text fill="#000000" font-family="sans-serif" font-size="13" font-weight="bold" lengthAdjust="spacing" textLength="7" x="323.5" y="183.8076">3</text><text fill="#000000" font-family="sans-serif" font-size="13" lengthAdjust="spacing" textLength="145" x="334.5" y="183.8076">addQuestions(user input)</text><polygon fill="#181818" points="914.5,215.0156,924.5,219.0156,914.5,223.0156,918.5,219.0156" style="stroke:#181818;stroke-width:1.0;"/><line style="stroke:#181818;stroke-width:1.0;" x1="666.5" x2="920.5" y1="219.0156" y2="219.0156"/><text fill="#000000" font-family="sans-serif" font-size="13" font-weight="bold" lengthAdjust="spacing" textLength="7" x="673.5" y="214.1592">4</text><text fill="#000000" font-family="sans-serif" font-size="13" lengthAdjust="spacing" textLength="44" x="684.5" y="214.1592">create()</text><polygon fill="#181818" points="914.5,245.3672,924.5,249.3672,914.5,253.3672,918.5,249.3672" style="stroke:#181818;stroke-width:1.0;"/><line style="stroke:#181818;stroke-width:1.0;" x1="666.5" x2="920.5" y1="249.3672" y2="249.3672"/><text fill="#000000" font-family="sans-serif" font-size="13" font-weight="bold" lengthAdjust="spacing" textLength="7" x="673.5" y="244.5107">5</text><text fill="#000000" font-family="sans-serif" font-size="13" lengthAdjust="spacing" textLength="145" x="684.5" y="244.5107">addQuestions(user input)</text><polygon fill="#181818" points="1104.5,275.7188,1114.5,279.7188,1104.5,283.7188,1108.5,279.7188" style="stroke:#181818;stroke-width:1.0;"/><line style="stroke:#181818;stroke-width:1.0;" x1="936.5" x2="1110.5" y1="279.7188" y2="279.7188"/><text fill="#000000" font-family="sans-serif" font-size="13" font-weight="bold" lengthAdjust="spacing" textLength="7" x="943.5" y="274.8623">6</text><text fill="#000000" font-family="sans-serif" font-size="13" lengthAdjust="spacing" textLength="44" x="954.5" y="274.8623">create()</text><polygon fill="#181818" points="1104.5,306.0703,1114.5,310.0703,1104.5,314.0703,1108.5,310.0703" style="stroke:#181818;stroke-width:1.0;"/><line style="stroke:#181818;stroke-width:1.0;" x1="936.5" x2="1110.5" y1="310.0703" y2="310.0703"/><text fill="#000000" font-family="sans-serif" font-size="13" font-weight="bold" lengthAdjust="spacing" textLength="7" x="943.5" y="305.2139">7</text><text fill="#000000" font-family="sans-serif" font-size="13" lengthAdjust="spacing" textLength="145" x="954.5" y="305.2139">addQuestions(user input)</text><polygon fill="#181818" points="1109.5,336.4219,1119.5,340.4219,1109.5,344.4219,1113.5,340.4219" style="stroke:#181818;stroke-width:1.0;"/><line style="stroke:#181818;stroke-width:1.0;" x1="936.5" x2="1115.5" y1="340.4219" y2="340.4219"/><text fill="#000000" font-family="sans-serif" font-size="13" font-weight="bold" lengthAdjust="spacing" textLength="7" x="943.5" y="335.5654">8</text><text fill="#000000" font-family="sans-serif" font-size="13" lengthAdjust="spacing" textLength="91" x="954.5" y="335.5654">save(user input)</text><polygon fill="#181818" points="677.5,366.7734,667.5,370.7734,677.5,374.7734,673.5,370.7734" style="stroke:#181818;stroke-width:1.0;"/><line style="stroke:#181818;stroke-width:1.0;stroke-dasharray:2.0,2.0;" x1="671.5" x2="930.5" y1="370.7734" y2="370.7734"/><text fill="#000000" font-family="sans-serif" font-size="13" font-weight="bold" lengthAdjust="spacing" textLength="7" x="683.5" y="365.917">9</text><text fill="#000000" font-family="sans-serif" font-size="13" lengthAdjust="spacing" textLength="225" x="694.5" y="365.917">return operation success or in-success</text><polygon fill="#181818" points="327.5,397.125,317.5,401.125,327.5,405.125,323.5,401.125" style="stroke:#181818;stroke-width:1.0;"/><line style="stroke:#181818;stroke-width:1.0;stroke-dasharray:2.0,2.0;" x1="321.5" x2="660.5" y1="401.125" y2="401.125"/><text fill="#000000" font-family="sans-serif" font-size="13" font-weight="bold" lengthAdjust="spacing" textLength="14" x="333.5" y="396.2686">10</text><text fill="#000000" font-family="sans-serif" font-size="13" lengthAdjust="spacing" textLength="298" x="351.5" y="396.2686">srvc --&gt; ctrl: return operation success or in-success</text><polygon fill="#181818" points="50.5,427.4766,40.5,431.4766,50.5,435.4766,46.5,431.4766" style="stroke:#181818;stroke-width:1.0;"/><line style="stroke:#181818;stroke-width:1.0;stroke-dasharray:2.0,2.0;" x1="44.5" x2="310.5" y1="431.4766" y2="431.4766"/><text fill="#000000" font-family="sans-serif" font-size="13" font-weight="bold" lengthAdjust="spacing" textLength="14" x="56.5" y="426.6201">11</text><text fill="#000000" font-family="sans-serif" font-size="13" lengthAdjust="spacing" textLength="225" x="74.5" y="426.6201">return operation success or in-success</text><!--MD5=[cfa42bfa4574186aa8e81e44ecdae067]
@startuml
autonumber
'hide footbox
actor "Teacher" as teacher

participant ":AddQuestionsUI" as ui
participant ":AddQuestionsController" as ctrl
participant ":AddQuestionsService" as srvc

database ":QuestionsRepository" as repo

activate teacher

teacher -> ui: show()
activate ui

ui -> ui: doShow()



ui -> ctrl : addQuestions(user input)
activate ctrl

ctrl -> srvc: create()
activate srvc

ctrl -> srvc: addQuestions(user input)

srvc -> repo: create()
activate repo
srvc -> repo: addQuestions(user input)
srvc -> repo: save(user input)
deactivate repo

srvc - -> ctrl: return operation success or in-success
deactivate srvc

ctrl - -> ui: srvc - -> ctrl: return operation success or in-success

deactivate ctrl


ui - -> teacher: return operation success or in-success
deactivate ui




@enduml

@startuml
autonumber
actor "Teacher" as teacher

participant ":AddQuestionsUI" as ui
participant ":AddQuestionsController" as ctrl
participant ":AddQuestionsService" as srvc

database ":QuestionsRepository" as repo

activate teacher

teacher -> ui: show()
activate ui

ui -> ui: doShow()



ui -> ctrl : addQuestions(user input)
activate ctrl

ctrl -> srvc: create()
activate srvc

ctrl -> srvc: addQuestions(user input)

srvc -> repo: create()
activate repo
srvc -> repo: addQuestions(user input)
srvc -> repo: save(user input)
deactivate repo

srvc - -> ctrl: return operation success or in-success
deactivate srvc

ctrl - -> ui: srvc - -> ctrl: return operation success or in-success

deactivate ctrl


ui - -> teacher: return operation success or in-success
deactivate ui




@enduml

PlantUML version 1.2022.12(Sun Oct 23 19:12:26 BST 2022)
(GPL source distribution)
Java Runtime: OpenJDK Runtime Environment
JVM: OpenJDK 64-Bit Server VM
Default Encoding: Cp1252
Language: pt
Country: PT
--></g></svg>