<?xml version="1.0" encoding="us-ascii" standalone="no"?><svg xmlns="http://www.w3.org/2000/svg" xmlns:xlink="http://www.w3.org/1999/xlink" contentStyleType="text/css" height="386px" preserveAspectRatio="none" style="width:1328px;height:386px;background:#FFFFFF;" version="1.1" viewBox="0 0 1328 386" width="1328px" zoomAndPan="magnify"><defs/><g><!--class Actor--><g id="elem_Actor"><rect codeLine="1" fill="#F1F1F1" height="48" id="Actor" rx="2.5" ry="2.5" style="stroke:#181818;stroke-width:0.5;" width="65" x="729" y="7"/><ellipse cx="744" cy="23" fill="#ADD1B2" rx="11" ry="11" style="stroke:#181818;stroke-width:1.0;"/><path d="M746.7656,18.875 Q746.9219,18.6563 747.1094,18.5469 Q747.2969,18.4375 747.5156,18.4375 Q747.8906,18.4375 748.125,18.7031 Q748.3594,18.9531 748.3594,19.5625 L748.3594,21.0156 Q748.3594,21.625 748.125,21.8906 Q747.8906,22.1563 747.5156,22.1563 Q747.1719,22.1563 746.9688,21.9531 Q746.7656,21.7656 746.6563,21.25 Q746.6094,20.8906 746.4219,20.7031 Q746.0938,20.3281 745.4844,20.1094 Q744.875,19.8906 744.25,19.8906 Q743.4844,19.8906 742.8438,20.2188 Q742.2188,20.5469 741.7188,21.2969 Q741.2344,22.0469 741.2344,23.0781 L741.2344,24.1719 Q741.2344,25.4063 742.125,26.2344 Q743.0156,27.0469 744.6094,27.0469 Q745.5469,27.0469 746.2031,26.7969 Q746.5938,26.6406 747.0156,26.2031 Q747.2813,25.9375 747.4219,25.8594 Q747.5781,25.7813 747.7813,25.7813 Q748.1094,25.7813 748.3594,26.0469 Q748.625,26.2969 748.625,26.6406 Q748.625,26.9844 748.2813,27.3906 Q747.7813,27.9688 746.9844,28.2969 Q745.9063,28.75 744.6094,28.75 Q743.0938,28.75 741.8906,28.125 Q740.9063,27.625 740.2188,26.5625 Q739.5313,25.4844 739.5313,24.2031 L739.5313,23.0469 Q739.5313,21.7188 740.1406,20.5781 Q740.7656,19.4219 741.8594,18.8125 Q742.9531,18.1875 744.1875,18.1875 Q744.9219,18.1875 745.5625,18.3594 Q746.2188,18.5156 746.7656,18.875 Z " fill="#000000"/><text fill="#000000" font-family="sans-serif" font-size="14" lengthAdjust="spacing" textLength="33" x="758" y="27.8535">Actor</text><line style="stroke:#181818;stroke-width:0.5;" x1="730" x2="793" y1="39" y2="39"/><line style="stroke:#181818;stroke-width:0.5;" x1="730" x2="793" y1="47" y2="47"/></g><!--class ShowBoardHistoryUI--><g id="elem_ShowBoardHistoryUI"><rect codeLine="2" fill="#F1F1F1" height="48" id="ShowBoardHistoryUI" rx="2.5" ry="2.5" style="stroke:#181818;stroke-width:0.5;" width="159" x="682" y="115"/><ellipse cx="697" cy="131" fill="#ADD1B2" rx="11" ry="11" style="stroke:#181818;stroke-width:1.0;"/><path d="M699.7656,126.875 Q699.9219,126.6563 700.1094,126.5469 Q700.2969,126.4375 700.5156,126.4375 Q700.8906,126.4375 701.125,126.7031 Q701.3594,126.9531 701.3594,127.5625 L701.3594,129.0156 Q701.3594,129.625 701.125,129.8906 Q700.8906,130.1563 700.5156,130.1563 Q700.1719,130.1563 699.9688,129.9531 Q699.7656,129.7656 699.6563,129.25 Q699.6094,128.8906 699.4219,128.7031 Q699.0938,128.3281 698.4844,128.1094 Q697.875,127.8906 697.25,127.8906 Q696.4844,127.8906 695.8438,128.2188 Q695.2188,128.5469 694.7188,129.2969 Q694.2344,130.0469 694.2344,131.0781 L694.2344,132.1719 Q694.2344,133.4063 695.125,134.2344 Q696.0156,135.0469 697.6094,135.0469 Q698.5469,135.0469 699.2031,134.7969 Q699.5938,134.6406 700.0156,134.2031 Q700.2813,133.9375 700.4219,133.8594 Q700.5781,133.7813 700.7813,133.7813 Q701.1094,133.7813 701.3594,134.0469 Q701.625,134.2969 701.625,134.6406 Q701.625,134.9844 701.2813,135.3906 Q700.7813,135.9688 699.9844,136.2969 Q698.9063,136.75 697.6094,136.75 Q696.0938,136.75 694.8906,136.125 Q693.9063,135.625 693.2188,134.5625 Q692.5313,133.4844 692.5313,132.2031 L692.5313,131.0469 Q692.5313,129.7188 693.1406,128.5781 Q693.7656,127.4219 694.8594,126.8125 Q695.9531,126.1875 697.1875,126.1875 Q697.9219,126.1875 698.5625,126.3594 Q699.2188,126.5156 699.7656,126.875 Z " fill="#000000"/><text fill="#000000" font-family="sans-serif" font-size="14" lengthAdjust="spacing" textLength="127" x="711" y="135.8535">ShowBoardHistoryUI</text><line style="stroke:#181818;stroke-width:0.5;" x1="683" x2="840" y1="147" y2="147"/><line style="stroke:#181818;stroke-width:0.5;" x1="683" x2="840" y1="155" y2="155"/></g><!--class ShowBoardHistoryController--><g id="elem_ShowBoardHistoryController"><rect codeLine="3" fill="#F1F1F1" height="48" id="ShowBoardHistoryController" rx="2.5" ry="2.5" style="stroke:#181818;stroke-width:0.5;" width="209" x="657" y="223"/><ellipse cx="672" cy="239" fill="#ADD1B2" rx="11" ry="11" style="stroke:#181818;stroke-width:1.0;"/><path d="M674.7656,234.875 Q674.9219,234.6563 675.1094,234.5469 Q675.2969,234.4375 675.5156,234.4375 Q675.8906,234.4375 676.125,234.7031 Q676.3594,234.9531 676.3594,235.5625 L676.3594,237.0156 Q676.3594,237.625 676.125,237.8906 Q675.8906,238.1563 675.5156,238.1563 Q675.1719,238.1563 674.9688,237.9531 Q674.7656,237.7656 674.6563,237.25 Q674.6094,236.8906 674.4219,236.7031 Q674.0938,236.3281 673.4844,236.1094 Q672.875,235.8906 672.25,235.8906 Q671.4844,235.8906 670.8438,236.2188 Q670.2188,236.5469 669.7188,237.2969 Q669.2344,238.0469 669.2344,239.0781 L669.2344,240.1719 Q669.2344,241.4063 670.125,242.2344 Q671.0156,243.0469 672.6094,243.0469 Q673.5469,243.0469 674.2031,242.7969 Q674.5938,242.6406 675.0156,242.2031 Q675.2813,241.9375 675.4219,241.8594 Q675.5781,241.7813 675.7813,241.7813 Q676.1094,241.7813 676.3594,242.0469 Q676.625,242.2969 676.625,242.6406 Q676.625,242.9844 676.2813,243.3906 Q675.7813,243.9688 674.9844,244.2969 Q673.9063,244.75 672.6094,244.75 Q671.0938,244.75 669.8906,244.125 Q668.9063,243.625 668.2188,242.5625 Q667.5313,241.4844 667.5313,240.2031 L667.5313,239.0469 Q667.5313,237.7188 668.1406,236.5781 Q668.7656,235.4219 669.8594,234.8125 Q670.9531,234.1875 672.1875,234.1875 Q672.9219,234.1875 673.5625,234.3594 Q674.2188,234.5156 674.7656,234.875 Z " fill="#000000"/><text fill="#000000" font-family="sans-serif" font-size="14" lengthAdjust="spacing" textLength="177" x="686" y="243.8535">ShowBoardHistoryController</text><line style="stroke:#181818;stroke-width:0.5;" x1="658" x2="865" y1="255" y2="255"/><line style="stroke:#181818;stroke-width:0.5;" x1="658" x2="865" y1="263" y2="263"/></g><!--class AuthorizationService--><g id="elem_AuthorizationService"><rect codeLine="4" fill="#F1F1F1" height="48" id="AuthorizationService" rx="2.5" ry="2.5" style="stroke:#181818;stroke-width:0.5;" width="161" x="7" y="331"/><ellipse cx="22" cy="347" fill="#ADD1B2" rx="11" ry="11" style="stroke:#181818;stroke-width:1.0;"/><path d="M24.7656,342.875 Q24.9219,342.6563 25.1094,342.5469 Q25.2969,342.4375 25.5156,342.4375 Q25.8906,342.4375 26.125,342.7031 Q26.3594,342.9531 26.3594,343.5625 L26.3594,345.0156 Q26.3594,345.625 26.125,345.8906 Q25.8906,346.1563 25.5156,346.1563 Q25.1719,346.1563 24.9688,345.9531 Q24.7656,345.7656 24.6563,345.25 Q24.6094,344.8906 24.4219,344.7031 Q24.0938,344.3281 23.4844,344.1094 Q22.875,343.8906 22.25,343.8906 Q21.4844,343.8906 20.8438,344.2188 Q20.2188,344.5469 19.7188,345.2969 Q19.2344,346.0469 19.2344,347.0781 L19.2344,348.1719 Q19.2344,349.4063 20.125,350.2344 Q21.0156,351.0469 22.6094,351.0469 Q23.5469,351.0469 24.2031,350.7969 Q24.5938,350.6406 25.0156,350.2031 Q25.2813,349.9375 25.4219,349.8594 Q25.5781,349.7813 25.7813,349.7813 Q26.1094,349.7813 26.3594,350.0469 Q26.625,350.2969 26.625,350.6406 Q26.625,350.9844 26.2813,351.3906 Q25.7813,351.9688 24.9844,352.2969 Q23.9063,352.75 22.6094,352.75 Q21.0938,352.75 19.8906,352.125 Q18.9063,351.625 18.2188,350.5625 Q17.5313,349.4844 17.5313,348.2031 L17.5313,347.0469 Q17.5313,345.7188 18.1406,344.5781 Q18.7656,343.4219 19.8594,342.8125 Q20.9531,342.1875 22.1875,342.1875 Q22.9219,342.1875 23.5625,342.3594 Q24.2188,342.5156 24.7656,342.875 Z " fill="#000000"/><text fill="#000000" font-family="sans-serif" font-size="14" lengthAdjust="spacing" textLength="129" x="36" y="351.8535">AuthorizationService</text><line style="stroke:#181818;stroke-width:0.5;" x1="8" x2="167" y1="363" y2="363"/><line style="stroke:#181818;stroke-width:0.5;" x1="8" x2="167" y1="371" y2="371"/></g><!--class UserSession--><g id="elem_UserSession"><rect codeLine="5" fill="#F1F1F1" height="48" id="UserSession" rx="2.5" ry="2.5" style="stroke:#181818;stroke-width:0.5;" width="111" x="203" y="331"/><ellipse cx="218" cy="347" fill="#ADD1B2" rx="11" ry="11" style="stroke:#181818;stroke-width:1.0;"/><path d="M220.7656,342.875 Q220.9219,342.6563 221.1094,342.5469 Q221.2969,342.4375 221.5156,342.4375 Q221.8906,342.4375 222.125,342.7031 Q222.3594,342.9531 222.3594,343.5625 L222.3594,345.0156 Q222.3594,345.625 222.125,345.8906 Q221.8906,346.1563 221.5156,346.1563 Q221.1719,346.1563 220.9688,345.9531 Q220.7656,345.7656 220.6563,345.25 Q220.6094,344.8906 220.4219,344.7031 Q220.0938,344.3281 219.4844,344.1094 Q218.875,343.8906 218.25,343.8906 Q217.4844,343.8906 216.8438,344.2188 Q216.2188,344.5469 215.7188,345.2969 Q215.2344,346.0469 215.2344,347.0781 L215.2344,348.1719 Q215.2344,349.4063 216.125,350.2344 Q217.0156,351.0469 218.6094,351.0469 Q219.5469,351.0469 220.2031,350.7969 Q220.5938,350.6406 221.0156,350.2031 Q221.2813,349.9375 221.4219,349.8594 Q221.5781,349.7813 221.7813,349.7813 Q222.1094,349.7813 222.3594,350.0469 Q222.625,350.2969 222.625,350.6406 Q222.625,350.9844 222.2813,351.3906 Q221.7813,351.9688 220.9844,352.2969 Q219.9063,352.75 218.6094,352.75 Q217.0938,352.75 215.8906,352.125 Q214.9063,351.625 214.2188,350.5625 Q213.5313,349.4844 213.5313,348.2031 L213.5313,347.0469 Q213.5313,345.7188 214.1406,344.5781 Q214.7656,343.4219 215.8594,342.8125 Q216.9531,342.1875 218.1875,342.1875 Q218.9219,342.1875 219.5625,342.3594 Q220.2188,342.5156 220.7656,342.875 Z " fill="#000000"/><text fill="#000000" font-family="sans-serif" font-size="14" lengthAdjust="spacing" textLength="79" x="232" y="351.8535">UserSession</text><line style="stroke:#181818;stroke-width:0.5;" x1="204" x2="313" y1="363" y2="363"/><line style="stroke:#181818;stroke-width:0.5;" x1="204" x2="313" y1="371" y2="371"/></g><!--class SystemUserAuth--><g id="elem_SystemUserAuth"><rect codeLine="6" fill="#F1F1F1" height="48" id="SystemUserAuth" rx="2.5" ry="2.5" style="stroke:#181818;stroke-width:0.5;" width="136" x="349.5" y="331"/><ellipse cx="364.5" cy="347" fill="#ADD1B2" rx="11" ry="11" style="stroke:#181818;stroke-width:1.0;"/><path d="M367.2656,342.875 Q367.4219,342.6563 367.6094,342.5469 Q367.7969,342.4375 368.0156,342.4375 Q368.3906,342.4375 368.625,342.7031 Q368.8594,342.9531 368.8594,343.5625 L368.8594,345.0156 Q368.8594,345.625 368.625,345.8906 Q368.3906,346.1563 368.0156,346.1563 Q367.6719,346.1563 367.4688,345.9531 Q367.2656,345.7656 367.1563,345.25 Q367.1094,344.8906 366.9219,344.7031 Q366.5938,344.3281 365.9844,344.1094 Q365.375,343.8906 364.75,343.8906 Q363.9844,343.8906 363.3438,344.2188 Q362.7188,344.5469 362.2188,345.2969 Q361.7344,346.0469 361.7344,347.0781 L361.7344,348.1719 Q361.7344,349.4063 362.625,350.2344 Q363.5156,351.0469 365.1094,351.0469 Q366.0469,351.0469 366.7031,350.7969 Q367.0938,350.6406 367.5156,350.2031 Q367.7813,349.9375 367.9219,349.8594 Q368.0781,349.7813 368.2813,349.7813 Q368.6094,349.7813 368.8594,350.0469 Q369.125,350.2969 369.125,350.6406 Q369.125,350.9844 368.7813,351.3906 Q368.2813,351.9688 367.4844,352.2969 Q366.4063,352.75 365.1094,352.75 Q363.5938,352.75 362.3906,352.125 Q361.4063,351.625 360.7188,350.5625 Q360.0313,349.4844 360.0313,348.2031 L360.0313,347.0469 Q360.0313,345.7188 360.6406,344.5781 Q361.2656,343.4219 362.3594,342.8125 Q363.4531,342.1875 364.6875,342.1875 Q365.4219,342.1875 366.0625,342.3594 Q366.7188,342.5156 367.2656,342.875 Z " fill="#000000"/><text fill="#000000" font-family="sans-serif" font-size="14" lengthAdjust="spacing" textLength="104" x="378.5" y="351.8535">SystemUserAuth</text><line style="stroke:#181818;stroke-width:0.5;" x1="350.5" x2="484.5" y1="363" y2="363"/><line style="stroke:#181818;stroke-width:0.5;" x1="350.5" x2="484.5" y1="371" y2="371"/></g><!--class BoardRepository--><g id="elem_BoardRepository"><rect codeLine="7" fill="#F1F1F1" height="48" id="BoardRepository" rx="2.5" ry="2.5" style="stroke:#181818;stroke-width:0.5;" width="138" x="520.5" y="331"/><ellipse cx="535.5" cy="347" fill="#ADD1B2" rx="11" ry="11" style="stroke:#181818;stroke-width:1.0;"/><path d="M538.2656,342.875 Q538.4219,342.6563 538.6094,342.5469 Q538.7969,342.4375 539.0156,342.4375 Q539.3906,342.4375 539.625,342.7031 Q539.8594,342.9531 539.8594,343.5625 L539.8594,345.0156 Q539.8594,345.625 539.625,345.8906 Q539.3906,346.1563 539.0156,346.1563 Q538.6719,346.1563 538.4688,345.9531 Q538.2656,345.7656 538.1563,345.25 Q538.1094,344.8906 537.9219,344.7031 Q537.5938,344.3281 536.9844,344.1094 Q536.375,343.8906 535.75,343.8906 Q534.9844,343.8906 534.3438,344.2188 Q533.7188,344.5469 533.2188,345.2969 Q532.7344,346.0469 532.7344,347.0781 L532.7344,348.1719 Q532.7344,349.4063 533.625,350.2344 Q534.5156,351.0469 536.1094,351.0469 Q537.0469,351.0469 537.7031,350.7969 Q538.0938,350.6406 538.5156,350.2031 Q538.7813,349.9375 538.9219,349.8594 Q539.0781,349.7813 539.2813,349.7813 Q539.6094,349.7813 539.8594,350.0469 Q540.125,350.2969 540.125,350.6406 Q540.125,350.9844 539.7813,351.3906 Q539.2813,351.9688 538.4844,352.2969 Q537.4063,352.75 536.1094,352.75 Q534.5938,352.75 533.3906,352.125 Q532.4063,351.625 531.7188,350.5625 Q531.0313,349.4844 531.0313,348.2031 L531.0313,347.0469 Q531.0313,345.7188 531.6406,344.5781 Q532.2656,343.4219 533.3594,342.8125 Q534.4531,342.1875 535.6875,342.1875 Q536.4219,342.1875 537.0625,342.3594 Q537.7188,342.5156 538.2656,342.875 Z " fill="#000000"/><text fill="#000000" font-family="sans-serif" font-size="14" lengthAdjust="spacing" textLength="106" x="549.5" y="351.8535">BoardRepository</text><line style="stroke:#181818;stroke-width:0.5;" x1="521.5" x2="657.5" y1="363" y2="363"/><line style="stroke:#181818;stroke-width:0.5;" x1="521.5" x2="657.5" y1="371" y2="371"/></g><!--class PostItRepository--><g id="elem_PostItRepository"><rect codeLine="8" fill="#F1F1F1" height="48" id="PostItRepository" rx="2.5" ry="2.5" style="stroke:#181818;stroke-width:0.5;" width="135" x="694" y="331"/><ellipse cx="709" cy="347" fill="#ADD1B2" rx="11" ry="11" style="stroke:#181818;stroke-width:1.0;"/><path d="M711.7656,342.875 Q711.9219,342.6563 712.1094,342.5469 Q712.2969,342.4375 712.5156,342.4375 Q712.8906,342.4375 713.125,342.7031 Q713.3594,342.9531 713.3594,343.5625 L713.3594,345.0156 Q713.3594,345.625 713.125,345.8906 Q712.8906,346.1563 712.5156,346.1563 Q712.1719,346.1563 711.9688,345.9531 Q711.7656,345.7656 711.6563,345.25 Q711.6094,344.8906 711.4219,344.7031 Q711.0938,344.3281 710.4844,344.1094 Q709.875,343.8906 709.25,343.8906 Q708.4844,343.8906 707.8438,344.2188 Q707.2188,344.5469 706.7188,345.2969 Q706.2344,346.0469 706.2344,347.0781 L706.2344,348.1719 Q706.2344,349.4063 707.125,350.2344 Q708.0156,351.0469 709.6094,351.0469 Q710.5469,351.0469 711.2031,350.7969 Q711.5938,350.6406 712.0156,350.2031 Q712.2813,349.9375 712.4219,349.8594 Q712.5781,349.7813 712.7813,349.7813 Q713.1094,349.7813 713.3594,350.0469 Q713.625,350.2969 713.625,350.6406 Q713.625,350.9844 713.2813,351.3906 Q712.7813,351.9688 711.9844,352.2969 Q710.9063,352.75 709.6094,352.75 Q708.0938,352.75 706.8906,352.125 Q705.9063,351.625 705.2188,350.5625 Q704.5313,349.4844 704.5313,348.2031 L704.5313,347.0469 Q704.5313,345.7188 705.1406,344.5781 Q705.7656,343.4219 706.8594,342.8125 Q707.9531,342.1875 709.1875,342.1875 Q709.9219,342.1875 710.5625,342.3594 Q711.2188,342.5156 711.7656,342.875 Z " fill="#000000"/><text fill="#000000" font-family="sans-serif" font-size="14" lengthAdjust="spacing" textLength="103" x="723" y="351.8535">PostItRepository</text><line style="stroke:#181818;stroke-width:0.5;" x1="695" x2="828" y1="363" y2="363"/><line style="stroke:#181818;stroke-width:0.5;" x1="695" x2="828" y1="371" y2="371"/></g><!--class PostIts--><g id="elem_PostIts"><rect codeLine="9" fill="#F1F1F1" height="48" id="PostIts" rx="2.5" ry="2.5" style="stroke:#181818;stroke-width:0.5;" width="74" x="864.5" y="331"/><ellipse cx="879.5" cy="347" fill="#ADD1B2" rx="11" ry="11" style="stroke:#181818;stroke-width:1.0;"/><path d="M882.2656,342.875 Q882.4219,342.6563 882.6094,342.5469 Q882.7969,342.4375 883.0156,342.4375 Q883.3906,342.4375 883.625,342.7031 Q883.8594,342.9531 883.8594,343.5625 L883.8594,345.0156 Q883.8594,345.625 883.625,345.8906 Q883.3906,346.1563 883.0156,346.1563 Q882.6719,346.1563 882.4688,345.9531 Q882.2656,345.7656 882.1563,345.25 Q882.1094,344.8906 881.9219,344.7031 Q881.5938,344.3281 880.9844,344.1094 Q880.375,343.8906 879.75,343.8906 Q878.9844,343.8906 878.3438,344.2188 Q877.7188,344.5469 877.2188,345.2969 Q876.7344,346.0469 876.7344,347.0781 L876.7344,348.1719 Q876.7344,349.4063 877.625,350.2344 Q878.5156,351.0469 880.1094,351.0469 Q881.0469,351.0469 881.7031,350.7969 Q882.0938,350.6406 882.5156,350.2031 Q882.7813,349.9375 882.9219,349.8594 Q883.0781,349.7813 883.2813,349.7813 Q883.6094,349.7813 883.8594,350.0469 Q884.125,350.2969 884.125,350.6406 Q884.125,350.9844 883.7813,351.3906 Q883.2813,351.9688 882.4844,352.2969 Q881.4063,352.75 880.1094,352.75 Q878.5938,352.75 877.3906,352.125 Q876.4063,351.625 875.7188,350.5625 Q875.0313,349.4844 875.0313,348.2031 L875.0313,347.0469 Q875.0313,345.7188 875.6406,344.5781 Q876.2656,343.4219 877.3594,342.8125 Q878.4531,342.1875 879.6875,342.1875 Q880.4219,342.1875 881.0625,342.3594 Q881.7188,342.5156 882.2656,342.875 Z " fill="#000000"/><text fill="#000000" font-family="sans-serif" font-size="14" lengthAdjust="spacing" textLength="42" x="893.5" y="351.8535">PostIts</text><line style="stroke:#181818;stroke-width:0.5;" x1="865.5" x2="937.5" y1="363" y2="363"/><line style="stroke:#181818;stroke-width:0.5;" x1="865.5" x2="937.5" y1="371" y2="371"/></g><!--class NumRows--><g id="elem_NumRows"><rect codeLine="10" fill="#F1F1F1" height="48" id="NumRows" rx="2.5" ry="2.5" style="stroke:#181818;stroke-width:0.5;" width="94" x="973.5" y="331"/><ellipse cx="988.5" cy="347" fill="#ADD1B2" rx="11" ry="11" style="stroke:#181818;stroke-width:1.0;"/><path d="M991.2656,342.875 Q991.4219,342.6563 991.6094,342.5469 Q991.7969,342.4375 992.0156,342.4375 Q992.3906,342.4375 992.625,342.7031 Q992.8594,342.9531 992.8594,343.5625 L992.8594,345.0156 Q992.8594,345.625 992.625,345.8906 Q992.3906,346.1563 992.0156,346.1563 Q991.6719,346.1563 991.4688,345.9531 Q991.2656,345.7656 991.1563,345.25 Q991.1094,344.8906 990.9219,344.7031 Q990.5938,344.3281 989.9844,344.1094 Q989.375,343.8906 988.75,343.8906 Q987.9844,343.8906 987.3438,344.2188 Q986.7188,344.5469 986.2188,345.2969 Q985.7344,346.0469 985.7344,347.0781 L985.7344,348.1719 Q985.7344,349.4063 986.625,350.2344 Q987.5156,351.0469 989.1094,351.0469 Q990.0469,351.0469 990.7031,350.7969 Q991.0938,350.6406 991.5156,350.2031 Q991.7813,349.9375 991.9219,349.8594 Q992.0781,349.7813 992.2813,349.7813 Q992.6094,349.7813 992.8594,350.0469 Q993.125,350.2969 993.125,350.6406 Q993.125,350.9844 992.7813,351.3906 Q992.2813,351.9688 991.4844,352.2969 Q990.4063,352.75 989.1094,352.75 Q987.5938,352.75 986.3906,352.125 Q985.4063,351.625 984.7188,350.5625 Q984.0313,349.4844 984.0313,348.2031 L984.0313,347.0469 Q984.0313,345.7188 984.6406,344.5781 Q985.2656,343.4219 986.3594,342.8125 Q987.4531,342.1875 988.6875,342.1875 Q989.4219,342.1875 990.0625,342.3594 Q990.7188,342.5156 991.2656,342.875 Z " fill="#000000"/><text fill="#000000" font-family="sans-serif" font-size="14" lengthAdjust="spacing" textLength="62" x="1002.5" y="351.8535">NumRows</text><line style="stroke:#181818;stroke-width:0.5;" x1="974.5" x2="1066.5" y1="363" y2="363"/><line style="stroke:#181818;stroke-width:0.5;" x1="974.5" x2="1066.5" y1="371" y2="371"/></g><!--class NumColumns--><g id="elem_NumColumns"><rect codeLine="11" fill="#F1F1F1" height="48" id="NumColumns" rx="2.5" ry="2.5" style="stroke:#181818;stroke-width:0.5;" width="115" x="1103" y="331"/><ellipse cx="1118" cy="347" fill="#ADD1B2" rx="11" ry="11" style="stroke:#181818;stroke-width:1.0;"/><path d="M1120.7656,342.875 Q1120.9219,342.6563 1121.1094,342.5469 Q1121.2969,342.4375 1121.5156,342.4375 Q1121.8906,342.4375 1122.125,342.7031 Q1122.3594,342.9531 1122.3594,343.5625 L1122.3594,345.0156 Q1122.3594,345.625 1122.125,345.8906 Q1121.8906,346.1563 1121.5156,346.1563 Q1121.1719,346.1563 1120.9688,345.9531 Q1120.7656,345.7656 1120.6563,345.25 Q1120.6094,344.8906 1120.4219,344.7031 Q1120.0938,344.3281 1119.4844,344.1094 Q1118.875,343.8906 1118.25,343.8906 Q1117.4844,343.8906 1116.8438,344.2188 Q1116.2188,344.5469 1115.7188,345.2969 Q1115.2344,346.0469 1115.2344,347.0781 L1115.2344,348.1719 Q1115.2344,349.4063 1116.125,350.2344 Q1117.0156,351.0469 1118.6094,351.0469 Q1119.5469,351.0469 1120.2031,350.7969 Q1120.5938,350.6406 1121.0156,350.2031 Q1121.2813,349.9375 1121.4219,349.8594 Q1121.5781,349.7813 1121.7813,349.7813 Q1122.1094,349.7813 1122.3594,350.0469 Q1122.625,350.2969 1122.625,350.6406 Q1122.625,350.9844 1122.2813,351.3906 Q1121.7813,351.9688 1120.9844,352.2969 Q1119.9063,352.75 1118.6094,352.75 Q1117.0938,352.75 1115.8906,352.125 Q1114.9063,351.625 1114.2188,350.5625 Q1113.5313,349.4844 1113.5313,348.2031 L1113.5313,347.0469 Q1113.5313,345.7188 1114.1406,344.5781 Q1114.7656,343.4219 1115.8594,342.8125 Q1116.9531,342.1875 1118.1875,342.1875 Q1118.9219,342.1875 1119.5625,342.3594 Q1120.2188,342.5156 1120.7656,342.875 Z " fill="#000000"/><text fill="#000000" font-family="sans-serif" font-size="14" lengthAdjust="spacing" textLength="83" x="1132" y="351.8535">NumColumns</text><line style="stroke:#181818;stroke-width:0.5;" x1="1104" x2="1217" y1="363" y2="363"/><line style="stroke:#181818;stroke-width:0.5;" x1="1104" x2="1217" y1="371" y2="371"/></g><!--class Name--><g id="elem_Name"><rect codeLine="12" fill="#F1F1F1" height="48" id="Name" rx="2.5" ry="2.5" style="stroke:#181818;stroke-width:0.5;" width="68" x="1253.5" y="331"/><ellipse cx="1268.5" cy="347" fill="#ADD1B2" rx="11" ry="11" style="stroke:#181818;stroke-width:1.0;"/><path d="M1271.2656,342.875 Q1271.4219,342.6563 1271.6094,342.5469 Q1271.7969,342.4375 1272.0156,342.4375 Q1272.3906,342.4375 1272.625,342.7031 Q1272.8594,342.9531 1272.8594,343.5625 L1272.8594,345.0156 Q1272.8594,345.625 1272.625,345.8906 Q1272.3906,346.1563 1272.0156,346.1563 Q1271.6719,346.1563 1271.4688,345.9531 Q1271.2656,345.7656 1271.1563,345.25 Q1271.1094,344.8906 1270.9219,344.7031 Q1270.5938,344.3281 1269.9844,344.1094 Q1269.375,343.8906 1268.75,343.8906 Q1267.9844,343.8906 1267.3438,344.2188 Q1266.7188,344.5469 1266.2188,345.2969 Q1265.7344,346.0469 1265.7344,347.0781 L1265.7344,348.1719 Q1265.7344,349.4063 1266.625,350.2344 Q1267.5156,351.0469 1269.1094,351.0469 Q1270.0469,351.0469 1270.7031,350.7969 Q1271.0938,350.6406 1271.5156,350.2031 Q1271.7813,349.9375 1271.9219,349.8594 Q1272.0781,349.7813 1272.2813,349.7813 Q1272.6094,349.7813 1272.8594,350.0469 Q1273.125,350.2969 1273.125,350.6406 Q1273.125,350.9844 1272.7813,351.3906 Q1272.2813,351.9688 1271.4844,352.2969 Q1270.4063,352.75 1269.1094,352.75 Q1267.5938,352.75 1266.3906,352.125 Q1265.4063,351.625 1264.7188,350.5625 Q1264.0313,349.4844 1264.0313,348.2031 L1264.0313,347.0469 Q1264.0313,345.7188 1264.6406,344.5781 Q1265.2656,343.4219 1266.3594,342.8125 Q1267.4531,342.1875 1268.6875,342.1875 Q1269.4219,342.1875 1270.0625,342.3594 Q1270.7188,342.5156 1271.2656,342.875 Z " fill="#000000"/><text fill="#000000" font-family="sans-serif" font-size="14" lengthAdjust="spacing" textLength="36" x="1282.5" y="351.8535">Name</text><line style="stroke:#181818;stroke-width:0.5;" x1="1254.5" x2="1320.5" y1="363" y2="363"/><line style="stroke:#181818;stroke-width:0.5;" x1="1254.5" x2="1320.5" y1="371" y2="371"/></g><!--link Actor to ShowBoardHistoryUI--><g id="link_Actor_ShowBoardHistoryUI"><path codeLine="14" d="M761.5,55 C761.5,71 761.5,92.45 761.5,109.53 " fill="none" id="Actor-to-ShowBoardHistoryUI" style="stroke:#181818;stroke-width:1.0;"/><polygon fill="#181818" points="761.5,114.68,765.5,105.68,761.5,109.68,757.5,105.68,761.5,114.68" style="stroke:#181818;stroke-width:1.0;"/></g><!--link ShowBoardHistoryUI to ShowBoardHistoryController--><g id="link_ShowBoardHistoryUI_ShowBoardHistoryController"><path codeLine="15" d="M761.5,163 C761.5,179 761.5,200.45 761.5,217.53 " fill="none" id="ShowBoardHistoryUI-to-ShowBoardHistoryController" style="stroke:#181818;stroke-width:1.0;"/><polygon fill="#181818" points="761.5,222.68,765.5,213.68,761.5,217.68,757.5,213.68,761.5,222.68" style="stroke:#181818;stroke-width:1.0;"/></g><!--link ShowBoardHistoryController to AuthorizationService--><g id="link_ShowBoardHistoryController_AuthorizationService"><path codeLine="16" d="M656.85,258.82 C538.81,272.6 341.9,298.45 173.22,330.11 " fill="none" id="ShowBoardHistoryController-to-AuthorizationService" style="stroke:#181818;stroke-width:1.0;"/><polygon fill="#181818" points="168.24,331.05,177.8262,333.3094,173.1531,330.1217,176.3408,325.4485,168.24,331.05" style="stroke:#181818;stroke-width:1.0;"/></g><!--link AuthorizationService to ShowBoardHistoryController--><g id="link_AuthorizationService_ShowBoardHistoryController"><path codeLine="26" d="M168.01,338.4 C179.98,335.75 192.08,333.16 203.5,331 C358.67,301.67 539.08,277.21 651.97,262.62 " fill="none" id="AuthorizationService-to-ShowBoardHistoryController" style="stroke:#181818;stroke-width:1.0;"/><polygon fill="#181818" points="656.96,261.97,647.5203,259.1607,652.0015,262.613,648.5492,267.0942,656.96,261.97" style="stroke:#181818;stroke-width:1.0;"/></g><!--link ShowBoardHistoryController to UserSession--><g id="link_ShowBoardHistoryController_UserSession"><path codeLine="17" d="M656.72,262.56 C566.64,276.99 433.99,301.03 319.22,329.81 " fill="none" id="ShowBoardHistoryController-to-UserSession" style="stroke:#181818;stroke-width:1.0;"/><polygon fill="#181818" points="314.11,331.1,323.8173,332.7641,318.9565,329.8705,321.8501,325.0097,314.11,331.1" style="stroke:#181818;stroke-width:1.0;"/></g><!--link UserSession to ShowBoardHistoryController--><g id="link_UserSession_ShowBoardHistoryController"><path codeLine="27" d="M314.18,340.99 C326,337.48 338.16,333.87 349.5,331 C451.21,305.25 568.22,283.14 651.66,268.23 " fill="none" id="UserSession-to-ShowBoardHistoryController" style="stroke:#181818;stroke-width:1.0;"/><polygon fill="#181818" points="656.6,267.35,647.0332,265.0098,651.6793,268.2369,648.4522,272.8829,656.6,267.35" style="stroke:#181818;stroke-width:1.0;"/></g><!--link ShowBoardHistoryController to SystemUserAuth--><g id="link_ShowBoardHistoryController_SystemUserAuth"><path codeLine="18" d="M676.13,271 C617.6,288.23 541.14,311.77 486.45,329.38 " fill="none" id="ShowBoardHistoryController-to-SystemUserAuth" style="stroke:#181818;stroke-width:1.0;"/><polygon fill="#181818" points="481.56,330.95,491.355,331.9783,486.3161,329.4075,488.887,324.3686,481.56,330.95" style="stroke:#181818;stroke-width:1.0;"/></g><!--link SystemUserAuth to ShowBoardHistoryController--><g id="link_SystemUserAuth_ShowBoardHistoryController"><path codeLine="28" d="M485.63,336.21 C545.87,318.78 632.92,292.08 693.19,272.62 " fill="none" id="SystemUserAuth-to-ShowBoardHistoryController" style="stroke:#181818;stroke-width:1.0;"/><polygon fill="#181818" points="698.21,271,688.415,269.9717,693.4539,272.5425,690.883,277.5814,698.21,271" style="stroke:#181818;stroke-width:1.0;"/></g><!--link ShowBoardHistoryController to BoardRepository--><g id="link_ShowBoardHistoryController_BoardRepository"><path codeLine="19" d="M713.45,271 C683.73,287.75 646.73,310.46 620.7,327.89 " fill="none" id="ShowBoardHistoryController-to-BoardRepository" style="stroke:#181818;stroke-width:1.0;"/><polygon fill="#181818" points="616.3,330.86,626.0006,329.1574,620.4492,328.07,621.5366,322.5187,616.3,330.86" style="stroke:#181818;stroke-width:1.0;"/></g><!--link BoardRepository to ShowBoardHistoryController--><g id="link_BoardRepository_ShowBoardHistoryController"><path codeLine="29" d="M638.42,330.86 C668.34,314.08 705.33,291.37 731.17,273.97 " fill="none" id="BoardRepository-to-ShowBoardHistoryController" style="stroke:#181818;stroke-width:1.0;"/><polygon fill="#181818" points="735.54,271,725.8435,272.7256,731.3974,273.7998,730.3232,279.3537,735.54,271" style="stroke:#181818;stroke-width:1.0;"/></g><!--link ShowBoardHistoryController to PostItRepository--><g id="link_ShowBoardHistoryController_PostItRepository"><path codeLine="20" d="M750.77,271 C748.34,287 748.1,308.45 750.05,325.53 " fill="none" id="ShowBoardHistoryController-to-PostItRepository" style="stroke:#181818;stroke-width:1.0;"/><polygon fill="#181818" points="750.73,330.68,753.5126,321.2324,750.0729,325.7234,745.582,322.2837,750.73,330.68" style="stroke:#181818;stroke-width:1.0;"/></g><!--link PostItRepository to ShowBoardHistoryController--><g id="link_PostItRepository_ShowBoardHistoryController"><path codeLine="30" d="M772.91,330.68 C775.45,314.6 775.68,293.15 773.58,276.13 " fill="none" id="PostItRepository-to-ShowBoardHistoryController" style="stroke:#181818;stroke-width:1.0;"/><polygon fill="#181818" points="772.86,271,770.1577,280.4709,773.5591,275.9509,778.0791,279.3523,772.86,271" style="stroke:#181818;stroke-width:1.0;"/></g><!--link ShowBoardHistoryController to PostIts--><g id="link_ShowBoardHistoryController_PostIts"><path codeLine="21" d="M781.15,271 C801.81,288.67 833.89,312.98 859.98,330.72 " fill="none" id="ShowBoardHistoryController-to-PostIts" style="stroke:#181818;stroke-width:1.0;"/><polygon fill="#181818" points="864.44,333.73,859.2232,325.3763,860.2974,330.9302,854.7435,332.0044,864.44,333.73" style="stroke:#181818;stroke-width:1.0;"/></g><!--link PostIts to ShowBoardHistoryController--><g id="link_PostIts_ShowBoardHistoryController"><path codeLine="31" d="M882.11,330.68 C862.61,313.91 832.87,291.29 807.58,273.95 " fill="none" id="PostIts-to-ShowBoardHistoryController" style="stroke:#181818;stroke-width:1.0;"/><polygon fill="#181818" points="803.23,271,808.4136,279.3744,807.3614,273.8162,812.9196,272.7641,803.23,271" style="stroke:#181818;stroke-width:1.0;"/></g><!--link ShowBoardHistoryController to NumRows--><g id="link_ShowBoardHistoryController_NumRows"><path codeLine="22" d="M806.97,271 C852.3,290.78 921.28,318.87 968.69,336.77 " fill="none" id="ShowBoardHistoryController-to-NumRows" style="stroke:#181818;stroke-width:1.0;"/><polygon fill="#181818" points="973.49,338.57,966.4675,331.6646,968.8084,336.8144,963.6585,339.1552,973.49,338.57" style="stroke:#181818;stroke-width:1.0;"/></g><!--link NumRows to ShowBoardHistoryController--><g id="link_NumRows_ShowBoardHistoryController"><path codeLine="32" d="M975.34,330.86 C936.23,313.73 879.37,290.43 833.97,272.89 " fill="none" id="NumRows-to-ShowBoardHistoryController" style="stroke:#181818;stroke-width:1.0;"/><polygon fill="#181818" points="829.06,271,836.0199,277.9685,833.7256,272.7978,838.8963,270.5035,829.06,271" style="stroke:#181818;stroke-width:1.0;"/></g><!--link ShowBoardHistoryController to NumColumns--><g id="link_ShowBoardHistoryController_NumColumns"><path codeLine="23" d="M842.07,271.08 C904.19,287.12 991.78,309.42 1068.5,331 C1077.96,333.66 1088.05,336.65 1098.05,339.57 " fill="none" id="ShowBoardHistoryController-to-NumColumns" style="stroke:#181818;stroke-width:1.0;"/><polygon fill="#181818" points="1102.94,341,1095.42,334.64,1098.14,339.6,1093.18,342.32,1102.94,341" style="stroke:#181818;stroke-width:1.0;"/></g><!--link NumColumns to ShowBoardHistoryController--><g id="link_NumColumns_ShowBoardHistoryController"><path codeLine="33" d="M1103.04,330.87 C1026.33,309.31 938.83,287.03 871.41,271.02 " fill="none" id="NumColumns-to-ShowBoardHistoryController" style="stroke:#181818;stroke-width:1.0;"/><polygon fill="#181818" points="866.18,269.78,874.0119,275.7517,871.0446,270.9355,875.8608,267.9682,866.18,269.78" style="stroke:#181818;stroke-width:1.0;"/></g><!--link ShowBoardHistoryController to Name--><g id="link_ShowBoardHistoryController_Name"><path codeLine="24" d="M866.05,260.6 C959.78,272.86 1099.99,295 1218.5,331 C1228.24,333.96 1238.57,338.27 1248.55,342.36 " fill="none" id="ShowBoardHistoryController-to-Name" style="stroke:#181818;stroke-width:1.0;"/><polygon fill="#181818" points="1253.41,344.34,1246.5844,337.24,1248.7795,342.4535,1243.566,344.6487,1253.41,344.34" style="stroke:#181818;stroke-width:1.0;"/></g><!--link Name to ShowBoardHistoryController--><g id="link_Name_ShowBoardHistoryController"><path codeLine="34" d="M1253.12,330.88 C1125.45,292.15 972.69,269.48 871.5,257.91 " fill="none" id="Name-to-ShowBoardHistoryController" style="stroke:#181818;stroke-width:1.0;"/><polygon fill="#181818" points="866.41,257.34,874.9085,262.3175,871.3789,257.8969,875.7995,254.3672,866.41,257.34" style="stroke:#181818;stroke-width:1.0;"/></g><!--SRC=[ZP513eCW44Ntdi8Bz0fDh9kwQHgD1o2KH19m6WPhxEch51gBc747Vzv0vWrN334lk0MJSNTkEXWlmCpZAd5EfxRQAPJGMmDAYT1P3BO38z_CIkWROLwI2rzgKPX68Cw5yDg4LkWbNzfyw9wlnHDGBZ_uz0veAxiJex_T1bt3kBgLe0RT_mAcHPQvEVFJwPoQSXiboTNO-oNNcVH1zAn54MXaaA1ZjGI-SNw8HmeBMwAni3wA_EurOPfQtieqkUS_qnGTcQRmsFGn7YdCcpw0UTCaEPkcc0y0]--></g></svg>