<?xml version="1.0" encoding="us-ascii" standalone="no"?><svg xmlns="http://www.w3.org/2000/svg" xmlns:xlink="http://www.w3.org/1999/xlink" contentStyleType="text/css" height="1162px" preserveAspectRatio="none" style="width:1370px;height:1162px;background:#FFFFFF;" version="1.1" viewBox="0 0 1370 1162" width="1370px" zoomAndPan="magnify"><defs/><g><rect fill="#FFFFFF" height="1044.0391" style="stroke:#181818;stroke-width:1.0;" width="10" x="127.5" y="66.1641"/><rect fill="#FFFFFF" height="306.1406" style="stroke:#181818;stroke-width:1.0;" width="10" x="132.5" y="102.6875"/><rect fill="#FFFFFF" height="237.6172" style="stroke:#181818;stroke-width:1.0;" width="10" x="137.5" y="144.2109"/><rect fill="#FFFFFF" height="184.0938" style="stroke:#181818;stroke-width:1.0;" width="10" x="303.5" y="177.7344"/><rect fill="#FFFFFF" height="56.5234" style="stroke:#181818;stroke-width:1.0;" width="10" x="303.5" y="444.3516"/><rect fill="#FFFFFF" height="56.5234" style="stroke:#181818;stroke-width:1.0;" width="10" x="303.5" y="827.0625"/><rect fill="#FFFFFF" height="14" style="stroke:#181818;stroke-width:1.0;" width="10" x="480.5" y="206.2578"/><rect fill="#FFFFFF" height="14" style="stroke:#181818;stroke-width:1.0;" width="10" x="608.5" y="248.7813"/><rect fill="#FFFFFF" height="14" style="stroke:#181818;stroke-width:1.0;" width="10" x="724" y="291.3047"/><rect fill="#FFFFFF" height="14" style="stroke:#181818;stroke-width:1.0;" width="10" x="724" y="784.5391"/><rect fill="#FFFFFF" height="14" style="stroke:#181818;stroke-width:1.0;" width="10" x="724" y="912.1094"/><rect fill="#FFFFFF" height="14" style="stroke:#181818;stroke-width:1.0;" width="10" x="724" y="954.6328"/><rect fill="#FFFFFF" height="14" style="stroke:#181818;stroke-width:1.0;" width="10" x="724" y="1039.6797"/><rect fill="#FFFFFF" height="14" style="stroke:#181818;stroke-width:1.0;" width="10" x="853" y="333.8281"/><rect fill="#FFFFFF" height="14" style="stroke:#181818;stroke-width:1.0;" width="10" x="853" y="855.5859"/><rect fill="#FFFFFF" height="14" style="stroke:#181818;stroke-width:1.0;" width="10" x="981.5" y="472.875"/><rect fill="#FFFFFF" height="14" style="stroke:#181818;stroke-width:1.0;" width="10" x="1078" y="529.3984"/><rect fill="#FFFFFF" height="14" style="stroke:#181818;stroke-width:1.0;" width="10" x="1078" y="571.9219"/><rect fill="#FFFFFF" height="14" style="stroke:#181818;stroke-width:1.0;" width="10" x="1078" y="656.9688"/><rect fill="#FFFFFF" height="14" style="stroke:#181818;stroke-width:1.0;" width="10" x="1078" y="742.0156"/><rect fill="#FFFFFF" height="14" style="stroke:#181818;stroke-width:1.0;" width="10" x="1154" y="614.4453"/><rect fill="#FFFFFF" height="14" style="stroke:#181818;stroke-width:1.0;" width="10" x="1250.5" y="699.4922"/><rect fill="#FFFFFF" height="14" style="stroke:#181818;stroke-width:1.0;" width="10" x="1334" y="997.1563"/><rect fill="#FFFFFF" height="14" style="stroke:#181818;stroke-width:1.0;" width="10" x="1334" y="1082.2031"/><line style="stroke:#181818;stroke-width:0.5;stroke-dasharray:5.0,5.0;" x1="28" x2="28" y1="35.6406" y2="1128.2031"/><line style="stroke:#181818;stroke-width:0.5;stroke-dasharray:5.0,5.0;" x1="132" x2="132" y1="35.6406" y2="1128.2031"/><line style="stroke:#181818;stroke-width:0.5;stroke-dasharray:5.0,5.0;" x1="308" x2="308" y1="35.6406" y2="1128.2031"/><line style="stroke:#181818;stroke-width:0.5;stroke-dasharray:5.0,5.0;" x1="485" x2="485" y1="35.6406" y2="1128.2031"/><line style="stroke:#181818;stroke-width:0.5;stroke-dasharray:5.0,5.0;" x1="613" x2="613" y1="35.6406" y2="1128.2031"/><line style="stroke:#181818;stroke-width:0.5;stroke-dasharray:5.0,5.0;" x1="729" x2="729" y1="35.6406" y2="1128.2031"/><line style="stroke:#181818;stroke-width:0.5;stroke-dasharray:5.0,5.0;" x1="858" x2="858" y1="35.6406" y2="1128.2031"/><line style="stroke:#181818;stroke-width:0.5;stroke-dasharray:5.0,5.0;" x1="986" x2="986" y1="35.6406" y2="1128.2031"/><line style="stroke:#181818;stroke-width:0.5;stroke-dasharray:5.0,5.0;" x1="1083" x2="1083" y1="35.6406" y2="1128.2031"/><line style="stroke:#181818;stroke-width:0.5;stroke-dasharray:5.0,5.0;" x1="1159" x2="1159" y1="35.6406" y2="1128.2031"/><line style="stroke:#181818;stroke-width:0.5;stroke-dasharray:5.0,5.0;" x1="1255" x2="1255" y1="35.6406" y2="1128.2031"/><line style="stroke:#181818;stroke-width:0.5;stroke-dasharray:5.0,5.0;" x1="1339" x2="1339" y1="35.6406" y2="1128.2031"/><rect fill="#E2E2F0" height="29.6406" rx="2.5" ry="2.5" style="stroke:#181818;stroke-width:0.5;" width="47" x="5" y="5"/><text fill="#000000" font-family="sans-serif" font-size="14" lengthAdjust="spacing" textLength="33" x="12" y="24.6738">Actor</text><rect fill="#E2E2F0" height="29.6406" rx="2.5" ry="2.5" style="stroke:#181818;stroke-width:0.5;" width="47" x="5" y="1127.2031"/><text fill="#000000" font-family="sans-serif" font-size="14" lengthAdjust="spacing" textLength="33" x="12" y="1146.877">Actor</text><rect fill="#E2E2F0" height="29.6406" rx="2.5" ry="2.5" style="stroke:#181818;stroke-width:0.5;" width="141" x="62" y="5"/><text fill="#000000" font-family="sans-serif" font-size="14" lengthAdjust="spacing" textLength="127" x="69" y="24.6738">ShowBoardHistoryUI</text><rect fill="#E2E2F0" height="29.6406" rx="2.5" ry="2.5" style="stroke:#181818;stroke-width:0.5;" width="141" x="62" y="1127.2031"/><text fill="#000000" font-family="sans-serif" font-size="14" lengthAdjust="spacing" textLength="127" x="69" y="1146.877">ShowBoardHistoryUI</text><rect fill="#E2E2F0" height="29.6406" rx="2.5" ry="2.5" style="stroke:#181818;stroke-width:0.5;" width="191" x="213" y="5"/><text fill="#000000" font-family="sans-serif" font-size="14" lengthAdjust="spacing" textLength="177" x="220" y="24.6738">ShowBoardHistoryController</text><rect fill="#E2E2F0" height="29.6406" rx="2.5" ry="2.5" style="stroke:#181818;stroke-width:0.5;" width="191" x="213" y="1127.2031"/><text fill="#000000" font-family="sans-serif" font-size="14" lengthAdjust="spacing" textLength="177" x="220" y="1146.877">ShowBoardHistoryController</text><rect fill="#E2E2F0" height="29.6406" rx="2.5" ry="2.5" style="stroke:#181818;stroke-width:0.5;" width="143" x="414" y="5"/><text fill="#000000" font-family="sans-serif" font-size="14" lengthAdjust="spacing" textLength="129" x="421" y="24.6738">AuthorizationService</text><rect fill="#E2E2F0" height="29.6406" rx="2.5" ry="2.5" style="stroke:#181818;stroke-width:0.5;" width="143" x="414" y="1127.2031"/><text fill="#000000" font-family="sans-serif" font-size="14" lengthAdjust="spacing" textLength="129" x="421" y="1146.877">AuthorizationService</text><rect fill="#E2E2F0" height="29.6406" rx="2.5" ry="2.5" style="stroke:#181818;stroke-width:0.5;" width="93" x="567" y="5"/><text fill="#000000" font-family="sans-serif" font-size="14" lengthAdjust="spacing" textLength="79" x="574" y="24.6738">UserSession</text><rect fill="#E2E2F0" height="29.6406" rx="2.5" ry="2.5" style="stroke:#181818;stroke-width:0.5;" width="93" x="567" y="1127.2031"/><text fill="#000000" font-family="sans-serif" font-size="14" lengthAdjust="spacing" textLength="79" x="574" y="1146.877">UserSession</text><rect fill="#E2E2F0" height="29.6406" rx="2.5" ry="2.5" style="stroke:#181818;stroke-width:0.5;" width="118" x="670" y="5"/><text fill="#000000" font-family="sans-serif" font-size="14" lengthAdjust="spacing" textLength="104" x="677" y="24.6738">SystemUserAuth</text><rect fill="#E2E2F0" height="29.6406" rx="2.5" ry="2.5" style="stroke:#181818;stroke-width:0.5;" width="118" x="670" y="1127.2031"/><text fill="#000000" font-family="sans-serif" font-size="14" lengthAdjust="spacing" textLength="104" x="677" y="1146.877">SystemUserAuth</text><rect fill="#E2E2F0" height="29.6406" rx="2.5" ry="2.5" style="stroke:#181818;stroke-width:0.5;" width="120" x="798" y="5"/><text fill="#000000" font-family="sans-serif" font-size="14" lengthAdjust="spacing" textLength="106" x="805" y="24.6738">BoardRepository</text><rect fill="#E2E2F0" height="29.6406" rx="2.5" ry="2.5" style="stroke:#181818;stroke-width:0.5;" width="120" x="798" y="1127.2031"/><text fill="#000000" font-family="sans-serif" font-size="14" lengthAdjust="spacing" textLength="106" x="805" y="1146.877">BoardRepository</text><rect fill="#E2E2F0" height="29.6406" rx="2.5" ry="2.5" style="stroke:#181818;stroke-width:0.5;" width="117" x="928" y="5"/><text fill="#000000" font-family="sans-serif" font-size="14" lengthAdjust="spacing" textLength="103" x="935" y="24.6738">PostItRepository</text><rect fill="#E2E2F0" height="29.6406" rx="2.5" ry="2.5" style="stroke:#181818;stroke-width:0.5;" width="117" x="928" y="1127.2031"/><text fill="#000000" font-family="sans-serif" font-size="14" lengthAdjust="spacing" textLength="103" x="935" y="1146.877">PostItRepository</text><rect fill="#E2E2F0" height="29.6406" rx="2.5" ry="2.5" style="stroke:#181818;stroke-width:0.5;" width="56" x="1055" y="5"/><text fill="#000000" font-family="sans-serif" font-size="14" lengthAdjust="spacing" textLength="42" x="1062" y="24.6738">PostIts</text><rect fill="#E2E2F0" height="29.6406" rx="2.5" ry="2.5" style="stroke:#181818;stroke-width:0.5;" width="56" x="1055" y="1127.2031"/><text fill="#000000" font-family="sans-serif" font-size="14" lengthAdjust="spacing" textLength="42" x="1062" y="1146.877">PostIts</text><rect fill="#E2E2F0" height="29.6406" rx="2.5" ry="2.5" style="stroke:#181818;stroke-width:0.5;" width="76" x="1121" y="5"/><text fill="#000000" font-family="sans-serif" font-size="14" lengthAdjust="spacing" textLength="62" x="1128" y="24.6738">NumRows</text><rect fill="#E2E2F0" height="29.6406" rx="2.5" ry="2.5" style="stroke:#181818;stroke-width:0.5;" width="76" x="1121" y="1127.2031"/><text fill="#000000" font-family="sans-serif" font-size="14" lengthAdjust="spacing" textLength="62" x="1128" y="1146.877">NumRows</text><rect fill="#E2E2F0" height="29.6406" rx="2.5" ry="2.5" style="stroke:#181818;stroke-width:0.5;" width="97" x="1207" y="5"/><text fill="#000000" font-family="sans-serif" font-size="14" lengthAdjust="spacing" textLength="83" x="1214" y="24.6738">NumColumns</text><rect fill="#E2E2F0" height="29.6406" rx="2.5" ry="2.5" style="stroke:#181818;stroke-width:0.5;" width="97" x="1207" y="1127.2031"/><text fill="#000000" font-family="sans-serif" font-size="14" lengthAdjust="spacing" textLength="83" x="1214" y="1146.877">NumColumns</text><rect fill="#E2E2F0" height="29.6406" rx="2.5" ry="2.5" style="stroke:#181818;stroke-width:0.5;" width="50" x="1314" y="5"/><text fill="#000000" font-family="sans-serif" font-size="14" lengthAdjust="spacing" textLength="36" x="1321" y="24.6738">Name</text><rect fill="#E2E2F0" height="29.6406" rx="2.5" ry="2.5" style="stroke:#181818;stroke-width:0.5;" width="50" x="1314" y="1127.2031"/><text fill="#000000" font-family="sans-serif" font-size="14" lengthAdjust="spacing" textLength="36" x="1321" y="1146.877">Name</text><rect fill="#FFFFFF" height="1044.0391" style="stroke:#181818;stroke-width:1.0;" width="10" x="127.5" y="66.1641"/><rect fill="#FFFFFF" height="306.1406" style="stroke:#181818;stroke-width:1.0;" width="10" x="132.5" y="102.6875"/><rect fill="#FFFFFF" height="237.6172" style="stroke:#181818;stroke-width:1.0;" width="10" x="137.5" y="144.2109"/><rect fill="#FFFFFF" height="184.0938" style="stroke:#181818;stroke-width:1.0;" width="10" x="303.5" y="177.7344"/><rect fill="#FFFFFF" height="56.5234" style="stroke:#181818;stroke-width:1.0;" width="10" x="303.5" y="444.3516"/><rect fill="#FFFFFF" height="56.5234" style="stroke:#181818;stroke-width:1.0;" width="10" x="303.5" y="827.0625"/><rect fill="#FFFFFF" height="14" style="stroke:#181818;stroke-width:1.0;" width="10" x="480.5" y="206.2578"/><rect fill="#FFFFFF" height="14" style="stroke:#181818;stroke-width:1.0;" width="10" x="608.5" y="248.7813"/><rect fill="#FFFFFF" height="14" style="stroke:#181818;stroke-width:1.0;" width="10" x="724" y="291.3047"/><rect fill="#FFFFFF" height="14" style="stroke:#181818;stroke-width:1.0;" width="10" x="724" y="784.5391"/><rect fill="#FFFFFF" height="14" style="stroke:#181818;stroke-width:1.0;" width="10" x="724" y="912.1094"/><rect fill="#FFFFFF" height="14" style="stroke:#181818;stroke-width:1.0;" width="10" x="724" y="954.6328"/><rect fill="#FFFFFF" height="14" style="stroke:#181818;stroke-width:1.0;" width="10" x="724" y="1039.6797"/><rect fill="#FFFFFF" height="14" style="stroke:#181818;stroke-width:1.0;" width="10" x="853" y="333.8281"/><rect fill="#FFFFFF" height="14" style="stroke:#181818;stroke-width:1.0;" width="10" x="853" y="855.5859"/><rect fill="#FFFFFF" height="14" style="stroke:#181818;stroke-width:1.0;" width="10" x="981.5" y="472.875"/><rect fill="#FFFFFF" height="14" style="stroke:#181818;stroke-width:1.0;" width="10" x="1078" y="529.3984"/><rect fill="#FFFFFF" height="14" style="stroke:#181818;stroke-width:1.0;" width="10" x="1078" y="571.9219"/><rect fill="#FFFFFF" height="14" style="stroke:#181818;stroke-width:1.0;" width="10" x="1078" y="656.9688"/><rect fill="#FFFFFF" height="14" style="stroke:#181818;stroke-width:1.0;" width="10" x="1078" y="742.0156"/><rect fill="#FFFFFF" height="14" style="stroke:#181818;stroke-width:1.0;" width="10" x="1154" y="614.4453"/><rect fill="#FFFFFF" height="14" style="stroke:#181818;stroke-width:1.0;" width="10" x="1250.5" y="699.4922"/><rect fill="#FFFFFF" height="14" style="stroke:#181818;stroke-width:1.0;" width="10" x="1334" y="997.1563"/><rect fill="#FFFFFF" height="14" style="stroke:#181818;stroke-width:1.0;" width="10" x="1334" y="1082.2031"/><polygon fill="#181818" points="115.5,62.1641,125.5,66.1641,115.5,70.1641,119.5,66.1641" style="stroke:#181818;stroke-width:1.0;"/><line style="stroke:#181818;stroke-width:1.0;" x1="28.5" x2="121.5" y1="66.1641" y2="66.1641"/><text fill="#000000" font-family="sans-serif" font-size="13" lengthAdjust="spacing" textLength="46" x="35.5" y="61.4092">doShow</text><line style="stroke:#181818;stroke-width:1.0;" x1="137.5" x2="184.5" y1="89.6875" y2="89.6875"/><line style="stroke:#181818;stroke-width:1.0;" x1="184.5" x2="184.5" y1="89.6875" y2="102.6875"/><line style="stroke:#181818;stroke-width:1.0;" x1="143.5" x2="184.5" y1="102.6875" y2="102.6875"/><polygon fill="#181818" points="153.5,98.6875,143.5,102.6875,153.5,106.6875,149.5,102.6875" style="stroke:#181818;stroke-width:1.0;"/><text fill="#000000" font-family="sans-serif" font-size="13" lengthAdjust="spacing" textLength="71" x="149.5" y="84.9326">showBoards</text><line style="stroke:#181818;stroke-width:1.0;" x1="142.5" x2="189.5" y1="131.2109" y2="131.2109"/><line style="stroke:#181818;stroke-width:1.0;" x1="189.5" x2="189.5" y1="131.2109" y2="144.2109"/><line style="stroke:#181818;stroke-width:1.0;" x1="148.5" x2="189.5" y1="144.2109" y2="144.2109"/><polygon fill="#181818" points="158.5,140.2109,148.5,144.2109,158.5,148.2109,154.5,144.2109" style="stroke:#181818;stroke-width:1.0;"/><text fill="#000000" font-family="sans-serif" font-size="13" lengthAdjust="spacing" textLength="100" x="154.5" y="126.4561">buildBoardsMenu</text><polygon fill="#181818" points="291.5,173.7344,301.5,177.7344,291.5,181.7344,295.5,177.7344" style="stroke:#181818;stroke-width:1.0;"/><line style="stroke:#181818;stroke-width:1.0;" x1="147.5" x2="297.5" y1="177.7344" y2="177.7344"/><text fill="#000000" font-family="sans-serif" font-size="13" lengthAdjust="spacing" textLength="94" x="154.5" y="172.9795">findBoardOwned</text><polygon fill="#181818" points="468.5,202.2578,478.5,206.2578,468.5,210.2578,472.5,206.2578" style="stroke:#181818;stroke-width:1.0;"/><line style="stroke:#181818;stroke-width:1.0;" x1="313.5" x2="474.5" y1="206.2578" y2="206.2578"/><text fill="#000000" font-family="sans-serif" font-size="13" lengthAdjust="spacing" textLength="45" x="320.5" y="201.5029">session</text><polygon fill="#181818" points="324.5,216.2578,314.5,220.2578,324.5,224.2578,320.5,220.2578" style="stroke:#181818;stroke-width:1.0;"/><line style="stroke:#181818;stroke-width:1.0;stroke-dasharray:2.0,2.0;" x1="318.5" x2="484.5" y1="220.2578" y2="220.2578"/><polygon fill="#181818" points="596.5,244.7813,606.5,248.7813,596.5,252.7813,600.5,248.7813" style="stroke:#181818;stroke-width:1.0;"/><line style="stroke:#181818;stroke-width:1.0;" x1="313.5" x2="602.5" y1="248.7813" y2="248.7813"/><text fill="#000000" font-family="sans-serif" font-size="13" lengthAdjust="spacing" textLength="105" x="320.5" y="244.0264">authenticatedUser</text><polygon fill="#181818" points="324.5,258.7813,314.5,262.7813,324.5,266.7813,320.5,262.7813" style="stroke:#181818;stroke-width:1.0;"/><line style="stroke:#181818;stroke-width:1.0;stroke-dasharray:2.0,2.0;" x1="318.5" x2="612.5" y1="262.7813" y2="262.7813"/><polygon fill="#181818" points="712,287.3047,722,291.3047,712,295.3047,716,291.3047" style="stroke:#181818;stroke-width:1.0;"/><line style="stroke:#181818;stroke-width:1.0;" x1="313.5" x2="718" y1="291.3047" y2="291.3047"/><text fill="#000000" font-family="sans-serif" font-size="13" lengthAdjust="spacing" textLength="31" x="320.5" y="286.5498">email</text><polygon fill="#181818" points="324.5,301.3047,314.5,305.3047,324.5,309.3047,320.5,305.3047" style="stroke:#181818;stroke-width:1.0;"/><line style="stroke:#181818;stroke-width:1.0;stroke-dasharray:2.0,2.0;" x1="318.5" x2="728" y1="305.3047" y2="305.3047"/><polygon fill="#181818" points="841,329.8281,851,333.8281,841,337.8281,845,333.8281" style="stroke:#181818;stroke-width:1.0;"/><line style="stroke:#181818;stroke-width:1.0;" x1="313.5" x2="847" y1="333.8281" y2="333.8281"/><text fill="#000000" font-family="sans-serif" font-size="13" lengthAdjust="spacing" textLength="94" x="320.5" y="329.0732">findBoardOwned</text><polygon fill="#181818" points="324.5,343.8281,314.5,347.8281,324.5,351.8281,320.5,347.8281" style="stroke:#181818;stroke-width:1.0;"/><line style="stroke:#181818;stroke-width:1.0;stroke-dasharray:2.0,2.0;" x1="318.5" x2="857" y1="347.8281" y2="347.8281"/><polygon fill="#181818" points="158.5,357.8281,148.5,361.8281,158.5,365.8281,154.5,361.8281" style="stroke:#181818;stroke-width:1.0;"/><line style="stroke:#181818;stroke-width:1.0;stroke-dasharray:2.0,2.0;" x1="152.5" x2="307.5" y1="361.8281" y2="361.8281"/><line style="stroke:#181818;stroke-width:1.0;stroke-dasharray:2.0,2.0;" x1="147.5" x2="189.5" y1="380.8281" y2="380.8281"/><line style="stroke:#181818;stroke-width:1.0;stroke-dasharray:2.0,2.0;" x1="189.5" x2="189.5" y1="380.8281" y2="393.8281"/><line style="stroke:#181818;stroke-width:1.0;stroke-dasharray:2.0,2.0;" x1="142.5" x2="189.5" y1="393.8281" y2="393.8281"/><polygon fill="#181818" points="152.5,389.8281,142.5,393.8281,152.5,397.8281,148.5,393.8281" style="stroke:#181818;stroke-width:1.0;"/><line style="stroke:#181818;stroke-width:1.0;stroke-dasharray:2.0,2.0;" x1="142.5" x2="184.5" y1="407.8281" y2="407.8281"/><line style="stroke:#181818;stroke-width:1.0;stroke-dasharray:2.0,2.0;" x1="184.5" x2="184.5" y1="407.8281" y2="420.8281"/><line style="stroke:#181818;stroke-width:1.0;stroke-dasharray:2.0,2.0;" x1="137.5" x2="184.5" y1="420.8281" y2="420.8281"/><polygon fill="#181818" points="147.5,416.8281,137.5,420.8281,147.5,424.8281,143.5,420.8281" style="stroke:#181818;stroke-width:1.0;"/><polygon fill="#181818" points="291.5,440.3516,301.5,444.3516,291.5,448.3516,295.5,444.3516" style="stroke:#181818;stroke-width:1.0;"/><line style="stroke:#181818;stroke-width:1.0;" x1="137.5" x2="297.5" y1="444.3516" y2="444.3516"/><text fill="#000000" font-family="sans-serif" font-size="13" lengthAdjust="spacing" textLength="139" x="144.5" y="439.5967">showHistoryBoardPostIt</text><polygon fill="#181818" points="969.5,468.875,979.5,472.875,969.5,476.875,973.5,472.875" style="stroke:#181818;stroke-width:1.0;"/><line style="stroke:#181818;stroke-width:1.0;" x1="313.5" x2="975.5" y1="472.875" y2="472.875"/><text fill="#000000" font-family="sans-serif" font-size="13" lengthAdjust="spacing" textLength="114" x="320.5" y="468.1201">findPostItByBoardId</text><polygon fill="#181818" points="324.5,482.875,314.5,486.875,324.5,490.875,320.5,486.875" style="stroke:#181818;stroke-width:1.0;"/><line style="stroke:#181818;stroke-width:1.0;stroke-dasharray:2.0,2.0;" x1="318.5" x2="985.5" y1="486.875" y2="486.875"/><polygon fill="#181818" points="148.5,496.875,138.5,500.875,148.5,504.875,144.5,500.875" style="stroke:#181818;stroke-width:1.0;"/><line style="stroke:#181818;stroke-width:1.0;stroke-dasharray:2.0,2.0;" x1="142.5" x2="307.5" y1="500.875" y2="500.875"/><polygon fill="#181818" points="1066,525.3984,1076,529.3984,1066,533.3984,1070,529.3984" style="stroke:#181818;stroke-width:1.0;"/><line style="stroke:#181818;stroke-width:1.0;" x1="137.5" x2="1072" y1="529.3984" y2="529.3984"/><text fill="#000000" font-family="sans-serif" font-size="13" lengthAdjust="spacing" textLength="25" x="144.5" y="524.6436">data</text><polygon fill="#181818" points="148.5,539.3984,138.5,543.3984,148.5,547.3984,144.5,543.3984" style="stroke:#181818;stroke-width:1.0;"/><line style="stroke:#181818;stroke-width:1.0;stroke-dasharray:2.0,2.0;" x1="142.5" x2="1082" y1="543.3984" y2="543.3984"/><polygon fill="#181818" points="1066,567.9219,1076,571.9219,1066,575.9219,1070,571.9219" style="stroke:#181818;stroke-width:1.0;"/><line style="stroke:#181818;stroke-width:1.0;" x1="137.5" x2="1072" y1="571.9219" y2="571.9219"/><text fill="#000000" font-family="sans-serif" font-size="13" lengthAdjust="spacing" textLength="57" x="144.5" y="567.167">numRows</text><polygon fill="#181818" points="148.5,581.9219,138.5,585.9219,148.5,589.9219,144.5,585.9219" style="stroke:#181818;stroke-width:1.0;"/><line style="stroke:#181818;stroke-width:1.0;stroke-dasharray:2.0,2.0;" x1="142.5" x2="1082" y1="585.9219" y2="585.9219"/><polygon fill="#181818" points="1142,610.4453,1152,614.4453,1142,618.4453,1146,614.4453" style="stroke:#181818;stroke-width:1.0;"/><line style="stroke:#181818;stroke-width:1.0;" x1="137.5" x2="1148" y1="614.4453" y2="614.4453"/><text fill="#000000" font-family="sans-serif" font-size="13" lengthAdjust="spacing" textLength="57" x="144.5" y="609.6904">numRows</text><polygon fill="#181818" points="148.5,624.4453,138.5,628.4453,148.5,632.4453,144.5,628.4453" style="stroke:#181818;stroke-width:1.0;"/><line style="stroke:#181818;stroke-width:1.0;stroke-dasharray:2.0,2.0;" x1="142.5" x2="1158" y1="628.4453" y2="628.4453"/><polygon fill="#181818" points="1066,652.9688,1076,656.9688,1066,660.9688,1070,656.9688" style="stroke:#181818;stroke-width:1.0;"/><line style="stroke:#181818;stroke-width:1.0;" x1="137.5" x2="1072" y1="656.9688" y2="656.9688"/><text fill="#000000" font-family="sans-serif" font-size="13" lengthAdjust="spacing" textLength="76" x="144.5" y="652.2139">numColumns</text><polygon fill="#181818" points="148.5,666.9688,138.5,670.9688,148.5,674.9688,144.5,670.9688" style="stroke:#181818;stroke-width:1.0;"/><line style="stroke:#181818;stroke-width:1.0;stroke-dasharray:2.0,2.0;" x1="142.5" x2="1082" y1="670.9688" y2="670.9688"/><polygon fill="#181818" points="1238.5,695.4922,1248.5,699.4922,1238.5,703.4922,1242.5,699.4922" style="stroke:#181818;stroke-width:1.0;"/><line style="stroke:#181818;stroke-width:1.0;" x1="137.5" x2="1244.5" y1="699.4922" y2="699.4922"/><text fill="#000000" font-family="sans-serif" font-size="13" lengthAdjust="spacing" textLength="76" x="144.5" y="694.7373">numColumns</text><polygon fill="#181818" points="148.5,709.4922,138.5,713.4922,148.5,717.4922,144.5,713.4922" style="stroke:#181818;stroke-width:1.0;"/><line style="stroke:#181818;stroke-width:1.0;stroke-dasharray:2.0,2.0;" x1="142.5" x2="1254.5" y1="713.4922" y2="713.4922"/><polygon fill="#181818" points="1066,738.0156,1076,742.0156,1066,746.0156,1070,742.0156" style="stroke:#181818;stroke-width:1.0;"/><line style="stroke:#181818;stroke-width:1.0;" x1="137.5" x2="1072" y1="742.0156" y2="742.0156"/><text fill="#000000" font-family="sans-serif" font-size="13" lengthAdjust="spacing" textLength="36" x="144.5" y="737.2607">author</text><polygon fill="#181818" points="148.5,752.0156,138.5,756.0156,148.5,760.0156,144.5,756.0156" style="stroke:#181818;stroke-width:1.0;"/><line style="stroke:#181818;stroke-width:1.0;stroke-dasharray:2.0,2.0;" x1="142.5" x2="1082" y1="756.0156" y2="756.0156"/><polygon fill="#181818" points="712,780.5391,722,784.5391,712,788.5391,716,784.5391" style="stroke:#181818;stroke-width:1.0;"/><line style="stroke:#181818;stroke-width:1.0;" x1="137.5" x2="718" y1="784.5391" y2="784.5391"/><text fill="#000000" font-family="sans-serif" font-size="13" lengthAdjust="spacing" textLength="31" x="144.5" y="779.7842">email</text><polygon fill="#181818" points="148.5,794.5391,138.5,798.5391,148.5,802.5391,144.5,798.5391" style="stroke:#181818;stroke-width:1.0;"/><line style="stroke:#181818;stroke-width:1.0;stroke-dasharray:2.0,2.0;" x1="142.5" x2="728" y1="798.5391" y2="798.5391"/><polygon fill="#181818" points="291.5,823.0625,301.5,827.0625,291.5,831.0625,295.5,827.0625" style="stroke:#181818;stroke-width:1.0;"/><line style="stroke:#181818;stroke-width:1.0;" x1="137.5" x2="297.5" y1="827.0625" y2="827.0625"/><text fill="#000000" font-family="sans-serif" font-size="13" lengthAdjust="spacing" textLength="139" x="144.5" y="822.3076">showHistoryBoardUsers</text><polygon fill="#181818" points="841,851.5859,851,855.5859,841,859.5859,845,855.5859" style="stroke:#181818;stroke-width:1.0;"/><line style="stroke:#181818;stroke-width:1.0;" x1="313.5" x2="847" y1="855.5859" y2="855.5859"/><text fill="#000000" font-family="sans-serif" font-size="13" lengthAdjust="spacing" textLength="99" x="320.5" y="850.8311">findUsersPresent</text><polygon fill="#181818" points="324.5,865.5859,314.5,869.5859,324.5,873.5859,320.5,869.5859" style="stroke:#181818;stroke-width:1.0;"/><line style="stroke:#181818;stroke-width:1.0;stroke-dasharray:2.0,2.0;" x1="318.5" x2="857" y1="869.5859" y2="869.5859"/><polygon fill="#181818" points="148.5,879.5859,138.5,883.5859,148.5,887.5859,144.5,883.5859" style="stroke:#181818;stroke-width:1.0;"/><line style="stroke:#181818;stroke-width:1.0;stroke-dasharray:2.0,2.0;" x1="142.5" x2="307.5" y1="883.5859" y2="883.5859"/><polygon fill="#181818" points="712,908.1094,722,912.1094,712,916.1094,716,912.1094" style="stroke:#181818;stroke-width:1.0;"/><line style="stroke:#181818;stroke-width:1.0;" x1="137.5" x2="718" y1="912.1094" y2="912.1094"/><text fill="#000000" font-family="sans-serif" font-size="13" lengthAdjust="spacing" textLength="31" x="144.5" y="907.3545">email</text><polygon fill="#181818" points="148.5,922.1094,138.5,926.1094,148.5,930.1094,144.5,926.1094" style="stroke:#181818;stroke-width:1.0;"/><line style="stroke:#181818;stroke-width:1.0;stroke-dasharray:2.0,2.0;" x1="142.5" x2="728" y1="926.1094" y2="926.1094"/><polygon fill="#181818" points="712,950.6328,722,954.6328,712,958.6328,716,954.6328" style="stroke:#181818;stroke-width:1.0;"/><line style="stroke:#181818;stroke-width:1.0;" x1="137.5" x2="718" y1="954.6328" y2="954.6328"/><text fill="#000000" font-family="sans-serif" font-size="13" lengthAdjust="spacing" textLength="32" x="144.5" y="949.8779">name</text><polygon fill="#181818" points="148.5,964.6328,138.5,968.6328,148.5,972.6328,144.5,968.6328" style="stroke:#181818;stroke-width:1.0;"/><line style="stroke:#181818;stroke-width:1.0;stroke-dasharray:2.0,2.0;" x1="142.5" x2="728" y1="968.6328" y2="968.6328"/><polygon fill="#181818" points="1322,993.1563,1332,997.1563,1322,1001.1563,1326,997.1563" style="stroke:#181818;stroke-width:1.0;"/><line style="stroke:#181818;stroke-width:1.0;" x1="137.5" x2="1328" y1="997.1563" y2="997.1563"/><text fill="#000000" font-family="sans-serif" font-size="13" lengthAdjust="spacing" textLength="50" x="144.5" y="992.4014">fullName</text><polygon fill="#181818" points="148.5,1007.1563,138.5,1011.1563,148.5,1015.1563,144.5,1011.1563" style="stroke:#181818;stroke-width:1.0;"/><line style="stroke:#181818;stroke-width:1.0;stroke-dasharray:2.0,2.0;" x1="142.5" x2="1338" y1="1011.1563" y2="1011.1563"/><polygon fill="#181818" points="712,1035.6797,722,1039.6797,712,1043.6797,716,1039.6797" style="stroke:#181818;stroke-width:1.0;"/><line style="stroke:#181818;stroke-width:1.0;" x1="137.5" x2="718" y1="1039.6797" y2="1039.6797"/><text fill="#000000" font-family="sans-serif" font-size="13" lengthAdjust="spacing" textLength="32" x="144.5" y="1034.9248">name</text><polygon fill="#181818" points="148.5,1049.6797,138.5,1053.6797,148.5,1057.6797,144.5,1053.6797" style="stroke:#181818;stroke-width:1.0;"/><line style="stroke:#181818;stroke-width:1.0;stroke-dasharray:2.0,2.0;" x1="142.5" x2="728" y1="1053.6797" y2="1053.6797"/><polygon fill="#181818" points="1322,1078.2031,1332,1082.2031,1322,1086.2031,1326,1082.2031" style="stroke:#181818;stroke-width:1.0;"/><line style="stroke:#181818;stroke-width:1.0;" x1="137.5" x2="1328" y1="1082.2031" y2="1082.2031"/><text fill="#000000" font-family="sans-serif" font-size="13" lengthAdjust="spacing" textLength="63" x="144.5" y="1077.4482">shortName</text><polygon fill="#181818" points="148.5,1092.2031,138.5,1096.2031,148.5,1100.2031,144.5,1096.2031" style="stroke:#181818;stroke-width:1.0;"/><line style="stroke:#181818;stroke-width:1.0;stroke-dasharray:2.0,2.0;" x1="142.5" x2="1338" y1="1096.2031" y2="1096.2031"/><polygon fill="#181818" points="39.5,1106.2031,29.5,1110.2031,39.5,1114.2031,35.5,1110.2031" style="stroke:#181818;stroke-width:1.0;"/><line style="stroke:#181818;stroke-width:1.0;stroke-dasharray:2.0,2.0;" x1="33.5" x2="131.5" y1="1110.2031" y2="1110.2031"/><!--SRC=[tLLBRi8m4Dtx5Ba05-YY4cLJ5gM8Y0EuoLHOScpa3uYUllvW9PZ4STk0K3T8U6RU9-FnxB5Gf29xp5GnhnGNoFqMi-UYtF7Z2yUYVYNI79sso-AfgBazHhXIv80Lz2IXdheXD1aEvLI87vhGsaE-0TCJm2uuKu9J2iB0VnBcqT-F3EfXzBO89V0Csroh7HVa2ol2MGdYG2gm7mQaD0SjGLyUwYsU9JsW6jAOQRbR2QBqsenAR020cVjZq6eRQlLs4b6tA5zT5o4jgZn91OtDjuwCBcWmePtcNCHHb9wlACP9YdAH3Uov93QOk3jH9eehymN6I2c5lGDquJR_Ijl1-J7Um01EXJCooFRbEP-xd3MNQgac66WFTDLuV_pYoPQTxiVvw0eWl_zNMFUy0C6wj5i2AnnRb2Z4nwb3nHWFqys67-Njg5QUe8_g748XPPmgL6IuMd2g6tPROsUE0S8s0NLoiqo6kZ6VsEsVstcSVYz40vBU1xzuXIoMdE0Hwby-3dqjG9gT_T_MpwDqEnR1S0Dtrh0obBRZcjBL1Rlxvw8POsnp7zwZcH-X_cXIWDA2VGC0]--></g></svg>