<?xml version="1.0" encoding="us-ascii" standalone="no"?><svg xmlns="http://www.w3.org/2000/svg" xmlns:xlink="http://www.w3.org/1999/xlink" contentStyleType="text/css" height="516px" preserveAspectRatio="none" style="width:394px;height:516px;background:#FFFFFF;" version="1.1" viewBox="0 0 394 516" width="394px" zoomAndPan="magnify"><defs/><g><!--class MainMenu--><g id="elem_MainMenu"><rect codeLine="1" fill="#F1F1F1" height="85.2422" id="MainMenu" rx="2.5" ry="2.5" style="stroke:#181818;stroke-width:0.5;" width="147" x="128" y="7"/><ellipse cx="165.5" cy="23" fill="#ADD1B2" rx="11" ry="11" style="stroke:#181818;stroke-width:1.0;"/><path d="M168.2656,18.875 Q168.4219,18.6563 168.6094,18.5469 Q168.7969,18.4375 169.0156,18.4375 Q169.3906,18.4375 169.625,18.7031 Q169.8594,18.9531 169.8594,19.5625 L169.8594,21.0156 Q169.8594,21.625 169.625,21.8906 Q169.3906,22.1563 169.0156,22.1563 Q168.6719,22.1563 168.4688,21.9531 Q168.2656,21.7656 168.1563,21.25 Q168.1094,20.8906 167.9219,20.7031 Q167.5938,20.3281 166.9844,20.1094 Q166.375,19.8906 165.75,19.8906 Q164.9844,19.8906 164.3438,20.2188 Q163.7188,20.5469 163.2188,21.2969 Q162.7344,22.0469 162.7344,23.0781 L162.7344,24.1719 Q162.7344,25.4063 163.625,26.2344 Q164.5156,27.0469 166.1094,27.0469 Q167.0469,27.0469 167.7031,26.7969 Q168.0938,26.6406 168.5156,26.2031 Q168.7813,25.9375 168.9219,25.8594 Q169.0781,25.7813 169.2813,25.7813 Q169.6094,25.7813 169.8594,26.0469 Q170.125,26.2969 170.125,26.6406 Q170.125,26.9844 169.7813,27.3906 Q169.2813,27.9688 168.4844,28.2969 Q167.4063,28.75 166.1094,28.75 Q164.5938,28.75 163.3906,28.125 Q162.4063,27.625 161.7188,26.5625 Q161.0313,25.4844 161.0313,24.2031 L161.0313,23.0469 Q161.0313,21.7188 161.6406,20.5781 Q162.2656,19.4219 163.3594,18.8125 Q164.4531,18.1875 165.6875,18.1875 Q166.4219,18.1875 167.0625,18.3594 Q167.7188,18.5156 168.2656,18.875 Z " fill="#000000"/><text fill="#000000" font-family="sans-serif" font-size="14" lengthAdjust="spacing" textLength="65" x="184.5" y="28.7969">MainMenu</text><line style="stroke:#181818;stroke-width:0.5;" x1="129" x2="274" y1="39" y2="39"/><line style="stroke:#181818;stroke-width:0.5;" x1="129" x2="274" y1="47" y2="47"/><ellipse cx="139" cy="61.8105" fill="#84BE84" rx="3" ry="3" style="stroke:#038048;stroke-width:1.0;"/><text fill="#000000" font-family="sans-serif" font-size="14" lengthAdjust="spacing" textLength="121" x="148" y="66.1074">CreateCourseUI()()</text><ellipse cx="139" cy="80.4316" fill="#84BE84" rx="3" ry="3" style="stroke:#038048;stroke-width:1.0;"/><text fill="#000000" font-family="sans-serif" font-size="14" lengthAdjust="spacing" textLength="117" x="148" y="84.7285">ListCourseAction()</text></g><!--class CreateCourseUI--><g id="elem_CreateCourseUI"><rect codeLine="6" fill="#F1F1F1" height="66.6211" id="CreateCourseUI" rx="2.5" ry="2.5" style="stroke:#181818;stroke-width:0.5;" width="133" x="50" y="152"/><ellipse cx="65" cy="168" fill="#ADD1B2" rx="11" ry="11" style="stroke:#181818;stroke-width:1.0;"/><path d="M67.7656,163.875 Q67.9219,163.6563 68.1094,163.5469 Q68.2969,163.4375 68.5156,163.4375 Q68.8906,163.4375 69.125,163.7031 Q69.3594,163.9531 69.3594,164.5625 L69.3594,166.0156 Q69.3594,166.625 69.125,166.8906 Q68.8906,167.1563 68.5156,167.1563 Q68.1719,167.1563 67.9688,166.9531 Q67.7656,166.7656 67.6563,166.25 Q67.6094,165.8906 67.4219,165.7031 Q67.0938,165.3281 66.4844,165.1094 Q65.875,164.8906 65.25,164.8906 Q64.4844,164.8906 63.8438,165.2188 Q63.2188,165.5469 62.7188,166.2969 Q62.2344,167.0469 62.2344,168.0781 L62.2344,169.1719 Q62.2344,170.4063 63.125,171.2344 Q64.0156,172.0469 65.6094,172.0469 Q66.5469,172.0469 67.2031,171.7969 Q67.5938,171.6406 68.0156,171.2031 Q68.2813,170.9375 68.4219,170.8594 Q68.5781,170.7813 68.7813,170.7813 Q69.1094,170.7813 69.3594,171.0469 Q69.625,171.2969 69.625,171.6406 Q69.625,171.9844 69.2813,172.3906 Q68.7813,172.9688 67.9844,173.2969 Q66.9063,173.75 65.6094,173.75 Q64.0938,173.75 62.8906,173.125 Q61.9063,172.625 61.2188,171.5625 Q60.5313,170.4844 60.5313,169.2031 L60.5313,168.0469 Q60.5313,166.7188 61.1406,165.5781 Q61.7656,164.4219 62.8594,163.8125 Q63.9531,163.1875 65.1875,163.1875 Q65.9219,163.1875 66.5625,163.3594 Q67.2188,163.5156 67.7656,163.875 Z " fill="#000000"/><text fill="#000000" font-family="sans-serif" font-size="14" lengthAdjust="spacing" textLength="101" x="79" y="173.7969">CreateCourseUI</text><line style="stroke:#181818;stroke-width:0.5;" x1="51" x2="182" y1="184" y2="184"/><line style="stroke:#181818;stroke-width:0.5;" x1="51" x2="182" y1="192" y2="192"/><ellipse cx="61" cy="206.8105" fill="#84BE84" rx="3" ry="3" style="stroke:#038048;stroke-width:1.0;"/><text fill="#000000" font-family="sans-serif" font-size="14" lengthAdjust="spacing" textLength="60" x="70" y="211.1074">doShow()</text></g><!--class ListCourseAction--><g id="elem_ListCourseAction"><rect codeLine="10" fill="#F1F1F1" height="66.6211" id="ListCourseAction" rx="2.5" ry="2.5" style="stroke:#181818;stroke-width:0.5;" width="139" x="227" y="152"/><ellipse cx="242" cy="168" fill="#ADD1B2" rx="11" ry="11" style="stroke:#181818;stroke-width:1.0;"/><path d="M244.7656,163.875 Q244.9219,163.6563 245.1094,163.5469 Q245.2969,163.4375 245.5156,163.4375 Q245.8906,163.4375 246.125,163.7031 Q246.3594,163.9531 246.3594,164.5625 L246.3594,166.0156 Q246.3594,166.625 246.125,166.8906 Q245.8906,167.1563 245.5156,167.1563 Q245.1719,167.1563 244.9688,166.9531 Q244.7656,166.7656 244.6563,166.25 Q244.6094,165.8906 244.4219,165.7031 Q244.0938,165.3281 243.4844,165.1094 Q242.875,164.8906 242.25,164.8906 Q241.4844,164.8906 240.8438,165.2188 Q240.2188,165.5469 239.7188,166.2969 Q239.2344,167.0469 239.2344,168.0781 L239.2344,169.1719 Q239.2344,170.4063 240.125,171.2344 Q241.0156,172.0469 242.6094,172.0469 Q243.5469,172.0469 244.2031,171.7969 Q244.5938,171.6406 245.0156,171.2031 Q245.2813,170.9375 245.4219,170.8594 Q245.5781,170.7813 245.7813,170.7813 Q246.1094,170.7813 246.3594,171.0469 Q246.625,171.2969 246.625,171.6406 Q246.625,171.9844 246.2813,172.3906 Q245.7813,172.9688 244.9844,173.2969 Q243.9063,173.75 242.6094,173.75 Q241.0938,173.75 239.8906,173.125 Q238.9063,172.625 238.2188,171.5625 Q237.5313,170.4844 237.5313,169.2031 L237.5313,168.0469 Q237.5313,166.7188 238.1406,165.5781 Q238.7656,164.4219 239.8594,163.8125 Q240.9531,163.1875 242.1875,163.1875 Q242.9219,163.1875 243.5625,163.3594 Q244.2188,163.5156 244.7656,163.875 Z " fill="#000000"/><text fill="#000000" font-family="sans-serif" font-size="14" lengthAdjust="spacing" textLength="107" x="256" y="173.7969">ListCourseAction</text><line style="stroke:#181818;stroke-width:0.5;" x1="228" x2="365" y1="184" y2="184"/><line style="stroke:#181818;stroke-width:0.5;" x1="228" x2="365" y1="192" y2="192"/><ellipse cx="238" cy="206.8105" fill="#84BE84" rx="3" ry="3" style="stroke:#038048;stroke-width:1.0;"/><text fill="#000000" font-family="sans-serif" font-size="14" lengthAdjust="spacing" textLength="59" x="247" y="211.1074">execute()</text></g><!--class CourseRepository--><g id="elem_CourseRepository"><rect codeLine="14" fill="#F1F1F1" height="103.8633" id="CourseRepository" rx="2.5" ry="2.5" style="stroke:#181818;stroke-width:0.5;" width="146" x="129.5" y="406"/><ellipse cx="144.5" cy="422" fill="#ADD1B2" rx="11" ry="11" style="stroke:#181818;stroke-width:1.0;"/><path d="M147.2656,417.875 Q147.4219,417.6563 147.6094,417.5469 Q147.7969,417.4375 148.0156,417.4375 Q148.3906,417.4375 148.625,417.7031 Q148.8594,417.9531 148.8594,418.5625 L148.8594,420.0156 Q148.8594,420.625 148.625,420.8906 Q148.3906,421.1563 148.0156,421.1563 Q147.6719,421.1563 147.4688,420.9531 Q147.2656,420.7656 147.1563,420.25 Q147.1094,419.8906 146.9219,419.7031 Q146.5938,419.3281 145.9844,419.1094 Q145.375,418.8906 144.75,418.8906 Q143.9844,418.8906 143.3438,419.2188 Q142.7188,419.5469 142.2188,420.2969 Q141.7344,421.0469 141.7344,422.0781 L141.7344,423.1719 Q141.7344,424.4063 142.625,425.2344 Q143.5156,426.0469 145.1094,426.0469 Q146.0469,426.0469 146.7031,425.7969 Q147.0938,425.6406 147.5156,425.2031 Q147.7813,424.9375 147.9219,424.8594 Q148.0781,424.7813 148.2813,424.7813 Q148.6094,424.7813 148.8594,425.0469 Q149.125,425.2969 149.125,425.6406 Q149.125,425.9844 148.7813,426.3906 Q148.2813,426.9688 147.4844,427.2969 Q146.4063,427.75 145.1094,427.75 Q143.5938,427.75 142.3906,427.125 Q141.4063,426.625 140.7188,425.5625 Q140.0313,424.4844 140.0313,423.2031 L140.0313,422.0469 Q140.0313,420.7188 140.6406,419.5781 Q141.2656,418.4219 142.3594,417.8125 Q143.4531,417.1875 144.6875,417.1875 Q145.4219,417.1875 146.0625,417.3594 Q146.7188,417.5156 147.2656,417.875 Z " fill="#000000"/><text fill="#000000" font-family="sans-serif" font-size="14" lengthAdjust="spacing" textLength="114" x="158.5" y="427.7969">CourseRepository</text><line style="stroke:#181818;stroke-width:0.5;" x1="130.5" x2="274.5" y1="438" y2="438"/><line style="stroke:#181818;stroke-width:0.5;" x1="130.5" x2="274.5" y1="446" y2="446"/><ellipse cx="140.5" cy="460.8105" fill="#84BE84" rx="3" ry="3" style="stroke:#038048;stroke-width:1.0;"/><text fill="#000000" font-family="sans-serif" font-size="14" lengthAdjust="spacing" textLength="83" x="149.5" y="465.1074">findByCode()</text><ellipse cx="140.5" cy="479.4316" fill="#84BE84" rx="3" ry="3" style="stroke:#038048;stroke-width:1.0;"/><text fill="#000000" font-family="sans-serif" font-size="14" lengthAdjust="spacing" textLength="86" x="149.5" y="483.7285">findAllActive()</text><ellipse cx="140.5" cy="498.0527" fill="#84BE84" rx="3" ry="3" style="stroke:#038048;stroke-width:1.0;"/><text fill="#000000" font-family="sans-serif" font-size="14" lengthAdjust="spacing" textLength="40" x="149.5" y="502.3496">save()</text></g><!--class CreateCourseController--><g id="elem_CreateCourseController"><rect codeLine="20" fill="#F1F1F1" height="66.6211" id="CreateCourseController" rx="2.5" ry="2.5" style="stroke:#181818;stroke-width:0.5;" width="183" x="7" y="279"/><ellipse cx="22" cy="295" fill="#ADD1B2" rx="11" ry="11" style="stroke:#181818;stroke-width:1.0;"/><path d="M24.7656,290.875 Q24.9219,290.6563 25.1094,290.5469 Q25.2969,290.4375 25.5156,290.4375 Q25.8906,290.4375 26.125,290.7031 Q26.3594,290.9531 26.3594,291.5625 L26.3594,293.0156 Q26.3594,293.625 26.125,293.8906 Q25.8906,294.1563 25.5156,294.1563 Q25.1719,294.1563 24.9688,293.9531 Q24.7656,293.7656 24.6563,293.25 Q24.6094,292.8906 24.4219,292.7031 Q24.0938,292.3281 23.4844,292.1094 Q22.875,291.8906 22.25,291.8906 Q21.4844,291.8906 20.8438,292.2188 Q20.2188,292.5469 19.7188,293.2969 Q19.2344,294.0469 19.2344,295.0781 L19.2344,296.1719 Q19.2344,297.4063 20.125,298.2344 Q21.0156,299.0469 22.6094,299.0469 Q23.5469,299.0469 24.2031,298.7969 Q24.5938,298.6406 25.0156,298.2031 Q25.2813,297.9375 25.4219,297.8594 Q25.5781,297.7813 25.7813,297.7813 Q26.1094,297.7813 26.3594,298.0469 Q26.625,298.2969 26.625,298.6406 Q26.625,298.9844 26.2813,299.3906 Q25.7813,299.9688 24.9844,300.2969 Q23.9063,300.75 22.6094,300.75 Q21.0938,300.75 19.8906,300.125 Q18.9063,299.625 18.2188,298.5625 Q17.5313,297.4844 17.5313,296.2031 L17.5313,295.0469 Q17.5313,293.7188 18.1406,292.5781 Q18.7656,291.4219 19.8594,290.8125 Q20.9531,290.1875 22.1875,290.1875 Q22.9219,290.1875 23.5625,290.3594 Q24.2188,290.5156 24.7656,290.875 Z " fill="#000000"/><text fill="#000000" font-family="sans-serif" font-size="14" lengthAdjust="spacing" textLength="151" x="36" y="300.7969">CreateCourseController</text><line style="stroke:#181818;stroke-width:0.5;" x1="8" x2="189" y1="311" y2="311"/><line style="stroke:#181818;stroke-width:0.5;" x1="8" x2="189" y1="319" y2="319"/><ellipse cx="18" cy="333.8105" fill="#84BE84" rx="3" ry="3" style="stroke:#038048;stroke-width:1.0;"/><text fill="#000000" font-family="sans-serif" font-size="14" lengthAdjust="spacing" textLength="96" x="27" y="338.1074">createCourse()</text></g><!--class ListCourseController--><g id="elem_ListCourseController"><rect codeLine="24" fill="#F1F1F1" height="66.6211" id="ListCourseController" rx="2.5" ry="2.5" style="stroke:#181818;stroke-width:0.5;" width="162" x="225.5" y="279"/><ellipse cx="240.5" cy="295" fill="#ADD1B2" rx="11" ry="11" style="stroke:#181818;stroke-width:1.0;"/><path d="M243.2656,290.875 Q243.4219,290.6563 243.6094,290.5469 Q243.7969,290.4375 244.0156,290.4375 Q244.3906,290.4375 244.625,290.7031 Q244.8594,290.9531 244.8594,291.5625 L244.8594,293.0156 Q244.8594,293.625 244.625,293.8906 Q244.3906,294.1563 244.0156,294.1563 Q243.6719,294.1563 243.4688,293.9531 Q243.2656,293.7656 243.1563,293.25 Q243.1094,292.8906 242.9219,292.7031 Q242.5938,292.3281 241.9844,292.1094 Q241.375,291.8906 240.75,291.8906 Q239.9844,291.8906 239.3438,292.2188 Q238.7188,292.5469 238.2188,293.2969 Q237.7344,294.0469 237.7344,295.0781 L237.7344,296.1719 Q237.7344,297.4063 238.625,298.2344 Q239.5156,299.0469 241.1094,299.0469 Q242.0469,299.0469 242.7031,298.7969 Q243.0938,298.6406 243.5156,298.2031 Q243.7813,297.9375 243.9219,297.8594 Q244.0781,297.7813 244.2813,297.7813 Q244.6094,297.7813 244.8594,298.0469 Q245.125,298.2969 245.125,298.6406 Q245.125,298.9844 244.7813,299.3906 Q244.2813,299.9688 243.4844,300.2969 Q242.4063,300.75 241.1094,300.75 Q239.5938,300.75 238.3906,300.125 Q237.4063,299.625 236.7188,298.5625 Q236.0313,297.4844 236.0313,296.2031 L236.0313,295.0469 Q236.0313,293.7188 236.6406,292.5781 Q237.2656,291.4219 238.3594,290.8125 Q239.4531,290.1875 240.6875,290.1875 Q241.4219,290.1875 242.0625,290.3594 Q242.7188,290.5156 243.2656,290.875 Z " fill="#000000"/><text fill="#000000" font-family="sans-serif" font-size="14" lengthAdjust="spacing" textLength="130" x="254.5" y="300.7969">ListCourseController</text><line style="stroke:#181818;stroke-width:0.5;" x1="226.5" x2="386.5" y1="311" y2="311"/><line style="stroke:#181818;stroke-width:0.5;" x1="226.5" x2="386.5" y1="319" y2="319"/><ellipse cx="236.5" cy="333.8105" fill="#84BE84" rx="3" ry="3" style="stroke:#038048;stroke-width:1.0;"/><text fill="#000000" font-family="sans-serif" font-size="14" lengthAdjust="spacing" textLength="73" x="245.5" y="338.1074">listCourse()</text></g><!--link MainMenu to ListCourseAction--><g id="link_MainMenu_ListCourseAction"><path codeLine="29" d="M231.04,92.16 C240.72,105.82 251.57,121.12 261.61,135.28 " fill="none" id="MainMenu-to-ListCourseAction" style="stroke:#181818;stroke-width:1.0;"/><polygon fill="none" points="267.46,131.43,273.32,151.8,256.04,139.53,267.46,131.43" style="stroke:#181818;stroke-width:1.0;"/></g><!--link ListCourseAction to ListCourseController--><g id="link_ListCourseAction_ListCourseController"><path codeLine="30" d="M299.1,219.02 C300.07,231.07 301.19,245.08 302.26,258.49 " fill="none" id="ListCourseAction-to-ListCourseController" style="stroke:#181818;stroke-width:1.0;"/><polygon fill="none" points="309.26,258.22,303.88,278.71,295.3,259.33,309.26,258.22" style="stroke:#181818;stroke-width:1.0;"/></g><!--link ListCourseController to CourseRepository--><g id="link_ListCourseController_CourseRepository"><path codeLine="31" d="M282.9,346.06 C273.48,359.06 262.27,374.53 251.25,389.73 " fill="none" id="ListCourseController-to-CourseRepository" style="stroke:#181818;stroke-width:1.0;"/><polygon fill="none" points="256.88,393.9,239.47,405.99,245.54,385.69,256.88,393.9" style="stroke:#181818;stroke-width:1.0;"/></g><!--link MainMenu to CreateCourseUI--><g id="link_MainMenu_CreateCourseUI"><path codeLine="32" d="M175.07,92.16 C166.5,105.67 156.92,120.78 148.02,134.81 " fill="none" id="MainMenu-to-CreateCourseUI" style="stroke:#181818;stroke-width:1.0;"/><polygon fill="none" points="153.87,138.66,137.24,151.8,142.05,131.16,153.87,138.66" style="stroke:#181818;stroke-width:1.0;"/></g><!--link CreateCourseUI to CreateCourseController--><g id="link_CreateCourseUI_CreateCourseController"><path codeLine="33" d="M111.82,219.02 C110.08,231.07 108.06,245.08 106.13,258.49 " fill="none" id="CreateCourseUI-to-CreateCourseController" style="stroke:#181818;stroke-width:1.0;"/><polygon fill="none" points="113,259.91,103.22,278.71,99.14,257.92,113,259.91" style="stroke:#181818;stroke-width:1.0;"/></g><!--link CreateCourseController to CourseRepository--><g id="link_CreateCourseController_CourseRepository"><path codeLine="34" d="M122.1,346.06 C131.52,359.06 142.73,374.53 153.75,389.73 " fill="none" id="CreateCourseController-to-CourseRepository" style="stroke:#181818;stroke-width:1.0;"/><polygon fill="none" points="159.46,385.69,165.53,405.99,148.12,393.9,159.46,385.69" style="stroke:#181818;stroke-width:1.0;"/></g><!--SRC=[TL5B3e8m4Dtt55r235SmmQvCPAFn04qxnYPDnxG59UhTXLeH2cpVlC_C6w6vSxJYobHWQleab6ueiy0zCAojW_C-oxCym0Vb_1SiXLTeElXDY0WEKqdqaNYwudrCIoqY4HuWQWyJmy0wmWsTycZRoBme8tSjGmbngHuejUxjcX_cU0Dhop4qtgBMOAEZ60sNLqqalKWFmn19QISZGuj5yThEJYMpsnFQFuOiPWTwMaiIEdq3IRuoeumYLpfQ3lq0]--></g></svg>