<?xml version="1.0" encoding="us-ascii" standalone="no"?><svg xmlns="http://www.w3.org/2000/svg" xmlns:xlink="http://www.w3.org/1999/xlink" contentStyleType="text/css" height="1041px" preserveAspectRatio="none" style="width:900px;height:1041px;background:#FFFFFF;" version="1.1" viewBox="0 0 900 1041" width="900px" zoomAndPan="magnify"><defs/><g><rect fill="#FFFFFF" height="913.9473" style="stroke:#181818;stroke-width:1.0;" width="10" x="118.5" y="71.9121"/><rect fill="#FFFFFF" height="763.0742" style="stroke:#181818;stroke-width:1.0;" width="10" x="123.5" y="201.7852"/><rect fill="#FFFFFF" height="25" style="stroke:#181818;stroke-width:1.0;" width="10" x="128.5" y="246.0762"/><rect fill="#FFFFFF" height="206.1641" style="stroke:#181818;stroke-width:1.0;" width="10" x="128.5" y="317.3672"/><rect fill="#FFFFFF" height="206.1641" style="stroke:#181818;stroke-width:1.0;" width="10" x="128.5" y="569.8223"/><rect fill="#FFFFFF" height="115.582" style="stroke:#181818;stroke-width:1.0;" width="10" x="128.5" y="822.2773"/><rect fill="#FFFFFF" height="59.291" style="stroke:#181818;stroke-width:1.0;" width="10" x="284.5" y="103.2031"/><rect fill="#FFFFFF" height="59.291" style="stroke:#181818;stroke-width:1.0;" width="10" x="284.5" y="444.2402"/><rect fill="#FFFFFF" height="59.291" style="stroke:#181818;stroke-width:1.0;" width="10" x="284.5" y="696.6953"/><rect fill="#FFFFFF" height="14" style="stroke:#181818;stroke-width:1.0;" width="10" x="284.5" y="858.5684"/><rect fill="#FFFFFF" height="14" style="stroke:#181818;stroke-width:1.0;" width="10" x="284.5" y="903.8594"/><rect fill="#FFFFFF" height="14" style="stroke:#181818;stroke-width:1.0;" width="10" x="453" y="134.4941"/><rect fill="#FFFFFF" height="14" style="stroke:#181818;stroke-width:1.0;" width="10" x="453" y="475.5313"/><rect fill="#FFFFFF" height="14" style="stroke:#181818;stroke-width:1.0;" width="10" x="453" y="727.9863"/><rect fill="#FFFFFF" height="59.291" style="stroke:#181818;stroke-width:1.0;" width="10" x="635.5" y="353.6582"/><rect fill="#FFFFFF" height="59.291" style="stroke:#181818;stroke-width:1.0;" width="10" x="635.5" y="606.1133"/><rect fill="#FFFFFF" height="14" style="stroke:#181818;stroke-width:1.0;" width="10" x="821.5" y="384.9492"/><rect fill="#FFFFFF" height="14" style="stroke:#181818;stroke-width:1.0;" width="10" x="821.5" y="637.4043"/><line style="stroke:#181818;stroke-width:0.5;stroke-dasharray:5.0,5.0;" x1="28" x2="28" y1="38.6211" y2="1003.8594"/><line style="stroke:#181818;stroke-width:0.5;stroke-dasharray:5.0,5.0;" x1="123" x2="123" y1="38.6211" y2="1003.8594"/><line style="stroke:#181818;stroke-width:0.5;stroke-dasharray:5.0,5.0;" x1="289" x2="289" y1="38.6211" y2="1003.8594"/><line style="stroke:#181818;stroke-width:0.5;stroke-dasharray:5.0,5.0;" x1="458" x2="458" y1="38.6211" y2="1003.8594"/><line style="stroke:#181818;stroke-width:0.5;stroke-dasharray:5.0,5.0;" x1="640" x2="640" y1="38.6211" y2="1003.8594"/><line style="stroke:#181818;stroke-width:0.5;stroke-dasharray:5.0,5.0;" x1="826" x2="826" y1="38.6211" y2="1003.8594"/><rect fill="#E2E2F0" height="32.6211" rx="2.5" ry="2.5" style="stroke:#181818;stroke-width:0.5;" width="47" x="5" y="5"/><text fill="#000000" font-family="sans-serif" font-size="14" lengthAdjust="spacing" textLength="33" x="12" y="27.1074">Actor</text><rect fill="#E2E2F0" height="32.6211" rx="2.5" ry="2.5" style="stroke:#181818;stroke-width:0.5;" width="47" x="5" y="1002.8594"/><text fill="#000000" font-family="sans-serif" font-size="14" lengthAdjust="spacing" textLength="33" x="12" y="1024.9668">Actor</text><rect fill="#E2E2F0" height="32.6211" rx="2.5" ry="2.5" style="stroke:#181818;stroke-width:0.5;" width="123" x="62" y="5"/><text fill="#000000" font-family="sans-serif" font-size="14" lengthAdjust="spacing" textLength="109" x="69" y="27.1074">ManageCourseUI</text><rect fill="#E2E2F0" height="32.6211" rx="2.5" ry="2.5" style="stroke:#181818;stroke-width:0.5;" width="123" x="62" y="1002.8594"/><text fill="#000000" font-family="sans-serif" font-size="14" lengthAdjust="spacing" textLength="109" x="69" y="1024.9668">ManageCourseUI</text><rect fill="#E2E2F0" height="32.6211" rx="2.5" ry="2.5" style="stroke:#181818;stroke-width:0.5;" width="189" x="195" y="5"/><text fill="#000000" font-family="sans-serif" font-size="14" lengthAdjust="spacing" textLength="175" x="202" y="27.1074">CourseManagementService</text><rect fill="#E2E2F0" height="32.6211" rx="2.5" ry="2.5" style="stroke:#181818;stroke-width:0.5;" width="189" x="195" y="1002.8594"/><text fill="#000000" font-family="sans-serif" font-size="14" lengthAdjust="spacing" textLength="175" x="202" y="1024.9668">CourseManagementService</text><rect fill="#E2E2F0" height="32.6211" rx="2.5" ry="2.5" style="stroke:#181818;stroke-width:0.5;" width="128" x="394" y="5"/><text fill="#000000" font-family="sans-serif" font-size="14" lengthAdjust="spacing" textLength="114" x="401" y="27.1074">CourseRepository</text><rect fill="#E2E2F0" height="32.6211" rx="2.5" ry="2.5" style="stroke:#181818;stroke-width:0.5;" width="128" x="394" y="1002.8594"/><text fill="#000000" font-family="sans-serif" font-size="14" lengthAdjust="spacing" textLength="114" x="401" y="1024.9668">CourseRepository</text><rect fill="#E2E2F0" height="32.6211" rx="2.5" ry="2.5" style="stroke:#181818;stroke-width:0.5;" width="217" x="532" y="5"/><text fill="#000000" font-family="sans-serif" font-size="14" lengthAdjust="spacing" textLength="203" x="539" y="27.1074">SetTeacherManagementService</text><rect fill="#E2E2F0" height="32.6211" rx="2.5" ry="2.5" style="stroke:#181818;stroke-width:0.5;" width="217" x="532" y="1002.8594"/><text fill="#000000" font-family="sans-serif" font-size="14" lengthAdjust="spacing" textLength="203" x="539" y="1024.9668">SetTeacherManagementService</text><rect fill="#E2E2F0" height="32.6211" rx="2.5" ry="2.5" style="stroke:#181818;stroke-width:0.5;" width="135" x="759" y="5"/><text fill="#000000" font-family="sans-serif" font-size="14" lengthAdjust="spacing" textLength="121" x="766" y="27.1074">TeacherRepository</text><rect fill="#E2E2F0" height="32.6211" rx="2.5" ry="2.5" style="stroke:#181818;stroke-width:0.5;" width="135" x="759" y="1002.8594"/><text fill="#000000" font-family="sans-serif" font-size="14" lengthAdjust="spacing" textLength="121" x="766" y="1024.9668">TeacherRepository</text><rect fill="#FFFFFF" height="913.9473" style="stroke:#181818;stroke-width:1.0;" width="10" x="118.5" y="71.9121"/><rect fill="#FFFFFF" height="763.0742" style="stroke:#181818;stroke-width:1.0;" width="10" x="123.5" y="201.7852"/><rect fill="#FFFFFF" height="25" style="stroke:#181818;stroke-width:1.0;" width="10" x="128.5" y="246.0762"/><rect fill="#FFFFFF" height="206.1641" style="stroke:#181818;stroke-width:1.0;" width="10" x="128.5" y="317.3672"/><rect fill="#FFFFFF" height="206.1641" style="stroke:#181818;stroke-width:1.0;" width="10" x="128.5" y="569.8223"/><rect fill="#FFFFFF" height="115.582" style="stroke:#181818;stroke-width:1.0;" width="10" x="128.5" y="822.2773"/><rect fill="#FFFFFF" height="59.291" style="stroke:#181818;stroke-width:1.0;" width="10" x="284.5" y="103.2031"/><rect fill="#FFFFFF" height="59.291" style="stroke:#181818;stroke-width:1.0;" width="10" x="284.5" y="444.2402"/><rect fill="#FFFFFF" height="59.291" style="stroke:#181818;stroke-width:1.0;" width="10" x="284.5" y="696.6953"/><rect fill="#FFFFFF" height="14" style="stroke:#181818;stroke-width:1.0;" width="10" x="284.5" y="858.5684"/><rect fill="#FFFFFF" height="14" style="stroke:#181818;stroke-width:1.0;" width="10" x="284.5" y="903.8594"/><rect fill="#FFFFFF" height="14" style="stroke:#181818;stroke-width:1.0;" width="10" x="453" y="134.4941"/><rect fill="#FFFFFF" height="14" style="stroke:#181818;stroke-width:1.0;" width="10" x="453" y="475.5313"/><rect fill="#FFFFFF" height="14" style="stroke:#181818;stroke-width:1.0;" width="10" x="453" y="727.9863"/><rect fill="#FFFFFF" height="59.291" style="stroke:#181818;stroke-width:1.0;" width="10" x="635.5" y="353.6582"/><rect fill="#FFFFFF" height="59.291" style="stroke:#181818;stroke-width:1.0;" width="10" x="635.5" y="606.1133"/><rect fill="#FFFFFF" height="14" style="stroke:#181818;stroke-width:1.0;" width="10" x="821.5" y="384.9492"/><rect fill="#FFFFFF" height="14" style="stroke:#181818;stroke-width:1.0;" width="10" x="821.5" y="637.4043"/><polygon fill="#181818" points="106.5,67.9121,116.5,71.9121,106.5,75.9121,110.5,71.9121" style="stroke:#181818;stroke-width:1.0;"/><line style="stroke:#181818;stroke-width:1.0;" x1="28.5" x2="112.5" y1="71.9121" y2="71.9121"/><text fill="#000000" font-family="sans-serif" font-size="13" lengthAdjust="spacing" textLength="46" x="35.5" y="66.6494">doShow</text><polygon fill="#181818" points="272.5,99.2031,282.5,103.2031,272.5,107.2031,276.5,103.2031" style="stroke:#181818;stroke-width:1.0;"/><line style="stroke:#181818;stroke-width:1.0;" x1="128.5" x2="278.5" y1="103.2031" y2="103.2031"/><text fill="#000000" font-family="sans-serif" font-size="13" lengthAdjust="spacing" textLength="66" x="135.5" y="97.9404">findByCode</text><polygon fill="#181818" points="441,130.4941,451,134.4941,441,138.4941,445,134.4941" style="stroke:#181818;stroke-width:1.0;"/><line style="stroke:#181818;stroke-width:1.0;" x1="294.5" x2="447" y1="134.4941" y2="134.4941"/><text fill="#000000" font-family="sans-serif" font-size="13" lengthAdjust="spacing" textLength="66" x="301.5" y="129.2314">findByCode</text><polygon fill="#181818" points="305.5,144.4941,295.5,148.4941,305.5,152.4941,301.5,148.4941" style="stroke:#181818;stroke-width:1.0;"/><line style="stroke:#181818;stroke-width:1.0;stroke-dasharray:2.0,2.0;" x1="299.5" x2="457" y1="148.4941" y2="148.4941"/><polygon fill="#181818" points="139.5,158.4941,129.5,162.4941,139.5,166.4941,135.5,162.4941" style="stroke:#181818;stroke-width:1.0;"/><line style="stroke:#181818;stroke-width:1.0;stroke-dasharray:2.0,2.0;" x1="133.5" x2="288.5" y1="162.4941" y2="162.4941"/><line style="stroke:#181818;stroke-width:1.0;" x1="128.5" x2="175.5" y1="188.7852" y2="188.7852"/><line style="stroke:#181818;stroke-width:1.0;" x1="175.5" x2="175.5" y1="188.7852" y2="201.7852"/><line style="stroke:#181818;stroke-width:1.0;" x1="134.5" x2="175.5" y1="201.7852" y2="201.7852"/><polygon fill="#181818" points="144.5,197.7852,134.5,201.7852,144.5,205.7852,140.5,201.7852" style="stroke:#181818;stroke-width:1.0;"/><text fill="#000000" font-family="sans-serif" font-size="13" lengthAdjust="spacing" textLength="80" x="140.5" y="183.5225">chooseOption</text><line style="stroke:#181818;stroke-width:1.0;" x1="133.5" x2="180.5" y1="233.0762" y2="233.0762"/><line style="stroke:#181818;stroke-width:1.0;" x1="180.5" x2="180.5" y1="233.0762" y2="246.0762"/><line style="stroke:#181818;stroke-width:1.0;" x1="139.5" x2="180.5" y1="246.0762" y2="246.0762"/><polygon fill="#181818" points="149.5,242.0762,139.5,246.0762,149.5,250.0762,145.5,246.0762" style="stroke:#181818;stroke-width:1.0;"/><text fill="#000000" font-family="sans-serif" font-size="13" lengthAdjust="spacing" textLength="107" x="145.5" y="227.8135">showOptionsMenu</text><line style="stroke:#181818;stroke-width:1.0;stroke-dasharray:2.0,2.0;" x1="138.5" x2="180.5" y1="270.0762" y2="270.0762"/><line style="stroke:#181818;stroke-width:1.0;stroke-dasharray:2.0,2.0;" x1="180.5" x2="180.5" y1="270.0762" y2="283.0762"/><line style="stroke:#181818;stroke-width:1.0;stroke-dasharray:2.0,2.0;" x1="133.5" x2="180.5" y1="283.0762" y2="283.0762"/><polygon fill="#181818" points="143.5,279.0762,133.5,283.0762,143.5,287.0762,139.5,283.0762" style="stroke:#181818;stroke-width:1.0;"/><line style="stroke:#181818;stroke-width:1.0;" x1="133.5" x2="180.5" y1="304.3672" y2="304.3672"/><line style="stroke:#181818;stroke-width:1.0;" x1="180.5" x2="180.5" y1="304.3672" y2="317.3672"/><line style="stroke:#181818;stroke-width:1.0;" x1="139.5" x2="180.5" y1="317.3672" y2="317.3672"/><polygon fill="#181818" points="149.5,313.3672,139.5,317.3672,149.5,321.3672,145.5,317.3672" style="stroke:#181818;stroke-width:1.0;"/><text fill="#000000" font-family="sans-serif" font-size="13" lengthAdjust="spacing" textLength="94" x="145.5" y="299.1045">setHeadTeacher</text><polygon fill="#181818" points="623.5,349.6582,633.5,353.6582,623.5,357.6582,627.5,353.6582" style="stroke:#181818;stroke-width:1.0;"/><line style="stroke:#181818;stroke-width:1.0;" x1="138.5" x2="629.5" y1="353.6582" y2="353.6582"/><text fill="#000000" font-family="sans-serif" font-size="13" lengthAdjust="spacing" textLength="88" x="145.5" y="348.3955">findByAcronym</text><polygon fill="#181818" points="809.5,380.9492,819.5,384.9492,809.5,388.9492,813.5,384.9492" style="stroke:#181818;stroke-width:1.0;"/><line style="stroke:#181818;stroke-width:1.0;" x1="645.5" x2="815.5" y1="384.9492" y2="384.9492"/><text fill="#000000" font-family="sans-serif" font-size="13" lengthAdjust="spacing" textLength="88" x="652.5" y="379.6865">findByAcronym</text><polygon fill="#181818" points="656.5,394.9492,646.5,398.9492,656.5,402.9492,652.5,398.9492" style="stroke:#181818;stroke-width:1.0;"/><line style="stroke:#181818;stroke-width:1.0;stroke-dasharray:2.0,2.0;" x1="650.5" x2="825.5" y1="398.9492" y2="398.9492"/><polygon fill="#181818" points="149.5,408.9492,139.5,412.9492,149.5,416.9492,145.5,412.9492" style="stroke:#181818;stroke-width:1.0;"/><line style="stroke:#181818;stroke-width:1.0;stroke-dasharray:2.0,2.0;" x1="143.5" x2="639.5" y1="412.9492" y2="412.9492"/><polygon fill="#181818" points="272.5,440.2402,282.5,444.2402,272.5,448.2402,276.5,444.2402" style="stroke:#181818;stroke-width:1.0;"/><line style="stroke:#181818;stroke-width:1.0;" x1="138.5" x2="278.5" y1="444.2402" y2="444.2402"/><text fill="#000000" font-family="sans-serif" font-size="13" lengthAdjust="spacing" textLength="94" x="145.5" y="438.9775">setHeadTeacher</text><polygon fill="#181818" points="441,471.5313,451,475.5313,441,479.5313,445,475.5313" style="stroke:#181818;stroke-width:1.0;"/><line style="stroke:#181818;stroke-width:1.0;" x1="294.5" x2="447" y1="475.5313" y2="475.5313"/><text fill="#000000" font-family="sans-serif" font-size="13" lengthAdjust="spacing" textLength="94" x="301.5" y="470.2686">setHeadTeacher</text><polygon fill="#181818" points="305.5,485.5313,295.5,489.5313,305.5,493.5313,301.5,489.5313" style="stroke:#181818;stroke-width:1.0;"/><line style="stroke:#181818;stroke-width:1.0;stroke-dasharray:2.0,2.0;" x1="299.5" x2="457" y1="489.5313" y2="489.5313"/><polygon fill="#181818" points="149.5,499.5313,139.5,503.5313,149.5,507.5313,145.5,503.5313" style="stroke:#181818;stroke-width:1.0;"/><line style="stroke:#181818;stroke-width:1.0;stroke-dasharray:2.0,2.0;" x1="143.5" x2="288.5" y1="503.5313" y2="503.5313"/><line style="stroke:#181818;stroke-width:1.0;stroke-dasharray:2.0,2.0;" x1="138.5" x2="180.5" y1="522.5313" y2="522.5313"/><line style="stroke:#181818;stroke-width:1.0;stroke-dasharray:2.0,2.0;" x1="180.5" x2="180.5" y1="522.5313" y2="535.5313"/><line style="stroke:#181818;stroke-width:1.0;stroke-dasharray:2.0,2.0;" x1="133.5" x2="180.5" y1="535.5313" y2="535.5313"/><polygon fill="#181818" points="143.5,531.5313,133.5,535.5313,143.5,539.5313,139.5,535.5313" style="stroke:#181818;stroke-width:1.0;"/><line style="stroke:#181818;stroke-width:1.0;" x1="133.5" x2="180.5" y1="556.8223" y2="556.8223"/><line style="stroke:#181818;stroke-width:1.0;" x1="180.5" x2="180.5" y1="556.8223" y2="569.8223"/><line style="stroke:#181818;stroke-width:1.0;" x1="139.5" x2="180.5" y1="569.8223" y2="569.8223"/><polygon fill="#181818" points="149.5,565.8223,139.5,569.8223,149.5,573.8223,145.5,569.8223" style="stroke:#181818;stroke-width:1.0;"/><text fill="#000000" font-family="sans-serif" font-size="13" lengthAdjust="spacing" textLength="87" x="145.5" y="551.5596">removeTeacher</text><polygon fill="#181818" points="623.5,602.1133,633.5,606.1133,623.5,610.1133,627.5,606.1133" style="stroke:#181818;stroke-width:1.0;"/><line style="stroke:#181818;stroke-width:1.0;" x1="138.5" x2="629.5" y1="606.1133" y2="606.1133"/><text fill="#000000" font-family="sans-serif" font-size="13" lengthAdjust="spacing" textLength="88" x="145.5" y="600.8506">findByAcronym</text><polygon fill="#181818" points="809.5,633.4043,819.5,637.4043,809.5,641.4043,813.5,637.4043" style="stroke:#181818;stroke-width:1.0;"/><line style="stroke:#181818;stroke-width:1.0;" x1="645.5" x2="815.5" y1="637.4043" y2="637.4043"/><text fill="#000000" font-family="sans-serif" font-size="13" lengthAdjust="spacing" textLength="88" x="652.5" y="632.1416">findByAcronym</text><polygon fill="#181818" points="656.5,647.4043,646.5,651.4043,656.5,655.4043,652.5,651.4043" style="stroke:#181818;stroke-width:1.0;"/><line style="stroke:#181818;stroke-width:1.0;stroke-dasharray:2.0,2.0;" x1="650.5" x2="825.5" y1="651.4043" y2="651.4043"/><polygon fill="#181818" points="149.5,661.4043,139.5,665.4043,149.5,669.4043,145.5,665.4043" style="stroke:#181818;stroke-width:1.0;"/><line style="stroke:#181818;stroke-width:1.0;stroke-dasharray:2.0,2.0;" x1="143.5" x2="639.5" y1="665.4043" y2="665.4043"/><polygon fill="#181818" points="272.5,692.6953,282.5,696.6953,272.5,700.6953,276.5,696.6953" style="stroke:#181818;stroke-width:1.0;"/><line style="stroke:#181818;stroke-width:1.0;" x1="138.5" x2="278.5" y1="696.6953" y2="696.6953"/><text fill="#000000" font-family="sans-serif" font-size="13" lengthAdjust="spacing" textLength="87" x="145.5" y="691.4326">removeTeacher</text><polygon fill="#181818" points="441,723.9863,451,727.9863,441,731.9863,445,727.9863" style="stroke:#181818;stroke-width:1.0;"/><line style="stroke:#181818;stroke-width:1.0;" x1="294.5" x2="447" y1="727.9863" y2="727.9863"/><text fill="#000000" font-family="sans-serif" font-size="13" lengthAdjust="spacing" textLength="87" x="301.5" y="722.7236">removeTeacher</text><polygon fill="#181818" points="305.5,737.9863,295.5,741.9863,305.5,745.9863,301.5,741.9863" style="stroke:#181818;stroke-width:1.0;"/><line style="stroke:#181818;stroke-width:1.0;stroke-dasharray:2.0,2.0;" x1="299.5" x2="457" y1="741.9863" y2="741.9863"/><polygon fill="#181818" points="149.5,751.9863,139.5,755.9863,149.5,759.9863,145.5,755.9863" style="stroke:#181818;stroke-width:1.0;"/><line style="stroke:#181818;stroke-width:1.0;stroke-dasharray:2.0,2.0;" x1="143.5" x2="288.5" y1="755.9863" y2="755.9863"/><line style="stroke:#181818;stroke-width:1.0;stroke-dasharray:2.0,2.0;" x1="138.5" x2="180.5" y1="774.9863" y2="774.9863"/><line style="stroke:#181818;stroke-width:1.0;stroke-dasharray:2.0,2.0;" x1="180.5" x2="180.5" y1="774.9863" y2="787.9863"/><line style="stroke:#181818;stroke-width:1.0;stroke-dasharray:2.0,2.0;" x1="133.5" x2="180.5" y1="787.9863" y2="787.9863"/><polygon fill="#181818" points="143.5,783.9863,133.5,787.9863,143.5,791.9863,139.5,787.9863" style="stroke:#181818;stroke-width:1.0;"/><line style="stroke:#181818;stroke-width:1.0;" x1="133.5" x2="180.5" y1="809.2773" y2="809.2773"/><line style="stroke:#181818;stroke-width:1.0;" x1="180.5" x2="180.5" y1="809.2773" y2="822.2773"/><line style="stroke:#181818;stroke-width:1.0;" x1="139.5" x2="180.5" y1="822.2773" y2="822.2773"/><polygon fill="#181818" points="149.5,818.2773,139.5,822.2773,149.5,826.2773,145.5,822.2773" style="stroke:#181818;stroke-width:1.0;"/><text fill="#000000" font-family="sans-serif" font-size="13" lengthAdjust="spacing" textLength="123" x="145.5" y="804.0146">openCloseEnrollment</text><polygon fill="#181818" points="272.5,854.5684,282.5,858.5684,272.5,862.5684,276.5,858.5684" style="stroke:#181818;stroke-width:1.0;"/><line style="stroke:#181818;stroke-width:1.0;" x1="138.5" x2="278.5" y1="858.5684" y2="858.5684"/><text fill="#000000" font-family="sans-serif" font-size="13" lengthAdjust="spacing" textLength="90" x="145.5" y="853.3057">openEnrollment</text><polygon fill="#181818" points="149.5,868.5684,139.5,872.5684,149.5,876.5684,145.5,872.5684" style="stroke:#181818;stroke-width:1.0;"/><line style="stroke:#181818;stroke-width:1.0;stroke-dasharray:2.0,2.0;" x1="143.5" x2="288.5" y1="872.5684" y2="872.5684"/><polygon fill="#181818" points="272.5,899.8594,282.5,903.8594,272.5,907.8594,276.5,903.8594" style="stroke:#181818;stroke-width:1.0;"/><line style="stroke:#181818;stroke-width:1.0;" x1="138.5" x2="278.5" y1="903.8594" y2="903.8594"/><text fill="#000000" font-family="sans-serif" font-size="13" lengthAdjust="spacing" textLength="93" x="145.5" y="898.5967">closeEnrollment</text><polygon fill="#181818" points="149.5,913.8594,139.5,917.8594,149.5,921.8594,145.5,917.8594" style="stroke:#181818;stroke-width:1.0;"/><line style="stroke:#181818;stroke-width:1.0;stroke-dasharray:2.0,2.0;" x1="143.5" x2="288.5" y1="917.8594" y2="917.8594"/><line style="stroke:#181818;stroke-width:1.0;stroke-dasharray:2.0,2.0;" x1="138.5" x2="180.5" y1="936.8594" y2="936.8594"/><line style="stroke:#181818;stroke-width:1.0;stroke-dasharray:2.0,2.0;" x1="180.5" x2="180.5" y1="936.8594" y2="949.8594"/><line style="stroke:#181818;stroke-width:1.0;stroke-dasharray:2.0,2.0;" x1="133.5" x2="180.5" y1="949.8594" y2="949.8594"/><polygon fill="#181818" points="143.5,945.8594,133.5,949.8594,143.5,953.8594,139.5,949.8594" style="stroke:#181818;stroke-width:1.0;"/><line style="stroke:#181818;stroke-width:1.0;stroke-dasharray:2.0,2.0;" x1="133.5" x2="175.5" y1="963.8594" y2="963.8594"/><line style="stroke:#181818;stroke-width:1.0;stroke-dasharray:2.0,2.0;" x1="175.5" x2="175.5" y1="963.8594" y2="976.8594"/><line style="stroke:#181818;stroke-width:1.0;stroke-dasharray:2.0,2.0;" x1="128.5" x2="175.5" y1="976.8594" y2="976.8594"/><polygon fill="#181818" points="138.5,972.8594,128.5,976.8594,138.5,980.8594,134.5,976.8594" style="stroke:#181818;stroke-width:1.0;"/><polygon fill="#181818" points="39.5,981.8594,29.5,985.8594,39.5,989.8594,35.5,985.8594" style="stroke:#181818;stroke-width:1.0;"/><line style="stroke:#181818;stroke-width:1.0;stroke-dasharray:2.0,2.0;" x1="33.5" x2="122.5" y1="985.8594" y2="985.8594"/><!--SRC=[xPPHIiGm48RVSufSe1VmGLYBe0-BOFK08HbjeCsK9AtqzcRjOcMdYKO3ikXBAStCDpFvyzCCmdejzI2CvplfqRAt9wyk-LuOyGmrZjR1uos_u0gR5b-Oa5vFmiD903k93uJbVVdUW_4Ds4bB2AWdRTJLNAE25HU9PZ7AUu5x6D3fqFMS9AzXZEHLyMwPWiz06xsH_QCOMedk8D50jeWExWQlqMGeGJWkABbGt1xC-6LKSgvlj07-1eHw28mMRCP03VXZKlnuxQH5C_ShDP74Ki1GxxYsSTH85HBAQ7AL7k7Zfb9SijMaGAcIEVQDoLR6mcdw-Tcui6Siz3Z1lsNEop8HrSeu9Wd_yuR10KpTXT_cjR7OTOVAHIun1-uMCblJGfU5UASoDltljFeJVNDoBVZHcbS0]--></g></svg>