<?xml version="1.0" encoding="us-ascii" standalone="no"?><svg xmlns="http://www.w3.org/2000/svg" xmlns:xlink="http://www.w3.org/1999/xlink" contentStyleType="text/css" height="703px" preserveAspectRatio="none" style="width:1405px;height:703px;background:#FFFFFF;" version="1.1" viewBox="0 0 1405 703" width="1405px" zoomAndPan="magnify"><defs/><g><!--class Actor--><g id="elem_Actor"><rect codeLine="1" fill="#F1F1F1" height="48" id="Actor" rx="2.5" ry="2.5" style="stroke:#181818;stroke-width:0.5;" width="65" x="694.44" y="7"/><ellipse cx="709.44" cy="23" fill="#ADD1B2" rx="11" ry="11" style="stroke:#181818;stroke-width:1.0;"/><path d="M712.2056,18.875 Q712.3619,18.6563 712.5494,18.5469 Q712.7369,18.4375 712.9556,18.4375 Q713.3306,18.4375 713.565,18.7031 Q713.7994,18.9531 713.7994,19.5625 L713.7994,21.0156 Q713.7994,21.625 713.565,21.8906 Q713.3306,22.1563 712.9556,22.1563 Q712.6119,22.1563 712.4088,21.9531 Q712.2056,21.7656 712.0963,21.25 Q712.0494,20.8906 711.8619,20.7031 Q711.5338,20.3281 710.9244,20.1094 Q710.315,19.8906 709.69,19.8906 Q708.9244,19.8906 708.2838,20.2188 Q707.6588,20.5469 707.1588,21.2969 Q706.6744,22.0469 706.6744,23.0781 L706.6744,24.1719 Q706.6744,25.4063 707.565,26.2344 Q708.4556,27.0469 710.0494,27.0469 Q710.9869,27.0469 711.6431,26.7969 Q712.0338,26.6406 712.4556,26.2031 Q712.7213,25.9375 712.8619,25.8594 Q713.0181,25.7813 713.2213,25.7813 Q713.5494,25.7813 713.7994,26.0469 Q714.065,26.2969 714.065,26.6406 Q714.065,26.9844 713.7213,27.3906 Q713.2213,27.9688 712.4244,28.2969 Q711.3463,28.75 710.0494,28.75 Q708.5338,28.75 707.3306,28.125 Q706.3463,27.625 705.6588,26.5625 Q704.9713,25.4844 704.9713,24.2031 L704.9713,23.0469 Q704.9713,21.7188 705.5806,20.5781 Q706.2056,19.4219 707.2994,18.8125 Q708.3931,18.1875 709.6275,18.1875 Q710.3619,18.1875 711.0025,18.3594 Q711.6588,18.5156 712.2056,18.875 Z " fill="#000000"/><text fill="#000000" font-family="sans-serif" font-size="14" lengthAdjust="spacing" textLength="33" x="723.44" y="28.7969">Actor</text><line style="stroke:#181818;stroke-width:0.5;" x1="695.44" x2="758.44" y1="39" y2="39"/><line style="stroke:#181818;stroke-width:0.5;" x1="695.44" x2="758.44" y1="47" y2="47"/></g><!--class ManageCourseUI--><g id="elem_ManageCourseUI"><rect codeLine="3" fill="#F1F1F1" height="159.7266" id="ManageCourseUI" rx="2.5" ry="2.5" style="stroke:#181818;stroke-width:0.5;" width="171" x="641.44" y="134"/><ellipse cx="669.94" cy="150" fill="#ADD1B2" rx="11" ry="11" style="stroke:#181818;stroke-width:1.0;"/><path d="M672.7056,145.875 Q672.8619,145.6563 673.0494,145.5469 Q673.2369,145.4375 673.4556,145.4375 Q673.8306,145.4375 674.065,145.7031 Q674.2994,145.9531 674.2994,146.5625 L674.2994,148.0156 Q674.2994,148.625 674.065,148.8906 Q673.8306,149.1563 673.4556,149.1563 Q673.1119,149.1563 672.9088,148.9531 Q672.7056,148.7656 672.5963,148.25 Q672.5494,147.8906 672.3619,147.7031 Q672.0338,147.3281 671.4244,147.1094 Q670.815,146.8906 670.19,146.8906 Q669.4244,146.8906 668.7838,147.2188 Q668.1588,147.5469 667.6588,148.2969 Q667.1744,149.0469 667.1744,150.0781 L667.1744,151.1719 Q667.1744,152.4063 668.065,153.2344 Q668.9556,154.0469 670.5494,154.0469 Q671.4869,154.0469 672.1431,153.7969 Q672.5338,153.6406 672.9556,153.2031 Q673.2213,152.9375 673.3619,152.8594 Q673.5181,152.7813 673.7213,152.7813 Q674.0494,152.7813 674.2994,153.0469 Q674.565,153.2969 674.565,153.6406 Q674.565,153.9844 674.2213,154.3906 Q673.7213,154.9688 672.9244,155.2969 Q671.8463,155.75 670.5494,155.75 Q669.0338,155.75 667.8306,155.125 Q666.8463,154.625 666.1588,153.5625 Q665.4713,152.4844 665.4713,151.2031 L665.4713,150.0469 Q665.4713,148.7188 666.0806,147.5781 Q666.7056,146.4219 667.7994,145.8125 Q668.8931,145.1875 670.1275,145.1875 Q670.8619,145.1875 671.5025,145.3594 Q672.1588,145.5156 672.7056,145.875 Z " fill="#000000"/><text fill="#000000" font-family="sans-serif" font-size="14" lengthAdjust="spacing" textLength="109" x="686.94" y="155.7969">ManageCourseUI</text><line style="stroke:#181818;stroke-width:0.5;" x1="642.44" x2="811.44" y1="166" y2="166"/><line style="stroke:#181818;stroke-width:0.5;" x1="642.44" x2="811.44" y1="174" y2="174"/><ellipse cx="652.44" cy="188.8105" fill="#84BE84" rx="3" ry="3" style="stroke:#038048;stroke-width:1.0;"/><text fill="#000000" font-family="sans-serif" font-size="14" lengthAdjust="spacing" textLength="60" x="661.44" y="193.1074">doShow()</text><ellipse cx="652.44" cy="207.4316" fill="#84BE84" rx="3" ry="3" style="stroke:#038048;stroke-width:1.0;"/><text fill="#000000" font-family="sans-serif" font-size="14" lengthAdjust="spacing" textLength="98" x="661.44" y="211.7285">chooseOption()</text><ellipse cx="652.44" cy="226.0527" fill="#84BE84" rx="3" ry="3" style="stroke:#038048;stroke-width:1.0;"/><text fill="#000000" font-family="sans-serif" font-size="14" lengthAdjust="spacing" textLength="126" x="661.44" y="230.3496">showOptionsMenu()</text><ellipse cx="652.44" cy="244.6738" fill="#84BE84" rx="3" ry="3" style="stroke:#038048;stroke-width:1.0;"/><text fill="#000000" font-family="sans-serif" font-size="14" lengthAdjust="spacing" textLength="115" x="661.44" y="248.9707">setHeadTeacher()</text><ellipse cx="652.44" cy="263.2949" fill="#84BE84" rx="3" ry="3" style="stroke:#038048;stroke-width:1.0;"/><text fill="#000000" font-family="sans-serif" font-size="14" lengthAdjust="spacing" textLength="110" x="661.44" y="267.5918">removeTeacher()</text><ellipse cx="652.44" cy="281.916" fill="#84BE84" rx="3" ry="3" style="stroke:#038048;stroke-width:1.0;"/><text fill="#000000" font-family="sans-serif" font-size="14" lengthAdjust="spacing" textLength="145" x="661.44" y="286.2129">openCloseEnrollment()</text></g><!--class CourseManagementService--><g id="elem_CourseManagementService"><rect codeLine="12" fill="#F1F1F1" height="141.1055" id="CourseManagementService" rx="2.5" ry="2.5" style="stroke:#181818;stroke-width:0.5;" width="207" x="356.44" y="373"/><ellipse cx="371.44" cy="389" fill="#ADD1B2" rx="11" ry="11" style="stroke:#181818;stroke-width:1.0;"/><path d="M374.2056,384.875 Q374.3619,384.6563 374.5494,384.5469 Q374.7369,384.4375 374.9556,384.4375 Q375.3306,384.4375 375.565,384.7031 Q375.7994,384.9531 375.7994,385.5625 L375.7994,387.0156 Q375.7994,387.625 375.565,387.8906 Q375.3306,388.1563 374.9556,388.1563 Q374.6119,388.1563 374.4088,387.9531 Q374.2056,387.7656 374.0963,387.25 Q374.0494,386.8906 373.8619,386.7031 Q373.5338,386.3281 372.9244,386.1094 Q372.315,385.8906 371.69,385.8906 Q370.9244,385.8906 370.2838,386.2188 Q369.6588,386.5469 369.1588,387.2969 Q368.6744,388.0469 368.6744,389.0781 L368.6744,390.1719 Q368.6744,391.4063 369.565,392.2344 Q370.4556,393.0469 372.0494,393.0469 Q372.9869,393.0469 373.6431,392.7969 Q374.0338,392.6406 374.4556,392.2031 Q374.7213,391.9375 374.8619,391.8594 Q375.0181,391.7813 375.2213,391.7813 Q375.5494,391.7813 375.7994,392.0469 Q376.065,392.2969 376.065,392.6406 Q376.065,392.9844 375.7213,393.3906 Q375.2213,393.9688 374.4244,394.2969 Q373.3463,394.75 372.0494,394.75 Q370.5338,394.75 369.3306,394.125 Q368.3463,393.625 367.6588,392.5625 Q366.9713,391.4844 366.9713,390.2031 L366.9713,389.0469 Q366.9713,387.7188 367.5806,386.5781 Q368.2056,385.4219 369.2994,384.8125 Q370.3931,384.1875 371.6275,384.1875 Q372.3619,384.1875 373.0025,384.3594 Q373.6588,384.5156 374.2056,384.875 Z " fill="#000000"/><text fill="#000000" font-family="sans-serif" font-size="14" lengthAdjust="spacing" textLength="175" x="385.44" y="394.7969">CourseManagementService</text><line style="stroke:#181818;stroke-width:0.5;" x1="357.44" x2="562.44" y1="405" y2="405"/><line style="stroke:#181818;stroke-width:0.5;" x1="357.44" x2="562.44" y1="413" y2="413"/><ellipse cx="367.44" cy="427.8105" fill="#84BE84" rx="3" ry="3" style="stroke:#038048;stroke-width:1.0;"/><text fill="#000000" font-family="sans-serif" font-size="14" lengthAdjust="spacing" textLength="83" x="376.44" y="432.1074">findByCode()</text><ellipse cx="367.44" cy="446.4316" fill="#84BE84" rx="3" ry="3" style="stroke:#038048;stroke-width:1.0;"/><text fill="#000000" font-family="sans-serif" font-size="14" lengthAdjust="spacing" textLength="115" x="376.44" y="450.7285">setHeadTeacher()</text><ellipse cx="367.44" cy="465.0527" fill="#84BE84" rx="3" ry="3" style="stroke:#038048;stroke-width:1.0;"/><text fill="#000000" font-family="sans-serif" font-size="14" lengthAdjust="spacing" textLength="110" x="376.44" y="469.3496">removeTeacher()</text><ellipse cx="367.44" cy="483.6738" fill="#84BE84" rx="3" ry="3" style="stroke:#038048;stroke-width:1.0;"/><text fill="#000000" font-family="sans-serif" font-size="14" lengthAdjust="spacing" textLength="109" x="376.44" y="487.9707">openEnrollment()</text><ellipse cx="367.44" cy="502.2949" fill="#84BE84" rx="3" ry="3" style="stroke:#038048;stroke-width:1.0;"/><text fill="#000000" font-family="sans-serif" font-size="14" lengthAdjust="spacing" textLength="110" x="376.44" y="506.5918">closeEnrollment()</text></g><!--class CourseRepository--><g id="elem_CourseRepository"><rect codeLine="20" fill="#F1F1F1" height="103.8633" id="CourseRepository" rx="2.5" ry="2.5" style="stroke:#181818;stroke-width:0.5;" width="146" x="386.94" y="593"/><ellipse cx="401.94" cy="609" fill="#ADD1B2" rx="11" ry="11" style="stroke:#181818;stroke-width:1.0;"/><path d="M404.7056,604.875 Q404.8619,604.6563 405.0494,604.5469 Q405.2369,604.4375 405.4556,604.4375 Q405.8306,604.4375 406.065,604.7031 Q406.2994,604.9531 406.2994,605.5625 L406.2994,607.0156 Q406.2994,607.625 406.065,607.8906 Q405.8306,608.1563 405.4556,608.1563 Q405.1119,608.1563 404.9088,607.9531 Q404.7056,607.7656 404.5963,607.25 Q404.5494,606.8906 404.3619,606.7031 Q404.0338,606.3281 403.4244,606.1094 Q402.815,605.8906 402.19,605.8906 Q401.4244,605.8906 400.7838,606.2188 Q400.1588,606.5469 399.6588,607.2969 Q399.1744,608.0469 399.1744,609.0781 L399.1744,610.1719 Q399.1744,611.4063 400.065,612.2344 Q400.9556,613.0469 402.5494,613.0469 Q403.4869,613.0469 404.1431,612.7969 Q404.5338,612.6406 404.9556,612.2031 Q405.2213,611.9375 405.3619,611.8594 Q405.5181,611.7813 405.7213,611.7813 Q406.0494,611.7813 406.2994,612.0469 Q406.565,612.2969 406.565,612.6406 Q406.565,612.9844 406.2213,613.3906 Q405.7213,613.9688 404.9244,614.2969 Q403.8463,614.75 402.5494,614.75 Q401.0338,614.75 399.8306,614.125 Q398.8463,613.625 398.1588,612.5625 Q397.4713,611.4844 397.4713,610.2031 L397.4713,609.0469 Q397.4713,607.7188 398.0806,606.5781 Q398.7056,605.4219 399.7994,604.8125 Q400.8931,604.1875 402.1275,604.1875 Q402.8619,604.1875 403.5025,604.3594 Q404.1588,604.5156 404.7056,604.875 Z " fill="#000000"/><text fill="#000000" font-family="sans-serif" font-size="14" lengthAdjust="spacing" textLength="114" x="415.94" y="614.7969">CourseRepository</text><line style="stroke:#181818;stroke-width:0.5;" x1="387.94" x2="531.94" y1="625" y2="625"/><line style="stroke:#181818;stroke-width:0.5;" x1="387.94" x2="531.94" y1="633" y2="633"/><ellipse cx="397.94" cy="647.8105" fill="#84BE84" rx="3" ry="3" style="stroke:#038048;stroke-width:1.0;"/><text fill="#000000" font-family="sans-serif" font-size="14" lengthAdjust="spacing" textLength="83" x="406.94" y="652.1074">findByCode()</text><ellipse cx="397.94" cy="666.4316" fill="#84BE84" rx="3" ry="3" style="stroke:#038048;stroke-width:1.0;"/><text fill="#000000" font-family="sans-serif" font-size="14" lengthAdjust="spacing" textLength="115" x="406.94" y="670.7285">setHeadTeacher()</text><ellipse cx="397.94" cy="685.0527" fill="#84BE84" rx="3" ry="3" style="stroke:#038048;stroke-width:1.0;"/><text fill="#000000" font-family="sans-serif" font-size="14" lengthAdjust="spacing" textLength="110" x="406.94" y="689.3496">removeTeacher()</text></g><!--class SetTeacherManagementService--><g id="elem_SetTeacherManagementService"><rect codeLine="26" fill="#F1F1F1" height="66.6211" id="SetTeacherManagementService" rx="2.5" ry="2.5" style="stroke:#181818;stroke-width:0.5;" width="235" x="879.44" y="410"/><ellipse cx="894.44" cy="426" fill="#ADD1B2" rx="11" ry="11" style="stroke:#181818;stroke-width:1.0;"/><path d="M897.2056,421.875 Q897.3619,421.6563 897.5494,421.5469 Q897.7369,421.4375 897.9556,421.4375 Q898.3306,421.4375 898.565,421.7031 Q898.7994,421.9531 898.7994,422.5625 L898.7994,424.0156 Q898.7994,424.625 898.565,424.8906 Q898.3306,425.1563 897.9556,425.1563 Q897.6119,425.1563 897.4088,424.9531 Q897.2056,424.7656 897.0963,424.25 Q897.0494,423.8906 896.8619,423.7031 Q896.5338,423.3281 895.9244,423.1094 Q895.315,422.8906 894.69,422.8906 Q893.9244,422.8906 893.2838,423.2188 Q892.6588,423.5469 892.1588,424.2969 Q891.6744,425.0469 891.6744,426.0781 L891.6744,427.1719 Q891.6744,428.4063 892.565,429.2344 Q893.4556,430.0469 895.0494,430.0469 Q895.9869,430.0469 896.6431,429.7969 Q897.0338,429.6406 897.4556,429.2031 Q897.7213,428.9375 897.8619,428.8594 Q898.0181,428.7813 898.2213,428.7813 Q898.5494,428.7813 898.7994,429.0469 Q899.065,429.2969 899.065,429.6406 Q899.065,429.9844 898.7213,430.3906 Q898.2213,430.9688 897.4244,431.2969 Q896.3463,431.75 895.0494,431.75 Q893.5338,431.75 892.3306,431.125 Q891.3463,430.625 890.6588,429.5625 Q889.9713,428.4844 889.9713,427.2031 L889.9713,426.0469 Q889.9713,424.7188 890.5806,423.5781 Q891.2056,422.4219 892.2994,421.8125 Q893.3931,421.1875 894.6275,421.1875 Q895.3619,421.1875 896.0025,421.3594 Q896.6588,421.5156 897.2056,421.875 Z " fill="#000000"/><text fill="#000000" font-family="sans-serif" font-size="14" lengthAdjust="spacing" textLength="203" x="908.44" y="431.7969">SetTeacherManagementService</text><line style="stroke:#181818;stroke-width:0.5;" x1="880.44" x2="1113.44" y1="442" y2="442"/><line style="stroke:#181818;stroke-width:0.5;" x1="880.44" x2="1113.44" y1="450" y2="450"/><ellipse cx="890.44" cy="464.8105" fill="#84BE84" rx="3" ry="3" style="stroke:#038048;stroke-width:1.0;"/><text fill="#000000" font-family="sans-serif" font-size="14" lengthAdjust="spacing" textLength="104" x="899.44" y="469.1074">findByAcronym()</text></g><!--class TeacherRepository--><g id="elem_TeacherRepository"><rect codeLine="30" fill="#F1F1F1" height="66.6211" id="TeacherRepository" rx="2.5" ry="2.5" style="stroke:#181818;stroke-width:0.5;" width="153" x="920.44" y="611.5"/><ellipse cx="935.44" cy="627.5" fill="#ADD1B2" rx="11" ry="11" style="stroke:#181818;stroke-width:1.0;"/><path d="M938.2056,623.375 Q938.3619,623.1563 938.5494,623.0469 Q938.7369,622.9375 938.9556,622.9375 Q939.3306,622.9375 939.565,623.2031 Q939.7994,623.4531 939.7994,624.0625 L939.7994,625.5156 Q939.7994,626.125 939.565,626.3906 Q939.3306,626.6563 938.9556,626.6563 Q938.6119,626.6563 938.4088,626.4531 Q938.2056,626.2656 938.0963,625.75 Q938.0494,625.3906 937.8619,625.2031 Q937.5338,624.8281 936.9244,624.6094 Q936.315,624.3906 935.69,624.3906 Q934.9244,624.3906 934.2838,624.7188 Q933.6588,625.0469 933.1588,625.7969 Q932.6744,626.5469 932.6744,627.5781 L932.6744,628.6719 Q932.6744,629.9063 933.565,630.7344 Q934.4556,631.5469 936.0494,631.5469 Q936.9869,631.5469 937.6431,631.2969 Q938.0338,631.1406 938.4556,630.7031 Q938.7213,630.4375 938.8619,630.3594 Q939.0181,630.2813 939.2213,630.2813 Q939.5494,630.2813 939.7994,630.5469 Q940.065,630.7969 940.065,631.1406 Q940.065,631.4844 939.7213,631.8906 Q939.2213,632.4688 938.4244,632.7969 Q937.3463,633.25 936.0494,633.25 Q934.5338,633.25 933.3306,632.625 Q932.3463,632.125 931.6588,631.0625 Q930.9713,629.9844 930.9713,628.7031 L930.9713,627.5469 Q930.9713,626.2188 931.5806,625.0781 Q932.2056,623.9219 933.2994,623.3125 Q934.3931,622.6875 935.6275,622.6875 Q936.3619,622.6875 937.0025,622.8594 Q937.6588,623.0156 938.2056,623.375 Z " fill="#000000"/><text fill="#000000" font-family="sans-serif" font-size="14" lengthAdjust="spacing" textLength="121" x="949.44" y="633.2969">TeacherRepository</text><line style="stroke:#181818;stroke-width:0.5;" x1="921.44" x2="1072.44" y1="643.5" y2="643.5"/><line style="stroke:#181818;stroke-width:0.5;" x1="921.44" x2="1072.44" y1="651.5" y2="651.5"/><ellipse cx="931.44" cy="666.3105" fill="#84BE84" rx="3" ry="3" style="stroke:#038048;stroke-width:1.0;"/><text fill="#000000" font-family="sans-serif" font-size="14" lengthAdjust="spacing" textLength="104" x="940.44" y="670.6074">findByAcronym()</text></g><!--link Actor to ManageCourseUI--><g id="link_Actor_ManageCourseUI"><path codeLine="34" d="M726.94,55.29 C726.94,74.08 726.94,101.72 726.94,128.63 " fill="none" id="Actor-to-ManageCourseUI" style="stroke:#181818;stroke-width:1.0;"/><polygon fill="#181818" points="726.94,133.64,730.94,124.64,726.94,128.64,722.94,124.64,726.94,133.64" style="stroke:#181818;stroke-width:1.0;"/><text fill="#000000" font-family="sans-serif" font-size="13" lengthAdjust="spacing" textLength="46" x="727.94" y="100.0283">doShow</text></g><!--link ManageCourseUI to CourseManagementService--><g id="link_ManageCourseUI_CourseManagementService"><path codeLine="35" d="M641.17,216.42 C482.83,221.04 154.32,240.7 83.94,324 C6,416.27 214.21,437.64 351.08,442.01 " fill="none" id="ManageCourseUI-to-CourseManagementService" style="stroke:#181818;stroke-width:1.0;"/><polygon fill="#181818" points="356.33,442.17,347.4479,437.9146,351.332,442.0272,347.2194,445.9113,356.33,442.17" style="stroke:#181818;stroke-width:1.0;"/><text fill="#000000" font-family="sans-serif" font-size="13" lengthAdjust="spacing" textLength="66" x="84.94" y="339.0283">findByCode</text></g><!--link ManageCourseUI to CourseManagementService--><g id="link_ManageCourseUI_CourseManagementService"><path codeLine="45" d="M641.33,219.68 C504.86,229.12 247.71,255.73 191.94,324 C140.88,386.51 256.06,417.06 351.02,431.25 " fill="none" id="ManageCourseUI-to-CourseManagementService-1" style="stroke:#181818;stroke-width:1.0;"/><polygon fill="#181818" points="356.1,431.99,347.7773,426.7238,351.1531,431.2629,346.614,434.6388,356.1,431.99" style="stroke:#181818;stroke-width:1.0;"/><text fill="#000000" font-family="sans-serif" font-size="13" lengthAdjust="spacing" textLength="94" x="192.94" y="339.0283">setHeadTeacher</text></g><!--link ManageCourseUI to CourseManagementService--><g id="link_ManageCourseUI_CourseManagementService"><path codeLine="53" d="M641.12,226.24 C535.58,242.02 365.75,274.49 327.94,324 C309.23,348.51 325.36,371.98 351.93,391.47 " fill="none" id="ManageCourseUI-to-CourseManagementService-2" style="stroke:#181818;stroke-width:1.0;"/><polygon fill="#181818" points="356.28,394.56,351.2701,386.0806,352.2075,391.6592,346.6288,392.5966,356.28,394.56" style="stroke:#181818;stroke-width:1.0;"/><text fill="#000000" font-family="sans-serif" font-size="13" lengthAdjust="spacing" textLength="87" x="328.94" y="339.0283">removeTeacher</text></g><!--link ManageCourseUI to CourseManagementService--><g id="link_ManageCourseUI_CourseManagementService"><path codeLine="57" d="M641.15,224.56 C578.56,236.53 497.8,263.45 456.94,324 C448.36,336.72 445.03,352.09 444.63,367.48 " fill="none" id="ManageCourseUI-to-CourseManagementService-3" style="stroke:#181818;stroke-width:1.0;"/><polygon fill="#181818" points="444.6,372.69,448.6515,363.7131,444.6287,367.6901,440.6516,363.6672,444.6,372.69" style="stroke:#181818;stroke-width:1.0;"/><text fill="#000000" font-family="sans-serif" font-size="13" lengthAdjust="spacing" textLength="90" x="457.94" y="339.0283">openEnrollment</text></g><!--link CourseManagementService to ManageCourseUI--><g id="link_CourseManagementService_ManageCourseUI"><path codeLine="58" d="M563.63,412.28 C601.77,397.16 642.44,375.01 670.94,343 C682,330.58 689.93,315.09 695.98,299.23 " fill="none" id="CourseManagementService-to-ManageCourseUI" style="stroke:#181818;stroke-width:1.0;"/><polygon fill="#181818" points="697.8,294.3,690.9204,301.3478,696.0616,298.9881,698.4213,304.1292,697.8,294.3" style="stroke:#181818;stroke-width:1.0;"/></g><!--link ManageCourseUI to CourseManagementService--><g id="link_ManageCourseUI_CourseManagementService"><path codeLine="59" d="M641.33,278.43 C622.46,293.03 602.79,308.76 584.94,324 C568.24,338.26 550.83,354.09 534.5,369.42 " fill="none" id="ManageCourseUI-to-CourseManagementService-4" style="stroke:#181818;stroke-width:1.0;"/><polygon fill="#181818" points="530.81,372.89,540.1053,369.6345,534.451,369.4632,534.6223,363.8089,530.81,372.89" style="stroke:#181818;stroke-width:1.0;"/><text fill="#000000" font-family="sans-serif" font-size="13" lengthAdjust="spacing" textLength="93" x="585.94" y="339.0283">closeEnrollment</text></g><!--link CourseManagementService to ManageCourseUI--><g id="link_CourseManagementService_ManageCourseUI"><path codeLine="60" d="M563.59,423.28 C613.29,408.67 669.54,383.88 705.94,343 C717,330.58 724.93,315.09 730.21,299.23 " fill="none" id="CourseManagementService-to-ManageCourseUI-1" style="stroke:#181818;stroke-width:1.0;"/><polygon fill="#181818" points="731.77,294.3,725.2487,301.6805,730.2664,299.0686,732.8784,304.0863,731.77,294.3" style="stroke:#181818;stroke-width:1.0;"/></g><!--link CourseManagementService to CourseRepository--><g id="link_CourseManagementService_CourseRepository"><path codeLine="36" d="M356.19,448.63 C240.68,457.16 77.85,483.23 139.94,563 C169.37,600.8 296.82,623.77 381.72,635.16 " fill="none" id="CourseManagementService-to-CourseRepository" style="stroke:#181818;stroke-width:1.0;"/><polygon fill="#181818" points="386.75,635.83,378.3537,630.682,381.7934,635.1729,377.3024,638.6126,386.75,635.83" style="stroke:#181818;stroke-width:1.0;"/><text fill="#000000" font-family="sans-serif" font-size="13" lengthAdjust="spacing" textLength="66" x="140.94" y="559.0283">findByCode</text></g><!--link CourseRepository to CourseManagementService--><g id="link_CourseRepository_CourseManagementService"><path codeLine="37" d="M438.01,592.83 C439.26,582.99 440.94,572.72 441.94,563 C443.41,548.92 442.89,533.93 441.99,519.53 " fill="none" id="CourseRepository-to-CourseManagementService" style="stroke:#181818;stroke-width:1.0;"/><polygon fill="#181818" points="441.65,514.25,438.2505,523.4936,441.9788,519.2392,446.2332,522.9675,441.65,514.25" style="stroke:#181818;stroke-width:1.0;"/></g><!--link CourseManagementService to CourseRepository--><g id="link_CourseManagementService_CourseRepository"><path codeLine="46" d="M356.1,463.43 C286.39,481.1 213.16,512.47 247.94,563 C277.85,606.45 334.46,626.6 381.65,635.95 " fill="none" id="CourseManagementService-to-CourseRepository-1" style="stroke:#181818;stroke-width:1.0;"/><polygon fill="#181818" points="386.77,636.93,378.6849,631.3058,381.8596,635.9879,377.1775,639.1625,386.77,636.93" style="stroke:#181818;stroke-width:1.0;"/><text fill="#000000" font-family="sans-serif" font-size="13" lengthAdjust="spacing" textLength="94" x="248.94" y="559.0283">setHeadTeacher</text></g><!--link CourseRepository to CourseManagementService--><g id="link_CourseRepository_CourseManagementService"><path codeLine="47" d="M472.35,592.83 C474.26,582.99 475.94,572.72 476.94,563 C478.41,548.92 477.89,533.93 476.33,519.53 " fill="none" id="CourseRepository-to-CourseManagementService-1" style="stroke:#181818;stroke-width:1.0;"/><polygon fill="#181818" points="475.72,514.25,472.7739,523.6479,476.291,519.2173,480.7216,522.7344,475.72,514.25" style="stroke:#181818;stroke-width:1.0;"/></g><!--link CourseManagementService to CourseRepository--><g id="link_CourseManagementService_CourseRepository"><path codeLine="54" d="M394.87,514.08 C388.81,523.58 383.59,533.65 379.94,544 C374.36,559.87 379.06,575.09 388.46,588.67 " fill="none" id="CourseManagementService-to-CourseRepository-2" style="stroke:#181818;stroke-width:1.0;"/><polygon fill="#181818" points="391.53,592.83,389.4068,583.2127,388.5621,588.8062,382.9686,587.9614,391.53,592.83" style="stroke:#181818;stroke-width:1.0;"/><text fill="#000000" font-family="sans-serif" font-size="13" lengthAdjust="spacing" textLength="87" x="380.94" y="559.0283">removeTeacher</text></g><!--link CourseRepository to CourseManagementService--><g id="link_CourseRepository_CourseManagementService"><path codeLine="55" d="M506.69,592.83 C509.26,582.99 510.94,572.72 511.94,563 C513.41,548.92 512.89,533.93 510.67,519.53 " fill="none" id="CourseRepository-to-CourseManagementService-2" style="stroke:#181818;stroke-width:1.0;"/><polygon fill="#181818" points="509.78,514.25,507.3543,523.7955,510.6228,519.1785,515.2399,522.4469,509.78,514.25" style="stroke:#181818;stroke-width:1.0;"/></g><!--link ManageCourseUI to ManageCourseUI--><g id="link_ManageCourseUI_ManageCourseUI"><path codeLine="38" d="M812.51,209.66 C832.61,210.02 847.44,211.46 847.44,214 C847.44,216.32 835.05,217.72 817.57,218.22 " fill="none" id="ManageCourseUI-to-ManageCourseUI" style="stroke:#181818;stroke-width:1.0;"/><polygon fill="#181818" points="812.51,218.34,821.5991,222.1333,817.5087,218.2257,821.4162,214.1354,812.51,218.34" style="stroke:#181818;stroke-width:1.0;"/><text fill="#000000" font-family="sans-serif" font-size="13" lengthAdjust="spacing" textLength="80" x="853.44" y="219.5283">chooseOption</text></g><!--link ManageCourseUI to ManageCourseUI--><g id="link_ManageCourseUI_ManageCourseUI"><path codeLine="39" d="M812.49,205.85 C873.51,203.72 939.44,206.44 939.44,214 C939.44,221.35 877.06,224.12 817.5,222.31 " fill="none" id="ManageCourseUI-to-ManageCourseUI-1" style="stroke:#181818;stroke-width:1.0;"/><polygon fill="#181818" points="812.49,222.15,821.3599,226.4307,817.4875,222.3071,821.6112,218.4347,812.49,222.15" style="stroke:#181818;stroke-width:1.0;"/><text fill="#000000" font-family="sans-serif" font-size="13" lengthAdjust="spacing" textLength="107" x="945.44" y="219.5283">showOptionsMenu</text></g><!--link ManageCourseUI to ManageCourseUI--><g id="link_ManageCourseUI_ManageCourseUI"><path codeLine="40" d="M812.79,203.59 C914.68,197.57 1058.44,201.04 1058.44,214 C1058.44,226.75 919.41,230.31 817.9,224.7 " fill="none" id="ManageCourseUI-to-ManageCourseUI-2" style="stroke:#181818;stroke-width:1.0;"/><polygon fill="#181818" points="812.79,224.41,821.5464,228.9184,817.7818,224.6961,822.0041,220.9315,812.79,224.41" style="stroke:#181818;stroke-width:1.0;"/><text fill="#000000" font-family="sans-serif" font-size="13" lengthAdjust="spacing" textLength="94" x="1064.44" y="219.5283">setHeadTeacher</text></g><!--link ManageCourseUI to ManageCourseUI--><g id="link_ManageCourseUI_ManageCourseUI"><path codeLine="48" d="M812.69,201.75 C945.5,191.57 1164.44,195.65 1164.44,214 C1164.44,232.11 951.02,236.32 817.79,226.63 " fill="none" id="ManageCourseUI-to-ManageCourseUI-3" style="stroke:#181818;stroke-width:1.0;"/><polygon fill="#181818" points="812.69,226.25,821.368,230.9076,817.6762,226.6215,821.9623,222.9297,812.69,226.25" style="stroke:#181818;stroke-width:1.0;"/><text fill="#000000" font-family="sans-serif" font-size="13" lengthAdjust="spacing" textLength="87" x="1170.44" y="219.5283">removeTeacher</text></g><!--link ManageCourseUI to ManageCourseUI--><g id="link_ManageCourseUI_ManageCourseUI"><path codeLine="56" d="M812.71,200.14 C971.57,185.61 1263.44,190.23 1263.44,214 C1263.44,237.51 977.8,242.28 817.88,228.32 " fill="none" id="ManageCourseUI-to-ManageCourseUI-4" style="stroke:#181818;stroke-width:1.0;"/><polygon fill="#181818" points="812.71,227.86,821.3196,232.6428,817.6903,228.3036,822.0294,224.6743,812.71,227.86" style="stroke:#181818;stroke-width:1.0;"/><text fill="#000000" font-family="sans-serif" font-size="13" lengthAdjust="spacing" textLength="123" x="1269.44" y="219.5283">openCloseEnrollment</text></g><!--link ManageCourseUI to SetTeacherManagementService--><g id="link_ManageCourseUI_SetTeacherManagementService"><path codeLine="41" d="M761.71,294.01 C771.94,311.58 784.37,329.09 798.94,343 C827.71,370.45 865.52,391.96 900.39,407.84 " fill="none" id="ManageCourseUI-to-SetTeacherManagementService" style="stroke:#181818;stroke-width:1.0;"/><polygon fill="#181818" points="905.07,409.95,898.5128,402.6013,900.5128,407.8928,895.2213,409.8929,905.07,409.95" style="stroke:#181818;stroke-width:1.0;"/><text fill="#000000" font-family="sans-serif" font-size="13" lengthAdjust="spacing" textLength="88" x="799.94" y="339.0283">findByAcronym</text></g><!--link SetTeacherManagementService to ManageCourseUI--><g id="link_SetTeacherManagementService_ManageCourseUI"><path codeLine="44" d="M1003.02,409.9 C1012.53,384.46 1023.59,349.31 1005.94,324 C963.13,262.6 881.64,235.69 817.58,223.95 " fill="none" id="SetTeacherManagementService-to-ManageCourseUI" style="stroke:#181818;stroke-width:1.0;"/><polygon fill="#181818" points="812.61,223.06,820.7733,228.57,817.5332,223.933,822.1702,220.6929,812.61,223.06" style="stroke:#181818;stroke-width:1.0;"/></g><!--link ManageCourseUI to SetTeacherManagementService--><g id="link_ManageCourseUI_SetTeacherManagementService"><path codeLine="49" d="M812.86,265.16 C839.61,282.39 868.49,302.73 892.94,324 C921.35,348.7 949.26,381.07 969,405.73 " fill="none" id="ManageCourseUI-to-SetTeacherManagementService-1" style="stroke:#181818;stroke-width:1.0;"/><polygon fill="#181818" points="972.34,409.93,969.8667,400.3967,969.227,406.0173,963.6064,405.3776,972.34,409.93" style="stroke:#181818;stroke-width:1.0;"/><text fill="#000000" font-family="sans-serif" font-size="13" lengthAdjust="spacing" textLength="88" x="912.94" y="339.0283">findByAcronym</text></g><!--link SetTeacherManagementService to ManageCourseUI--><g id="link_SetTeacherManagementService_ManageCourseUI"><path codeLine="52" d="M1031.46,409.9 C1047.53,384.46 1058.59,349.31 1040.94,324 C991.92,253.71 892.22,228.62 818.01,219.74 " fill="none" id="SetTeacherManagementService-to-ManageCourseUI-1" style="stroke:#181818;stroke-width:1.0;"/><polygon fill="#181818" points="812.71,219.13,821.1944,224.1316,817.6773,219.701,822.1079,216.1839,812.71,219.13" style="stroke:#181818;stroke-width:1.0;"/></g><!--link SetTeacherManagementService to TeacherRepository--><g id="link_SetTeacherManagementService_TeacherRepository"><path codeLine="42" d="M879.17,470.94 C821.43,489.88 769.92,519.76 798.94,563 C824.96,601.75 873.14,621.97 915.46,632.52 " fill="none" id="SetTeacherManagementService-to-TeacherRepository" style="stroke:#181818;stroke-width:1.0;"/><polygon fill="#181818" points="920.32,633.7,912.5087,627.7014,915.4594,632.5277,910.633,635.4784,920.32,633.7" style="stroke:#181818;stroke-width:1.0;"/><text fill="#000000" font-family="sans-serif" font-size="13" lengthAdjust="spacing" textLength="88" x="799.94" y="559.0283">findByAcronym</text></g><!--link TeacherRepository to SetTeacherManagementService--><g id="link_TeacherRepository_SetTeacherManagementService"><path codeLine="43" d="M994.36,611.46 C998.09,596.89 1003.39,579.34 1005.94,563 C1010.2,535.82 1003.34,505.53 997.87,482.37 " fill="none" id="TeacherRepository-to-SetTeacherManagementService" style="stroke:#181818;stroke-width:1.0;"/><polygon fill="#181818" points="996.65,477.24,994.8114,486.9157,997.792,482.1078,1002.5999,485.0885,996.65,477.24" style="stroke:#181818;stroke-width:1.0;"/></g><!--link SetTeacherManagementService to TeacherRepository--><g id="link_SetTeacherManagementService_TeacherRepository"><path codeLine="50" d="M965,477.4 C949.69,495.49 932.96,519.25 924.94,544 C917.41,567.27 930.97,589.71 948.29,607.41 " fill="none" id="SetTeacherManagementService-to-TeacherRepository-1" style="stroke:#181818;stroke-width:1.0;"/><polygon fill="#181818" points="952.27,611.34,948.6605,602.1764,948.7061,607.8331,943.0494,607.8787,952.27,611.34" style="stroke:#181818;stroke-width:1.0;"/><text fill="#000000" font-family="sans-serif" font-size="13" lengthAdjust="spacing" textLength="88" x="925.94" y="559.0283">findByAcronym</text></g><!--link TeacherRepository to SetTeacherManagementService--><g id="link_TeacherRepository_SetTeacherManagementService"><path codeLine="51" d="M1026.43,611.46 C1033.09,596.89 1038.39,579.34 1040.94,563 C1045.24,535.59 1038.23,505.02 1027.96,481.79 " fill="none" id="TeacherRepository-to-SetTeacherManagementService-1" style="stroke:#181818;stroke-width:1.0;"/><polygon fill="#181818" points="1025.87,477.24,1026.0156,487.0878,1027.968,481.7785,1033.2772,483.731,1025.87,477.24" style="stroke:#181818;stroke-width:1.0;"/></g><!--SRC=[xLN1JeGm4BttApXgpFu01vELcEXXOoBh1pHb51BeaBQx6sByTyjIsROKM9IZt9ZEctblta1PIQMCjaoX88ITNtQKqmz8y20al3r7doJIprsKOPhZwURMlB8SKS9BhGhaVL3gZ2uaTy0FbpYe9w3P7YZBGVHX0HKUmOzY3JmfTV57Bh0iA-1AdttzqEk8TIJRinJ4iM3GytmlUFRG99Z1xzixdOtUEKQlKACiz1oR5QZqjLDG9ZgdUCi4ygQomGOvoio1d7SWscpk_GM8ZVN4YxUfOsR4bdOobdGfO34C8AtJYPuXUWCbzjPU1V0s-ZgCut48CkLgx9f3fdBRMaEJ_Gh3Z1aEiprTISiMmvlEmkK8ebTS4ET3_BVELUSEPw5p8V2AnWLkZMNYtF_-fBg_pD2xHnRq-GO0]--></g></svg>