<?xml version="1.0" encoding="us-ascii" standalone="no"?><svg xmlns="http://www.w3.org/2000/svg" xmlns:xlink="http://www.w3.org/1999/xlink" contentStyleType="text/css" height="657px" preserveAspectRatio="none" style="width:2098px;height:657px;background:#FFFFFF;" version="1.1" viewBox="0 0 2098 657" width="2098px" zoomAndPan="magnify"><defs/><g><!--class Actor--><g id="elem_Actor"><rect codeLine="2" fill="#F1F1F1" height="48" id="Actor" rx="2.5" ry="2.5" style="stroke:#181818;stroke-width:0.5;" width="69" x="1432.5" y="7"/><ellipse cx="1447.5" cy="23" fill="#ADD1B2" rx="11" ry="11" style="stroke:#181818;stroke-width:1.0;"/><path d="M1450.4731,28.6431 Q1449.8921,28.9419 1449.2529,29.0913 Q1448.6138,29.2407 1447.9082,29.2407 Q1445.4014,29.2407 1444.0815,27.5889 Q1442.7617,25.937 1442.7617,22.8159 Q1442.7617,19.6865 1444.0815,18.0347 Q1445.4014,16.3828 1447.9082,16.3828 Q1448.6138,16.3828 1449.2612,16.5322 Q1449.9087,16.6816 1450.4731,16.9805 L1450.4731,19.7031 Q1449.8423,19.1221 1449.2488,18.8523 Q1448.6553,18.5825 1448.0244,18.5825 Q1446.6797,18.5825 1445.9949,19.6492 Q1445.3101,20.7158 1445.3101,22.8159 Q1445.3101,24.9077 1445.9949,25.9744 Q1446.6797,27.041 1448.0244,27.041 Q1448.6553,27.041 1449.2488,26.7712 Q1449.8423,26.5015 1450.4731,25.9204 Z " fill="#000000"/><text fill="#000000" font-family="sans-serif" font-size="14" lengthAdjust="spacing" textLength="37" x="1461.5" y="28.291">Actor</text><line style="stroke:#181818;stroke-width:0.5;" x1="1433.5" x2="1500.5" y1="39" y2="39"/><line style="stroke:#181818;stroke-width:0.5;" x1="1433.5" x2="1500.5" y1="47" y2="47"/></g><!--class EvaluateMeetingsUI--><g id="elem_EvaluateMeetingsUI"><rect codeLine="4" fill="#F1F1F1" height="64.4883" id="EvaluateMeetingsUI" rx="2.5" ry="2.5" style="stroke:#181818;stroke-width:0.5;" width="165" x="1384.5" y="115"/><ellipse cx="1399.5" cy="131" fill="#ADD1B2" rx="11" ry="11" style="stroke:#181818;stroke-width:1.0;"/><path d="M1402.4731,136.6431 Q1401.8921,136.9419 1401.2529,137.0913 Q1400.6138,137.2407 1399.9082,137.2407 Q1397.4014,137.2407 1396.0815,135.5889 Q1394.7617,133.937 1394.7617,130.8159 Q1394.7617,127.6865 1396.0815,126.0347 Q1397.4014,124.3828 1399.9082,124.3828 Q1400.6138,124.3828 1401.2612,124.5322 Q1401.9087,124.6816 1402.4731,124.9805 L1402.4731,127.7031 Q1401.8423,127.1221 1401.2488,126.8523 Q1400.6553,126.5825 1400.0244,126.5825 Q1398.6797,126.5825 1397.9949,127.6492 Q1397.3101,128.7158 1397.3101,130.8159 Q1397.3101,132.9077 1397.9949,133.9744 Q1398.6797,135.041 1400.0244,135.041 Q1400.6553,135.041 1401.2488,134.7712 Q1401.8423,134.5015 1402.4731,133.9204 Z " fill="#000000"/><text fill="#000000" font-family="sans-serif" font-size="14" lengthAdjust="spacing" textLength="133" x="1413.5" y="136.291">EvaluateMeetingsUI</text><line style="stroke:#181818;stroke-width:0.5;" x1="1385.5" x2="1548.5" y1="147" y2="147"/><line style="stroke:#181818;stroke-width:0.5;" x1="1385.5" x2="1548.5" y1="155" y2="155"/><ellipse cx="1395.5" cy="168.7441" fill="#84BE84" rx="3" ry="3" style="stroke:#038048;stroke-width:1.0;"/><text fill="#000000" font-family="sans-serif" font-size="14" lengthAdjust="spacing" textLength="65" x="1404.5" y="172.5352">doShow()</text></g><!--class MeetingEvaluationController--><g id="elem_MeetingEvaluationController"><rect codeLine="8" fill="#F1F1F1" height="130.4414" id="MeetingEvaluationController" rx="2.5" ry="2.5" style="stroke:#181818;stroke-width:0.5;" width="228" x="374" y="239"/><ellipse cx="389" cy="255" fill="#ADD1B2" rx="11" ry="11" style="stroke:#181818;stroke-width:1.0;"/><path d="M391.9731,260.6431 Q391.3921,260.9419 390.7529,261.0913 Q390.1138,261.2407 389.4082,261.2407 Q386.9014,261.2407 385.5815,259.5889 Q384.2617,257.937 384.2617,254.8159 Q384.2617,251.6865 385.5815,250.0347 Q386.9014,248.3828 389.4082,248.3828 Q390.1138,248.3828 390.7612,248.5322 Q391.4087,248.6816 391.9731,248.9805 L391.9731,251.7031 Q391.3423,251.1221 390.7488,250.8523 Q390.1553,250.5825 389.5244,250.5825 Q388.1797,250.5825 387.4949,251.6492 Q386.8101,252.7158 386.8101,254.8159 Q386.8101,256.9077 387.4949,257.9744 Q388.1797,259.041 389.5244,259.041 Q390.1553,259.041 390.7488,258.7712 Q391.3423,258.5015 391.9731,257.9204 Z " fill="#000000"/><text fill="#000000" font-family="sans-serif" font-size="14" lengthAdjust="spacing" textLength="196" x="403" y="260.291">MeetingEvaluationController</text><line style="stroke:#181818;stroke-width:0.5;" x1="375" x2="601" y1="271" y2="271"/><line style="stroke:#181818;stroke-width:0.5;" x1="375" x2="601" y1="279" y2="279"/><ellipse cx="385" cy="292.7441" fill="#84BE84" rx="3" ry="3" style="stroke:#038048;stroke-width:1.0;"/><text fill="#000000" font-family="sans-serif" font-size="14" lengthAdjust="spacing" textLength="38" x="394" y="296.5352">new()</text><ellipse cx="385" cy="309.2324" fill="#84BE84" rx="3" ry="3" style="stroke:#038048;stroke-width:1.0;"/><text fill="#000000" font-family="sans-serif" font-size="14" lengthAdjust="spacing" textLength="102" x="394" y="313.0234">listMeetingAL()</text><ellipse cx="385" cy="325.7207" fill="#84BE84" rx="3" ry="3" style="stroke:#038048;stroke-width:1.0;"/><text fill="#000000" font-family="sans-serif" font-size="14" lengthAdjust="spacing" textLength="63" x="394" y="329.5117">getUser()</text><ellipse cx="385" cy="342.209" fill="#84BE84" rx="3" ry="3" style="stroke:#038048;stroke-width:1.0;"/><text fill="#000000" font-family="sans-serif" font-size="14" lengthAdjust="spacing" textLength="85" x="394" y="346">alterStateA()</text><ellipse cx="385" cy="358.6973" fill="#84BE84" rx="3" ry="3" style="stroke:#038048;stroke-width:1.0;"/><text fill="#000000" font-family="sans-serif" font-size="14" lengthAdjust="spacing" textLength="85" x="394" y="362.4883">alterStateD()</text></g><!--class AuthzRegistry--><g id="elem_AuthzRegistry"><rect codeLine="16" fill="#F1F1F1" height="80.9766" id="AuthzRegistry" rx="2.5" ry="2.5" style="stroke:#181818;stroke-width:0.5;" width="177" x="923.5" y="437"/><ellipse cx="960.55" cy="453" fill="#ADD1B2" rx="11" ry="11" style="stroke:#181818;stroke-width:1.0;"/><path d="M963.5231,458.6431 Q962.9421,458.9419 962.3029,459.0913 Q961.6638,459.2407 960.9582,459.2407 Q958.4514,459.2407 957.1315,457.5889 Q955.8117,455.937 955.8117,452.8159 Q955.8117,449.6865 957.1315,448.0347 Q958.4514,446.3828 960.9582,446.3828 Q961.6638,446.3828 962.3112,446.5322 Q962.9587,446.6816 963.5231,446.9805 L963.5231,449.7031 Q962.8923,449.1221 962.2988,448.8523 Q961.7053,448.5825 961.0744,448.5825 Q959.7297,448.5825 959.0449,449.6492 Q958.3601,450.7158 958.3601,452.8159 Q958.3601,454.9077 959.0449,455.9744 Q959.7297,457.041 961.0744,457.041 Q961.7053,457.041 962.2988,456.7712 Q962.8923,456.5015 963.5231,455.9204 Z " fill="#000000"/><text fill="#000000" font-family="sans-serif" font-size="14" lengthAdjust="spacing" textLength="96" x="979.45" y="458.291">AuthzRegistry</text><line style="stroke:#181818;stroke-width:0.5;" x1="924.5" x2="1099.5" y1="469" y2="469"/><line style="stroke:#181818;stroke-width:0.5;" x1="924.5" x2="1099.5" y1="477" y2="477"/><ellipse cx="934.5" cy="490.7441" fill="#84BE84" rx="3" ry="3" style="stroke:#038048;stroke-width:1.0;"/><text fill="#000000" font-family="sans-serif" font-size="14" lengthAdjust="spacing" textLength="151" x="943.5" y="494.5352">authorizationService()</text><ellipse cx="934.5" cy="507.2324" fill="#84BE84" rx="3" ry="3" style="stroke:#038048;stroke-width:1.0;"/><text fill="#000000" font-family="sans-serif" font-size="14" lengthAdjust="spacing" textLength="64" x="943.5" y="511.0234">nonNull()</text></g><!--class Invariants--><g id="elem_Invariants"><rect codeLine="21" fill="#F1F1F1" height="48" id="Invariants" rx="2.5" ry="2.5" style="stroke:#181818;stroke-width:0.5;" width="99" x="962.5" y="594"/><ellipse cx="977.5" cy="610" fill="#ADD1B2" rx="11" ry="11" style="stroke:#181818;stroke-width:1.0;"/><path d="M980.4731,615.6431 Q979.8921,615.9419 979.2529,616.0913 Q978.6138,616.2407 977.9082,616.2407 Q975.4014,616.2407 974.0815,614.5889 Q972.7617,612.937 972.7617,609.8159 Q972.7617,606.6865 974.0815,605.0347 Q975.4014,603.3828 977.9082,603.3828 Q978.6138,603.3828 979.2612,603.5322 Q979.9087,603.6816 980.4731,603.9805 L980.4731,606.7031 Q979.8423,606.1221 979.2488,605.8523 Q978.6553,605.5825 978.0244,605.5825 Q976.6797,605.5825 975.9949,606.6492 Q975.3101,607.7158 975.3101,609.8159 Q975.3101,611.9077 975.9949,612.9744 Q976.6797,614.041 978.0244,614.041 Q978.6553,614.041 979.2488,613.7712 Q979.8423,613.5015 980.4731,612.9204 Z " fill="#000000"/><text fill="#000000" font-family="sans-serif" font-size="14" lengthAdjust="spacing" textLength="67" x="991.5" y="615.291">Invariants</text><line style="stroke:#181818;stroke-width:0.5;" x1="963.5" x2="1060.5" y1="626" y2="626"/><line style="stroke:#181818;stroke-width:0.5;" x1="963.5" x2="1060.5" y1="634" y2="634"/></g><!--class DomainRepository--><g id="elem_DomainRepository"><rect codeLine="23" fill="#F1F1F1" height="80.9766" id="DomainRepository" rx="2.5" ry="2.5" style="stroke:#181818;stroke-width:0.5;" width="158" x="7" y="437"/><ellipse cx="22" cy="453" fill="#ADD1B2" rx="11" ry="11" style="stroke:#181818;stroke-width:1.0;"/><path d="M24.9731,458.6431 Q24.3921,458.9419 23.7529,459.0913 Q23.1138,459.2407 22.4082,459.2407 Q19.9014,459.2407 18.5815,457.5889 Q17.2617,455.937 17.2617,452.8159 Q17.2617,449.6865 18.5815,448.0347 Q19.9014,446.3828 22.4082,446.3828 Q23.1138,446.3828 23.7612,446.5322 Q24.4087,446.6816 24.9731,446.9805 L24.9731,449.7031 Q24.3423,449.1221 23.7488,448.8523 Q23.1553,448.5825 22.5244,448.5825 Q21.1797,448.5825 20.4949,449.6492 Q19.8101,450.7158 19.8101,452.8159 Q19.8101,454.9077 20.4949,455.9744 Q21.1797,457.041 22.5244,457.041 Q23.1553,457.041 23.7488,456.7712 Q24.3423,456.5015 24.9731,455.9204 Z " fill="#000000"/><text fill="#000000" font-family="sans-serif" font-size="14" lengthAdjust="spacing" textLength="126" x="36" y="458.291">DomainRepository</text><line style="stroke:#181818;stroke-width:0.5;" x1="8" x2="164" y1="469" y2="469"/><line style="stroke:#181818;stroke-width:0.5;" x1="8" x2="164" y1="477" y2="477"/><ellipse cx="18" cy="490.7441" fill="#84BE84" rx="3" ry="3" style="stroke:#038048;stroke-width:1.0;"/><text fill="#000000" font-family="sans-serif" font-size="14" lengthAdjust="spacing" textLength="55" x="27" y="494.5352">findAll()</text><ellipse cx="18" cy="507.2324" fill="#84BE84" rx="3" ry="3" style="stroke:#038048;stroke-width:1.0;"/><text fill="#000000" font-family="sans-serif" font-size="14" lengthAdjust="spacing" textLength="40" x="27" y="511.0234">save()</text></g><!--class AuthorizationService--><g id="elem_AuthorizationService"><rect codeLine="28" fill="#F1F1F1" height="64.4883" id="AuthorizationService" rx="2.5" ry="2.5" style="stroke:#181818;stroke-width:0.5;" width="175" x="713.5" y="445.5"/><ellipse cx="728.5" cy="461.5" fill="#ADD1B2" rx="11" ry="11" style="stroke:#181818;stroke-width:1.0;"/><path d="M731.4731,467.1431 Q730.8921,467.4419 730.2529,467.5913 Q729.6138,467.7407 728.9082,467.7407 Q726.4014,467.7407 725.0815,466.0889 Q723.7617,464.437 723.7617,461.3159 Q723.7617,458.1865 725.0815,456.5347 Q726.4014,454.8828 728.9082,454.8828 Q729.6138,454.8828 730.2612,455.0322 Q730.9087,455.1816 731.4731,455.4805 L731.4731,458.2031 Q730.8423,457.6221 730.2488,457.3523 Q729.6553,457.0825 729.0244,457.0825 Q727.6797,457.0825 726.9949,458.1492 Q726.3101,459.2158 726.3101,461.3159 Q726.3101,463.4077 726.9949,464.4744 Q727.6797,465.541 729.0244,465.541 Q729.6553,465.541 730.2488,465.2712 Q730.8423,465.0015 731.4731,464.4204 Z " fill="#000000"/><text fill="#000000" font-family="sans-serif" font-size="14" lengthAdjust="spacing" textLength="143" x="742.5" y="466.791">AuthorizationService</text><line style="stroke:#181818;stroke-width:0.5;" x1="714.5" x2="887.5" y1="477.5" y2="477.5"/><line style="stroke:#181818;stroke-width:0.5;" x1="714.5" x2="887.5" y1="485.5" y2="485.5"/><ellipse cx="724.5" cy="499.2441" fill="#84BE84" rx="3" ry="3" style="stroke:#038048;stroke-width:1.0;"/><text fill="#000000" font-family="sans-serif" font-size="14" lengthAdjust="spacing" textLength="80" x="733.5" y="503.0352">ofNullable()</text></g><!--class Optional--><g id="elem_Optional"><rect codeLine="32" fill="#F1F1F1" height="64.4883" id="Optional" rx="2.5" ry="2.5" style="stroke:#181818;stroke-width:0.5;" width="91" x="472.5" y="586"/><ellipse cx="487.5" cy="602" fill="#ADD1B2" rx="11" ry="11" style="stroke:#181818;stroke-width:1.0;"/><path d="M490.4731,607.6431 Q489.8921,607.9419 489.2529,608.0913 Q488.6138,608.2407 487.9082,608.2407 Q485.4014,608.2407 484.0815,606.5889 Q482.7617,604.937 482.7617,601.8159 Q482.7617,598.6865 484.0815,597.0347 Q485.4014,595.3828 487.9082,595.3828 Q488.6138,595.3828 489.2612,595.5322 Q489.9087,595.6816 490.4731,595.9805 L490.4731,598.7031 Q489.8423,598.1221 489.2488,597.8523 Q488.6553,597.5825 488.0244,597.5825 Q486.6797,597.5825 485.9949,598.6492 Q485.3101,599.7158 485.3101,601.8159 Q485.3101,603.9077 485.9949,604.9744 Q486.6797,606.041 488.0244,606.041 Q488.6553,606.041 489.2488,605.7712 Q489.8423,605.5015 490.4731,604.9204 Z " fill="#000000"/><text fill="#000000" font-family="sans-serif" font-size="14" lengthAdjust="spacing" textLength="59" x="501.5" y="607.291">Optional</text><line style="stroke:#181818;stroke-width:0.5;" x1="473.5" x2="562.5" y1="618" y2="618"/><line style="stroke:#181818;stroke-width:0.5;" x1="473.5" x2="562.5" y1="626" y2="626"/><ellipse cx="483.5" cy="639.7441" fill="#84BE84" rx="3" ry="3" style="stroke:#038048;stroke-width:1.0;"/><text fill="#000000" font-family="sans-serif" font-size="14" lengthAdjust="spacing" textLength="32" x="492.5" y="643.5352">get()</text></g><!--class UserSession--><g id="elem_UserSession"><rect codeLine="36" fill="#F1F1F1" height="64.4883" id="UserSession" rx="2.5" ry="2.5" style="stroke:#181818;stroke-width:0.5;" width="161" x="305.5" y="445.5"/><ellipse cx="341.2" cy="461.5" fill="#ADD1B2" rx="11" ry="11" style="stroke:#181818;stroke-width:1.0;"/><path d="M344.1731,467.1431 Q343.5921,467.4419 342.9529,467.5913 Q342.3138,467.7407 341.6082,467.7407 Q339.1014,467.7407 337.7815,466.0889 Q336.4617,464.437 336.4617,461.3159 Q336.4617,458.1865 337.7815,456.5347 Q339.1014,454.8828 341.6082,454.8828 Q342.3138,454.8828 342.9612,455.0322 Q343.6087,455.1816 344.1731,455.4805 L344.1731,458.2031 Q343.5423,457.6221 342.9488,457.3523 Q342.3553,457.0825 341.7244,457.0825 Q340.3797,457.0825 339.6949,458.1492 Q339.0101,459.2158 339.0101,461.3159 Q339.0101,463.4077 339.6949,464.4744 Q340.3797,465.541 341.7244,465.541 Q342.3553,465.541 342.9488,465.2712 Q343.5423,465.0015 344.1731,464.4204 Z " fill="#000000"/><text fill="#000000" font-family="sans-serif" font-size="14" lengthAdjust="spacing" textLength="83" x="359.8" y="466.791">UserSession</text><line style="stroke:#181818;stroke-width:0.5;" x1="306.5" x2="465.5" y1="477.5" y2="477.5"/><line style="stroke:#181818;stroke-width:0.5;" x1="306.5" x2="465.5" y1="485.5" y2="485.5"/><ellipse cx="316.5" cy="499.2441" fill="#84BE84" rx="3" ry="3" style="stroke:#038048;stroke-width:1.0;"/><text fill="#000000" font-family="sans-serif" font-size="14" lengthAdjust="spacing" textLength="135" x="325.5" y="503.0352">authenticatedUser()</text></g><!--class PrintStream--><g id="elem_PrintStream"><rect codeLine="40" fill="#F1F1F1" height="80.9766" id="PrintStream" rx="2.5" ry="2.5" style="stroke:#181818;stroke-width:0.5;" width="112" x="880" y="263.5"/><ellipse cx="895" cy="279.5" fill="#ADD1B2" rx="11" ry="11" style="stroke:#181818;stroke-width:1.0;"/><path d="M897.9731,285.1431 Q897.3921,285.4419 896.7529,285.5913 Q896.1138,285.7407 895.4082,285.7407 Q892.9014,285.7407 891.5815,284.0889 Q890.2617,282.437 890.2617,279.3159 Q890.2617,276.1865 891.5815,274.5347 Q892.9014,272.8828 895.4082,272.8828 Q896.1138,272.8828 896.7612,273.0322 Q897.4087,273.1816 897.9731,273.4805 L897.9731,276.2031 Q897.3423,275.6221 896.7488,275.3523 Q896.1553,275.0825 895.5244,275.0825 Q894.1797,275.0825 893.4949,276.1492 Q892.8101,277.2158 892.8101,279.3159 Q892.8101,281.4077 893.4949,282.4744 Q894.1797,283.541 895.5244,283.541 Q896.1553,283.541 896.7488,283.2712 Q897.3423,283.0015 897.9731,282.4204 Z " fill="#000000"/><text fill="#000000" font-family="sans-serif" font-size="14" lengthAdjust="spacing" textLength="80" x="909" y="284.791">PrintStream</text><line style="stroke:#181818;stroke-width:0.5;" x1="881" x2="991" y1="295.5" y2="295.5"/><line style="stroke:#181818;stroke-width:0.5;" x1="881" x2="991" y1="303.5" y2="303.5"/><ellipse cx="891" cy="317.2441" fill="#84BE84" rx="3" ry="3" style="stroke:#038048;stroke-width:1.0;"/><text fill="#000000" font-family="sans-serif" font-size="14" lengthAdjust="spacing" textLength="56" x="900" y="321.0352">println()</text><ellipse cx="891" cy="333.7324" fill="#84BE84" rx="3" ry="3" style="stroke:#038048;stroke-width:1.0;"/><text fill="#000000" font-family="sans-serif" font-size="14" lengthAdjust="spacing" textLength="48" x="900" y="337.5234">printf()</text></g><!--class MeetingAccessList--><g id="elem_MeetingAccessList"><rect codeLine="45" fill="#F1F1F1" height="113.9531" id="MeetingAccessList" rx="2.5" ry="2.5" style="stroke:#181818;stroke-width:0.5;" width="156" x="1098" y="247"/><ellipse cx="1113" cy="263" fill="#ADD1B2" rx="11" ry="11" style="stroke:#181818;stroke-width:1.0;"/><path d="M1115.9731,268.6431 Q1115.3921,268.9419 1114.7529,269.0913 Q1114.1138,269.2407 1113.4082,269.2407 Q1110.9014,269.2407 1109.5815,267.5889 Q1108.2617,265.937 1108.2617,262.8159 Q1108.2617,259.6865 1109.5815,258.0347 Q1110.9014,256.3828 1113.4082,256.3828 Q1114.1138,256.3828 1114.7612,256.5322 Q1115.4087,256.6816 1115.9731,256.9805 L1115.9731,259.7031 Q1115.3423,259.1221 1114.7488,258.8523 Q1114.1553,258.5825 1113.5244,258.5825 Q1112.1797,258.5825 1111.4949,259.6492 Q1110.8101,260.7158 1110.8101,262.8159 Q1110.8101,264.9077 1111.4949,265.9744 Q1112.1797,267.041 1113.5244,267.041 Q1114.1553,267.041 1114.7488,266.7712 Q1115.3423,266.5015 1115.9731,265.9204 Z " fill="#000000"/><text fill="#000000" font-family="sans-serif" font-size="14" lengthAdjust="spacing" textLength="124" x="1127" y="268.291">MeetingAccessList</text><line style="stroke:#181818;stroke-width:0.5;" x1="1099" x2="1253" y1="279" y2="279"/><line style="stroke:#181818;stroke-width:0.5;" x1="1099" x2="1253" y1="287" y2="287"/><ellipse cx="1109" cy="300.7441" fill="#84BE84" rx="3" ry="3" style="stroke:#038048;stroke-width:1.0;"/><text fill="#000000" font-family="sans-serif" font-size="14" lengthAdjust="spacing" textLength="103" x="1118" y="304.5352">getInviteState()</text><ellipse cx="1109" cy="317.2324" fill="#84BE84" rx="3" ry="3" style="stroke:#038048;stroke-width:1.0;"/><text fill="#000000" font-family="sans-serif" font-size="14" lengthAdjust="spacing" textLength="63" x="1118" y="321.0234">getUser()</text><ellipse cx="1109" cy="333.7207" fill="#84BE84" rx="3" ry="3" style="stroke:#038048;stroke-width:1.0;"/><text fill="#000000" font-family="sans-serif" font-size="14" lengthAdjust="spacing" textLength="114" x="1118" y="337.5117">getIdAccessList()</text><ellipse cx="1109" cy="350.209" fill="#84BE84" rx="3" ry="3" style="stroke:#038048;stroke-width:1.0;"/><text fill="#000000" font-family="sans-serif" font-size="14" lengthAdjust="spacing" textLength="87" x="1118" y="354">getMeeting()</text></g><!--class Enum--><g id="elem_Enum"><rect codeLine="52" fill="#F1F1F1" height="64.4883" id="Enum" rx="2.5" ry="2.5" style="stroke:#181818;stroke-width:0.5;" width="81" x="1135.5" y="445.5"/><ellipse cx="1155" cy="461.5" fill="#ADD1B2" rx="11" ry="11" style="stroke:#181818;stroke-width:1.0;"/><path d="M1157.9731,467.1431 Q1157.3921,467.4419 1156.7529,467.5913 Q1156.1138,467.7407 1155.4082,467.7407 Q1152.9014,467.7407 1151.5815,466.0889 Q1150.2617,464.437 1150.2617,461.3159 Q1150.2617,458.1865 1151.5815,456.5347 Q1152.9014,454.8828 1155.4082,454.8828 Q1156.1138,454.8828 1156.7612,455.0322 Q1157.4087,455.1816 1157.9731,455.4805 L1157.9731,458.2031 Q1157.3423,457.6221 1156.7488,457.3523 Q1156.1553,457.0825 1155.5244,457.0825 Q1154.1797,457.0825 1153.4949,458.1492 Q1152.8101,459.2158 1152.8101,461.3159 Q1152.8101,463.4077 1153.4949,464.4744 Q1154.1797,465.541 1155.5244,465.541 Q1156.1553,465.541 1156.7488,465.2712 Q1157.3423,465.0015 1157.9731,464.4204 Z " fill="#000000"/><text fill="#000000" font-family="sans-serif" font-size="14" lengthAdjust="spacing" textLength="39" x="1170" y="466.791">Enum</text><line style="stroke:#181818;stroke-width:0.5;" x1="1136.5" x2="1215.5" y1="477.5" y2="477.5"/><line style="stroke:#181818;stroke-width:0.5;" x1="1136.5" x2="1215.5" y1="485.5" y2="485.5"/><ellipse cx="1146.5" cy="499.2441" fill="#84BE84" rx="3" ry="3" style="stroke:#038048;stroke-width:1.0;"/><text fill="#000000" font-family="sans-serif" font-size="14" lengthAdjust="spacing" textLength="55" x="1155.5" y="503.0352">equals()</text></g><!--class Meeting--><g id="elem_Meeting"><rect codeLine="56" fill="#F1F1F1" height="97.4648" id="Meeting" rx="2.5" ry="2.5" style="stroke:#181818;stroke-width:0.5;" width="118" x="1252" y="429"/><ellipse cx="1280.95" cy="445" fill="#ADD1B2" rx="11" ry="11" style="stroke:#181818;stroke-width:1.0;"/><path d="M1283.9231,450.6431 Q1283.3421,450.9419 1282.7029,451.0913 Q1282.0638,451.2407 1281.3582,451.2407 Q1278.8514,451.2407 1277.5315,449.5889 Q1276.2117,447.937 1276.2117,444.8159 Q1276.2117,441.6865 1277.5315,440.0347 Q1278.8514,438.3828 1281.3582,438.3828 Q1282.0638,438.3828 1282.7112,438.5322 Q1283.3587,438.6816 1283.9231,438.9805 L1283.9231,441.7031 Q1283.2923,441.1221 1282.6988,440.8523 Q1282.1053,440.5825 1281.4744,440.5825 Q1280.1297,440.5825 1279.4449,441.6492 Q1278.7601,442.7158 1278.7601,444.8159 Q1278.7601,446.9077 1279.4449,447.9744 Q1280.1297,449.041 1281.4744,449.041 Q1282.1053,449.041 1282.6988,448.7712 Q1283.2923,448.5015 1283.9231,447.9204 Z " fill="#000000"/><text fill="#000000" font-family="sans-serif" font-size="14" lengthAdjust="spacing" textLength="55" x="1298.05" y="450.291">Meeting</text><line style="stroke:#181818;stroke-width:0.5;" x1="1253" x2="1369" y1="461" y2="461"/><line style="stroke:#181818;stroke-width:0.5;" x1="1253" x2="1369" y1="469" y2="469"/><ellipse cx="1263" cy="482.7441" fill="#84BE84" rx="3" ry="3" style="stroke:#038048;stroke-width:1.0;"/><text fill="#000000" font-family="sans-serif" font-size="14" lengthAdjust="spacing" textLength="63" x="1272" y="486.5352">getDate()</text><ellipse cx="1263" cy="499.2324" fill="#84BE84" rx="3" ry="3" style="stroke:#038048;stroke-width:1.0;"/><text fill="#000000" font-family="sans-serif" font-size="14" lengthAdjust="spacing" textLength="66" x="1272" y="503.0234">getHour()</text><ellipse cx="1263" cy="515.7207" fill="#84BE84" rx="3" ry="3" style="stroke:#038048;stroke-width:1.0;"/><text fill="#000000" font-family="sans-serif" font-size="14" lengthAdjust="spacing" textLength="92" x="1272" y="519.5117">getDuration()</text></g><!--class Console--><g id="elem_Console"><rect codeLine="62" fill="#F1F1F1" height="80.9766" id="Console" rx="2.5" ry="2.5" style="stroke:#181818;stroke-width:0.5;" width="116" x="1465" y="263.5"/><ellipse cx="1492.6" cy="279.5" fill="#ADD1B2" rx="11" ry="11" style="stroke:#181818;stroke-width:1.0;"/><path d="M1495.5731,285.1431 Q1494.9921,285.4419 1494.3529,285.5913 Q1493.7138,285.7407 1493.0082,285.7407 Q1490.5014,285.7407 1489.1815,284.0889 Q1487.8617,282.437 1487.8617,279.3159 Q1487.8617,276.1865 1489.1815,274.5347 Q1490.5014,272.8828 1493.0082,272.8828 Q1493.7138,272.8828 1494.3612,273.0322 Q1495.0087,273.1816 1495.5731,273.4805 L1495.5731,276.2031 Q1494.9423,275.6221 1494.3488,275.3523 Q1493.7553,275.0825 1493.1244,275.0825 Q1491.7797,275.0825 1491.0949,276.1492 Q1490.4101,277.2158 1490.4101,279.3159 Q1490.4101,281.4077 1491.0949,282.4744 Q1491.7797,283.541 1493.1244,283.541 Q1493.7553,283.541 1494.3488,283.2712 Q1494.9423,283.0015 1495.5731,282.4204 Z " fill="#000000"/><text fill="#000000" font-family="sans-serif" font-size="14" lengthAdjust="spacing" textLength="56" x="1509.4" y="284.791">Console</text><line style="stroke:#181818;stroke-width:0.5;" x1="1466" x2="1580" y1="295.5" y2="295.5"/><line style="stroke:#181818;stroke-width:0.5;" x1="1466" x2="1580" y1="303.5" y2="303.5"/><ellipse cx="1476" cy="317.2441" fill="#84BE84" rx="3" ry="3" style="stroke:#038048;stroke-width:1.0;"/><text fill="#000000" font-family="sans-serif" font-size="14" lengthAdjust="spacing" textLength="90" x="1485" y="321.0352">readInteger()</text><ellipse cx="1476" cy="333.7324" fill="#84BE84" rx="3" ry="3" style="stroke:#038048;stroke-width:1.0;"/><text fill="#000000" font-family="sans-serif" font-size="14" lengthAdjust="spacing" textLength="69" x="1485" y="337.5234">readLine()</text></g><!--class Iterable--><g id="elem_Iterable"><rect codeLine="67" fill="#F1F1F1" height="64.4883" id="Iterable" rx="2.5" ry="2.5" style="stroke:#181818;stroke-width:0.5;" width="87" x="1616.5" y="272"/><ellipse cx="1632.85" cy="288" fill="#ADD1B2" rx="11" ry="11" style="stroke:#181818;stroke-width:1.0;"/><path d="M1635.8231,293.6431 Q1635.2421,293.9419 1634.6029,294.0913 Q1633.9638,294.2407 1633.2582,294.2407 Q1630.7514,294.2407 1629.4315,292.5889 Q1628.1117,290.937 1628.1117,287.8159 Q1628.1117,284.6865 1629.4315,283.0347 Q1630.7514,281.3828 1633.2582,281.3828 Q1633.9638,281.3828 1634.6112,281.5322 Q1635.2587,281.6816 1635.8231,281.9805 L1635.8231,284.7031 Q1635.1923,284.1221 1634.5988,283.8523 Q1634.0053,283.5825 1633.3744,283.5825 Q1632.0297,283.5825 1631.3449,284.6492 Q1630.6601,285.7158 1630.6601,287.8159 Q1630.6601,289.9077 1631.3449,290.9744 Q1632.0297,292.041 1633.3744,292.041 Q1634.0053,292.041 1634.5988,291.7712 Q1635.1923,291.5015 1635.8231,290.9204 Z " fill="#000000"/><text fill="#000000" font-family="sans-serif" font-size="14" lengthAdjust="spacing" textLength="52" x="1647.15" y="293.291">Iterable</text><line style="stroke:#181818;stroke-width:0.5;" x1="1617.5" x2="1702.5" y1="304" y2="304"/><line style="stroke:#181818;stroke-width:0.5;" x1="1617.5" x2="1702.5" y1="312" y2="312"/><ellipse cx="1627.5" cy="325.7441" fill="#84BE84" rx="3" ry="3" style="stroke:#038048;stroke-width:1.0;"/><text fill="#000000" font-family="sans-serif" font-size="14" lengthAdjust="spacing" textLength="61" x="1636.5" y="329.5352">iterator()</text></g><!--class Iterator--><g id="elem_Iterator"><rect codeLine="71" fill="#F1F1F1" height="80.9766" id="Iterator" rx="2.5" ry="2.5" style="stroke:#181818;stroke-width:0.5;" width="92" x="1739" y="263.5"/><ellipse cx="1758.05" cy="279.5" fill="#ADD1B2" rx="11" ry="11" style="stroke:#181818;stroke-width:1.0;"/><path d="M1761.0231,285.1431 Q1760.4421,285.4419 1759.8029,285.5913 Q1759.1638,285.7407 1758.4582,285.7407 Q1755.9514,285.7407 1754.6315,284.0889 Q1753.3117,282.437 1753.3117,279.3159 Q1753.3117,276.1865 1754.6315,274.5347 Q1755.9514,272.8828 1758.4582,272.8828 Q1759.1638,272.8828 1759.8112,273.0322 Q1760.4587,273.1816 1761.0231,273.4805 L1761.0231,276.2031 Q1760.3923,275.6221 1759.7988,275.3523 Q1759.2053,275.0825 1758.5744,275.0825 Q1757.2297,275.0825 1756.5449,276.1492 Q1755.8601,277.2158 1755.8601,279.3159 Q1755.8601,281.4077 1756.5449,282.4744 Q1757.2297,283.541 1758.5744,283.541 Q1759.2053,283.541 1759.7988,283.2712 Q1760.3923,283.0015 1761.0231,282.4204 Z " fill="#000000"/><text fill="#000000" font-family="sans-serif" font-size="14" lengthAdjust="spacing" textLength="51" x="1772.95" y="284.791">Iterator</text><line style="stroke:#181818;stroke-width:0.5;" x1="1740" x2="1830" y1="295.5" y2="295.5"/><line style="stroke:#181818;stroke-width:0.5;" x1="1740" x2="1830" y1="303.5" y2="303.5"/><ellipse cx="1750" cy="317.2441" fill="#84BE84" rx="3" ry="3" style="stroke:#038048;stroke-width:1.0;"/><text fill="#000000" font-family="sans-serif" font-size="14" lengthAdjust="spacing" textLength="66" x="1759" y="321.0352">hasNext()</text><ellipse cx="1750" cy="333.7324" fill="#84BE84" rx="3" ry="3" style="stroke:#038048;stroke-width:1.0;"/><text fill="#000000" font-family="sans-serif" font-size="14" lengthAdjust="spacing" textLength="41" x="1759" y="337.5234">next()</text></g><!--class SystemUser--><g id="elem_SystemUser"><rect codeLine="76" fill="#F1F1F1" height="80.9766" id="SystemUser" rx="2.5" ry="2.5" style="stroke:#181818;stroke-width:0.5;" width="111" x="1405.5" y="437"/><ellipse cx="1420.5" cy="453" fill="#ADD1B2" rx="11" ry="11" style="stroke:#181818;stroke-width:1.0;"/><path d="M1423.4731,458.6431 Q1422.8921,458.9419 1422.2529,459.0913 Q1421.6138,459.2407 1420.9082,459.2407 Q1418.4014,459.2407 1417.0815,457.5889 Q1415.7617,455.937 1415.7617,452.8159 Q1415.7617,449.6865 1417.0815,448.0347 Q1418.4014,446.3828 1420.9082,446.3828 Q1421.6138,446.3828 1422.2612,446.5322 Q1422.9087,446.6816 1423.4731,446.9805 L1423.4731,449.7031 Q1422.8423,449.1221 1422.2488,448.8523 Q1421.6553,448.5825 1421.0244,448.5825 Q1419.6797,448.5825 1418.9949,449.6492 Q1418.3101,450.7158 1418.3101,452.8159 Q1418.3101,454.9077 1418.9949,455.9744 Q1419.6797,457.041 1421.0244,457.041 Q1421.6553,457.041 1422.2488,456.7712 Q1422.8423,456.5015 1423.4731,455.9204 Z " fill="#000000"/><text fill="#000000" font-family="sans-serif" font-size="14" lengthAdjust="spacing" textLength="79" x="1434.5" y="458.291">SystemUser</text><line style="stroke:#181818;stroke-width:0.5;" x1="1406.5" x2="1515.5" y1="469" y2="469"/><line style="stroke:#181818;stroke-width:0.5;" x1="1406.5" x2="1515.5" y1="477" y2="477"/><ellipse cx="1416.5" cy="490.7441" fill="#84BE84" rx="3" ry="3" style="stroke:#038048;stroke-width:1.0;"/><text fill="#000000" font-family="sans-serif" font-size="14" lengthAdjust="spacing" textLength="55" x="1425.5" y="494.5352">equals()</text><ellipse cx="1416.5" cy="507.2324" fill="#84BE84" rx="3" ry="3" style="stroke:#038048;stroke-width:1.0;"/><text fill="#000000" font-family="sans-serif" font-size="14" lengthAdjust="spacing" textLength="48" x="1425.5" y="511.0234">name()</text></g><!--class Throwable--><g id="elem_Throwable"><rect codeLine="81" fill="#F1F1F1" height="64.4883" id="Throwable" rx="2.5" ry="2.5" style="stroke:#181818;stroke-width:0.5;" width="117" x="1866.5" y="272"/><ellipse cx="1886.9" cy="288" fill="#ADD1B2" rx="11" ry="11" style="stroke:#181818;stroke-width:1.0;"/><path d="M1889.8731,293.6431 Q1889.2921,293.9419 1888.6529,294.0913 Q1888.0138,294.2407 1887.3082,294.2407 Q1884.8014,294.2407 1883.4815,292.5889 Q1882.1617,290.937 1882.1617,287.8159 Q1882.1617,284.6865 1883.4815,283.0347 Q1884.8014,281.3828 1887.3082,281.3828 Q1888.0138,281.3828 1888.6612,281.5322 Q1889.3087,281.6816 1889.8731,281.9805 L1889.8731,284.7031 Q1889.2423,284.1221 1888.6488,283.8523 Q1888.0553,283.5825 1887.4244,283.5825 Q1886.0797,283.5825 1885.3949,284.6492 Q1884.7101,285.7158 1884.7101,287.8159 Q1884.7101,289.9077 1885.3949,290.9744 Q1886.0797,292.041 1887.4244,292.041 Q1888.0553,292.041 1888.6488,291.7712 Q1889.2423,291.5015 1889.8731,290.9204 Z " fill="#000000"/><text fill="#000000" font-family="sans-serif" font-size="14" lengthAdjust="spacing" textLength="73" x="1902.1" y="293.291">Throwable</text><line style="stroke:#181818;stroke-width:0.5;" x1="1867.5" x2="1982.5" y1="304" y2="304"/><line style="stroke:#181818;stroke-width:0.5;" x1="1867.5" x2="1982.5" y1="312" y2="312"/><ellipse cx="1877.5" cy="325.7441" fill="#84BE84" rx="3" ry="3" style="stroke:#038048;stroke-width:1.0;"/><text fill="#000000" font-family="sans-serif" font-size="14" lengthAdjust="spacing" textLength="91" x="1886.5" y="329.5352">getMessage()</text></g><!--class String--><g id="elem_String"><rect fill="#F1F1F1" height="48" id="String" rx="2.5" ry="2.5" style="stroke:#181818;stroke-width:0.5;" width="73" x="2018.5" y="280"/><ellipse cx="2033.5" cy="296" fill="#ADD1B2" rx="11" ry="11" style="stroke:#181818;stroke-width:1.0;"/><path d="M2036.4731,301.6431 Q2035.8921,301.9419 2035.2529,302.0913 Q2034.6138,302.2407 2033.9082,302.2407 Q2031.4014,302.2407 2030.0815,300.5889 Q2028.7617,298.937 2028.7617,295.8159 Q2028.7617,292.6865 2030.0815,291.0347 Q2031.4014,289.3828 2033.9082,289.3828 Q2034.6138,289.3828 2035.2612,289.5322 Q2035.9087,289.6816 2036.4731,289.9805 L2036.4731,292.7031 Q2035.8423,292.1221 2035.2488,291.8523 Q2034.6553,291.5825 2034.0244,291.5825 Q2032.6797,291.5825 2031.9949,292.6492 Q2031.3101,293.7158 2031.3101,295.8159 Q2031.3101,297.9077 2031.9949,298.9744 Q2032.6797,300.041 2034.0244,300.041 Q2034.6553,300.041 2035.2488,299.7712 Q2035.8423,299.5015 2036.4731,298.9204 Z " fill="#000000"/><text fill="#000000" font-family="sans-serif" font-size="14" lengthAdjust="spacing" textLength="41" x="2047.5" y="301.291">String</text><line style="stroke:#181818;stroke-width:0.5;" x1="2019.5" x2="2090.5" y1="312" y2="312"/><line style="stroke:#181818;stroke-width:0.5;" x1="2019.5" x2="2090.5" y1="320" y2="320"/></g><!--class MeetingALRepository--><g id="elem_MeetingALRepository"><rect fill="#F1F1F1" height="48" id="MeetingALRepository" rx="2.5" ry="2.5" style="stroke:#181818;stroke-width:0.5;" width="177" x="501.5" y="453.5"/><ellipse cx="516.5" cy="469.5" fill="#ADD1B2" rx="11" ry="11" style="stroke:#181818;stroke-width:1.0;"/><path d="M519.4731,475.1431 Q518.8921,475.4419 518.2529,475.5913 Q517.6138,475.7407 516.9082,475.7407 Q514.4014,475.7407 513.0815,474.0889 Q511.7617,472.437 511.7617,469.3159 Q511.7617,466.1865 513.0815,464.5347 Q514.4014,462.8828 516.9082,462.8828 Q517.6138,462.8828 518.2612,463.0322 Q518.9087,463.1816 519.4731,463.4805 L519.4731,466.2031 Q518.8423,465.6221 518.2488,465.3523 Q517.6553,465.0825 517.0244,465.0825 Q515.6797,465.0825 514.9949,466.1492 Q514.3101,467.2158 514.3101,469.3159 Q514.3101,471.4077 514.9949,472.4744 Q515.6797,473.541 517.0244,473.541 Q517.6553,473.541 518.2488,473.2712 Q518.8423,473.0015 519.4731,472.4204 Z " fill="#000000"/><text fill="#000000" font-family="sans-serif" font-size="14" lengthAdjust="spacing" textLength="145" x="530.5" y="474.791">MeetingALRepository</text><line style="stroke:#181818;stroke-width:0.5;" x1="502.5" x2="677.5" y1="485.5" y2="485.5"/><line style="stroke:#181818;stroke-width:0.5;" x1="502.5" x2="677.5" y1="493.5" y2="493.5"/></g><!--link Actor to EvaluateMeetingsUI--><g id="link_Actor_EvaluateMeetingsUI"><path codeLine="85" d="M1467,55.07 C1467,70.64 1467,91.51 1467,109.33 " fill="none" id="Actor-to-EvaluateMeetingsUI" style="stroke:#181818;stroke-width:1.0;"/><polygon fill="#181818" points="1467,114.75,1471,105.75,1467,109.75,1463,105.75,1467,114.75" style="stroke:#181818;stroke-width:1.0;"/></g><!--link EvaluateMeetingsUI to MeetingEvaluationController--><g id="link_EvaluateMeetingsUI_MeetingEvaluationController"><path codeLine="86" d="M1384.23,159.91 C1267.63,176.81 1048.41,209.03 862,239 C776.73,252.71 680.71,269.16 607.31,281.95 " fill="none" id="EvaluateMeetingsUI-to-MeetingEvaluationController" style="stroke:#181818;stroke-width:1.0;"/><polygon fill="#181818" points="602.07,282.87,611.6223,285.2688,606.9961,282.0133,610.2515,277.3871,602.07,282.87" style="stroke:#181818;stroke-width:1.0;"/></g><!--link EvaluateMeetingsUI to PrintStream--><g id="link_EvaluateMeetingsUI_PrintStream"><path codeLine="87" d="M1384.3,152.46 C1288.04,160.38 1127.06,181.85 1002,239 C989.87,244.54 977.89,252.15 967.36,260.2 " fill="none" id="EvaluateMeetingsUI-to-PrintStream" style="stroke:#181818;stroke-width:1.0;"/><polygon fill="#181818" points="963.24,263.42,972.7885,261.0064,967.1721,260.3315,967.847,254.7151,963.24,263.42" style="stroke:#181818;stroke-width:1.0;"/></g><!--link PrintStream to EvaluateMeetingsUI--><g id="link_PrintStream_EvaluateMeetingsUI"><path codeLine="119" d="M992.07,267.09 C1006.12,256.63 1021.44,246.11 1037,239 C1148.94,187.85 1289.64,165.28 1379.2,155.43 " fill="none" id="PrintStream-to-EvaluateMeetingsUI" style="stroke:#181818;stroke-width:1.0;"/><polygon fill="#181818" points="1384.22,154.88,1374.839,151.8806,1379.2495,155.4228,1375.7074,159.8333,1384.22,154.88" style="stroke:#181818;stroke-width:1.0;"/></g><!--link EvaluateMeetingsUI to MeetingAccessList--><g id="link_EvaluateMeetingsUI_MeetingAccessList"><path codeLine="88" d="M1384.38,179.17 C1346.87,196.09 1302.62,217.84 1264,239 C1260.78,240.76 1257.52,242.58 1254.25,244.43 " fill="none" id="EvaluateMeetingsUI-to-MeetingAccessList" style="stroke:#181818;stroke-width:1.0;"/><polygon fill="#181818" points="1249.77,246.98,1259.568,245.9808,1254.1095,244.4962,1255.594,239.0377,1249.77,246.98" style="stroke:#181818;stroke-width:1.0;"/></g><!--link MeetingAccessList to EvaluateMeetingsUI--><g id="link_MeetingAccessList_EvaluateMeetingsUI"><path codeLine="121" d="M1254.01,264.81 C1268.94,256.07 1284.4,247 1299,239 C1335.81,218.83 1377.73,198.13 1410.74,181.58 " fill="none" id="MeetingAccessList-to-EvaluateMeetingsUI" style="stroke:#181818;stroke-width:1.0;"/><polygon fill="#181818" points="1415.55,179.17,1405.7119,179.6298,1411.0807,181.4118,1409.2987,186.7806,1415.55,179.17" style="stroke:#181818;stroke-width:1.0;"/></g><!--link EvaluateMeetingsUI to Enum--><g id="link_EvaluateMeetingsUI_Enum"><path codeLine="89" d="M1384.35,155.59 C1282.2,166.88 1117.23,192 1080,239 C1044.12,284.29 1059.4,315.02 1080,369 C1090.75,397.17 1112.65,422.64 1132.82,441.71 " fill="none" id="EvaluateMeetingsUI-to-Enum" style="stroke:#181818;stroke-width:1.0;"/><polygon fill="#181818" points="1136.56,445.19,1132.711,436.1244,1132.9052,441.7779,1127.2517,441.9721,1136.56,445.19" style="stroke:#181818;stroke-width:1.0;"/></g><!--link EvaluateMeetingsUI to Meeting--><g id="link_EvaluateMeetingsUI_Meeting"><path codeLine="90" d="M1444.32,179.2 C1411.69,235.58 1354.39,354.99 1326.25,424.09 " fill="none" id="EvaluateMeetingsUI-to-Meeting" style="stroke:#181818;stroke-width:1.0;"/><polygon fill="#181818" points="1324.28,428.98,1331.3619,422.1356,1326.1542,424.3446,1323.9452,419.1368,1324.28,428.98" style="stroke:#181818;stroke-width:1.0;"/></g><!--link Meeting to EvaluateMeetingsUI--><g id="link_Meeting_EvaluateMeetingsUI"><path codeLine="126" d="M1343.4,428.98 C1380.11,362.62 1436.27,243.67 1458.7,184.08 " fill="none" id="Meeting-to-EvaluateMeetingsUI" style="stroke:#181818;stroke-width:1.0;"/><polygon fill="#181818" points="1460.51,179.2,1453.6234,186.2409,1458.7669,183.8863,1461.1215,189.0299,1460.51,179.2" style="stroke:#181818;stroke-width:1.0;"/></g><!--link EvaluateMeetingsUI to Console--><g id="link_EvaluateMeetingsUI_Console"><path codeLine="91" d="M1467.85,179.37 C1473.53,202.18 1484.41,233.39 1495.37,258.74 " fill="none" id="EvaluateMeetingsUI-to-Console" style="stroke:#181818;stroke-width:1.0;"/><polygon fill="#181818" points="1497.41,263.4,1497.4415,253.5512,1495.3939,258.8245,1490.1206,256.7769,1497.41,263.4" style="stroke:#181818;stroke-width:1.0;"/></g><!--link Console to EvaluateMeetingsUI--><g id="link_Console_EvaluateMeetingsUI"><path codeLine="128" d="M1520.64,263.4 C1513.98,238.94 1502.61,207.79 1491.62,184.02 " fill="none" id="Console-to-EvaluateMeetingsUI" style="stroke:#181818;stroke-width:1.0;"/><polygon fill="#181818" points="1489.43,179.37,1489.6759,189.2158,1491.5741,183.8869,1496.903,185.7852,1489.43,179.37" style="stroke:#181818;stroke-width:1.0;"/></g><!--link EvaluateMeetingsUI to Iterable--><g id="link_EvaluateMeetingsUI_Iterable"><path codeLine="92" d="M1502.12,179.19 C1525.75,195.79 1556.49,217.23 1582,239 C1592.4,247.87 1602.95,258.32 1612.99,268.17 " fill="none" id="EvaluateMeetingsUI-to-Iterable" style="stroke:#181818;stroke-width:1.0;"/><polygon fill="#181818" points="1616.67,271.77,1613.0418,262.6138,1613.0989,268.2704,1607.4424,268.3275,1616.67,271.77" style="stroke:#181818;stroke-width:1.0;"/></g><!--link Iterable to EvaluateMeetingsUI--><g id="link_Iterable_EvaluateMeetingsUI"><path codeLine="130" d="M1649.59,271.77 C1640.54,260.91 1628.68,248.96 1617,239 C1592.88,218.42 1564.09,198.13 1537.98,181.96 " fill="none" id="Iterable-to-EvaluateMeetingsUI" style="stroke:#181818;stroke-width:1.0;"/><polygon fill="#181818" points="1533.47,179.19,1539.0461,187.3083,1537.7307,181.8065,1543.2325,180.4911,1533.47,179.19" style="stroke:#181818;stroke-width:1.0;"/></g><!--link EvaluateMeetingsUI to Iterator--><g id="link_EvaluateMeetingsUI_Iterator"><path codeLine="93" d="M1549.55,172.01 C1597,186.77 1656.22,208.73 1704,239 C1714.78,245.83 1725.16,254.77 1734.86,263.79 " fill="none" id="EvaluateMeetingsUI-to-Iterator" style="stroke:#181818;stroke-width:1.0;"/><polygon fill="#181818" points="1738.68,267.38,1734.8487,258.3069,1735.0319,263.9608,1729.378,264.1439,1738.68,267.38" style="stroke:#181818;stroke-width:1.0;"/></g><!--link Iterator to EvaluateMeetingsUI--><g id="link_Iterator_EvaluateMeetingsUI"><path codeLine="132" d="M1768.35,263.38 C1759.85,254.5 1749.62,245.73 1739,239 C1682.83,203.41 1610.84,179.31 1554.79,164.9 " fill="none" id="Iterator-to-EvaluateMeetingsUI" style="stroke:#181818;stroke-width:1.0;"/><polygon fill="#181818" points="1549.76,163.62,1557.4832,169.7317,1554.6031,164.8629,1559.4718,161.9828,1549.76,163.62" style="stroke:#181818;stroke-width:1.0;"/></g><!--link EvaluateMeetingsUI to String--><g id="link_EvaluateMeetingsUI_String"><path codeLine="94" d="M1549.73,156.19 C1676.37,169.07 1910.52,196.99 1984,239 C1999.33,247.76 2012.26,262.61 2023.44,275.8 " fill="none" id="EvaluateMeetingsUI-to-String" style="stroke:#181818;stroke-width:1.0;"/><polygon fill="#181818" points="2026.86,279.84,2024.0985,270.3862,2023.6296,276.0236,2017.9923,275.5548,2026.86,279.84" style="stroke:#181818;stroke-width:1.0;"/></g><!--link String to EvaluateMeetingsUI--><g id="link_String_EvaluateMeetingsUI"><path codeLine="134" d="M2056.84,279.84 C2049.91,265.75 2035.91,248.67 2019,239 C1942.27,195.13 1690.35,166.63 1554.73,154.57 " fill="none" id="String-to-EvaluateMeetingsUI" style="stroke:#181818;stroke-width:1.0;"/><polygon fill="#181818" points="1549.56,154.11,1558.1844,158.8661,1554.5416,154.5382,1558.8695,150.8955,1549.56,154.11" style="stroke:#181818;stroke-width:1.0;"/></g><!--link EvaluateMeetingsUI to DomainRepository--><g id="link_EvaluateMeetingsUI_DomainRepository"><path codeLine="95" d="M1384.42,148.1 C1159.65,149.41 541.37,160.28 356,239 C255.55,281.66 166.39,376.79 119.94,432.85 " fill="none" id="EvaluateMeetingsUI-to-DomainRepository" style="stroke:#181818;stroke-width:1.0;"/><polygon fill="#181818" points="116.67,436.82,125.4854,432.428,119.854,432.9649,119.3172,427.3336,116.67,436.82" style="stroke:#181818;stroke-width:1.0;"/></g><!--link EvaluateMeetingsUI to SystemUser--><g id="link_EvaluateMeetingsUI_SystemUser"><path codeLine="96" d="M1458.79,179.34 C1454.65,196.77 1450.07,218.93 1448,239 C1441.08,305.98 1448.25,383.99 1454.37,431.8 " fill="none" id="EvaluateMeetingsUI-to-SystemUser" style="stroke:#181818;stroke-width:1.0;"/><polygon fill="#181818" points="1455.03,436.91,1457.8393,427.4703,1454.387,431.9515,1449.9058,428.4992,1455.03,436.91" style="stroke:#181818;stroke-width:1.0;"/></g><!--link EvaluateMeetingsUI to Throwable--><g id="link_EvaluateMeetingsUI_Throwable"><path codeLine="97" d="M1549.84,158.38 C1626.38,169.87 1741.14,193.2 1832,239 C1847.08,246.6 1861.73,257.74 1875.04,268.61 " fill="none" id="EvaluateMeetingsUI-to-Throwable" style="stroke:#181818;stroke-width:1.0;"/><polygon fill="#181818" points="1879.12,271.97,1874.7086,263.1643,1875.2579,268.7945,1869.6277,269.3438,1879.12,271.97" style="stroke:#181818;stroke-width:1.0;"/></g><!--link Throwable to EvaluateMeetingsUI--><g id="link_Throwable_EvaluateMeetingsUI"><path codeLine="136" d="M1911.5,271.97 C1899.76,260.09 1883.64,247.39 1867,239 C1767.32,188.76 1638.88,165.56 1554.53,155.36 " fill="none" id="Throwable-to-EvaluateMeetingsUI" style="stroke:#181818;stroke-width:1.0;"/><polygon fill="#181818" points="1549.55,154.77,1558.0202,159.7956,1554.5157,155.355,1558.9562,151.8505,1549.55,154.77" style="stroke:#181818;stroke-width:1.0;"/></g><!--link MeetingEvaluationController to AuthzRegistry--><g id="link_MeetingEvaluationController_AuthzRegistry"><path codeLine="99" d="M602.05,338.38 C683,361.2 793.53,393.63 889,429 C898.59,432.55 908.54,436.56 918.46,440.71 " fill="none" id="MeetingEvaluationController-to-AuthzRegistry" style="stroke:#181818;stroke-width:1.0;"/><polygon fill="#181818" points="923.32,442.75,916.5586,435.5887,918.7067,440.8219,913.4736,442.97,923.32,442.75" style="stroke:#181818;stroke-width:1.0;"/></g><!--link AuthzRegistry to MeetingEvaluationController--><g id="link_AuthzRegistry_MeetingEvaluationController"><path codeLine="107" d="M944.15,436.9 C937.41,434.12 930.62,431.45 924,429 C819.16,390.15 696.14,354.85 607.37,331.94 " fill="none" id="AuthzRegistry-to-MeetingEvaluationController" style="stroke:#181818;stroke-width:1.0;"/><polygon fill="#181818" points="602.38,330.65,610.1032,336.7617,607.2231,331.8929,612.0918,329.0128,602.38,330.65" style="stroke:#181818;stroke-width:1.0;"/></g><!--link MeetingEvaluationController to DomainRepository--><g id="link_MeetingEvaluationController_DomainRepository"><path codeLine="100" d="M373.85,345.87 C314.15,369.76 240.31,400.69 175,429 C170.65,430.88 166.21,432.82 161.74,434.79 " fill="none" id="MeetingEvaluationController-to-DomainRepository" style="stroke:#181818;stroke-width:1.0;"/><polygon fill="#181818" points="156.88,436.94,166.7288,436.9715,161.4555,434.9239,163.5031,429.6506,156.88,436.94" style="stroke:#181818;stroke-width:1.0;"/></g><!--link DomainRepository to MeetingEvaluationController--><g id="link_DomainRepository_MeetingEvaluationController"><path codeLine="109" d="M165.03,448.61 C180.09,442.11 195.57,435.26 210,429 C262.12,406.41 319.68,382.14 368.94,361.12 " fill="none" id="DomainRepository-to-MeetingEvaluationController" style="stroke:#181818;stroke-width:1.0;"/><polygon fill="#181818" points="373.68,359.09,363.832,358.9587,369.0843,361.0596,366.9834,366.3119,373.68,359.09" style="stroke:#181818;stroke-width:1.0;"/></g><!--link MeetingEvaluationController to AuthorizationService--><g id="link_MeetingEvaluationController_AuthorizationService"><path codeLine="101" d="M592.61,369.1 C637.46,394.15 688.66,421.84 729.17,442.83 " fill="none" id="MeetingEvaluationController-to-AuthorizationService" style="stroke:#181818;stroke-width:1.0;"/><polygon fill="#181818" points="734.06,445.35,727.8869,437.6758,729.6139,443.0626,724.2271,444.7896,734.06,445.35" style="stroke:#181818;stroke-width:1.0;"/></g><!--link AuthorizationService to MeetingEvaluationController--><g id="link_AuthorizationService_MeetingEvaluationController"><path codeLine="112" d="M754.79,445.32 C715.79,422.43 658.55,390.68 607.01,363.16 " fill="none" id="AuthorizationService-to-MeetingEvaluationController" style="stroke:#181818;stroke-width:1.0;"/><polygon fill="#181818" points="602.36,360.68,608.4149,368.4478,606.7706,363.0352,612.1832,361.3908,602.36,360.68" style="stroke:#181818;stroke-width:1.0;"/></g><!--link MeetingEvaluationController to Optional--><g id="link_MeetingEvaluationController_Optional"><path codeLine="102" d="M373.81,341.14 C333.58,360.8 293.05,389.38 271,429 C250.03,466.67 246.76,490.35 271,526 C313.77,588.91 407.48,608.33 466.79,614.32 " fill="none" id="MeetingEvaluationController-to-Optional" style="stroke:#181818;stroke-width:1.0;"/><polygon fill="#181818" points="472.06,614.83,463.4765,610.0005,467.0822,614.3593,462.7234,617.965,472.06,614.83" style="stroke:#181818;stroke-width:1.0;"/></g><!--link Optional to MeetingEvaluationController--><g id="link_Optional_MeetingEvaluationController"><path codeLine="115" d="M472.27,611.71 C421.82,603.35 343.9,581.76 306,526 C281.76,490.35 285.03,466.67 306,429 C320.93,402.17 344.33,380.41 369.49,363.05 " fill="none" id="Optional-to-MeetingEvaluationController" style="stroke:#181818;stroke-width:1.0;"/><polygon fill="#181818" points="373.87,360.08,364.1735,361.8056,369.7274,362.8798,368.6532,368.4337,373.87,360.08" style="stroke:#181818;stroke-width:1.0;"/></g><!--link MeetingEvaluationController to UserSession--><g id="link_MeetingEvaluationController_UserSession"><path codeLine="103" d="M437.34,369.35 C422.11,393.56 406.87,420.2 396.62,440.87 " fill="none" id="MeetingEvaluationController-to-UserSession" style="stroke:#181818;stroke-width:1.0;"/><polygon fill="#181818" points="394.38,445.45,401.9102,439.102,396.5645,440.9525,394.7141,435.6068,394.38,445.45" style="stroke:#181818;stroke-width:1.0;"/></g><!--link UserSession to MeetingEvaluationController--><g id="link_UserSession_MeetingEvaluationController"><path codeLine="117" d="M415.15,445.45 C429.44,425.49 446.21,398.75 460.26,373.95 " fill="none" id="UserSession-to-MeetingEvaluationController" style="stroke:#181818;stroke-width:1.0;"/><polygon fill="#181818" points="462.85,369.35,454.9596,375.2442,460.4048,373.7113,461.9377,379.1565,462.85,369.35" style="stroke:#181818;stroke-width:1.0;"/></g><!--link MeetingEvaluationController to MeetingALRepository--><g id="link_MeetingEvaluationController_MeetingALRepository"><path codeLine="104" d="M526.27,369.35 C542.63,396.86 560.86,427.5 573.61,448.95 " fill="none" id="MeetingEvaluationController-to-MeetingALRepository" style="stroke:#181818;stroke-width:1.0;"/><polygon fill="#181818" points="576.25,453.38,575.0878,443.6,573.6943,449.0825,568.2118,447.689,576.25,453.38" style="stroke:#181818;stroke-width:1.0;"/></g><!--link AuthzRegistry to Invariants--><g id="link_AuthzRegistry_Invariants"><path codeLine="106" d="M1012,518.19 C1012,540.74 1012,568.43 1012,588.76 " fill="none" id="AuthzRegistry-to-Invariants" style="stroke:#181818;stroke-width:1.0;"/><polygon fill="#181818" points="1012,593.76,1016,584.76,1012,588.76,1008,584.76,1012,593.76" style="stroke:#181818;stroke-width:1.0;"/></g><!--link AuthorizationService to Optional--><g id="link_AuthorizationService_Optional"><path codeLine="111" d="M726.65,509.58 C676.63,532.79 612.26,564.32 568.17,587.21 " fill="none" id="AuthorizationService-to-Optional" style="stroke:#181818;stroke-width:1.0;"/><polygon fill="#181818" points="563.71,589.54,573.5391,588.9167,568.1414,587.2242,569.8339,581.8265,563.71,589.54" style="stroke:#181818;stroke-width:1.0;"/></g><!--link Optional to AuthorizationService--><g id="link_Optional_AuthorizationService"><path codeLine="114" d="M563.88,599.15 C613.25,577.19 691.12,539.47 744.23,512.04 " fill="none" id="Optional-to-AuthorizationService" style="stroke:#181818;stroke-width:1.0;"/><polygon fill="#181818" points="748.97,509.58,739.1386,510.1654,744.5297,511.8787,742.8164,517.2698,748.97,509.58" style="stroke:#181818;stroke-width:1.0;"/></g><!--link MeetingAccessList to Enum--><g id="link_MeetingAccessList_Enum"><path codeLine="122" d="M1176,361.16 C1176,387.13 1176,417.23 1176,440.17 " fill="none" id="MeetingAccessList-to-Enum" style="stroke:#181818;stroke-width:1.0;"/><polygon fill="#181818" points="1176,445.25,1180,436.25,1176,440.25,1172,436.25,1176,445.25" style="stroke:#181818;stroke-width:1.0;"/></g><!--link MeetingAccessList to SystemUser--><g id="link_MeetingAccessList_SystemUser"><path codeLine="123" d="M1254.06,349.47 C1294.34,372.71 1344.1,401.9 1388,429 C1392.25,431.62 1396.61,434.36 1400.99,437.13 " fill="none" id="MeetingAccessList-to-SystemUser" style="stroke:#181818;stroke-width:1.0;"/><polygon fill="#181818" points="1405.38,439.92,1399.9201,431.7231,1401.157,437.243,1395.637,438.4799,1405.38,439.92" style="stroke:#181818;stroke-width:1.0;"/></g><!--link MeetingAccessList to Meeting--><g id="link_MeetingAccessList_Meeting"><path codeLine="124" d="M1220.2,361.16 C1236.35,381.67 1254.53,404.76 1270.35,424.86 " fill="none" id="MeetingAccessList-to-Meeting" style="stroke:#181818;stroke-width:1.0;"/><polygon fill="#181818" points="1273.48,428.84,1271.045,419.2969,1270.3827,424.9149,1264.7648,424.2526,1273.48,428.84" style="stroke:#181818;stroke-width:1.0;"/></g><!--SRC=[ZPJRRjmW48RlUGfVjeho2fMiRAIkj4sYk7a0QizwaLZO0DuqgVBk7Gx6-82TEpFppO4PyzUSQbsKjP6AaDeTxg-KTzJ0Bm33HAjVziK_KXGtZQnEyktRT_BPau480KoAEocCafo3yY42B8yVd6aJwFBWJIsO5mtA7oWte2g3LSkfOPTMB3jp-dY65jEfTr-3eaagzk4Qg41TMGq-Xv3YeUCyZT-BArMC2gDxoqwUAHFFS96QuH12qYCJJUb2yQ3f5QPDJ2lwC7cq1UaVFk8VBnQat3DuxzHfPr21raWCzm5XM8rtRyA48lsac32LKK3FdhvO0nU-KNSuBcoeh6iiSS2fnHvm4io0c_32FYpG357H6FAb9Uv55tg1ruvolL0-5jsbrNxARgYswvGRPngDVvEMF8mMhzpiXO6sRz4Q3aoC9ht7dyPEtuSmUyATpWYqUU94zGFy3TSJ_YkYrRisSBOpcLpFilGyAlpxfEJRKDbDIclQ1iYzh-BsziV2uo8BxysIAuyh5vBy7HjPXzNcGBlMZIGvTzXRpjqlQTLlzIZZnmkk59- -vsoMkDqS4NTAo9hGMNGaIvlqhCMlf9yApcPGhpgROA90cspKyAHxCXPbjy91PkVEjH-RpEHuCs9HZKS3o1AhUQDgPpSm8bPpfIA_2QSQdv4CCjVr39a1xUDUTYNlOXde7t_lplROotVE7yLw5LWHJkAL8EiUH3b3_0S0]--></g></svg>