<?xml version="1.0" encoding="us-ascii" standalone="no"?><svg xmlns="http://www.w3.org/2000/svg" xmlns:xlink="http://www.w3.org/1999/xlink" contentStyleType="text/css" height="1206px" preserveAspectRatio="none" style="width:603px;height:1206px;background:#FFFFFF;" version="1.1" viewBox="0 0 603 1206" width="603px" zoomAndPan="magnify"><defs/><g><!--class HttpServerAjaxBoard--><g id="elem_HttpServerAjaxBoard"><rect codeLine="1" fill="#F1F1F1" height="196.9688" id="HttpServerAjaxBoard" rx="2.5" ry="2.5" style="stroke:#181818;stroke-width:0.5;" width="355" x="133.5" y="7"/><ellipse cx="241.25" cy="23" fill="#ADD1B2" rx="11" ry="11" style="stroke:#181818;stroke-width:1.0;"/><path d="M244.0156,18.875 Q244.1719,18.6563 244.3594,18.5469 Q244.5469,18.4375 244.7656,18.4375 Q245.1406,18.4375 245.375,18.7031 Q245.6094,18.9531 245.6094,19.5625 L245.6094,21.0156 Q245.6094,21.625 245.375,21.8906 Q245.1406,22.1563 244.7656,22.1563 Q244.4219,22.1563 244.2188,21.9531 Q244.0156,21.7656 243.9063,21.25 Q243.8594,20.8906 243.6719,20.7031 Q243.3438,20.3281 242.7344,20.1094 Q242.125,19.8906 241.5,19.8906 Q240.7344,19.8906 240.0938,20.2188 Q239.4688,20.5469 238.9688,21.2969 Q238.4844,22.0469 238.4844,23.0781 L238.4844,24.1719 Q238.4844,25.4063 239.375,26.2344 Q240.2656,27.0469 241.8594,27.0469 Q242.7969,27.0469 243.4531,26.7969 Q243.8438,26.6406 244.2656,26.2031 Q244.5313,25.9375 244.6719,25.8594 Q244.8281,25.7813 245.0313,25.7813 Q245.3594,25.7813 245.6094,26.0469 Q245.875,26.2969 245.875,26.6406 Q245.875,26.9844 245.5313,27.3906 Q245.0313,27.9688 244.2344,28.2969 Q243.1563,28.75 241.8594,28.75 Q240.3438,28.75 239.1406,28.125 Q238.1563,27.625 237.4688,26.5625 Q236.7813,25.4844 236.7813,24.2031 L236.7813,23.0469 Q236.7813,21.7188 237.3906,20.5781 Q238.0156,19.4219 239.1094,18.8125 Q240.2031,18.1875 241.4375,18.1875 Q242.1719,18.1875 242.8125,18.3594 Q243.4688,18.5156 244.0156,18.875 Z " fill="#000000"/><text fill="#000000" font-family="sans-serif" font-size="14" lengthAdjust="spacing" textLength="131" x="261.75" y="28.7969">HttpServerAjaxBoard</text><line style="stroke:#181818;stroke-width:0.5;" x1="134.5" x2="487.5" y1="39" y2="39"/><rect fill="none" height="6" style="stroke:#C82930;stroke-width:1.0;" width="6" x="141.5" y="50.8105"/><text fill="#000000" font-family="sans-serif" font-size="14" lengthAdjust="spacing" textLength="329" x="153.5" y="58.1074">shareBoardController: ShareAShareBoardController</text><rect fill="none" height="6" style="stroke:#C82930;stroke-width:1.0;" width="6" x="141.5" y="69.4316"/><text fill="#000000" font-family="sans-serif" font-size="14" lengthAdjust="spacing" textLength="223" x="153.5" y="76.7285">postitcontroller: AddPostItController</text><rect fill="none" height="6" style="stroke:#C82930;stroke-width:1.0;" width="6" x="141.5" y="88.0527"/><text fill="#000000" font-family="sans-serif" font-size="14" lengthAdjust="spacing" textLength="146" x="153.5" y="95.3496">BASE_FOLDER: String</text><rect fill="none" height="6" style="stroke:#C82930;stroke-width:1.0;" width="6" x="141.5" y="106.6738"/><text fill="#000000" font-family="sans-serif" font-size="14" lengthAdjust="spacing" textLength="122" x="153.5" y="113.9707">sock: ServerSocket</text><rect fill="none" height="6" style="stroke:#C82930;stroke-width:1.0;" width="6" x="141.5" y="125.2949"/><text fill="#000000" font-family="sans-serif" font-size="14" lengthAdjust="spacing" textLength="133" x="153.5" y="132.5918">accessesCounter: int</text><line style="stroke:#181818;stroke-width:0.5;" x1="134.5" x2="487.5" y1="140.1055" y2="140.1055"/><ellipse cx="144.5" cy="154.916" fill="#84BE84" rx="3" ry="3" style="stroke:#038048;stroke-width:1.0;"/><text fill="#000000" font-family="sans-serif" font-size="14" lengthAdjust="spacing" textLength="155" x="153.5" y="159.2129">main(args: String[]): void</text><rect fill="#F24D5C" height="6" style="stroke:#C82930;stroke-width:1.0;" width="6" x="141.5" y="170.5371"/><text fill="#000000" font-family="sans-serif" font-size="14" lengthAdjust="spacing" textLength="173" x="153.5" y="177.834">incAccessesCounter(): void</text><ellipse cx="144.5" cy="192.1582" fill="#84BE84" rx="3" ry="3" style="stroke:#038048;stroke-width:1.0;"/><text fill="#000000" font-family="sans-serif" font-size="14" lengthAdjust="spacing" textLength="285" x="153.5" y="196.4551">getBoardStandingInHtml(email: String): String</text></g><!--class ShareAShareBoardController--><g id="elem_ShareAShareBoardController"><rect codeLine="13" fill="#F1F1F1" height="159.7266" id="ShareAShareBoardController" rx="2.5" ry="2.5" style="stroke:#181818;stroke-width:0.5;" width="302" x="7" y="540"/><ellipse cx="61.25" cy="556" fill="#ADD1B2" rx="11" ry="11" style="stroke:#181818;stroke-width:1.0;"/><path d="M64.0156,551.875 Q64.1719,551.6563 64.3594,551.5469 Q64.5469,551.4375 64.7656,551.4375 Q65.1406,551.4375 65.375,551.7031 Q65.6094,551.9531 65.6094,552.5625 L65.6094,554.0156 Q65.6094,554.625 65.375,554.8906 Q65.1406,555.1563 64.7656,555.1563 Q64.4219,555.1563 64.2188,554.9531 Q64.0156,554.7656 63.9063,554.25 Q63.8594,553.8906 63.6719,553.7031 Q63.3438,553.3281 62.7344,553.1094 Q62.125,552.8906 61.5,552.8906 Q60.7344,552.8906 60.0938,553.2188 Q59.4688,553.5469 58.9688,554.2969 Q58.4844,555.0469 58.4844,556.0781 L58.4844,557.1719 Q58.4844,558.4063 59.375,559.2344 Q60.2656,560.0469 61.8594,560.0469 Q62.7969,560.0469 63.4531,559.7969 Q63.8438,559.6406 64.2656,559.2031 Q64.5313,558.9375 64.6719,558.8594 Q64.8281,558.7813 65.0313,558.7813 Q65.3594,558.7813 65.6094,559.0469 Q65.875,559.2969 65.875,559.6406 Q65.875,559.9844 65.5313,560.3906 Q65.0313,560.9688 64.2344,561.2969 Q63.1563,561.75 61.8594,561.75 Q60.3438,561.75 59.1406,561.125 Q58.1563,560.625 57.4688,559.5625 Q56.7813,558.4844 56.7813,557.2031 L56.7813,556.0469 Q56.7813,554.7188 57.3906,553.5781 Q58.0156,552.4219 59.1094,551.8125 Q60.2031,551.1875 61.4375,551.1875 Q62.1719,551.1875 62.8125,551.3594 Q63.4688,551.5156 64.0156,551.875 Z " fill="#000000"/><text fill="#000000" font-family="sans-serif" font-size="14" lengthAdjust="spacing" textLength="185" x="81.75" y="561.7969">ShareAShareBoardController</text><line style="stroke:#181818;stroke-width:0.5;" x1="8" x2="308" y1="572" y2="572"/><rect fill="none" height="6" style="stroke:#C82930;stroke-width:1.0;" width="6" x="15" y="583.8105"/><text fill="#000000" font-family="sans-serif" font-size="14" lengthAdjust="spacing" textLength="93" x="27" y="591.1074">boardId: String</text><rect fill="none" height="6" style="stroke:#C82930;stroke-width:1.0;" width="6" x="15" y="602.4316"/><text fill="#000000" font-family="sans-serif" font-size="14" lengthAdjust="spacing" textLength="195" x="27" y="609.7285">sharePermissions: List&lt;String&gt;</text><line style="stroke:#181818;stroke-width:0.5;" x1="8" x2="308" y1="617.2422" y2="617.2422"/><ellipse cx="18" cy="632.0527" fill="#84BE84" rx="3" ry="3" style="stroke:#038048;stroke-width:1.0;"/><text fill="#000000" font-family="sans-serif" font-size="14" lengthAdjust="spacing" textLength="205" x="27" y="636.3496">setBoardId(boardId: String): void</text><ellipse cx="18" cy="650.6738" fill="#84BE84" rx="3" ry="3" style="stroke:#038048;stroke-width:1.0;"/><text fill="#000000" font-family="sans-serif" font-size="14" lengthAdjust="spacing" textLength="124" x="27" y="654.9707">getBoardId(): String</text><ellipse cx="18" cy="669.2949" fill="#84BE84" rx="3" ry="3" style="stroke:#038048;stroke-width:1.0;"/><text fill="#000000" font-family="sans-serif" font-size="14" lengthAdjust="spacing" textLength="253" x="27" y="673.5918">addSharePermission(email: String): void</text><ellipse cx="18" cy="687.916" fill="#84BE84" rx="3" ry="3" style="stroke:#038048;stroke-width:1.0;"/><text fill="#000000" font-family="sans-serif" font-size="14" lengthAdjust="spacing" textLength="276" x="27" y="692.2129">removeSharePermission(email: String): void</text></g><!--class AddPostItController--><g id="elem_AddPostItController"><rect codeLine="23" fill="#F1F1F1" height="141.1055" id="AddPostItController" rx="2.5" ry="2.5" style="stroke:#181818;stroke-width:0.5;" width="242" x="344" y="549.5"/><ellipse cx="399.75" cy="565.5" fill="#ADD1B2" rx="11" ry="11" style="stroke:#181818;stroke-width:1.0;"/><path d="M402.5156,561.375 Q402.6719,561.1563 402.8594,561.0469 Q403.0469,560.9375 403.2656,560.9375 Q403.6406,560.9375 403.875,561.2031 Q404.1094,561.4531 404.1094,562.0625 L404.1094,563.5156 Q404.1094,564.125 403.875,564.3906 Q403.6406,564.6563 403.2656,564.6563 Q402.9219,564.6563 402.7188,564.4531 Q402.5156,564.2656 402.4063,563.75 Q402.3594,563.3906 402.1719,563.2031 Q401.8438,562.8281 401.2344,562.6094 Q400.625,562.3906 400,562.3906 Q399.2344,562.3906 398.5938,562.7188 Q397.9688,563.0469 397.4688,563.7969 Q396.9844,564.5469 396.9844,565.5781 L396.9844,566.6719 Q396.9844,567.9063 397.875,568.7344 Q398.7656,569.5469 400.3594,569.5469 Q401.2969,569.5469 401.9531,569.2969 Q402.3438,569.1406 402.7656,568.7031 Q403.0313,568.4375 403.1719,568.3594 Q403.3281,568.2813 403.5313,568.2813 Q403.8594,568.2813 404.1094,568.5469 Q404.375,568.7969 404.375,569.1406 Q404.375,569.4844 404.0313,569.8906 Q403.5313,570.4688 402.7344,570.7969 Q401.6563,571.25 400.3594,571.25 Q398.8438,571.25 397.6406,570.625 Q396.6563,570.125 395.9688,569.0625 Q395.2813,567.9844 395.2813,566.7031 L395.2813,565.5469 Q395.2813,564.2188 395.8906,563.0781 Q396.5156,561.9219 397.6094,561.3125 Q398.7031,560.6875 399.9375,560.6875 Q400.6719,560.6875 401.3125,560.8594 Q401.9688,561.0156 402.5156,561.375 Z " fill="#000000"/><text fill="#000000" font-family="sans-serif" font-size="14" lengthAdjust="spacing" textLength="122" x="420.25" y="571.2969">AddPostItController</text><line style="stroke:#181818;stroke-width:0.5;" x1="345" x2="585" y1="581.5" y2="581.5"/><rect fill="none" height="6" style="stroke:#C82930;stroke-width:1.0;" width="6" x="352" y="593.3105"/><text fill="#000000" font-family="sans-serif" font-size="14" lengthAdjust="spacing" textLength="93" x="364" y="600.6074">boardId: String</text><line style="stroke:#181818;stroke-width:0.5;" x1="345" x2="585" y1="608.1211" y2="608.1211"/><ellipse cx="355" cy="622.9316" fill="#84BE84" rx="3" ry="3" style="stroke:#038048;stroke-width:1.0;"/><text fill="#000000" font-family="sans-serif" font-size="14" lengthAdjust="spacing" textLength="205" x="364" y="627.2285">setBoardId(boardId: String): void</text><ellipse cx="355" cy="641.5527" fill="#84BE84" rx="3" ry="3" style="stroke:#038048;stroke-width:1.0;"/><text fill="#000000" font-family="sans-serif" font-size="14" lengthAdjust="spacing" textLength="124" x="364" y="645.8496">getBoardId(): String</text><ellipse cx="355" cy="660.1738" fill="#84BE84" rx="3" ry="3" style="stroke:#038048;stroke-width:1.0;"/><text fill="#000000" font-family="sans-serif" font-size="14" lengthAdjust="spacing" textLength="180" x="364" y="664.4707">addPostIt(postIt: PostIt): void</text><ellipse cx="355" cy="678.7949" fill="#84BE84" rx="3" ry="3" style="stroke:#038048;stroke-width:1.0;"/><text fill="#000000" font-family="sans-serif" font-size="14" lengthAdjust="spacing" textLength="216" x="364" y="683.0918">removePostIt(postItId: String): void</text></g><!--class HttpAjaxLoginAndBoardRequest--><g id="elem_HttpAjaxLoginAndBoardRequest"><rect codeLine="31" fill="#F1F1F1" height="215.5898" id="HttpAjaxLoginAndBoardRequest" rx="2.5" ry="2.5" style="stroke:#181818;stroke-width:0.5;" width="520" x="51" y="264"/><ellipse cx="205.75" cy="280" fill="#ADD1B2" rx="11" ry="11" style="stroke:#181818;stroke-width:1.0;"/><path d="M208.5156,275.875 Q208.6719,275.6563 208.8594,275.5469 Q209.0469,275.4375 209.2656,275.4375 Q209.6406,275.4375 209.875,275.7031 Q210.1094,275.9531 210.1094,276.5625 L210.1094,278.0156 Q210.1094,278.625 209.875,278.8906 Q209.6406,279.1563 209.2656,279.1563 Q208.9219,279.1563 208.7188,278.9531 Q208.5156,278.7656 208.4063,278.25 Q208.3594,277.8906 208.1719,277.7031 Q207.8438,277.3281 207.2344,277.1094 Q206.625,276.8906 206,276.8906 Q205.2344,276.8906 204.5938,277.2188 Q203.9688,277.5469 203.4688,278.2969 Q202.9844,279.0469 202.9844,280.0781 L202.9844,281.1719 Q202.9844,282.4063 203.875,283.2344 Q204.7656,284.0469 206.3594,284.0469 Q207.2969,284.0469 207.9531,283.7969 Q208.3438,283.6406 208.7656,283.2031 Q209.0313,282.9375 209.1719,282.8594 Q209.3281,282.7813 209.5313,282.7813 Q209.8594,282.7813 210.1094,283.0469 Q210.375,283.2969 210.375,283.6406 Q210.375,283.9844 210.0313,284.3906 Q209.5313,284.9688 208.7344,285.2969 Q207.6563,285.75 206.3594,285.75 Q204.8438,285.75 203.6406,285.125 Q202.6563,284.625 201.9688,283.5625 Q201.2813,282.4844 201.2813,281.2031 L201.2813,280.0469 Q201.2813,278.7188 201.8906,277.5781 Q202.5156,276.4219 203.6094,275.8125 Q204.7031,275.1875 205.9375,275.1875 Q206.6719,275.1875 207.3125,275.3594 Q207.9688,275.5156 208.5156,275.875 Z " fill="#000000"/><text fill="#000000" font-family="sans-serif" font-size="14" lengthAdjust="spacing" textLength="202" x="226.25" y="285.7969">HttpAjaxLoginAndBoardRequest</text><line style="stroke:#181818;stroke-width:0.5;" x1="52" x2="570" y1="296" y2="296"/><rect fill="none" height="6" style="stroke:#C82930;stroke-width:1.0;" width="6" x="59" y="307.8105"/><text fill="#000000" font-family="sans-serif" font-size="14" lengthAdjust="spacing" textLength="117" x="71" y="315.1074">baseFolder: String</text><rect fill="none" height="6" style="stroke:#C82930;stroke-width:1.0;" width="6" x="59" y="326.4316"/><text fill="#000000" font-family="sans-serif" font-size="14" lengthAdjust="spacing" textLength="80" x="71" y="333.7285">sock: Socket</text><rect fill="none" height="6" style="stroke:#C82930;stroke-width:1.0;" width="6" x="59" y="345.0527"/><text fill="#000000" font-family="sans-serif" font-size="14" lengthAdjust="spacing" textLength="134" x="71" y="352.3496">inS: DataInputStream</text><rect fill="none" height="6" style="stroke:#C82930;stroke-width:1.0;" width="6" x="59" y="363.6738"/><text fill="#000000" font-family="sans-serif" font-size="14" lengthAdjust="spacing" textLength="155" x="71" y="370.9707">outS: DataOutputStream</text><rect fill="none" height="6" style="stroke:#C82930;stroke-width:1.0;" width="6" x="59" y="382.2949"/><text fill="#000000" font-family="sans-serif" font-size="14" lengthAdjust="spacing" textLength="108" x="71" y="389.5918">username: String</text><rect fill="none" height="6" style="stroke:#C82930;stroke-width:1.0;" width="6" x="59" y="400.916"/><text fill="#000000" font-family="sans-serif" font-size="14" lengthAdjust="spacing" textLength="165" x="71" y="408.2129">userSession: UserSession</text><line style="stroke:#181818;stroke-width:0.5;" x1="52" x2="570" y1="415.7266" y2="415.7266"/><ellipse cx="62" cy="430.5371" fill="#84BE84" rx="3" ry="3" style="stroke:#038048;stroke-width:1.0;"/><text fill="#000000" font-family="sans-serif" font-size="14" lengthAdjust="spacing" textLength="327" x="71" y="434.834">HttpAjaxLoginAndBoardRequest(s: Socket, f: String)</text><ellipse cx="62" cy="449.1582" fill="#84BE84" rx="3" ry="3" style="stroke:#038048;stroke-width:1.0;"/><text fill="#000000" font-family="sans-serif" font-size="14" lengthAdjust="spacing" textLength="65" x="71" y="453.4551">run(): void</text><rect fill="#F24D5C" height="6" style="stroke:#C82930;stroke-width:1.0;" width="6" x="59" y="464.7793"/><text fill="#000000" font-family="sans-serif" font-size="14" lengthAdjust="spacing" textLength="494" x="71" y="472.0762">authenticateUser(username: String, password: String): Optional&lt;UserSession&gt;</text></g><!--class PostIts--><g id="elem_PostIts"><rect codeLine="46" fill="#F1F1F1" height="439.043" id="PostIts" rx="2.5" ry="2.5" style="stroke:#181818;stroke-width:0.5;" width="262" x="334" y="760"/><ellipse cx="439.75" cy="776" fill="#ADD1B2" rx="11" ry="11" style="stroke:#181818;stroke-width:1.0;"/><path d="M442.5156,771.875 Q442.6719,771.6563 442.8594,771.5469 Q443.0469,771.4375 443.2656,771.4375 Q443.6406,771.4375 443.875,771.7031 Q444.1094,771.9531 444.1094,772.5625 L444.1094,774.0156 Q444.1094,774.625 443.875,774.8906 Q443.6406,775.1563 443.2656,775.1563 Q442.9219,775.1563 442.7188,774.9531 Q442.5156,774.7656 442.4063,774.25 Q442.3594,773.8906 442.1719,773.7031 Q441.8438,773.3281 441.2344,773.1094 Q440.625,772.8906 440,772.8906 Q439.2344,772.8906 438.5938,773.2188 Q437.9688,773.5469 437.4688,774.2969 Q436.9844,775.0469 436.9844,776.0781 L436.9844,777.1719 Q436.9844,778.4063 437.875,779.2344 Q438.7656,780.0469 440.3594,780.0469 Q441.2969,780.0469 441.9531,779.7969 Q442.3438,779.6406 442.7656,779.2031 Q443.0313,778.9375 443.1719,778.8594 Q443.3281,778.7813 443.5313,778.7813 Q443.8594,778.7813 444.1094,779.0469 Q444.375,779.2969 444.375,779.6406 Q444.375,779.9844 444.0313,780.3906 Q443.5313,780.9688 442.7344,781.2969 Q441.6563,781.75 440.3594,781.75 Q438.8438,781.75 437.6406,781.125 Q436.6563,780.625 435.9688,779.5625 Q435.2813,778.4844 435.2813,777.2031 L435.2813,776.0469 Q435.2813,774.7188 435.8906,773.5781 Q436.5156,772.4219 437.6094,771.8125 Q438.7031,771.1875 439.9375,771.1875 Q440.6719,771.1875 441.3125,771.3594 Q441.9688,771.5156 442.5156,771.875 Z " fill="#000000"/><text fill="#000000" font-family="sans-serif" font-size="14" lengthAdjust="spacing" textLength="42" x="460.25" y="781.7969">PostIts</text><line style="stroke:#181818;stroke-width:0.5;" x1="335" x2="595" y1="792" y2="792"/><rect fill="none" height="6" style="stroke:#C82930;stroke-width:1.0;" width="6" x="342" y="803.8105"/><text fill="#000000" font-family="sans-serif" font-size="14" lengthAdjust="spacing" textLength="93" x="354" y="811.1074">idPostIts: Long</text><rect fill="none" height="6" style="stroke:#C82930;stroke-width:1.0;" width="6" x="342" y="822.4316"/><text fill="#000000" font-family="sans-serif" font-size="14" lengthAdjust="spacing" textLength="97" x="354" y="829.7285">version: double</text><rect fill="none" height="6" style="stroke:#C82930;stroke-width:1.0;" width="6" x="342" y="841.0527"/><text fill="#000000" font-family="sans-serif" font-size="14" lengthAdjust="spacing" textLength="141" x="354" y="848.3496">postitstate: PostItState</text><rect fill="none" height="6" style="stroke:#C82930;stroke-width:1.0;" width="6" x="342" y="859.6738"/><text fill="#000000" font-family="sans-serif" font-size="14" lengthAdjust="spacing" textLength="94" x="354" y="866.9707">date: Calendar</text><rect fill="none" height="6" style="stroke:#C82930;stroke-width:1.0;" width="6" x="342" y="878.2949"/><text fill="#000000" font-family="sans-serif" font-size="14" lengthAdjust="spacing" textLength="73" x="354" y="885.5918">data: String</text><rect fill="none" height="6" style="stroke:#C82930;stroke-width:1.0;" width="6" x="342" y="896.916"/><text fill="#000000" font-family="sans-serif" font-size="14" lengthAdjust="spacing" textLength="131" x="354" y="904.2129">numRows: NumRows</text><rect fill="none" height="6" style="stroke:#C82930;stroke-width:1.0;" width="6" x="342" y="915.5371"/><text fill="#000000" font-family="sans-serif" font-size="14" lengthAdjust="spacing" textLength="173" x="354" y="922.834">numColumns: NumColumns</text><rect fill="none" height="6" style="stroke:#C82930;stroke-width:1.0;" width="6" x="342" y="934.1582"/><text fill="#000000" font-family="sans-serif" font-size="14" lengthAdjust="spacing" textLength="153" x="354" y="941.4551">author: SystemUserAuth</text><rect fill="none" height="6" style="stroke:#C82930;stroke-width:1.0;" width="6" x="342" y="952.7793"/><text fill="#000000" font-family="sans-serif" font-size="14" lengthAdjust="spacing" textLength="174" x="354" y="960.0762">sharedBoard: SharedBoard</text><line style="stroke:#181818;stroke-width:0.5;" x1="335" x2="595" y1="967.5898" y2="967.5898"/><ellipse cx="345" cy="982.4004" fill="#84BE84" rx="3" ry="3" style="stroke:#038048;stroke-width:1.0;"/><text fill="#000000" font-family="sans-serif" font-size="14" lengthAdjust="spacing" textLength="163" x="354" y="986.6973">author(): SystemUserAuth</text><ellipse cx="345" cy="1001.0215" fill="#84BE84" rx="3" ry="3" style="stroke:#038048;stroke-width:1.0;"/><text fill="#000000" font-family="sans-serif" font-size="14" lengthAdjust="spacing" textLength="103" x="354" y="1005.3184">idPostIts(): Long</text><ellipse cx="345" cy="1019.6426" fill="#84BE84" rx="3" ry="3" style="stroke:#038048;stroke-width:1.0;"/><text fill="#000000" font-family="sans-serif" font-size="14" lengthAdjust="spacing" textLength="107" x="354" y="1023.9395">version(): double</text><ellipse cx="345" cy="1038.2637" fill="#84BE84" rx="3" ry="3" style="stroke:#038048;stroke-width:1.0;"/><text fill="#000000" font-family="sans-serif" font-size="14" lengthAdjust="spacing" textLength="236" x="354" y="1042.5605">changeVersion(version: double): void</text><ellipse cx="345" cy="1056.8848" fill="#84BE84" rx="3" ry="3" style="stroke:#038048;stroke-width:1.0;"/><text fill="#000000" font-family="sans-serif" font-size="14" lengthAdjust="spacing" textLength="201" x="354" y="1061.1816">sameAs(other: Object): boolean</text><ellipse cx="345" cy="1075.5059" fill="#84BE84" rx="3" ry="3" style="stroke:#038048;stroke-width:1.0;"/><text fill="#000000" font-family="sans-serif" font-size="14" lengthAdjust="spacing" textLength="95" x="354" y="1079.8027">identity(): Long</text><ellipse cx="345" cy="1094.127" fill="#84BE84" rx="3" ry="3" style="stroke:#038048;stroke-width:1.0;"/><text fill="#000000" font-family="sans-serif" font-size="14" lengthAdjust="spacing" textLength="104" x="354" y="1098.4238">toString(): String</text><ellipse cx="345" cy="1112.748" fill="#84BE84" rx="3" ry="3" style="stroke:#038048;stroke-width:1.0;"/><text fill="#000000" font-family="sans-serif" font-size="14" lengthAdjust="spacing" textLength="141" x="354" y="1117.0449">numRows(): NumRows</text><ellipse cx="345" cy="1131.3691" fill="#84BE84" rx="3" ry="3" style="stroke:#038048;stroke-width:1.0;"/><text fill="#000000" font-family="sans-serif" font-size="14" lengthAdjust="spacing" textLength="183" x="354" y="1135.666">numColumns(): NumColumns</text><ellipse cx="345" cy="1149.9902" fill="#84BE84" rx="3" ry="3" style="stroke:#038048;stroke-width:1.0;"/><text fill="#000000" font-family="sans-serif" font-size="14" lengthAdjust="spacing" textLength="184" x="354" y="1154.2871">sharedBoard(): SharedBoard</text><ellipse cx="345" cy="1168.6113" fill="#84BE84" rx="3" ry="3" style="stroke:#038048;stroke-width:1.0;"/><text fill="#000000" font-family="sans-serif" font-size="14" lengthAdjust="spacing" textLength="104" x="354" y="1172.9082">date(): Calendar</text><ellipse cx="345" cy="1187.2324" fill="#84BE84" rx="3" ry="3" style="stroke:#038048;stroke-width:1.0;"/><text fill="#000000" font-family="sans-serif" font-size="14" lengthAdjust="spacing" textLength="83" x="354" y="1191.5293">data(): String</text></g><!--link HttpServerAjaxBoard to HttpAjaxLoginAndBoardRequest--><g id="link_HttpServerAjaxBoard_HttpAjaxLoginAndBoardRequest"><path codeLine="70" d="M311,204.24 C311,221.99 311,240.64 311,258.78 " fill="none" id="HttpServerAjaxBoard-to-HttpAjaxLoginAndBoardRequest" style="stroke:#181818;stroke-width:1.0;"/><polygon fill="#181818" points="311,263.88,315,254.88,311,258.88,307,254.88,311,263.88" style="stroke:#181818;stroke-width:1.0;"/><text fill="#000000" font-family="sans-serif" font-size="13" lengthAdjust="spacing" textLength="7" x="303.743" y="226.1556">1</text><text fill="#000000" font-family="sans-serif" font-size="13" lengthAdjust="spacing" textLength="7" x="303.7539" y="252.7331">1</text></g><!--link HttpAjaxLoginAndBoardRequest to ShareAShareBoardController--><g id="link_HttpAjaxLoginAndBoardRequest_ShareAShareBoardController"><path codeLine="71" d="M244.34,480.18 C232.83,498.68 221.02,517.67 209.98,535.43 " fill="none" id="HttpAjaxLoginAndBoardRequest-to-ShareAShareBoardController" style="stroke:#181818;stroke-width:1.0;"/><polygon fill="#181818" points="207.18,539.92,215.3336,534.3957,209.8236,535.676,208.5432,530.1659,207.18,539.92" style="stroke:#181818;stroke-width:1.0;"/><text fill="#000000" font-family="sans-serif" font-size="13" lengthAdjust="spacing" textLength="7" x="232.8454" y="501.7056">1</text><text fill="#000000" font-family="sans-serif" font-size="13" lengthAdjust="spacing" textLength="7" x="204.3911" y="528.8084">1</text></g><!--link HttpAjaxLoginAndBoardRequest to AddPostItController--><g id="link_HttpAjaxLoginAndBoardRequest_AddPostItController"><path codeLine="72" d="M378.1,480.18 C391.8,502.06 405.92,524.62 418.69,545.03 " fill="none" id="HttpAjaxLoginAndBoardRequest-to-AddPostItController" style="stroke:#181818;stroke-width:1.0;"/><polygon fill="#181818" points="421.4,549.35,420.0132,539.5993,418.7462,545.1124,413.233,543.8454,421.4,549.35" style="stroke:#181818;stroke-width:1.0;"/><text fill="#000000" font-family="sans-serif" font-size="13" lengthAdjust="spacing" textLength="7" x="375.1744" y="501.7056">1</text><text fill="#000000" font-family="sans-serif" font-size="13" lengthAdjust="spacing" textLength="7" x="409.5428" y="538.2255">1</text></g><!--link AddPostItController to PostIts--><g id="link_AddPostItController_PostIts"><path codeLine="73" d="M465,690.78 C465,709.95 465,731.83 465,754.77 " fill="none" id="AddPostItController-to-PostIts" style="stroke:#181818;stroke-width:1.0;"/><polygon fill="#181818" points="465,759.99,469,750.99,465,754.99,461,750.99,465,759.99" style="stroke:#181818;stroke-width:1.0;"/><text fill="#000000" font-family="sans-serif" font-size="13" lengthAdjust="spacing" textLength="7" x="457.6555" y="712.6216">1</text><text fill="#000000" font-family="sans-serif" font-size="13" lengthAdjust="spacing" textLength="7" x="457.8742" y="748.8287">1</text></g><!--SRC=[hLNBRjim4BpxAuYSP2W-z6e41XGdGGmOTM2XlHH5GOjRcwb4gkJAQL3atykNB4fMZ1nwaZZBVSpiaYnAgZLvHAnpK4TGsJFzSokfOkJlX90PqGUgm05BAL39iWGr9xb5itp4vfnggP5Z4JbaZ3qPS8M3dRTPVl_ZORE-kz-QgAYusFkqilXb05TIRlu17KoB0hG6lPIDG1kN2vmOIqegoaL2rLwtORvzdyx9KNBc7BaeihvlqfbJiWTqF7AaWXddbNZ4gap0H2tRWDDJWM-JIU5aUr-6eDxEeYlMfsQtFu6gkDPS2bFmcckyyJiMdeqEzQnOCWWnLhNPDOrIf8GoblUpd54v1L5GoIDyQFk9zqWtto7ydzZuR4djFdFYb-SiUjlEixo5yksqspbVopqNcM0kxHP-Dw2nvK4rFCYIkM4_6yjk8Bd8v-IE8bs9ka6p4sZb3DAil6NJOD_KQ522Lj2BRC4SdFXpygLRU0KlLPpejg9hylD4sQlIY2G-1RJ10mZa1KMmEP9XATUaDWAzI1LhjwdH54BBcwYiXHs6TXoyx3f8nqEtx63BmCwSOi-CoMPNGdH9Q3Irj1tDxS8PcKENj0J1g6eXsfDCDDLMlfWqd_rF2ovbsLJ2u-7_n5xQVhvgXCgIoGpIdKclQhZS_CAhxntTL0vTquwkjGV2QKlOOYVAAIaELEpXQx0DH8d7MPkUP3gHfbscuCtk6GexxZifIw0YvBMTnDTUMfHUdy492afPjDCgZRGAbawjD9R4HOj4iMRR88j7BN8WJU9xSknTkVfqHMQpXVjUckl9nMCQHxdm6dqunjW3DNRDnJwXyPD_]--></g></svg>