<?xml version="1.0" encoding="UTF-8" standalone="no"?><svg xmlns="http://www.w3.org/2000/svg" xmlns:xlink="http://www.w3.org/1999/xlink" contentStyleType="text/css" height="670px" preserveAspectRatio="none" style="width:570px;height:670px;background:#FFFFFF;" version="1.1" viewBox="0 0 570 670" width="570px" zoomAndPan="magnify"><defs/><g><!--MD5=[f1d7d4eb23c32d5c9f4d8f2ad03fdcbf]
class TCPClient--><g id="elem_TCPClient"><rect codeLine="2" fill="#F1F1F1" height="58.7031" id="TCPClient" rx="2.5" ry="2.5" style="stroke:#181818;stroke-width:0.5;" width="110" x="307.5" y="7"/><ellipse cx="322.5" cy="28.3516" fill="#ADD1B2" rx="11" ry="11" style="stroke:#181818;stroke-width:1.0;"/><path d="M324.5,24.8516 Q324.7031,24.3516 324.9375,24.1016 Q325.1719,23.8516 325.4375,23.8516 Q325.9063,23.8516 326.2031,24.1328 Q326.5,24.4141 326.5,25.0703 L326.5,26.6328 Q326.5,27.2891 326.2188,27.5703 Q325.9375,27.8516 325.5,27.8516 Q325.1094,27.8516 324.8594,27.6797 Q324.6094,27.5078 324.5,27.0547 Q324.4531,26.7422 324.2813,26.5703 Q323.9688,26.2422 323.4063,26.0547 Q322.8438,25.8516 322.2813,25.8516 Q321.5781,25.8516 320.9844,26.1328 Q320.4063,26.4141 319.9531,27.0391 Q319.5,27.6641 319.5,28.5234 L319.5,29.4453 Q319.5,30.4766 320.3438,31.1641 Q321.1875,31.8516 322.6875,31.8516 Q323.5781,31.8516 324.2031,31.6484 Q324.5625,31.5391 324.9688,31.1797 Q325.2344,30.9766 325.375,30.9141 Q325.5156,30.8516 325.6875,30.8516 Q326.0156,30.8516 326.25,31.1172 Q326.5,31.3672 326.5,31.7266 Q326.5,32.0703 326.1563,32.4766 Q325.6563,33.0703 324.8594,33.3984 Q323.8125,33.8516 322.5313,33.8516 Q321.0313,33.8516 319.8281,33.2578 Q318.8594,32.7891 318.1719,31.7734 Q317.5,30.7578 317.5,29.5547 L317.5,28.4609 Q317.5,27.2109 318.0938,26.1172 Q318.7031,25.0234 319.75,24.4453 Q320.8125,23.8516 322,23.8516 Q322.7188,23.8516 323.3438,24.1016 Q323.9688,24.3516 324.5,24.8516 Z " fill="#000000"/><text fill="#000000" font-family="sans-serif" font-size="12" font-style="italic" lengthAdjust="spacing" textLength="82" x="334.5" y="24.457">«presentation»</text><text fill="#000000" font-family="sans-serif" font-size="14" lengthAdjust="spacing" textLength="64" x="343.5" y="41.627">TCPClient</text><line style="stroke:#181818;stroke-width:0.5;" x1="308.5" x2="416.5" y1="49.7031" y2="49.7031"/><line style="stroke:#181818;stroke-width:0.5;" x1="308.5" x2="416.5" y1="57.7031" y2="57.7031"/></g><!--MD5=[170661a60030df9ae487f8e7b00dfefb]
class TCPServer--><g id="elem_TCPServer"><rect codeLine="6" fill="#F1F1F1" height="65.6094" id="TCPServer" rx="2.5" ry="2.5" style="stroke:#181818;stroke-width:0.5;" width="231" x="130" y="131"/><ellipse cx="206.25" cy="147" fill="#ADD1B2" rx="11" ry="11" style="stroke:#181818;stroke-width:1.0;"/><path d="M208.25,143.5 Q208.4531,143 208.6875,142.75 Q208.9219,142.5 209.1875,142.5 Q209.6563,142.5 209.9531,142.7813 Q210.25,143.0625 210.25,143.7188 L210.25,145.2813 Q210.25,145.9375 209.9688,146.2188 Q209.6875,146.5 209.25,146.5 Q208.8594,146.5 208.6094,146.3281 Q208.3594,146.1563 208.25,145.7031 Q208.2031,145.3906 208.0313,145.2188 Q207.7188,144.8906 207.1563,144.7031 Q206.5938,144.5 206.0313,144.5 Q205.3281,144.5 204.7344,144.7813 Q204.1563,145.0625 203.7031,145.6875 Q203.25,146.3125 203.25,147.1719 L203.25,148.0938 Q203.25,149.125 204.0938,149.8125 Q204.9375,150.5 206.4375,150.5 Q207.3281,150.5 207.9531,150.2969 Q208.3125,150.1875 208.7188,149.8281 Q208.9844,149.625 209.125,149.5625 Q209.2656,149.5 209.4375,149.5 Q209.7656,149.5 210,149.7656 Q210.25,150.0156 210.25,150.375 Q210.25,150.7188 209.9063,151.125 Q209.4063,151.7188 208.6094,152.0469 Q207.5625,152.5 206.2813,152.5 Q204.7813,152.5 203.5781,151.9063 Q202.6094,151.4375 201.9219,150.4219 Q201.25,149.4063 201.25,148.2031 L201.25,147.1094 Q201.25,145.8594 201.8438,144.7656 Q202.4531,143.6719 203.5,143.0938 Q204.5625,142.5 205.75,142.5 Q206.4688,142.5 207.0938,142.75 Q207.7188,143 208.25,143.5 Z " fill="#000000"/><text fill="#000000" font-family="sans-serif" font-size="14" lengthAdjust="spacing" textLength="70" x="226.75" y="152.7285">TCPServer</text><line style="stroke:#181818;stroke-width:0.5;" x1="131" x2="360" y1="163" y2="163"/><line style="stroke:#181818;stroke-width:0.5;" x1="131" x2="360" y1="171" y2="171"/><ellipse cx="141" cy="185.3047" fill="#84BE84" rx="3" ry="3" style="stroke:#038048;stroke-width:1.0;"/><text fill="#000000" font-family="sans-serif" font-size="14" lengthAdjust="spacing" textLength="205" x="150" y="189.5332">shareABoard(board, user, state)</text></g><!--MD5=[6fffd82a5ec3c46bb922e946c0275b4e]
class ShareAShareBoardUI--><g id="elem_ShareAShareBoardUI"><rect codeLine="10" fill="#F1F1F1" height="76.3125" id="ShareAShareBoardUI" rx="2.5" ry="2.5" style="stroke:#181818;stroke-width:0.5;" width="167" x="396" y="126"/><ellipse cx="411" cy="147.3516" fill="#ADD1B2" rx="11" ry="11" style="stroke:#181818;stroke-width:1.0;"/><path d="M413,143.8516 Q413.2031,143.3516 413.4375,143.1016 Q413.6719,142.8516 413.9375,142.8516 Q414.4063,142.8516 414.7031,143.1328 Q415,143.4141 415,144.0703 L415,145.6328 Q415,146.2891 414.7188,146.5703 Q414.4375,146.8516 414,146.8516 Q413.6094,146.8516 413.3594,146.6797 Q413.1094,146.5078 413,146.0547 Q412.9531,145.7422 412.7813,145.5703 Q412.4688,145.2422 411.9063,145.0547 Q411.3438,144.8516 410.7813,144.8516 Q410.0781,144.8516 409.4844,145.1328 Q408.9063,145.4141 408.4531,146.0391 Q408,146.6641 408,147.5234 L408,148.4453 Q408,149.4766 408.8438,150.1641 Q409.6875,150.8516 411.1875,150.8516 Q412.0781,150.8516 412.7031,150.6484 Q413.0625,150.5391 413.4688,150.1797 Q413.7344,149.9766 413.875,149.9141 Q414.0156,149.8516 414.1875,149.8516 Q414.5156,149.8516 414.75,150.1172 Q415,150.3672 415,150.7266 Q415,151.0703 414.6563,151.4766 Q414.1563,152.0703 413.3594,152.3984 Q412.3125,152.8516 411.0313,152.8516 Q409.5313,152.8516 408.3281,152.2578 Q407.3594,151.7891 406.6719,150.7734 Q406,149.7578 406,148.5547 L406,147.4609 Q406,146.2109 406.5938,145.1172 Q407.2031,144.0234 408.25,143.4453 Q409.3125,142.8516 410.5,142.8516 Q411.2188,142.8516 411.8438,143.1016 Q412.4688,143.3516 413,143.8516 Z " fill="#000000"/><text fill="#000000" font-family="sans-serif" font-size="12" font-style="italic" lengthAdjust="spacing" textLength="82" x="451.5" y="143.457">«presentation»</text><text fill="#000000" font-family="sans-serif" font-size="14" lengthAdjust="spacing" textLength="135" x="425" y="160.627">ShareAShareBoardUI</text><line style="stroke:#181818;stroke-width:0.5;" x1="397" x2="562" y1="168.7031" y2="168.7031"/><line style="stroke:#181818;stroke-width:0.5;" x1="397" x2="562" y1="176.7031" y2="176.7031"/><ellipse cx="407" cy="191.0078" fill="#84BE84" rx="3" ry="3" style="stroke:#038048;stroke-width:1.0;"/><text fill="#000000" font-family="sans-serif" font-size="14" lengthAdjust="spacing" textLength="89" x="416" y="195.2363">chooseState()</text></g><!--MD5=[cbe42ef2d4d70c6b88bd6cff186a1de4]
class ShareAShareBoardController--><g id="elem_ShareAShareBoardController"><rect codeLine="14" fill="#F1F1F1" height="111.5313" id="ShareAShareBoardController" rx="2.5" ry="2.5" style="stroke:#181818;stroke-width:0.5;" width="243" x="124" y="262"/><ellipse cx="150.7" cy="283.3516" fill="#ADD1B2" rx="11" ry="11" style="stroke:#181818;stroke-width:1.0;"/><path d="M152.7,279.8516 Q152.9031,279.3516 153.1375,279.1016 Q153.3719,278.8516 153.6375,278.8516 Q154.1063,278.8516 154.4031,279.1328 Q154.7,279.4141 154.7,280.0703 L154.7,281.6328 Q154.7,282.2891 154.4188,282.5703 Q154.1375,282.8516 153.7,282.8516 Q153.3094,282.8516 153.0594,282.6797 Q152.8094,282.5078 152.7,282.0547 Q152.6531,281.7422 152.4813,281.5703 Q152.1688,281.2422 151.6063,281.0547 Q151.0438,280.8516 150.4813,280.8516 Q149.7781,280.8516 149.1844,281.1328 Q148.6063,281.4141 148.1531,282.0391 Q147.7,282.6641 147.7,283.5234 L147.7,284.4453 Q147.7,285.4766 148.5438,286.1641 Q149.3875,286.8516 150.8875,286.8516 Q151.7781,286.8516 152.4031,286.6484 Q152.7625,286.5391 153.1688,286.1797 Q153.4344,285.9766 153.575,285.9141 Q153.7156,285.8516 153.8875,285.8516 Q154.2156,285.8516 154.45,286.1172 Q154.7,286.3672 154.7,286.7266 Q154.7,287.0703 154.3563,287.4766 Q153.8563,288.0703 153.0594,288.3984 Q152.0125,288.8516 150.7313,288.8516 Q149.2313,288.8516 148.0281,288.2578 Q147.0594,287.7891 146.3719,286.7734 Q145.7,285.7578 145.7,284.5547 L145.7,283.4609 Q145.7,282.2109 146.2938,281.1172 Q146.9031,280.0234 147.95,279.4453 Q149.0125,278.8516 150.2,278.8516 Q150.9188,278.8516 151.5438,279.1016 Q152.1688,279.3516 152.7,279.8516 Z " fill="#000000"/><text fill="#000000" font-family="sans-serif" font-size="12" font-style="italic" lengthAdjust="spacing" textLength="74" x="222.8" y="279.457">«application»</text><text fill="#000000" font-family="sans-serif" font-size="14" lengthAdjust="spacing" textLength="185" x="167.3" y="296.627">ShareAShareBoardController</text><line style="stroke:#181818;stroke-width:0.5;" x1="125" x2="366" y1="304.7031" y2="304.7031"/><line style="stroke:#181818;stroke-width:0.5;" x1="125" x2="366" y1="312.7031" y2="312.7031"/><ellipse cx="135" cy="327.0078" fill="#84BE84" rx="3" ry="3" style="stroke:#038048;stroke-width:1.0;"/><text fill="#000000" font-family="sans-serif" font-size="14" lengthAdjust="spacing" textLength="148" x="144" y="331.2363">findBoardOwned(email)</text><ellipse cx="135" cy="344.6172" fill="#84BE84" rx="3" ry="3" style="stroke:#038048;stroke-width:1.0;"/><text fill="#000000" font-family="sans-serif" font-size="14" lengthAdjust="spacing" textLength="107" x="144" y="348.8457">findActiveUsers()</text><ellipse cx="135" cy="362.2266" fill="#84BE84" rx="3" ry="3" style="stroke:#038048;stroke-width:1.0;"/><text fill="#000000" font-family="sans-serif" font-size="14" lengthAdjust="spacing" textLength="217" x="144" y="366.4551">appendNewUser(board,user,state)</text></g><!--MD5=[5abe2099ea2bd16c1a85e7670c243c6b]
class BoardManagementService--><g id="elem_BoardManagementService"><rect codeLine="20" fill="#F1F1F1" height="76.3125" id="BoardManagementService" rx="2.5" ry="2.5" style="stroke:#181818;stroke-width:0.5;" width="251" x="222" y="434"/><ellipse cx="260.4" cy="455.3516" fill="#ADD1B2" rx="11" ry="11" style="stroke:#181818;stroke-width:1.0;"/><path d="M262.4,451.8516 Q262.6031,451.3516 262.8375,451.1016 Q263.0719,450.8516 263.3375,450.8516 Q263.8063,450.8516 264.1031,451.1328 Q264.4,451.4141 264.4,452.0703 L264.4,453.6328 Q264.4,454.2891 264.1188,454.5703 Q263.8375,454.8516 263.4,454.8516 Q263.0094,454.8516 262.7594,454.6797 Q262.5094,454.5078 262.4,454.0547 Q262.3531,453.7422 262.1813,453.5703 Q261.8688,453.2422 261.3063,453.0547 Q260.7438,452.8516 260.1813,452.8516 Q259.4781,452.8516 258.8844,453.1328 Q258.3063,453.4141 257.8531,454.0391 Q257.4,454.6641 257.4,455.5234 L257.4,456.4453 Q257.4,457.4766 258.2438,458.1641 Q259.0875,458.8516 260.5875,458.8516 Q261.4781,458.8516 262.1031,458.6484 Q262.4625,458.5391 262.8688,458.1797 Q263.1344,457.9766 263.275,457.9141 Q263.4156,457.8516 263.5875,457.8516 Q263.9156,457.8516 264.15,458.1172 Q264.4,458.3672 264.4,458.7266 Q264.4,459.0703 264.0563,459.4766 Q263.5563,460.0703 262.7594,460.3984 Q261.7125,460.8516 260.4313,460.8516 Q258.9313,460.8516 257.7281,460.2578 Q256.7594,459.7891 256.0719,458.7734 Q255.4,457.7578 255.4,456.5547 L255.4,455.4609 Q255.4,454.2109 255.9937,453.1172 Q256.6031,452.0234 257.65,451.4453 Q258.7125,450.8516 259.9,450.8516 Q260.6188,450.8516 261.2438,451.1016 Q261.8688,451.3516 262.4,451.8516 Z " fill="#000000"/><text fill="#000000" font-family="sans-serif" font-size="12" font-style="italic" lengthAdjust="spacing" textLength="74" x="326.1" y="451.457">«application»</text><text fill="#000000" font-family="sans-serif" font-size="14" lengthAdjust="spacing" textLength="167" x="279.6" y="468.627">BoardManagementService</text><line style="stroke:#181818;stroke-width:0.5;" x1="223" x2="472" y1="476.7031" y2="476.7031"/><line style="stroke:#181818;stroke-width:0.5;" x1="223" x2="472" y1="484.7031" y2="484.7031"/><ellipse cx="233" cy="499.0078" fill="#84BE84" rx="3" ry="3" style="stroke:#038048;stroke-width:1.0;"/><text fill="#000000" font-family="sans-serif" font-size="14" lengthAdjust="spacing" textLength="225" x="242" y="503.2363">appendNewUser(board, user, state)</text></g><!--MD5=[343839bb48731e46d0fda742d45fdd31]
class BoardRepository--><g id="elem_BoardRepository"><rect codeLine="25" fill="#F1F1F1" height="93.9219" id="BoardRepository" rx="2.5" ry="2.5" style="stroke:#181818;stroke-width:0.5;" width="251" x="7" y="570"/><ellipse cx="75.25" cy="591.3516" fill="#ADD1B2" rx="11" ry="11" style="stroke:#181818;stroke-width:1.0;"/><path d="M77.25,587.8516 Q77.4531,587.3516 77.6875,587.1016 Q77.9219,586.8516 78.1875,586.8516 Q78.6563,586.8516 78.9531,587.1328 Q79.25,587.4141 79.25,588.0703 L79.25,589.6328 Q79.25,590.2891 78.9688,590.5703 Q78.6875,590.8516 78.25,590.8516 Q77.8594,590.8516 77.6094,590.6797 Q77.3594,590.5078 77.25,590.0547 Q77.2031,589.7422 77.0313,589.5703 Q76.7188,589.2422 76.1563,589.0547 Q75.5938,588.8516 75.0313,588.8516 Q74.3281,588.8516 73.7344,589.1328 Q73.1563,589.4141 72.7031,590.0391 Q72.25,590.6641 72.25,591.5234 L72.25,592.4453 Q72.25,593.4766 73.0938,594.1641 Q73.9375,594.8516 75.4375,594.8516 Q76.3281,594.8516 76.9531,594.6484 Q77.3125,594.5391 77.7188,594.1797 Q77.9844,593.9766 78.125,593.9141 Q78.2656,593.8516 78.4375,593.8516 Q78.7656,593.8516 79,594.1172 Q79.25,594.3672 79.25,594.7266 Q79.25,595.0703 78.9063,595.4766 Q78.4063,596.0703 77.6094,596.3984 Q76.5625,596.8516 75.2813,596.8516 Q73.7813,596.8516 72.5781,596.2578 Q71.6094,595.7891 70.9219,594.7734 Q70.25,593.7578 70.25,592.5547 L70.25,591.4609 Q70.25,590.2109 70.8438,589.1172 Q71.4531,588.0234 72.5,587.4453 Q73.5625,586.8516 74.75,586.8516 Q75.4688,586.8516 76.0938,587.1016 Q76.7188,587.3516 77.25,587.8516 Z " fill="#000000"/><text fill="#000000" font-family="sans-serif" font-size="12" font-style="italic" lengthAdjust="spacing" textLength="68" x="114.75" y="587.457">«repository»</text><text fill="#000000" font-family="sans-serif" font-size="14" lengthAdjust="spacing" textLength="106" x="95.75" y="604.627">BoardRepository</text><line style="stroke:#181818;stroke-width:0.5;" x1="8" x2="257" y1="612.7031" y2="612.7031"/><line style="stroke:#181818;stroke-width:0.5;" x1="8" x2="257" y1="620.7031" y2="620.7031"/><ellipse cx="18" cy="635.0078" fill="#84BE84" rx="3" ry="3" style="stroke:#038048;stroke-width:1.0;"/><text fill="#000000" font-family="sans-serif" font-size="14" lengthAdjust="spacing" textLength="225" x="27" y="639.2363">appendNewUser(board, user, state)</text><ellipse cx="18" cy="652.6172" fill="#84BE84" rx="3" ry="3" style="stroke:#038048;stroke-width:1.0;"/><text fill="#000000" font-family="sans-serif" font-size="14" lengthAdjust="spacing" textLength="148" x="27" y="656.8457">findBoardOwned(email)</text></g><!--MD5=[093c210125347143eef5bb9199eae634]
class UserRepository--><g id="elem_UserRepository"><rect codeLine="30" fill="#F1F1F1" height="76.3125" id="UserRepository" rx="2.5" ry="2.5" style="stroke:#181818;stroke-width:0.5;" width="133" x="293" y="579"/><ellipse cx="309.8" cy="600.3516" fill="#ADD1B2" rx="11" ry="11" style="stroke:#181818;stroke-width:1.0;"/><path d="M311.8,596.8516 Q312.0031,596.3516 312.2375,596.1016 Q312.4719,595.8516 312.7375,595.8516 Q313.2063,595.8516 313.5031,596.1328 Q313.8,596.4141 313.8,597.0703 L313.8,598.6328 Q313.8,599.2891 313.5188,599.5703 Q313.2375,599.8516 312.8,599.8516 Q312.4094,599.8516 312.1594,599.6797 Q311.9094,599.5078 311.8,599.0547 Q311.7531,598.7422 311.5813,598.5703 Q311.2688,598.2422 310.7063,598.0547 Q310.1438,597.8516 309.5813,597.8516 Q308.8781,597.8516 308.2844,598.1328 Q307.7063,598.4141 307.2531,599.0391 Q306.8,599.6641 306.8,600.5234 L306.8,601.4453 Q306.8,602.4766 307.6438,603.1641 Q308.4875,603.8516 309.9875,603.8516 Q310.8781,603.8516 311.5031,603.6484 Q311.8625,603.5391 312.2688,603.1797 Q312.5344,602.9766 312.675,602.9141 Q312.8156,602.8516 312.9875,602.8516 Q313.3156,602.8516 313.55,603.1172 Q313.8,603.3672 313.8,603.7266 Q313.8,604.0703 313.4563,604.4766 Q312.9563,605.0703 312.1594,605.3984 Q311.1125,605.8516 309.8313,605.8516 Q308.3313,605.8516 307.1281,605.2578 Q306.1594,604.7891 305.4719,603.7734 Q304.8,602.7578 304.8,601.5547 L304.8,600.4609 Q304.8,599.2109 305.3938,598.1172 Q306.0031,597.0234 307.05,596.4453 Q308.1125,595.8516 309.3,595.8516 Q310.0188,595.8516 310.6438,596.1016 Q311.2688,596.3516 311.8,596.8516 Z " fill="#000000"/><text fill="#000000" font-family="sans-serif" font-size="12" font-style="italic" lengthAdjust="spacing" textLength="68" x="338.7" y="596.457">«repository»</text><text fill="#000000" font-family="sans-serif" font-size="14" lengthAdjust="spacing" textLength="97" x="324.2" y="613.627">UserRepository</text><line style="stroke:#181818;stroke-width:0.5;" x1="294" x2="425" y1="621.7031" y2="621.7031"/><line style="stroke:#181818;stroke-width:0.5;" x1="294" x2="425" y1="629.7031" y2="629.7031"/><ellipse cx="304" cy="644.0078" fill="#84BE84" rx="3" ry="3" style="stroke:#038048;stroke-width:1.0;"/><text fill="#000000" font-family="sans-serif" font-size="14" lengthAdjust="spacing" textLength="107" x="313" y="648.2363">findActiveUsers()</text></g><!--MD5=[9563755d011c5cec7ec66dc53565a59e]
class Board--><g id="elem_Board"><rect codeLine="34" fill="#F1F1F1" height="58.7031" id="Board" rx="2.5" ry="2.5" style="stroke:#181818;stroke-width:0.5;" width="84" x="461.5" y="587.5"/><ellipse cx="476.5" cy="608.8516" fill="#ADD1B2" rx="11" ry="11" style="stroke:#181818;stroke-width:1.0;"/><path d="M478.5,605.3516 Q478.7031,604.8516 478.9375,604.6016 Q479.1719,604.3516 479.4375,604.3516 Q479.9063,604.3516 480.2031,604.6328 Q480.5,604.9141 480.5,605.5703 L480.5,607.1328 Q480.5,607.7891 480.2188,608.0703 Q479.9375,608.3516 479.5,608.3516 Q479.1094,608.3516 478.8594,608.1797 Q478.6094,608.0078 478.5,607.5547 Q478.4531,607.2422 478.2813,607.0703 Q477.9688,606.7422 477.4063,606.5547 Q476.8438,606.3516 476.2813,606.3516 Q475.5781,606.3516 474.9844,606.6328 Q474.4063,606.9141 473.9531,607.5391 Q473.5,608.1641 473.5,609.0234 L473.5,609.9453 Q473.5,610.9766 474.3438,611.6641 Q475.1875,612.3516 476.6875,612.3516 Q477.5781,612.3516 478.2031,612.1484 Q478.5625,612.0391 478.9688,611.6797 Q479.2344,611.4766 479.375,611.4141 Q479.5156,611.3516 479.6875,611.3516 Q480.0156,611.3516 480.25,611.6172 Q480.5,611.8672 480.5,612.2266 Q480.5,612.5703 480.1563,612.9766 Q479.6563,613.5703 478.8594,613.8984 Q477.8125,614.3516 476.5313,614.3516 Q475.0313,614.3516 473.8281,613.7578 Q472.8594,613.2891 472.1719,612.2734 Q471.5,611.2578 471.5,610.0547 L471.5,608.9609 Q471.5,607.7109 472.0938,606.6172 Q472.7031,605.5234 473.75,604.9453 Q474.8125,604.3516 476,604.3516 Q476.7188,604.3516 477.3438,604.6016 Q477.9688,604.8516 478.5,605.3516 Z " fill="#000000"/><text fill="#000000" font-family="sans-serif" font-size="12" font-style="italic" lengthAdjust="spacing" textLength="56" x="488.5" y="604.957">«domain»</text><text fill="#000000" font-family="sans-serif" font-size="14" lengthAdjust="spacing" textLength="38" x="497.5" y="622.127">Board</text><line style="stroke:#181818;stroke-width:0.5;" x1="462.5" x2="544.5" y1="630.2031" y2="630.2031"/><line style="stroke:#181818;stroke-width:0.5;" x1="462.5" x2="544.5" y1="638.2031" y2="638.2031"/></g><!--MD5=[5794b6e3d42f27848ba235197c4362b6]
link TCPClient to TCPServer--><g id="link_TCPClient_TCPServer"><path codeLine="38" d="M335.66,66.29 C318.83,84.34 297.01,107.75 279.05,127.01 " fill="none" id="TCPClient-to-TCPServer" style="stroke:#181818;stroke-width:1.0;"/><polygon fill="#181818" points="275.51,130.81,284.5756,126.961,278.9221,127.1552,278.7279,121.5017,275.51,130.81" style="stroke:#181818;stroke-width:1.0;"/></g><!--MD5=[7dd0cae0b67d3c4ed87cacb06f1c9d2c]
link TCPClient to ShareAShareBoardUI--><g id="link_TCPClient_ShareAShareBoardUI"><path codeLine="39" d="M389.34,66.29 C404.65,82.71 424.09,103.56 440.99,121.7 " fill="none" id="TCPClient-to-ShareAShareBoardUI" style="stroke:#181818;stroke-width:1.0;"/><polygon fill="#181818" points="444.78,125.76,441.5621,116.4517,441.3679,122.1052,435.7144,121.911,444.78,125.76" style="stroke:#181818;stroke-width:1.0;"/></g><!--MD5=[b1c7eb82c553dc5d5a376d739a578fc0]
link TCPServer to ShareAShareBoardController--><g id="link_TCPServer_ShareAShareBoardController"><path codeLine="40" d="M245.5,197.24 C245.5,214.51 245.5,236.36 245.5,256.65 " fill="none" id="TCPServer-to-ShareAShareBoardController" style="stroke:#181818;stroke-width:1.0;"/><polygon fill="#181818" points="245.5,261.77,249.5,252.77,245.5,256.77,241.5,252.77,245.5,261.77" style="stroke:#181818;stroke-width:1.0;"/></g><!--MD5=[90d5df029ff9654ed141b887a01e112c]
link ShareAShareBoardController to BoardManagementService--><g id="link_ShareAShareBoardController_BoardManagementService"><path codeLine="41" d="M282.61,374.31 C294.8,392.46 308.12,412.32 319.51,429.29 " fill="none" id="ShareAShareBoardController-to-BoardManagementService" style="stroke:#181818;stroke-width:1.0;"/><polygon fill="#181818" points="322.36,433.54,320.6728,423.8367,319.5766,429.3863,314.027,428.2901,322.36,433.54" style="stroke:#181818;stroke-width:1.0;"/></g><!--MD5=[05e3c0e70989e2a4a7f8c5fb336213ab]
link ShareAShareBoardController to BoardRepository--><g id="link_ShareAShareBoardController_BoardRepository"><path codeLine="42" d="M224.51,374.17 C203.69,428.88 172.06,512.02 151.84,565.17 " fill="none" id="ShareAShareBoardController-to-BoardRepository" style="stroke:#181818;stroke-width:1.0;"/><polygon fill="#181818" points="150.04,569.9,156.9899,562.9215,151.8253,565.2296,149.5173,560.065,150.04,569.9" style="stroke:#181818;stroke-width:1.0;"/></g><!--MD5=[4a0f28fcdb255c211e04e2f8297a1eb7]
link BoardManagementService to UserRepository--><g id="link_BoardManagementService_UserRepository"><path codeLine="43" d="M350.62,510.2 C352.26,529.73 354.27,553.73 355.97,573.94 " fill="none" id="BoardManagementService-to-UserRepository" style="stroke:#181818;stroke-width:1.0;"/><polygon fill="#181818" points="356.39,578.99,359.631,569.6897,355.976,574.0072,351.6585,570.3521,356.39,578.99" style="stroke:#181818;stroke-width:1.0;"/></g><!--MD5=[03bf995c65e60f6c5efceff683f7804e]
link BoardManagementService to BoardRepository--><g id="link_BoardManagementService_BoardRepository"><path codeLine="44" d="M291.85,510.01 C265.75,527.37 234.29,548.3 206.24,566.96 " fill="none" id="BoardManagementService-to-BoardRepository" style="stroke:#181818;stroke-width:1.0;"/><polygon fill="#181818" points="201.77,569.93,211.4799,568.2813,205.9346,567.1631,207.0528,561.6178,201.77,569.93" style="stroke:#181818;stroke-width:1.0;"/></g><!--MD5=[92a04ff87aea3514c31c2714a261702d]
link BoardManagementService to Board--><g id="link_BoardManagementService_Board"><path codeLine="45" d="M388.08,510.2 C412.93,532.98 444.42,561.85 468.23,583.67 " fill="none" id="BoardManagementService-to-Board" style="stroke:#181818;stroke-width:1.0;"/><polygon fill="#181818" points="471.99,587.11,468.049,578.084,468.3007,583.7353,462.6494,583.9869,471.99,587.11" style="stroke:#181818;stroke-width:1.0;"/></g><!--MD5=[8887316063ab9254d25a472b44964ade]
@startuml

class TCPClient <<presentation>>{

}

class TCPServer {
+shareABoard(board, user, state)
}

class ShareAShareBoardUI<<presentation>> {
+chooseState()
}

class ShareAShareBoardController <<application>> {
+findBoardOwned(email)
+findActiveUsers()
+appendNewUser(board,user,state)
}

class BoardManagementService <<application>> {
+appendNewUser(board, user, state)

}

class BoardRepository <<repository>>{
+appendNewUser(board, user, state)
+findBoardOwned(email)
}

class UserRepository <<repository>>{
+findActiveUsers()
}

class Board <<domain>>{

}

TCPClient - -> TCPServer
TCPClient - -> ShareAShareBoardUI
TCPServer - -> ShareAShareBoardController
ShareAShareBoardController - -> BoardManagementService
ShareAShareBoardController - -> BoardRepository
BoardManagementService - -> UserRepository
BoardManagementService - -> BoardRepository
BoardManagementService - -> Board



@enduml

PlantUML version 1.2022.12(Sun Oct 23 19:12:26 BST 2022)
(GPL source distribution)
Java Runtime: OpenJDK Runtime Environment
JVM: OpenJDK 64-Bit Server VM
Default Encoding: Cp1252
Language: pt
Country: PT
--></g></svg>