<?xml version="1.0" encoding="UTF-8" standalone="no"?><svg xmlns="http://www.w3.org/2000/svg" xmlns:xlink="http://www.w3.org/1999/xlink" contentStyleType="text/css" height="810px" preserveAspectRatio="none" style="width:1138px;height:810px;background:#FFFFFF;" version="1.1" viewBox="0 0 1138 810" width="1138px" zoomAndPan="magnify"><defs/><g><line style="stroke:#181818;stroke-width:0.5;stroke-dasharray:5.0,5.0;" x1="22" x2="22" y1="86.2188" y2="713.1406"/><line style="stroke:#181818;stroke-width:0.5;stroke-dasharray:5.0,5.0;" x1="89" x2="89" y1="86.2188" y2="713.1406"/><line style="stroke:#181818;stroke-width:0.5;stroke-dasharray:5.0,5.0;" x1="202" x2="202" y1="86.2188" y2="713.1406"/><line style="stroke:#181818;stroke-width:0.5;stroke-dasharray:5.0,5.0;" x1="328" x2="328" y1="86.2188" y2="713.1406"/><line style="stroke:#181818;stroke-width:0.5;stroke-dasharray:5.0,5.0;" x1="512" x2="512" y1="86.2188" y2="713.1406"/><line style="stroke:#181818;stroke-width:0.5;stroke-dasharray:5.0,5.0;" x1="740" x2="740" y1="86.2188" y2="713.1406"/><line style="stroke:#181818;stroke-width:0.5;stroke-dasharray:5.0,5.0;" x1="968.5" x2="968.5" y1="86.2188" y2="713.1406"/><line style="stroke:#181818;stroke-width:0.5;stroke-dasharray:5.0,5.0;" x1="1085.5" x2="1085.5" y1="86.2188" y2="713.1406"/><text fill="#000000" font-family="sans-serif" font-size="14" lengthAdjust="spacing" textLength="29" x="5" y="83.1426">User</text><ellipse cx="22.5" cy="17.1094" fill="#E2E2F0" rx="8" ry="8" style="stroke:#181818;stroke-width:0.5;"/><path d="M22.5,25.1094 L22.5,52.1094 M9.5,33.1094 L35.5,33.1094 M22.5,52.1094 L9.5,67.1094 M22.5,52.1094 L35.5,67.1094 " fill="none" style="stroke:#181818;stroke-width:0.5;"/><text fill="#000000" font-family="sans-serif" font-size="14" lengthAdjust="spacing" textLength="29" x="5" y="726.6738">User</text><ellipse cx="22.5" cy="738.25" fill="#E2E2F0" rx="8" ry="8" style="stroke:#181818;stroke-width:0.5;"/><path d="M22.5,746.25 L22.5,773.25 M9.5,754.25 L35.5,754.25 M22.5,773.25 L9.5,788.25 M22.5,773.25 L35.5,788.25 " fill="none" style="stroke:#181818;stroke-width:0.5;"/><rect fill="#E2E2F0" height="31.6094" rx="2.5" ry="2.5" style="stroke:#181818;stroke-width:0.5;" width="78" x="50" y="53.6094"/><text fill="#000000" font-family="sans-serif" font-size="14" lengthAdjust="spacing" textLength="64" x="57" y="75.1426">TCPClient</text><rect fill="#E2E2F0" height="31.6094" rx="2.5" ry="2.5" style="stroke:#181818;stroke-width:0.5;" width="78" x="50" y="712.1406"/><text fill="#000000" font-family="sans-serif" font-size="14" lengthAdjust="spacing" textLength="64" x="57" y="733.6738">TCPClient</text><rect fill="#E2E2F0" height="31.6094" rx="2.5" ry="2.5" style="stroke:#181818;stroke-width:0.5;" width="84" x="160" y="53.6094"/><text fill="#000000" font-family="sans-serif" font-size="14" lengthAdjust="spacing" textLength="70" x="167" y="75.1426">TCPServer</text><rect fill="#E2E2F0" height="31.6094" rx="2.5" ry="2.5" style="stroke:#181818;stroke-width:0.5;" width="84" x="160" y="712.1406"/><text fill="#000000" font-family="sans-serif" font-size="14" lengthAdjust="spacing" textLength="70" x="167" y="733.6738">TCPServer</text><rect fill="#E2E2F0" height="49.2188" rx="2.5" ry="2.5" style="stroke:#181818;stroke-width:0.5;" width="149" x="254" y="36"/><text fill="#000000" font-family="sans-serif" font-size="14" font-style="italic" lengthAdjust="spacing" textLength="95" x="281" y="57.5332">«presentation»</text><text fill="#000000" font-family="sans-serif" font-size="14" lengthAdjust="spacing" textLength="135" x="261" y="75.1426">ShareAShareBoardUi</text><rect fill="#E2E2F0" height="49.2188" rx="2.5" ry="2.5" style="stroke:#181818;stroke-width:0.5;" width="149" x="254" y="712.1406"/><text fill="#000000" font-family="sans-serif" font-size="14" font-style="italic" lengthAdjust="spacing" textLength="95" x="281" y="733.6738">«presentation»</text><text fill="#000000" font-family="sans-serif" font-size="14" lengthAdjust="spacing" textLength="135" x="261" y="751.2832">ShareAShareBoardUi</text><rect fill="#E2E2F0" height="49.2188" rx="2.5" ry="2.5" style="stroke:#181818;stroke-width:0.5;" width="199" x="413" y="36"/><text fill="#000000" font-family="sans-serif" font-size="14" font-style="italic" lengthAdjust="spacing" textLength="84" x="470.5" y="57.5332">«application»</text><text fill="#000000" font-family="sans-serif" font-size="14" lengthAdjust="spacing" textLength="185" x="420" y="75.1426">ShareAShareBoardController</text><rect fill="#E2E2F0" height="49.2188" rx="2.5" ry="2.5" style="stroke:#181818;stroke-width:0.5;" width="199" x="413" y="712.1406"/><text fill="#000000" font-family="sans-serif" font-size="14" font-style="italic" lengthAdjust="spacing" textLength="84" x="470.5" y="733.6738">«application»</text><text fill="#000000" font-family="sans-serif" font-size="14" lengthAdjust="spacing" textLength="185" x="420" y="751.2832">ShareAShareBoardController</text><rect fill="#E2E2F0" height="49.2188" rx="2.5" ry="2.5" style="stroke:#181818;stroke-width:0.5;" width="181" x="650" y="36"/><text fill="#000000" font-family="sans-serif" font-size="14" font-style="italic" lengthAdjust="spacing" textLength="84" x="698.5" y="57.5332">«application»</text><text fill="#000000" font-family="sans-serif" font-size="14" lengthAdjust="spacing" textLength="167" x="657" y="75.1426">BoardManagementService</text><rect fill="#E2E2F0" height="49.2188" rx="2.5" ry="2.5" style="stroke:#181818;stroke-width:0.5;" width="181" x="650" y="712.1406"/><text fill="#000000" font-family="sans-serif" font-size="14" font-style="italic" lengthAdjust="spacing" textLength="84" x="698.5" y="733.6738">«application»</text><text fill="#000000" font-family="sans-serif" font-size="14" lengthAdjust="spacing" textLength="167" x="657" y="751.2832">BoardManagementService</text><text fill="#000000" font-family="sans-serif" font-size="14" font-style="italic" lengthAdjust="spacing" textLength="79" x="926" y="65.5332">«repository»</text><text fill="#000000" font-family="sans-serif" font-size="14" lengthAdjust="spacing" textLength="106" x="912.5" y="83.1426">BoardRepository</text><path d="M950.5,15 C950.5,5 968.5,5 968.5,5 C968.5,5 986.5,5 986.5,15 L986.5,41 C986.5,51 968.5,51 968.5,51 C968.5,51 950.5,51 950.5,41 L950.5,15 " fill="#E2E2F0" style="stroke:#181818;stroke-width:1.5;"/><path d="M950.5,15 C950.5,25 968.5,25 968.5,25 C968.5,25 986.5,25 986.5,15 " fill="none" style="stroke:#181818;stroke-width:1.5;"/><text fill="#000000" font-family="sans-serif" font-size="14" font-style="italic" lengthAdjust="spacing" textLength="79" x="926" y="726.6738">«repository»</text><text fill="#000000" font-family="sans-serif" font-size="14" lengthAdjust="spacing" textLength="106" x="912.5" y="744.2832">BoardRepository</text><path d="M950.5,757.3594 C950.5,747.3594 968.5,747.3594 968.5,747.3594 C968.5,747.3594 986.5,747.3594 986.5,757.3594 L986.5,783.3594 C986.5,793.3594 968.5,793.3594 968.5,793.3594 C968.5,793.3594 950.5,793.3594 950.5,783.3594 L950.5,757.3594 " fill="#E2E2F0" style="stroke:#181818;stroke-width:1.5;"/><path d="M950.5,757.3594 C950.5,767.3594 968.5,767.3594 968.5,767.3594 C968.5,767.3594 986.5,767.3594 986.5,757.3594 " fill="none" style="stroke:#181818;stroke-width:1.5;"/><text fill="#000000" font-family="sans-serif" font-size="14" font-style="italic" lengthAdjust="spacing" textLength="79" x="1043.5" y="65.5332">«repository»</text><text fill="#000000" font-family="sans-serif" font-size="14" lengthAdjust="spacing" textLength="97" x="1034.5" y="83.1426">UserRepository</text><path d="M1068,15 C1068,5 1086,5 1086,5 C1086,5 1104,5 1104,15 L1104,41 C1104,51 1086,51 1086,51 C1086,51 1068,51 1068,41 L1068,15 " fill="#E2E2F0" style="stroke:#181818;stroke-width:1.5;"/><path d="M1068,15 C1068,25 1086,25 1086,25 C1086,25 1104,25 1104,15 " fill="none" style="stroke:#181818;stroke-width:1.5;"/><text fill="#000000" font-family="sans-serif" font-size="14" font-style="italic" lengthAdjust="spacing" textLength="79" x="1043.5" y="726.6738">«repository»</text><text fill="#000000" font-family="sans-serif" font-size="14" lengthAdjust="spacing" textLength="97" x="1034.5" y="744.2832">UserRepository</text><path d="M1068,757.3594 C1068,747.3594 1086,747.3594 1086,747.3594 C1086,747.3594 1104,747.3594 1104,757.3594 L1104,783.3594 C1104,793.3594 1086,793.3594 1086,793.3594 C1086,793.3594 1068,793.3594 1068,783.3594 L1068,757.3594 " fill="#E2E2F0" style="stroke:#181818;stroke-width:1.5;"/><path d="M1068,757.3594 C1068,767.3594 1086,767.3594 1086,767.3594 C1086,767.3594 1104,767.3594 1104,757.3594 " fill="none" style="stroke:#181818;stroke-width:1.5;"/><polygon fill="#181818" points="77,98.2188,87,102.2188,77,106.2188,81,102.2188" style="stroke:#181818;stroke-width:1.0;"/><line style="stroke:#181818;stroke-width:1.0;stroke-dasharray:2.0,2.0;" x1="22.5" x2="83" y1="102.2188" y2="102.2188"/><polygon fill="#181818" points="190,128.5703,200,132.5703,190,136.5703,194,132.5703" style="stroke:#181818;stroke-width:1.0;"/><line style="stroke:#181818;stroke-width:1.0;" x1="89" x2="196" y1="132.5703" y2="132.5703"/><text fill="#000000" font-family="sans-serif" font-size="13" font-weight="bold" lengthAdjust="spacing" textLength="73" x="96" y="127.7139">Message 20</text><text fill="#000000" font-family="sans-serif" font-size="13" lengthAdjust="spacing" textLength="4" x="181" y="127.7139"> </text><polygon fill="#181818" points="500.5,158.9219,510.5,162.9219,500.5,166.9219,504.5,162.9219" style="stroke:#181818;stroke-width:1.0;"/><line style="stroke:#181818;stroke-width:1.0;" x1="202" x2="506.5" y1="162.9219" y2="162.9219"/><text fill="#000000" font-family="sans-serif" font-size="13" lengthAdjust="spacing" textLength="133" x="209" y="158.0654">findOwnedBoard(email)</text><polygon fill="#181818" points="956.5,189.2734,966.5,193.2734,956.5,197.2734,960.5,193.2734" style="stroke:#181818;stroke-width:1.0;"/><line style="stroke:#181818;stroke-width:1.0;" x1="512.5" x2="962.5" y1="193.2734" y2="193.2734"/><text fill="#000000" font-family="sans-serif" font-size="13" lengthAdjust="spacing" textLength="133" x="519.5" y="188.417">findOwnedBoard(email)</text><polygon fill="#181818" points="523.5,203.2734,513.5,207.2734,523.5,211.2734,519.5,207.2734" style="stroke:#181818;stroke-width:1.0;"/><line style="stroke:#181818;stroke-width:1.0;" x1="517.5" x2="967.5" y1="207.2734" y2="207.2734"/><polygon fill="#181818" points="213,217.2734,203,221.2734,213,225.2734,209,221.2734" style="stroke:#181818;stroke-width:1.0;"/><line style="stroke:#181818;stroke-width:1.0;" x1="207" x2="511.5" y1="221.2734" y2="221.2734"/><polygon fill="#181818" points="190,247.625,200,251.625,190,255.625,194,251.625" style="stroke:#181818;stroke-width:1.0;"/><line style="stroke:#181818;stroke-width:1.0;" x1="89" x2="196" y1="251.625" y2="251.625"/><text fill="#000000" font-family="sans-serif" font-size="13" font-weight="bold" lengthAdjust="spacing" textLength="73" x="96" y="246.7686">Message 21</text><text fill="#000000" font-family="sans-serif" font-size="13" lengthAdjust="spacing" textLength="4" x="181" y="246.7686"> </text><polygon fill="#181818" points="500.5,277.9766,510.5,281.9766,500.5,285.9766,504.5,281.9766" style="stroke:#181818;stroke-width:1.0;"/><line style="stroke:#181818;stroke-width:1.0;" x1="202" x2="506.5" y1="281.9766" y2="281.9766"/><text fill="#000000" font-family="sans-serif" font-size="13" lengthAdjust="spacing" textLength="97" x="209" y="277.1201">findActiveUsers()</text><polygon fill="#181818" points="1074,308.3281,1084,312.3281,1074,316.3281,1078,312.3281" style="stroke:#181818;stroke-width:1.0;"/><line style="stroke:#181818;stroke-width:1.0;" x1="512.5" x2="1080" y1="312.3281" y2="312.3281"/><text fill="#000000" font-family="sans-serif" font-size="13" lengthAdjust="spacing" textLength="97" x="519.5" y="307.4717">findActiveUsers()</text><polygon fill="#181818" points="523.5,322.3281,513.5,326.3281,523.5,330.3281,519.5,326.3281" style="stroke:#181818;stroke-width:1.0;"/><line style="stroke:#181818;stroke-width:1.0;" x1="517.5" x2="1085" y1="326.3281" y2="326.3281"/><polygon fill="#181818" points="213,336.3281,203,340.3281,213,344.3281,209,340.3281" style="stroke:#181818;stroke-width:1.0;"/><line style="stroke:#181818;stroke-width:1.0;" x1="207" x2="511.5" y1="340.3281" y2="340.3281"/><polygon fill="#181818" points="190,366.6797,200,370.6797,190,374.6797,194,370.6797" style="stroke:#181818;stroke-width:1.0;"/><line style="stroke:#181818;stroke-width:1.0;" x1="89" x2="196" y1="370.6797" y2="370.6797"/><text fill="#000000" font-family="sans-serif" font-size="13" font-weight="bold" lengthAdjust="spacing" textLength="73" x="96" y="365.8232">Message 22</text><text fill="#000000" font-family="sans-serif" font-size="13" lengthAdjust="spacing" textLength="4" x="181" y="365.8232"> </text><polygon fill="#181818" points="316.5,397.0313,326.5,401.0313,316.5,405.0313,320.5,401.0313" style="stroke:#181818;stroke-width:1.0;"/><line style="stroke:#181818;stroke-width:1.0;" x1="202" x2="322.5" y1="401.0313" y2="401.0313"/><text fill="#000000" font-family="sans-serif" font-size="13" lengthAdjust="spacing" textLength="81" x="209" y="396.1748">chooseState()</text><polygon fill="#181818" points="100,411.0313,90,415.0313,100,419.0313,96,415.0313" style="stroke:#181818;stroke-width:1.0;"/><line style="stroke:#181818;stroke-width:1.0;" x1="94" x2="327.5" y1="415.0313" y2="415.0313"/><polygon fill="#181818" points="190,441.3828,200,445.3828,190,449.3828,194,445.3828" style="stroke:#181818;stroke-width:1.0;"/><line style="stroke:#181818;stroke-width:1.0;" x1="89" x2="196" y1="445.3828" y2="445.3828"/><text fill="#000000" font-family="sans-serif" font-size="13" font-weight="bold" lengthAdjust="spacing" textLength="73" x="96" y="440.5264">Message 23</text><text fill="#000000" font-family="sans-serif" font-size="13" lengthAdjust="spacing" textLength="4" x="181" y="440.5264"> </text><polygon fill="#181818" points="500.5,471.7344,510.5,475.7344,500.5,479.7344,504.5,475.7344" style="stroke:#181818;stroke-width:1.0;"/><line style="stroke:#181818;stroke-width:1.0;" x1="202" x2="506.5" y1="475.7344" y2="475.7344"/><text fill="#000000" font-family="sans-serif" font-size="13" lengthAdjust="spacing" textLength="204" x="209" y="470.8779">appendNewUser(board, user, state)</text><polygon fill="#181818" points="728.5,502.0859,738.5,506.0859,728.5,510.0859,732.5,506.0859" style="stroke:#181818;stroke-width:1.0;"/><line style="stroke:#181818;stroke-width:1.0;" x1="512.5" x2="734.5" y1="506.0859" y2="506.0859"/><text fill="#000000" font-family="sans-serif" font-size="13" lengthAdjust="spacing" textLength="204" x="519.5" y="501.2295">appendNewUser(board, user, state)</text><polygon fill="#181818" points="1074,532.4375,1084,536.4375,1074,540.4375,1078,536.4375" style="stroke:#181818;stroke-width:1.0;"/><line style="stroke:#181818;stroke-width:1.0;" x1="740.5" x2="1080" y1="536.4375" y2="536.4375"/><text fill="#000000" font-family="sans-serif" font-size="13" lengthAdjust="spacing" textLength="135" x="747.5" y="531.5811">findUserByEmail(email)</text><polygon fill="#181818" points="751.5,546.4375,741.5,550.4375,751.5,554.4375,747.5,550.4375" style="stroke:#181818;stroke-width:1.0;"/><line style="stroke:#181818;stroke-width:1.0;" x1="745.5" x2="1085" y1="550.4375" y2="550.4375"/><polygon fill="#181818" points="956.5,576.7891,966.5,580.7891,956.5,584.7891,960.5,580.7891" style="stroke:#181818;stroke-width:1.0;"/><line style="stroke:#181818;stroke-width:1.0;" x1="740.5" x2="962.5" y1="580.7891" y2="580.7891"/><text fill="#000000" font-family="sans-serif" font-size="13" lengthAdjust="spacing" textLength="130" x="747.5" y="575.9326">findBoardById(boardId)</text><polygon fill="#181818" points="751.5,590.7891,741.5,594.7891,751.5,598.7891,747.5,594.7891" style="stroke:#181818;stroke-width:1.0;"/><line style="stroke:#181818;stroke-width:1.0;" x1="745.5" x2="967.5" y1="594.7891" y2="594.7891"/><polygon fill="#181818" points="956.5,621.1406,966.5,625.1406,956.5,629.1406,960.5,625.1406" style="stroke:#181818;stroke-width:1.0;"/><line style="stroke:#181818;stroke-width:1.0;" x1="740.5" x2="962.5" y1="625.1406" y2="625.1406"/><text fill="#000000" font-family="sans-serif" font-size="13" lengthAdjust="spacing" textLength="204" x="747.5" y="620.2842">appendNewUser(board, user, state)</text><polygon fill="#181818" points="751.5,635.1406,741.5,639.1406,751.5,643.1406,747.5,639.1406" style="stroke:#181818;stroke-width:1.0;"/><line style="stroke:#181818;stroke-width:1.0;" x1="745.5" x2="967.5" y1="639.1406" y2="639.1406"/><polygon fill="#181818" points="523.5,649.1406,513.5,653.1406,523.5,657.1406,519.5,653.1406" style="stroke:#181818;stroke-width:1.0;"/><line style="stroke:#181818;stroke-width:1.0;" x1="517.5" x2="739.5" y1="653.1406" y2="653.1406"/><polygon fill="#181818" points="213,663.1406,203,667.1406,213,671.1406,209,667.1406" style="stroke:#181818;stroke-width:1.0;"/><line style="stroke:#181818;stroke-width:1.0;" x1="207" x2="511.5" y1="667.1406" y2="667.1406"/><polygon fill="#181818" points="100,677.1406,90,681.1406,100,685.1406,96,681.1406" style="stroke:#181818;stroke-width:1.0;"/><line style="stroke:#181818;stroke-width:1.0;" x1="94" x2="201" y1="681.1406" y2="681.1406"/><polygon fill="#181818" points="33.5,691.1406,23.5,695.1406,33.5,699.1406,29.5,695.1406" style="stroke:#181818;stroke-width:1.0;"/><line style="stroke:#181818;stroke-width:1.0;stroke-dasharray:2.0,2.0;" x1="27.5" x2="88" y1="695.1406" y2="695.1406"/><!--MD5=[8da8a3d3ead8395fcc5a34ba08e67002]
@startuml
actor User as user
participant TCPClient as tcpC
participant TCPServer as tcpS
participant "ShareAShareBoardUi" as ui<< presentation >>
participant "ShareAShareBoardController" as ctrl <<application>>
participant "BoardManagementService" as svc <<application>>
database "BoardRepository" as repoB <<repository>>
database "UserRepository" as repoU <<repository>>

user - -> tcpC
autonumber 20 "<font color=black><b>Message 0  "
tcpC -> tcpS
autonumber stop
tcpS -> ctrl : findOwnedBoard(email)
ctrl -> repoB :findOwnedBoard(email)
repoB -> ctrl
ctrl -> tcpS
autonumber 21 "<font color=black><b>Message 0  "
tcpC -> tcpS
autonumber stop
tcpS -> ctrl : findActiveUsers()
ctrl -> repoU : findActiveUsers()
repoU -> ctrl
ctrl -> tcpS
autonumber 22 "<font color=black><b>Message 0  "
tcpC -> tcpS
autonumber stop 
tcpS -> ui : chooseState()

ui -> tcpC
autonumber 23 "<font color=black><b>Message 0  "
tcpC -> tcpS
autonumber stop
tcpS -> ctrl : appendNewUser(board, user, state)
ctrl -> svc : appendNewUser(board, user, state)
svc -> repoU : findUserByEmail(email)
repoU -> svc
svc -> repoB : findBoardById(boardId)
repoB -> svc
svc -> repoB: appendNewUser(board, user, state)
repoB -> svc
svc -> ctrl
ctrl -> tcpS
tcpS -> tcpC
tcpC - -> user

@enduml

PlantUML version 1.2022.12(Sun Oct 23 19:12:26 BST 2022)
(GPL source distribution)
Java Runtime: OpenJDK Runtime Environment
JVM: OpenJDK 64-Bit Server VM
Default Encoding: Cp1252
Language: pt
Country: PT
--></g></svg>