<?xml version="1.0" encoding="us-ascii" standalone="no"?><svg xmlns="http://www.w3.org/2000/svg" xmlns:xlink="http://www.w3.org/1999/xlink" contentStyleType="text/css" height="956px" preserveAspectRatio="none" style="width:1790px;height:956px;background:#FFFFFF;" version="1.1" viewBox="0 0 1790 956" width="1790px" zoomAndPan="magnify"><defs/><g><rect fill="#FFFFFF" height="828.9863" style="stroke:#181818;stroke-width:1.0;" width="10" x="103" y="71.9121"/><rect fill="#FFFFFF" height="25" style="stroke:#181818;stroke-width:1.0;" width="10" x="108" y="564.1133"/><rect fill="#FFFFFF" height="25" style="stroke:#181818;stroke-width:1.0;" width="10" x="108" y="635.4043"/><rect fill="#FFFFFF" height="25" style="stroke:#181818;stroke-width:1.0;" width="10" x="108" y="706.6953"/><rect fill="#FFFFFF" height="14" style="stroke:#181818;stroke-width:1.0;" width="10" x="260" y="103.2031"/><rect fill="#FFFFFF" height="14" style="stroke:#181818;stroke-width:1.0;" width="10" x="388" y="148.4941"/><rect fill="#FFFFFF" height="14" style="stroke:#181818;stroke-width:1.0;" width="10" x="503.5" y="193.7852"/><rect fill="#FFFFFF" height="59.291" style="stroke:#181818;stroke-width:1.0;" width="10" x="640.5" y="239.0762"/><rect fill="#FFFFFF" height="14" style="stroke:#181818;stroke-width:1.0;" width="10" x="760" y="270.3672"/><rect fill="#FFFFFF" height="14" style="stroke:#181818;stroke-width:1.0;" width="10" x="876.5" y="329.6582"/><rect fill="#FFFFFF" height="14" style="stroke:#181818;stroke-width:1.0;" width="10" x="1017" y="374.9492"/><rect fill="#FFFFFF" height="14" style="stroke:#181818;stroke-width:1.0;" width="10" x="1017" y="482.8223"/><rect fill="#FFFFFF" height="104.582" style="stroke:#181818;stroke-width:1.0;" width="10" x="1164.5" y="420.2402"/><rect fill="#FFFFFF" height="59.291" style="stroke:#181818;stroke-width:1.0;" width="10" x="1311" y="451.5313"/><rect fill="#FFFFFF" height="116.9121" style="stroke:#181818;stroke-width:1.0;" width="10" x="1456.5" y="769.9863"/><rect fill="#FFFFFF" height="71.6211" style="stroke:#181818;stroke-width:1.0;" width="10" x="1625.5" y="801.2773"/><rect fill="#FFFFFF" height="16.3301" style="stroke:#181818;stroke-width:1.0;" width="10" x="1739" y="842.5684"/><line style="stroke:#181818;stroke-width:0.5;stroke-dasharray:5.0,5.0;" x1="28" x2="28" y1="38.6211" y2="918.8984"/><line style="stroke:#181818;stroke-width:0.5;stroke-dasharray:5.0,5.0;" x1="108" x2="108" y1="38.6211" y2="918.8984"/><line style="stroke:#181818;stroke-width:0.5;stroke-dasharray:5.0,5.0;" x1="264.5" x2="264.5" y1="38.6211" y2="918.8984"/><line style="stroke:#181818;stroke-width:0.5;stroke-dasharray:5.0,5.0;" x1="392.5" x2="392.5" y1="38.6211" y2="918.8984"/><line style="stroke:#181818;stroke-width:0.5;stroke-dasharray:5.0,5.0;" x1="508.5" x2="508.5" y1="38.6211" y2="918.8984"/><line style="stroke:#181818;stroke-width:0.5;stroke-dasharray:5.0,5.0;" x1="645.5" x2="645.5" y1="38.6211" y2="918.8984"/><line style="stroke:#181818;stroke-width:0.5;stroke-dasharray:5.0,5.0;" x1="764.5" x2="764.5" y1="38.6211" y2="918.8984"/><line style="stroke:#181818;stroke-width:0.5;stroke-dasharray:5.0,5.0;" x1="881.5" x2="881.5" y1="38.6211" y2="918.8984"/><line style="stroke:#181818;stroke-width:0.5;stroke-dasharray:5.0,5.0;" x1="1021.5" x2="1021.5" y1="38.6211" y2="918.8984"/><line style="stroke:#181818;stroke-width:0.5;stroke-dasharray:5.0,5.0;" x1="1169.5" x2="1169.5" y1="38.6211" y2="918.8984"/><line style="stroke:#181818;stroke-width:0.5;stroke-dasharray:5.0,5.0;" x1="1315.5" x2="1315.5" y1="38.6211" y2="918.8984"/><line style="stroke:#181818;stroke-width:0.5;stroke-dasharray:5.0,5.0;" x1="1461.5" x2="1461.5" y1="38.6211" y2="918.8984"/><line style="stroke:#181818;stroke-width:0.5;stroke-dasharray:5.0,5.0;" x1="1630" x2="1630" y1="38.6211" y2="918.8984"/><line style="stroke:#181818;stroke-width:0.5;stroke-dasharray:5.0,5.0;" x1="1744" x2="1744" y1="841.0879" y2="918.8984"/><rect fill="#E2E2F0" height="32.6211" rx="2.5" ry="2.5" style="stroke:#181818;stroke-width:0.5;" width="47" x="5" y="5"/><text fill="#000000" font-family="sans-serif" font-size="14" lengthAdjust="spacing" textLength="33" x="12" y="27.1074">Actor</text><rect fill="#E2E2F0" height="32.6211" rx="2.5" ry="2.5" style="stroke:#181818;stroke-width:0.5;" width="47" x="5" y="917.8984"/><text fill="#000000" font-family="sans-serif" font-size="14" lengthAdjust="spacing" textLength="33" x="12" y="940.0059">Actor</text><rect fill="#E2E2F0" height="32.6211" rx="2.5" ry="2.5" style="stroke:#181818;stroke-width:0.5;" width="92" x="62" y="5"/><text fill="#000000" font-family="sans-serif" font-size="14" lengthAdjust="spacing" textLength="78" x="69" y="27.1074">TakeExamUI</text><rect fill="#E2E2F0" height="32.6211" rx="2.5" ry="2.5" style="stroke:#181818;stroke-width:0.5;" width="92" x="62" y="917.8984"/><text fill="#000000" font-family="sans-serif" font-size="14" lengthAdjust="spacing" textLength="78" x="69" y="940.0059">TakeExamUI</text><rect fill="#E2E2F0" height="32.6211" rx="2.5" ry="2.5" style="stroke:#181818;stroke-width:0.5;" width="143" x="193.5" y="5"/><text fill="#000000" font-family="sans-serif" font-size="14" lengthAdjust="spacing" textLength="129" x="200.5" y="27.1074">AuthorizationService</text><rect fill="#E2E2F0" height="32.6211" rx="2.5" ry="2.5" style="stroke:#181818;stroke-width:0.5;" width="143" x="193.5" y="917.8984"/><text fill="#000000" font-family="sans-serif" font-size="14" lengthAdjust="spacing" textLength="129" x="200.5" y="940.0059">AuthorizationService</text><rect fill="#E2E2F0" height="32.6211" rx="2.5" ry="2.5" style="stroke:#181818;stroke-width:0.5;" width="93" x="346.5" y="5"/><text fill="#000000" font-family="sans-serif" font-size="14" lengthAdjust="spacing" textLength="79" x="353.5" y="27.1074">UserSession</text><rect fill="#E2E2F0" height="32.6211" rx="2.5" ry="2.5" style="stroke:#181818;stroke-width:0.5;" width="93" x="346.5" y="917.8984"/><text fill="#000000" font-family="sans-serif" font-size="14" lengthAdjust="spacing" textLength="79" x="353.5" y="940.0059">UserSession</text><rect fill="#E2E2F0" height="32.6211" rx="2.5" ry="2.5" style="stroke:#181818;stroke-width:0.5;" width="118" x="449.5" y="5"/><text fill="#000000" font-family="sans-serif" font-size="14" lengthAdjust="spacing" textLength="104" x="456.5" y="27.1074">SystemUserAuth</text><rect fill="#E2E2F0" height="32.6211" rx="2.5" ry="2.5" style="stroke:#181818;stroke-width:0.5;" width="118" x="449.5" y="917.8984"/><text fill="#000000" font-family="sans-serif" font-size="14" lengthAdjust="spacing" textLength="104" x="456.5" y="940.0059">SystemUserAuth</text><rect fill="#E2E2F0" height="32.6211" rx="2.5" ry="2.5" style="stroke:#181818;stroke-width:0.5;" width="136" x="577.5" y="5"/><text fill="#000000" font-family="sans-serif" font-size="14" lengthAdjust="spacing" textLength="122" x="584.5" y="27.1074">PersistenceContext</text><rect fill="#E2E2F0" height="32.6211" rx="2.5" ry="2.5" style="stroke:#181818;stroke-width:0.5;" width="136" x="577.5" y="917.8984"/><text fill="#000000" font-family="sans-serif" font-size="14" lengthAdjust="spacing" textLength="122" x="584.5" y="940.0059">PersistenceContext</text><rect fill="#E2E2F0" height="32.6211" rx="2.5" ry="2.5" style="stroke:#181818;stroke-width:0.5;" width="83" x="723.5" y="5"/><text fill="#000000" font-family="sans-serif" font-size="14" lengthAdjust="spacing" textLength="69" x="730.5" y="27.1074">Application</text><rect fill="#E2E2F0" height="32.6211" rx="2.5" ry="2.5" style="stroke:#181818;stroke-width:0.5;" width="83" x="723.5" y="917.8984"/><text fill="#000000" font-family="sans-serif" font-size="14" lengthAdjust="spacing" textLength="69" x="730.5" y="940.0059">Application</text><rect fill="#E2E2F0" height="32.6211" rx="2.5" ry="2.5" style="stroke:#181818;stroke-width:0.5;" width="130" x="816.5" y="5"/><text fill="#000000" font-family="sans-serif" font-size="14" lengthAdjust="spacing" textLength="116" x="823.5" y="27.1074">RepositoryFactory</text><rect fill="#E2E2F0" height="32.6211" rx="2.5" ry="2.5" style="stroke:#181818;stroke-width:0.5;" width="130" x="816.5" y="917.8984"/><text fill="#000000" font-family="sans-serif" font-size="14" lengthAdjust="spacing" textLength="116" x="823.5" y="940.0059">RepositoryFactory</text><rect fill="#E2E2F0" height="32.6211" rx="2.5" ry="2.5" style="stroke:#181818;stroke-width:0.5;" width="131" x="956.5" y="5"/><text fill="#000000" font-family="sans-serif" font-size="14" lengthAdjust="spacing" textLength="117" x="963.5" y="27.1074">StudentRepository</text><rect fill="#E2E2F0" height="32.6211" rx="2.5" ry="2.5" style="stroke:#181818;stroke-width:0.5;" width="131" x="956.5" y="917.8984"/><text fill="#000000" font-family="sans-serif" font-size="14" lengthAdjust="spacing" textLength="117" x="963.5" y="940.0059">StudentRepository</text><rect fill="#E2E2F0" height="32.6211" rx="2.5" ry="2.5" style="stroke:#181818;stroke-width:0.5;" width="144" x="1097.5" y="5"/><text fill="#000000" font-family="sans-serif" font-size="14" lengthAdjust="spacing" textLength="130" x="1104.5" y="27.1074">NextExamsController</text><rect fill="#E2E2F0" height="32.6211" rx="2.5" ry="2.5" style="stroke:#181818;stroke-width:0.5;" width="144" x="1097.5" y="917.8984"/><text fill="#000000" font-family="sans-serif" font-size="14" lengthAdjust="spacing" textLength="130" x="1104.5" y="940.0059">NextExamsController</text><rect fill="#E2E2F0" height="32.6211" rx="2.5" ry="2.5" style="stroke:#181818;stroke-width:0.5;" width="129" x="1251.5" y="5"/><text fill="#000000" font-family="sans-serif" font-size="14" lengthAdjust="spacing" textLength="115" x="1258.5" y="27.1074">NextExamsService</text><rect fill="#E2E2F0" height="32.6211" rx="2.5" ry="2.5" style="stroke:#181818;stroke-width:0.5;" width="129" x="1251.5" y="917.8984"/><text fill="#000000" font-family="sans-serif" font-size="14" lengthAdjust="spacing" textLength="115" x="1258.5" y="940.0059">NextExamsService</text><rect fill="#E2E2F0" height="32.6211" rx="2.5" ry="2.5" style="stroke:#181818;stroke-width:0.5;" width="142" x="1390.5" y="5"/><text fill="#000000" font-family="sans-serif" font-size="14" lengthAdjust="spacing" textLength="128" x="1397.5" y="27.1074">EvaluationController</text><rect fill="#E2E2F0" height="32.6211" rx="2.5" ry="2.5" style="stroke:#181818;stroke-width:0.5;" width="142" x="1390.5" y="917.8984"/><text fill="#000000" font-family="sans-serif" font-size="14" lengthAdjust="spacing" textLength="128" x="1397.5" y="940.0059">EvaluationController</text><rect fill="#E2E2F0" height="32.6211" rx="2.5" ry="2.5" style="stroke:#181818;stroke-width:0.5;" width="127" x="1567" y="5"/><text fill="#000000" font-family="sans-serif" font-size="14" lengthAdjust="spacing" textLength="113" x="1574" y="27.1074">EvaluationService</text><rect fill="#E2E2F0" height="32.6211" rx="2.5" ry="2.5" style="stroke:#181818;stroke-width:0.5;" width="127" x="1567" y="917.8984"/><text fill="#000000" font-family="sans-serif" font-size="14" lengthAdjust="spacing" textLength="113" x="1574" y="940.0059">EvaluationService</text><rect fill="#E2E2F0" height="32.6211" rx="2.5" ry="2.5" style="stroke:#181818;stroke-width:0.5;" width="80" x="1704" y="917.8984"/><text fill="#000000" font-family="sans-serif" font-size="14" lengthAdjust="spacing" textLength="66" x="1711" y="940.0059">Evaluation</text><rect fill="#FFFFFF" height="828.9863" style="stroke:#181818;stroke-width:1.0;" width="10" x="103" y="71.9121"/><rect fill="#FFFFFF" height="25" style="stroke:#181818;stroke-width:1.0;" width="10" x="108" y="564.1133"/><rect fill="#FFFFFF" height="25" style="stroke:#181818;stroke-width:1.0;" width="10" x="108" y="635.4043"/><rect fill="#FFFFFF" height="25" style="stroke:#181818;stroke-width:1.0;" width="10" x="108" y="706.6953"/><rect fill="#FFFFFF" height="14" style="stroke:#181818;stroke-width:1.0;" width="10" x="260" y="103.2031"/><rect fill="#FFFFFF" height="14" style="stroke:#181818;stroke-width:1.0;" width="10" x="388" y="148.4941"/><rect fill="#FFFFFF" height="14" style="stroke:#181818;stroke-width:1.0;" width="10" x="503.5" y="193.7852"/><rect fill="#FFFFFF" height="59.291" style="stroke:#181818;stroke-width:1.0;" width="10" x="640.5" y="239.0762"/><rect fill="#FFFFFF" height="14" style="stroke:#181818;stroke-width:1.0;" width="10" x="760" y="270.3672"/><rect fill="#FFFFFF" height="14" style="stroke:#181818;stroke-width:1.0;" width="10" x="876.5" y="329.6582"/><rect fill="#FFFFFF" height="14" style="stroke:#181818;stroke-width:1.0;" width="10" x="1017" y="374.9492"/><rect fill="#FFFFFF" height="14" style="stroke:#181818;stroke-width:1.0;" width="10" x="1017" y="482.8223"/><rect fill="#FFFFFF" height="104.582" style="stroke:#181818;stroke-width:1.0;" width="10" x="1164.5" y="420.2402"/><rect fill="#FFFFFF" height="59.291" style="stroke:#181818;stroke-width:1.0;" width="10" x="1311" y="451.5313"/><rect fill="#FFFFFF" height="116.9121" style="stroke:#181818;stroke-width:1.0;" width="10" x="1456.5" y="769.9863"/><rect fill="#FFFFFF" height="71.6211" style="stroke:#181818;stroke-width:1.0;" width="10" x="1625.5" y="801.2773"/><rect fill="#FFFFFF" height="16.3301" style="stroke:#181818;stroke-width:1.0;" width="10" x="1739" y="842.5684"/><polygon fill="#181818" points="91,67.9121,101,71.9121,91,75.9121,95,71.9121" style="stroke:#181818;stroke-width:1.0;"/><line style="stroke:#181818;stroke-width:1.0;" x1="28.5" x2="97" y1="71.9121" y2="71.9121"/><text fill="#000000" font-family="sans-serif" font-size="13" lengthAdjust="spacing" textLength="46" x="35.5" y="66.6494">doShow</text><polygon fill="#181818" points="248,99.2031,258,103.2031,248,107.2031,252,103.2031" style="stroke:#181818;stroke-width:1.0;"/><line style="stroke:#181818;stroke-width:1.0;" x1="113" x2="254" y1="103.2031" y2="103.2031"/><text fill="#000000" font-family="sans-serif" font-size="13" lengthAdjust="spacing" textLength="45" x="120" y="97.9404">session</text><polygon fill="#181818" points="124,113.2031,114,117.2031,124,121.2031,120,117.2031" style="stroke:#181818;stroke-width:1.0;"/><line style="stroke:#181818;stroke-width:1.0;stroke-dasharray:2.0,2.0;" x1="118" x2="264" y1="117.2031" y2="117.2031"/><polygon fill="#181818" points="376,144.4941,386,148.4941,376,152.4941,380,148.4941" style="stroke:#181818;stroke-width:1.0;"/><line style="stroke:#181818;stroke-width:1.0;" x1="113" x2="382" y1="148.4941" y2="148.4941"/><text fill="#000000" font-family="sans-serif" font-size="13" lengthAdjust="spacing" textLength="105" x="120" y="143.2314">authenticatedUser</text><polygon fill="#181818" points="124,158.4941,114,162.4941,124,166.4941,120,162.4941" style="stroke:#181818;stroke-width:1.0;"/><line style="stroke:#181818;stroke-width:1.0;stroke-dasharray:2.0,2.0;" x1="118" x2="392" y1="162.4941" y2="162.4941"/><polygon fill="#181818" points="491.5,189.7852,501.5,193.7852,491.5,197.7852,495.5,193.7852" style="stroke:#181818;stroke-width:1.0;"/><line style="stroke:#181818;stroke-width:1.0;" x1="113" x2="497.5" y1="193.7852" y2="193.7852"/><text fill="#000000" font-family="sans-serif" font-size="13" lengthAdjust="spacing" textLength="31" x="120" y="188.5225">email</text><polygon fill="#181818" points="124,203.7852,114,207.7852,124,211.7852,120,207.7852" style="stroke:#181818;stroke-width:1.0;"/><line style="stroke:#181818;stroke-width:1.0;stroke-dasharray:2.0,2.0;" x1="118" x2="507.5" y1="207.7852" y2="207.7852"/><polygon fill="#181818" points="628.5,235.0762,638.5,239.0762,628.5,243.0762,632.5,239.0762" style="stroke:#181818;stroke-width:1.0;"/><line style="stroke:#181818;stroke-width:1.0;" x1="113" x2="634.5" y1="239.0762" y2="239.0762"/><text fill="#000000" font-family="sans-serif" font-size="13" lengthAdjust="spacing" textLength="67" x="120" y="233.8135">repositories</text><polygon fill="#181818" points="748,266.3672,758,270.3672,748,274.3672,752,270.3672" style="stroke:#181818;stroke-width:1.0;"/><line style="stroke:#181818;stroke-width:1.0;" x1="650.5" x2="754" y1="270.3672" y2="270.3672"/><text fill="#000000" font-family="sans-serif" font-size="13" lengthAdjust="spacing" textLength="46" x="657.5" y="265.1045">settings</text><polygon fill="#181818" points="661.5,280.3672,651.5,284.3672,661.5,288.3672,657.5,284.3672" style="stroke:#181818;stroke-width:1.0;"/><line style="stroke:#181818;stroke-width:1.0;stroke-dasharray:2.0,2.0;" x1="655.5" x2="764" y1="284.3672" y2="284.3672"/><polygon fill="#181818" points="124,294.3672,114,298.3672,124,302.3672,120,298.3672" style="stroke:#181818;stroke-width:1.0;"/><line style="stroke:#181818;stroke-width:1.0;stroke-dasharray:2.0,2.0;" x1="118" x2="644.5" y1="298.3672" y2="298.3672"/><polygon fill="#181818" points="864.5,325.6582,874.5,329.6582,864.5,333.6582,868.5,329.6582" style="stroke:#181818;stroke-width:1.0;"/><line style="stroke:#181818;stroke-width:1.0;" x1="113" x2="870.5" y1="329.6582" y2="329.6582"/><text fill="#000000" font-family="sans-serif" font-size="13" lengthAdjust="spacing" textLength="50" x="120" y="324.3955">students</text><polygon fill="#181818" points="124,339.6582,114,343.6582,124,347.6582,120,343.6582" style="stroke:#181818;stroke-width:1.0;"/><line style="stroke:#181818;stroke-width:1.0;stroke-dasharray:2.0,2.0;" x1="118" x2="880.5" y1="343.6582" y2="343.6582"/><polygon fill="#181818" points="1005,370.9492,1015,374.9492,1005,378.9492,1009,374.9492" style="stroke:#181818;stroke-width:1.0;"/><line style="stroke:#181818;stroke-width:1.0;" x1="113" x2="1011" y1="374.9492" y2="374.9492"/><text fill="#000000" font-family="sans-serif" font-size="13" lengthAdjust="spacing" textLength="114" x="120" y="369.6865">findStudentByEmail</text><polygon fill="#181818" points="124,384.9492,114,388.9492,124,392.9492,120,388.9492" style="stroke:#181818;stroke-width:1.0;"/><line style="stroke:#181818;stroke-width:1.0;stroke-dasharray:2.0,2.0;" x1="118" x2="1021" y1="388.9492" y2="388.9492"/><polygon fill="#181818" points="1152.5,416.2402,1162.5,420.2402,1152.5,424.2402,1156.5,420.2402" style="stroke:#181818;stroke-width:1.0;"/><line style="stroke:#181818;stroke-width:1.0;" x1="113" x2="1158.5" y1="420.2402" y2="420.2402"/><text fill="#000000" font-family="sans-serif" font-size="13" lengthAdjust="spacing" textLength="66" x="120" y="414.9775">nextExams</text><polygon fill="#181818" points="1299,447.5313,1309,451.5313,1299,455.5313,1303,451.5313" style="stroke:#181818;stroke-width:1.0;"/><line style="stroke:#181818;stroke-width:1.0;" x1="1174.5" x2="1305" y1="451.5313" y2="451.5313"/><text fill="#000000" font-family="sans-serif" font-size="13" lengthAdjust="spacing" textLength="66" x="1181.5" y="446.2686">nextExams</text><polygon fill="#181818" points="1038,478.8223,1028,482.8223,1038,486.8223,1034,482.8223" style="stroke:#181818;stroke-width:1.0;"/><line style="stroke:#181818;stroke-width:1.0;" x1="1032" x2="1310" y1="482.8223" y2="482.8223"/><text fill="#000000" font-family="sans-serif" font-size="13" lengthAdjust="spacing" textLength="66" x="1044" y="477.5596">nextExams</text><polygon fill="#181818" points="1299,492.8223,1309,496.8223,1299,500.8223,1303,496.8223" style="stroke:#181818;stroke-width:1.0;"/><line style="stroke:#181818;stroke-width:1.0;stroke-dasharray:2.0,2.0;" x1="1022" x2="1305" y1="496.8223" y2="496.8223"/><polygon fill="#181818" points="1185.5,506.8223,1175.5,510.8223,1185.5,514.8223,1181.5,510.8223" style="stroke:#181818;stroke-width:1.0;"/><line style="stroke:#181818;stroke-width:1.0;stroke-dasharray:2.0,2.0;" x1="1179.5" x2="1315" y1="510.8223" y2="510.8223"/><polygon fill="#181818" points="124,520.8223,114,524.8223,124,528.8223,120,524.8223" style="stroke:#181818;stroke-width:1.0;"/><line style="stroke:#181818;stroke-width:1.0;stroke-dasharray:2.0,2.0;" x1="118" x2="1168.5" y1="524.8223" y2="524.8223"/><line style="stroke:#181818;stroke-width:1.0;" x1="113" x2="160" y1="551.1133" y2="551.1133"/><line style="stroke:#181818;stroke-width:1.0;" x1="160" x2="160" y1="551.1133" y2="564.1133"/><line style="stroke:#181818;stroke-width:1.0;" x1="119" x2="160" y1="564.1133" y2="564.1133"/><polygon fill="#181818" points="129,560.1133,119,564.1133,129,568.1133,125,564.1133" style="stroke:#181818;stroke-width:1.0;"/><text fill="#000000" font-family="sans-serif" font-size="13" lengthAdjust="spacing" textLength="133" x="125" y="545.8506">displayAvailableExams</text><line style="stroke:#181818;stroke-width:1.0;stroke-dasharray:2.0,2.0;" x1="118" x2="160" y1="588.1133" y2="588.1133"/><line style="stroke:#181818;stroke-width:1.0;stroke-dasharray:2.0,2.0;" x1="160" x2="160" y1="588.1133" y2="601.1133"/><line style="stroke:#181818;stroke-width:1.0;stroke-dasharray:2.0,2.0;" x1="113" x2="160" y1="601.1133" y2="601.1133"/><polygon fill="#181818" points="123,597.1133,113,601.1133,123,605.1133,119,601.1133" style="stroke:#181818;stroke-width:1.0;"/><line style="stroke:#181818;stroke-width:1.0;" x1="113" x2="160" y1="622.4043" y2="622.4043"/><line style="stroke:#181818;stroke-width:1.0;" x1="160" x2="160" y1="622.4043" y2="635.4043"/><line style="stroke:#181818;stroke-width:1.0;" x1="119" x2="160" y1="635.4043" y2="635.4043"/><polygon fill="#181818" points="129,631.4043,119,635.4043,129,639.4043,125,635.4043" style="stroke:#181818;stroke-width:1.0;"/><text fill="#000000" font-family="sans-serif" font-size="13" lengthAdjust="spacing" textLength="76" x="125" y="617.1416">chooseExam</text><line style="stroke:#181818;stroke-width:1.0;stroke-dasharray:2.0,2.0;" x1="118" x2="160" y1="659.4043" y2="659.4043"/><line style="stroke:#181818;stroke-width:1.0;stroke-dasharray:2.0,2.0;" x1="160" x2="160" y1="659.4043" y2="672.4043"/><line style="stroke:#181818;stroke-width:1.0;stroke-dasharray:2.0,2.0;" x1="113" x2="160" y1="672.4043" y2="672.4043"/><polygon fill="#181818" points="123,668.4043,113,672.4043,123,676.4043,119,672.4043" style="stroke:#181818;stroke-width:1.0;"/><line style="stroke:#181818;stroke-width:1.0;" x1="113" x2="160" y1="693.6953" y2="693.6953"/><line style="stroke:#181818;stroke-width:1.0;" x1="160" x2="160" y1="693.6953" y2="706.6953"/><line style="stroke:#181818;stroke-width:1.0;" x1="119" x2="160" y1="706.6953" y2="706.6953"/><polygon fill="#181818" points="129,702.6953,119,706.6953,129,710.6953,125,706.6953" style="stroke:#181818;stroke-width:1.0;"/><text fill="#000000" font-family="sans-serif" font-size="13" lengthAdjust="spacing" textLength="100" x="125" y="688.4326">answerQuestions</text><line style="stroke:#181818;stroke-width:1.0;stroke-dasharray:2.0,2.0;" x1="118" x2="160" y1="730.6953" y2="730.6953"/><line style="stroke:#181818;stroke-width:1.0;stroke-dasharray:2.0,2.0;" x1="160" x2="160" y1="730.6953" y2="743.6953"/><line style="stroke:#181818;stroke-width:1.0;stroke-dasharray:2.0,2.0;" x1="113" x2="160" y1="743.6953" y2="743.6953"/><polygon fill="#181818" points="123,739.6953,113,743.6953,123,747.6953,119,743.6953" style="stroke:#181818;stroke-width:1.0;"/><polygon fill="#181818" points="1444.5,765.9863,1454.5,769.9863,1444.5,773.9863,1448.5,769.9863" style="stroke:#181818;stroke-width:1.0;"/><line style="stroke:#181818;stroke-width:1.0;" x1="113" x2="1450.5" y1="769.9863" y2="769.9863"/><text fill="#000000" font-family="sans-serif" font-size="13" lengthAdjust="spacing" textLength="140" x="120" y="764.7236">createEvaluationStudent</text><polygon fill="#181818" points="1613.5,797.2773,1623.5,801.2773,1613.5,805.2773,1617.5,801.2773" style="stroke:#181818;stroke-width:1.0;"/><line style="stroke:#181818;stroke-width:1.0;" x1="1466.5" x2="1619.5" y1="801.2773" y2="801.2773"/><text fill="#000000" font-family="sans-serif" font-size="13" lengthAdjust="spacing" textLength="140" x="1473.5" y="796.0146">createEvaluationStudent</text><polygon fill="#181818" points="1692,828.5684,1702,832.5684,1692,836.5684,1696,832.5684" style="stroke:#181818;stroke-width:1.0;"/><line style="stroke:#181818;stroke-width:1.0;" x1="1635.5" x2="1698" y1="832.5684" y2="832.5684"/><text fill="#000000" font-family="sans-serif" font-size="13" lengthAdjust="spacing" textLength="23" x="1642.5" y="827.3057">new</text><rect fill="#E2E2F0" height="32.6211" rx="2.5" ry="2.5" style="stroke:#181818;stroke-width:0.5;" width="80" x="1704" y="809.2773"/><text fill="#000000" font-family="sans-serif" font-size="14" lengthAdjust="spacing" textLength="66" x="1711" y="831.3848">Evaluation</text><polygon fill="#181818" points="1646.5,854.8984,1636.5,858.8984,1646.5,862.8984,1642.5,858.8984" style="stroke:#181818;stroke-width:1.0;"/><line style="stroke:#181818;stroke-width:1.0;stroke-dasharray:2.0,2.0;" x1="1640.5" x2="1743" y1="858.8984" y2="858.8984"/><polygon fill="#181818" points="1477.5,868.8984,1467.5,872.8984,1477.5,876.8984,1473.5,872.8984" style="stroke:#181818;stroke-width:1.0;"/><line style="stroke:#181818;stroke-width:1.0;stroke-dasharray:2.0,2.0;" x1="1471.5" x2="1629.5" y1="872.8984" y2="872.8984"/><polygon fill="#181818" points="124,882.8984,114,886.8984,124,890.8984,120,886.8984" style="stroke:#181818;stroke-width:1.0;"/><line style="stroke:#181818;stroke-width:1.0;stroke-dasharray:2.0,2.0;" x1="118" x2="1460.5" y1="886.8984" y2="886.8984"/><polygon fill="#181818" points="39.5,896.8984,29.5,900.8984,39.5,904.8984,35.5,900.8984" style="stroke:#181818;stroke-width:1.0;"/><line style="stroke:#181818;stroke-width:1.0;stroke-dasharray:2.0,2.0;" x1="33.5" x2="107" y1="900.8984" y2="900.8984"/><!--SRC=[jLHBJiCm4Dtx5Bb0By02gQ0YiK50wG5CCb2Br8vifsquFUEqaSVnE885cqhDpFlupTYTj5xLgfFQL-lQ6ol6tsfrMxt9BzYSvM7tMDrKZTdkpKd8sgkZz42AWlGXQjtxlR7gMtfbz1RiKTM0U0VEuOT8mFK95hnAl8W6bZbIEpi7TdlHHXSI0Q3nm8XkGYdw8Os2Wihg596ARWVduH3gmI7gma6gDcgbTJ5hBolESAdeCrYdiAvhk3VQmzcZi8NEE8K3LU2YVjug67GOPjUr8QnBUWwyL_gJ496weBqhrayoEeBaj8iPCBHf3g_JaOS76LPv2Cvzt-3SYVEiI-IuieaSFLk0YrviGmyVIZVNxtV3PhOGytwHCooiHOPEtJnXIE6V2u5PqxPWqO-UlaORJAFWm9GpNl4bmkboPh12M0pNRpFAD1UJoWtnWL6MygbeHiLnSUpfmDANLxckbSFwY1iZtrkOnL9uY8lgnOSx4QttnhZnxtyhIUrEO5zwSE4j-8-3ROwoxSUN9jd_sWB2Ol6w6z40XnCiMI8IByGV5APDka18GUJ4YTfuLquS9K6EgULY9BnbmKA8FC74pYTL71yhOC7tLly0]--></g></svg>