<?xml version="1.0" encoding="us-ascii" standalone="no"?><svg xmlns="http://www.w3.org/2000/svg" xmlns:xlink="http://www.w3.org/1999/xlink" contentStyleType="text/css" height="833px" preserveAspectRatio="none" style="width:737px;height:833px;background:#FFFFFF;" version="1.1" viewBox="0 0 737 833" width="737px" zoomAndPan="magnify"><defs/><g><!--class MainMenu--><g id="elem_MainMenu"><rect codeLine="1" fill="#F1F1F1" height="66.6211" id="MainMenu" rx="2.5" ry="2.5" style="stroke:#181818;stroke-width:0.5;" width="145" x="282" y="7"/><ellipse cx="318.6" cy="23" fill="#ADD1B2" rx="11" ry="11" style="stroke:#181818;stroke-width:1.0;"/><path d="M321.3656,18.875 Q321.5219,18.6563 321.7094,18.5469 Q321.8969,18.4375 322.1156,18.4375 Q322.4906,18.4375 322.725,18.7031 Q322.9594,18.9531 322.9594,19.5625 L322.9594,21.0156 Q322.9594,21.625 322.725,21.8906 Q322.4906,22.1563 322.1156,22.1563 Q321.7719,22.1563 321.5688,21.9531 Q321.3656,21.7656 321.2563,21.25 Q321.2094,20.8906 321.0219,20.7031 Q320.6938,20.3281 320.0844,20.1094 Q319.475,19.8906 318.85,19.8906 Q318.0844,19.8906 317.4438,20.2188 Q316.8188,20.5469 316.3188,21.2969 Q315.8344,22.0469 315.8344,23.0781 L315.8344,24.1719 Q315.8344,25.4063 316.725,26.2344 Q317.6156,27.0469 319.2094,27.0469 Q320.1469,27.0469 320.8031,26.7969 Q321.1938,26.6406 321.6156,26.2031 Q321.8813,25.9375 322.0219,25.8594 Q322.1781,25.7813 322.3813,25.7813 Q322.7094,25.7813 322.9594,26.0469 Q323.225,26.2969 323.225,26.6406 Q323.225,26.9844 322.8813,27.3906 Q322.3813,27.9688 321.5844,28.2969 Q320.5063,28.75 319.2094,28.75 Q317.6938,28.75 316.4906,28.125 Q315.5063,27.625 314.8188,26.5625 Q314.1313,25.4844 314.1313,24.2031 L314.1313,23.0469 Q314.1313,21.7188 314.7406,20.5781 Q315.3656,19.4219 316.4594,18.8125 Q317.5531,18.1875 318.7875,18.1875 Q319.5219,18.1875 320.1625,18.3594 Q320.8188,18.5156 321.3656,18.875 Z " fill="#000000"/><text fill="#000000" font-family="sans-serif" font-size="14" lengthAdjust="spacing" textLength="65" x="337.4" y="28.7969">MainMenu</text><line style="stroke:#181818;stroke-width:0.5;" x1="283" x2="426" y1="39" y2="39"/><line style="stroke:#181818;stroke-width:0.5;" x1="283" x2="426" y1="47" y2="47"/><ellipse cx="293" cy="61.8105" fill="#84BE84" rx="3" ry="3" style="stroke:#038048;stroke-width:1.0;"/><text fill="#000000" font-family="sans-serif" font-size="14" lengthAdjust="spacing" textLength="119" x="302" y="66.1074">ManageCourseUI()</text></g><!--class ManageCourseUI--><g id="elem_ManageCourseUI"><rect codeLine="5" fill="#F1F1F1" height="159.7266" id="ManageCourseUI" rx="2.5" ry="2.5" style="stroke:#181818;stroke-width:0.5;" width="152" x="278.5" y="134"/><ellipse cx="298.45" cy="150" fill="#ADD1B2" rx="11" ry="11" style="stroke:#181818;stroke-width:1.0;"/><path d="M301.2156,145.875 Q301.3719,145.6563 301.5594,145.5469 Q301.7469,145.4375 301.9656,145.4375 Q302.3406,145.4375 302.575,145.7031 Q302.8094,145.9531 302.8094,146.5625 L302.8094,148.0156 Q302.8094,148.625 302.575,148.8906 Q302.3406,149.1563 301.9656,149.1563 Q301.6219,149.1563 301.4188,148.9531 Q301.2156,148.7656 301.1063,148.25 Q301.0594,147.8906 300.8719,147.7031 Q300.5438,147.3281 299.9344,147.1094 Q299.325,146.8906 298.7,146.8906 Q297.9344,146.8906 297.2938,147.2188 Q296.6688,147.5469 296.1688,148.2969 Q295.6844,149.0469 295.6844,150.0781 L295.6844,151.1719 Q295.6844,152.4063 296.575,153.2344 Q297.4656,154.0469 299.0594,154.0469 Q299.9969,154.0469 300.6531,153.7969 Q301.0438,153.6406 301.4656,153.2031 Q301.7313,152.9375 301.8719,152.8594 Q302.0281,152.7813 302.2313,152.7813 Q302.5594,152.7813 302.8094,153.0469 Q303.075,153.2969 303.075,153.6406 Q303.075,153.9844 302.7313,154.3906 Q302.2313,154.9688 301.4344,155.2969 Q300.3563,155.75 299.0594,155.75 Q297.5438,155.75 296.3406,155.125 Q295.3563,154.625 294.6688,153.5625 Q293.9813,152.4844 293.9813,151.2031 L293.9813,150.0469 Q293.9813,148.7188 294.5906,147.5781 Q295.2156,146.4219 296.3094,145.8125 Q297.4031,145.1875 298.6375,145.1875 Q299.3719,145.1875 300.0125,145.3594 Q300.6688,145.5156 301.2156,145.875 Z " fill="#000000"/><text fill="#000000" font-family="sans-serif" font-size="14" lengthAdjust="spacing" textLength="109" x="313.55" y="155.7969">ManageCourseUI</text><line style="stroke:#181818;stroke-width:0.5;" x1="279.5" x2="429.5" y1="166" y2="166"/><line style="stroke:#181818;stroke-width:0.5;" x1="279.5" x2="429.5" y1="174" y2="174"/><ellipse cx="289.5" cy="188.8105" fill="#84BE84" rx="3" ry="3" style="stroke:#038048;stroke-width:1.0;"/><text fill="#000000" font-family="sans-serif" font-size="14" lengthAdjust="spacing" textLength="60" x="298.5" y="193.1074">doShow()</text><ellipse cx="289.5" cy="207.4316" fill="#84BE84" rx="3" ry="3" style="stroke:#038048;stroke-width:1.0;"/><text fill="#000000" font-family="sans-serif" font-size="14" lengthAdjust="spacing" textLength="98" x="298.5" y="211.7285">chooseOption()</text><ellipse cx="289.5" cy="226.0527" fill="#84BE84" rx="3" ry="3" style="stroke:#038048;stroke-width:1.0;"/><text fill="#000000" font-family="sans-serif" font-size="14" lengthAdjust="spacing" textLength="126" x="298.5" y="230.3496">showOptionsMenu()</text><ellipse cx="289.5" cy="244.6738" fill="#84BE84" rx="3" ry="3" style="stroke:#038048;stroke-width:1.0;"/><text fill="#000000" font-family="sans-serif" font-size="14" lengthAdjust="spacing" textLength="126" x="298.5" y="248.9707">showOptionsMenu()</text><ellipse cx="289.5" cy="263.2949" fill="#84BE84" rx="3" ry="3" style="stroke:#038048;stroke-width:1.0;"/><text fill="#000000" font-family="sans-serif" font-size="14" lengthAdjust="spacing" textLength="115" x="298.5" y="267.5918">setHeadTeacher()</text><ellipse cx="289.5" cy="281.916" fill="#84BE84" rx="3" ry="3" style="stroke:#038048;stroke-width:1.0;"/><text fill="#000000" font-family="sans-serif" font-size="14" lengthAdjust="spacing" textLength="110" x="298.5" y="286.2129">removeTeacher()</text></g><!--class CourseManagementService--><g id="elem_CourseManagementService"><rect codeLine="15" fill="#F1F1F1" height="215.5898" id="CourseManagementService" rx="2.5" ry="2.5" style="stroke:#181818;stroke-width:0.5;" width="207" x="7" y="354"/><ellipse cx="22" cy="370" fill="#ADD1B2" rx="11" ry="11" style="stroke:#181818;stroke-width:1.0;"/><path d="M24.7656,365.875 Q24.9219,365.6563 25.1094,365.5469 Q25.2969,365.4375 25.5156,365.4375 Q25.8906,365.4375 26.125,365.7031 Q26.3594,365.9531 26.3594,366.5625 L26.3594,368.0156 Q26.3594,368.625 26.125,368.8906 Q25.8906,369.1563 25.5156,369.1563 Q25.1719,369.1563 24.9688,368.9531 Q24.7656,368.7656 24.6563,368.25 Q24.6094,367.8906 24.4219,367.7031 Q24.0938,367.3281 23.4844,367.1094 Q22.875,366.8906 22.25,366.8906 Q21.4844,366.8906 20.8438,367.2188 Q20.2188,367.5469 19.7188,368.2969 Q19.2344,369.0469 19.2344,370.0781 L19.2344,371.1719 Q19.2344,372.4063 20.125,373.2344 Q21.0156,374.0469 22.6094,374.0469 Q23.5469,374.0469 24.2031,373.7969 Q24.5938,373.6406 25.0156,373.2031 Q25.2813,372.9375 25.4219,372.8594 Q25.5781,372.7813 25.7813,372.7813 Q26.1094,372.7813 26.3594,373.0469 Q26.625,373.2969 26.625,373.6406 Q26.625,373.9844 26.2813,374.3906 Q25.7813,374.9688 24.9844,375.2969 Q23.9063,375.75 22.6094,375.75 Q21.0938,375.75 19.8906,375.125 Q18.9063,374.625 18.2188,373.5625 Q17.5313,372.4844 17.5313,371.2031 L17.5313,370.0469 Q17.5313,368.7188 18.1406,367.5781 Q18.7656,366.4219 19.8594,365.8125 Q20.9531,365.1875 22.1875,365.1875 Q22.9219,365.1875 23.5625,365.3594 Q24.2188,365.5156 24.7656,365.875 Z " fill="#000000"/><text fill="#000000" font-family="sans-serif" font-size="14" lengthAdjust="spacing" textLength="175" x="36" y="375.7969">CourseManagementService</text><line style="stroke:#181818;stroke-width:0.5;" x1="8" x2="213" y1="386" y2="386"/><line style="stroke:#181818;stroke-width:0.5;" x1="8" x2="213" y1="394" y2="394"/><ellipse cx="18" cy="408.8105" fill="#84BE84" rx="3" ry="3" style="stroke:#038048;stroke-width:1.0;"/><text fill="#000000" font-family="sans-serif" font-size="14" lengthAdjust="spacing" textLength="109" x="27" y="413.1074">openEnrollment()</text><ellipse cx="18" cy="427.4316" fill="#84BE84" rx="3" ry="3" style="stroke:#038048;stroke-width:1.0;"/><text fill="#000000" font-family="sans-serif" font-size="14" lengthAdjust="spacing" textLength="110" x="27" y="431.7285">closeEnrollment()</text><ellipse cx="18" cy="446.0527" fill="#84BE84" rx="3" ry="3" style="stroke:#038048;stroke-width:1.0;"/><text fill="#000000" font-family="sans-serif" font-size="14" lengthAdjust="spacing" textLength="115" x="27" y="450.3496">setHeadTeacher()</text><ellipse cx="18" cy="464.6738" fill="#84BE84" rx="3" ry="3" style="stroke:#038048;stroke-width:1.0;"/><text fill="#000000" font-family="sans-serif" font-size="14" lengthAdjust="spacing" textLength="110" x="27" y="468.9707">removeTeacher()</text><ellipse cx="18" cy="483.2949" fill="#84BE84" rx="3" ry="3" style="stroke:#038048;stroke-width:1.0;"/><text fill="#000000" font-family="sans-serif" font-size="14" lengthAdjust="spacing" textLength="106" x="27" y="487.5918">removeStudent()</text><ellipse cx="18" cy="501.916" fill="#84BE84" rx="3" ry="3" style="stroke:#038048;stroke-width:1.0;"/><text fill="#000000" font-family="sans-serif" font-size="14" lengthAdjust="spacing" textLength="107" x="27" y="506.2129">appendStudent()</text><ellipse cx="18" cy="520.5371" fill="#84BE84" rx="3" ry="3" style="stroke:#038048;stroke-width:1.0;"/><text fill="#000000" font-family="sans-serif" font-size="14" lengthAdjust="spacing" textLength="83" x="27" y="524.834">findByCode()</text><ellipse cx="18" cy="539.1582" fill="#84BE84" rx="3" ry="3" style="stroke:#038048;stroke-width:1.0;"/><text fill="#000000" font-family="sans-serif" font-size="14" lengthAdjust="spacing" textLength="121" x="27" y="543.4551">deactivateCourse()</text><ellipse cx="18" cy="557.7793" fill="#84BE84" rx="3" ry="3" style="stroke:#038048;stroke-width:1.0;"/><text fill="#000000" font-family="sans-serif" font-size="14" lengthAdjust="spacing" textLength="105" x="27" y="562.0762">activateCourse()</text></g><!--class SetTeacherManagementService--><g id="elem_SetTeacherManagementService"><rect codeLine="27" fill="#F1F1F1" height="66.6211" id="SetTeacherManagementService" rx="2.5" ry="2.5" style="stroke:#181818;stroke-width:0.5;" width="235" x="495" y="428.5"/><ellipse cx="510" cy="444.5" fill="#ADD1B2" rx="11" ry="11" style="stroke:#181818;stroke-width:1.0;"/><path d="M512.7656,440.375 Q512.9219,440.1563 513.1094,440.0469 Q513.2969,439.9375 513.5156,439.9375 Q513.8906,439.9375 514.125,440.2031 Q514.3594,440.4531 514.3594,441.0625 L514.3594,442.5156 Q514.3594,443.125 514.125,443.3906 Q513.8906,443.6563 513.5156,443.6563 Q513.1719,443.6563 512.9688,443.4531 Q512.7656,443.2656 512.6563,442.75 Q512.6094,442.3906 512.4219,442.2031 Q512.0938,441.8281 511.4844,441.6094 Q510.875,441.3906 510.25,441.3906 Q509.4844,441.3906 508.8438,441.7188 Q508.2188,442.0469 507.7188,442.7969 Q507.2344,443.5469 507.2344,444.5781 L507.2344,445.6719 Q507.2344,446.9063 508.125,447.7344 Q509.0156,448.5469 510.6094,448.5469 Q511.5469,448.5469 512.2031,448.2969 Q512.5938,448.1406 513.0156,447.7031 Q513.2813,447.4375 513.4219,447.3594 Q513.5781,447.2813 513.7813,447.2813 Q514.1094,447.2813 514.3594,447.5469 Q514.625,447.7969 514.625,448.1406 Q514.625,448.4844 514.2813,448.8906 Q513.7813,449.4688 512.9844,449.7969 Q511.9063,450.25 510.6094,450.25 Q509.0938,450.25 507.8906,449.625 Q506.9063,449.125 506.2188,448.0625 Q505.5313,446.9844 505.5313,445.7031 L505.5313,444.5469 Q505.5313,443.2188 506.1406,442.0781 Q506.7656,440.9219 507.8594,440.3125 Q508.9531,439.6875 510.1875,439.6875 Q510.9219,439.6875 511.5625,439.8594 Q512.2188,440.0156 512.7656,440.375 Z " fill="#000000"/><text fill="#000000" font-family="sans-serif" font-size="14" lengthAdjust="spacing" textLength="203" x="524" y="450.2969">SetTeacherManagementService</text><line style="stroke:#181818;stroke-width:0.5;" x1="496" x2="729" y1="460.5" y2="460.5"/><line style="stroke:#181818;stroke-width:0.5;" x1="496" x2="729" y1="468.5" y2="468.5"/><ellipse cx="506" cy="483.3105" fill="#84BE84" rx="3" ry="3" style="stroke:#038048;stroke-width:1.0;"/><text fill="#000000" font-family="sans-serif" font-size="14" lengthAdjust="spacing" textLength="104" x="515" y="487.6074">findByAcronym()</text></g><!--class StudentManagementService--><g id="elem_StudentManagementService"><rect codeLine="31" fill="#F1F1F1" height="66.6211" id="StudentManagementService" rx="2.5" ry="2.5" style="stroke:#181818;stroke-width:0.5;" width="210" x="249.5" y="428.5"/><ellipse cx="264.5" cy="444.5" fill="#ADD1B2" rx="11" ry="11" style="stroke:#181818;stroke-width:1.0;"/><path d="M267.2656,440.375 Q267.4219,440.1563 267.6094,440.0469 Q267.7969,439.9375 268.0156,439.9375 Q268.3906,439.9375 268.625,440.2031 Q268.8594,440.4531 268.8594,441.0625 L268.8594,442.5156 Q268.8594,443.125 268.625,443.3906 Q268.3906,443.6563 268.0156,443.6563 Q267.6719,443.6563 267.4688,443.4531 Q267.2656,443.2656 267.1563,442.75 Q267.1094,442.3906 266.9219,442.2031 Q266.5938,441.8281 265.9844,441.6094 Q265.375,441.3906 264.75,441.3906 Q263.9844,441.3906 263.3438,441.7188 Q262.7188,442.0469 262.2188,442.7969 Q261.7344,443.5469 261.7344,444.5781 L261.7344,445.6719 Q261.7344,446.9063 262.625,447.7344 Q263.5156,448.5469 265.1094,448.5469 Q266.0469,448.5469 266.7031,448.2969 Q267.0938,448.1406 267.5156,447.7031 Q267.7813,447.4375 267.9219,447.3594 Q268.0781,447.2813 268.2813,447.2813 Q268.6094,447.2813 268.8594,447.5469 Q269.125,447.7969 269.125,448.1406 Q269.125,448.4844 268.7813,448.8906 Q268.2813,449.4688 267.4844,449.7969 Q266.4063,450.25 265.1094,450.25 Q263.5938,450.25 262.3906,449.625 Q261.4063,449.125 260.7188,448.0625 Q260.0313,446.9844 260.0313,445.7031 L260.0313,444.5469 Q260.0313,443.2188 260.6406,442.0781 Q261.2656,440.9219 262.3594,440.3125 Q263.4531,439.6875 264.6875,439.6875 Q265.4219,439.6875 266.0625,439.8594 Q266.7188,440.0156 267.2656,440.375 Z " fill="#000000"/><text fill="#000000" font-family="sans-serif" font-size="14" lengthAdjust="spacing" textLength="178" x="278.5" y="450.2969">StudentManagementService</text><line style="stroke:#181818;stroke-width:0.5;" x1="250.5" x2="458.5" y1="460.5" y2="460.5"/><line style="stroke:#181818;stroke-width:0.5;" x1="250.5" x2="458.5" y1="468.5" y2="468.5"/><ellipse cx="260.5" cy="483.3105" fill="#84BE84" rx="3" ry="3" style="stroke:#038048;stroke-width:1.0;"/><text fill="#000000" font-family="sans-serif" font-size="14" lengthAdjust="spacing" textLength="60" x="269.5" y="487.6074">findById()</text></g><!--class CourseRepository--><g id="elem_CourseRepository"><rect codeLine="35" fill="#F1F1F1" height="196.9688" id="CourseRepository" rx="2.5" ry="2.5" style="stroke:#181818;stroke-width:0.5;" width="146" x="159.5" y="630"/><ellipse cx="174.5" cy="646" fill="#ADD1B2" rx="11" ry="11" style="stroke:#181818;stroke-width:1.0;"/><path d="M177.2656,641.875 Q177.4219,641.6563 177.6094,641.5469 Q177.7969,641.4375 178.0156,641.4375 Q178.3906,641.4375 178.625,641.7031 Q178.8594,641.9531 178.8594,642.5625 L178.8594,644.0156 Q178.8594,644.625 178.625,644.8906 Q178.3906,645.1563 178.0156,645.1563 Q177.6719,645.1563 177.4688,644.9531 Q177.2656,644.7656 177.1563,644.25 Q177.1094,643.8906 176.9219,643.7031 Q176.5938,643.3281 175.9844,643.1094 Q175.375,642.8906 174.75,642.8906 Q173.9844,642.8906 173.3438,643.2188 Q172.7188,643.5469 172.2188,644.2969 Q171.7344,645.0469 171.7344,646.0781 L171.7344,647.1719 Q171.7344,648.4063 172.625,649.2344 Q173.5156,650.0469 175.1094,650.0469 Q176.0469,650.0469 176.7031,649.7969 Q177.0938,649.6406 177.5156,649.2031 Q177.7813,648.9375 177.9219,648.8594 Q178.0781,648.7813 178.2813,648.7813 Q178.6094,648.7813 178.8594,649.0469 Q179.125,649.2969 179.125,649.6406 Q179.125,649.9844 178.7813,650.3906 Q178.2813,650.9688 177.4844,651.2969 Q176.4063,651.75 175.1094,651.75 Q173.5938,651.75 172.3906,651.125 Q171.4063,650.625 170.7188,649.5625 Q170.0313,648.4844 170.0313,647.2031 L170.0313,646.0469 Q170.0313,644.7188 170.6406,643.5781 Q171.2656,642.4219 172.3594,641.8125 Q173.4531,641.1875 174.6875,641.1875 Q175.4219,641.1875 176.0625,641.3594 Q176.7188,641.5156 177.2656,641.875 Z " fill="#000000"/><text fill="#000000" font-family="sans-serif" font-size="14" lengthAdjust="spacing" textLength="114" x="188.5" y="651.7969">CourseRepository</text><line style="stroke:#181818;stroke-width:0.5;" x1="160.5" x2="304.5" y1="662" y2="662"/><line style="stroke:#181818;stroke-width:0.5;" x1="160.5" x2="304.5" y1="670" y2="670"/><ellipse cx="170.5" cy="684.8105" fill="#84BE84" rx="3" ry="3" style="stroke:#038048;stroke-width:1.0;"/><text fill="#000000" font-family="sans-serif" font-size="14" lengthAdjust="spacing" textLength="83" x="179.5" y="689.1074">findByCode()</text><ellipse cx="170.5" cy="703.4316" fill="#84BE84" rx="3" ry="3" style="stroke:#038048;stroke-width:1.0;"/><text fill="#000000" font-family="sans-serif" font-size="14" lengthAdjust="spacing" textLength="109" x="179.5" y="707.7285">openEnrollment()</text><ellipse cx="170.5" cy="722.0527" fill="#84BE84" rx="3" ry="3" style="stroke:#038048;stroke-width:1.0;"/><text fill="#000000" font-family="sans-serif" font-size="14" lengthAdjust="spacing" textLength="110" x="179.5" y="726.3496">closeEnrollment()</text><ellipse cx="170.5" cy="740.6738" fill="#84BE84" rx="3" ry="3" style="stroke:#038048;stroke-width:1.0;"/><text fill="#000000" font-family="sans-serif" font-size="14" lengthAdjust="spacing" textLength="115" x="179.5" y="744.9707">setHeadTeacher()</text><ellipse cx="170.5" cy="759.2949" fill="#84BE84" rx="3" ry="3" style="stroke:#038048;stroke-width:1.0;"/><text fill="#000000" font-family="sans-serif" font-size="14" lengthAdjust="spacing" textLength="110" x="179.5" y="763.5918">removeTeacher()</text><ellipse cx="170.5" cy="777.916" fill="#84BE84" rx="3" ry="3" style="stroke:#038048;stroke-width:1.0;"/><text fill="#000000" font-family="sans-serif" font-size="14" lengthAdjust="spacing" textLength="106" x="179.5" y="782.2129">removeStudent()</text><ellipse cx="170.5" cy="796.5371" fill="#84BE84" rx="3" ry="3" style="stroke:#038048;stroke-width:1.0;"/><text fill="#000000" font-family="sans-serif" font-size="14" lengthAdjust="spacing" textLength="107" x="179.5" y="800.834">appendStudent()</text><ellipse cx="170.5" cy="815.1582" fill="#84BE84" rx="3" ry="3" style="stroke:#038048;stroke-width:1.0;"/><text fill="#000000" font-family="sans-serif" font-size="14" lengthAdjust="spacing" textLength="40" x="179.5" y="819.4551">save()</text></g><!--class TeacherRepository--><g id="elem_TeacherRepository"><rect codeLine="45" fill="#F1F1F1" height="66.6211" id="TeacherRepository" rx="2.5" ry="2.5" style="stroke:#181818;stroke-width:0.5;" width="153" x="536" y="695"/><ellipse cx="551" cy="711" fill="#ADD1B2" rx="11" ry="11" style="stroke:#181818;stroke-width:1.0;"/><path d="M553.7656,706.875 Q553.9219,706.6563 554.1094,706.5469 Q554.2969,706.4375 554.5156,706.4375 Q554.8906,706.4375 555.125,706.7031 Q555.3594,706.9531 555.3594,707.5625 L555.3594,709.0156 Q555.3594,709.625 555.125,709.8906 Q554.8906,710.1563 554.5156,710.1563 Q554.1719,710.1563 553.9688,709.9531 Q553.7656,709.7656 553.6563,709.25 Q553.6094,708.8906 553.4219,708.7031 Q553.0938,708.3281 552.4844,708.1094 Q551.875,707.8906 551.25,707.8906 Q550.4844,707.8906 549.8438,708.2188 Q549.2188,708.5469 548.7188,709.2969 Q548.2344,710.0469 548.2344,711.0781 L548.2344,712.1719 Q548.2344,713.4063 549.125,714.2344 Q550.0156,715.0469 551.6094,715.0469 Q552.5469,715.0469 553.2031,714.7969 Q553.5938,714.6406 554.0156,714.2031 Q554.2813,713.9375 554.4219,713.8594 Q554.5781,713.7813 554.7813,713.7813 Q555.1094,713.7813 555.3594,714.0469 Q555.625,714.2969 555.625,714.6406 Q555.625,714.9844 555.2813,715.3906 Q554.7813,715.9688 553.9844,716.2969 Q552.9063,716.75 551.6094,716.75 Q550.0938,716.75 548.8906,716.125 Q547.9063,715.625 547.2188,714.5625 Q546.5313,713.4844 546.5313,712.2031 L546.5313,711.0469 Q546.5313,709.7188 547.1406,708.5781 Q547.7656,707.4219 548.8594,706.8125 Q549.9531,706.1875 551.1875,706.1875 Q551.9219,706.1875 552.5625,706.3594 Q553.2188,706.5156 553.7656,706.875 Z " fill="#000000"/><text fill="#000000" font-family="sans-serif" font-size="14" lengthAdjust="spacing" textLength="121" x="565" y="716.7969">TeacherRepository</text><line style="stroke:#181818;stroke-width:0.5;" x1="537" x2="688" y1="727" y2="727"/><line style="stroke:#181818;stroke-width:0.5;" x1="537" x2="688" y1="735" y2="735"/><ellipse cx="547" cy="749.8105" fill="#84BE84" rx="3" ry="3" style="stroke:#038048;stroke-width:1.0;"/><text fill="#000000" font-family="sans-serif" font-size="14" lengthAdjust="spacing" textLength="104" x="556" y="754.1074">findByAcronym()</text></g><!--link MainMenu to ManageCourseUI--><g id="link_MainMenu_ManageCourseUI"><path codeLine="49" d="M354.5,74.16 C354.5,85.72 354.5,99.4 354.5,113.6 " fill="none" id="MainMenu-to-ManageCourseUI" style="stroke:#181818;stroke-width:1.0;"/><polygon fill="none" points="361.5,113.84,354.5,133.84,347.5,113.84,361.5,113.84" style="stroke:#181818;stroke-width:1.0;"/></g><!--link ManageCourseUI to CourseManagementService--><g id="link_ManageCourseUI_CourseManagementService"><path codeLine="50" d="M278.3,291.82 C262.46,307.79 245.42,324.98 228.47,342.06 " fill="none" id="ManageCourseUI-to-CourseManagementService" style="stroke:#181818;stroke-width:1.0;"/><polygon fill="none" points="233.35,347.08,214.3,356.35,223.41,337.22,233.35,347.08" style="stroke:#181818;stroke-width:1.0;"/></g><!--link ManageCourseUI to SetTeacherManagementService--><g id="link_ManageCourseUI_SetTeacherManagementService"><path codeLine="51" d="M430.51,287.48 C473.49,328.46 525.97,378.5 563.51,414.29 " fill="none" id="ManageCourseUI-to-SetTeacherManagementService" style="stroke:#181818;stroke-width:1.0;"/><polygon fill="none" points="568.47,409.35,578.11,428.21,558.81,419.48,568.47,409.35" style="stroke:#181818;stroke-width:1.0;"/></g><!--link ManageCourseUI to StudentManagementService--><g id="link_ManageCourseUI_StudentManagementService"><path codeLine="52" d="M354.5,294.19 C354.5,331.52 354.5,375.04 354.5,408.27 " fill="none" id="ManageCourseUI-to-StudentManagementService" style="stroke:#181818;stroke-width:1.0;"/><polygon fill="none" points="361.5,408.45,354.5,428.45,347.5,408.45,361.5,408.45" style="stroke:#181818;stroke-width:1.0;"/></g><!--link CourseManagementService to CourseRepository--><g id="link_CourseManagementService_CourseRepository"><path codeLine="53" d="M159.95,570.2 C166.21,583.79 172.65,597.74 178.97,611.46 " fill="none" id="CourseManagementService-to-CourseRepository" style="stroke:#181818;stroke-width:1.0;"/><polygon fill="none" points="185.49,608.86,187.51,629.96,172.77,614.73,185.49,608.86" style="stroke:#181818;stroke-width:1.0;"/></g><!--link SetTeacherManagementService to TeacherRepository--><g id="link_SetTeacherManagementService_TeacherRepository"><path codeLine="54" d="M612.5,495.7 C612.5,540.4 612.5,621.13 612.5,674.53 " fill="none" id="SetTeacherManagementService-to-TeacherRepository" style="stroke:#181818;stroke-width:1.0;"/><polygon fill="none" points="619.5,674.88,612.5,694.88,605.5,674.88,619.5,674.88" style="stroke:#181818;stroke-width:1.0;"/></g><!--link StudentManagementService to CourseRepository--><g id="link_StudentManagementService_CourseRepository"><path codeLine="55" d="M339.42,495.7 C325.98,524.84 305.47,569.29 286.01,611.5 " fill="none" id="StudentManagementService-to-CourseRepository" style="stroke:#181818;stroke-width:1.0;"/><polygon fill="none" points="292.34,614.48,277.6,629.71,279.62,608.62,292.34,614.48" style="stroke:#181818;stroke-width:1.0;"/></g><!--SRC=[nL91QiCm4Bph5JwsX7oXq8P0SmY5k7c0a3QnmDuraknWslwzSgH4jcEPtdhKQ4OpknfHScEoFLUu1sooBvPbAtT4VeODDTh0SVVqp7uO4u4ul0bqINb15qVh3w8WCl1HMqKO8EDkFM1wasKKx3jm-GbS5A03gA6Y5Y8My_WaFbK5Q7FGhH8GWb4Dk4LDPTdVtGAMBjy3-YVVYEMsaL7CQsSanzX9eNphDYGX0D8zOrNBRLZVJJi5xxFbO8DrQZxlyIeqOLUDf3xAicudXnBlVu2QZBAakn5rCCP_xjJmrc_8HmwF93AFrd8l-7hz_J9fCPkK-af956kMk_1Hy_p4xx1KcmU9uh1igHzNnSD-MB8Nimw_]--></g></svg>