<?xml version="1.0" encoding="us-ascii" standalone="no"?><svg xmlns="http://www.w3.org/2000/svg" xmlns:xlink="http://www.w3.org/1999/xlink" contentStyleType="text/css" height="792px" preserveAspectRatio="none" style="width:859px;height:792px;background:#FFFFFF;" version="1.1" viewBox="0 0 859 792" width="859px" zoomAndPan="magnify"><defs/><g><!--class Manager--><g id="elem_Manager"><rect codeLine="1" fill="#F1F1F1" height="48" id="Manager" rx="2.5" ry="2.5" style="stroke:#181818;stroke-width:0.5;" width="88" x="243" y="7"/><ellipse cx="258" cy="23" fill="#ADD1B2" rx="11" ry="11" style="stroke:#181818;stroke-width:1.0;"/><path d="M260.7656,18.875 Q260.9219,18.6563 261.1094,18.5469 Q261.2969,18.4375 261.5156,18.4375 Q261.8906,18.4375 262.125,18.7031 Q262.3594,18.9531 262.3594,19.5625 L262.3594,21.0156 Q262.3594,21.625 262.125,21.8906 Q261.8906,22.1563 261.5156,22.1563 Q261.1719,22.1563 260.9688,21.9531 Q260.7656,21.7656 260.6563,21.25 Q260.6094,20.8906 260.4219,20.7031 Q260.0938,20.3281 259.4844,20.1094 Q258.875,19.8906 258.25,19.8906 Q257.4844,19.8906 256.8438,20.2188 Q256.2188,20.5469 255.7188,21.2969 Q255.2344,22.0469 255.2344,23.0781 L255.2344,24.1719 Q255.2344,25.4063 256.125,26.2344 Q257.0156,27.0469 258.6094,27.0469 Q259.5469,27.0469 260.2031,26.7969 Q260.5938,26.6406 261.0156,26.2031 Q261.2813,25.9375 261.4219,25.8594 Q261.5781,25.7813 261.7813,25.7813 Q262.1094,25.7813 262.3594,26.0469 Q262.625,26.2969 262.625,26.6406 Q262.625,26.9844 262.2813,27.3906 Q261.7813,27.9688 260.9844,28.2969 Q259.9063,28.75 258.6094,28.75 Q257.0938,28.75 255.8906,28.125 Q254.9063,27.625 254.2188,26.5625 Q253.5313,25.4844 253.5313,24.2031 L253.5313,23.0469 Q253.5313,21.7188 254.1406,20.5781 Q254.7656,19.4219 255.8594,18.8125 Q256.9531,18.1875 258.1875,18.1875 Q258.9219,18.1875 259.5625,18.3594 Q260.2188,18.5156 260.7656,18.875 Z " fill="#000000"/><text fill="#000000" font-family="sans-serif" font-size="14" lengthAdjust="spacing" textLength="56" x="272" y="27.8535">Manager</text><line style="stroke:#181818;stroke-width:0.5;" x1="244" x2="330" y1="39" y2="39"/><line style="stroke:#181818;stroke-width:0.5;" x1="244" x2="330" y1="47" y2="47"/></g><!--class CourseRepository--><g id="elem_CourseRepository"><rect codeLine="4" fill="#F1F1F1" height="94.9219" id="CourseRepository" rx="2.5" ry="2.5" style="stroke:#181818;stroke-width:0.5;" width="385" x="467.5" y="691"/><ellipse cx="598.75" cy="707" fill="#ADD1B2" rx="11" ry="11" style="stroke:#181818;stroke-width:1.0;"/><path d="M601.5156,702.875 Q601.6719,702.6563 601.8594,702.5469 Q602.0469,702.4375 602.2656,702.4375 Q602.6406,702.4375 602.875,702.7031 Q603.1094,702.9531 603.1094,703.5625 L603.1094,705.0156 Q603.1094,705.625 602.875,705.8906 Q602.6406,706.1563 602.2656,706.1563 Q601.9219,706.1563 601.7188,705.9531 Q601.5156,705.7656 601.4063,705.25 Q601.3594,704.8906 601.1719,704.7031 Q600.8438,704.3281 600.2344,704.1094 Q599.625,703.8906 599,703.8906 Q598.2344,703.8906 597.5938,704.2188 Q596.9688,704.5469 596.4688,705.2969 Q595.9844,706.0469 595.9844,707.0781 L595.9844,708.1719 Q595.9844,709.4063 596.875,710.2344 Q597.7656,711.0469 599.3594,711.0469 Q600.2969,711.0469 600.9531,710.7969 Q601.3438,710.6406 601.7656,710.2031 Q602.0313,709.9375 602.1719,709.8594 Q602.3281,709.7813 602.5313,709.7813 Q602.8594,709.7813 603.1094,710.0469 Q603.375,710.2969 603.375,710.6406 Q603.375,710.9844 603.0313,711.3906 Q602.5313,711.9688 601.7344,712.2969 Q600.6563,712.75 599.3594,712.75 Q597.8438,712.75 596.6406,712.125 Q595.6563,711.625 594.9688,710.5625 Q594.2813,709.4844 594.2813,708.2031 L594.2813,707.0469 Q594.2813,705.7188 594.8906,704.5781 Q595.5156,703.4219 596.6094,702.8125 Q597.7031,702.1875 598.9375,702.1875 Q599.6719,702.1875 600.3125,702.3594 Q600.9688,702.5156 601.5156,702.875 Z " fill="#000000"/><text fill="#000000" font-family="sans-serif" font-size="14" lengthAdjust="spacing" textLength="114" x="619.25" y="711.8535">CourseRepository</text><line style="stroke:#181818;stroke-width:0.5;" x1="468.5" x2="851.5" y1="723" y2="723"/><line style="stroke:#181818;stroke-width:0.5;" x1="468.5" x2="851.5" y1="731" y2="731"/><ellipse cx="478.5" cy="744.3203" fill="#84BE84" rx="3" ry="3" style="stroke:#038048;stroke-width:1.0;"/><text fill="#000000" font-family="sans-serif" font-size="14" lengthAdjust="spacing" textLength="178" x="487.5" y="747.6738">findAllActive(): List&lt;Course&gt;</text><ellipse cx="478.5" cy="759.9609" fill="#84BE84" rx="3" ry="3" style="stroke:#038048;stroke-width:1.0;"/><text fill="#000000" font-family="sans-serif" font-size="14" lengthAdjust="spacing" textLength="213" x="487.5" y="763.3145">findByCode(code: String): Course</text><ellipse cx="478.5" cy="775.6016" fill="#84BE84" rx="3" ry="3" style="stroke:#038048;stroke-width:1.0;"/><text fill="#000000" font-family="sans-serif" font-size="14" lengthAdjust="spacing" textLength="359" x="487.5" y="778.9551">appendTeacher(course: Course, teacher: Teacher): void</text></g><!--class TeacherRepository--><g id="elem_TeacherRepository"><rect codeLine="10" fill="#F1F1F1" height="79.2813" id="TeacherRepository" rx="2.5" ry="2.5" style="stroke:#181818;stroke-width:0.5;" width="290" x="7" y="699"/><ellipse cx="87.25" cy="715" fill="#ADD1B2" rx="11" ry="11" style="stroke:#181818;stroke-width:1.0;"/><path d="M90.0156,710.875 Q90.1719,710.6563 90.3594,710.5469 Q90.5469,710.4375 90.7656,710.4375 Q91.1406,710.4375 91.375,710.7031 Q91.6094,710.9531 91.6094,711.5625 L91.6094,713.0156 Q91.6094,713.625 91.375,713.8906 Q91.1406,714.1563 90.7656,714.1563 Q90.4219,714.1563 90.2188,713.9531 Q90.0156,713.7656 89.9063,713.25 Q89.8594,712.8906 89.6719,712.7031 Q89.3438,712.3281 88.7344,712.1094 Q88.125,711.8906 87.5,711.8906 Q86.7344,711.8906 86.0938,712.2188 Q85.4688,712.5469 84.9688,713.2969 Q84.4844,714.0469 84.4844,715.0781 L84.4844,716.1719 Q84.4844,717.4063 85.375,718.2344 Q86.2656,719.0469 87.8594,719.0469 Q88.7969,719.0469 89.4531,718.7969 Q89.8438,718.6406 90.2656,718.2031 Q90.5313,717.9375 90.6719,717.8594 Q90.8281,717.7813 91.0313,717.7813 Q91.3594,717.7813 91.6094,718.0469 Q91.875,718.2969 91.875,718.6406 Q91.875,718.9844 91.5313,719.3906 Q91.0313,719.9688 90.2344,720.2969 Q89.1563,720.75 87.8594,720.75 Q86.3438,720.75 85.1406,720.125 Q84.1563,719.625 83.4688,718.5625 Q82.7813,717.4844 82.7813,716.2031 L82.7813,715.0469 Q82.7813,713.7188 83.3906,712.5781 Q84.0156,711.4219 85.1094,710.8125 Q86.2031,710.1875 87.4375,710.1875 Q88.1719,710.1875 88.8125,710.3594 Q89.4688,710.5156 90.0156,710.875 Z " fill="#000000"/><text fill="#000000" font-family="sans-serif" font-size="14" lengthAdjust="spacing" textLength="121" x="107.75" y="719.8535">TeacherRepository</text><line style="stroke:#181818;stroke-width:0.5;" x1="8" x2="296" y1="731" y2="731"/><line style="stroke:#181818;stroke-width:0.5;" x1="8" x2="296" y1="739" y2="739"/><ellipse cx="18" cy="752.3203" fill="#84BE84" rx="3" ry="3" style="stroke:#038048;stroke-width:1.0;"/><text fill="#000000" font-family="sans-serif" font-size="14" lengthAdjust="spacing" textLength="207" x="27" y="755.6738">findAllTeachers(): List&lt;Teacher&gt;</text><ellipse cx="18" cy="767.9609" fill="#84BE84" rx="3" ry="3" style="stroke:#038048;stroke-width:1.0;"/><text fill="#000000" font-family="sans-serif" font-size="14" lengthAdjust="spacing" textLength="264" x="27" y="771.3145">findByAcronym(acronym: String): Teacher</text></g><!--class SetTeachersUI--><g id="elem_SetTeachersUI"><rect codeLine="15" fill="#F1F1F1" height="110.5625" id="SetTeachersUI" rx="2.5" ry="2.5" style="stroke:#181818;stroke-width:0.5;" width="385" x="94.5" y="131"/><ellipse cx="236.25" cy="147" fill="#ADD1B2" rx="11" ry="11" style="stroke:#181818;stroke-width:1.0;"/><path d="M239.0156,142.875 Q239.1719,142.6563 239.3594,142.5469 Q239.5469,142.4375 239.7656,142.4375 Q240.1406,142.4375 240.375,142.7031 Q240.6094,142.9531 240.6094,143.5625 L240.6094,145.0156 Q240.6094,145.625 240.375,145.8906 Q240.1406,146.1563 239.7656,146.1563 Q239.4219,146.1563 239.2188,145.9531 Q239.0156,145.7656 238.9063,145.25 Q238.8594,144.8906 238.6719,144.7031 Q238.3438,144.3281 237.7344,144.1094 Q237.125,143.8906 236.5,143.8906 Q235.7344,143.8906 235.0938,144.2188 Q234.4688,144.5469 233.9688,145.2969 Q233.4844,146.0469 233.4844,147.0781 L233.4844,148.1719 Q233.4844,149.4063 234.375,150.2344 Q235.2656,151.0469 236.8594,151.0469 Q237.7969,151.0469 238.4531,150.7969 Q238.8438,150.6406 239.2656,150.2031 Q239.5313,149.9375 239.6719,149.8594 Q239.8281,149.7813 240.0313,149.7813 Q240.3594,149.7813 240.6094,150.0469 Q240.875,150.2969 240.875,150.6406 Q240.875,150.9844 240.5313,151.3906 Q240.0313,151.9688 239.2344,152.2969 Q238.1563,152.75 236.8594,152.75 Q235.3438,152.75 234.1406,152.125 Q233.1563,151.625 232.4688,150.5625 Q231.7813,149.4844 231.7813,148.2031 L231.7813,147.0469 Q231.7813,145.7188 232.3906,144.5781 Q233.0156,143.4219 234.1094,142.8125 Q235.2031,142.1875 236.4375,142.1875 Q237.1719,142.1875 237.8125,142.3594 Q238.4688,142.5156 239.0156,142.875 Z " fill="#000000"/><text fill="#000000" font-family="sans-serif" font-size="14" lengthAdjust="spacing" textLength="93" x="256.75" y="151.8535">SetTeachersUI</text><line style="stroke:#181818;stroke-width:0.5;" x1="95.5" x2="478.5" y1="163" y2="163"/><line style="stroke:#181818;stroke-width:0.5;" x1="95.5" x2="478.5" y1="171" y2="171"/><ellipse cx="105.5" cy="184.3203" fill="#84BE84" rx="3" ry="3" style="stroke:#038048;stroke-width:1.0;"/><text fill="#000000" font-family="sans-serif" font-size="14" lengthAdjust="spacing" textLength="94" x="114.5" y="187.6738">doShow(): void</text><ellipse cx="105.5" cy="199.9609" fill="#84BE84" rx="3" ry="3" style="stroke:#038048;stroke-width:1.0;"/><text fill="#000000" font-family="sans-serif" font-size="14" lengthAdjust="spacing" textLength="186" x="114.5" y="203.3145">listTeachers(): List&lt;Teacher&gt;</text><ellipse cx="105.5" cy="215.6016" fill="#84BE84" rx="3" ry="3" style="stroke:#038048;stroke-width:1.0;"/><text fill="#000000" font-family="sans-serif" font-size="14" lengthAdjust="spacing" textLength="172" x="114.5" y="218.9551">listCourses(): List&lt;Course&gt;</text><ellipse cx="105.5" cy="231.2422" fill="#84BE84" rx="3" ry="3" style="stroke:#038048;stroke-width:1.0;"/><text fill="#000000" font-family="sans-serif" font-size="14" lengthAdjust="spacing" textLength="359" x="114.5" y="234.5957">appendTeacher(teacher: Teacher, course: Course): void</text></g><!--class SetTeacherController--><g id="elem_SetTeacherController"><rect codeLine="22" fill="#F1F1F1" height="126.2031" id="SetTeacherController" rx="2.5" ry="2.5" style="stroke:#181818;stroke-width:0.5;" width="385" x="94.5" y="318"/><ellipse cx="214.75" cy="334" fill="#ADD1B2" rx="11" ry="11" style="stroke:#181818;stroke-width:1.0;"/><path d="M217.5156,329.875 Q217.6719,329.6563 217.8594,329.5469 Q218.0469,329.4375 218.2656,329.4375 Q218.6406,329.4375 218.875,329.7031 Q219.1094,329.9531 219.1094,330.5625 L219.1094,332.0156 Q219.1094,332.625 218.875,332.8906 Q218.6406,333.1563 218.2656,333.1563 Q217.9219,333.1563 217.7188,332.9531 Q217.5156,332.7656 217.4063,332.25 Q217.3594,331.8906 217.1719,331.7031 Q216.8438,331.3281 216.2344,331.1094 Q215.625,330.8906 215,330.8906 Q214.2344,330.8906 213.5938,331.2188 Q212.9688,331.5469 212.4688,332.2969 Q211.9844,333.0469 211.9844,334.0781 L211.9844,335.1719 Q211.9844,336.4063 212.875,337.2344 Q213.7656,338.0469 215.3594,338.0469 Q216.2969,338.0469 216.9531,337.7969 Q217.3438,337.6406 217.7656,337.2031 Q218.0313,336.9375 218.1719,336.8594 Q218.3281,336.7813 218.5313,336.7813 Q218.8594,336.7813 219.1094,337.0469 Q219.375,337.2969 219.375,337.6406 Q219.375,337.9844 219.0313,338.3906 Q218.5313,338.9688 217.7344,339.2969 Q216.6563,339.75 215.3594,339.75 Q213.8438,339.75 212.6406,339.125 Q211.6563,338.625 210.9688,337.5625 Q210.2813,336.4844 210.2813,335.2031 L210.2813,334.0469 Q210.2813,332.7188 210.8906,331.5781 Q211.5156,330.4219 212.6094,329.8125 Q213.7031,329.1875 214.9375,329.1875 Q215.6719,329.1875 216.3125,329.3594 Q216.9688,329.5156 217.5156,329.875 Z " fill="#000000"/><text fill="#000000" font-family="sans-serif" font-size="14" lengthAdjust="spacing" textLength="136" x="235.25" y="338.8535">SetTeacherController</text><line style="stroke:#181818;stroke-width:0.5;" x1="95.5" x2="478.5" y1="350" y2="350"/><rect fill="none" height="6" style="stroke:#C82930;stroke-width:1.0;" width="6" x="102.5" y="360.3203"/><text fill="#000000" font-family="sans-serif" font-size="14" lengthAdjust="spacing" textLength="245" x="114.5" y="366.6738">teacherRepository: TeacherRepository</text><rect fill="none" height="6" style="stroke:#C82930;stroke-width:1.0;" width="6" x="102.5" y="375.9609"/><text fill="#000000" font-family="sans-serif" font-size="14" lengthAdjust="spacing" textLength="233" x="114.5" y="382.3145">courseRepository: CourseRepository</text><line style="stroke:#181818;stroke-width:0.5;" x1="95.5" x2="478.5" y1="389.2813" y2="389.2813"/><ellipse cx="105.5" cy="402.6016" fill="#84BE84" rx="3" ry="3" style="stroke:#038048;stroke-width:1.0;"/><text fill="#000000" font-family="sans-serif" font-size="14" lengthAdjust="spacing" textLength="186" x="114.5" y="405.9551">listTeachers(): List&lt;Teacher&gt;</text><ellipse cx="105.5" cy="418.2422" fill="#84BE84" rx="3" ry="3" style="stroke:#038048;stroke-width:1.0;"/><text fill="#000000" font-family="sans-serif" font-size="14" lengthAdjust="spacing" textLength="172" x="114.5" y="421.5957">listCourses(): List&lt;Course&gt;</text><ellipse cx="105.5" cy="433.8828" fill="#84BE84" rx="3" ry="3" style="stroke:#038048;stroke-width:1.0;"/><text fill="#000000" font-family="sans-serif" font-size="14" lengthAdjust="spacing" textLength="359" x="114.5" y="437.2363">appendTeacher(teacher: Teacher, course: Course): void</text></g><!--class SetTeacherManagementService--><g id="elem_SetTeacherManagementService"><rect codeLine="30" fill="#F1F1F1" height="79.2813" id="SetTeacherManagementService" rx="2.5" ry="2.5" style="stroke:#181818;stroke-width:0.5;" width="290" x="142" y="528"/><ellipse cx="181.75" cy="544" fill="#ADD1B2" rx="11" ry="11" style="stroke:#181818;stroke-width:1.0;"/><path d="M184.5156,539.875 Q184.6719,539.6563 184.8594,539.5469 Q185.0469,539.4375 185.2656,539.4375 Q185.6406,539.4375 185.875,539.7031 Q186.1094,539.9531 186.1094,540.5625 L186.1094,542.0156 Q186.1094,542.625 185.875,542.8906 Q185.6406,543.1563 185.2656,543.1563 Q184.9219,543.1563 184.7188,542.9531 Q184.5156,542.7656 184.4063,542.25 Q184.3594,541.8906 184.1719,541.7031 Q183.8438,541.3281 183.2344,541.1094 Q182.625,540.8906 182,540.8906 Q181.2344,540.8906 180.5938,541.2188 Q179.9688,541.5469 179.4688,542.2969 Q178.9844,543.0469 178.9844,544.0781 L178.9844,545.1719 Q178.9844,546.4063 179.875,547.2344 Q180.7656,548.0469 182.3594,548.0469 Q183.2969,548.0469 183.9531,547.7969 Q184.3438,547.6406 184.7656,547.2031 Q185.0313,546.9375 185.1719,546.8594 Q185.3281,546.7813 185.5313,546.7813 Q185.8594,546.7813 186.1094,547.0469 Q186.375,547.2969 186.375,547.6406 Q186.375,547.9844 186.0313,548.3906 Q185.5313,548.9688 184.7344,549.2969 Q183.6563,549.75 182.3594,549.75 Q180.8438,549.75 179.6406,549.125 Q178.6563,548.625 177.9688,547.5625 Q177.2813,546.4844 177.2813,545.2031 L177.2813,544.0469 Q177.2813,542.7188 177.8906,541.5781 Q178.5156,540.4219 179.6094,539.8125 Q180.7031,539.1875 181.9375,539.1875 Q182.6719,539.1875 183.3125,539.3594 Q183.9688,539.5156 184.5156,539.875 Z " fill="#000000"/><text fill="#000000" font-family="sans-serif" font-size="14" lengthAdjust="spacing" textLength="203" x="201.25" y="548.8535">SetTeacherManagementService</text><line style="stroke:#181818;stroke-width:0.5;" x1="143" x2="431" y1="560" y2="560"/><rect fill="none" height="6" style="stroke:#C82930;stroke-width:1.0;" width="6" x="150" y="570.3203"/><text fill="#000000" font-family="sans-serif" font-size="14" lengthAdjust="spacing" textLength="245" x="162" y="576.6738">teacherRepository: TeacherRepository</text><line style="stroke:#181818;stroke-width:0.5;" x1="143" x2="431" y1="583.6406" y2="583.6406"/><ellipse cx="153" cy="596.9609" fill="#84BE84" rx="3" ry="3" style="stroke:#038048;stroke-width:1.0;"/><text fill="#000000" font-family="sans-serif" font-size="14" lengthAdjust="spacing" textLength="264" x="162" y="600.3145">findByAcronym(acronym: String): Teacher</text></g><!--class CourseManagementService--><g id="elem_CourseManagementService"><rect codeLine="35" fill="#F1F1F1" height="94.9219" id="CourseManagementService" rx="2.5" ry="2.5" style="stroke:#181818;stroke-width:0.5;" width="385" x="467.5" y="520"/><ellipse cx="568.25" cy="536" fill="#ADD1B2" rx="11" ry="11" style="stroke:#181818;stroke-width:1.0;"/><path d="M571.0156,531.875 Q571.1719,531.6563 571.3594,531.5469 Q571.5469,531.4375 571.7656,531.4375 Q572.1406,531.4375 572.375,531.7031 Q572.6094,531.9531 572.6094,532.5625 L572.6094,534.0156 Q572.6094,534.625 572.375,534.8906 Q572.1406,535.1563 571.7656,535.1563 Q571.4219,535.1563 571.2188,534.9531 Q571.0156,534.7656 570.9063,534.25 Q570.8594,533.8906 570.6719,533.7031 Q570.3438,533.3281 569.7344,533.1094 Q569.125,532.8906 568.5,532.8906 Q567.7344,532.8906 567.0938,533.2188 Q566.4688,533.5469 565.9688,534.2969 Q565.4844,535.0469 565.4844,536.0781 L565.4844,537.1719 Q565.4844,538.4063 566.375,539.2344 Q567.2656,540.0469 568.8594,540.0469 Q569.7969,540.0469 570.4531,539.7969 Q570.8438,539.6406 571.2656,539.2031 Q571.5313,538.9375 571.6719,538.8594 Q571.8281,538.7813 572.0313,538.7813 Q572.3594,538.7813 572.6094,539.0469 Q572.875,539.2969 572.875,539.6406 Q572.875,539.9844 572.5313,540.3906 Q572.0313,540.9688 571.2344,541.2969 Q570.1563,541.75 568.8594,541.75 Q567.3438,541.75 566.1406,541.125 Q565.1563,540.625 564.4688,539.5625 Q563.7813,538.4844 563.7813,537.2031 L563.7813,536.0469 Q563.7813,534.7188 564.3906,533.5781 Q565.0156,532.4219 566.1094,531.8125 Q567.2031,531.1875 568.4375,531.1875 Q569.1719,531.1875 569.8125,531.3594 Q570.4688,531.5156 571.0156,531.875 Z " fill="#000000"/><text fill="#000000" font-family="sans-serif" font-size="14" lengthAdjust="spacing" textLength="175" x="588.75" y="540.8535">CourseManagementService</text><line style="stroke:#181818;stroke-width:0.5;" x1="468.5" x2="851.5" y1="552" y2="552"/><rect fill="none" height="6" style="stroke:#C82930;stroke-width:1.0;" width="6" x="475.5" y="562.3203"/><text fill="#000000" font-family="sans-serif" font-size="14" lengthAdjust="spacing" textLength="233" x="487.5" y="568.6738">courseRepository: CourseRepository</text><line style="stroke:#181818;stroke-width:0.5;" x1="468.5" x2="851.5" y1="575.6406" y2="575.6406"/><ellipse cx="478.5" cy="588.9609" fill="#84BE84" rx="3" ry="3" style="stroke:#038048;stroke-width:1.0;"/><text fill="#000000" font-family="sans-serif" font-size="14" lengthAdjust="spacing" textLength="213" x="487.5" y="592.3145">findByCode(code: String): Course</text><ellipse cx="478.5" cy="604.6016" fill="#84BE84" rx="3" ry="3" style="stroke:#038048;stroke-width:1.0;"/><text fill="#000000" font-family="sans-serif" font-size="14" lengthAdjust="spacing" textLength="359" x="487.5" y="607.9551">appendTeacher(course: Course, teacher: Teacher): void</text></g><!--link Manager to SetTeachersUI--><g id="link_Manager_SetTeachersUI"><path codeLine="41" d="M287,55.31 C287,73.95 287,100.93 287,125.5 " fill="none" id="Manager-to-SetTeachersUI" style="stroke:#181818;stroke-width:1.0;"/><polygon fill="#181818" points="287,130.7,291,121.7,287,125.7,283,121.7,287,130.7" style="stroke:#181818;stroke-width:1.0;"/><text fill="#000000" font-family="sans-serif" font-size="13" lengthAdjust="spacing" textLength="46" x="288" y="97.7686">doShow</text></g><!--link SetTeachersUI to SetTeacherController--><g id="link_SetTeachersUI_SetTeacherController"><path codeLine="42" d="M241.87,242.24 C236.17,251.68 231.22,261.76 228,272 C223.66,285.8 225.74,299.85 231.15,313.05 " fill="none" id="SetTeachersUI-to-SetTeacherController" style="stroke:#181818;stroke-width:1.0;"/><polygon fill="#181818" points="233.29,317.88,233.3215,308.0312,231.2739,313.3045,226.0006,311.2569,233.29,317.88" style="stroke:#181818;stroke-width:1.0;"/><text fill="#000000" font-family="sans-serif" font-size="13" lengthAdjust="spacing" textLength="70" x="229" y="284.7686">listTeachers</text></g><!--link SetTeachersUI to SetTeacherController--><g id="link_SetTeachersUI_SetTeacherController"><path codeLine="50" d="M299.66,242.26 C301.47,252.11 303.04,262.32 304,272 C305.31,285.17 304.65,299.18 302.99,312.6 " fill="none" id="SetTeachersUI-to-SetTeacherController-1" style="stroke:#181818;stroke-width:1.0;"/><polygon fill="#181818" points="302.27,317.91,307.418,309.5137,302.9271,312.9534,299.4874,308.4624,302.27,317.91" style="stroke:#181818;stroke-width:1.0;"/><text fill="#000000" font-family="sans-serif" font-size="13" lengthAdjust="spacing" textLength="65" x="306" y="284.7686">listCourses</text></g><!--link SetTeacherController to TeacherRepository--><g id="link_SetTeacherController_TeacherRepository"><path codeLine="43" d="M113.21,444.19 C81.62,463.54 52.77,488.38 34,520 C12.45,556.31 18.21,575.84 34,615 C46.69,646.45 71.74,674.34 95.51,695.53 " fill="none" id="SetTeacherController-to-TeacherRepository" style="stroke:#181818;stroke-width:1.0;"/><polygon fill="#181818" points="99.31,698.88,95.1876,689.9354,95.5533,695.5804,89.9083,695.9461,99.31,698.88" style="stroke:#181818;stroke-width:1.0;"/><text fill="#000000" font-family="sans-serif" font-size="13" lengthAdjust="spacing" textLength="88" x="35" y="572.2686">findAllTeachers</text></g><!--link SetTeacherController to SetTeacherController--><g id="link_SetTeacherController_SetTeacherController"><path codeLine="44" d="M479.53,365.23 C500.78,368.22 514.5,373.48 514.5,381 C514.5,387.87 503.04,392.86 484.84,395.95 " fill="none" id="SetTeacherController-to-SetTeacherController" style="stroke:#181818;stroke-width:1.0;"/><polygon fill="#181818" points="479.53,396.77,489.0392,399.3343,484.4702,395.999,487.8055,391.43,479.53,396.77" style="stroke:#181818;stroke-width:1.0;"/><text fill="#000000" font-family="sans-serif" font-size="13" lengthAdjust="spacing" textLength="88" x="520.5" y="385.7686">appendTeacher</text></g><!--link SetTeacherController to SetTeacherManagementService--><g id="link_SetTeacherController_SetTeacherManagementService"><path codeLine="45" d="M287,444.21 C287,469.98 287,499.27 287,522.72 " fill="none" id="SetTeacherController-to-SetTeacherManagementService" style="stroke:#181818;stroke-width:1.0;"/><polygon fill="#181818" points="287,527.93,291,518.93,287,522.93,283,518.93,287,527.93" style="stroke:#181818;stroke-width:1.0;"/><text fill="#000000" font-family="sans-serif" font-size="13" lengthAdjust="spacing" textLength="88" x="288" y="486.7686">findByAcronym</text></g><!--link SetTeacherManagementService to TeacherRepository--><g id="link_SetTeacherManagementService_TeacherRepository"><path codeLine="46" d="M256.03,607.27 C235.11,633.46 207.48,668.05 185.96,694.99 " fill="none" id="SetTeacherManagementService-to-TeacherRepository" style="stroke:#181818;stroke-width:1.0;"/><polygon fill="#181818" points="182.83,698.91,191.5636,694.3576,185.943,694.9973,185.3033,689.3767,182.83,698.91" style="stroke:#181818;stroke-width:1.0;"/><text fill="#000000" font-family="sans-serif" font-size="13" lengthAdjust="spacing" textLength="88" x="225" y="657.7686">findByAcronym</text></g><!--link SetTeacherController to CourseManagementService--><g id="link_SetTeacherController_CourseManagementService"><path codeLine="47" d="M412.5,444.08 C460.98,468.06 515.63,495.09 561.23,517.64 " fill="none" id="SetTeacherController-to-CourseManagementService" style="stroke:#181818;stroke-width:1.0;"/><polygon fill="#181818" points="565.89,519.95,559.5999,512.3715,561.4093,517.7311,556.0497,519.5406,565.89,519.95" style="stroke:#181818;stroke-width:1.0;"/><text fill="#000000" font-family="sans-serif" font-size="13" lengthAdjust="spacing" textLength="66" x="497" y="486.7686">findByCode</text></g><!--link CourseManagementService to CourseRepository--><g id="link_CourseManagementService_CourseRepository"><path codeLine="48" d="M611.83,615.37 C602.88,629.39 597.78,645.24 603,661 C605.9,669.75 610.24,678.32 615.25,686.37 " fill="none" id="CourseManagementService-to-CourseRepository" style="stroke:#181818;stroke-width:1.0;"/><polygon fill="#181818" points="618.1,690.78,616.5745,681.05,615.3861,686.5806,609.8555,685.3922,618.1,690.78" style="stroke:#181818;stroke-width:1.0;"/><text fill="#000000" font-family="sans-serif" font-size="13" lengthAdjust="spacing" textLength="66" x="604" y="657.7686">findByCode</text></g><!--link CourseManagementService to CourseRepository--><g id="link_CourseManagementService_CourseRepository"><path codeLine="49" d="M670.65,615.22 C672.46,625.01 674.06,635.3 675,645 C676.28,658.15 675.23,672.27 673.21,685.41 " fill="none" id="CourseManagementService-to-CourseRepository-1" style="stroke:#181818;stroke-width:1.0;"/><polygon fill="#181818" points="672.36,690.59,677.7503,682.3472,673.1611,685.6546,669.8537,681.0654,672.36,690.59" style="stroke:#181818;stroke-width:1.0;"/><text fill="#000000" font-family="sans-serif" font-size="13" lengthAdjust="spacing" textLength="88" x="676" y="657.7686">appendTeacher</text></g><!--SRC=[pLF1QiGW4Btx5HvJkla1AGjfJeNsqhGV8CRk2gu6jIcXzDzhOjn44xVPGg5xoCBuPkRDcpU4OwtX4nRuG1Ny15y0a25KodUbwJDjf6P6giw-GVkxVMEYBZWlY64jpMuGV6JQt3dqVeBSTwMiQKRi1y7AA2OE5kjW3eMRXehwXM9ofCe2-nUFs47ZuWYE09lSIbPF_CPuak3uhiyKnq30iI1AYkwKOVS_OpgYftuLDRxawuFlLSlgA3yoJsw8STliX-Ozn0sgrnKCjOcrsC5GhOKs4zTI2gCavyDk-zAvYNL3IoaTaaGEG0jF_CE1dPDFL9YAgfOHUlNSrrl3aKfstghZ7v-Dl_4ytqTcHj3v68JX43Xp4eBpbODLJ9-yF544e-jC9oSw1-DloLwknP4uRnXSmbuQOwr2H2Fb35-WNpP8WQO2Awr_avdIRiEon-Fz1W00]--></g></svg>