<?xml version="1.0" encoding="us-ascii" standalone="no"?><svg xmlns="http://www.w3.org/2000/svg" xmlns:xlink="http://www.w3.org/1999/xlink" contentStyleType="text/css" height="691px" preserveAspectRatio="none" style="width:1043px;height:691px;background:#FFFFFF;" version="1.1" viewBox="0 0 1043 691" width="1043px" zoomAndPan="magnify"><defs/><g><rect fill="#FFFFFF" height="14" style="stroke:#181818;stroke-width:1.0;" width="10" x="132" y="253.2578"/><rect fill="#FFFFFF" height="14" style="stroke:#181818;stroke-width:1.0;" width="10" x="132" y="451.875"/><rect fill="#FFFFFF" height="14" style="stroke:#181818;stroke-width:1.0;" width="10" x="132" y="536.9219"/><rect fill="#FFFFFF" height="14" style="stroke:#181818;stroke-width:1.0;" width="10" x="265.5" y="168.2109"/><rect fill="#FFFFFF" height="14" style="stroke:#181818;stroke-width:1.0;" width="10" x="265.5" y="366.8281"/><rect fill="#FFFFFF" height="481.7578" style="stroke:#181818;stroke-width:1.0;" width="10" x="392.5" y="111.1641"/><rect fill="#FFFFFF" height="56.5234" style="stroke:#181818;stroke-width:1.0;" width="10" x="531" y="139.6875"/><rect fill="#FFFFFF" height="56.5234" style="stroke:#181818;stroke-width:1.0;" width="10" x="531" y="224.7344"/><rect fill="#FFFFFF" height="269.1406" style="stroke:#181818;stroke-width:1.0;" width="10" x="531" y="309.7813"/><rect fill="#FFFFFF" height="56.5234" style="stroke:#181818;stroke-width:1.0;" width="10" x="724.5" y="338.3047"/><rect fill="#FFFFFF" height="56.5234" style="stroke:#181818;stroke-width:1.0;" width="10" x="937.5" y="423.3516"/><rect fill="#FFFFFF" height="56.5234" style="stroke:#181818;stroke-width:1.0;" width="10" x="937.5" y="508.3984"/><line style="stroke:#181818;stroke-width:0.5;stroke-dasharray:5.0,5.0;" x1="36" x2="36" y1="80.6406" y2="610.9219"/><line style="stroke:#181818;stroke-width:0.5;stroke-dasharray:5.0,5.0;" x1="137" x2="137" y1="80.6406" y2="610.9219"/><line style="stroke:#181818;stroke-width:0.5;stroke-dasharray:5.0,5.0;" x1="270" x2="270" y1="80.6406" y2="610.9219"/><line style="stroke:#181818;stroke-width:0.5;stroke-dasharray:5.0,5.0;" x1="397" x2="397" y1="80.6406" y2="610.9219"/><line style="stroke:#181818;stroke-width:0.5;stroke-dasharray:5.0,5.0;" x1="536" x2="536" y1="80.6406" y2="610.9219"/><line style="stroke:#181818;stroke-width:0.5;stroke-dasharray:5.0,5.0;" x1="729" x2="729" y1="80.6406" y2="610.9219"/><line style="stroke:#181818;stroke-width:0.5;stroke-dasharray:5.0,5.0;" x1="942" x2="942" y1="80.6406" y2="610.9219"/><text fill="#000000" font-family="sans-serif" font-size="14" lengthAdjust="spacing" textLength="56" x="5" y="77.6738">Manager</text><ellipse cx="36" cy="13.5" fill="#E2E2F0" rx="8" ry="8" style="stroke:#181818;stroke-width:0.5;"/><path d="M36,21.5 L36,48.5 M23,29.5 L49,29.5 M36,48.5 L23,63.5 M36,48.5 L49,63.5 " fill="none" style="stroke:#181818;stroke-width:0.5;"/><text fill="#000000" font-family="sans-serif" font-size="14" lengthAdjust="spacing" textLength="56" x="5" y="622.5957">Manager</text><ellipse cx="36" cy="634.0625" fill="#E2E2F0" rx="8" ry="8" style="stroke:#181818;stroke-width:0.5;"/><path d="M36,642.0625 L36,669.0625 M23,650.0625 L49,650.0625 M36,669.0625 L23,684.0625 M36,669.0625 L49,684.0625 " fill="none" style="stroke:#181818;stroke-width:0.5;"/><text fill="#000000" font-family="sans-serif" font-size="14" lengthAdjust="spacing" textLength="114" x="77" y="77.6738">CourseRepository</text><path d="M119,29 C119,19 137,19 137,19 C137,19 155,19 155,29 L155,55 C155,65 137,65 137,65 C137,65 119,65 119,55 L119,29 " fill="#E2E2F0" style="stroke:#181818;stroke-width:1.5;"/><path d="M119,29 C119,39 137,39 137,39 C137,39 155,39 155,29 " fill="none" style="stroke:#181818;stroke-width:1.5;"/><text fill="#000000" font-family="sans-serif" font-size="14" lengthAdjust="spacing" textLength="114" x="77" y="622.5957">CourseRepository</text><path d="M119,635.5625 C119,625.5625 137,625.5625 137,625.5625 C137,625.5625 155,625.5625 155,635.5625 L155,661.5625 C155,671.5625 137,671.5625 137,671.5625 C137,671.5625 119,671.5625 119,661.5625 L119,635.5625 " fill="#E2E2F0" style="stroke:#181818;stroke-width:1.5;"/><path d="M119,635.5625 C119,645.5625 137,645.5625 137,645.5625 C137,645.5625 155,645.5625 155,635.5625 " fill="none" style="stroke:#181818;stroke-width:1.5;"/><text fill="#000000" font-family="sans-serif" font-size="14" lengthAdjust="spacing" textLength="121" x="207" y="77.6738">TeacherRepository</text><path d="M252.5,29 C252.5,19 270.5,19 270.5,19 C270.5,19 288.5,19 288.5,29 L288.5,55 C288.5,65 270.5,65 270.5,65 C270.5,65 252.5,65 252.5,55 L252.5,29 " fill="#E2E2F0" style="stroke:#181818;stroke-width:1.5;"/><path d="M252.5,29 C252.5,39 270.5,39 270.5,39 C270.5,39 288.5,39 288.5,29 " fill="none" style="stroke:#181818;stroke-width:1.5;"/><text fill="#000000" font-family="sans-serif" font-size="14" lengthAdjust="spacing" textLength="121" x="207" y="622.5957">TeacherRepository</text><path d="M252.5,635.5625 C252.5,625.5625 270.5,625.5625 270.5,625.5625 C270.5,625.5625 288.5,625.5625 288.5,635.5625 L288.5,661.5625 C288.5,671.5625 270.5,671.5625 270.5,671.5625 C270.5,671.5625 252.5,671.5625 252.5,661.5625 L252.5,635.5625 " fill="#E2E2F0" style="stroke:#181818;stroke-width:1.5;"/><path d="M252.5,635.5625 C252.5,645.5625 270.5,645.5625 270.5,645.5625 C270.5,645.5625 288.5,645.5625 288.5,635.5625 " fill="none" style="stroke:#181818;stroke-width:1.5;"/><rect fill="#E2E2F0" height="29.6406" rx="2.5" ry="2.5" style="stroke:#181818;stroke-width:0.5;" width="107" x="344" y="50"/><text fill="#000000" font-family="sans-serif" font-size="14" lengthAdjust="spacing" textLength="93" x="351" y="69.6738">SetTeachersUI</text><rect fill="#E2E2F0" height="29.6406" rx="2.5" ry="2.5" style="stroke:#181818;stroke-width:0.5;" width="107" x="344" y="609.9219"/><text fill="#000000" font-family="sans-serif" font-size="14" lengthAdjust="spacing" textLength="93" x="351" y="629.5957">SetTeachersUI</text><rect fill="#E2E2F0" height="29.6406" rx="2.5" ry="2.5" style="stroke:#181818;stroke-width:0.5;" width="150" x="461" y="50"/><text fill="#000000" font-family="sans-serif" font-size="14" lengthAdjust="spacing" textLength="136" x="468" y="69.6738">SetTeacherController</text><rect fill="#E2E2F0" height="29.6406" rx="2.5" ry="2.5" style="stroke:#181818;stroke-width:0.5;" width="150" x="461" y="609.9219"/><text fill="#000000" font-family="sans-serif" font-size="14" lengthAdjust="spacing" textLength="136" x="468" y="629.5957">SetTeacherController</text><rect fill="#E2E2F0" height="29.6406" rx="2.5" ry="2.5" style="stroke:#181818;stroke-width:0.5;" width="217" x="621" y="50"/><text fill="#000000" font-family="sans-serif" font-size="14" lengthAdjust="spacing" textLength="203" x="628" y="69.6738">SetTeacherManagementService</text><rect fill="#E2E2F0" height="29.6406" rx="2.5" ry="2.5" style="stroke:#181818;stroke-width:0.5;" width="217" x="621" y="609.9219"/><text fill="#000000" font-family="sans-serif" font-size="14" lengthAdjust="spacing" textLength="203" x="628" y="629.5957">SetTeacherManagementService</text><rect fill="#E2E2F0" height="29.6406" rx="2.5" ry="2.5" style="stroke:#181818;stroke-width:0.5;" width="189" x="848" y="50"/><text fill="#000000" font-family="sans-serif" font-size="14" lengthAdjust="spacing" textLength="175" x="855" y="69.6738">CourseManagementService</text><rect fill="#E2E2F0" height="29.6406" rx="2.5" ry="2.5" style="stroke:#181818;stroke-width:0.5;" width="189" x="848" y="609.9219"/><text fill="#000000" font-family="sans-serif" font-size="14" lengthAdjust="spacing" textLength="175" x="855" y="629.5957">CourseManagementService</text><rect fill="#FFFFFF" height="14" style="stroke:#181818;stroke-width:1.0;" width="10" x="132" y="253.2578"/><rect fill="#FFFFFF" height="14" style="stroke:#181818;stroke-width:1.0;" width="10" x="132" y="451.875"/><rect fill="#FFFFFF" height="14" style="stroke:#181818;stroke-width:1.0;" width="10" x="132" y="536.9219"/><rect fill="#FFFFFF" height="14" style="stroke:#181818;stroke-width:1.0;" width="10" x="265.5" y="168.2109"/><rect fill="#FFFFFF" height="14" style="stroke:#181818;stroke-width:1.0;" width="10" x="265.5" y="366.8281"/><rect fill="#FFFFFF" height="481.7578" style="stroke:#181818;stroke-width:1.0;" width="10" x="392.5" y="111.1641"/><rect fill="#FFFFFF" height="56.5234" style="stroke:#181818;stroke-width:1.0;" width="10" x="531" y="139.6875"/><rect fill="#FFFFFF" height="56.5234" style="stroke:#181818;stroke-width:1.0;" width="10" x="531" y="224.7344"/><rect fill="#FFFFFF" height="269.1406" style="stroke:#181818;stroke-width:1.0;" width="10" x="531" y="309.7813"/><rect fill="#FFFFFF" height="56.5234" style="stroke:#181818;stroke-width:1.0;" width="10" x="724.5" y="338.3047"/><rect fill="#FFFFFF" height="56.5234" style="stroke:#181818;stroke-width:1.0;" width="10" x="937.5" y="423.3516"/><rect fill="#FFFFFF" height="56.5234" style="stroke:#181818;stroke-width:1.0;" width="10" x="937.5" y="508.3984"/><polygon fill="#181818" points="380.5,107.1641,390.5,111.1641,380.5,115.1641,384.5,111.1641" style="stroke:#181818;stroke-width:1.0;"/><line style="stroke:#181818;stroke-width:1.0;" x1="36" x2="386.5" y1="111.1641" y2="111.1641"/><text fill="#000000" font-family="sans-serif" font-size="13" lengthAdjust="spacing" textLength="46" x="43" y="106.4092">doShow</text><polygon fill="#181818" points="519,135.6875,529,139.6875,519,143.6875,523,139.6875" style="stroke:#181818;stroke-width:1.0;"/><line style="stroke:#181818;stroke-width:1.0;" x1="402.5" x2="525" y1="139.6875" y2="139.6875"/><text fill="#000000" font-family="sans-serif" font-size="13" lengthAdjust="spacing" textLength="70" x="409.5" y="134.9326">listTeachers</text><polygon fill="#181818" points="286.5,164.2109,276.5,168.2109,286.5,172.2109,282.5,168.2109" style="stroke:#181818;stroke-width:1.0;"/><line style="stroke:#181818;stroke-width:1.0;" x1="280.5" x2="530" y1="168.2109" y2="168.2109"/><text fill="#000000" font-family="sans-serif" font-size="13" lengthAdjust="spacing" textLength="88" x="292.5" y="163.4561">findAllTeachers</text><polygon fill="#181818" points="519,178.2109,529,182.2109,519,186.2109,523,182.2109" style="stroke:#181818;stroke-width:1.0;"/><line style="stroke:#181818;stroke-width:1.0;stroke-dasharray:2.0,2.0;" x1="270.5" x2="525" y1="182.2109" y2="182.2109"/><polygon fill="#181818" points="413.5,192.2109,403.5,196.2109,413.5,200.2109,409.5,196.2109" style="stroke:#181818;stroke-width:1.0;"/><line style="stroke:#181818;stroke-width:1.0;stroke-dasharray:2.0,2.0;" x1="407.5" x2="535" y1="196.2109" y2="196.2109"/><polygon fill="#181818" points="519,220.7344,529,224.7344,519,228.7344,523,224.7344" style="stroke:#181818;stroke-width:1.0;"/><line style="stroke:#181818;stroke-width:1.0;" x1="402.5" x2="525" y1="224.7344" y2="224.7344"/><text fill="#000000" font-family="sans-serif" font-size="13" lengthAdjust="spacing" textLength="65" x="409.5" y="219.9795">listCourses</text><polygon fill="#181818" points="153,249.2578,143,253.2578,153,257.2578,149,253.2578" style="stroke:#181818;stroke-width:1.0;"/><line style="stroke:#181818;stroke-width:1.0;" x1="147" x2="530" y1="253.2578" y2="253.2578"/><text fill="#000000" font-family="sans-serif" font-size="13" lengthAdjust="spacing" textLength="70" x="159" y="248.5029">findAllActive</text><polygon fill="#181818" points="519,263.2578,529,267.2578,519,271.2578,523,267.2578" style="stroke:#181818;stroke-width:1.0;"/><line style="stroke:#181818;stroke-width:1.0;stroke-dasharray:2.0,2.0;" x1="137" x2="525" y1="267.2578" y2="267.2578"/><polygon fill="#181818" points="413.5,277.2578,403.5,281.2578,413.5,285.2578,409.5,281.2578" style="stroke:#181818;stroke-width:1.0;"/><line style="stroke:#181818;stroke-width:1.0;stroke-dasharray:2.0,2.0;" x1="407.5" x2="535" y1="281.2578" y2="281.2578"/><polygon fill="#181818" points="519,305.7813,529,309.7813,519,313.7813,523,309.7813" style="stroke:#181818;stroke-width:1.0;"/><line style="stroke:#181818;stroke-width:1.0;" x1="402.5" x2="525" y1="309.7813" y2="309.7813"/><text fill="#000000" font-family="sans-serif" font-size="13" lengthAdjust="spacing" textLength="88" x="409.5" y="305.0264">appendTeacher</text><polygon fill="#181818" points="712.5,334.3047,722.5,338.3047,712.5,342.3047,716.5,338.3047" style="stroke:#181818;stroke-width:1.0;"/><line style="stroke:#181818;stroke-width:1.0;" x1="541" x2="718.5" y1="338.3047" y2="338.3047"/><text fill="#000000" font-family="sans-serif" font-size="13" lengthAdjust="spacing" textLength="88" x="548" y="333.5498">findByAcronym</text><polygon fill="#181818" points="286.5,362.8281,276.5,366.8281,286.5,370.8281,282.5,366.8281" style="stroke:#181818;stroke-width:1.0;"/><line style="stroke:#181818;stroke-width:1.0;" x1="280.5" x2="723.5" y1="366.8281" y2="366.8281"/><text fill="#000000" font-family="sans-serif" font-size="13" lengthAdjust="spacing" textLength="88" x="292.5" y="362.0732">findByAcronym</text><polygon fill="#181818" points="712.5,376.8281,722.5,380.8281,712.5,384.8281,716.5,380.8281" style="stroke:#181818;stroke-width:1.0;"/><line style="stroke:#181818;stroke-width:1.0;stroke-dasharray:2.0,2.0;" x1="270.5" x2="718.5" y1="380.8281" y2="380.8281"/><polygon fill="#181818" points="552,390.8281,542,394.8281,552,398.8281,548,394.8281" style="stroke:#181818;stroke-width:1.0;"/><line style="stroke:#181818;stroke-width:1.0;stroke-dasharray:2.0,2.0;" x1="546" x2="728.5" y1="394.8281" y2="394.8281"/><polygon fill="#181818" points="925.5,419.3516,935.5,423.3516,925.5,427.3516,929.5,423.3516" style="stroke:#181818;stroke-width:1.0;"/><line style="stroke:#181818;stroke-width:1.0;" x1="541" x2="931.5" y1="423.3516" y2="423.3516"/><text fill="#000000" font-family="sans-serif" font-size="13" lengthAdjust="spacing" textLength="66" x="548" y="418.5967">findByCode</text><polygon fill="#181818" points="153,447.875,143,451.875,153,455.875,149,451.875" style="stroke:#181818;stroke-width:1.0;"/><line style="stroke:#181818;stroke-width:1.0;" x1="147" x2="936.5" y1="451.875" y2="451.875"/><text fill="#000000" font-family="sans-serif" font-size="13" lengthAdjust="spacing" textLength="66" x="159" y="447.1201">findByCode</text><polygon fill="#181818" points="925.5,461.875,935.5,465.875,925.5,469.875,929.5,465.875" style="stroke:#181818;stroke-width:1.0;"/><line style="stroke:#181818;stroke-width:1.0;stroke-dasharray:2.0,2.0;" x1="137" x2="931.5" y1="465.875" y2="465.875"/><polygon fill="#181818" points="552,475.875,542,479.875,552,483.875,548,479.875" style="stroke:#181818;stroke-width:1.0;"/><line style="stroke:#181818;stroke-width:1.0;stroke-dasharray:2.0,2.0;" x1="546" x2="941.5" y1="479.875" y2="479.875"/><polygon fill="#181818" points="925.5,504.3984,935.5,508.3984,925.5,512.3984,929.5,508.3984" style="stroke:#181818;stroke-width:1.0;"/><line style="stroke:#181818;stroke-width:1.0;" x1="541" x2="931.5" y1="508.3984" y2="508.3984"/><text fill="#000000" font-family="sans-serif" font-size="13" lengthAdjust="spacing" textLength="88" x="548" y="503.6436">appendTeacher</text><polygon fill="#181818" points="153,532.9219,143,536.9219,153,540.9219,149,536.9219" style="stroke:#181818;stroke-width:1.0;"/><line style="stroke:#181818;stroke-width:1.0;" x1="147" x2="936.5" y1="536.9219" y2="536.9219"/><text fill="#000000" font-family="sans-serif" font-size="13" lengthAdjust="spacing" textLength="88" x="159" y="532.167">appendTeacher</text><polygon fill="#181818" points="925.5,546.9219,935.5,550.9219,925.5,554.9219,929.5,550.9219" style="stroke:#181818;stroke-width:1.0;"/><line style="stroke:#181818;stroke-width:1.0;stroke-dasharray:2.0,2.0;" x1="137" x2="931.5" y1="550.9219" y2="550.9219"/><polygon fill="#181818" points="552,560.9219,542,564.9219,552,568.9219,548,564.9219" style="stroke:#181818;stroke-width:1.0;"/><line style="stroke:#181818;stroke-width:1.0;stroke-dasharray:2.0,2.0;" x1="546" x2="941.5" y1="564.9219" y2="564.9219"/><polygon fill="#181818" points="413.5,574.9219,403.5,578.9219,413.5,582.9219,409.5,578.9219" style="stroke:#181818;stroke-width:1.0;"/><line style="stroke:#181818;stroke-width:1.0;stroke-dasharray:2.0,2.0;" x1="407.5" x2="535" y1="578.9219" y2="578.9219"/><polygon fill="#181818" points="47,588.9219,37,592.9219,47,596.9219,43,592.9219" style="stroke:#181818;stroke-width:1.0;"/><line style="stroke:#181818;stroke-width:1.0;stroke-dasharray:2.0,2.0;" x1="41" x2="396.5" y1="592.9219" y2="592.9219"/><!--SRC=[pPH1RiCW44Ntd09bdmjaKScXcooogTC3J66Q816mWAJoxOiRgmOR4iUBgblpvmt_ysNWtbYw1mr7j4I0XmzmI5VCNAp3DsoCaq7HhYWuobwtaUI0m4zeHvf3qFGukdwXDVfUvzvtT4E5gK_cYm3tyWeUqtEIgfDnPhItHgc0tL0btQymnnh494i8v73F0FgKMbHAJLcTZKwoBbo224oq-JNZ0EAf1xTz7C3jYPRwPx7_gaFWGEeUcirqp_xUFJGDQj6VBFG_VB-rzOpQrsYlacEVoxQjk3MwFUSsJ8R8FM3IjmmttxRfZcBfCYjdFDqyEwFU_BIkd1ap8YvINarAbAIO4rZKoX9uLCpYdZd5BgnuFfb2NnU7K-BzvtoU_XbOz1Uhlm40]--></g></svg>