<?xml version="1.0" encoding="UTF-8" standalone="no"?><svg xmlns="http://www.w3.org/2000/svg" xmlns:xlink="http://www.w3.org/1999/xlink" contentStyleType="text/css" height="498px" preserveAspectRatio="none" style="width:316px;height:498px;background:#FFFFFF;" version="1.1" viewBox="0 0 316 498" width="316px" zoomAndPan="magnify"><defs/><g><!--MD5=[57c763dfef7e6620b0cee285acb5d6a0]
class ShowNextExamsUI--><g id="elem_ShowNextExamsUI"><rect codeLine="1" fill="#F1F1F1" height="76.3125" id="ShowNextExamsUI" rx="2.5" ry="2.5" style="stroke:#181818;stroke-width:0.5;" width="146" x="60" y="7"/><ellipse cx="75" cy="28.3516" fill="#ADD1B2" rx="11" ry="11" style="stroke:#181818;stroke-width:1.0;"/><path d="M77,24.8516 Q77.2031,24.3516 77.4375,24.1016 Q77.6719,23.8516 77.9375,23.8516 Q78.4063,23.8516 78.7031,24.1328 Q79,24.4141 79,25.0703 L79,26.6328 Q79,27.2891 78.7188,27.5703 Q78.4375,27.8516 78,27.8516 Q77.6094,27.8516 77.3594,27.6797 Q77.1094,27.5078 77,27.0547 Q76.9531,26.7422 76.7813,26.5703 Q76.4688,26.2422 75.9063,26.0547 Q75.3438,25.8516 74.7813,25.8516 Q74.0781,25.8516 73.4844,26.1328 Q72.9063,26.4141 72.4531,27.0391 Q72,27.6641 72,28.5234 L72,29.4453 Q72,30.4766 72.8438,31.1641 Q73.6875,31.8516 75.1875,31.8516 Q76.0781,31.8516 76.7031,31.6484 Q77.0625,31.5391 77.4688,31.1797 Q77.7344,30.9766 77.875,30.9141 Q78.0156,30.8516 78.1875,30.8516 Q78.5156,30.8516 78.75,31.1172 Q79,31.3672 79,31.7266 Q79,32.0703 78.6563,32.4766 Q78.1563,33.0703 77.3594,33.3984 Q76.3125,33.8516 75.0313,33.8516 Q73.5313,33.8516 72.3281,33.2578 Q71.3594,32.7891 70.6719,31.7734 Q70,30.7578 70,29.5547 L70,28.4609 Q70,27.2109 70.5938,26.1172 Q71.2031,25.0234 72.25,24.4453 Q73.3125,23.8516 74.5,23.8516 Q75.2188,23.8516 75.8438,24.1016 Q76.4688,24.3516 77,24.8516 Z " fill="#000000"/><text fill="#000000" font-family="sans-serif" font-size="12" font-style="italic" lengthAdjust="spacing" textLength="82" x="105" y="24.457">«presentation»</text><text fill="#000000" font-family="sans-serif" font-size="14" lengthAdjust="spacing" textLength="114" x="89" y="41.627">ShowNextExamsUI</text><line style="stroke:#181818;stroke-width:0.5;" x1="61" x2="205" y1="49.7031" y2="49.7031"/><line style="stroke:#181818;stroke-width:0.5;" x1="61" x2="205" y1="57.7031" y2="57.7031"/><ellipse cx="71" cy="72.0078" fill="#84BE84" rx="3" ry="3" style="stroke:#038048;stroke-width:1.0;"/><text fill="#000000" font-family="sans-serif" font-size="14" lengthAdjust="spacing" textLength="60" x="80" y="76.2363">doShow()</text></g><!--MD5=[72ad0b1e6ece6a6bbcff72b6d84c9d76]
class ShowNextExamsController--><g id="elem_ShowNextExamsController"><rect codeLine="5" fill="#F1F1F1" height="76.3125" id="ShowNextExamsController" rx="2.5" ry="2.5" style="stroke:#181818;stroke-width:0.5;" width="196" x="35" y="143"/><ellipse cx="50" cy="164.3516" fill="#ADD1B2" rx="11" ry="11" style="stroke:#181818;stroke-width:1.0;"/><path d="M52,160.8516 Q52.2031,160.3516 52.4375,160.1016 Q52.6719,159.8516 52.9375,159.8516 Q53.4063,159.8516 53.7031,160.1328 Q54,160.4141 54,161.0703 L54,162.6328 Q54,163.2891 53.7188,163.5703 Q53.4375,163.8516 53,163.8516 Q52.6094,163.8516 52.3594,163.6797 Q52.1094,163.5078 52,163.0547 Q51.9531,162.7422 51.7813,162.5703 Q51.4688,162.2422 50.9063,162.0547 Q50.3438,161.8516 49.7813,161.8516 Q49.0781,161.8516 48.4844,162.1328 Q47.9063,162.4141 47.4531,163.0391 Q47,163.6641 47,164.5234 L47,165.4453 Q47,166.4766 47.8438,167.1641 Q48.6875,167.8516 50.1875,167.8516 Q51.0781,167.8516 51.7031,167.6484 Q52.0625,167.5391 52.4688,167.1797 Q52.7344,166.9766 52.875,166.9141 Q53.0156,166.8516 53.1875,166.8516 Q53.5156,166.8516 53.75,167.1172 Q54,167.3672 54,167.7266 Q54,168.0703 53.6563,168.4766 Q53.1563,169.0703 52.3594,169.3984 Q51.3125,169.8516 50.0313,169.8516 Q48.5313,169.8516 47.3281,169.2578 Q46.3594,168.7891 45.6719,167.7734 Q45,166.7578 45,165.5547 L45,164.4609 Q45,163.2109 45.5938,162.1172 Q46.2031,161.0234 47.25,160.4453 Q48.3125,159.8516 49.5,159.8516 Q50.2188,159.8516 50.8438,160.1016 Q51.4688,160.3516 52,160.8516 Z " fill="#000000"/><text fill="#000000" font-family="sans-serif" font-size="12" font-style="italic" lengthAdjust="spacing" textLength="74" x="109" y="160.457">«application»</text><text fill="#000000" font-family="sans-serif" font-size="14" lengthAdjust="spacing" textLength="164" x="64" y="177.627">ShowNextExamsController</text><line style="stroke:#181818;stroke-width:0.5;" x1="36" x2="230" y1="185.7031" y2="185.7031"/><line style="stroke:#181818;stroke-width:0.5;" x1="36" x2="230" y1="193.7031" y2="193.7031"/><ellipse cx="46" cy="208.0078" fill="#84BE84" rx="3" ry="3" style="stroke:#038048;stroke-width:1.0;"/><text fill="#000000" font-family="sans-serif" font-size="14" lengthAdjust="spacing" textLength="157" x="55" y="212.2363">showNextExams(student)</text></g><!--MD5=[3cae3a9bcf287f09112e8906577b4c7e]
class ExamManagementService--><g id="elem_ExamManagementService"><rect codeLine="9" fill="#F1F1F1" height="76.3125" id="ExamManagementService" rx="2.5" ry="2.5" style="stroke:#181818;stroke-width:0.5;" width="195" x="35.5" y="279"/><ellipse cx="50.5" cy="300.3516" fill="#ADD1B2" rx="11" ry="11" style="stroke:#181818;stroke-width:1.0;"/><path d="M52.5,296.8516 Q52.7031,296.3516 52.9375,296.1016 Q53.1719,295.8516 53.4375,295.8516 Q53.9063,295.8516 54.2031,296.1328 Q54.5,296.4141 54.5,297.0703 L54.5,298.6328 Q54.5,299.2891 54.2188,299.5703 Q53.9375,299.8516 53.5,299.8516 Q53.1094,299.8516 52.8594,299.6797 Q52.6094,299.5078 52.5,299.0547 Q52.4531,298.7422 52.2813,298.5703 Q51.9688,298.2422 51.4063,298.0547 Q50.8438,297.8516 50.2813,297.8516 Q49.5781,297.8516 48.9844,298.1328 Q48.4063,298.4141 47.9531,299.0391 Q47.5,299.6641 47.5,300.5234 L47.5,301.4453 Q47.5,302.4766 48.3438,303.1641 Q49.1875,303.8516 50.6875,303.8516 Q51.5781,303.8516 52.2031,303.6484 Q52.5625,303.5391 52.9688,303.1797 Q53.2344,302.9766 53.375,302.9141 Q53.5156,302.8516 53.6875,302.8516 Q54.0156,302.8516 54.25,303.1172 Q54.5,303.3672 54.5,303.7266 Q54.5,304.0703 54.1563,304.4766 Q53.6563,305.0703 52.8594,305.3984 Q51.8125,305.8516 50.5313,305.8516 Q49.0313,305.8516 47.8281,305.2578 Q46.8594,304.7891 46.1719,303.7734 Q45.5,302.7578 45.5,301.5547 L45.5,300.4609 Q45.5,299.2109 46.0938,298.1172 Q46.7031,297.0234 47.75,296.4453 Q48.8125,295.8516 50,295.8516 Q50.7188,295.8516 51.3438,296.1016 Q51.9688,296.3516 52.5,296.8516 Z " fill="#000000"/><text fill="#000000" font-family="sans-serif" font-size="12" font-style="italic" lengthAdjust="spacing" textLength="74" x="109" y="296.457">«application»</text><text fill="#000000" font-family="sans-serif" font-size="14" lengthAdjust="spacing" textLength="163" x="64.5" y="313.627">ExamManagementService</text><line style="stroke:#181818;stroke-width:0.5;" x1="36.5" x2="229.5" y1="321.7031" y2="321.7031"/><line style="stroke:#181818;stroke-width:0.5;" x1="36.5" x2="229.5" y1="329.7031" y2="329.7031"/><ellipse cx="46.5" cy="344.0078" fill="#84BE84" rx="3" ry="3" style="stroke:#038048;stroke-width:1.0;"/><text fill="#000000" font-family="sans-serif" font-size="14" lengthAdjust="spacing" textLength="157" x="55.5" y="348.2363">showNextExams(student)</text></g><!--MD5=[4ec975f1641a34b3290014bf4027a644]
class Exam--><g id="elem_Exam"><rect codeLine="13" fill="#F1F1F1" height="58.7031" id="Exam" rx="2.5" ry="2.5" style="stroke:#181818;stroke-width:0.5;" width="84" x="7" y="423.5"/><ellipse cx="22" cy="444.8516" fill="#ADD1B2" rx="11" ry="11" style="stroke:#181818;stroke-width:1.0;"/><path d="M24,441.3516 Q24.2031,440.8516 24.4375,440.6016 Q24.6719,440.3516 24.9375,440.3516 Q25.4063,440.3516 25.7031,440.6328 Q26,440.9141 26,441.5703 L26,443.1328 Q26,443.7891 25.7188,444.0703 Q25.4375,444.3516 25,444.3516 Q24.6094,444.3516 24.3594,444.1797 Q24.1094,444.0078 24,443.5547 Q23.9531,443.2422 23.7813,443.0703 Q23.4688,442.7422 22.9063,442.5547 Q22.3438,442.3516 21.7813,442.3516 Q21.0781,442.3516 20.4844,442.6328 Q19.9063,442.9141 19.4531,443.5391 Q19,444.1641 19,445.0234 L19,445.9453 Q19,446.9766 19.8438,447.6641 Q20.6875,448.3516 22.1875,448.3516 Q23.0781,448.3516 23.7031,448.1484 Q24.0625,448.0391 24.4688,447.6797 Q24.7344,447.4766 24.875,447.4141 Q25.0156,447.3516 25.1875,447.3516 Q25.5156,447.3516 25.75,447.6172 Q26,447.8672 26,448.2266 Q26,448.5703 25.6563,448.9766 Q25.1563,449.5703 24.3594,449.8984 Q23.3125,450.3516 22.0313,450.3516 Q20.5313,450.3516 19.3281,449.7578 Q18.3594,449.2891 17.6719,448.2734 Q17,447.2578 17,446.0547 L17,444.9609 Q17,443.7109 17.5938,442.6172 Q18.2031,441.5234 19.25,440.9453 Q20.3125,440.3516 21.5,440.3516 Q22.2188,440.3516 22.8438,440.6016 Q23.4688,440.8516 24,441.3516 Z " fill="#000000"/><text fill="#000000" font-family="sans-serif" font-size="12" font-style="italic" lengthAdjust="spacing" textLength="56" x="34" y="440.957">«domain»</text><text fill="#000000" font-family="sans-serif" font-size="14" lengthAdjust="spacing" textLength="34" x="45" y="458.127">Exam</text><line style="stroke:#181818;stroke-width:0.5;" x1="8" x2="90" y1="466.2031" y2="466.2031"/><line style="stroke:#181818;stroke-width:0.5;" x1="8" x2="90" y1="474.2031" y2="474.2031"/></g><!--MD5=[3ee499f49186d42e50124f3efd1ade05]
class ExamRepository--><g id="elem_ExamRepository"><rect codeLine="17" fill="#F1F1F1" height="76.3125" id="ExamRepository" rx="2.5" ry="2.5" style="stroke:#181818;stroke-width:0.5;" width="183" x="126.5" y="415"/><ellipse cx="163.55" cy="436.3516" fill="#ADD1B2" rx="11" ry="11" style="stroke:#181818;stroke-width:1.0;"/><path d="M165.55,432.8516 Q165.7531,432.3516 165.9875,432.1016 Q166.2219,431.8516 166.4875,431.8516 Q166.9563,431.8516 167.2531,432.1328 Q167.55,432.4141 167.55,433.0703 L167.55,434.6328 Q167.55,435.2891 167.2688,435.5703 Q166.9875,435.8516 166.55,435.8516 Q166.1594,435.8516 165.9094,435.6797 Q165.6594,435.5078 165.55,435.0547 Q165.5031,434.7422 165.3313,434.5703 Q165.0188,434.2422 164.4563,434.0547 Q163.8938,433.8516 163.3313,433.8516 Q162.6281,433.8516 162.0344,434.1328 Q161.4563,434.4141 161.0031,435.0391 Q160.55,435.6641 160.55,436.5234 L160.55,437.4453 Q160.55,438.4766 161.3938,439.1641 Q162.2375,439.8516 163.7375,439.8516 Q164.6281,439.8516 165.2531,439.6484 Q165.6125,439.5391 166.0188,439.1797 Q166.2844,438.9766 166.425,438.9141 Q166.5656,438.8516 166.7375,438.8516 Q167.0656,438.8516 167.3,439.1172 Q167.55,439.3672 167.55,439.7266 Q167.55,440.0703 167.2063,440.4766 Q166.7063,441.0703 165.9094,441.3984 Q164.8625,441.8516 163.5813,441.8516 Q162.0813,441.8516 160.8781,441.2578 Q159.9094,440.7891 159.2219,439.7734 Q158.55,438.7578 158.55,437.5547 L158.55,436.4609 Q158.55,435.2109 159.1438,434.1172 Q159.7531,433.0234 160.8,432.4453 Q161.8625,431.8516 163.05,431.8516 Q163.7688,431.8516 164.3938,432.1016 Q165.0188,432.3516 165.55,432.8516 Z " fill="#000000"/><text fill="#000000" font-family="sans-serif" font-size="12" font-style="italic" lengthAdjust="spacing" textLength="68" x="199.45" y="432.457">«repository»</text><text fill="#000000" font-family="sans-serif" font-size="14" lengthAdjust="spacing" textLength="102" x="182.45" y="449.627">ExamRepository</text><line style="stroke:#181818;stroke-width:0.5;" x1="127.5" x2="308.5" y1="457.7031" y2="457.7031"/><line style="stroke:#181818;stroke-width:0.5;" x1="127.5" x2="308.5" y1="465.7031" y2="465.7031"/><ellipse cx="137.5" cy="480.0078" fill="#84BE84" rx="3" ry="3" style="stroke:#038048;stroke-width:1.0;"/><text fill="#000000" font-family="sans-serif" font-size="14" lengthAdjust="spacing" textLength="157" x="146.5" y="484.2363">showNextExams(student)</text></g><!--MD5=[546fe9df4f95257d6aba62015614fe04]
link ShowNextExamsUI to ShowNextExamsController--><g id="link_ShowNextExamsUI_ShowNextExamsController"><path codeLine="22" d="M133,83.33 C133,100.17 133,120.15 133,137.56 " fill="none" id="ShowNextExamsUI-to-ShowNextExamsController" style="stroke:#181818;stroke-width:1.0;"/><polygon fill="#181818" points="133,142.87,137,133.87,133,137.87,129,133.87,133,142.87" style="stroke:#181818;stroke-width:1.0;"/></g><!--MD5=[795b7418d53043c63d67e9ff387b7cc9]
link ShowNextExamsController to ExamManagementService--><g id="link_ShowNextExamsController_ExamManagementService"><path codeLine="23" d="M133,219.33 C133,236.17 133,256.15 133,273.56 " fill="none" id="ShowNextExamsController-to-ExamManagementService" style="stroke:#181818;stroke-width:1.0;"/><polygon fill="#181818" points="133,278.87,137,269.87,133,273.87,129,269.87,133,278.87" style="stroke:#181818;stroke-width:1.0;"/></g><!--MD5=[972ab1c8c46de84bfdee2eb5fd0a3f5b]
link ExamManagementService to Exam--><g id="link_ExamManagementService_Exam"><path codeLine="24" d="M109.6,355.33 C97.05,375.34 81.73,399.78 69.63,419.08 " fill="none" id="ExamManagementService-to-Exam" style="stroke:#181818;stroke-width:1.0;"/><polygon fill="#181818" points="66.95,423.37,75.117,417.8654,69.6038,419.1324,68.3368,413.6193,66.95,423.37" style="stroke:#181818;stroke-width:1.0;"/></g><!--MD5=[1f6975dab3ecdccc51c947f3e0fc5d9a]
link ExamManagementService to ExamRepository--><g id="link_ExamManagementService_ExamRepository"><path codeLine="25" d="M156.68,355.33 C167.55,372.46 180.47,392.84 191.65,410.46 " fill="none" id="ExamManagementService-to-ExamRepository" style="stroke:#181818;stroke-width:1.0;"/><polygon fill="#181818" points="194.45,414.87,193.0013,405.1283,191.7693,410.6493,186.2482,409.4174,194.45,414.87" style="stroke:#181818;stroke-width:1.0;"/></g><!--MD5=[1ef2192de646224d20e8dae679243a04]
@startuml
class ShowNextExamsUI <<presentation>>{
+doShow()
}

class ShowNextExamsController <<application>> {
+showNextExams(student)
}

class ExamManagementService <<application>> {
+showNextExams(student)
}

class Exam <<domain>> {

}

class ExamRepository <<repository>> {
+showNextExams(student)

}

ShowNextExamsUI - -> ShowNextExamsController
ShowNextExamsController - -> ExamManagementService
ExamManagementService - -> Exam
ExamManagementService - -> ExamRepository


@enduml

PlantUML version 1.2022.12(Sun Oct 23 19:12:26 BST 2022)
(GPL source distribution)
Java Runtime: OpenJDK Runtime Environment
JVM: OpenJDK 64-Bit Server VM
Default Encoding: Cp1252
Language: pt
Country: PT
--></g></svg>