<?xml version="1.0" encoding="UTF-8" standalone="no"?><svg xmlns="http://www.w3.org/2000/svg" xmlns:xlink="http://www.w3.org/1999/xlink" contentStyleType="text/css" height="501px" preserveAspectRatio="none" style="width:736px;height:501px;background:#FFFFFF;" version="1.1" viewBox="0 0 736 501" width="736px" zoomAndPan="magnify"><defs/><g><rect fill="#FFFFFF" height="317.5156" style="stroke:#181818;stroke-width:1.0;" width="10" x="27.5" y="92.6094"/><rect fill="#FFFFFF" height="286.1641" style="stroke:#181818;stroke-width:1.0;" width="10" x="131" y="114.9609"/><rect fill="#FFFFFF" height="182.1094" style="stroke:#181818;stroke-width:1.0;" width="10" x="308" y="188.6641"/><rect fill="#FFFFFF" height="121.4063" style="stroke:#181818;stroke-width:1.0;" width="10" x="492.5" y="219.0156"/><rect fill="#FFFFFF" height="30.3516" style="stroke:#181818;stroke-width:1.0;" width="10" x="674.5" y="279.7188"/><line style="stroke:#181818;stroke-width:0.5;stroke-dasharray:5.0,5.0;" x1="32" x2="32" y1="82.6094" y2="419.125"/><line style="stroke:#181818;stroke-width:0.5;stroke-dasharray:5.0,5.0;" x1="136" x2="136" y1="82.6094" y2="419.125"/><line style="stroke:#181818;stroke-width:0.5;stroke-dasharray:5.0,5.0;" x1="313" x2="313" y1="82.6094" y2="419.125"/><line style="stroke:#181818;stroke-width:0.5;stroke-dasharray:5.0,5.0;" x1="497" x2="497" y1="82.6094" y2="419.125"/><line style="stroke:#181818;stroke-width:0.5;stroke-dasharray:5.0,5.0;" x1="679.5" x2="679.5" y1="82.6094" y2="419.125"/><text fill="#000000" font-family="sans-serif" font-size="14" lengthAdjust="spacing" textLength="49" x="5" y="79.5332">Student</text><ellipse cx="32.5" cy="13.5" fill="#E2E2F0" rx="8" ry="8" style="stroke:#181818;stroke-width:0.5;"/><path d="M32.5,21.5 L32.5,48.5 M19.5,29.5 L45.5,29.5 M32.5,48.5 L19.5,63.5 M32.5,48.5 L45.5,63.5 " fill="none" style="stroke:#181818;stroke-width:0.5;"/><text fill="#000000" font-family="sans-serif" font-size="14" lengthAdjust="spacing" textLength="49" x="5" y="432.6582">Student</text><ellipse cx="32.5" cy="444.2344" fill="#E2E2F0" rx="8" ry="8" style="stroke:#181818;stroke-width:0.5;"/><path d="M32.5,452.2344 L32.5,479.2344 M19.5,460.2344 L45.5,460.2344 M32.5,479.2344 L19.5,494.2344 M32.5,479.2344 L45.5,494.2344 " fill="none" style="stroke:#181818;stroke-width:0.5;"/><rect fill="#E2E2F0" height="31.6094" rx="2.5" ry="2.5" style="stroke:#181818;stroke-width:0.5;" width="132" x="70" y="50"/><text fill="#000000" font-family="sans-serif" font-size="14" lengthAdjust="spacing" textLength="118" x="77" y="71.5332">:ShowNextExamsUI</text><rect fill="#E2E2F0" height="31.6094" rx="2.5" ry="2.5" style="stroke:#181818;stroke-width:0.5;" width="132" x="70" y="418.125"/><text fill="#000000" font-family="sans-serif" font-size="14" lengthAdjust="spacing" textLength="118" x="77" y="439.6582">:ShowNextExamsUI</text><rect fill="#E2E2F0" height="31.6094" rx="2.5" ry="2.5" style="stroke:#181818;stroke-width:0.5;" width="182" x="222" y="50"/><text fill="#000000" font-family="sans-serif" font-size="14" lengthAdjust="spacing" textLength="168" x="229" y="71.5332">:ShowNextExamsController</text><rect fill="#E2E2F0" height="31.6094" rx="2.5" ry="2.5" style="stroke:#181818;stroke-width:0.5;" width="182" x="222" y="418.125"/><text fill="#000000" font-family="sans-serif" font-size="14" lengthAdjust="spacing" textLength="168" x="229" y="439.6582">:ShowNextExamsController</text><rect fill="#E2E2F0" height="31.6094" rx="2.5" ry="2.5" style="stroke:#181818;stroke-width:0.5;" width="167" x="414" y="50"/><text fill="#000000" font-family="sans-serif" font-size="14" lengthAdjust="spacing" textLength="153" x="421" y="71.5332">:ShowNextExamsService</text><rect fill="#E2E2F0" height="31.6094" rx="2.5" ry="2.5" style="stroke:#181818;stroke-width:0.5;" width="167" x="414" y="418.125"/><text fill="#000000" font-family="sans-serif" font-size="14" lengthAdjust="spacing" textLength="153" x="421" y="439.6582">:ShowNextExamsService</text><text fill="#000000" font-family="sans-serif" font-size="14" lengthAdjust="spacing" textLength="106" x="623.5" y="79.5332">:ExamRepository</text><path d="M661.5,29 C661.5,19 679.5,19 679.5,19 C679.5,19 697.5,19 697.5,29 L697.5,55 C697.5,65 679.5,65 679.5,65 C679.5,65 661.5,65 661.5,55 L661.5,29 " fill="#E2E2F0" style="stroke:#181818;stroke-width:1.5;"/><path d="M661.5,29 C661.5,39 679.5,39 679.5,39 C679.5,39 697.5,39 697.5,29 " fill="none" style="stroke:#181818;stroke-width:1.5;"/><text fill="#000000" font-family="sans-serif" font-size="14" lengthAdjust="spacing" textLength="106" x="623.5" y="432.6582">:ExamRepository</text><path d="M661.5,445.7344 C661.5,435.7344 679.5,435.7344 679.5,435.7344 C679.5,435.7344 697.5,435.7344 697.5,445.7344 L697.5,471.7344 C697.5,481.7344 679.5,481.7344 679.5,481.7344 C679.5,481.7344 661.5,481.7344 661.5,471.7344 L661.5,445.7344 " fill="#E2E2F0" style="stroke:#181818;stroke-width:1.5;"/><path d="M661.5,445.7344 C661.5,455.7344 679.5,455.7344 679.5,455.7344 C679.5,455.7344 697.5,455.7344 697.5,445.7344 " fill="none" style="stroke:#181818;stroke-width:1.5;"/><rect fill="#FFFFFF" height="317.5156" style="stroke:#181818;stroke-width:1.0;" width="10" x="27.5" y="92.6094"/><rect fill="#FFFFFF" height="286.1641" style="stroke:#181818;stroke-width:1.0;" width="10" x="131" y="114.9609"/><rect fill="#FFFFFF" height="182.1094" style="stroke:#181818;stroke-width:1.0;" width="10" x="308" y="188.6641"/><rect fill="#FFFFFF" height="121.4063" style="stroke:#181818;stroke-width:1.0;" width="10" x="492.5" y="219.0156"/><rect fill="#FFFFFF" height="30.3516" style="stroke:#181818;stroke-width:1.0;" width="10" x="674.5" y="279.7188"/><polygon fill="#181818" points="119,110.9609,129,114.9609,119,118.9609,123,114.9609" style="stroke:#181818;stroke-width:1.0;"/><line style="stroke:#181818;stroke-width:1.0;" x1="37.5" x2="125" y1="114.9609" y2="114.9609"/><text fill="#000000" font-family="sans-serif" font-size="13" font-weight="bold" lengthAdjust="spacing" textLength="7" x="44.5" y="110.1045">1</text><text fill="#000000" font-family="sans-serif" font-size="13" lengthAdjust="spacing" textLength="38" x="55.5" y="110.1045">show()</text><line style="stroke:#181818;stroke-width:1.0;" x1="141" x2="183" y1="145.3125" y2="145.3125"/><line style="stroke:#181818;stroke-width:1.0;" x1="183" x2="183" y1="145.3125" y2="158.3125"/><line style="stroke:#181818;stroke-width:1.0;" x1="142" x2="183" y1="158.3125" y2="158.3125"/><polygon fill="#181818" points="152,154.3125,142,158.3125,152,162.3125,148,158.3125" style="stroke:#181818;stroke-width:1.0;"/><text fill="#000000" font-family="sans-serif" font-size="13" font-weight="bold" lengthAdjust="spacing" textLength="7" x="148" y="140.4561">2</text><text fill="#000000" font-family="sans-serif" font-size="13" lengthAdjust="spacing" textLength="54" x="159" y="140.4561">doShow()</text><polygon fill="#181818" points="296,184.6641,306,188.6641,296,192.6641,300,188.6641" style="stroke:#181818;stroke-width:1.0;"/><line style="stroke:#181818;stroke-width:1.0;" x1="141" x2="302" y1="188.6641" y2="188.6641"/><text fill="#000000" font-family="sans-serif" font-size="13" font-weight="bold" lengthAdjust="spacing" textLength="7" x="148" y="183.8076">3</text><text fill="#000000" font-family="sans-serif" font-size="13" lengthAdjust="spacing" textLength="137" x="159" y="183.8076">showNextExams(email)</text><polygon fill="#181818" points="480.5,215.0156,490.5,219.0156,480.5,223.0156,484.5,219.0156" style="stroke:#181818;stroke-width:1.0;"/><line style="stroke:#181818;stroke-width:1.0;" x1="318" x2="486.5" y1="219.0156" y2="219.0156"/><text fill="#000000" font-family="sans-serif" font-size="13" font-weight="bold" lengthAdjust="spacing" textLength="7" x="325" y="214.1592">4</text><text fill="#000000" font-family="sans-serif" font-size="13" lengthAdjust="spacing" textLength="44" x="336" y="214.1592">create()</text><polygon fill="#181818" points="480.5,245.3672,490.5,249.3672,480.5,253.3672,484.5,249.3672" style="stroke:#181818;stroke-width:1.0;"/><line style="stroke:#181818;stroke-width:1.0;" x1="318" x2="486.5" y1="249.3672" y2="249.3672"/><text fill="#000000" font-family="sans-serif" font-size="13" font-weight="bold" lengthAdjust="spacing" textLength="7" x="325" y="244.5107">5</text><text fill="#000000" font-family="sans-serif" font-size="13" lengthAdjust="spacing" textLength="137" x="336" y="244.5107">showNextExams(email)</text><polygon fill="#181818" points="662.5,275.7188,672.5,279.7188,662.5,283.7188,666.5,279.7188" style="stroke:#181818;stroke-width:1.0;"/><line style="stroke:#181818;stroke-width:1.0;" x1="502.5" x2="668.5" y1="279.7188" y2="279.7188"/><text fill="#000000" font-family="sans-serif" font-size="13" font-weight="bold" lengthAdjust="spacing" textLength="7" x="509.5" y="274.8623">6</text><text fill="#000000" font-family="sans-serif" font-size="13" lengthAdjust="spacing" textLength="44" x="520.5" y="274.8623">create()</text><polygon fill="#181818" points="667.5,306.0703,677.5,310.0703,667.5,314.0703,671.5,310.0703" style="stroke:#181818;stroke-width:1.0;"/><line style="stroke:#181818;stroke-width:1.0;" x1="502.5" x2="673.5" y1="310.0703" y2="310.0703"/><text fill="#000000" font-family="sans-serif" font-size="13" font-weight="bold" lengthAdjust="spacing" textLength="7" x="509.5" y="305.2139">7</text><text fill="#000000" font-family="sans-serif" font-size="13" lengthAdjust="spacing" textLength="137" x="520.5" y="305.2139">showNextExams(email)</text><polygon fill="#181818" points="329,336.4219,319,340.4219,329,344.4219,325,340.4219" style="stroke:#181818;stroke-width:1.0;"/><line style="stroke:#181818;stroke-width:1.0;stroke-dasharray:2.0,2.0;" x1="323" x2="496.5" y1="340.4219" y2="340.4219"/><text fill="#000000" font-family="sans-serif" font-size="13" font-weight="bold" lengthAdjust="spacing" textLength="7" x="335" y="335.5654">8</text><text fill="#000000" font-family="sans-serif" font-size="13" lengthAdjust="spacing" textLength="97" x="346" y="335.5654">return exams list</text><polygon fill="#181818" points="152,366.7734,142,370.7734,152,374.7734,148,370.7734" style="stroke:#181818;stroke-width:1.0;"/><line style="stroke:#181818;stroke-width:1.0;stroke-dasharray:2.0,2.0;" x1="146" x2="312" y1="370.7734" y2="370.7734"/><text fill="#000000" font-family="sans-serif" font-size="13" font-weight="bold" lengthAdjust="spacing" textLength="7" x="158" y="365.917">9</text><text fill="#000000" font-family="sans-serif" font-size="13" lengthAdjust="spacing" textLength="97" x="169" y="365.917">return exams list</text><polygon fill="#181818" points="48.5,397.125,38.5,401.125,48.5,405.125,44.5,401.125" style="stroke:#181818;stroke-width:1.0;"/><line style="stroke:#181818;stroke-width:1.0;stroke-dasharray:2.0,2.0;" x1="42.5" x2="135" y1="401.125" y2="401.125"/><text fill="#000000" font-family="sans-serif" font-size="13" font-weight="bold" lengthAdjust="spacing" textLength="14" x="54.5" y="396.2686">10</text><text fill="#000000" font-family="sans-serif" font-size="13" lengthAdjust="spacing" textLength="4" x="72.5" y="396.2686"> </text><!--MD5=[b5acc18fb56353e63555c4aa7525c323]
@startuml
autonumber
'hide footbox
actor "Student" as student

participant ":ShowNextExamsUI" as ui
participant ":ShowNextExamsController" as ctrl
participant ":ShowNextExamsService" as srvc

database ":ExamRepository" as repo

activate student

student -> ui: show()
activate ui

ui -> ui: doShow()



ui -> ctrl : showNextExams(email)
activate ctrl

ctrl -> srvc: create()
activate srvc

ctrl -> srvc: showNextExams(email)

srvc -> repo: create()
activate repo
srvc -> repo: showNextExams(email)
deactivate repo

srvc - -> ctrl: return exams list
deactivate srvc

ctrl - -> ui: return exams list
deactivate ctrl


ui - -> student: 
deactivate ui




@enduml

@startuml
autonumber
actor "Student" as student

participant ":ShowNextExamsUI" as ui
participant ":ShowNextExamsController" as ctrl
participant ":ShowNextExamsService" as srvc

database ":ExamRepository" as repo

activate student

student -> ui: show()
activate ui

ui -> ui: doShow()



ui -> ctrl : showNextExams(email)
activate ctrl

ctrl -> srvc: create()
activate srvc

ctrl -> srvc: showNextExams(email)

srvc -> repo: create()
activate repo
srvc -> repo: showNextExams(email)
deactivate repo

srvc - -> ctrl: return exams list
deactivate srvc

ctrl - -> ui: return exams list
deactivate ctrl


ui - -> student: 
deactivate ui




@enduml

PlantUML version 1.2022.12(Sun Oct 23 19:12:26 BST 2022)
(GPL source distribution)
Java Runtime: OpenJDK Runtime Environment
JVM: OpenJDK 64-Bit Server VM
Default Encoding: Cp1252
Language: pt
Country: PT
--></g></svg>