<?xml version="1.0" encoding="us-ascii" standalone="no"?><svg xmlns="http://www.w3.org/2000/svg" xmlns:xlink="http://www.w3.org/1999/xlink" contentStyleType="text/css" height="794px" preserveAspectRatio="none" style="width:895px;height:794px;background:#FFFFFF;" version="1.1" viewBox="0 0 895 794" width="895px" zoomAndPan="magnify"><defs/><g><!--class ScheduleClassUI--><g id="elem_ScheduleClassUI"><rect codeLine="1" fill="#F1F1F1" height="101.9688" id="ScheduleClassUI" rx="2.5" ry="2.5" style="stroke:#181818;stroke-width:0.5;" width="138" x="314.5" y="7"/><ellipse cx="329.5" cy="26.5234" fill="#ADD1B2" rx="11" ry="11" style="stroke:#181818;stroke-width:1.0;"/><path d="M331.5,23.0234 Q331.7031,22.5234 331.9375,22.2734 Q332.1719,22.0234 332.4375,22.0234 Q332.9063,22.0234 333.2031,22.3047 Q333.5,22.5859 333.5,23.2422 L333.5,24.8047 Q333.5,25.4609 333.2188,25.7422 Q332.9375,26.0234 332.5,26.0234 Q332.1094,26.0234 331.8594,25.8516 Q331.6094,25.6797 331.5,25.2266 Q331.4531,24.9141 331.2813,24.7422 Q330.9688,24.4141 330.4063,24.2266 Q329.8438,24.0234 329.2813,24.0234 Q328.5781,24.0234 327.9844,24.3047 Q327.4063,24.5859 326.9531,25.2109 Q326.5,25.8359 326.5,26.6953 L326.5,27.6172 Q326.5,28.6484 327.3438,29.3359 Q328.1875,30.0234 329.6875,30.0234 Q330.5781,30.0234 331.2031,29.8203 Q331.5625,29.7109 331.9688,29.3516 Q332.2344,29.1484 332.375,29.0859 Q332.5156,29.0234 332.6875,29.0234 Q333.0156,29.0234 333.25,29.2891 Q333.5,29.5391 333.5,29.8984 Q333.5,30.2422 333.1563,30.6484 Q332.6563,31.2422 331.8594,31.5703 Q330.8125,32.0234 329.5313,32.0234 Q328.0313,32.0234 326.8281,31.4297 Q325.8594,30.9609 325.1719,29.9453 Q324.5,28.9297 324.5,27.7266 L324.5,26.6328 Q324.5,25.3828 325.0938,24.2891 Q325.7031,23.1953 326.75,22.6172 Q327.8125,22.0234 329,22.0234 Q329.7188,22.0234 330.3438,22.2734 Q330.9688,22.5234 331.5,23.0234 Z " fill="#000000"/><text fill="#000000" font-family="sans-serif" font-size="12" font-style="italic" lengthAdjust="spacing" textLength="82" x="355.5" y="22.8633">&#171;presentation&#187;</text><text fill="#000000" font-family="sans-serif" font-size="14" lengthAdjust="spacing" textLength="106" x="343.5" y="38.0801">ScheduleClassUI</text><line style="stroke:#181818;stroke-width:0.5;" x1="315.5" x2="451.5" y1="46.0469" y2="46.0469"/><line style="stroke:#181818;stroke-width:0.5;" x1="315.5" x2="451.5" y1="54.0469" y2="54.0469"/><ellipse cx="325.5" cy="67.3672" fill="#84BE84" rx="3" ry="3" style="stroke:#038048;stroke-width:1.0;"/><text fill="#000000" font-family="sans-serif" font-size="14" lengthAdjust="spacing" textLength="60" x="334.5" y="70.7207">doShow()</text><ellipse cx="325.5" cy="83.0078" fill="#84BE84" rx="3" ry="3" style="stroke:#038048;stroke-width:1.0;"/><text fill="#000000" font-family="sans-serif" font-size="14" lengthAdjust="spacing" textLength="98" x="334.5" y="86.3613">myClassMenu()</text><ellipse cx="325.5" cy="98.6484" fill="#84BE84" rx="3" ry="3" style="stroke:#038048;stroke-width:1.0;"/><text fill="#000000" font-family="sans-serif" font-size="14" lengthAdjust="spacing" textLength="74" x="334.5" y="102.002">showDays()</text></g><!--class ScheduleClassController--><g id="elem_ScheduleClassController"><rect codeLine="6" fill="#F1F1F1" height="86.3281" id="ScheduleClassController" rx="2.5" ry="2.5" style="stroke:#181818;stroke-width:0.5;" width="188" x="289.5" y="169"/><ellipse cx="304.5" cy="188.5234" fill="#ADD1B2" rx="11" ry="11" style="stroke:#181818;stroke-width:1.0;"/><path d="M306.5,185.0234 Q306.7031,184.5234 306.9375,184.2734 Q307.1719,184.0234 307.4375,184.0234 Q307.9063,184.0234 308.2031,184.3047 Q308.5,184.5859 308.5,185.2422 L308.5,186.8047 Q308.5,187.4609 308.2188,187.7422 Q307.9375,188.0234 307.5,188.0234 Q307.1094,188.0234 306.8594,187.8516 Q306.6094,187.6797 306.5,187.2266 Q306.4531,186.9141 306.2813,186.7422 Q305.9688,186.4141 305.4063,186.2266 Q304.8438,186.0234 304.2813,186.0234 Q303.5781,186.0234 302.9844,186.3047 Q302.4063,186.5859 301.9531,187.2109 Q301.5,187.8359 301.5,188.6953 L301.5,189.6172 Q301.5,190.6484 302.3438,191.3359 Q303.1875,192.0234 304.6875,192.0234 Q305.5781,192.0234 306.2031,191.8203 Q306.5625,191.7109 306.9688,191.3516 Q307.2344,191.1484 307.375,191.0859 Q307.5156,191.0234 307.6875,191.0234 Q308.0156,191.0234 308.25,191.2891 Q308.5,191.5391 308.5,191.8984 Q308.5,192.2422 308.1563,192.6484 Q307.6563,193.2422 306.8594,193.5703 Q305.8125,194.0234 304.5313,194.0234 Q303.0313,194.0234 301.8281,193.4297 Q300.8594,192.9609 300.1719,191.9453 Q299.5,190.9297 299.5,189.7266 L299.5,188.6328 Q299.5,187.3828 300.0938,186.2891 Q300.7031,185.1953 301.75,184.6172 Q302.8125,184.0234 304,184.0234 Q304.7188,184.0234 305.3438,184.2734 Q305.9688,184.5234 306.5,185.0234 Z " fill="#000000"/><text fill="#000000" font-family="sans-serif" font-size="12" font-style="italic" lengthAdjust="spacing" textLength="74" x="359.5" y="184.8633">&#171;application&#187;</text><text fill="#000000" font-family="sans-serif" font-size="14" lengthAdjust="spacing" textLength="156" x="318.5" y="200.0801">ScheduleClassController</text><line style="stroke:#181818;stroke-width:0.5;" x1="290.5" x2="476.5" y1="208.0469" y2="208.0469"/><line style="stroke:#181818;stroke-width:0.5;" x1="290.5" x2="476.5" y1="216.0469" y2="216.0469"/><ellipse cx="300.5" cy="229.3672" fill="#84BE84" rx="3" ry="3" style="stroke:#038048;stroke-width:1.0;"/><text fill="#000000" font-family="sans-serif" font-size="14" lengthAdjust="spacing" textLength="102" x="309.5" y="232.7207">scheduleClass()</text><ellipse cx="300.5" cy="245.0078" fill="#84BE84" rx="3" ry="3" style="stroke:#038048;stroke-width:1.0;"/><text fill="#000000" font-family="sans-serif" font-size="14" lengthAdjust="spacing" textLength="110" x="309.5" y="248.3613">showMyClasses()</text></g><!--class Class--><g id="elem_Class"><rect codeLine="10" fill="#F1F1F1" height="133.25" id="Class" rx="2.5" ry="2.5" style="stroke:#181818;stroke-width:0.5;" width="234" x="582.5" y="654"/><ellipse cx="669.25" cy="673.5234" fill="#ADD1B2" rx="11" ry="11" style="stroke:#181818;stroke-width:1.0;"/><path d="M671.25,670.0234 Q671.4531,669.5234 671.6875,669.2734 Q671.9219,669.0234 672.1875,669.0234 Q672.6563,669.0234 672.9531,669.3047 Q673.25,669.5859 673.25,670.2422 L673.25,671.8047 Q673.25,672.4609 672.9688,672.7422 Q672.6875,673.0234 672.25,673.0234 Q671.8594,673.0234 671.6094,672.8516 Q671.3594,672.6797 671.25,672.2266 Q671.2031,671.9141 671.0313,671.7422 Q670.7188,671.4141 670.1563,671.2266 Q669.5938,671.0234 669.0313,671.0234 Q668.3281,671.0234 667.7344,671.3047 Q667.1563,671.5859 666.7031,672.2109 Q666.25,672.8359 666.25,673.6953 L666.25,674.6172 Q666.25,675.6484 667.0938,676.3359 Q667.9375,677.0234 669.4375,677.0234 Q670.3281,677.0234 670.9531,676.8203 Q671.3125,676.7109 671.7188,676.3516 Q671.9844,676.1484 672.125,676.0859 Q672.2656,676.0234 672.4375,676.0234 Q672.7656,676.0234 673,676.2891 Q673.25,676.5391 673.25,676.8984 Q673.25,677.2422 672.9063,677.6484 Q672.4063,678.2422 671.6094,678.5703 Q670.5625,679.0234 669.2813,679.0234 Q667.7813,679.0234 666.5781,678.4297 Q665.6094,677.9609 664.9219,676.9453 Q664.25,675.9297 664.25,674.7266 L664.25,673.6328 Q664.25,672.3828 664.8438,671.2891 Q665.4531,670.1953 666.5,669.6172 Q667.5625,669.0234 668.75,669.0234 Q669.4688,669.0234 670.0938,669.2734 Q670.7188,669.5234 671.25,670.0234 Z " fill="#000000"/><text fill="#000000" font-family="sans-serif" font-size="12" font-style="italic" lengthAdjust="spacing" textLength="56" x="687.75" y="669.8633">&#171;domain&#187;</text><text fill="#000000" font-family="sans-serif" font-size="14" lengthAdjust="spacing" textLength="35" x="698.25" y="685.0801">Class</text><line style="stroke:#181818;stroke-width:0.5;" x1="583.5" x2="815.5" y1="693.0469" y2="693.0469"/><ellipse cx="593.5" cy="706.3672" fill="none" rx="3" ry="3" style="stroke:#038048;stroke-width:1.0;"/><text fill="#000000" font-family="sans-serif" font-size="14" lengthAdjust="spacing" textLength="51" x="602.5" y="709.7207">id: Long</text><ellipse cx="593.5" cy="722.0078" fill="none" rx="3" ry="3" style="stroke:#038048;stroke-width:1.0;"/><text fill="#000000" font-family="sans-serif" font-size="14" lengthAdjust="spacing" textLength="57" x="602.5" y="725.3613">title: Title</text><ellipse cx="593.5" cy="737.6484" fill="none" rx="3" ry="3" style="stroke:#038048;stroke-width:1.0;"/><text fill="#000000" font-family="sans-serif" font-size="14" lengthAdjust="spacing" textLength="114" x="602.5" y="741.002">duration: Duration</text><ellipse cx="593.5" cy="753.2891" fill="none" rx="3" ry="3" style="stroke:#038048;stroke-width:1.0;"/><text fill="#000000" font-family="sans-serif" font-size="14" lengthAdjust="spacing" textLength="208" x="602.5" y="756.6426">dayOfTheWeek: DayOfTheWeek</text><ellipse cx="593.5" cy="768.9297" fill="none" rx="3" ry="3" style="stroke:#038048;stroke-width:1.0;"/><text fill="#000000" font-family="sans-serif" font-size="14" lengthAdjust="spacing" textLength="109" x="602.5" y="772.2832">teacher: Teacher</text><line style="stroke:#181818;stroke-width:0.5;" x1="583.5" x2="815.5" y1="779.25" y2="779.25"/></g><!--class ClassRepository--><g id="elem_ClassRepository"><rect codeLine="17" fill="#F1F1F1" height="70.6875" id="ClassRepository" rx="2.5" ry="2.5" style="stroke:#181818;stroke-width:0.5;" width="249" x="7" y="515.5"/><ellipse cx="75.75" cy="535.0234" fill="#ADD1B2" rx="11" ry="11" style="stroke:#181818;stroke-width:1.0;"/><path d="M77.75,531.5234 Q77.9531,531.0234 78.1875,530.7734 Q78.4219,530.5234 78.6875,530.5234 Q79.1563,530.5234 79.4531,530.8047 Q79.75,531.0859 79.75,531.7422 L79.75,533.3047 Q79.75,533.9609 79.4688,534.2422 Q79.1875,534.5234 78.75,534.5234 Q78.3594,534.5234 78.1094,534.3516 Q77.8594,534.1797 77.75,533.7266 Q77.7031,533.4141 77.5313,533.2422 Q77.2188,532.9141 76.6563,532.7266 Q76.0938,532.5234 75.5313,532.5234 Q74.8281,532.5234 74.2344,532.8047 Q73.6563,533.0859 73.2031,533.7109 Q72.75,534.3359 72.75,535.1953 L72.75,536.1172 Q72.75,537.1484 73.5938,537.8359 Q74.4375,538.5234 75.9375,538.5234 Q76.8281,538.5234 77.4531,538.3203 Q77.8125,538.2109 78.2188,537.8516 Q78.4844,537.6484 78.625,537.5859 Q78.7656,537.5234 78.9375,537.5234 Q79.2656,537.5234 79.5,537.7891 Q79.75,538.0391 79.75,538.3984 Q79.75,538.7422 79.4063,539.1484 Q78.9063,539.7422 78.1094,540.0703 Q77.0625,540.5234 75.7813,540.5234 Q74.2813,540.5234 73.0781,539.9297 Q72.1094,539.4609 71.4219,538.4453 Q70.75,537.4297 70.75,536.2266 L70.75,535.1328 Q70.75,533.8828 71.3438,532.7891 Q71.9531,531.6953 73,531.1172 Q74.0625,530.5234 75.25,530.5234 Q75.9688,530.5234 76.5938,530.7734 Q77.2188,531.0234 77.75,531.5234 Z " fill="#000000"/><text fill="#000000" font-family="sans-serif" font-size="12" font-style="italic" lengthAdjust="spacing" textLength="68" x="113.75" y="531.3633">&#171;repository&#187;</text><text fill="#000000" font-family="sans-serif" font-size="14" lengthAdjust="spacing" textLength="103" x="96.25" y="546.5801">ClassRepository</text><line style="stroke:#181818;stroke-width:0.5;" x1="8" x2="255" y1="554.5469" y2="554.5469"/><line style="stroke:#181818;stroke-width:0.5;" x1="8" x2="255" y1="562.5469" y2="562.5469"/><ellipse cx="18" cy="575.8672" fill="#84BE84" rx="3" ry="3" style="stroke:#038048;stroke-width:1.0;"/><text fill="#000000" font-family="sans-serif" font-size="14" lengthAdjust="spacing" textLength="223" x="27" y="579.2207">findAllClassesByAcronym(acronym)</text></g><!--class TeacherRepository--><g id="elem_TeacherRepository"><rect codeLine="21" fill="#F1F1F1" height="70.6875" id="TeacherRepository" rx="2.5" ry="2.5" style="stroke:#181818;stroke-width:0.5;" width="184" x="291.5" y="515.5"/><ellipse cx="320.45" cy="535.0234" fill="#ADD1B2" rx="11" ry="11" style="stroke:#181818;stroke-width:1.0;"/><path d="M322.45,531.5234 Q322.6531,531.0234 322.8875,530.7734 Q323.1219,530.5234 323.3875,530.5234 Q323.8563,530.5234 324.1531,530.8047 Q324.45,531.0859 324.45,531.7422 L324.45,533.3047 Q324.45,533.9609 324.1688,534.2422 Q323.8875,534.5234 323.45,534.5234 Q323.0594,534.5234 322.8094,534.3516 Q322.5594,534.1797 322.45,533.7266 Q322.4031,533.4141 322.2313,533.2422 Q321.9188,532.9141 321.3563,532.7266 Q320.7938,532.5234 320.2313,532.5234 Q319.5281,532.5234 318.9344,532.8047 Q318.3563,533.0859 317.9031,533.7109 Q317.45,534.3359 317.45,535.1953 L317.45,536.1172 Q317.45,537.1484 318.2938,537.8359 Q319.1375,538.5234 320.6375,538.5234 Q321.5281,538.5234 322.1531,538.3203 Q322.5125,538.2109 322.9188,537.8516 Q323.1844,537.6484 323.325,537.5859 Q323.4656,537.5234 323.6375,537.5234 Q323.9656,537.5234 324.2,537.7891 Q324.45,538.0391 324.45,538.3984 Q324.45,538.7422 324.1063,539.1484 Q323.6063,539.7422 322.8094,540.0703 Q321.7625,540.5234 320.4813,540.5234 Q318.9813,540.5234 317.7781,539.9297 Q316.8094,539.4609 316.1219,538.4453 Q315.45,537.4297 315.45,536.2266 L315.45,535.1328 Q315.45,533.8828 316.0438,532.7891 Q316.6531,531.6953 317.7,531.1172 Q318.7625,530.5234 319.95,530.5234 Q320.6688,530.5234 321.2938,530.7734 Q321.9188,531.0234 322.45,531.5234 Z " fill="#000000"/><text fill="#000000" font-family="sans-serif" font-size="12" font-style="italic" lengthAdjust="spacing" textLength="68" x="364.05" y="531.3633">&#171;repository&#187;</text><text fill="#000000" font-family="sans-serif" font-size="14" lengthAdjust="spacing" textLength="121" x="337.55" y="546.5801">TeacherRepository</text><line style="stroke:#181818;stroke-width:0.5;" x1="292.5" x2="474.5" y1="554.5469" y2="554.5469"/><line style="stroke:#181818;stroke-width:0.5;" x1="292.5" x2="474.5" y1="562.5469" y2="562.5469"/><ellipse cx="302.5" cy="575.8672" fill="#84BE84" rx="3" ry="3" style="stroke:#038048;stroke-width:1.0;"/><text fill="#000000" font-family="sans-serif" font-size="14" lengthAdjust="spacing" textLength="158" x="311.5" y="579.2207">findByAcronym(acronym)</text></g><!--class ClassBuilder--><g id="elem_ClassBuilder"><rect codeLine="25" fill="#F1F1F1" height="86.3281" id="ClassBuilder" rx="2.5" ry="2.5" style="stroke:#181818;stroke-width:0.5;" width="378" x="510.5" y="508"/><ellipse cx="655.75" cy="527.5234" fill="#ADD1B2" rx="11" ry="11" style="stroke:#181818;stroke-width:1.0;"/><path d="M657.75,524.0234 Q657.9531,523.5234 658.1875,523.2734 Q658.4219,523.0234 658.6875,523.0234 Q659.1563,523.0234 659.4531,523.3047 Q659.75,523.5859 659.75,524.2422 L659.75,525.8047 Q659.75,526.4609 659.4688,526.7422 Q659.1875,527.0234 658.75,527.0234 Q658.3594,527.0234 658.1094,526.8516 Q657.8594,526.6797 657.75,526.2266 Q657.7031,525.9141 657.5313,525.7422 Q657.2188,525.4141 656.6563,525.2266 Q656.0938,525.0234 655.5313,525.0234 Q654.8281,525.0234 654.2344,525.3047 Q653.6563,525.5859 653.2031,526.2109 Q652.75,526.8359 652.75,527.6953 L652.75,528.6172 Q652.75,529.6484 653.5938,530.3359 Q654.4375,531.0234 655.9375,531.0234 Q656.8281,531.0234 657.4531,530.8203 Q657.8125,530.7109 658.2188,530.3516 Q658.4844,530.1484 658.625,530.0859 Q658.7656,530.0234 658.9375,530.0234 Q659.2656,530.0234 659.5,530.2891 Q659.75,530.5391 659.75,530.8984 Q659.75,531.2422 659.4063,531.6484 Q658.9063,532.2422 658.1094,532.5703 Q657.0625,533.0234 655.7813,533.0234 Q654.2813,533.0234 653.0781,532.4297 Q652.1094,531.9609 651.4219,530.9453 Q650.75,529.9297 650.75,528.7266 L650.75,527.6328 Q650.75,526.3828 651.3438,525.2891 Q651.9531,524.1953 653,523.6172 Q654.0625,523.0234 655.25,523.0234 Q655.9688,523.0234 656.5938,523.2734 Q657.2188,523.5234 657.75,524.0234 Z " fill="#000000"/><text fill="#000000" font-family="sans-serif" font-size="12" font-style="italic" lengthAdjust="spacing" textLength="53" x="689.25" y="523.8633">&#171;builder&#187;</text><text fill="#000000" font-family="sans-serif" font-size="14" lengthAdjust="spacing" textLength="79" x="676.25" y="539.0801">ClassBuilder</text><line style="stroke:#181818;stroke-width:0.5;" x1="511.5" x2="887.5" y1="547.0469" y2="547.0469"/><line style="stroke:#181818;stroke-width:0.5;" x1="511.5" x2="887.5" y1="555.0469" y2="555.0469"/><ellipse cx="521.5" cy="568.3672" fill="#84BE84" rx="3" ry="3" style="stroke:#038048;stroke-width:1.0;"/><text fill="#000000" font-family="sans-serif" font-size="14" lengthAdjust="spacing" textLength="352" x="530.5" y="571.7207">with(title,initialTime,finishTime,dayOfTheWeek,acronym)</text><ellipse cx="521.5" cy="584.0078" fill="#84BE84" rx="3" ry="3" style="stroke:#038048;stroke-width:1.0;"/><text fill="#000000" font-family="sans-serif" font-size="14" lengthAdjust="spacing" textLength="40" x="530.5" y="587.3613">build()</text></g><!--class ScheduleClassService--><g id="elem_ScheduleClassService"><rect codeLine="30" fill="#F1F1F1" height="133.25" id="ScheduleClassService" rx="2.5" ry="2.5" style="stroke:#181818;stroke-width:0.5;" width="446" x="160.5" y="315"/><ellipse cx="308.75" cy="334.5234" fill="#ADD1B2" rx="11" ry="11" style="stroke:#181818;stroke-width:1.0;"/><path d="M310.75,331.0234 Q310.9531,330.5234 311.1875,330.2734 Q311.4219,330.0234 311.6875,330.0234 Q312.1563,330.0234 312.4531,330.3047 Q312.75,330.5859 312.75,331.2422 L312.75,332.8047 Q312.75,333.4609 312.4688,333.7422 Q312.1875,334.0234 311.75,334.0234 Q311.3594,334.0234 311.1094,333.8516 Q310.8594,333.6797 310.75,333.2266 Q310.7031,332.9141 310.5313,332.7422 Q310.2188,332.4141 309.6563,332.2266 Q309.0938,332.0234 308.5313,332.0234 Q307.8281,332.0234 307.2344,332.3047 Q306.6563,332.5859 306.2031,333.2109 Q305.75,333.8359 305.75,334.6953 L305.75,335.6172 Q305.75,336.6484 306.5938,337.3359 Q307.4375,338.0234 308.9375,338.0234 Q309.8281,338.0234 310.4531,337.8203 Q310.8125,337.7109 311.2188,337.3516 Q311.4844,337.1484 311.625,337.0859 Q311.7656,337.0234 311.9375,337.0234 Q312.2656,337.0234 312.5,337.2891 Q312.75,337.5391 312.75,337.8984 Q312.75,338.2422 312.4063,338.6484 Q311.9063,339.2422 311.1094,339.5703 Q310.0625,340.0234 308.7813,340.0234 Q307.2813,340.0234 306.0781,339.4297 Q305.1094,338.9609 304.4219,337.9453 Q303.75,336.9297 303.75,335.7266 L303.75,334.6328 Q303.75,333.3828 304.3438,332.2891 Q304.9531,331.1953 306,330.6172 Q307.0625,330.0234 308.25,330.0234 Q308.9688,330.0234 309.5938,330.2734 Q310.2188,330.5234 310.75,331.0234 Z " fill="#000000"/><text fill="#000000" font-family="sans-serif" font-size="12" font-style="italic" lengthAdjust="spacing" textLength="74" x="362.75" y="330.8633">&#171;application&#187;</text><text fill="#000000" font-family="sans-serif" font-size="14" lengthAdjust="spacing" textLength="141" x="329.25" y="346.0801">ScheduleClassService</text><line style="stroke:#181818;stroke-width:0.5;" x1="161.5" x2="605.5" y1="354.0469" y2="354.0469"/><line style="stroke:#181818;stroke-width:0.5;" x1="161.5" x2="605.5" y1="362.0469" y2="362.0469"/><ellipse cx="171.5" cy="375.3672" fill="#84BE84" rx="3" ry="3" style="stroke:#038048;stroke-width:1.0;"/><text fill="#000000" font-family="sans-serif" font-size="14" lengthAdjust="spacing" textLength="327" x="180.5" y="378.7207">schedule(title,initialTime,finishTime,dayOfTheWeek)</text><ellipse cx="171.5" cy="391.0078" fill="#84BE84" rx="3" ry="3" style="stroke:#038048;stroke-width:1.0;"/><text fill="#000000" font-family="sans-serif" font-size="14" lengthAdjust="spacing" textLength="217" x="180.5" y="394.3613">verifyIfTeacherHasClass(acronym)</text><text fill="#000000" font-family="sans-serif" font-size="14" lengthAdjust="spacing" textLength="235" x="180.5" y="410.002">isBetween(time,initialTime,finishTime)</text><text fill="#000000" font-family="sans-serif" font-size="14" lengthAdjust="spacing" textLength="148" x="180.5" y="425.6426">areAllTrue(booleanSet)</text><text fill="#000000" font-family="sans-serif" font-size="14" lengthAdjust="spacing" textLength="420" x="180.5" y="441.2832">scheduleClass(acronym,title,initialTime,finishTime,dayOfTheWeek)</text></g><!--link ScheduleClassUI to ScheduleClassController--><g id="link_ScheduleClassUI_ScheduleClassController"><path codeLine="38" d="M383.5,109.19 C383.5,126.75 383.5,146.38 383.5,163.69 " fill="none" id="ScheduleClassUI-to-ScheduleClassController" style="stroke:#181818;stroke-width:1.0;"/><polygon fill="#181818" points="383.5,168.99,387.5,159.99,383.5,163.99,379.5,159.99,383.5,168.99" style="stroke:#181818;stroke-width:1.0;"/></g><!--link ScheduleClassController to ScheduleClassService--><g id="link_ScheduleClassController_ScheduleClassService"><path codeLine="39" d="M383.5,255.27 C383.5,271.74 383.5,291.09 383.5,309.58 " fill="none" id="ScheduleClassController-to-ScheduleClassService" style="stroke:#181818;stroke-width:1.0;"/><polygon fill="#181818" points="383.5,314.77,387.5,305.77,383.5,309.77,379.5,305.77,383.5,314.77" style="stroke:#181818;stroke-width:1.0;"/></g><!--link ScheduleClassService to TeacherRepository--><g id="link_ScheduleClassService_TeacherRepository"><path codeLine="40" d="M383.5,448.22 C383.5,469.16 383.5,491.69 383.5,510.21 " fill="none" id="ScheduleClassService-to-TeacherRepository" style="stroke:#181818;stroke-width:1.0;"/><polygon fill="#181818" points="383.5,515.32,387.5,506.32,383.5,510.32,379.5,506.32,383.5,515.32" style="stroke:#181818;stroke-width:1.0;"/></g><!--link ScheduleClassService to ClassRepository--><g id="link_ScheduleClassService_ClassRepository"><path codeLine="41" d="M284.63,448.22 C251.9,469.97 216.62,493.42 188.18,512.33 " fill="none" id="ScheduleClassService-to-ClassRepository" style="stroke:#181818;stroke-width:1.0;"/><polygon fill="#181818" points="183.67,515.32,193.3773,513.6559,187.8303,512.5465,188.9397,506.9995,183.67,515.32" style="stroke:#181818;stroke-width:1.0;"/></g><!--link ScheduleClassService to ClassBuilder--><g id="link_ScheduleClassService_ClassBuilder"><path codeLine="42" d="M507.48,448.22 C543.72,467.43 582.47,487.97 615.6,505.53 " fill="none" id="ScheduleClassService-to-ClassBuilder" style="stroke:#181818;stroke-width:1.0;"/><polygon fill="#181818" points="620.03,507.87,613.9555,500.1175,615.6135,505.526,610.2051,507.1839,620.03,507.87" style="stroke:#181818;stroke-width:1.0;"/></g><!--link ClassBuilder to Class--><g id="link_ClassBuilder_Class"><path codeLine="43" d="M699.5,594.27 C699.5,610.74 699.5,630.09 699.5,648.58 " fill="none" id="ClassBuilder-to-Class" style="stroke:#181818;stroke-width:1.0;"/><polygon fill="#181818" points="699.5,653.77,703.5,644.77,699.5,648.77,695.5,644.77,699.5,653.77" style="stroke:#181818;stroke-width:1.0;"/></g><!--SRC=[bPFDReCm3CVlF0L7AjWBL5MbVXnMQTMamRHp2cPO2mbAGYiqxTrdaWpH3zQDIsmd-Tcn_-ISQHscUGL5os7JUw-xSB5e56WGXXcKOhdy3E92ffKyHRCWhZjxR0-YxLrDuIthDDbVGNwDsqXXbEGS565Pqt3CFJKah1uV_S7jNGOOCss428Mi6RhB8Nqn5lFmIOftvnaq7EPXrYykKhJAffk7Ms_vEEkUowo2Du0FsXjvdWICIbF4SiPv8I_GI8r6gevAKeFZtbIYA5QS-pUikrMkfEZgYBcrVvDdUVPTscyCcsRT8YziXm_EiZCxeQaYsv841HfaFCCQ4YAYhgmvxa8oi6CBYKP9pYQQWZfY3fVZ74tpxqafsH4KbjskzCruPDg9OIW7zHhC2K0GjfwYpWAcWBgUgHQYWvGSc4Z1p89pXNbeyey2gGcN_yV3mt9AvC6K-EdEhIu6DrlR9xWIn_JH2qtUEUZ54fmfPzZz1W00]--></g></svg>