<?xml version="1.0" encoding="us-ascii" standalone="no"?><svg xmlns="http://www.w3.org/2000/svg" xmlns:xlink="http://www.w3.org/1999/xlink" contentStyleType="text/css" height="1123.2px" preserveAspectRatio="none" style="width:1122px;height:1123px;background:#FFFFFF;" version="1.1" viewBox="0 0 1122 1123" width="1122px" zoomAndPan="magnify"><defs/><g><rect fill="#FFFFFF" height="925.8516" style="stroke:#181818;stroke-width:0.6;" width="6" x="216.3" y="136.1391"/><rect fill="#FFFFFF" height="147.0844" style="stroke:#181818;stroke-width:0.6;" width="6" x="219.3" y="158.0531"/><rect fill="#FFFFFF" height="20.1141" style="stroke:#181818;stroke-width:0.6;" width="6" x="219.3" y="344.1656"/><rect fill="#FFFFFF" height="17.1141" style="stroke:#181818;stroke-width:0.6;" width="6" x="435.3" y="178.1672"/><rect fill="#FFFFFF" height="697.7109" style="stroke:#181818;stroke-width:0.6;" width="6" x="435.3" y="364.2797"/><rect fill="#FFFFFF" height="866.7094" style="stroke:#181818;stroke-width:0.6;" width="6" x="634.5" y="195.2813"/><rect fill="#FFFFFF" height="20.1141" style="stroke:#181818;stroke-width:0.6;" width="6" x="637.5" y="217.1953"/><rect fill="#FFFFFF" height="16.8" style="stroke:#181818;stroke-width:0.6;" width="6" x="637.5" y="403.3078"/><rect fill="#FFFFFF" height="16.8" style="stroke:#181818;stroke-width:0.6;" width="6" x="637.5" y="446.2219"/><rect fill="#FFFFFF" height="16.8" style="stroke:#181818;stroke-width:0.6;" width="6" x="637.5" y="542.8781"/><rect fill="#FFFFFF" height="16.8" style="stroke:#181818;stroke-width:0.6;" width="6" x="637.5" y="604.1062"/><rect fill="#FFFFFF" height="16.8" style="stroke:#181818;stroke-width:0.6;" width="6" x="637.5" y="841.9922"/><rect fill="#FFFFFF" height="8.4" style="stroke:#181818;stroke-width:0.6;" width="6" x="879.9" y="237.3094"/><rect fill="#FFFFFF" height="8.4" style="stroke:#181818;stroke-width:0.6;" width="6" x="879.9" y="711.5625"/><rect fill="#FFFFFF" height="8.4" style="stroke:#181818;stroke-width:0.6;" width="6" x="879.9" y="949.4484"/><rect fill="#FFFFFF" height="8.4" style="stroke:#181818;stroke-width:0.6;" width="6" x="956.7" y="262.8234"/><rect fill="#FFFFFF" height="8.4" style="stroke:#181818;stroke-width:0.6;" width="6" x="956.7" y="512.5641"/><rect fill="#FFFFFF" height="18" style="stroke:#181818;stroke-width:0.6;" width="6" x="956.7" y="789.3047"/><rect fill="#FFFFFF" height="34.8" style="stroke:#181818;stroke-width:0.6;" width="6" x="956.7" y="1027.1906"/><rect fill="#FFFFFF" height="18" style="stroke:#181818;stroke-width:0.6;" width="6" x="1023.3" y="642.2203"/><rect fill="#FFFFFF" height="17.1141" style="stroke:#181818;stroke-width:0.6;" width="6" x="1023.3" y="677.3344"/><rect fill="#FFFFFF" height="18" style="stroke:#181818;stroke-width:0.6;" width="6" x="1023.3" y="737.0766"/><rect fill="#FFFFFF" height="18" style="stroke:#181818;stroke-width:0.6;" width="6" x="1023.3" y="880.1062"/><rect fill="#FFFFFF" height="17.1141" style="stroke:#181818;stroke-width:0.6;" width="6" x="1023.3" y="915.2203"/><rect fill="#FFFFFF" height="18" style="stroke:#181818;stroke-width:0.6;" width="6" x="1023.3" y="974.9625"/><rect fill="none" height="555.7688" style="stroke:#000000;stroke-width:0.8999999999999999;" width="538.8" x="579" y="476.2219"/><rect fill="none" height="78.3422" style="stroke:#000000;stroke-width:0.8999999999999999;" width="413.4" x="585" y="490.3359"/><rect fill="none" height="235.0266" style="stroke:#000000;stroke-width:0.8999999999999999;" width="526.8" x="585" y="577.0781"/><line style="stroke:#181818;stroke-width:0.3;stroke-dasharray:5.0,5.0;" x1="20.4" x2="20.4" y1="49.3688" y2="1067.3906"/><line style="stroke:#181818;stroke-width:0.3;stroke-dasharray:5.0,5.0;" x1="219.3" x2="219.3" y1="49.3688" y2="1067.3906"/><line style="stroke:#181818;stroke-width:0.3;stroke-dasharray:5.0,5.0;" x1="438.3" x2="438.3" y1="49.3688" y2="1067.3906"/><line style="stroke:#181818;stroke-width:0.3;stroke-dasharray:5.0,5.0;" x1="637.2" x2="637.2" y1="49.3688" y2="1067.3906"/><line style="stroke:#181818;stroke-width:0.3;stroke-dasharray:5.0,5.0;" x1="882.6" x2="882.6" y1="49.3688" y2="1067.3906"/><line style="stroke:#181818;stroke-width:0.3;stroke-dasharray:5.0,5.0;" x1="959.4" x2="959.4" y1="49.3688" y2="1067.3906"/><line style="stroke:#181818;stroke-width:0.3;stroke-dasharray:5.0,5.0;" x1="1026" x2="1026" y1="49.3688" y2="1067.3906"/><line style="stroke:#181818;stroke-width:0.3;stroke-dasharray:5.0,5.0;" x1="1083" x2="1083" y1="49.3688" y2="1067.3906"/><text fill="#000000" font-family="sans-serif" font-size="8.4" lengthAdjust="spacing" textLength="31.8" x="3" y="47.5887">Teacher</text><ellipse cx="20.7" cy="9.0844" fill="#E2E2F0" rx="4.8" ry="4.8" style="stroke:#181818;stroke-width:0.3;"/><path d="M20.7,13.8844 L20.7,30.0844 M12.9,18.6844 L28.5,18.6844 M20.7,30.0844 L12.9,39.0844 M20.7,30.0844 L28.5,39.0844 " fill="none" style="stroke:#181818;stroke-width:0.3;"/><text fill="#000000" font-family="sans-serif" font-size="8.4" lengthAdjust="spacing" textLength="31.8" x="3" y="1074.3949">Teacher</text><ellipse cx="20.7" cy="1081.275" fill="#E2E2F0" rx="4.8" ry="4.8" style="stroke:#181818;stroke-width:0.3;"/><path d="M20.7,1086.075 L20.7,1102.275 M12.9,1090.875 L28.5,1090.875 M20.7,1102.275 L12.9,1111.275 M20.7,1102.275 L28.5,1111.275 " fill="none" style="stroke:#181818;stroke-width:0.3;"/><rect fill="#E2E2F0" height="27.1688" rx="1.5" ry="1.5" style="stroke:#181818;stroke-width:0.3;" width="72" x="183.3" y="21.6"/><text fill="#000000" font-family="sans-serif" font-size="8.4" font-style="italic" lengthAdjust="spacing" textLength="57" x="190.8" y="33.4043">&#171;presentation&#187;</text><text fill="#000000" font-family="sans-serif" font-size="8.4" lengthAdjust="spacing" textLength="63.6" x="187.5" y="42.7887">ScheduleClassUi</text><rect fill="#E2E2F0" height="27.1688" rx="1.5" ry="1.5" style="stroke:#181818;stroke-width:0.3;" width="72" x="183.3" y="1066.7906"/><text fill="#000000" font-family="sans-serif" font-size="8.4" font-style="italic" lengthAdjust="spacing" textLength="57" x="190.8" y="1078.5949">&#171;presentation&#187;</text><text fill="#000000" font-family="sans-serif" font-size="8.4" lengthAdjust="spacing" textLength="63.6" x="187.5" y="1087.9793">ScheduleClassUi</text><rect fill="#E2E2F0" height="27.1688" rx="1.5" ry="1.5" style="stroke:#181818;stroke-width:0.3;" width="102" x="387.3" y="21.6"/><text fill="#000000" font-family="sans-serif" font-size="8.4" font-style="italic" lengthAdjust="spacing" textLength="50.4" x="413.1" y="33.4043">&#171;application&#187;</text><text fill="#000000" font-family="sans-serif" font-size="8.4" lengthAdjust="spacing" textLength="93.6" x="391.5" y="42.7887">ScheduleClassController</text><rect fill="#E2E2F0" height="27.1688" rx="1.5" ry="1.5" style="stroke:#181818;stroke-width:0.3;" width="102" x="387.3" y="1066.7906"/><text fill="#000000" font-family="sans-serif" font-size="8.4" font-style="italic" lengthAdjust="spacing" textLength="50.4" x="413.1" y="1078.5949">&#171;application&#187;</text><text fill="#000000" font-family="sans-serif" font-size="8.4" lengthAdjust="spacing" textLength="93.6" x="391.5" y="1087.9793">ScheduleClassController</text><rect fill="#E2E2F0" height="27.1688" rx="1.5" ry="1.5" style="stroke:#181818;stroke-width:0.3;" width="93" x="591" y="21.6"/><text fill="#000000" font-family="sans-serif" font-size="8.4" font-style="italic" lengthAdjust="spacing" textLength="50.4" x="612.3" y="33.4043">&#171;application&#187;</text><text fill="#000000" font-family="sans-serif" font-size="8.4" lengthAdjust="spacing" textLength="84.6" x="595.2" y="42.7887">ScheduleClassService</text><rect fill="#E2E2F0" height="27.1688" rx="1.5" ry="1.5" style="stroke:#181818;stroke-width:0.3;" width="93" x="591" y="1066.7906"/><text fill="#000000" font-family="sans-serif" font-size="8.4" font-style="italic" lengthAdjust="spacing" textLength="50.4" x="612.3" y="1078.5949">&#171;application&#187;</text><text fill="#000000" font-family="sans-serif" font-size="8.4" lengthAdjust="spacing" textLength="84.6" x="595.2" y="1087.9793">ScheduleClassService</text><text fill="#000000" font-family="sans-serif" font-size="8.4" font-style="italic" lengthAdjust="spacing" textLength="47.4" x="857.4" y="38.2043">&#171;repository&#187;</text><text fill="#000000" font-family="sans-serif" font-size="8.4" lengthAdjust="spacing" textLength="72.6" x="844.8" y="47.5887">TeacherRepository</text><path d="M872.1,9 C872.1,3 882.9,3 882.9,3 C882.9,3 893.7,3 893.7,9 L893.7,24.6 C893.7,30.6 882.9,30.6 882.9,30.6 C882.9,30.6 872.1,30.6 872.1,24.6 L872.1,9 " fill="#E2E2F0" style="stroke:#181818;stroke-width:0.8999999999999999;"/><path d="M872.1,9 C872.1,15 882.9,15 882.9,15 C882.9,15 893.7,15 893.7,9 " fill="none" style="stroke:#181818;stroke-width:0.8999999999999999;"/><text fill="#000000" font-family="sans-serif" font-size="8.4" font-style="italic" lengthAdjust="spacing" textLength="47.4" x="857.4" y="1074.3949">&#171;repository&#187;</text><text fill="#000000" font-family="sans-serif" font-size="8.4" lengthAdjust="spacing" textLength="72.6" x="844.8" y="1083.7793">TeacherRepository</text><path d="M872.1,1091.5594 C872.1,1085.5594 882.9,1085.5594 882.9,1085.5594 C882.9,1085.5594 893.7,1085.5594 893.7,1091.5594 L893.7,1107.1594 C893.7,1113.1594 882.9,1113.1594 882.9,1113.1594 C882.9,1113.1594 872.1,1113.1594 872.1,1107.1594 L872.1,1091.5594 " fill="#E2E2F0" style="stroke:#181818;stroke-width:0.8999999999999999;"/><path d="M872.1,1091.5594 C872.1,1097.5594 882.9,1097.5594 882.9,1097.5594 C882.9,1097.5594 893.7,1097.5594 893.7,1091.5594 " fill="none" style="stroke:#181818;stroke-width:0.8999999999999999;"/><text fill="#000000" font-family="sans-serif" font-size="8.4" font-style="italic" lengthAdjust="spacing" textLength="47.4" x="934.2" y="38.2043">&#171;repository&#187;</text><text fill="#000000" font-family="sans-serif" font-size="8.4" lengthAdjust="spacing" textLength="61.8" x="927" y="47.5887">ClassRepository</text><path d="M948.9,9 C948.9,3 959.7,3 959.7,3 C959.7,3 970.5,3 970.5,9 L970.5,24.6 C970.5,30.6 959.7,30.6 959.7,30.6 C959.7,30.6 948.9,30.6 948.9,24.6 L948.9,9 " fill="#E2E2F0" style="stroke:#181818;stroke-width:0.8999999999999999;"/><path d="M948.9,9 C948.9,15 959.7,15 959.7,15 C959.7,15 970.5,15 970.5,9 " fill="none" style="stroke:#181818;stroke-width:0.8999999999999999;"/><text fill="#000000" font-family="sans-serif" font-size="8.4" font-style="italic" lengthAdjust="spacing" textLength="47.4" x="934.2" y="1074.3949">&#171;repository&#187;</text><text fill="#000000" font-family="sans-serif" font-size="8.4" lengthAdjust="spacing" textLength="61.8" x="927" y="1083.7793">ClassRepository</text><path d="M948.9,1091.5594 C948.9,1085.5594 959.7,1085.5594 959.7,1085.5594 C959.7,1085.5594 970.5,1085.5594 970.5,1091.5594 L970.5,1107.1594 C970.5,1113.1594 959.7,1113.1594 959.7,1113.1594 C959.7,1113.1594 948.9,1113.1594 948.9,1107.1594 L948.9,1091.5594 " fill="#E2E2F0" style="stroke:#181818;stroke-width:0.8999999999999999;"/><path d="M948.9,1091.5594 C948.9,1097.5594 959.7,1097.5594 959.7,1097.5594 C959.7,1097.5594 970.5,1097.5594 970.5,1091.5594 " fill="none" style="stroke:#181818;stroke-width:0.8999999999999999;"/><rect fill="#E2E2F0" height="27.1688" rx="1.5" ry="1.5" style="stroke:#181818;stroke-width:0.3;" width="55.8" x="998.4" y="21.6"/><text fill="#000000" font-family="sans-serif" font-size="8.4" font-style="italic" lengthAdjust="spacing" textLength="35.4" x="1008.6" y="33.4043">&#171;builder&#187;</text><text fill="#000000" font-family="sans-serif" font-size="8.4" lengthAdjust="spacing" textLength="47.4" x="1002.6" y="42.7887">ClassBuilder</text><rect fill="#E2E2F0" height="27.1688" rx="1.5" ry="1.5" style="stroke:#181818;stroke-width:0.3;" width="55.8" x="998.4" y="1066.7906"/><text fill="#000000" font-family="sans-serif" font-size="8.4" font-style="italic" lengthAdjust="spacing" textLength="35.4" x="1008.6" y="1078.5949">&#171;builder&#187;</text><text fill="#000000" font-family="sans-serif" font-size="8.4" lengthAdjust="spacing" textLength="47.4" x="1002.6" y="1087.9793">ClassBuilder</text><rect fill="#E2E2F0" height="27.1688" rx="1.5" ry="1.5" style="stroke:#181818;stroke-width:0.3;" width="45.6" x="1060.2" y="21.6"/><text fill="#000000" font-family="sans-serif" font-size="8.4" font-style="italic" lengthAdjust="spacing" textLength="37.2" x="1064.4" y="33.4043">&#171;domain&#187;</text><text fill="#000000" font-family="sans-serif" font-size="8.4" lengthAdjust="spacing" textLength="21" x="1072.5" y="42.7887">Class</text><rect fill="#E2E2F0" height="27.1688" rx="1.5" ry="1.5" style="stroke:#181818;stroke-width:0.3;" width="45.6" x="1060.2" y="1066.7906"/><text fill="#000000" font-family="sans-serif" font-size="8.4" font-style="italic" lengthAdjust="spacing" textLength="37.2" x="1064.4" y="1078.5949">&#171;domain&#187;</text><text fill="#000000" font-family="sans-serif" font-size="8.4" lengthAdjust="spacing" textLength="21" x="1072.5" y="1087.9793">Class</text><rect fill="#FFFFFF" height="925.8516" style="stroke:#181818;stroke-width:0.6;" width="6" x="216.3" y="136.1391"/><rect fill="#FFFFFF" height="147.0844" style="stroke:#181818;stroke-width:0.6;" width="6" x="219.3" y="158.0531"/><rect fill="#FFFFFF" height="20.1141" style="stroke:#181818;stroke-width:0.6;" width="6" x="219.3" y="344.1656"/><rect fill="#FFFFFF" height="17.1141" style="stroke:#181818;stroke-width:0.6;" width="6" x="435.3" y="178.1672"/><rect fill="#FFFFFF" height="697.7109" style="stroke:#181818;stroke-width:0.6;" width="6" x="435.3" y="364.2797"/><rect fill="#FFFFFF" height="866.7094" style="stroke:#181818;stroke-width:0.6;" width="6" x="634.5" y="195.2813"/><rect fill="#FFFFFF" height="20.1141" style="stroke:#181818;stroke-width:0.6;" width="6" x="637.5" y="217.1953"/><rect fill="#FFFFFF" height="16.8" style="stroke:#181818;stroke-width:0.6;" width="6" x="637.5" y="403.3078"/><rect fill="#FFFFFF" height="16.8" style="stroke:#181818;stroke-width:0.6;" width="6" x="637.5" y="446.2219"/><rect fill="#FFFFFF" height="16.8" style="stroke:#181818;stroke-width:0.6;" width="6" x="637.5" y="542.8781"/><rect fill="#FFFFFF" height="16.8" style="stroke:#181818;stroke-width:0.6;" width="6" x="637.5" y="604.1062"/><rect fill="#FFFFFF" height="16.8" style="stroke:#181818;stroke-width:0.6;" width="6" x="637.5" y="841.9922"/><rect fill="#FFFFFF" height="8.4" style="stroke:#181818;stroke-width:0.6;" width="6" x="879.9" y="237.3094"/><rect fill="#FFFFFF" height="8.4" style="stroke:#181818;stroke-width:0.6;" width="6" x="879.9" y="711.5625"/><rect fill="#FFFFFF" height="8.4" style="stroke:#181818;stroke-width:0.6;" width="6" x="879.9" y="949.4484"/><rect fill="#FFFFFF" height="8.4" style="stroke:#181818;stroke-width:0.6;" width="6" x="956.7" y="262.8234"/><rect fill="#FFFFFF" height="8.4" style="stroke:#181818;stroke-width:0.6;" width="6" x="956.7" y="512.5641"/><rect fill="#FFFFFF" height="18" style="stroke:#181818;stroke-width:0.6;" width="6" x="956.7" y="789.3047"/><rect fill="#FFFFFF" height="34.8" style="stroke:#181818;stroke-width:0.6;" width="6" x="956.7" y="1027.1906"/><rect fill="#FFFFFF" height="18" style="stroke:#181818;stroke-width:0.6;" width="6" x="1023.3" y="642.2203"/><rect fill="#FFFFFF" height="17.1141" style="stroke:#181818;stroke-width:0.6;" width="6" x="1023.3" y="677.3344"/><rect fill="#FFFFFF" height="18" style="stroke:#181818;stroke-width:0.6;" width="6" x="1023.3" y="737.0766"/><rect fill="#FFFFFF" height="18" style="stroke:#181818;stroke-width:0.6;" width="6" x="1023.3" y="880.1062"/><rect fill="#FFFFFF" height="17.1141" style="stroke:#181818;stroke-width:0.6;" width="6" x="1023.3" y="915.2203"/><rect fill="#FFFFFF" height="18" style="stroke:#181818;stroke-width:0.6;" width="6" x="1023.3" y="974.9625"/><polygon fill="#181818" points="431.1,65.2828,437.1,67.6828,431.1,70.0828,433.5,67.6828" style="stroke:#181818;stroke-width:0.6;"/><line style="stroke:#181818;stroke-width:0.6;" x1="219.3" x2="434.7" y1="67.6828" y2="67.6828"/><text fill="#000000" font-family="sans-serif" font-size="7.8" lengthAdjust="spacing" textLength="21.6" x="223.5" y="64.8299">create</text><polygon fill="#181818" points="630.3,82.3969,636.3,84.7969,630.3,87.1969,632.7,84.7969" style="stroke:#181818;stroke-width:0.6;"/><line style="stroke:#181818;stroke-width:0.6;" x1="438.3" x2="633.9" y1="84.7969" y2="84.7969"/><text fill="#000000" font-family="sans-serif" font-size="7.8" lengthAdjust="spacing" textLength="21.6" x="442.5" y="81.9439">create</text><polygon fill="#181818" points="952.5,99.5109,958.5,101.9109,952.5,104.3109,954.9,101.9109" style="stroke:#181818;stroke-width:0.6;"/><line style="stroke:#181818;stroke-width:0.6;" x1="637.5" x2="956.1" y1="101.9109" y2="101.9109"/><text fill="#000000" font-family="sans-serif" font-size="7.8" lengthAdjust="spacing" textLength="21.6" x="641.7" y="99.058">create</text><polygon fill="#181818" points="875.7,116.625,881.7,119.025,875.7,121.425,878.1,119.025" style="stroke:#181818;stroke-width:0.6;"/><line style="stroke:#181818;stroke-width:0.6;" x1="637.5" x2="879.3" y1="119.025" y2="119.025"/><text fill="#000000" font-family="sans-serif" font-size="7.8" lengthAdjust="spacing" textLength="21.6" x="641.7" y="116.1721">create</text><polygon fill="#181818" points="209.1,133.7391,215.1,136.1391,209.1,138.5391,211.5,136.1391" style="stroke:#181818;stroke-width:0.6;"/><line style="stroke:#181818;stroke-width:0.6;stroke-dasharray:2.0,2.0;" x1="20.7" x2="212.7" y1="136.1391" y2="136.1391"/><text fill="#000000" font-family="sans-serif" font-size="7.8" lengthAdjust="spacing" textLength="32.4" x="24.9" y="133.2861">doShow()</text><line style="stroke:#181818;stroke-width:0.6;" x1="222.3" x2="250.5" y1="150.2531" y2="150.2531"/><line style="stroke:#181818;stroke-width:0.6;" x1="250.5" x2="250.5" y1="150.2531" y2="158.0531"/><line style="stroke:#181818;stroke-width:0.6;" x1="225.9" x2="250.5" y1="158.0531" y2="158.0531"/><polygon fill="#181818" points="231.9,155.6531,225.9,158.0531,231.9,160.4531,229.5,158.0531" style="stroke:#181818;stroke-width:0.6;"/><text fill="#000000" font-family="sans-serif" font-size="7.8" lengthAdjust="spacing" textLength="54.6" x="229.5" y="147.4002">myClassMenu()</text><polygon fill="#181818" points="428.1,175.7672,434.1,178.1672,428.1,180.5672,430.5,178.1672" style="stroke:#181818;stroke-width:0.6;"/><line style="stroke:#181818;stroke-width:0.6;" x1="225.3" x2="431.7" y1="178.1672" y2="178.1672"/><text fill="#000000" font-family="sans-serif" font-size="7.8" lengthAdjust="spacing" textLength="61.8" x="229.5" y="175.3143">showMyClasses()</text><polygon fill="#181818" points="627.3,192.8813,633.3,195.2813,627.3,197.6813,629.7,195.2813" style="stroke:#181818;stroke-width:0.6;"/><line style="stroke:#181818;stroke-width:0.6;" x1="438.3" x2="630.9" y1="195.2813" y2="195.2813"/><text fill="#000000" font-family="sans-serif" font-size="7.8" lengthAdjust="spacing" textLength="61.8" x="442.5" y="192.4283">showMyClasses()</text><line style="stroke:#181818;stroke-width:0.6;" x1="640.5" x2="668.7" y1="209.3953" y2="209.3953"/><line style="stroke:#181818;stroke-width:0.6;" x1="668.7" x2="668.7" y1="209.3953" y2="217.1953"/><line style="stroke:#181818;stroke-width:0.6;" x1="644.1" x2="668.7" y1="217.1953" y2="217.1953"/><polygon fill="#181818" points="650.1,214.7953,644.1,217.1953,650.1,219.5953,647.7,217.1953" style="stroke:#181818;stroke-width:0.6;"/><text fill="#000000" font-family="sans-serif" font-size="7.8" lengthAdjust="spacing" textLength="75.6" x="647.7" y="206.5424">findTeacherAcronym()</text><polygon fill="#181818" points="872.7,234.9094,878.7,237.3094,872.7,239.7094,875.1,237.3094" style="stroke:#181818;stroke-width:0.6;"/><line style="stroke:#181818;stroke-width:0.6;" x1="640.5" x2="876.3" y1="237.3094" y2="237.3094"/><text fill="#000000" font-family="sans-serif" font-size="7.8" lengthAdjust="spacing" textLength="73.8" x="644.7" y="234.4564">findTeacherByEmail()</text><polygon fill="#181818" points="647.1,243.3094,641.1,245.7094,647.1,248.1094,644.7,245.7094" style="stroke:#181818;stroke-width:0.6;"/><line style="stroke:#181818;stroke-width:0.6;" x1="643.5" x2="882.3" y1="245.7094" y2="245.7094"/><polygon fill="#181818" points="949.5,260.4234,955.5,262.8234,949.5,265.2234,951.9,262.8234" style="stroke:#181818;stroke-width:0.6;"/><line style="stroke:#181818;stroke-width:0.6;" x1="640.5" x2="953.1" y1="262.8234" y2="262.8234"/><text fill="#000000" font-family="sans-serif" font-size="7.8" lengthAdjust="spacing" textLength="90" x="644.7" y="259.9705">findAllClassesByAcronym</text><polygon fill="#181818" points="647.1,268.8234,641.1,271.2234,647.1,273.6234,644.7,271.2234" style="stroke:#181818;stroke-width:0.6;"/><line style="stroke:#181818;stroke-width:0.6;" x1="643.5" x2="959.1" y1="271.2234" y2="271.2234"/><polygon fill="#181818" points="444.9,277.2234,438.9,279.6234,444.9,282.0234,442.5,279.6234" style="stroke:#181818;stroke-width:0.6;"/><line style="stroke:#181818;stroke-width:0.6;" x1="441.3" x2="633.9" y1="279.6234" y2="279.6234"/><polygon fill="#181818" points="231.9,285.6234,225.9,288.0234,231.9,290.4234,229.5,288.0234" style="stroke:#181818;stroke-width:0.6;"/><line style="stroke:#181818;stroke-width:0.6;" x1="228.3" x2="437.7" y1="288.0234" y2="288.0234"/><polygon fill="#181818" points="27.3,302.7375,21.3,305.1375,27.3,307.5375,24.9,305.1375" style="stroke:#181818;stroke-width:0.6;"/><line style="stroke:#181818;stroke-width:0.6;stroke-dasharray:2.0,2.0;" x1="23.7" x2="215.7" y1="305.1375" y2="305.1375"/><text fill="#000000" font-family="sans-serif" font-size="7.8" lengthAdjust="spacing" textLength="66" x="30.9" y="302.2846">ask teacher for info</text><polygon fill="#181818" points="209.1,319.8516,215.1,322.2516,209.1,324.6516,211.5,322.2516" style="stroke:#181818;stroke-width:0.6;"/><line style="stroke:#181818;stroke-width:0.6;stroke-dasharray:2.0,2.0;" x1="20.7" x2="212.7" y1="322.2516" y2="322.2516"/><text fill="#000000" font-family="sans-serif" font-size="7.8" lengthAdjust="spacing" textLength="181.2" x="24.9" y="319.3986">input info (dayOfTheWeek,title,initialTime,finishTime)</text><line style="stroke:#181818;stroke-width:0.6;" x1="222.3" x2="250.5" y1="336.3656" y2="336.3656"/><line style="stroke:#181818;stroke-width:0.6;" x1="250.5" x2="250.5" y1="336.3656" y2="344.1656"/><line style="stroke:#181818;stroke-width:0.6;" x1="225.9" x2="250.5" y1="344.1656" y2="344.1656"/><polygon fill="#181818" points="231.9,341.7656,225.9,344.1656,231.9,346.5656,229.5,344.1656" style="stroke:#181818;stroke-width:0.6;"/><text fill="#000000" font-family="sans-serif" font-size="7.8" lengthAdjust="spacing" textLength="40.8" x="229.5" y="333.5127">showDays()</text><polygon fill="#181818" points="428.1,361.8797,434.1,364.2797,428.1,366.6797,430.5,364.2797" style="stroke:#181818;stroke-width:0.6;"/><line style="stroke:#181818;stroke-width:0.6;" x1="222.3" x2="431.7" y1="364.2797" y2="364.2797"/><text fill="#000000" font-family="sans-serif" font-size="7.8" lengthAdjust="spacing" textLength="198.6" x="226.5" y="361.4268">scheduleClass(title,initialTime,finishTime,dayOfTheWeek)</text><polygon fill="#181818" points="627.3,378.9938,633.3,381.3938,627.3,383.7938,629.7,381.3938" style="stroke:#181818;stroke-width:0.6;"/><line style="stroke:#181818;stroke-width:0.6;" x1="441.3" x2="630.9" y1="381.3938" y2="381.3938"/><text fill="#000000" font-family="sans-serif" font-size="7.8" lengthAdjust="spacing" textLength="178.8" x="445.5" y="378.5408">schedule(title,initialTime,finishTime,dayOfTheWeek)</text><line style="stroke:#181818;stroke-width:0.6;" x1="643.5" x2="668.7" y1="398.5078" y2="398.5078"/><line style="stroke:#181818;stroke-width:0.6;" x1="668.7" x2="668.7" y1="398.5078" y2="406.3078"/><line style="stroke:#181818;stroke-width:0.6;" x1="644.1" x2="668.7" y1="406.3078" y2="406.3078"/><polygon fill="#181818" points="650.1,403.9078,644.1,406.3078,650.1,408.7078,647.7,406.3078" style="stroke:#181818;stroke-width:0.6;"/><text fill="#000000" font-family="sans-serif" font-size="7.8" lengthAdjust="spacing" textLength="75.6" x="647.7" y="395.6549">findTeacherAcronym()</text><line style="stroke:#181818;stroke-width:0.6;" x1="643.5" x2="668.7" y1="441.4219" y2="441.4219"/><line style="stroke:#181818;stroke-width:0.6;" x1="668.7" x2="668.7" y1="441.4219" y2="449.2219"/><line style="stroke:#181818;stroke-width:0.6;" x1="644.1" x2="668.7" y1="449.2219" y2="449.2219"/><polygon fill="#181818" points="650.1,446.8219,644.1,449.2219,650.1,451.6219,647.7,449.2219" style="stroke:#181818;stroke-width:0.6;"/><text fill="#000000" font-family="sans-serif" font-size="7.8" lengthAdjust="spacing" textLength="117" x="647.7" y="438.5689">verifyIfTeacherHasClass(acronym)</text><path d="M579,476.2219 L615.6,476.2219 L615.6,480.1359 L609.6,486.1359 L579,486.1359 L579,476.2219 " fill="#EEEEEE" style="stroke:#000000;stroke-width:0.8999999999999999;"/><rect fill="none" height="555.7688" style="stroke:#000000;stroke-width:0.8999999999999999;" width="538.8" x="579" y="476.2219"/><text fill="#000000" font-family="sans-serif" font-size="7.8" font-weight="bold" lengthAdjust="spacing" textLength="9.6" x="588" y="483.883">alt</text><text fill="#000000" font-family="sans-serif" font-size="6.6" font-weight="bold" lengthAdjust="spacing" textLength="108" x="624.6" y="483.3967">[teacher has classes scheduled]</text><path d="M585,490.3359 L628.8,490.3359 L628.8,494.25 L622.8,500.25 L585,500.25 L585,490.3359 " fill="#EEEEEE" style="stroke:#000000;stroke-width:0.8999999999999999;"/><rect fill="none" height="78.3422" style="stroke:#000000;stroke-width:0.8999999999999999;" width="413.4" x="585" y="490.3359"/><text fill="#000000" font-family="sans-serif" font-size="7.8" font-weight="bold" lengthAdjust="spacing" textLength="16.8" x="594" y="497.9971">loop</text><polygon fill="#181818" points="949.5,510.1641,955.5,512.5641,949.5,514.9641,951.9,512.5641" style="stroke:#181818;stroke-width:0.6;"/><line style="stroke:#181818;stroke-width:0.6;" x1="640.5" x2="953.1" y1="512.5641" y2="512.5641"/><text fill="#000000" font-family="sans-serif" font-size="7.8" lengthAdjust="spacing" textLength="124.8" x="644.7" y="509.7111">findAllClassesByAcronym(acronym)</text><polygon fill="#181818" points="647.1,518.5641,641.1,520.9641,647.1,523.3641,644.7,520.9641" style="stroke:#181818;stroke-width:0.6;"/><line style="stroke:#181818;stroke-width:0.6;" x1="643.5" x2="959.1" y1="520.9641" y2="520.9641"/><line style="stroke:#181818;stroke-width:0.6;" x1="643.5" x2="668.7" y1="538.0781" y2="538.0781"/><line style="stroke:#181818;stroke-width:0.6;" x1="668.7" x2="668.7" y1="538.0781" y2="545.8781"/><line style="stroke:#181818;stroke-width:0.6;" x1="644.1" x2="668.7" y1="545.8781" y2="545.8781"/><polygon fill="#181818" points="650.1,543.4781,644.1,545.8781,650.1,548.2781,647.7,545.8781" style="stroke:#181818;stroke-width:0.6;"/><text fill="#000000" font-family="sans-serif" font-size="7.8" lengthAdjust="spacing" textLength="78.6" x="647.7" y="535.2252">areAllTrue(booleanSet)</text><path d="M585,577.0781 L621.6,577.0781 L621.6,580.9922 L615.6,586.9922 L585,586.9922 L585,577.0781 " fill="#EEEEEE" style="stroke:#000000;stroke-width:0.8999999999999999;"/><rect fill="none" height="235.0266" style="stroke:#000000;stroke-width:0.8999999999999999;" width="526.8" x="585" y="577.0781"/><text fill="#000000" font-family="sans-serif" font-size="7.8" font-weight="bold" lengthAdjust="spacing" textLength="9.6" x="594" y="584.7393">alt</text><text fill="#000000" font-family="sans-serif" font-size="6.6" font-weight="bold" lengthAdjust="spacing" textLength="217.2" x="630.6" y="584.2529">[all classes meet the requirement so the class can be scheduled]</text><line style="stroke:#181818;stroke-width:0.6;" x1="643.5" x2="668.7" y1="599.3063" y2="599.3063"/><line style="stroke:#181818;stroke-width:0.6;" x1="668.7" x2="668.7" y1="599.3063" y2="607.1062"/><line style="stroke:#181818;stroke-width:0.6;" x1="644.1" x2="668.7" y1="607.1062" y2="607.1062"/><polygon fill="#181818" points="650.1,604.7063,644.1,607.1062,650.1,609.5063,647.7,607.1062" style="stroke:#181818;stroke-width:0.6;"/><text fill="#000000" font-family="sans-serif" font-size="7.8" lengthAdjust="spacing" textLength="231" x="647.7" y="596.4533">scheduleClass(acronym,title,initialTime,finishTime,dayOfTheWeek)</text><polygon fill="#181818" points="1016.1,639.8203,1022.1,642.2203,1016.1,644.6203,1018.5,642.2203" style="stroke:#181818;stroke-width:0.6;"/><line style="stroke:#181818;stroke-width:0.6;" x1="640.5" x2="1019.7" y1="642.2203" y2="642.2203"/><text fill="#000000" font-family="sans-serif" font-size="7.8" lengthAdjust="spacing" textLength="21.6" x="644.7" y="639.3674">create</text><polygon fill="#181818" points="1016.1,674.9344,1022.1,677.3344,1016.1,679.7344,1018.5,677.3344" style="stroke:#181818;stroke-width:0.6;"/><line style="stroke:#181818;stroke-width:0.6;" x1="640.5" x2="1019.7" y1="677.3344" y2="677.3344"/><text fill="#000000" font-family="sans-serif" font-size="7.8" lengthAdjust="spacing" textLength="193.8" x="644.7" y="674.4814">with(title,initialTime,finishTime,dayOfTheWeek,acronym)</text><polygon fill="#181818" points="647.1,692.0484,641.1,694.4484,647.1,696.8484,644.7,694.4484" style="stroke:#181818;stroke-width:0.6;"/><line style="stroke:#181818;stroke-width:0.6;" x1="643.5" x2="1025.7" y1="694.4484" y2="694.4484"/><text fill="#000000" font-family="sans-serif" font-size="7.8" lengthAdjust="spacing" textLength="46.8" x="650.7" y="691.5955">class created</text><polygon fill="#181818" points="872.7,709.1625,878.7,711.5625,872.7,713.9625,875.1,711.5625" style="stroke:#181818;stroke-width:0.6;"/><line style="stroke:#181818;stroke-width:0.6;" x1="640.5" x2="876.3" y1="711.5625" y2="711.5625"/><text fill="#000000" font-family="sans-serif" font-size="7.8" lengthAdjust="spacing" textLength="87.6" x="644.7" y="708.7096">findByAcronym(acronym)</text><polygon fill="#181818" points="647.1,717.5625,641.1,719.9625,647.1,722.3625,644.7,719.9625" style="stroke:#181818;stroke-width:0.6;"/><line style="stroke:#181818;stroke-width:0.6;" x1="643.5" x2="882.3" y1="719.9625" y2="719.9625"/><polygon fill="#181818" points="1016.1,734.6766,1022.1,737.0766,1016.1,739.4766,1018.5,737.0766" style="stroke:#181818;stroke-width:0.6;"/><line style="stroke:#181818;stroke-width:0.6;" x1="640.5" x2="1019.7" y1="737.0766" y2="737.0766"/><text fill="#000000" font-family="sans-serif" font-size="7.8" lengthAdjust="spacing" textLength="21" x="644.7" y="734.2236">build()</text><polygon fill="#181818" points="1075.8,769.7906,1081.8,772.1906,1075.8,774.5906,1078.2,772.1906" style="stroke:#181818;stroke-width:0.6;"/><line style="stroke:#181818;stroke-width:0.6;" x1="1026.3" x2="1079.4" y1="772.1906" y2="772.1906"/><text fill="#000000" font-family="sans-serif" font-size="7.8" lengthAdjust="spacing" textLength="21.6" x="1030.5" y="769.3377">create</text><polygon fill="#181818" points="949.5,786.9047,955.5,789.3047,949.5,791.7047,951.9,789.3047" style="stroke:#181818;stroke-width:0.6;"/><line style="stroke:#181818;stroke-width:0.6;" x1="640.5" x2="953.1" y1="789.3047" y2="789.3047"/><text fill="#000000" font-family="sans-serif" font-size="7.8" lengthAdjust="spacing" textLength="54" x="644.7" y="786.4518">save(newClass)</text><line style="stroke:#000000;stroke-width:0.6;stroke-dasharray:2.0,2.0;" x1="579" x2="1117.8" y1="816.9047" y2="816.9047"/><text fill="#000000" font-family="sans-serif" font-size="6.6" font-weight="bold" lengthAdjust="spacing" textLength="245.4" x="582" y="822.8795">[teacher doesn't have any class scheduled so it's free to choose the time]</text><line style="stroke:#181818;stroke-width:0.6;" x1="643.5" x2="668.7" y1="837.1922" y2="837.1922"/><line style="stroke:#181818;stroke-width:0.6;" x1="668.7" x2="668.7" y1="837.1922" y2="844.9922"/><line style="stroke:#181818;stroke-width:0.6;" x1="644.1" x2="668.7" y1="844.9922" y2="844.9922"/><polygon fill="#181818" points="650.1,842.5922,644.1,844.9922,650.1,847.3922,647.7,844.9922" style="stroke:#181818;stroke-width:0.6;"/><text fill="#000000" font-family="sans-serif" font-size="7.8" lengthAdjust="spacing" textLength="231" x="647.7" y="834.3393">scheduleClass(acronym,title,initialTime,finishTime,dayOfTheWeek)</text><polygon fill="#181818" points="1016.1,877.7063,1022.1,880.1062,1016.1,882.5063,1018.5,880.1062" style="stroke:#181818;stroke-width:0.6;"/><line style="stroke:#181818;stroke-width:0.6;" x1="640.5" x2="1019.7" y1="880.1062" y2="880.1062"/><text fill="#000000" font-family="sans-serif" font-size="7.8" lengthAdjust="spacing" textLength="21.6" x="644.7" y="877.2533">create</text><polygon fill="#181818" points="1016.1,912.8203,1022.1,915.2203,1016.1,917.6203,1018.5,915.2203" style="stroke:#181818;stroke-width:0.6;"/><line style="stroke:#181818;stroke-width:0.6;" x1="640.5" x2="1019.7" y1="915.2203" y2="915.2203"/><text fill="#000000" font-family="sans-serif" font-size="7.8" lengthAdjust="spacing" textLength="193.8" x="644.7" y="912.3674">with(title,initialTime,finishTime,dayOfTheWeek,acronym)</text><polygon fill="#181818" points="647.1,929.9344,641.1,932.3344,647.1,934.7344,644.7,932.3344" style="stroke:#181818;stroke-width:0.6;"/><line style="stroke:#181818;stroke-width:0.6;" x1="643.5" x2="1025.7" y1="932.3344" y2="932.3344"/><text fill="#000000" font-family="sans-serif" font-size="7.8" lengthAdjust="spacing" textLength="46.8" x="650.7" y="929.4814">class created</text><polygon fill="#181818" points="872.7,947.0484,878.7,949.4484,872.7,951.8484,875.1,949.4484" style="stroke:#181818;stroke-width:0.6;"/><line style="stroke:#181818;stroke-width:0.6;" x1="640.5" x2="876.3" y1="949.4484" y2="949.4484"/><text fill="#000000" font-family="sans-serif" font-size="7.8" lengthAdjust="spacing" textLength="87.6" x="644.7" y="946.5955">findByAcronym(acronym)</text><polygon fill="#181818" points="647.1,955.4484,641.1,957.8484,647.1,960.2484,644.7,957.8484" style="stroke:#181818;stroke-width:0.6;"/><line style="stroke:#181818;stroke-width:0.6;" x1="643.5" x2="882.3" y1="957.8484" y2="957.8484"/><polygon fill="#181818" points="1016.1,972.5625,1022.1,974.9625,1016.1,977.3625,1018.5,974.9625" style="stroke:#181818;stroke-width:0.6;"/><line style="stroke:#181818;stroke-width:0.6;" x1="640.5" x2="1019.7" y1="974.9625" y2="974.9625"/><text fill="#000000" font-family="sans-serif" font-size="7.8" lengthAdjust="spacing" textLength="21" x="644.7" y="972.1096">build()</text><polygon fill="#181818" points="1075.8,1007.6766,1081.8,1010.0766,1075.8,1012.4766,1078.2,1010.0766" style="stroke:#181818;stroke-width:0.6;"/><line style="stroke:#181818;stroke-width:0.6;" x1="1026.3" x2="1079.4" y1="1010.0766" y2="1010.0766"/><text fill="#000000" font-family="sans-serif" font-size="7.8" lengthAdjust="spacing" textLength="21.6" x="1030.5" y="1007.2236">create</text><polygon fill="#181818" points="949.5,1024.7906,955.5,1027.1906,949.5,1029.5906,951.9,1027.1906" style="stroke:#181818;stroke-width:0.6;"/><line style="stroke:#181818;stroke-width:0.6;" x1="640.5" x2="953.1" y1="1027.1906" y2="1027.1906"/><text fill="#000000" font-family="sans-serif" font-size="7.8" lengthAdjust="spacing" textLength="54" x="644.7" y="1024.3377">save(newClass)</text><polygon fill="#181818" points="447.9,1037.3906,441.9,1039.7906,447.9,1042.1906,445.5,1039.7906" style="stroke:#181818;stroke-width:0.6;"/><line style="stroke:#181818;stroke-width:0.6;" x1="444.3" x2="633.9" y1="1039.7906" y2="1039.7906"/><polygon fill="#181818" points="228.9,1045.7906,222.9,1048.1906,228.9,1050.5906,226.5,1048.1906" style="stroke:#181818;stroke-width:0.6;"/><line style="stroke:#181818;stroke-width:0.6;" x1="225.3" x2="434.7" y1="1048.1906" y2="1048.1906"/><polygon fill="#181818" points="27.3,1054.1906,21.3,1056.5906,27.3,1058.9906,24.9,1056.5906" style="stroke:#181818;stroke-width:0.6;"/><line style="stroke:#181818;stroke-width:0.6;" x1="23.7" x2="215.7" y1="1056.5906" y2="1056.5906"/><!--SRC=[xLLDRzim3BtdLmYzD4MIFp041Tfim7Oe1YmPTcPi6YOgIvua9_2_7_LXnSxSRBtij9j4lKSzybaq54uRSK0eQZG2h71nkMZ1E2ge1UN4tPv3PITn9y7QxtJdWHrjjw8rQ54vSAILU7oymTffvOoM4arW5yv8iTr2sqeg0lqcUu_cH0K6gZqLlp5BS704Y-8kbV8DMss9Q-i3n_3sm2oJmnDIk6E6ihkcJ1G6rdD7ian57UEQIMarouZr-nK3Izq0-Gew4fl7s9OFeZ083XTXnr5VSGxw3SUYlBdeuH9DPeeD7tMqMl59gVUrFYyV-C8SRFeWx0LL5mv6IYo3N-8nMZxquTLggcmEizbuIOnCmc895Qao6VHK6AtwXk4Jt5302FdSV-8UoOZal072Z0YDkUCcNZhgZi_o96MIzjodImDwbrBiihoulIJnTUHAEmgDuLLgwcR3Ci6-3djHyKCYLUchhZEALDkvS2QM9VHVgqEDFn1VruwSn3KfSWJoG0skMJ7PsYy78v9lliaVeRSJWxm6EtudoriPr-ExeqtYsainf7jFfel7GUfRBejBQmVe2GrL_PSgmJ-3ZML0v0sMWtIvpVNmUj1ciUL2QjrEpCzAPlo_f1z_0DVs3nh18ESuc0wNHwqbWjgZomMXAeCya3BBQX1PRusiv6T71XiUaSBg48eFlm0bZZZIVtNdrDGaT_rUIt8fQHo5r6aq3BDg7dGcL__z5x3E_SnPyz2AvOOxovbBqsDENhtXq5klVAmuh9TP0OD6MgAAsH4QsmqdN2eyXtO_v0_1UukIVn33jrTgjEhUyJTuGW6gJucpZTvaSlTML0QPfKLHQ-tvRBpZhlst-H_QBFxei_VtngpFe_uN]--></g></svg>