<?xml version="1.0" encoding="us-ascii" standalone="no"?><svg xmlns="http://www.w3.org/2000/svg" xmlns:xlink="http://www.w3.org/1999/xlink" contentStyleType="text/css" height="854px" preserveAspectRatio="none" style="width:1946px;height:854px;background:#FFFFFF;" version="1.1" viewBox="0 0 1946 854" width="1946px" zoomAndPan="magnify"><defs/><g><!--class Teacher--><g id="elem_Teacher"><rect codeLine="1" fill="#F1F1F1" height="110.5625" id="Teacher" rx="2.5" ry="2.5" style="stroke:#181818;stroke-width:0.5;" width="220" x="971" y="7"/><ellipse cx="1050.25" cy="23" fill="#ADD1B2" rx="11" ry="11" style="stroke:#181818;stroke-width:1.0;"/><path d="M1053.0156,18.875 Q1053.1719,18.6563 1053.3594,18.5469 Q1053.5469,18.4375 1053.7656,18.4375 Q1054.1406,18.4375 1054.375,18.7031 Q1054.6094,18.9531 1054.6094,19.5625 L1054.6094,21.0156 Q1054.6094,21.625 1054.375,21.8906 Q1054.1406,22.1563 1053.7656,22.1563 Q1053.4219,22.1563 1053.2188,21.9531 Q1053.0156,21.7656 1052.9063,21.25 Q1052.8594,20.8906 1052.6719,20.7031 Q1052.3438,20.3281 1051.7344,20.1094 Q1051.125,19.8906 1050.5,19.8906 Q1049.7344,19.8906 1049.0938,20.2188 Q1048.4688,20.5469 1047.9688,21.2969 Q1047.4844,22.0469 1047.4844,23.0781 L1047.4844,24.1719 Q1047.4844,25.4063 1048.375,26.2344 Q1049.2656,27.0469 1050.8594,27.0469 Q1051.7969,27.0469 1052.4531,26.7969 Q1052.8438,26.6406 1053.2656,26.2031 Q1053.5313,25.9375 1053.6719,25.8594 Q1053.8281,25.7813 1054.0313,25.7813 Q1054.3594,25.7813 1054.6094,26.0469 Q1054.875,26.2969 1054.875,26.6406 Q1054.875,26.9844 1054.5313,27.3906 Q1054.0313,27.9688 1053.2344,28.2969 Q1052.1563,28.75 1050.8594,28.75 Q1049.3438,28.75 1048.1406,28.125 Q1047.1563,27.625 1046.4688,26.5625 Q1045.7813,25.4844 1045.7813,24.2031 L1045.7813,23.0469 Q1045.7813,21.7188 1046.3906,20.5781 Q1047.0156,19.4219 1048.1094,18.8125 Q1049.2031,18.1875 1050.4375,18.1875 Q1051.1719,18.1875 1051.8125,18.3594 Q1052.4688,18.5156 1053.0156,18.875 Z " fill="#000000"/><text fill="#000000" font-family="sans-serif" font-size="14" lengthAdjust="spacing" textLength="53" x="1070.75" y="27.8535">Teacher</text><line style="stroke:#181818;stroke-width:0.5;" x1="972" x2="1190" y1="39" y2="39"/><rect fill="none" height="6" style="stroke:#C82930;stroke-width:1.0;" width="6" x="979" y="49.3203"/><text fill="#000000" font-family="sans-serif" font-size="14" lengthAdjust="spacing" textLength="51" x="991" y="55.6738">id: Long</text><rect fill="none" height="6" style="stroke:#C82930;stroke-width:1.0;" width="6" x="979" y="64.9609"/><text fill="#000000" font-family="sans-serif" font-size="14" lengthAdjust="spacing" textLength="80" x="991" y="71.3145">name: String</text><rect fill="none" height="6" style="stroke:#C82930;stroke-width:1.0;" width="6" x="979" y="80.6016"/><text fill="#000000" font-family="sans-serif" font-size="14" lengthAdjust="spacing" textLength="78" x="991" y="86.9551">email: String</text><rect fill="none" height="6" style="stroke:#C82930;stroke-width:1.0;" width="6" x="979" y="96.2422"/><text fill="#000000" font-family="sans-serif" font-size="14" lengthAdjust="spacing" textLength="194" x="991" y="102.5957">// other attributes and methods</text><line style="stroke:#181818;stroke-width:0.5;" x1="972" x2="1190" y1="109.5625" y2="109.5625"/></g><!--class UpadateClassUI--><g id="elem_UpadateClassUI"><rect codeLine="8" fill="#F1F1F1" height="126.2031" id="UpadateClassUI" rx="2.5" ry="2.5" style="stroke:#181818;stroke-width:0.5;" width="220" x="971" y="178"/><ellipse cx="1026.75" cy="194" fill="#ADD1B2" rx="11" ry="11" style="stroke:#181818;stroke-width:1.0;"/><path d="M1029.5156,189.875 Q1029.6719,189.6563 1029.8594,189.5469 Q1030.0469,189.4375 1030.2656,189.4375 Q1030.6406,189.4375 1030.875,189.7031 Q1031.1094,189.9531 1031.1094,190.5625 L1031.1094,192.0156 Q1031.1094,192.625 1030.875,192.8906 Q1030.6406,193.1563 1030.2656,193.1563 Q1029.9219,193.1563 1029.7188,192.9531 Q1029.5156,192.7656 1029.4063,192.25 Q1029.3594,191.8906 1029.1719,191.7031 Q1028.8438,191.3281 1028.2344,191.1094 Q1027.625,190.8906 1027,190.8906 Q1026.2344,190.8906 1025.5938,191.2188 Q1024.9688,191.5469 1024.4688,192.2969 Q1023.9844,193.0469 1023.9844,194.0781 L1023.9844,195.1719 Q1023.9844,196.4063 1024.875,197.2344 Q1025.7656,198.0469 1027.3594,198.0469 Q1028.2969,198.0469 1028.9531,197.7969 Q1029.3438,197.6406 1029.7656,197.2031 Q1030.0313,196.9375 1030.1719,196.8594 Q1030.3281,196.7813 1030.5313,196.7813 Q1030.8594,196.7813 1031.1094,197.0469 Q1031.375,197.2969 1031.375,197.6406 Q1031.375,197.9844 1031.0313,198.3906 Q1030.5313,198.9688 1029.7344,199.2969 Q1028.6563,199.75 1027.3594,199.75 Q1025.8438,199.75 1024.6406,199.125 Q1023.6563,198.625 1022.9688,197.5625 Q1022.2813,196.4844 1022.2813,195.2031 L1022.2813,194.0469 Q1022.2813,192.7188 1022.8906,191.5781 Q1023.5156,190.4219 1024.6094,189.8125 Q1025.7031,189.1875 1026.9375,189.1875 Q1027.6719,189.1875 1028.3125,189.3594 Q1028.9688,189.5156 1029.5156,189.875 Z " fill="#000000"/><text fill="#000000" font-family="sans-serif" font-size="14" lengthAdjust="spacing" textLength="100" x="1047.25" y="198.8535">UpadateClassUI</text><line style="stroke:#181818;stroke-width:0.5;" x1="972" x2="1190" y1="210" y2="210"/><ellipse cx="982" cy="223.3203" fill="none" rx="3" ry="3" style="stroke:#038048;stroke-width:1.0;"/><text fill="#000000" font-family="sans-serif" font-size="14" lengthAdjust="spacing" textLength="194" x="991" y="226.6738">// other methods and attributes</text><line style="stroke:#181818;stroke-width:0.5;" x1="972" x2="1190" y1="233.6406" y2="233.6406"/><ellipse cx="982" cy="246.9609" fill="#84BE84" rx="3" ry="3" style="stroke:#038048;stroke-width:1.0;"/><text fill="#000000" font-family="sans-serif" font-size="14" lengthAdjust="spacing" textLength="60" x="991" y="250.3145">doShow()</text><ellipse cx="982" cy="262.6016" fill="#84BE84" rx="3" ry="3" style="stroke:#038048;stroke-width:1.0;"/><text fill="#000000" font-family="sans-serif" font-size="14" lengthAdjust="spacing" textLength="98" x="991" y="265.9551">myClassMenu()</text><ellipse cx="982" cy="278.2422" fill="#84BE84" rx="3" ry="3" style="stroke:#038048;stroke-width:1.0;"/><text fill="#000000" font-family="sans-serif" font-size="14" lengthAdjust="spacing" textLength="74" x="991" y="281.5957">showDays()</text><ellipse cx="982" cy="293.8828" fill="#84BE84" rx="3" ry="3" style="stroke:#038048;stroke-width:1.0;"/><text fill="#000000" font-family="sans-serif" font-size="14" lengthAdjust="spacing" textLength="107" x="991" y="297.2363">buildDaysMenu()</text></g><!--class UpdateClassController--><g id="elem_UpdateClassController"><rect codeLine="16" fill="#F1F1F1" height="110.5625" id="UpdateClassController" rx="2.5" ry="2.5" style="stroke:#181818;stroke-width:0.5;" width="259" x="951.5" y="364"/><ellipse cx="1005.75" cy="380" fill="#ADD1B2" rx="11" ry="11" style="stroke:#181818;stroke-width:1.0;"/><path d="M1008.5156,375.875 Q1008.6719,375.6563 1008.8594,375.5469 Q1009.0469,375.4375 1009.2656,375.4375 Q1009.6406,375.4375 1009.875,375.7031 Q1010.1094,375.9531 1010.1094,376.5625 L1010.1094,378.0156 Q1010.1094,378.625 1009.875,378.8906 Q1009.6406,379.1563 1009.2656,379.1563 Q1008.9219,379.1563 1008.7188,378.9531 Q1008.5156,378.7656 1008.4063,378.25 Q1008.3594,377.8906 1008.1719,377.7031 Q1007.8438,377.3281 1007.2344,377.1094 Q1006.625,376.8906 1006,376.8906 Q1005.2344,376.8906 1004.5938,377.2188 Q1003.9688,377.5469 1003.4688,378.2969 Q1002.9844,379.0469 1002.9844,380.0781 L1002.9844,381.1719 Q1002.9844,382.4063 1003.875,383.2344 Q1004.7656,384.0469 1006.3594,384.0469 Q1007.2969,384.0469 1007.9531,383.7969 Q1008.3438,383.6406 1008.7656,383.2031 Q1009.0313,382.9375 1009.1719,382.8594 Q1009.3281,382.7813 1009.5313,382.7813 Q1009.8594,382.7813 1010.1094,383.0469 Q1010.375,383.2969 1010.375,383.6406 Q1010.375,383.9844 1010.0313,384.3906 Q1009.5313,384.9688 1008.7344,385.2969 Q1007.6563,385.75 1006.3594,385.75 Q1004.8438,385.75 1003.6406,385.125 Q1002.6563,384.625 1001.9688,383.5625 Q1001.2813,382.4844 1001.2813,381.2031 L1001.2813,380.0469 Q1001.2813,378.7188 1001.8906,377.5781 Q1002.5156,376.4219 1003.6094,375.8125 Q1004.7031,375.1875 1005.9375,375.1875 Q1006.6719,375.1875 1007.3125,375.3594 Q1007.9688,375.5156 1008.5156,375.875 Z " fill="#000000"/><text fill="#000000" font-family="sans-serif" font-size="14" lengthAdjust="spacing" textLength="142" x="1026.25" y="384.8535">UpdateClassController</text><line style="stroke:#181818;stroke-width:0.5;" x1="952.5" x2="1209.5" y1="396" y2="396"/><ellipse cx="962.5" cy="409.3203" fill="none" rx="3" ry="3" style="stroke:#038048;stroke-width:1.0;"/><text fill="#000000" font-family="sans-serif" font-size="14" lengthAdjust="spacing" textLength="194" x="971.5" y="412.6738">// other methods and attributes</text><line style="stroke:#181818;stroke-width:0.5;" x1="952.5" x2="1209.5" y1="419.6406" y2="419.6406"/><ellipse cx="962.5" cy="432.9609" fill="#84BE84" rx="3" ry="3" style="stroke:#038048;stroke-width:1.0;"/><text fill="#000000" font-family="sans-serif" font-size="14" lengthAdjust="spacing" textLength="110" x="971.5" y="436.3145">showMyClasses()</text><ellipse cx="962.5" cy="448.6016" fill="#84BE84" rx="3" ry="3" style="stroke:#038048;stroke-width:1.0;"/><text fill="#000000" font-family="sans-serif" font-size="14" lengthAdjust="spacing" textLength="89" x="971.5" y="451.9551">updateClass()</text><ellipse cx="962.5" cy="464.2422" fill="#84BE84" rx="3" ry="3" style="stroke:#038048;stroke-width:1.0;"/><text fill="#000000" font-family="sans-serif" font-size="14" lengthAdjust="spacing" textLength="233" x="971.5" y="467.5957">ensureAuthenticatedUserHasAnyOf()</text></g><!--class UpdateClassService--><g id="elem_UpdateClassService"><rect codeLine="23" fill="#F1F1F1" height="141.8438" id="UpdateClassService" rx="2.5" ry="2.5" style="stroke:#181818;stroke-width:0.5;" width="220" x="890" y="535"/><ellipse cx="932.45" cy="551" fill="#ADD1B2" rx="11" ry="11" style="stroke:#181818;stroke-width:1.0;"/><path d="M935.2156,546.875 Q935.3719,546.6563 935.5594,546.5469 Q935.7469,546.4375 935.9656,546.4375 Q936.3406,546.4375 936.575,546.7031 Q936.8094,546.9531 936.8094,547.5625 L936.8094,549.0156 Q936.8094,549.625 936.575,549.8906 Q936.3406,550.1563 935.9656,550.1563 Q935.6219,550.1563 935.4188,549.9531 Q935.2156,549.7656 935.1063,549.25 Q935.0594,548.8906 934.8719,548.7031 Q934.5438,548.3281 933.9344,548.1094 Q933.325,547.8906 932.7,547.8906 Q931.9344,547.8906 931.2938,548.2188 Q930.6688,548.5469 930.1688,549.2969 Q929.6844,550.0469 929.6844,551.0781 L929.6844,552.1719 Q929.6844,553.4063 930.575,554.2344 Q931.4656,555.0469 933.0594,555.0469 Q933.9969,555.0469 934.6531,554.7969 Q935.0438,554.6406 935.4656,554.2031 Q935.7313,553.9375 935.8719,553.8594 Q936.0281,553.7813 936.2313,553.7813 Q936.5594,553.7813 936.8094,554.0469 Q937.075,554.2969 937.075,554.6406 Q937.075,554.9844 936.7313,555.3906 Q936.2313,555.9688 935.4344,556.2969 Q934.3563,556.75 933.0594,556.75 Q931.5438,556.75 930.3406,556.125 Q929.3563,555.625 928.6688,554.5625 Q927.9813,553.4844 927.9813,552.2031 L927.9813,551.0469 Q927.9813,549.7188 928.5906,548.5781 Q929.2156,547.4219 930.3094,546.8125 Q931.4031,546.1875 932.6375,546.1875 Q933.3719,546.1875 934.0125,546.3594 Q934.6688,546.5156 935.2156,546.875 Z " fill="#000000"/><text fill="#000000" font-family="sans-serif" font-size="14" lengthAdjust="spacing" textLength="127" x="952.55" y="555.8535">UpdateClassService</text><line style="stroke:#181818;stroke-width:0.5;" x1="891" x2="1109" y1="567" y2="567"/><ellipse cx="901" cy="580.3203" fill="none" rx="3" ry="3" style="stroke:#038048;stroke-width:1.0;"/><text fill="#000000" font-family="sans-serif" font-size="14" lengthAdjust="spacing" textLength="194" x="910" y="583.6738">// other methods and attributes</text><line style="stroke:#181818;stroke-width:0.5;" x1="891" x2="1109" y1="590.6406" y2="590.6406"/><ellipse cx="901" cy="603.9609" fill="#84BE84" rx="3" ry="3" style="stroke:#038048;stroke-width:1.0;"/><text fill="#000000" font-family="sans-serif" font-size="14" lengthAdjust="spacing" textLength="110" x="910" y="607.3145">showMyClasses()</text><ellipse cx="901" cy="619.6016" fill="#84BE84" rx="3" ry="3" style="stroke:#038048;stroke-width:1.0;"/><text fill="#000000" font-family="sans-serif" font-size="14" lengthAdjust="spacing" textLength="95" x="910" y="622.9551">findClassById()</text><ellipse cx="901" cy="635.2422" fill="#84BE84" rx="3" ry="3" style="stroke:#038048;stroke-width:1.0;"/><text fill="#000000" font-family="sans-serif" font-size="14" lengthAdjust="spacing" textLength="54" x="910" y="638.5957">update()</text><ellipse cx="901" cy="650.8828" fill="#84BE84" rx="3" ry="3" style="stroke:#038048;stroke-width:1.0;"/><text fill="#000000" font-family="sans-serif" font-size="14" lengthAdjust="spacing" textLength="74" x="910" y="654.2363">isBetween()</text><ellipse cx="901" cy="666.5234" fill="#84BE84" rx="3" ry="3" style="stroke:#038048;stroke-width:1.0;"/><text fill="#000000" font-family="sans-serif" font-size="14" lengthAdjust="spacing" textLength="76" x="910" y="669.877">areAllTrue()</text></g><!--class UserSession--><g id="elem_UserSession"><rect codeLine="32" fill="#F1F1F1" height="79.2813" id="UserSession" rx="2.5" ry="2.5" style="stroke:#181818;stroke-width:0.5;" width="220" x="7" y="753"/><ellipse cx="73.25" cy="769" fill="#ADD1B2" rx="11" ry="11" style="stroke:#181818;stroke-width:1.0;"/><path d="M76.0156,764.875 Q76.1719,764.6563 76.3594,764.5469 Q76.5469,764.4375 76.7656,764.4375 Q77.1406,764.4375 77.375,764.7031 Q77.6094,764.9531 77.6094,765.5625 L77.6094,767.0156 Q77.6094,767.625 77.375,767.8906 Q77.1406,768.1563 76.7656,768.1563 Q76.4219,768.1563 76.2188,767.9531 Q76.0156,767.7656 75.9063,767.25 Q75.8594,766.8906 75.6719,766.7031 Q75.3438,766.3281 74.7344,766.1094 Q74.125,765.8906 73.5,765.8906 Q72.7344,765.8906 72.0938,766.2188 Q71.4688,766.5469 70.9688,767.2969 Q70.4844,768.0469 70.4844,769.0781 L70.4844,770.1719 Q70.4844,771.4063 71.375,772.2344 Q72.2656,773.0469 73.8594,773.0469 Q74.7969,773.0469 75.4531,772.7969 Q75.8438,772.6406 76.2656,772.2031 Q76.5313,771.9375 76.6719,771.8594 Q76.8281,771.7813 77.0313,771.7813 Q77.3594,771.7813 77.6094,772.0469 Q77.875,772.2969 77.875,772.6406 Q77.875,772.9844 77.5313,773.3906 Q77.0313,773.9688 76.2344,774.2969 Q75.1563,774.75 73.8594,774.75 Q72.3438,774.75 71.1406,774.125 Q70.1563,773.625 69.4688,772.5625 Q68.7813,771.4844 68.7813,770.2031 L68.7813,769.0469 Q68.7813,767.7188 69.3906,766.5781 Q70.0156,765.4219 71.1094,764.8125 Q72.2031,764.1875 73.4375,764.1875 Q74.1719,764.1875 74.8125,764.3594 Q75.4688,764.5156 76.0156,764.875 Z " fill="#000000"/><text fill="#000000" font-family="sans-serif" font-size="14" lengthAdjust="spacing" textLength="79" x="93.75" y="773.8535">UserSession</text><line style="stroke:#181818;stroke-width:0.5;" x1="8" x2="226" y1="785" y2="785"/><rect fill="none" height="6" style="stroke:#C82930;stroke-width:1.0;" width="6" x="15" y="795.3203"/><text fill="#000000" font-family="sans-serif" font-size="14" lengthAdjust="spacing" textLength="115" x="27" y="801.6738">authenticatedUser</text><ellipse cx="18" cy="813.9609" fill="none" rx="3" ry="3" style="stroke:#038048;stroke-width:1.0;"/><text fill="#000000" font-family="sans-serif" font-size="14" lengthAdjust="spacing" textLength="194" x="27" y="817.3145">// other attributes and methods</text><line style="stroke:#181818;stroke-width:0.5;" x1="8" x2="226" y1="824.2813" y2="824.2813"/></g><!--class SystemUser--><g id="elem_SystemUser"><rect codeLine="37" fill="#F1F1F1" height="94.9219" id="SystemUser" rx="2.5" ry="2.5" style="stroke:#181818;stroke-width:0.5;" width="220" x="262" y="745"/><ellipse cx="330.25" cy="761" fill="#ADD1B2" rx="11" ry="11" style="stroke:#181818;stroke-width:1.0;"/><path d="M333.0156,756.875 Q333.1719,756.6563 333.3594,756.5469 Q333.5469,756.4375 333.7656,756.4375 Q334.1406,756.4375 334.375,756.7031 Q334.6094,756.9531 334.6094,757.5625 L334.6094,759.0156 Q334.6094,759.625 334.375,759.8906 Q334.1406,760.1563 333.7656,760.1563 Q333.4219,760.1563 333.2188,759.9531 Q333.0156,759.7656 332.9063,759.25 Q332.8594,758.8906 332.6719,758.7031 Q332.3438,758.3281 331.7344,758.1094 Q331.125,757.8906 330.5,757.8906 Q329.7344,757.8906 329.0938,758.2188 Q328.4688,758.5469 327.9688,759.2969 Q327.4844,760.0469 327.4844,761.0781 L327.4844,762.1719 Q327.4844,763.4063 328.375,764.2344 Q329.2656,765.0469 330.8594,765.0469 Q331.7969,765.0469 332.4531,764.7969 Q332.8438,764.6406 333.2656,764.2031 Q333.5313,763.9375 333.6719,763.8594 Q333.8281,763.7813 334.0313,763.7813 Q334.3594,763.7813 334.6094,764.0469 Q334.875,764.2969 334.875,764.6406 Q334.875,764.9844 334.5313,765.3906 Q334.0313,765.9688 333.2344,766.2969 Q332.1563,766.75 330.8594,766.75 Q329.3438,766.75 328.1406,766.125 Q327.1563,765.625 326.4688,764.5625 Q325.7813,763.4844 325.7813,762.2031 L325.7813,761.0469 Q325.7813,759.7188 326.3906,758.5781 Q327.0156,757.4219 328.1094,756.8125 Q329.2031,756.1875 330.4375,756.1875 Q331.1719,756.1875 331.8125,756.3594 Q332.4688,756.5156 333.0156,756.875 Z " fill="#000000"/><text fill="#000000" font-family="sans-serif" font-size="14" lengthAdjust="spacing" textLength="75" x="350.75" y="765.8535">SystemUser</text><line style="stroke:#181818;stroke-width:0.5;" x1="263" x2="481" y1="777" y2="777"/><rect fill="none" height="6" style="stroke:#C82930;stroke-width:1.0;" width="6" x="270" y="787.3203"/><text fill="#000000" font-family="sans-serif" font-size="14" lengthAdjust="spacing" textLength="78" x="282" y="793.6738">email: String</text><ellipse cx="273" cy="805.9609" fill="none" rx="3" ry="3" style="stroke:#038048;stroke-width:1.0;"/><text fill="#000000" font-family="sans-serif" font-size="14" lengthAdjust="spacing" textLength="194" x="282" y="809.3145">// other methods and attributes</text><line style="stroke:#181818;stroke-width:0.5;" x1="263" x2="481" y1="816.2813" y2="816.2813"/><ellipse cx="273" cy="829.6016" fill="#84BE84" rx="3" ry="3" style="stroke:#038048;stroke-width:1.0;"/><text fill="#000000" font-family="sans-serif" font-size="14" lengthAdjust="spacing" textLength="57" x="282" y="832.9551">hasAny()</text></g><!--class Acronym--><g id="elem_Acronym"><rect codeLine="43" fill="#F1F1F1" height="79.2813" id="Acronym" rx="2.5" ry="2.5" style="stroke:#181818;stroke-width:0.5;" width="220" x="517" y="753"/><ellipse cx="595.25" cy="769" fill="#ADD1B2" rx="11" ry="11" style="stroke:#181818;stroke-width:1.0;"/><path d="M598.0156,764.875 Q598.1719,764.6563 598.3594,764.5469 Q598.5469,764.4375 598.7656,764.4375 Q599.1406,764.4375 599.375,764.7031 Q599.6094,764.9531 599.6094,765.5625 L599.6094,767.0156 Q599.6094,767.625 599.375,767.8906 Q599.1406,768.1563 598.7656,768.1563 Q598.4219,768.1563 598.2188,767.9531 Q598.0156,767.7656 597.9063,767.25 Q597.8594,766.8906 597.6719,766.7031 Q597.3438,766.3281 596.7344,766.1094 Q596.125,765.8906 595.5,765.8906 Q594.7344,765.8906 594.0938,766.2188 Q593.4688,766.5469 592.9688,767.2969 Q592.4844,768.0469 592.4844,769.0781 L592.4844,770.1719 Q592.4844,771.4063 593.375,772.2344 Q594.2656,773.0469 595.8594,773.0469 Q596.7969,773.0469 597.4531,772.7969 Q597.8438,772.6406 598.2656,772.2031 Q598.5313,771.9375 598.6719,771.8594 Q598.8281,771.7813 599.0313,771.7813 Q599.3594,771.7813 599.6094,772.0469 Q599.875,772.2969 599.875,772.6406 Q599.875,772.9844 599.5313,773.3906 Q599.0313,773.9688 598.2344,774.2969 Q597.1563,774.75 595.8594,774.75 Q594.3438,774.75 593.1406,774.125 Q592.1563,773.625 591.4688,772.5625 Q590.7813,771.4844 590.7813,770.2031 L590.7813,769.0469 Q590.7813,767.7188 591.3906,766.5781 Q592.0156,765.4219 593.1094,764.8125 Q594.2031,764.1875 595.4375,764.1875 Q596.1719,764.1875 596.8125,764.3594 Q597.4688,764.5156 598.0156,764.875 Z " fill="#000000"/><text fill="#000000" font-family="sans-serif" font-size="14" lengthAdjust="spacing" textLength="55" x="615.75" y="773.8535">Acronym</text><line style="stroke:#181818;stroke-width:0.5;" x1="518" x2="736" y1="785" y2="785"/><ellipse cx="528" cy="798.3203" fill="none" rx="3" ry="3" style="stroke:#038048;stroke-width:1.0;"/><text fill="#000000" font-family="sans-serif" font-size="14" lengthAdjust="spacing" textLength="194" x="537" y="801.6738">// other methods and attributes</text><line style="stroke:#181818;stroke-width:0.5;" x1="518" x2="736" y1="808.6406" y2="808.6406"/><ellipse cx="528" cy="821.9609" fill="#84BE84" rx="3" ry="3" style="stroke:#038048;stroke-width:1.0;"/><text fill="#000000" font-family="sans-serif" font-size="14" lengthAdjust="spacing" textLength="59" x="537" y="825.3145">toString()</text></g><!--class TeacherRepository--><g id="elem_TeacherRepository"><rect codeLine="48" fill="#F1F1F1" height="79.2813" id="TeacherRepository" rx="2.5" ry="2.5" style="stroke:#181818;stroke-width:0.5;" width="220" x="772" y="753"/><ellipse cx="817.25" cy="769" fill="#ADD1B2" rx="11" ry="11" style="stroke:#181818;stroke-width:1.0;"/><path d="M820.0156,764.875 Q820.1719,764.6563 820.3594,764.5469 Q820.5469,764.4375 820.7656,764.4375 Q821.1406,764.4375 821.375,764.7031 Q821.6094,764.9531 821.6094,765.5625 L821.6094,767.0156 Q821.6094,767.625 821.375,767.8906 Q821.1406,768.1563 820.7656,768.1563 Q820.4219,768.1563 820.2188,767.9531 Q820.0156,767.7656 819.9063,767.25 Q819.8594,766.8906 819.6719,766.7031 Q819.3438,766.3281 818.7344,766.1094 Q818.125,765.8906 817.5,765.8906 Q816.7344,765.8906 816.0938,766.2188 Q815.4688,766.5469 814.9688,767.2969 Q814.4844,768.0469 814.4844,769.0781 L814.4844,770.1719 Q814.4844,771.4063 815.375,772.2344 Q816.2656,773.0469 817.8594,773.0469 Q818.7969,773.0469 819.4531,772.7969 Q819.8438,772.6406 820.2656,772.2031 Q820.5313,771.9375 820.6719,771.8594 Q820.8281,771.7813 821.0313,771.7813 Q821.3594,771.7813 821.6094,772.0469 Q821.875,772.2969 821.875,772.6406 Q821.875,772.9844 821.5313,773.3906 Q821.0313,773.9688 820.2344,774.2969 Q819.1563,774.75 817.8594,774.75 Q816.3438,774.75 815.1406,774.125 Q814.1563,773.625 813.4688,772.5625 Q812.7813,771.4844 812.7813,770.2031 L812.7813,769.0469 Q812.7813,767.7188 813.3906,766.5781 Q814.0156,765.4219 815.1094,764.8125 Q816.2031,764.1875 817.4375,764.1875 Q818.1719,764.1875 818.8125,764.3594 Q819.4688,764.5156 820.0156,764.875 Z " fill="#000000"/><text fill="#000000" font-family="sans-serif" font-size="14" lengthAdjust="spacing" textLength="121" x="837.75" y="773.8535">TeacherRepository</text><line style="stroke:#181818;stroke-width:0.5;" x1="773" x2="991" y1="785" y2="785"/><ellipse cx="783" cy="798.3203" fill="none" rx="3" ry="3" style="stroke:#038048;stroke-width:1.0;"/><text fill="#000000" font-family="sans-serif" font-size="14" lengthAdjust="spacing" textLength="194" x="792" y="801.6738">// other methods and attributes</text><line style="stroke:#181818;stroke-width:0.5;" x1="773" x2="991" y1="808.6406" y2="808.6406"/><ellipse cx="783" cy="821.9609" fill="#84BE84" rx="3" ry="3" style="stroke:#038048;stroke-width:1.0;"/><text fill="#000000" font-family="sans-serif" font-size="14" lengthAdjust="spacing" textLength="136" x="792" y="825.3145">findTeacherByEmail()</text></g><!--class ClassRepository--><g id="elem_ClassRepository"><rect codeLine="53" fill="#F1F1F1" height="110.5625" id="ClassRepository" rx="2.5" ry="2.5" style="stroke:#181818;stroke-width:0.5;" width="220" x="1719" y="737"/><ellipse cx="1773.25" cy="753" fill="#ADD1B2" rx="11" ry="11" style="stroke:#181818;stroke-width:1.0;"/><path d="M1776.0156,748.875 Q1776.1719,748.6563 1776.3594,748.5469 Q1776.5469,748.4375 1776.7656,748.4375 Q1777.1406,748.4375 1777.375,748.7031 Q1777.6094,748.9531 1777.6094,749.5625 L1777.6094,751.0156 Q1777.6094,751.625 1777.375,751.8906 Q1777.1406,752.1563 1776.7656,752.1563 Q1776.4219,752.1563 1776.2188,751.9531 Q1776.0156,751.7656 1775.9063,751.25 Q1775.8594,750.8906 1775.6719,750.7031 Q1775.3438,750.3281 1774.7344,750.1094 Q1774.125,749.8906 1773.5,749.8906 Q1772.7344,749.8906 1772.0938,750.2188 Q1771.4688,750.5469 1770.9688,751.2969 Q1770.4844,752.0469 1770.4844,753.0781 L1770.4844,754.1719 Q1770.4844,755.4063 1771.375,756.2344 Q1772.2656,757.0469 1773.8594,757.0469 Q1774.7969,757.0469 1775.4531,756.7969 Q1775.8438,756.6406 1776.2656,756.2031 Q1776.5313,755.9375 1776.6719,755.8594 Q1776.8281,755.7813 1777.0313,755.7813 Q1777.3594,755.7813 1777.6094,756.0469 Q1777.875,756.2969 1777.875,756.6406 Q1777.875,756.9844 1777.5313,757.3906 Q1777.0313,757.9688 1776.2344,758.2969 Q1775.1563,758.75 1773.8594,758.75 Q1772.3438,758.75 1771.1406,758.125 Q1770.1563,757.625 1769.4688,756.5625 Q1768.7813,755.4844 1768.7813,754.2031 L1768.7813,753.0469 Q1768.7813,751.7188 1769.3906,750.5781 Q1770.0156,749.4219 1771.1094,748.8125 Q1772.2031,748.1875 1773.4375,748.1875 Q1774.1719,748.1875 1774.8125,748.3594 Q1775.4688,748.5156 1776.0156,748.875 Z " fill="#000000"/><text fill="#000000" font-family="sans-serif" font-size="14" lengthAdjust="spacing" textLength="103" x="1793.75" y="757.8535">ClassRepository</text><line style="stroke:#181818;stroke-width:0.5;" x1="1720" x2="1938" y1="769" y2="769"/><ellipse cx="1730" cy="782.3203" fill="none" rx="3" ry="3" style="stroke:#038048;stroke-width:1.0;"/><text fill="#000000" font-family="sans-serif" font-size="14" lengthAdjust="spacing" textLength="194" x="1739" y="785.6738">// other methods and attributes</text><line style="stroke:#181818;stroke-width:0.5;" x1="1720" x2="1938" y1="792.6406" y2="792.6406"/><ellipse cx="1730" cy="805.9609" fill="#84BE84" rx="3" ry="3" style="stroke:#038048;stroke-width:1.0;"/><text fill="#000000" font-family="sans-serif" font-size="14" lengthAdjust="spacing" textLength="169" x="1739" y="809.3145">findAllClassesByAcronym()</text><ellipse cx="1730" cy="821.6016" fill="#84BE84" rx="3" ry="3" style="stroke:#038048;stroke-width:1.0;"/><text fill="#000000" font-family="sans-serif" font-size="14" lengthAdjust="spacing" textLength="95" x="1739" y="824.9551">findClassById()</text><ellipse cx="1730" cy="837.2422" fill="#84BE84" rx="3" ry="3" style="stroke:#038048;stroke-width:1.0;"/><text fill="#000000" font-family="sans-serif" font-size="14" lengthAdjust="spacing" textLength="109" x="1739" y="840.5957">setUpdateClass()</text></g><!--class DayOfTheWeek--><g id="elem_DayOfTheWeek"><rect codeLine="62" fill="#F1F1F1" height="63.6406" id="DayOfTheWeek" rx="2.5" ry="2.5" style="stroke:#181818;stroke-width:0.5;" width="183" x="1027.5" y="760.5"/><ellipse cx="1065" cy="776.5" fill="#ADD1B2" rx="11" ry="11" style="stroke:#181818;stroke-width:1.0;"/><path d="M1067.7656,772.375 Q1067.9219,772.1563 1068.1094,772.0469 Q1068.2969,771.9375 1068.5156,771.9375 Q1068.8906,771.9375 1069.125,772.2031 Q1069.3594,772.4531 1069.3594,773.0625 L1069.3594,774.5156 Q1069.3594,775.125 1069.125,775.3906 Q1068.8906,775.6563 1068.5156,775.6563 Q1068.1719,775.6563 1067.9688,775.4531 Q1067.7656,775.2656 1067.6563,774.75 Q1067.6094,774.3906 1067.4219,774.2031 Q1067.0938,773.8281 1066.4844,773.6094 Q1065.875,773.3906 1065.25,773.3906 Q1064.4844,773.3906 1063.8438,773.7188 Q1063.2188,774.0469 1062.7188,774.7969 Q1062.2344,775.5469 1062.2344,776.5781 L1062.2344,777.6719 Q1062.2344,778.9063 1063.125,779.7344 Q1064.0156,780.5469 1065.6094,780.5469 Q1066.5469,780.5469 1067.2031,780.2969 Q1067.5938,780.1406 1068.0156,779.7031 Q1068.2813,779.4375 1068.4219,779.3594 Q1068.5781,779.2813 1068.7813,779.2813 Q1069.1094,779.2813 1069.3594,779.5469 Q1069.625,779.7969 1069.625,780.1406 Q1069.625,780.4844 1069.2813,780.8906 Q1068.7813,781.4688 1067.9844,781.7969 Q1066.9063,782.25 1065.6094,782.25 Q1064.0938,782.25 1062.8906,781.625 Q1061.9063,781.125 1061.2188,780.0625 Q1060.5313,778.9844 1060.5313,777.7031 L1060.5313,776.5469 Q1060.5313,775.2188 1061.1406,774.0781 Q1061.7656,772.9219 1062.8594,772.3125 Q1063.9531,771.6875 1065.1875,771.6875 Q1065.9219,771.6875 1066.5625,771.8594 Q1067.2188,772.0156 1067.7656,772.375 Z " fill="#000000"/><text fill="#000000" font-family="sans-serif" font-size="14" lengthAdjust="spacing" textLength="101" x="1084" y="781.3535">DayOfTheWeek</text><line style="stroke:#181818;stroke-width:0.5;" x1="1028.5" x2="1209.5" y1="792.5" y2="792.5"/><ellipse cx="1038.5" cy="805.8203" fill="none" rx="3" ry="3" style="stroke:#038048;stroke-width:1.0;"/><text fill="#000000" font-family="sans-serif" font-size="14" lengthAdjust="spacing" textLength="157" x="1047.5" y="809.1738">// attributes and methods</text><line style="stroke:#181818;stroke-width:0.5;" x1="1028.5" x2="1209.5" y1="816.1406" y2="816.1406"/></g><!--class Duration--><g id="elem_Duration"><rect codeLine="66" fill="#F1F1F1" height="63.6406" id="Duration" rx="2.5" ry="2.5" style="stroke:#181818;stroke-width:0.5;" width="183" x="1245.5" y="760.5"/><ellipse cx="1305.75" cy="776.5" fill="#ADD1B2" rx="11" ry="11" style="stroke:#181818;stroke-width:1.0;"/><path d="M1308.5156,772.375 Q1308.6719,772.1563 1308.8594,772.0469 Q1309.0469,771.9375 1309.2656,771.9375 Q1309.6406,771.9375 1309.875,772.2031 Q1310.1094,772.4531 1310.1094,773.0625 L1310.1094,774.5156 Q1310.1094,775.125 1309.875,775.3906 Q1309.6406,775.6563 1309.2656,775.6563 Q1308.9219,775.6563 1308.7188,775.4531 Q1308.5156,775.2656 1308.4063,774.75 Q1308.3594,774.3906 1308.1719,774.2031 Q1307.8438,773.8281 1307.2344,773.6094 Q1306.625,773.3906 1306,773.3906 Q1305.2344,773.3906 1304.5938,773.7188 Q1303.9688,774.0469 1303.4688,774.7969 Q1302.9844,775.5469 1302.9844,776.5781 L1302.9844,777.6719 Q1302.9844,778.9063 1303.875,779.7344 Q1304.7656,780.5469 1306.3594,780.5469 Q1307.2969,780.5469 1307.9531,780.2969 Q1308.3438,780.1406 1308.7656,779.7031 Q1309.0313,779.4375 1309.1719,779.3594 Q1309.3281,779.2813 1309.5313,779.2813 Q1309.8594,779.2813 1310.1094,779.5469 Q1310.375,779.7969 1310.375,780.1406 Q1310.375,780.4844 1310.0313,780.8906 Q1309.5313,781.4688 1308.7344,781.7969 Q1307.6563,782.25 1306.3594,782.25 Q1304.8438,782.25 1303.6406,781.625 Q1302.6563,781.125 1301.9688,780.0625 Q1301.2813,778.9844 1301.2813,777.7031 L1301.2813,776.5469 Q1301.2813,775.2188 1301.8906,774.0781 Q1302.5156,772.9219 1303.6094,772.3125 Q1304.7031,771.6875 1305.9375,771.6875 Q1306.6719,771.6875 1307.3125,771.8594 Q1307.9688,772.0156 1308.5156,772.375 Z " fill="#000000"/><text fill="#000000" font-family="sans-serif" font-size="14" lengthAdjust="spacing" textLength="54" x="1326.25" y="781.3535">Duration</text><line style="stroke:#181818;stroke-width:0.5;" x1="1246.5" x2="1427.5" y1="792.5" y2="792.5"/><ellipse cx="1256.5" cy="805.8203" fill="none" rx="3" ry="3" style="stroke:#038048;stroke-width:1.0;"/><text fill="#000000" font-family="sans-serif" font-size="14" lengthAdjust="spacing" textLength="157" x="1265.5" y="809.1738">// attributes and methods</text><line style="stroke:#181818;stroke-width:0.5;" x1="1246.5" x2="1427.5" y1="816.1406" y2="816.1406"/></g><!--class Class--><g id="elem_Class"><rect codeLine="70" fill="#F1F1F1" height="79.2813" id="Class" rx="2.5" ry="2.5" style="stroke:#181818;stroke-width:0.5;" width="220" x="1464" y="753"/><ellipse cx="1552.25" cy="769" fill="#ADD1B2" rx="11" ry="11" style="stroke:#181818;stroke-width:1.0;"/><path d="M1555.0156,764.875 Q1555.1719,764.6563 1555.3594,764.5469 Q1555.5469,764.4375 1555.7656,764.4375 Q1556.1406,764.4375 1556.375,764.7031 Q1556.6094,764.9531 1556.6094,765.5625 L1556.6094,767.0156 Q1556.6094,767.625 1556.375,767.8906 Q1556.1406,768.1563 1555.7656,768.1563 Q1555.4219,768.1563 1555.2188,767.9531 Q1555.0156,767.7656 1554.9063,767.25 Q1554.8594,766.8906 1554.6719,766.7031 Q1554.3438,766.3281 1553.7344,766.1094 Q1553.125,765.8906 1552.5,765.8906 Q1551.7344,765.8906 1551.0938,766.2188 Q1550.4688,766.5469 1549.9688,767.2969 Q1549.4844,768.0469 1549.4844,769.0781 L1549.4844,770.1719 Q1549.4844,771.4063 1550.375,772.2344 Q1551.2656,773.0469 1552.8594,773.0469 Q1553.7969,773.0469 1554.4531,772.7969 Q1554.8438,772.6406 1555.2656,772.2031 Q1555.5313,771.9375 1555.6719,771.8594 Q1555.8281,771.7813 1556.0313,771.7813 Q1556.3594,771.7813 1556.6094,772.0469 Q1556.875,772.2969 1556.875,772.6406 Q1556.875,772.9844 1556.5313,773.3906 Q1556.0313,773.9688 1555.2344,774.2969 Q1554.1563,774.75 1552.8594,774.75 Q1551.3438,774.75 1550.1406,774.125 Q1549.1563,773.625 1548.4688,772.5625 Q1547.7813,771.4844 1547.7813,770.2031 L1547.7813,769.0469 Q1547.7813,767.7188 1548.3906,766.5781 Q1549.0156,765.4219 1550.1094,764.8125 Q1551.2031,764.1875 1552.4375,764.1875 Q1553.1719,764.1875 1553.8125,764.3594 Q1554.4688,764.5156 1555.0156,764.875 Z " fill="#000000"/><text fill="#000000" font-family="sans-serif" font-size="14" lengthAdjust="spacing" textLength="35" x="1572.75" y="773.8535">Class</text><line style="stroke:#181818;stroke-width:0.5;" x1="1465" x2="1683" y1="785" y2="785"/><rect fill="none" height="6" style="stroke:#C82930;stroke-width:1.0;" width="6" x="1472" y="795.3203"/><text fill="#000000" font-family="sans-serif" font-size="14" lengthAdjust="spacing" textLength="51" x="1484" y="801.6738">id: Long</text><rect fill="none" height="6" style="stroke:#C82930;stroke-width:1.0;" width="6" x="1472" y="810.9609"/><text fill="#000000" font-family="sans-serif" font-size="14" lengthAdjust="spacing" textLength="194" x="1484" y="817.3145">// other attributes and methods</text><line style="stroke:#181818;stroke-width:0.5;" x1="1465" x2="1683" y1="824.2813" y2="824.2813"/></g><!--link Teacher to UpadateClassUI--><g id="link_Teacher_UpadateClassUI"><path codeLine="75" d="M1081,118.38 C1081,137.2 1081,158.4 1081,177.76 " fill="none" id="Teacher-UpadateClassUI" style="stroke:#181818;stroke-width:1.0;"/></g><!--link UpadateClassUI to UpdateClassController--><g id="link_UpadateClassUI_UpdateClassController"><path codeLine="76" d="M1081,304.23 C1081,323.68 1081,344.99 1081,363.87 " fill="none" id="UpadateClassUI-UpdateClassController" style="stroke:#181818;stroke-width:1.0;"/></g><!--link UpdateClassController to UpdateClassService--><g id="link_UpdateClassController_UpdateClassService"><path codeLine="77" d="M1056.92,475.36 C1048.71,494.05 1039.42,515.21 1030.76,534.94 " fill="none" id="UpdateClassController-UpdateClassService" style="stroke:#181818;stroke-width:1.0;"/></g><!--link UpdateClassService to UserSession--><g id="link_UpdateClassService_UserSession"><path codeLine="79" d="M889.87,617.73 C741.02,634.07 468.43,670.56 244,737 C229.28,741.36 213.98,746.94 199.31,752.87 " fill="none" id="UpdateClassService-UserSession" style="stroke:#181818;stroke-width:1.0;"/></g><!--link UpdateClassService to SystemUser--><g id="link_UpdateClassService_SystemUser"><path codeLine="80" d="M889.62,630.57 C787.15,653.65 631,691.84 499,737 C491.85,739.45 484.54,742.12 477.21,744.92 " fill="none" id="UpdateClassService-SystemUser" style="stroke:#181818;stroke-width:1.0;"/></g><!--link UpdateClassService to TeacherRepository--><g id="link_UpdateClassService_TeacherRepository"><path codeLine="81" d="M942.81,677.01 C925.59,702.7 908.2,730.84 896.15,752.79 " fill="none" id="UpdateClassService-TeacherRepository" style="stroke:#181818;stroke-width:1.0;"/></g><!--link TeacherRepository to UpdateClassService--><g id="link_TeacherRepository_UpdateClassService"><path codeLine="89" d="M917.99,752.79 C934.14,730.84 952.77,702.7 968.37,677.01 " fill="none" id="TeacherRepository-UpdateClassService" style="stroke:#181818;stroke-width:1.0;"/></g><!--link UpdateClassService to Acronym--><g id="link_UpdateClassService_Acronym"><path codeLine="82" d="M889.85,661.48 C830.45,690.87 758.54,726.43 704.97,752.93 " fill="none" id="UpdateClassService-Acronym" style="stroke:#181818;stroke-width:1.0;"/></g><!--link UpdateClassService to ClassRepository--><g id="link_UpdateClassService_ClassRepository"><path codeLine="83" d="M1110.03,619.68 C1249.78,637.52 1497.38,674.99 1702,737 C1707.51,738.67 1713.1,740.51 1718.72,742.46 " fill="none" id="UpdateClassService-ClassRepository" style="stroke:#181818;stroke-width:1.0;"/></g><!--link UpdateClassService to DayOfTheWeek--><g id="link_UpdateClassService_DayOfTheWeek"><path codeLine="84" d="M1045.16,677.01 C1063.7,705.76 1084.22,737.57 1098.91,760.35 " fill="none" id="UpdateClassService-DayOfTheWeek" style="stroke:#181818;stroke-width:1.0;"/></g><!--link UpdateClassService to Duration--><g id="link_UpdateClassService_Duration"><path codeLine="85" d="M1110.35,667.41 C1167.17,698.52 1234.04,735.13 1280.36,760.49 " fill="none" id="UpdateClassService-Duration" style="stroke:#181818;stroke-width:1.0;"/></g><!--link UpdateClassService to Class--><g id="link_UpdateClassService_Class"><path codeLine="86" d="M1110.22,635.21 C1201.2,659.42 1333.21,696.71 1446,737 C1459.42,741.79 1473.45,747.27 1487.1,752.87 " fill="none" id="UpdateClassService-Class" style="stroke:#181818;stroke-width:1.0;"/></g><!--link ClassRepository to UpdateClassController--><g id="link_ClassRepository_UpdateClassController"><path codeLine="88" d="M1718.96,736.92 C1577.31,666.66 1332.59,545.29 1190.97,475.04 " fill="none" id="ClassRepository-UpdateClassController" style="stroke:#181818;stroke-width:1.0;"/></g><!--SRC=[fLJ1Ri8m3BtdAtBSX11tRXGc3Ma8QQNQEJHcZTOcA4c7ecd_lZGOIaiBL3lQUV5xiP-JvimOkW6MPg3f3w5qJ0MVqZSbFqCWMG5J6bijC0454taZCvbGPQlhpFhajhHWA9ES5c0pnGtv9IGDDCcUSMPXNWN9Ch2DA5TnfWvFpo4eN3XSWImnO_pXWZc3uROKEQ_Y2yYP7ma3UQtbalzCFrVIQfNd-EWZp-h83YUoiiPZ1gGfDSnAJoUjIFqfJmpeLsPcqgrt_n0KW_uMATnGinEIXqpabhoX40DX8h0708anyqhpVADB6ApBloa6OuIIw0dMVdApuBt9nyvOAAfxMA_jeX7DGW-7AfsbMabNODkiEXOSMWNz_mvxPOHLsc6zgkLu5hcNIlBGoc5WdNNzQ72-aSDNt1Yq0PjSkV415ISTVcNMkqq67m1VACBVlZUsHQcPFPdWeHj1NjS_ye1LJh_GUDpwAKZhumY0ZbKctGlUXEEY4TAnV1MojduFelPo3-3AJJqud7hFQSivFQZBkVP1S8YtU0Xf6xMtnzUxqjtVFm00]--></g></svg>