<?xml version="1.0" encoding="us-ascii" standalone="no"?><svg xmlns="http://www.w3.org/2000/svg" xmlns:xlink="http://www.w3.org/1999/xlink" contentStyleType="text/css" height="1715px" preserveAspectRatio="none" style="width:1463px;height:1715px;background:#FFFFFF;" version="1.1" viewBox="0 0 1463 1715" width="1463px" zoomAndPan="magnify"><defs/><g><rect fill="#FFFFFF" height="1515.3203" style="stroke:#181818;stroke-width:1.0;" width="10" x="126" y="111.1641"/><rect fill="#FFFFFF" height="311.6641" style="stroke:#181818;stroke-width:1.0;" width="10" x="271" y="181.2109"/><rect fill="#FFFFFF" height="1013.0391" style="stroke:#181818;stroke-width:1.0;" width="10" x="271" y="604.4453"/><rect fill="#FFFFFF" height="269.1406" style="stroke:#181818;stroke-width:1.0;" width="10" x="429.5" y="209.7344"/><rect fill="#FFFFFF" height="520.2813" style="stroke:#181818;stroke-width:1.0;" width="10" x="429.5" y="1083.2031"/><rect fill="#FFFFFF" height="14" style="stroke:#181818;stroke-width:1.0;" width="10" x="581.5" y="238.2578"/><rect fill="#FFFFFF" height="421.7109" style="stroke:#181818;stroke-width:1.0;" width="10" x="581.5" y="632.9688"/><rect fill="#FFFFFF" height="14" style="stroke:#181818;stroke-width:1.0;" width="10" x="581.5" y="1195.7734"/><rect fill="#FFFFFF" height="14" style="stroke:#181818;stroke-width:1.0;" width="10" x="715.5" y="280.7813"/><rect fill="#FFFFFF" height="14" style="stroke:#181818;stroke-width:1.0;" width="10" x="715.5" y="703.0156"/><rect fill="#FFFFFF" height="14" style="stroke:#181818;stroke-width:1.0;" width="10" x="715.5" y="830.5859"/><rect fill="#FFFFFF" height="14" style="stroke:#181818;stroke-width:1.0;" width="10" x="715.5" y="915.6328"/><rect fill="#FFFFFF" height="14" style="stroke:#181818;stroke-width:1.0;" width="10" x="715.5" y="1238.2969"/><rect fill="#FFFFFF" height="14" style="stroke:#181818;stroke-width:1.0;" width="10" x="816.5" y="323.3047"/><rect fill="#FFFFFF" height="56.5234" style="stroke:#181818;stroke-width:1.0;" width="10" x="816.5" y="745.5391"/><rect fill="#FFFFFF" height="14" style="stroke:#181818;stroke-width:1.0;" width="10" x="816.5" y="873.1094"/><rect fill="#FFFFFF" height="14" style="stroke:#181818;stroke-width:1.0;" width="10" x="816.5" y="1280.8203"/><rect fill="#FFFFFF" height="14" style="stroke:#181818;stroke-width:1.0;" width="10" x="905.5" y="408.3516"/><rect fill="#FFFFFF" height="14" style="stroke:#181818;stroke-width:1.0;" width="10" x="905.5" y="1365.8672"/><rect fill="#FFFFFF" height="14" style="stroke:#181818;stroke-width:1.0;" width="10" x="1013.5" y="365.8281"/><rect fill="#FFFFFF" height="14" style="stroke:#181818;stroke-width:1.0;" width="10" x="1013.5" y="1323.3438"/><rect fill="#FFFFFF" height="14" style="stroke:#181818;stroke-width:1.0;" width="10" x="1141.5" y="450.875"/><rect fill="#FFFFFF" height="14" style="stroke:#181818;stroke-width:1.0;" width="10" x="1141.5" y="1153.25"/><rect fill="#FFFFFF" height="14" style="stroke:#181818;stroke-width:1.0;" width="10" x="1141.5" y="1408.3906"/><rect fill="#FFFFFF" height="14" style="stroke:#181818;stroke-width:1.0;" width="10" x="1141.5" y="1575.4844"/><rect fill="#FFFFFF" height="14" style="stroke:#181818;stroke-width:1.0;" width="10" x="1238" y="774.0625"/><rect fill="#FFFFFF" height="61.5234" style="stroke:#181818;stroke-width:1.0;" width="10" x="1359" y="958.1563"/><line style="stroke:#181818;stroke-width:0.5;stroke-dasharray:5.0,5.0;" x1="34" x2="34" y1="80.6406" y2="1635.4844"/><line style="stroke:#181818;stroke-width:0.5;stroke-dasharray:5.0,5.0;" x1="131" x2="131" y1="80.6406" y2="1635.4844"/><line style="stroke:#181818;stroke-width:0.5;stroke-dasharray:5.0,5.0;" x1="276" x2="276" y1="80.6406" y2="1635.4844"/><line style="stroke:#181818;stroke-width:0.5;stroke-dasharray:5.0,5.0;" x1="434" x2="434" y1="80.6406" y2="1635.4844"/><line style="stroke:#181818;stroke-width:0.5;stroke-dasharray:5.0,5.0;" x1="586" x2="586" y1="80.6406" y2="1635.4844"/><line style="stroke:#181818;stroke-width:0.5;stroke-dasharray:5.0,5.0;" x1="720" x2="720" y1="80.6406" y2="1635.4844"/><line style="stroke:#181818;stroke-width:0.5;stroke-dasharray:5.0,5.0;" x1="821" x2="821" y1="80.6406" y2="1635.4844"/><line style="stroke:#181818;stroke-width:0.5;stroke-dasharray:5.0,5.0;" x1="910" x2="910" y1="80.6406" y2="1635.4844"/><line style="stroke:#181818;stroke-width:0.5;stroke-dasharray:5.0,5.0;" x1="1018" x2="1018" y1="80.6406" y2="1635.4844"/><line style="stroke:#181818;stroke-width:0.5;stroke-dasharray:5.0,5.0;" x1="1146" x2="1146" y1="80.6406" y2="1635.4844"/><line style="stroke:#181818;stroke-width:0.5;stroke-dasharray:5.0,5.0;" x1="1243" x2="1243" y1="80.6406" y2="1635.4844"/><line style="stroke:#181818;stroke-width:0.5;stroke-dasharray:5.0,5.0;" x1="1364" x2="1364" y1="80.6406" y2="1635.4844"/><text fill="#000000" font-family="sans-serif" font-size="14" lengthAdjust="spacing" textLength="53" x="5" y="77.6738">Teacher</text><ellipse cx="34.5" cy="13.5" fill="#E2E2F0" rx="8" ry="8" style="stroke:#181818;stroke-width:0.5;"/><path d="M34.5,21.5 L34.5,48.5 M21.5,29.5 L47.5,29.5 M34.5,48.5 L21.5,63.5 M34.5,48.5 L47.5,63.5 " fill="none" style="stroke:#181818;stroke-width:0.5;"/><text fill="#000000" font-family="sans-serif" font-size="14" lengthAdjust="spacing" textLength="53" x="5" y="1647.1582">Teacher</text><ellipse cx="34.5" cy="1658.625" fill="#E2E2F0" rx="8" ry="8" style="stroke:#181818;stroke-width:0.5;"/><path d="M34.5,1666.625 L34.5,1693.625 M21.5,1674.625 L47.5,1674.625 M34.5,1693.625 L21.5,1708.625 M34.5,1693.625 L47.5,1708.625 " fill="none" style="stroke:#181818;stroke-width:0.5;"/><rect fill="#E2E2F0" height="29.6406" rx="2.5" ry="2.5" style="stroke:#181818;stroke-width:0.5;" width="114" x="74" y="50"/><text fill="#000000" font-family="sans-serif" font-size="14" lengthAdjust="spacing" textLength="100" x="81" y="69.6738">UpadateClassUI</text><rect fill="#E2E2F0" height="29.6406" rx="2.5" ry="2.5" style="stroke:#181818;stroke-width:0.5;" width="114" x="74" y="1634.4844"/><text fill="#000000" font-family="sans-serif" font-size="14" lengthAdjust="spacing" textLength="100" x="81" y="1654.1582">UpadateClassUI</text><rect fill="#E2E2F0" height="29.6406" rx="2.5" ry="2.5" style="stroke:#181818;stroke-width:0.5;" width="156" x="198" y="50"/><text fill="#000000" font-family="sans-serif" font-size="14" lengthAdjust="spacing" textLength="142" x="205" y="69.6738">UpdateClassController</text><rect fill="#E2E2F0" height="29.6406" rx="2.5" ry="2.5" style="stroke:#181818;stroke-width:0.5;" width="156" x="198" y="1634.4844"/><text fill="#000000" font-family="sans-serif" font-size="14" lengthAdjust="spacing" textLength="142" x="205" y="1654.1582">UpdateClassController</text><rect fill="#E2E2F0" height="29.6406" rx="2.5" ry="2.5" style="stroke:#181818;stroke-width:0.5;" width="141" x="364" y="50"/><text fill="#000000" font-family="sans-serif" font-size="14" lengthAdjust="spacing" textLength="127" x="371" y="69.6738">UpdateClassService</text><rect fill="#E2E2F0" height="29.6406" rx="2.5" ry="2.5" style="stroke:#181818;stroke-width:0.5;" width="141" x="364" y="1634.4844"/><text fill="#000000" font-family="sans-serif" font-size="14" lengthAdjust="spacing" textLength="127" x="371" y="1654.1582">UpdateClassService</text><rect fill="#E2E2F0" height="29.6406" rx="2.5" ry="2.5" style="stroke:#181818;stroke-width:0.5;" width="143" x="515" y="50"/><text fill="#000000" font-family="sans-serif" font-size="14" lengthAdjust="spacing" textLength="129" x="522" y="69.6738">AuthorizationService</text><rect fill="#E2E2F0" height="29.6406" rx="2.5" ry="2.5" style="stroke:#181818;stroke-width:0.5;" width="143" x="515" y="1634.4844"/><text fill="#000000" font-family="sans-serif" font-size="14" lengthAdjust="spacing" textLength="129" x="522" y="1654.1582">AuthorizationService</text><rect fill="#E2E2F0" height="29.6406" rx="2.5" ry="2.5" style="stroke:#181818;stroke-width:0.5;" width="93" x="674" y="50"/><text fill="#000000" font-family="sans-serif" font-size="14" lengthAdjust="spacing" textLength="79" x="681" y="69.6738">UserSession</text><rect fill="#E2E2F0" height="29.6406" rx="2.5" ry="2.5" style="stroke:#181818;stroke-width:0.5;" width="93" x="674" y="1634.4844"/><text fill="#000000" font-family="sans-serif" font-size="14" lengthAdjust="spacing" textLength="79" x="681" y="1654.1582">UserSession</text><rect fill="#E2E2F0" height="29.6406" rx="2.5" ry="2.5" style="stroke:#181818;stroke-width:0.5;" width="89" x="777" y="50"/><text fill="#000000" font-family="sans-serif" font-size="14" lengthAdjust="spacing" textLength="75" x="784" y="69.6738">SystemUser</text><rect fill="#E2E2F0" height="29.6406" rx="2.5" ry="2.5" style="stroke:#181818;stroke-width:0.5;" width="89" x="777" y="1634.4844"/><text fill="#000000" font-family="sans-serif" font-size="14" lengthAdjust="spacing" textLength="75" x="784" y="1654.1582">SystemUser</text><rect fill="#E2E2F0" height="29.6406" rx="2.5" ry="2.5" style="stroke:#181818;stroke-width:0.5;" width="69" x="876" y="50"/><text fill="#000000" font-family="sans-serif" font-size="14" lengthAdjust="spacing" textLength="55" x="883" y="69.6738">Acronym</text><rect fill="#E2E2F0" height="29.6406" rx="2.5" ry="2.5" style="stroke:#181818;stroke-width:0.5;" width="69" x="876" y="1634.4844"/><text fill="#000000" font-family="sans-serif" font-size="14" lengthAdjust="spacing" textLength="55" x="883" y="1654.1582">Acronym</text><text fill="#000000" font-family="sans-serif" font-size="14" lengthAdjust="spacing" textLength="121" x="955" y="77.6738">TeacherRepository</text><path d="M1000.5,29 C1000.5,19 1018.5,19 1018.5,19 C1018.5,19 1036.5,19 1036.5,29 L1036.5,55 C1036.5,65 1018.5,65 1018.5,65 C1018.5,65 1000.5,65 1000.5,55 L1000.5,29 " fill="#E2E2F0" style="stroke:#181818;stroke-width:1.5;"/><path d="M1000.5,29 C1000.5,39 1018.5,39 1018.5,39 C1018.5,39 1036.5,39 1036.5,29 " fill="none" style="stroke:#181818;stroke-width:1.5;"/><text fill="#000000" font-family="sans-serif" font-size="14" lengthAdjust="spacing" textLength="121" x="955" y="1647.1582">TeacherRepository</text><path d="M1000.5,1660.125 C1000.5,1650.125 1018.5,1650.125 1018.5,1650.125 C1018.5,1650.125 1036.5,1650.125 1036.5,1660.125 L1036.5,1686.125 C1036.5,1696.125 1018.5,1696.125 1018.5,1696.125 C1018.5,1696.125 1000.5,1696.125 1000.5,1686.125 L1000.5,1660.125 " fill="#E2E2F0" style="stroke:#181818;stroke-width:1.5;"/><path d="M1000.5,1660.125 C1000.5,1670.125 1018.5,1670.125 1018.5,1670.125 C1018.5,1670.125 1036.5,1670.125 1036.5,1660.125 " fill="none" style="stroke:#181818;stroke-width:1.5;"/><text fill="#000000" font-family="sans-serif" font-size="14" lengthAdjust="spacing" textLength="103" x="1092" y="77.6738">ClassRepository</text><path d="M1128.5,29 C1128.5,19 1146.5,19 1146.5,19 C1146.5,19 1164.5,19 1164.5,29 L1164.5,55 C1164.5,65 1146.5,65 1146.5,65 C1146.5,65 1128.5,65 1128.5,55 L1128.5,29 " fill="#E2E2F0" style="stroke:#181818;stroke-width:1.5;"/><path d="M1128.5,29 C1128.5,39 1146.5,39 1146.5,39 C1146.5,39 1164.5,39 1164.5,29 " fill="none" style="stroke:#181818;stroke-width:1.5;"/><text fill="#000000" font-family="sans-serif" font-size="14" lengthAdjust="spacing" textLength="103" x="1092" y="1647.1582">ClassRepository</text><path d="M1128.5,1660.125 C1128.5,1650.125 1146.5,1650.125 1146.5,1650.125 C1146.5,1650.125 1164.5,1650.125 1164.5,1660.125 L1164.5,1686.125 C1164.5,1696.125 1146.5,1696.125 1146.5,1696.125 C1146.5,1696.125 1128.5,1696.125 1128.5,1686.125 L1128.5,1660.125 " fill="#E2E2F0" style="stroke:#181818;stroke-width:1.5;"/><path d="M1128.5,1660.125 C1128.5,1670.125 1146.5,1670.125 1146.5,1670.125 C1146.5,1670.125 1164.5,1670.125 1164.5,1660.125 " fill="none" style="stroke:#181818;stroke-width:1.5;"/><rect fill="#E2E2F0" height="29.6406" rx="2.5" ry="2.5" style="stroke:#181818;stroke-width:0.5;" width="64" x="1211" y="50"/><text fill="#000000" font-family="sans-serif" font-size="14" lengthAdjust="spacing" textLength="50" x="1218" y="69.6738">RoleSet</text><rect fill="#E2E2F0" height="29.6406" rx="2.5" ry="2.5" style="stroke:#181818;stroke-width:0.5;" width="64" x="1211" y="1634.4844"/><text fill="#000000" font-family="sans-serif" font-size="14" lengthAdjust="spacing" textLength="50" x="1218" y="1654.1582">RoleSet</text><rect fill="#E2E2F0" height="29.6406" rx="2.5" ry="2.5" style="stroke:#181818;stroke-width:0.5;" width="158" x="1285" y="50"/><text fill="#000000" font-family="sans-serif" font-size="14" lengthAdjust="spacing" textLength="144" x="1292" y="69.6738">UnauthorizedException</text><rect fill="#E2E2F0" height="29.6406" rx="2.5" ry="2.5" style="stroke:#181818;stroke-width:0.5;" width="158" x="1285" y="1634.4844"/><text fill="#000000" font-family="sans-serif" font-size="14" lengthAdjust="spacing" textLength="144" x="1292" y="1654.1582">UnauthorizedException</text><rect fill="#FFFFFF" height="1515.3203" style="stroke:#181818;stroke-width:1.0;" width="10" x="126" y="111.1641"/><rect fill="#FFFFFF" height="311.6641" style="stroke:#181818;stroke-width:1.0;" width="10" x="271" y="181.2109"/><rect fill="#FFFFFF" height="1013.0391" style="stroke:#181818;stroke-width:1.0;" width="10" x="271" y="604.4453"/><rect fill="#FFFFFF" height="269.1406" style="stroke:#181818;stroke-width:1.0;" width="10" x="429.5" y="209.7344"/><rect fill="#FFFFFF" height="520.2813" style="stroke:#181818;stroke-width:1.0;" width="10" x="429.5" y="1083.2031"/><rect fill="#FFFFFF" height="14" style="stroke:#181818;stroke-width:1.0;" width="10" x="581.5" y="238.2578"/><rect fill="#FFFFFF" height="421.7109" style="stroke:#181818;stroke-width:1.0;" width="10" x="581.5" y="632.9688"/><rect fill="#FFFFFF" height="14" style="stroke:#181818;stroke-width:1.0;" width="10" x="581.5" y="1195.7734"/><rect fill="#FFFFFF" height="14" style="stroke:#181818;stroke-width:1.0;" width="10" x="715.5" y="280.7813"/><rect fill="#FFFFFF" height="14" style="stroke:#181818;stroke-width:1.0;" width="10" x="715.5" y="703.0156"/><rect fill="#FFFFFF" height="14" style="stroke:#181818;stroke-width:1.0;" width="10" x="715.5" y="830.5859"/><rect fill="#FFFFFF" height="14" style="stroke:#181818;stroke-width:1.0;" width="10" x="715.5" y="915.6328"/><rect fill="#FFFFFF" height="14" style="stroke:#181818;stroke-width:1.0;" width="10" x="715.5" y="1238.2969"/><rect fill="#FFFFFF" height="14" style="stroke:#181818;stroke-width:1.0;" width="10" x="816.5" y="323.3047"/><rect fill="#FFFFFF" height="56.5234" style="stroke:#181818;stroke-width:1.0;" width="10" x="816.5" y="745.5391"/><rect fill="#FFFFFF" height="14" style="stroke:#181818;stroke-width:1.0;" width="10" x="816.5" y="873.1094"/><rect fill="#FFFFFF" height="14" style="stroke:#181818;stroke-width:1.0;" width="10" x="816.5" y="1280.8203"/><rect fill="#FFFFFF" height="14" style="stroke:#181818;stroke-width:1.0;" width="10" x="905.5" y="408.3516"/><rect fill="#FFFFFF" height="14" style="stroke:#181818;stroke-width:1.0;" width="10" x="905.5" y="1365.8672"/><rect fill="#FFFFFF" height="14" style="stroke:#181818;stroke-width:1.0;" width="10" x="1013.5" y="365.8281"/><rect fill="#FFFFFF" height="14" style="stroke:#181818;stroke-width:1.0;" width="10" x="1013.5" y="1323.3438"/><rect fill="#FFFFFF" height="14" style="stroke:#181818;stroke-width:1.0;" width="10" x="1141.5" y="450.875"/><rect fill="#FFFFFF" height="14" style="stroke:#181818;stroke-width:1.0;" width="10" x="1141.5" y="1153.25"/><rect fill="#FFFFFF" height="14" style="stroke:#181818;stroke-width:1.0;" width="10" x="1141.5" y="1408.3906"/><rect fill="#FFFFFF" height="14" style="stroke:#181818;stroke-width:1.0;" width="10" x="1141.5" y="1575.4844"/><rect fill="#FFFFFF" height="14" style="stroke:#181818;stroke-width:1.0;" width="10" x="1238" y="774.0625"/><rect fill="#FFFFFF" height="61.5234" style="stroke:#181818;stroke-width:1.0;" width="10" x="1359" y="958.1563"/><polygon fill="#181818" points="114,107.1641,124,111.1641,114,115.1641,118,111.1641" style="stroke:#181818;stroke-width:1.0;"/><line style="stroke:#181818;stroke-width:1.0;" x1="34.5" x2="120" y1="111.1641" y2="111.1641"/><text fill="#000000" font-family="sans-serif" font-size="13" lengthAdjust="spacing" textLength="46" x="41.5" y="106.4092">doShow</text><line style="stroke:#181818;stroke-width:1.0;" x1="136" x2="178" y1="139.6875" y2="139.6875"/><line style="stroke:#181818;stroke-width:1.0;" x1="178" x2="178" y1="139.6875" y2="152.6875"/><line style="stroke:#181818;stroke-width:1.0;" x1="137" x2="178" y1="152.6875" y2="152.6875"/><polygon fill="#181818" points="147,148.6875,137,152.6875,147,156.6875,143,152.6875" style="stroke:#181818;stroke-width:1.0;"/><text fill="#000000" font-family="sans-serif" font-size="13" lengthAdjust="spacing" textLength="83" x="143" y="134.9326">myClassMenu</text><polygon fill="#181818" points="259,177.2109,269,181.2109,259,185.2109,263,181.2109" style="stroke:#181818;stroke-width:1.0;"/><line style="stroke:#181818;stroke-width:1.0;" x1="136" x2="265" y1="181.2109" y2="181.2109"/><text fill="#000000" font-family="sans-serif" font-size="13" lengthAdjust="spacing" textLength="95" x="143" y="176.4561">showMyClasses</text><polygon fill="#181818" points="417.5,205.7344,427.5,209.7344,417.5,213.7344,421.5,209.7344" style="stroke:#181818;stroke-width:1.0;"/><line style="stroke:#181818;stroke-width:1.0;" x1="281" x2="423.5" y1="209.7344" y2="209.7344"/><text fill="#000000" font-family="sans-serif" font-size="13" lengthAdjust="spacing" textLength="95" x="288" y="204.9795">showMyClasses</text><polygon fill="#181818" points="569.5,234.2578,579.5,238.2578,569.5,242.2578,573.5,238.2578" style="stroke:#181818;stroke-width:1.0;"/><line style="stroke:#181818;stroke-width:1.0;" x1="439.5" x2="575.5" y1="238.2578" y2="238.2578"/><text fill="#000000" font-family="sans-serif" font-size="13" lengthAdjust="spacing" textLength="45" x="446.5" y="233.5029">session</text><polygon fill="#181818" points="450.5,248.2578,440.5,252.2578,450.5,256.2578,446.5,252.2578" style="stroke:#181818;stroke-width:1.0;"/><line style="stroke:#181818;stroke-width:1.0;stroke-dasharray:2.0,2.0;" x1="444.5" x2="585.5" y1="252.2578" y2="252.2578"/><polygon fill="#181818" points="703.5,276.7813,713.5,280.7813,703.5,284.7813,707.5,280.7813" style="stroke:#181818;stroke-width:1.0;"/><line style="stroke:#181818;stroke-width:1.0;" x1="439.5" x2="709.5" y1="280.7813" y2="280.7813"/><text fill="#000000" font-family="sans-serif" font-size="13" lengthAdjust="spacing" textLength="105" x="446.5" y="276.0264">authenticatedUser</text><polygon fill="#181818" points="450.5,290.7813,440.5,294.7813,450.5,298.7813,446.5,294.7813" style="stroke:#181818;stroke-width:1.0;"/><line style="stroke:#181818;stroke-width:1.0;stroke-dasharray:2.0,2.0;" x1="444.5" x2="719.5" y1="294.7813" y2="294.7813"/><polygon fill="#181818" points="804.5,319.3047,814.5,323.3047,804.5,327.3047,808.5,323.3047" style="stroke:#181818;stroke-width:1.0;"/><line style="stroke:#181818;stroke-width:1.0;" x1="439.5" x2="810.5" y1="323.3047" y2="323.3047"/><text fill="#000000" font-family="sans-serif" font-size="13" lengthAdjust="spacing" textLength="31" x="446.5" y="318.5498">email</text><polygon fill="#181818" points="450.5,333.3047,440.5,337.3047,450.5,341.3047,446.5,337.3047" style="stroke:#181818;stroke-width:1.0;"/><line style="stroke:#181818;stroke-width:1.0;stroke-dasharray:2.0,2.0;" x1="444.5" x2="820.5" y1="337.3047" y2="337.3047"/><polygon fill="#181818" points="1001.5,361.8281,1011.5,365.8281,1001.5,369.8281,1005.5,365.8281" style="stroke:#181818;stroke-width:1.0;"/><line style="stroke:#181818;stroke-width:1.0;" x1="439.5" x2="1007.5" y1="365.8281" y2="365.8281"/><text fill="#000000" font-family="sans-serif" font-size="13" lengthAdjust="spacing" textLength="115" x="446.5" y="361.0732">findTeacherByEmail</text><polygon fill="#181818" points="450.5,375.8281,440.5,379.8281,450.5,383.8281,446.5,379.8281" style="stroke:#181818;stroke-width:1.0;"/><line style="stroke:#181818;stroke-width:1.0;stroke-dasharray:2.0,2.0;" x1="444.5" x2="1017.5" y1="379.8281" y2="379.8281"/><polygon fill="#181818" points="893.5,404.3516,903.5,408.3516,893.5,412.3516,897.5,408.3516" style="stroke:#181818;stroke-width:1.0;"/><line style="stroke:#181818;stroke-width:1.0;" x1="439.5" x2="899.5" y1="408.3516" y2="408.3516"/><text fill="#000000" font-family="sans-serif" font-size="13" lengthAdjust="spacing" textLength="45" x="446.5" y="403.5967">toString</text><polygon fill="#181818" points="450.5,418.3516,440.5,422.3516,450.5,426.3516,446.5,422.3516" style="stroke:#181818;stroke-width:1.0;"/><line style="stroke:#181818;stroke-width:1.0;stroke-dasharray:2.0,2.0;" x1="444.5" x2="909.5" y1="422.3516" y2="422.3516"/><polygon fill="#181818" points="1129.5,446.875,1139.5,450.875,1129.5,454.875,1133.5,450.875" style="stroke:#181818;stroke-width:1.0;"/><line style="stroke:#181818;stroke-width:1.0;" x1="439.5" x2="1135.5" y1="450.875" y2="450.875"/><text fill="#000000" font-family="sans-serif" font-size="13" lengthAdjust="spacing" textLength="150" x="446.5" y="446.1201">findAllClassesByAcronym</text><polygon fill="#181818" points="450.5,460.875,440.5,464.875,450.5,468.875,446.5,464.875" style="stroke:#181818;stroke-width:1.0;"/><line style="stroke:#181818;stroke-width:1.0;stroke-dasharray:2.0,2.0;" x1="444.5" x2="1145.5" y1="464.875" y2="464.875"/><polygon fill="#181818" points="292,474.875,282,478.875,292,482.875,288,478.875" style="stroke:#181818;stroke-width:1.0;"/><line style="stroke:#181818;stroke-width:1.0;stroke-dasharray:2.0,2.0;" x1="286" x2="433.5" y1="478.875" y2="478.875"/><polygon fill="#181818" points="147,488.875,137,492.875,147,496.875,143,492.875" style="stroke:#181818;stroke-width:1.0;"/><line style="stroke:#181818;stroke-width:1.0;stroke-dasharray:2.0,2.0;" x1="141" x2="275" y1="492.875" y2="492.875"/><line style="stroke:#181818;stroke-width:1.0;" x1="136" x2="178" y1="521.3984" y2="521.3984"/><line style="stroke:#181818;stroke-width:1.0;" x1="178" x2="178" y1="521.3984" y2="534.3984"/><line style="stroke:#181818;stroke-width:1.0;" x1="137" x2="178" y1="534.3984" y2="534.3984"/><polygon fill="#181818" points="147,530.3984,137,534.3984,147,538.3984,143,534.3984" style="stroke:#181818;stroke-width:1.0;"/><text fill="#000000" font-family="sans-serif" font-size="13" lengthAdjust="spacing" textLength="60" x="143" y="516.6436">showDays</text><line style="stroke:#181818;stroke-width:1.0;" x1="136" x2="178" y1="562.9219" y2="562.9219"/><line style="stroke:#181818;stroke-width:1.0;" x1="178" x2="178" y1="562.9219" y2="575.9219"/><line style="stroke:#181818;stroke-width:1.0;" x1="137" x2="178" y1="575.9219" y2="575.9219"/><polygon fill="#181818" points="147,571.9219,137,575.9219,147,579.9219,143,575.9219" style="stroke:#181818;stroke-width:1.0;"/><text fill="#000000" font-family="sans-serif" font-size="13" lengthAdjust="spacing" textLength="89" x="143" y="558.167">buildDaysMenu</text><polygon fill="#181818" points="259,600.4453,269,604.4453,259,608.4453,263,604.4453" style="stroke:#181818;stroke-width:1.0;"/><line style="stroke:#181818;stroke-width:1.0;" x1="136" x2="265" y1="604.4453" y2="604.4453"/><text fill="#000000" font-family="sans-serif" font-size="13" lengthAdjust="spacing" textLength="72" x="143" y="599.6904">updateClass</text><polygon fill="#181818" points="569.5,628.9688,579.5,632.9688,569.5,636.9688,573.5,632.9688" style="stroke:#181818;stroke-width:1.0;"/><line style="stroke:#181818;stroke-width:1.0;" x1="281" x2="575.5" y1="632.9688" y2="632.9688"/><text fill="#000000" font-family="sans-serif" font-size="13" lengthAdjust="spacing" textLength="205" x="288" y="628.2139">ensureAuthenticatedUserHasAnyOf</text><line style="stroke:#181818;stroke-width:1.0;" x1="591.5" x2="633.5" y1="661.4922" y2="661.4922"/><line style="stroke:#181818;stroke-width:1.0;" x1="633.5" x2="633.5" y1="661.4922" y2="674.4922"/><line style="stroke:#181818;stroke-width:1.0;" x1="592.5" x2="633.5" y1="674.4922" y2="674.4922"/><polygon fill="#181818" points="602.5,670.4922,592.5,674.4922,602.5,678.4922,598.5,674.4922" style="stroke:#181818;stroke-width:1.0;"/><text fill="#000000" font-family="sans-serif" font-size="13" lengthAdjust="spacing" textLength="45" x="598.5" y="656.7373">session</text><polygon fill="#181818" points="703.5,699.0156,713.5,703.0156,703.5,707.0156,707.5,703.0156" style="stroke:#181818;stroke-width:1.0;"/><line style="stroke:#181818;stroke-width:1.0;" x1="591.5" x2="709.5" y1="703.0156" y2="703.0156"/><text fill="#000000" font-family="sans-serif" font-size="13" lengthAdjust="spacing" textLength="105" x="598.5" y="698.2607">authenticatedUser</text><polygon fill="#181818" points="602.5,713.0156,592.5,717.0156,602.5,721.0156,598.5,717.0156" style="stroke:#181818;stroke-width:1.0;"/><line style="stroke:#181818;stroke-width:1.0;stroke-dasharray:2.0,2.0;" x1="596.5" x2="719.5" y1="717.0156" y2="717.0156"/><polygon fill="#181818" points="804.5,741.5391,814.5,745.5391,804.5,749.5391,808.5,745.5391" style="stroke:#181818;stroke-width:1.0;"/><line style="stroke:#181818;stroke-width:1.0;" x1="591.5" x2="810.5" y1="745.5391" y2="745.5391"/><text fill="#000000" font-family="sans-serif" font-size="13" lengthAdjust="spacing" textLength="44" x="598.5" y="740.7842">hasAny</text><polygon fill="#181818" points="1226,770.0625,1236,774.0625,1226,778.0625,1230,774.0625" style="stroke:#181818;stroke-width:1.0;"/><line style="stroke:#181818;stroke-width:1.0;" x1="826.5" x2="1232" y1="774.0625" y2="774.0625"/><text fill="#000000" font-family="sans-serif" font-size="13" lengthAdjust="spacing" textLength="90" x="833.5" y="769.3076">hasAssignment</text><polygon fill="#181818" points="837.5,784.0625,827.5,788.0625,837.5,792.0625,833.5,788.0625" style="stroke:#181818;stroke-width:1.0;"/><line style="stroke:#181818;stroke-width:1.0;stroke-dasharray:2.0,2.0;" x1="831.5" x2="1242" y1="788.0625" y2="788.0625"/><polygon fill="#181818" points="602.5,798.0625,592.5,802.0625,602.5,806.0625,598.5,802.0625" style="stroke:#181818;stroke-width:1.0;"/><line style="stroke:#181818;stroke-width:1.0;stroke-dasharray:2.0,2.0;" x1="596.5" x2="820.5" y1="802.0625" y2="802.0625"/><polygon fill="#181818" points="703.5,826.5859,713.5,830.5859,703.5,834.5859,707.5,830.5859" style="stroke:#181818;stroke-width:1.0;"/><line style="stroke:#181818;stroke-width:1.0;" x1="591.5" x2="709.5" y1="830.5859" y2="830.5859"/><text fill="#000000" font-family="sans-serif" font-size="13" lengthAdjust="spacing" textLength="105" x="598.5" y="825.8311">authenticatedUser</text><polygon fill="#181818" points="602.5,840.5859,592.5,844.5859,602.5,848.5859,598.5,844.5859" style="stroke:#181818;stroke-width:1.0;"/><line style="stroke:#181818;stroke-width:1.0;stroke-dasharray:2.0,2.0;" x1="596.5" x2="719.5" y1="844.5859" y2="844.5859"/><polygon fill="#181818" points="804.5,869.1094,814.5,873.1094,804.5,877.1094,808.5,873.1094" style="stroke:#181818;stroke-width:1.0;"/><line style="stroke:#181818;stroke-width:1.0;" x1="591.5" x2="810.5" y1="873.1094" y2="873.1094"/><text fill="#000000" font-family="sans-serif" font-size="13" lengthAdjust="spacing" textLength="31" x="598.5" y="868.3545">email</text><polygon fill="#181818" points="602.5,883.1094,592.5,887.1094,602.5,891.1094,598.5,887.1094" style="stroke:#181818;stroke-width:1.0;"/><line style="stroke:#181818;stroke-width:1.0;stroke-dasharray:2.0,2.0;" x1="596.5" x2="820.5" y1="887.1094" y2="887.1094"/><polygon fill="#181818" points="703.5,911.6328,713.5,915.6328,703.5,919.6328,707.5,915.6328" style="stroke:#181818;stroke-width:1.0;"/><line style="stroke:#181818;stroke-width:1.0;" x1="591.5" x2="709.5" y1="915.6328" y2="915.6328"/><text fill="#000000" font-family="sans-serif" font-size="13" lengthAdjust="spacing" textLength="105" x="598.5" y="910.8779">authenticatedUser</text><polygon fill="#181818" points="602.5,925.6328,592.5,929.6328,602.5,933.6328,598.5,929.6328" style="stroke:#181818;stroke-width:1.0;"/><line style="stroke:#181818;stroke-width:1.0;stroke-dasharray:2.0,2.0;" x1="596.5" x2="719.5" y1="929.6328" y2="929.6328"/><polygon fill="#181818" points="1347,954.1563,1357,958.1563,1347,962.1563,1351,958.1563" style="stroke:#181818;stroke-width:1.0;"/><line style="stroke:#181818;stroke-width:1.0;" x1="591.5" x2="1353" y1="958.1563" y2="958.1563"/><text fill="#000000" font-family="sans-serif" font-size="13" lengthAdjust="spacing" textLength="23" x="598.5" y="953.4014">new</text><line style="stroke:#181818;stroke-width:1.0;" x1="1369" x2="1411" y1="986.6797" y2="986.6797"/><line style="stroke:#181818;stroke-width:1.0;" x1="1411" x2="1411" y1="986.6797" y2="999.6797"/><line style="stroke:#181818;stroke-width:1.0;" x1="1370" x2="1411" y1="999.6797" y2="999.6797"/><polygon fill="#181818" points="1380,995.6797,1370,999.6797,1380,1003.6797,1376,999.6797" style="stroke:#181818;stroke-width:1.0;"/><text fill="#000000" font-family="sans-serif" font-size="13" lengthAdjust="spacing" textLength="80" x="1376" y="981.9248">buildMessage</text><line style="stroke:#181818;stroke-width:1.0;stroke-dasharray:2.0,2.0;" x1="1369" x2="1411" y1="1018.6797" y2="1018.6797"/><line style="stroke:#181818;stroke-width:1.0;stroke-dasharray:2.0,2.0;" x1="1411" x2="1411" y1="1018.6797" y2="1031.6797"/><line style="stroke:#181818;stroke-width:1.0;stroke-dasharray:2.0,2.0;" x1="1364" x2="1411" y1="1031.6797" y2="1031.6797"/><polygon fill="#181818" points="1374,1027.6797,1364,1031.6797,1374,1035.6797,1370,1031.6797" style="stroke:#181818;stroke-width:1.0;"/><polygon fill="#181818" points="602.5,1036.6797,592.5,1040.6797,602.5,1044.6797,598.5,1040.6797" style="stroke:#181818;stroke-width:1.0;"/><line style="stroke:#181818;stroke-width:1.0;stroke-dasharray:2.0,2.0;" x1="596.5" x2="1363" y1="1040.6797" y2="1040.6797"/><polygon fill="#181818" points="292,1050.6797,282,1054.6797,292,1058.6797,288,1054.6797" style="stroke:#181818;stroke-width:1.0;"/><line style="stroke:#181818;stroke-width:1.0;stroke-dasharray:2.0,2.0;" x1="286" x2="585.5" y1="1054.6797" y2="1054.6797"/><polygon fill="#181818" points="417.5,1079.2031,427.5,1083.2031,417.5,1087.2031,421.5,1083.2031" style="stroke:#181818;stroke-width:1.0;"/><line style="stroke:#181818;stroke-width:1.0;" x1="281" x2="423.5" y1="1083.2031" y2="1083.2031"/><text fill="#000000" font-family="sans-serif" font-size="13" lengthAdjust="spacing" textLength="39" x="288" y="1078.4482">update</text><line style="stroke:#181818;stroke-width:1.0;" x1="439.5" x2="481.5" y1="1111.7266" y2="1111.7266"/><line style="stroke:#181818;stroke-width:1.0;" x1="481.5" x2="481.5" y1="1111.7266" y2="1124.7266"/><line style="stroke:#181818;stroke-width:1.0;" x1="440.5" x2="481.5" y1="1124.7266" y2="1124.7266"/><polygon fill="#181818" points="450.5,1120.7266,440.5,1124.7266,450.5,1128.7266,446.5,1124.7266" style="stroke:#181818;stroke-width:1.0;"/><text fill="#000000" font-family="sans-serif" font-size="13" lengthAdjust="spacing" textLength="79" x="446.5" y="1106.9717">findClassById</text><polygon fill="#181818" points="1129.5,1149.25,1139.5,1153.25,1129.5,1157.25,1133.5,1153.25" style="stroke:#181818;stroke-width:1.0;"/><line style="stroke:#181818;stroke-width:1.0;" x1="439.5" x2="1135.5" y1="1153.25" y2="1153.25"/><text fill="#000000" font-family="sans-serif" font-size="13" lengthAdjust="spacing" textLength="79" x="446.5" y="1148.4951">findClassById</text><polygon fill="#181818" points="450.5,1163.25,440.5,1167.25,450.5,1171.25,446.5,1167.25" style="stroke:#181818;stroke-width:1.0;"/><line style="stroke:#181818;stroke-width:1.0;stroke-dasharray:2.0,2.0;" x1="444.5" x2="1145.5" y1="1167.25" y2="1167.25"/><polygon fill="#181818" points="569.5,1191.7734,579.5,1195.7734,569.5,1199.7734,573.5,1195.7734" style="stroke:#181818;stroke-width:1.0;"/><line style="stroke:#181818;stroke-width:1.0;" x1="439.5" x2="575.5" y1="1195.7734" y2="1195.7734"/><text fill="#000000" font-family="sans-serif" font-size="13" lengthAdjust="spacing" textLength="45" x="446.5" y="1191.0186">session</text><polygon fill="#181818" points="450.5,1205.7734,440.5,1209.7734,450.5,1213.7734,446.5,1209.7734" style="stroke:#181818;stroke-width:1.0;"/><line style="stroke:#181818;stroke-width:1.0;stroke-dasharray:2.0,2.0;" x1="444.5" x2="585.5" y1="1209.7734" y2="1209.7734"/><polygon fill="#181818" points="703.5,1234.2969,713.5,1238.2969,703.5,1242.2969,707.5,1238.2969" style="stroke:#181818;stroke-width:1.0;"/><line style="stroke:#181818;stroke-width:1.0;" x1="439.5" x2="709.5" y1="1238.2969" y2="1238.2969"/><text fill="#000000" font-family="sans-serif" font-size="13" lengthAdjust="spacing" textLength="105" x="446.5" y="1233.542">authenticatedUser</text><polygon fill="#181818" points="450.5,1248.2969,440.5,1252.2969,450.5,1256.2969,446.5,1252.2969" style="stroke:#181818;stroke-width:1.0;"/><line style="stroke:#181818;stroke-width:1.0;stroke-dasharray:2.0,2.0;" x1="444.5" x2="719.5" y1="1252.2969" y2="1252.2969"/><polygon fill="#181818" points="804.5,1276.8203,814.5,1280.8203,804.5,1284.8203,808.5,1280.8203" style="stroke:#181818;stroke-width:1.0;"/><line style="stroke:#181818;stroke-width:1.0;" x1="439.5" x2="810.5" y1="1280.8203" y2="1280.8203"/><text fill="#000000" font-family="sans-serif" font-size="13" lengthAdjust="spacing" textLength="31" x="446.5" y="1276.0654">email</text><polygon fill="#181818" points="450.5,1290.8203,440.5,1294.8203,450.5,1298.8203,446.5,1294.8203" style="stroke:#181818;stroke-width:1.0;"/><line style="stroke:#181818;stroke-width:1.0;stroke-dasharray:2.0,2.0;" x1="444.5" x2="820.5" y1="1294.8203" y2="1294.8203"/><polygon fill="#181818" points="1001.5,1319.3438,1011.5,1323.3438,1001.5,1327.3438,1005.5,1323.3438" style="stroke:#181818;stroke-width:1.0;"/><line style="stroke:#181818;stroke-width:1.0;" x1="439.5" x2="1007.5" y1="1323.3438" y2="1323.3438"/><text fill="#000000" font-family="sans-serif" font-size="13" lengthAdjust="spacing" textLength="115" x="446.5" y="1318.5889">findTeacherByEmail</text><polygon fill="#181818" points="450.5,1333.3438,440.5,1337.3438,450.5,1341.3438,446.5,1337.3438" style="stroke:#181818;stroke-width:1.0;"/><line style="stroke:#181818;stroke-width:1.0;stroke-dasharray:2.0,2.0;" x1="444.5" x2="1017.5" y1="1337.3438" y2="1337.3438"/><polygon fill="#181818" points="893.5,1361.8672,903.5,1365.8672,893.5,1369.8672,897.5,1365.8672" style="stroke:#181818;stroke-width:1.0;"/><line style="stroke:#181818;stroke-width:1.0;" x1="439.5" x2="899.5" y1="1365.8672" y2="1365.8672"/><text fill="#000000" font-family="sans-serif" font-size="13" lengthAdjust="spacing" textLength="45" x="446.5" y="1361.1123">toString</text><polygon fill="#181818" points="450.5,1375.8672,440.5,1379.8672,450.5,1383.8672,446.5,1379.8672" style="stroke:#181818;stroke-width:1.0;"/><line style="stroke:#181818;stroke-width:1.0;stroke-dasharray:2.0,2.0;" x1="444.5" x2="909.5" y1="1379.8672" y2="1379.8672"/><polygon fill="#181818" points="1129.5,1404.3906,1139.5,1408.3906,1129.5,1412.3906,1133.5,1408.3906" style="stroke:#181818;stroke-width:1.0;"/><line style="stroke:#181818;stroke-width:1.0;" x1="439.5" x2="1135.5" y1="1408.3906" y2="1408.3906"/><text fill="#000000" font-family="sans-serif" font-size="13" lengthAdjust="spacing" textLength="150" x="446.5" y="1403.6357">findAllClassesByAcronym</text><polygon fill="#181818" points="450.5,1418.3906,440.5,1422.3906,450.5,1426.3906,446.5,1422.3906" style="stroke:#181818;stroke-width:1.0;"/><line style="stroke:#181818;stroke-width:1.0;stroke-dasharray:2.0,2.0;" x1="444.5" x2="1145.5" y1="1422.3906" y2="1422.3906"/><line style="stroke:#181818;stroke-width:1.0;" x1="439.5" x2="481.5" y1="1450.9141" y2="1450.9141"/><line style="stroke:#181818;stroke-width:1.0;" x1="481.5" x2="481.5" y1="1450.9141" y2="1463.9141"/><line style="stroke:#181818;stroke-width:1.0;" x1="440.5" x2="481.5" y1="1463.9141" y2="1463.9141"/><polygon fill="#181818" points="450.5,1459.9141,440.5,1463.9141,450.5,1467.9141,446.5,1463.9141" style="stroke:#181818;stroke-width:1.0;"/><text fill="#000000" font-family="sans-serif" font-size="13" lengthAdjust="spacing" textLength="60" x="446.5" y="1446.1592">isBetween</text><line style="stroke:#181818;stroke-width:1.0;" x1="439.5" x2="481.5" y1="1492.4375" y2="1492.4375"/><line style="stroke:#181818;stroke-width:1.0;" x1="481.5" x2="481.5" y1="1492.4375" y2="1505.4375"/><line style="stroke:#181818;stroke-width:1.0;" x1="440.5" x2="481.5" y1="1505.4375" y2="1505.4375"/><polygon fill="#181818" points="450.5,1501.4375,440.5,1505.4375,450.5,1509.4375,446.5,1505.4375" style="stroke:#181818;stroke-width:1.0;"/><text fill="#000000" font-family="sans-serif" font-size="13" lengthAdjust="spacing" textLength="60" x="446.5" y="1487.6826">isBetween</text><line style="stroke:#181818;stroke-width:1.0;" x1="439.5" x2="481.5" y1="1533.9609" y2="1533.9609"/><line style="stroke:#181818;stroke-width:1.0;" x1="481.5" x2="481.5" y1="1533.9609" y2="1546.9609"/><line style="stroke:#181818;stroke-width:1.0;" x1="440.5" x2="481.5" y1="1546.9609" y2="1546.9609"/><polygon fill="#181818" points="450.5,1542.9609,440.5,1546.9609,450.5,1550.9609,446.5,1546.9609" style="stroke:#181818;stroke-width:1.0;"/><text fill="#000000" font-family="sans-serif" font-size="13" lengthAdjust="spacing" textLength="58" x="446.5" y="1529.2061">areAllTrue</text><polygon fill="#181818" points="1129.5,1571.4844,1139.5,1575.4844,1129.5,1579.4844,1133.5,1575.4844" style="stroke:#181818;stroke-width:1.0;"/><line style="stroke:#181818;stroke-width:1.0;" x1="439.5" x2="1135.5" y1="1575.4844" y2="1575.4844"/><text fill="#000000" font-family="sans-serif" font-size="13" lengthAdjust="spacing" textLength="92" x="446.5" y="1570.7295">setUpdateClass</text><polygon fill="#181818" points="450.5,1585.4844,440.5,1589.4844,450.5,1593.4844,446.5,1589.4844" style="stroke:#181818;stroke-width:1.0;"/><line style="stroke:#181818;stroke-width:1.0;stroke-dasharray:2.0,2.0;" x1="444.5" x2="1145.5" y1="1589.4844" y2="1589.4844"/><polygon fill="#181818" points="292,1599.4844,282,1603.4844,292,1607.4844,288,1603.4844" style="stroke:#181818;stroke-width:1.0;"/><line style="stroke:#181818;stroke-width:1.0;stroke-dasharray:2.0,2.0;" x1="286" x2="433.5" y1="1603.4844" y2="1603.4844"/><polygon fill="#181818" points="147,1613.4844,137,1617.4844,147,1621.4844,143,1617.4844" style="stroke:#181818;stroke-width:1.0;"/><line style="stroke:#181818;stroke-width:1.0;stroke-dasharray:2.0,2.0;" x1="141" x2="275" y1="1617.4844" y2="1617.4844"/><!--SRC=[xLRDRgCm4Bxp5AZtlC0UAWLQQNk8LYhX0LoO9fR0ZcpJBllqEn03DXq76hM7LhqXvllcVyR32YDLl0TM74559wOCB_Y92HFd9rOo0sd5jCuVPg9HaafXbAogD-GHaO5wuGLuucrZZbBnVynmAIX0ha5be3MAlVzPgmtKdTJNLoWfsZf2e-o9QOXlR4IFS9AQOuZjJSnqlBzB74pltWoH8YAAB3lUtCxI4F-AIvaTvMl42iDVK33FqmnFQQZR_di7eY7XH7AHfT7gxim4xPgdQa4hyRNRlAzIFTI8eADIgfoTMbl0KI5PTfAy8LsDIhYiYtRFQIRqYY4H1BOE8ik-awQ0dQvpISlUU4pIYQbpqGUe6QyckqvNEx1bgmwFDehzZjQUkIXjHoVjlM-wcuWEjMoiGmRAVvu-j6HaPXGN1wVaTZ87p8h2MWPjAnqZsbQLxTYa7JYZacwCqrLXfO6mGfFeLVtYWBY3zsOD1DHu8xouIBgvlMEjNeDzQdXLTk1thfrc-d_rqWdi1n2wKR2Tp-DlfhUY_VDyrTvON4OXseSi2TBHm9e8EU8jYcEVYyLDSHi_oWeoC9Q25WwYnW0cfWL40t3ZcNAT792pLRGKcwFiQ-LuzJB-JXd81RCIAE__5d0oPvS4kASD1OfewWMT_UhPeKFi025sYEx5zHvtrkI9rBVc7g6VWwMJPCKbTjwsLvnWfBRkcUn_9Ur3kVYWJiWFV4P_ZiEVu_3x7OU1UUCw0VCA83wTnF1kgggzQk1YAZIOdBhVllvv_1y0]--></g></svg>