<?xml version="1.0" encoding="us-ascii" standalone="no"?><svg xmlns="http://www.w3.org/2000/svg" xmlns:xlink="http://www.w3.org/1999/xlink" contentStyleType="text/css" height="1502px" preserveAspectRatio="none" style="width:916px;height:1502px;background:#FFFFFF;" version="1.1" viewBox="0 0 916 1502" width="916px" zoomAndPan="magnify"><defs/><g><!--class User--><g id="elem_User"><rect codeLine="1" fill="#F1F1F1" height="48" id="User" rx="2.5" ry="2.5" style="stroke:#181818;stroke-width:0.5;" width="61" x="495" y="7"/><ellipse cx="510" cy="23" fill="#ADD1B2" rx="11" ry="11" style="stroke:#181818;stroke-width:1.0;"/><path d="M512,19.5 Q512.2031,19 512.4375,18.75 Q512.6719,18.5 512.9375,18.5 Q513.4063,18.5 513.7031,18.7813 Q514,19.0625 514,19.7188 L514,21.2813 Q514,21.9375 513.7188,22.2188 Q513.4375,22.5 513,22.5 Q512.6094,22.5 512.3594,22.3281 Q512.1094,22.1563 512,21.7031 Q511.9531,21.3906 511.7813,21.2188 Q511.4688,20.8906 510.9063,20.7031 Q510.3438,20.5 509.7813,20.5 Q509.0781,20.5 508.4844,20.7813 Q507.9063,21.0625 507.4531,21.6875 Q507,22.3125 507,23.1719 L507,24.0938 Q507,25.125 507.8438,25.8125 Q508.6875,26.5 510.1875,26.5 Q511.0781,26.5 511.7031,26.2969 Q512.0625,26.1875 512.4688,25.8281 Q512.7344,25.625 512.875,25.5625 Q513.0156,25.5 513.1875,25.5 Q513.5156,25.5 513.75,25.7656 Q514,26.0156 514,26.375 Q514,26.7188 513.6563,27.125 Q513.1563,27.7188 512.3594,28.0469 Q511.3125,28.5 510.0313,28.5 Q508.5313,28.5 507.3281,27.9063 Q506.3594,27.4375 505.6719,26.4219 Q505,25.4063 505,24.2031 L505,23.1094 Q505,21.8594 505.5938,20.7656 Q506.2031,19.6719 507.25,19.0938 Q508.3125,18.5 509.5,18.5 Q510.2188,18.5 510.8438,18.75 Q511.4688,19 512,19.5 Z " fill="#000000"/><text fill="#000000" font-family="sans-serif" font-size="14" lengthAdjust="spacing" textLength="29" x="524" y="28.7285">User</text><line style="stroke:#181818;stroke-width:0.5;" x1="496" x2="555" y1="39" y2="39"/><line style="stroke:#181818;stroke-width:0.5;" x1="496" x2="555" y1="47" y2="47"/></g><!--class MeetingRepository--><g id="elem_MeetingRepository"><rect codeLine="4" fill="#F1F1F1" height="118.4375" id="MeetingRepository" rx="2.5" ry="2.5" style="stroke:#181818;stroke-width:0.5;" width="310" x="201.5" y="694"/><ellipse cx="293.25" cy="710" fill="#ADD1B2" rx="11" ry="11" style="stroke:#181818;stroke-width:1.0;"/><path d="M295.25,706.5 Q295.4531,706 295.6875,705.75 Q295.9219,705.5 296.1875,705.5 Q296.6563,705.5 296.9531,705.7813 Q297.25,706.0625 297.25,706.7188 L297.25,708.2813 Q297.25,708.9375 296.9688,709.2188 Q296.6875,709.5 296.25,709.5 Q295.8594,709.5 295.6094,709.3281 Q295.3594,709.1563 295.25,708.7031 Q295.2031,708.3906 295.0313,708.2188 Q294.7188,707.8906 294.1563,707.7031 Q293.5938,707.5 293.0313,707.5 Q292.3281,707.5 291.7344,707.7813 Q291.1563,708.0625 290.7031,708.6875 Q290.25,709.3125 290.25,710.1719 L290.25,711.0938 Q290.25,712.125 291.0938,712.8125 Q291.9375,713.5 293.4375,713.5 Q294.3281,713.5 294.9531,713.2969 Q295.3125,713.1875 295.7188,712.8281 Q295.9844,712.625 296.125,712.5625 Q296.2656,712.5 296.4375,712.5 Q296.7656,712.5 297,712.7656 Q297.25,713.0156 297.25,713.375 Q297.25,713.7188 296.9063,714.125 Q296.4063,714.7188 295.6094,715.0469 Q294.5625,715.5 293.2813,715.5 Q291.7813,715.5 290.5781,714.9063 Q289.6094,714.4375 288.9219,713.4219 Q288.25,712.4063 288.25,711.2031 L288.25,710.1094 Q288.25,708.8594 288.8438,707.7656 Q289.4531,706.6719 290.5,706.0938 Q291.5625,705.5 292.75,705.5 Q293.4688,705.5 294.0938,705.75 Q294.7188,706 295.25,706.5 Z " fill="#000000"/><text fill="#000000" font-family="sans-serif" font-size="14" lengthAdjust="spacing" textLength="118" x="313.75" y="715.7285">MeetingRepository</text><line style="stroke:#181818;stroke-width:0.5;" x1="202.5" x2="510.5" y1="726" y2="726"/><line style="stroke:#181818;stroke-width:0.5;" x1="202.5" x2="510.5" y1="734" y2="734"/><ellipse cx="212.5" cy="748.3047" fill="#84BE84" rx="3" ry="3" style="stroke:#038048;stroke-width:1.0;"/><text fill="#000000" font-family="sans-serif" font-size="14" lengthAdjust="spacing" textLength="108" x="221.5" y="752.5332">findMaxId() : long</text><ellipse cx="212.5" cy="765.9141" fill="#84BE84" rx="3" ry="3" style="stroke:#038048;stroke-width:1.0;"/><text fill="#000000" font-family="sans-serif" font-size="14" lengthAdjust="spacing" textLength="212" x="221.5" y="770.1426">cancelMeeting(long idMeet) : void</text><ellipse cx="212.5" cy="783.5234" fill="#84BE84" rx="3" ry="3" style="stroke:#038048;stroke-width:1.0;"/><text fill="#000000" font-family="sans-serif" font-size="14" lengthAdjust="spacing" textLength="269" x="221.5" y="787.752">userMeetings(String email) : List&lt;Meeting&gt;</text><ellipse cx="212.5" cy="801.1328" fill="#84BE84" rx="3" ry="3" style="stroke:#038048;stroke-width:1.0;"/><text fill="#000000" font-family="sans-serif" font-size="14" lengthAdjust="spacing" textLength="284" x="221.5" y="805.3613">allUserMeetings(String email) : List&lt;Meeting&gt;</text></g><!--class MeetingALRepository--><g id="elem_MeetingALRepository"><rect codeLine="11" fill="#F1F1F1" height="118.4375" id="MeetingALRepository" rx="2.5" ry="2.5" style="stroke:#181818;stroke-width:0.5;" width="457" x="452" y="454"/><ellipse cx="608.75" cy="470" fill="#ADD1B2" rx="11" ry="11" style="stroke:#181818;stroke-width:1.0;"/><path d="M610.75,466.5 Q610.9531,466 611.1875,465.75 Q611.4219,465.5 611.6875,465.5 Q612.1563,465.5 612.4531,465.7813 Q612.75,466.0625 612.75,466.7188 L612.75,468.2813 Q612.75,468.9375 612.4688,469.2188 Q612.1875,469.5 611.75,469.5 Q611.3594,469.5 611.1094,469.3281 Q610.8594,469.1563 610.75,468.7031 Q610.7031,468.3906 610.5313,468.2188 Q610.2188,467.8906 609.6563,467.7031 Q609.0938,467.5 608.5313,467.5 Q607.8281,467.5 607.2344,467.7813 Q606.6563,468.0625 606.2031,468.6875 Q605.75,469.3125 605.75,470.1719 L605.75,471.0938 Q605.75,472.125 606.5938,472.8125 Q607.4375,473.5 608.9375,473.5 Q609.8281,473.5 610.4531,473.2969 Q610.8125,473.1875 611.2188,472.8281 Q611.4844,472.625 611.625,472.5625 Q611.7656,472.5 611.9375,472.5 Q612.2656,472.5 612.5,472.7656 Q612.75,473.0156 612.75,473.375 Q612.75,473.7188 612.4063,474.125 Q611.9063,474.7188 611.1094,475.0469 Q610.0625,475.5 608.7813,475.5 Q607.2813,475.5 606.0781,474.9063 Q605.1094,474.4375 604.4219,473.4219 Q603.75,472.4063 603.75,471.2031 L603.75,470.1094 Q603.75,468.8594 604.3438,467.7656 Q604.9531,466.6719 606,466.0938 Q607.0625,465.5 608.25,465.5 Q608.9688,465.5 609.5938,465.75 Q610.2188,466 610.75,466.5 Z " fill="#000000"/><text fill="#000000" font-family="sans-serif" font-size="14" lengthAdjust="spacing" textLength="135" x="629.25" y="475.7285">MeetingALRepository</text><line style="stroke:#181818;stroke-width:0.5;" x1="453" x2="908" y1="486" y2="486"/><line style="stroke:#181818;stroke-width:0.5;" x1="453" x2="908" y1="494" y2="494"/><ellipse cx="463" cy="508.3047" fill="#84BE84" rx="3" ry="3" style="stroke:#038048;stroke-width:1.0;"/><text fill="#000000" font-family="sans-serif" font-size="14" lengthAdjust="spacing" textLength="431" x="472" y="512.5332">verifyAndNotify(List&lt;SystemUser&gt; users, Meeting meeting) : boolean</text><ellipse cx="463" cy="525.9141" fill="#84BE84" rx="3" ry="3" style="stroke:#038048;stroke-width:1.0;"/><text fill="#000000" font-family="sans-serif" font-size="14" lengthAdjust="spacing" textLength="316" x="472" y="530.1426">alterStateA(SystemUser user) : MeetingAccessList</text><ellipse cx="463" cy="543.5234" fill="#84BE84" rx="3" ry="3" style="stroke:#038048;stroke-width:1.0;"/><text fill="#000000" font-family="sans-serif" font-size="14" lengthAdjust="spacing" textLength="317" x="472" y="547.752">alterStateD(SystemUser user) : MeetingAccessList</text><ellipse cx="463" cy="561.1328" fill="#84BE84" rx="3" ry="3" style="stroke:#038048;stroke-width:1.0;"/><text fill="#000000" font-family="sans-serif" font-size="14" lengthAdjust="spacing" textLength="330" x="472" y="565.3613">usersState(Meeting meet) : List&lt;MeetingAccessList&gt;</text></g><!--class CancelMeetingUI--><g id="elem_CancelMeetingUI"><rect codeLine="18" fill="#F1F1F1" height="100.8281" id="CancelMeetingUI" rx="2.5" ry="2.5" style="stroke:#181818;stroke-width:0.5;" width="245" x="403" y="115"/><ellipse cx="468.25" cy="131" fill="#ADD1B2" rx="11" ry="11" style="stroke:#181818;stroke-width:1.0;"/><path d="M470.25,127.5 Q470.4531,127 470.6875,126.75 Q470.9219,126.5 471.1875,126.5 Q471.6563,126.5 471.9531,126.7813 Q472.25,127.0625 472.25,127.7188 L472.25,129.2813 Q472.25,129.9375 471.9688,130.2188 Q471.6875,130.5 471.25,130.5 Q470.8594,130.5 470.6094,130.3281 Q470.3594,130.1563 470.25,129.7031 Q470.2031,129.3906 470.0313,129.2188 Q469.7188,128.8906 469.1563,128.7031 Q468.5938,128.5 468.0313,128.5 Q467.3281,128.5 466.7344,128.7813 Q466.1563,129.0625 465.7031,129.6875 Q465.25,130.3125 465.25,131.1719 L465.25,132.0938 Q465.25,133.125 466.0938,133.8125 Q466.9375,134.5 468.4375,134.5 Q469.3281,134.5 469.9531,134.2969 Q470.3125,134.1875 470.7188,133.8281 Q470.9844,133.625 471.125,133.5625 Q471.2656,133.5 471.4375,133.5 Q471.7656,133.5 472,133.7656 Q472.25,134.0156 472.25,134.375 Q472.25,134.7188 471.9063,135.125 Q471.4063,135.7188 470.6094,136.0469 Q469.5625,136.5 468.2813,136.5 Q466.7813,136.5 465.5781,135.9063 Q464.6094,135.4375 463.9219,134.4219 Q463.25,133.4063 463.25,132.2031 L463.25,131.1094 Q463.25,129.8594 463.8438,128.7656 Q464.4531,127.6719 465.5,127.0938 Q466.5625,126.5 467.75,126.5 Q468.4688,126.5 469.0938,126.75 Q469.7188,127 470.25,127.5 Z " fill="#000000"/><text fill="#000000" font-family="sans-serif" font-size="14" lengthAdjust="spacing" textLength="106" x="488.75" y="136.7285">CancelMeetingUI</text><line style="stroke:#181818;stroke-width:0.5;" x1="404" x2="647" y1="147" y2="147"/><rect fill="none" height="6" style="stroke:#C82930;stroke-width:1.0;" width="6" x="411" y="158.3047"/><text fill="#000000" font-family="sans-serif" font-size="14" lengthAdjust="spacing" textLength="219" x="423" y="165.5332">CancelMeetingController controller</text><line style="stroke:#181818;stroke-width:0.5;" x1="404" x2="647" y1="172.6094" y2="172.6094"/><ellipse cx="414" cy="186.9141" fill="#84BE84" rx="3" ry="3" style="stroke:#038048;stroke-width:1.0;"/><text fill="#000000" font-family="sans-serif" font-size="14" lengthAdjust="spacing" textLength="123" x="423" y="191.1426">doShow() : boolean</text><ellipse cx="414" cy="204.5234" fill="#84BE84" rx="3" ry="3" style="stroke:#038048;stroke-width:1.0;"/><text fill="#000000" font-family="sans-serif" font-size="14" lengthAdjust="spacing" textLength="113" x="423" y="208.752">headline() : String</text></g><!--class CancelMeetingController--><g id="elem_CancelMeetingController"><rect codeLine="24" fill="#F1F1F1" height="118.4375" id="CancelMeetingController" rx="2.5" ry="2.5" style="stroke:#181818;stroke-width:0.5;" width="287" x="382" y="276"/><ellipse cx="443.25" cy="292" fill="#ADD1B2" rx="11" ry="11" style="stroke:#181818;stroke-width:1.0;"/><path d="M445.25,288.5 Q445.4531,288 445.6875,287.75 Q445.9219,287.5 446.1875,287.5 Q446.6563,287.5 446.9531,287.7813 Q447.25,288.0625 447.25,288.7188 L447.25,290.2813 Q447.25,290.9375 446.9688,291.2188 Q446.6875,291.5 446.25,291.5 Q445.8594,291.5 445.6094,291.3281 Q445.3594,291.1563 445.25,290.7031 Q445.2031,290.3906 445.0313,290.2188 Q444.7188,289.8906 444.1563,289.7031 Q443.5938,289.5 443.0313,289.5 Q442.3281,289.5 441.7344,289.7813 Q441.1563,290.0625 440.7031,290.6875 Q440.25,291.3125 440.25,292.1719 L440.25,293.0938 Q440.25,294.125 441.0938,294.8125 Q441.9375,295.5 443.4375,295.5 Q444.3281,295.5 444.9531,295.2969 Q445.3125,295.1875 445.7188,294.8281 Q445.9844,294.625 446.125,294.5625 Q446.2656,294.5 446.4375,294.5 Q446.7656,294.5 447,294.7656 Q447.25,295.0156 447.25,295.375 Q447.25,295.7188 446.9063,296.125 Q446.4063,296.7188 445.6094,297.0469 Q444.5625,297.5 443.2813,297.5 Q441.7813,297.5 440.5781,296.9063 Q439.6094,296.4375 438.9219,295.4219 Q438.25,294.4063 438.25,293.2031 L438.25,292.1094 Q438.25,290.8594 438.8438,289.7656 Q439.4531,288.6719 440.5,288.0938 Q441.5625,287.5 442.75,287.5 Q443.4688,287.5 444.0938,287.75 Q444.7188,288 445.25,288.5 Z " fill="#000000"/><text fill="#000000" font-family="sans-serif" font-size="14" lengthAdjust="spacing" textLength="156" x="463.75" y="297.7285">CancelMeetingController</text><line style="stroke:#181818;stroke-width:0.5;" x1="383" x2="668" y1="308" y2="308"/><rect fill="none" height="6" style="stroke:#C82930;stroke-width:1.0;" width="6" x="390" y="319.3047"/><text fill="#000000" font-family="sans-serif" font-size="14" lengthAdjust="spacing" textLength="138" x="402" y="326.5332">MeetingRepository mr</text><rect fill="none" height="6" style="stroke:#C82930;stroke-width:1.0;" width="6" x="390" y="336.9141"/><text fill="#000000" font-family="sans-serif" font-size="14" lengthAdjust="spacing" textLength="261" x="402" y="344.1426">AuthorizationService authorizationService</text><line style="stroke:#181818;stroke-width:0.5;" x1="383" x2="668" y1="351.2188" y2="351.2188"/><ellipse cx="393" cy="365.5234" fill="#84BE84" rx="3" ry="3" style="stroke:#038048;stroke-width:1.0;"/><text fill="#000000" font-family="sans-serif" font-size="14" lengthAdjust="spacing" textLength="195" x="402" y="369.752">userMeetings() : List&lt;Meeting&gt;</text><ellipse cx="393" cy="383.1328" fill="#84BE84" rx="3" ry="3" style="stroke:#038048;stroke-width:1.0;"/><text fill="#000000" font-family="sans-serif" font-size="14" lengthAdjust="spacing" textLength="224" x="402" y="387.3613">cancelMeeting(Meeting meet) : void</text></g><!--class MeetingAccessList--><g id="elem_MeetingAccessList"><rect codeLine="31" fill="#F1F1F1" height="241.7031" id="MeetingAccessList" rx="2.5" ry="2.5" style="stroke:#181818;stroke-width:0.5;" width="295" x="547" y="632"/><ellipse cx="631.75" cy="648" fill="#ADD1B2" rx="11" ry="11" style="stroke:#181818;stroke-width:1.0;"/><path d="M633.75,644.5 Q633.9531,644 634.1875,643.75 Q634.4219,643.5 634.6875,643.5 Q635.1563,643.5 635.4531,643.7813 Q635.75,644.0625 635.75,644.7188 L635.75,646.2813 Q635.75,646.9375 635.4688,647.2188 Q635.1875,647.5 634.75,647.5 Q634.3594,647.5 634.1094,647.3281 Q633.8594,647.1563 633.75,646.7031 Q633.7031,646.3906 633.5313,646.2188 Q633.2188,645.8906 632.6563,645.7031 Q632.0938,645.5 631.5313,645.5 Q630.8281,645.5 630.2344,645.7813 Q629.6563,646.0625 629.2031,646.6875 Q628.75,647.3125 628.75,648.1719 L628.75,649.0938 Q628.75,650.125 629.5938,650.8125 Q630.4375,651.5 631.9375,651.5 Q632.8281,651.5 633.4531,651.2969 Q633.8125,651.1875 634.2188,650.8281 Q634.4844,650.625 634.625,650.5625 Q634.7656,650.5 634.9375,650.5 Q635.2656,650.5 635.5,650.7656 Q635.75,651.0156 635.75,651.375 Q635.75,651.7188 635.4063,652.125 Q634.9063,652.7188 634.1094,653.0469 Q633.0625,653.5 631.7813,653.5 Q630.2813,653.5 629.0781,652.9063 Q628.1094,652.4375 627.4219,651.4219 Q626.75,650.4063 626.75,649.2031 L626.75,648.1094 Q626.75,646.8594 627.3438,645.7656 Q627.9531,644.6719 629,644.0938 Q630.0625,643.5 631.25,643.5 Q631.9688,643.5 632.5938,643.75 Q633.2188,644 633.75,644.5 Z " fill="#000000"/><text fill="#000000" font-family="sans-serif" font-size="14" lengthAdjust="spacing" textLength="117" x="652.25" y="653.7285">MeetingAccessList</text><line style="stroke:#181818;stroke-width:0.5;" x1="548" x2="841" y1="664" y2="664"/><rect fill="none" height="6" style="stroke:#C82930;stroke-width:1.0;" width="6" x="555" y="675.3047"/><text fill="#000000" font-family="sans-serif" font-size="14" lengthAdjust="spacing" textLength="114" x="567" y="682.5332">Long idAccessList</text><rect fill="none" height="6" style="stroke:#C82930;stroke-width:1.0;" width="6" x="555" y="692.9141"/><text fill="#000000" font-family="sans-serif" font-size="14" lengthAdjust="spacing" textLength="107" x="567" y="700.1426">SystemUser user</text><rect fill="none" height="6" style="stroke:#C82930;stroke-width:1.0;" width="6" x="555" y="710.5234"/><text fill="#000000" font-family="sans-serif" font-size="14" lengthAdjust="spacing" textLength="136" x="567" y="717.752">InviteState inviteState</text><rect fill="none" height="6" style="stroke:#C82930;stroke-width:1.0;" width="6" x="555" y="728.1328"/><text fill="#000000" font-family="sans-serif" font-size="14" lengthAdjust="spacing" textLength="104" x="567" y="735.3613">Meeting meeting</text><line style="stroke:#181818;stroke-width:0.5;" x1="548" x2="841" y1="742.4375" y2="742.4375"/><ellipse cx="558" cy="756.7422" fill="#84BE84" rx="3" ry="3" style="stroke:#038048;stroke-width:1.0;"/><text fill="#000000" font-family="sans-serif" font-size="14" lengthAdjust="spacing" textLength="269" x="567" y="760.9707">setInviteState(InviteState inviteState) : void</text><ellipse cx="558" cy="774.3516" fill="#84BE84" rx="3" ry="3" style="stroke:#038048;stroke-width:1.0;"/><text fill="#000000" font-family="sans-serif" font-size="14" lengthAdjust="spacing" textLength="147" x="567" y="778.5801">getIdAccessList() : long</text><ellipse cx="558" cy="791.9609" fill="#84BE84" rx="3" ry="3" style="stroke:#038048;stroke-width:1.0;"/><text fill="#000000" font-family="sans-serif" font-size="14" lengthAdjust="spacing" textLength="146" x="567" y="796.1895">getUser() : SystemUser</text><ellipse cx="558" cy="809.5703" fill="#84BE84" rx="3" ry="3" style="stroke:#038048;stroke-width:1.0;"/><text fill="#000000" font-family="sans-serif" font-size="14" lengthAdjust="spacing" textLength="174" x="567" y="813.7988">getInviteState() : InviteState</text><ellipse cx="558" cy="827.1797" fill="#84BE84" rx="3" ry="3" style="stroke:#038048;stroke-width:1.0;"/><text fill="#000000" font-family="sans-serif" font-size="14" lengthAdjust="spacing" textLength="142" x="567" y="831.4082">getMeeting() : Meeting</text><ellipse cx="558" cy="844.7891" fill="#84BE84" rx="3" ry="3" style="stroke:#038048;stroke-width:1.0;"/><text fill="#000000" font-family="sans-serif" font-size="14" lengthAdjust="spacing" textLength="201" x="567" y="849.0176">sameAs(Object other) : boolean</text><ellipse cx="558" cy="862.3984" fill="#84BE84" rx="3" ry="3" style="stroke:#038048;stroke-width:1.0;"/><text fill="#000000" font-family="sans-serif" font-size="14" lengthAdjust="spacing" textLength="101" x="567" y="866.627">identity() : Code</text></g><!--class Meeting--><g id="elem_Meeting"><rect codeLine="45" fill="#F1F1F1" height="241.7031" id="Meeting" rx="2.5" ry="2.5" style="stroke:#181818;stroke-width:0.5;" width="227" x="262" y="934"/><ellipse cx="346.25" cy="950" fill="#ADD1B2" rx="11" ry="11" style="stroke:#181818;stroke-width:1.0;"/><path d="M348.25,946.5 Q348.4531,946 348.6875,945.75 Q348.9219,945.5 349.1875,945.5 Q349.6563,945.5 349.9531,945.7813 Q350.25,946.0625 350.25,946.7188 L350.25,948.2813 Q350.25,948.9375 349.9688,949.2188 Q349.6875,949.5 349.25,949.5 Q348.8594,949.5 348.6094,949.3281 Q348.3594,949.1563 348.25,948.7031 Q348.2031,948.3906 348.0313,948.2188 Q347.7188,947.8906 347.1563,947.7031 Q346.5938,947.5 346.0313,947.5 Q345.3281,947.5 344.7344,947.7813 Q344.1563,948.0625 343.7031,948.6875 Q343.25,949.3125 343.25,950.1719 L343.25,951.0938 Q343.25,952.125 344.0938,952.8125 Q344.9375,953.5 346.4375,953.5 Q347.3281,953.5 347.9531,953.2969 Q348.3125,953.1875 348.7188,952.8281 Q348.9844,952.625 349.125,952.5625 Q349.2656,952.5 349.4375,952.5 Q349.7656,952.5 350,952.7656 Q350.25,953.0156 350.25,953.375 Q350.25,953.7188 349.9063,954.125 Q349.4063,954.7188 348.6094,955.0469 Q347.5625,955.5 346.2813,955.5 Q344.7813,955.5 343.5781,954.9063 Q342.6094,954.4375 341.9219,953.4219 Q341.25,952.4063 341.25,951.2031 L341.25,950.1094 Q341.25,948.8594 341.8438,947.7656 Q342.4531,946.6719 343.5,946.0938 Q344.5625,945.5 345.75,945.5 Q346.4688,945.5 347.0938,945.75 Q347.7188,946 348.25,946.5 Z " fill="#000000"/><text fill="#000000" font-family="sans-serif" font-size="14" lengthAdjust="spacing" textLength="50" x="366.75" y="955.7285">Meeting</text><line style="stroke:#181818;stroke-width:0.5;" x1="263" x2="488" y1="966" y2="966"/><rect fill="none" height="6" style="stroke:#C82930;stroke-width:1.0;" width="6" x="270" y="977.3047"/><text fill="#000000" font-family="sans-serif" font-size="14" lengthAdjust="spacing" textLength="97" x="282" y="984.5332">Long idMeeting</text><rect fill="none" height="6" style="stroke:#C82930;stroke-width:1.0;" width="6" x="270" y="994.9141"/><text fill="#000000" font-family="sans-serif" font-size="14" lengthAdjust="spacing" textLength="110" x="282" y="1002.1426">Duration duration</text><rect fill="none" height="6" style="stroke:#C82930;stroke-width:1.0;" width="6" x="270" y="1012.5234"/><text fill="#000000" font-family="sans-serif" font-size="14" lengthAdjust="spacing" textLength="161" x="282" y="1019.752">TimeMeeting timeMeeting</text><rect fill="none" height="6" style="stroke:#C82930;stroke-width:1.0;" width="6" x="270" y="1030.1328"/><text fill="#000000" font-family="sans-serif" font-size="14" lengthAdjust="spacing" textLength="62" x="282" y="1037.3613">Date date</text><rect fill="none" height="6" style="stroke:#C82930;stroke-width:1.0;" width="6" x="270" y="1047.7422"/><text fill="#000000" font-family="sans-serif" font-size="14" lengthAdjust="spacing" textLength="124" x="282" y="1054.9707">SystemUser creator</text><line style="stroke:#181818;stroke-width:0.5;" x1="263" x2="488" y1="1062.0469" y2="1062.0469"/><ellipse cx="273" cy="1076.3516" fill="#84BE84" rx="3" ry="3" style="stroke:#038048;stroke-width:1.0;"/><text fill="#000000" font-family="sans-serif" font-size="14" lengthAdjust="spacing" textLength="115" x="282" y="1080.5801">idMeeting() : Long</text><ellipse cx="273" cy="1093.9609" fill="#84BE84" rx="3" ry="3" style="stroke:#038048;stroke-width:1.0;"/><text fill="#000000" font-family="sans-serif" font-size="14" lengthAdjust="spacing" textLength="128" x="282" y="1098.1895">duration() : Duration</text><ellipse cx="273" cy="1111.5703" fill="#84BE84" rx="3" ry="3" style="stroke:#038048;stroke-width:1.0;"/><text fill="#000000" font-family="sans-serif" font-size="14" lengthAdjust="spacing" textLength="179" x="282" y="1115.7988">timeMeeting() : TimeMeeting</text><ellipse cx="273" cy="1129.1797" fill="#84BE84" rx="3" ry="3" style="stroke:#038048;stroke-width:1.0;"/><text fill="#000000" font-family="sans-serif" font-size="14" lengthAdjust="spacing" textLength="80" x="282" y="1133.4082">date() : Date</text><ellipse cx="273" cy="1146.7891" fill="#84BE84" rx="3" ry="3" style="stroke:#038048;stroke-width:1.0;"/><text fill="#000000" font-family="sans-serif" font-size="14" lengthAdjust="spacing" textLength="201" x="282" y="1151.0176">sameAs(Object other) : boolean</text><ellipse cx="273" cy="1164.3984" fill="#84BE84" rx="3" ry="3" style="stroke:#038048;stroke-width:1.0;"/><text fill="#000000" font-family="sans-serif" font-size="14" lengthAdjust="spacing" textLength="94" x="282" y="1168.627">identity() : long</text></g><!--class Duration--><g id="elem_Duration"><rect codeLine="59" fill="#F1F1F1" height="83.2188" id="Duration" rx="2.5" ry="2.5" style="stroke:#181818;stroke-width:0.5;" width="137" x="7" y="1324"/><ellipse cx="44.95" cy="1340" fill="#ADD1B2" rx="11" ry="11" style="stroke:#181818;stroke-width:1.0;"/><path d="M46.95,1336.5 Q47.1531,1336 47.3875,1335.75 Q47.6219,1335.5 47.8875,1335.5 Q48.3563,1335.5 48.6531,1335.7813 Q48.95,1336.0625 48.95,1336.7188 L48.95,1338.2813 Q48.95,1338.9375 48.6688,1339.2188 Q48.3875,1339.5 47.95,1339.5 Q47.5594,1339.5 47.3094,1339.3281 Q47.0594,1339.1563 46.95,1338.7031 Q46.9031,1338.3906 46.7313,1338.2188 Q46.4188,1337.8906 45.8563,1337.7031 Q45.2938,1337.5 44.7313,1337.5 Q44.0281,1337.5 43.4344,1337.7813 Q42.8563,1338.0625 42.4031,1338.6875 Q41.95,1339.3125 41.95,1340.1719 L41.95,1341.0938 Q41.95,1342.125 42.7938,1342.8125 Q43.6375,1343.5 45.1375,1343.5 Q46.0281,1343.5 46.6531,1343.2969 Q47.0125,1343.1875 47.4188,1342.8281 Q47.6844,1342.625 47.825,1342.5625 Q47.9656,1342.5 48.1375,1342.5 Q48.4656,1342.5 48.7,1342.7656 Q48.95,1343.0156 48.95,1343.375 Q48.95,1343.7188 48.6063,1344.125 Q48.1063,1344.7188 47.3094,1345.0469 Q46.2625,1345.5 44.9813,1345.5 Q43.4813,1345.5 42.2781,1344.9063 Q41.3094,1344.4375 40.6219,1343.4219 Q39.95,1342.4063 39.95,1341.2031 L39.95,1340.1094 Q39.95,1338.8594 40.5438,1337.7656 Q41.1531,1336.6719 42.2,1336.0938 Q43.2625,1335.5 44.45,1335.5 Q45.1688,1335.5 45.7938,1335.75 Q46.4188,1336 46.95,1336.5 Z " fill="#000000"/><text fill="#000000" font-family="sans-serif" font-size="14" lengthAdjust="spacing" textLength="54" x="64.05" y="1345.7285">Duration</text><line style="stroke:#181818;stroke-width:0.5;" x1="8" x2="143" y1="1356" y2="1356"/><rect fill="none" height="6" style="stroke:#C82930;stroke-width:1.0;" width="6" x="15" y="1367.3047"/><text fill="#000000" font-family="sans-serif" font-size="14" lengthAdjust="spacing" textLength="93" x="27" y="1374.5332">String duration</text><line style="stroke:#181818;stroke-width:0.5;" x1="8" x2="143" y1="1381.6094" y2="1381.6094"/><ellipse cx="18" cy="1395.9141" fill="#84BE84" rx="3" ry="3" style="stroke:#038048;stroke-width:1.0;"/><text fill="#000000" font-family="sans-serif" font-size="14" lengthAdjust="spacing" textLength="111" x="27" y="1400.1426">duration() : String</text></g><!--class TimeMeeting--><g id="elem_TimeMeeting"><rect codeLine="64" fill="#F1F1F1" height="83.2188" id="TimeMeeting" rx="2.5" ry="2.5" style="stroke:#181818;stroke-width:0.5;" width="161" x="179" y="1324"/><ellipse cx="215.6" cy="1340" fill="#ADD1B2" rx="11" ry="11" style="stroke:#181818;stroke-width:1.0;"/><path d="M217.6,1336.5 Q217.8031,1336 218.0375,1335.75 Q218.2719,1335.5 218.5375,1335.5 Q219.0063,1335.5 219.3031,1335.7813 Q219.6,1336.0625 219.6,1336.7188 L219.6,1338.2813 Q219.6,1338.9375 219.3188,1339.2188 Q219.0375,1339.5 218.6,1339.5 Q218.2094,1339.5 217.9594,1339.3281 Q217.7094,1339.1563 217.6,1338.7031 Q217.5531,1338.3906 217.3813,1338.2188 Q217.0688,1337.8906 216.5063,1337.7031 Q215.9438,1337.5 215.3813,1337.5 Q214.6781,1337.5 214.0844,1337.7813 Q213.5063,1338.0625 213.0531,1338.6875 Q212.6,1339.3125 212.6,1340.1719 L212.6,1341.0938 Q212.6,1342.125 213.4438,1342.8125 Q214.2875,1343.5 215.7875,1343.5 Q216.6781,1343.5 217.3031,1343.2969 Q217.6625,1343.1875 218.0688,1342.8281 Q218.3344,1342.625 218.475,1342.5625 Q218.6156,1342.5 218.7875,1342.5 Q219.1156,1342.5 219.35,1342.7656 Q219.6,1343.0156 219.6,1343.375 Q219.6,1343.7188 219.2563,1344.125 Q218.7563,1344.7188 217.9594,1345.0469 Q216.9125,1345.5 215.6313,1345.5 Q214.1313,1345.5 212.9281,1344.9063 Q211.9594,1344.4375 211.2719,1343.4219 Q210.6,1342.4063 210.6,1341.2031 L210.6,1340.1094 Q210.6,1338.8594 211.1938,1337.7656 Q211.8031,1336.6719 212.85,1336.0938 Q213.9125,1335.5 215.1,1335.5 Q215.8188,1335.5 216.4438,1335.75 Q217.0688,1336 217.6,1336.5 Z " fill="#000000"/><text fill="#000000" font-family="sans-serif" font-size="14" lengthAdjust="spacing" textLength="81" x="234.4" y="1345.7285">TimeMeeting</text><line style="stroke:#181818;stroke-width:0.5;" x1="180" x2="339" y1="1356" y2="1356"/><rect fill="none" height="6" style="stroke:#C82930;stroke-width:1.0;" width="6" x="187" y="1367.3047"/><text fill="#000000" font-family="sans-serif" font-size="14" lengthAdjust="spacing" textLength="67" x="199" y="1374.5332">String time</text><line style="stroke:#181818;stroke-width:0.5;" x1="180" x2="339" y1="1381.6094" y2="1381.6094"/><ellipse cx="190" cy="1395.9141" fill="#84BE84" rx="3" ry="3" style="stroke:#038048;stroke-width:1.0;"/><text fill="#000000" font-family="sans-serif" font-size="14" lengthAdjust="spacing" textLength="135" x="199" y="1400.1426">timeMeeting() : String</text></g><!--class Date--><g id="elem_Date"><rect codeLine="69" fill="#F1F1F1" height="118.4375" id="Date" rx="2.5" ry="2.5" style="stroke:#181818;stroke-width:0.5;" width="239" x="375" y="1306.5"/><ellipse cx="475.25" cy="1322.5" fill="#ADD1B2" rx="11" ry="11" style="stroke:#181818;stroke-width:1.0;"/><path d="M477.25,1319 Q477.4531,1318.5 477.6875,1318.25 Q477.9219,1318 478.1875,1318 Q478.6563,1318 478.9531,1318.2813 Q479.25,1318.5625 479.25,1319.2188 L479.25,1320.7813 Q479.25,1321.4375 478.9688,1321.7188 Q478.6875,1322 478.25,1322 Q477.8594,1322 477.6094,1321.8281 Q477.3594,1321.6563 477.25,1321.2031 Q477.2031,1320.8906 477.0313,1320.7188 Q476.7188,1320.3906 476.1563,1320.2031 Q475.5938,1320 475.0313,1320 Q474.3281,1320 473.7344,1320.2813 Q473.1563,1320.5625 472.7031,1321.1875 Q472.25,1321.8125 472.25,1322.6719 L472.25,1323.5938 Q472.25,1324.625 473.0938,1325.3125 Q473.9375,1326 475.4375,1326 Q476.3281,1326 476.9531,1325.7969 Q477.3125,1325.6875 477.7188,1325.3281 Q477.9844,1325.125 478.125,1325.0625 Q478.2656,1325 478.4375,1325 Q478.7656,1325 479,1325.2656 Q479.25,1325.5156 479.25,1325.875 Q479.25,1326.2188 478.9063,1326.625 Q478.4063,1327.2188 477.6094,1327.5469 Q476.5625,1328 475.2813,1328 Q473.7813,1328 472.5781,1327.4063 Q471.6094,1326.9375 470.9219,1325.9219 Q470.25,1324.9063 470.25,1323.7031 L470.25,1322.6094 Q470.25,1321.3594 470.8438,1320.2656 Q471.4531,1319.1719 472.5,1318.5938 Q473.5625,1318 474.75,1318 Q475.4688,1318 476.0938,1318.25 Q476.7188,1318.5 477.25,1319 Z " fill="#000000"/><text fill="#000000" font-family="sans-serif" font-size="14" lengthAdjust="spacing" textLength="30" x="495.75" y="1328.2285">Date</text><line style="stroke:#181818;stroke-width:0.5;" x1="376" x2="613" y1="1338.5" y2="1338.5"/><rect fill="none" height="6" style="stroke:#C82930;stroke-width:1.0;" width="6" x="383" y="1349.8047"/><text fill="#000000" font-family="sans-serif" font-size="14" lengthAdjust="spacing" textLength="69" x="395" y="1357.0332">String date</text><line style="stroke:#181818;stroke-width:0.5;" x1="376" x2="613" y1="1364.1094" y2="1364.1094"/><ellipse cx="386" cy="1378.4141" fill="#84BE84" rx="3" ry="3" style="stroke:#038048;stroke-width:1.0;"/><text fill="#000000" font-family="sans-serif" font-size="14" lengthAdjust="spacing" textLength="111" x="395" y="1382.6426">duration() : String</text><ellipse cx="386" cy="1396.0234" fill="#84BE84" rx="3" ry="3" style="stroke:#038048;stroke-width:1.0;"/><text fill="#000000" font-family="sans-serif" font-size="14" lengthAdjust="spacing" textLength="213" x="395" y="1400.252">isValidDate(String date) : boolean</text><ellipse cx="386" cy="1413.6328" fill="#84BE84" rx="3" ry="3" style="stroke:#038048;stroke-width:1.0;"/><text fill="#000000" font-family="sans-serif" font-size="14" lengthAdjust="spacing" textLength="166" x="395" y="1417.8613">setDate(String date) : void</text></g><!--class InviteState--><g id="elem_InviteState"><rect codeLine="76" fill="#F1F1F1" height="118.4375" id="InviteState" rx="2.5" ry="2.5" style="stroke:#181818;stroke-width:0.5;" width="98" x="594.5" y="996"/><ellipse cx="609.5" cy="1012" fill="#ADD1B2" rx="11" ry="11" style="stroke:#181818;stroke-width:1.0;"/><path d="M611.5,1008.5 Q611.7031,1008 611.9375,1007.75 Q612.1719,1007.5 612.4375,1007.5 Q612.9063,1007.5 613.2031,1007.7813 Q613.5,1008.0625 613.5,1008.7188 L613.5,1010.2813 Q613.5,1010.9375 613.2188,1011.2188 Q612.9375,1011.5 612.5,1011.5 Q612.1094,1011.5 611.8594,1011.3281 Q611.6094,1011.1563 611.5,1010.7031 Q611.4531,1010.3906 611.2813,1010.2188 Q610.9688,1009.8906 610.4063,1009.7031 Q609.8438,1009.5 609.2813,1009.5 Q608.5781,1009.5 607.9844,1009.7813 Q607.4063,1010.0625 606.9531,1010.6875 Q606.5,1011.3125 606.5,1012.1719 L606.5,1013.0938 Q606.5,1014.125 607.3438,1014.8125 Q608.1875,1015.5 609.6875,1015.5 Q610.5781,1015.5 611.2031,1015.2969 Q611.5625,1015.1875 611.9688,1014.8281 Q612.2344,1014.625 612.375,1014.5625 Q612.5156,1014.5 612.6875,1014.5 Q613.0156,1014.5 613.25,1014.7656 Q613.5,1015.0156 613.5,1015.375 Q613.5,1015.7188 613.1563,1016.125 Q612.6563,1016.7188 611.8594,1017.0469 Q610.8125,1017.5 609.5313,1017.5 Q608.0313,1017.5 606.8281,1016.9063 Q605.8594,1016.4375 605.1719,1015.4219 Q604.5,1014.4063 604.5,1013.2031 L604.5,1012.1094 Q604.5,1010.8594 605.0938,1009.7656 Q605.7031,1008.6719 606.75,1008.0938 Q607.8125,1007.5 609,1007.5 Q609.7188,1007.5 610.3438,1007.75 Q610.9688,1008 611.5,1008.5 Z " fill="#000000"/><text fill="#000000" font-family="sans-serif" font-size="14" lengthAdjust="spacing" textLength="66" x="623.5" y="1017.7285">InviteState</text><line style="stroke:#181818;stroke-width:0.5;" x1="595.5" x2="691.5" y1="1028" y2="1028"/><rect fill="none" height="6" style="stroke:#C82930;stroke-width:1.0;" width="6" x="602.5" y="1039.3047"/><text fill="#000000" font-family="sans-serif" font-size="14" lengthAdjust="spacing" textLength="60" x="614.5" y="1046.5332">Occupied</text><rect fill="none" height="6" style="stroke:#C82930;stroke-width:1.0;" width="6" x="602.5" y="1056.9141"/><text fill="#000000" font-family="sans-serif" font-size="14" lengthAdjust="spacing" textLength="29" x="614.5" y="1064.1426">Sent</text><rect fill="none" height="6" style="stroke:#C82930;stroke-width:1.0;" width="6" x="602.5" y="1074.5234"/><text fill="#000000" font-family="sans-serif" font-size="14" lengthAdjust="spacing" textLength="59" x="614.5" y="1081.752">Accepted</text><rect fill="none" height="6" style="stroke:#C82930;stroke-width:1.0;" width="6" x="602.5" y="1092.1328"/><text fill="#000000" font-family="sans-serif" font-size="14" lengthAdjust="spacing" textLength="45" x="614.5" y="1099.3613">Denied</text><line style="stroke:#181818;stroke-width:0.5;" x1="595.5" x2="691.5" y1="1106.4375" y2="1106.4375"/></g><!--class SystemUser--><g id="elem_SystemUser"><rect codeLine="83" fill="#F1F1F1" height="259.3125" id="SystemUser" rx="2.5" ry="2.5" style="stroke:#181818;stroke-width:0.5;" width="193" x="649" y="1236"/><ellipse cx="703.75" cy="1252" fill="#ADD1B2" rx="11" ry="11" style="stroke:#181818;stroke-width:1.0;"/><path d="M705.75,1248.5 Q705.9531,1248 706.1875,1247.75 Q706.4219,1247.5 706.6875,1247.5 Q707.1563,1247.5 707.4531,1247.7813 Q707.75,1248.0625 707.75,1248.7188 L707.75,1250.2813 Q707.75,1250.9375 707.4688,1251.2188 Q707.1875,1251.5 706.75,1251.5 Q706.3594,1251.5 706.1094,1251.3281 Q705.8594,1251.1563 705.75,1250.7031 Q705.7031,1250.3906 705.5313,1250.2188 Q705.2188,1249.8906 704.6563,1249.7031 Q704.0938,1249.5 703.5313,1249.5 Q702.8281,1249.5 702.2344,1249.7813 Q701.6563,1250.0625 701.2031,1250.6875 Q700.75,1251.3125 700.75,1252.1719 L700.75,1253.0938 Q700.75,1254.125 701.5938,1254.8125 Q702.4375,1255.5 703.9375,1255.5 Q704.8281,1255.5 705.4531,1255.2969 Q705.8125,1255.1875 706.2188,1254.8281 Q706.4844,1254.625 706.625,1254.5625 Q706.7656,1254.5 706.9375,1254.5 Q707.2656,1254.5 707.5,1254.7656 Q707.75,1255.0156 707.75,1255.375 Q707.75,1255.7188 707.4063,1256.125 Q706.9063,1256.7188 706.1094,1257.0469 Q705.0625,1257.5 703.7813,1257.5 Q702.2813,1257.5 701.0781,1256.9063 Q700.1094,1256.4375 699.4219,1255.4219 Q698.75,1254.4063 698.75,1253.2031 L698.75,1252.1094 Q698.75,1250.8594 699.3438,1249.7656 Q699.9531,1248.6719 701,1248.0938 Q702.0625,1247.5 703.25,1247.5 Q703.9688,1247.5 704.5938,1247.75 Q705.2188,1248 705.75,1248.5 Z " fill="#000000"/><text fill="#000000" font-family="sans-serif" font-size="14" lengthAdjust="spacing" textLength="75" x="724.25" y="1257.7285">SystemUser</text><line style="stroke:#181818;stroke-width:0.5;" x1="650" x2="841" y1="1268" y2="1268"/><rect fill="none" height="6" style="stroke:#C82930;stroke-width:1.0;" width="6" x="657" y="1279.3047"/><text fill="#000000" font-family="sans-serif" font-size="14" lengthAdjust="spacing" textLength="167" x="669" y="1286.5332">long serialVersionUID = 1L</text><rect fill="none" height="6" style="stroke:#C82930;stroke-width:1.0;" width="6" x="657" y="1296.9141"/><text fill="#000000" font-family="sans-serif" font-size="14" lengthAdjust="spacing" textLength="82" x="669" y="1304.1426">Long version</text><rect fill="none" height="6" style="stroke:#C82930;stroke-width:1.0;" width="6" x="657" y="1314.5234"/><text fill="#000000" font-family="sans-serif" font-size="14" lengthAdjust="spacing" textLength="123" x="669" y="1321.752">EmailAddress email</text><rect fill="none" height="6" style="stroke:#C82930;stroke-width:1.0;" width="6" x="657" y="1332.1328"/><text fill="#000000" font-family="sans-serif" font-size="14" lengthAdjust="spacing" textLength="125" x="669" y="1339.3613">Password password</text><rect fill="none" height="6" style="stroke:#C82930;stroke-width:1.0;" width="6" x="657" y="1349.7422"/><text fill="#000000" font-family="sans-serif" font-size="14" lengthAdjust="spacing" textLength="75" x="669" y="1356.9707">Name name</text><rect fill="none" height="6" style="stroke:#C82930;stroke-width:1.0;" width="6" x="657" y="1367.3516"/><text fill="#000000" font-family="sans-serif" font-size="14" lengthAdjust="spacing" textLength="85" x="669" y="1374.5801">RoleSet roles</text><rect fill="none" height="6" style="stroke:#C82930;stroke-width:1.0;" width="6" x="657" y="1384.9609"/><text fill="#000000" font-family="sans-serif" font-size="14" lengthAdjust="spacing" textLength="129" x="669" y="1392.1895">Calendar createdOn</text><rect fill="none" height="6" style="stroke:#C82930;stroke-width:1.0;" width="6" x="657" y="1402.5703"/><text fill="#000000" font-family="sans-serif" font-size="14" lengthAdjust="spacing" textLength="92" x="669" y="1409.7988">boolean active</text><rect fill="none" height="6" style="stroke:#C82930;stroke-width:1.0;" width="6" x="657" y="1420.1797"/><text fill="#000000" font-family="sans-serif" font-size="14" lengthAdjust="spacing" textLength="154" x="669" y="1427.4082">Calendar deactivatedOn</text><rect fill="none" height="6" style="stroke:#C82930;stroke-width:1.0;" width="6" x="657" y="1437.7891"/><text fill="#000000" font-family="sans-serif" font-size="14" lengthAdjust="spacing" textLength="138" x="669" y="1445.0176">Calendar activatedOn</text><rect fill="none" height="6" style="stroke:#C82930;stroke-width:1.0;" width="6" x="657" y="1455.3984"/><text fill="#000000" font-family="sans-serif" font-size="14" lengthAdjust="spacing" textLength="113" x="669" y="1462.627">String resetToken</text><line style="stroke:#181818;stroke-width:0.5;" x1="650" x2="841" y1="1469.7031" y2="1469.7031"/><ellipse cx="660" cy="1484.0078" fill="#84BE84" rx="3" ry="3" style="stroke:#038048;stroke-width:1.0;"/><text fill="#000000" font-family="sans-serif" font-size="14" lengthAdjust="spacing" textLength="141" x="669" y="1488.2363">email() : EmailAddress</text></g><!--link User to CancelMeetingUI--><g id="link_User_CancelMeetingUI"><path codeLine="98" d="M525.5,55.08 C525.5,70.13 525.5,90.43 525.5,109.47 " fill="none" id="User-to-CancelMeetingUI" style="stroke:#181818;stroke-width:1.0;"/><polygon fill="#181818" points="525.5,114.8,529.5,105.8,525.5,109.8,521.5,105.8,525.5,114.8" style="stroke:#181818;stroke-width:1.0;"/></g><!--link CancelMeetingUI to CancelMeetingController--><g id="link_CancelMeetingUI_CancelMeetingController"><path codeLine="99" d="M525.5,216.3 C525.5,233.4 525.5,252.78 525.5,270.8 " fill="none" id="CancelMeetingUI-to-CancelMeetingController" style="stroke:#181818;stroke-width:1.0;"/><polygon fill="#181818" points="525.5,275.84,529.5,266.84,525.5,270.84,521.5,266.84,525.5,275.84" style="stroke:#181818;stroke-width:1.0;"/></g><!--link CancelMeetingController to MeetingRepository--><g id="link_CancelMeetingController_MeetingRepository"><path codeLine="100" d="M473.28,394.14 C459.06,412.31 444.76,433.1 434.5,454 C397.07,530.22 376.06,626.54 365.51,688.69 " fill="none" id="CancelMeetingController-to-MeetingRepository" style="stroke:#181818;stroke-width:1.0;"/><polygon fill="#181818" points="364.64,693.85,370.0729,685.6351,365.4666,688.9188,362.183,684.3126,364.64,693.85" style="stroke:#181818;stroke-width:1.0;"/></g><!--link CancelMeetingController to MeetingALRepository--><g id="link_CancelMeetingController_MeetingALRepository"><path codeLine="101" d="M576.68,394.12 C592.42,411.99 609.81,431.73 625.77,449.86 " fill="none" id="CancelMeetingController-to-MeetingALRepository" style="stroke:#181818;stroke-width:1.0;"/><polygon fill="#181818" points="629.37,453.94,626.4361,444.5383,626.0704,450.1833,620.4254,449.8176,629.37,453.94" style="stroke:#181818;stroke-width:1.0;"/></g><!--link MeetingRepository to Meeting--><g id="link_MeetingRepository_Meeting"><path codeLine="102" d="M360.19,812.2 C362.28,845.3 364.99,888.1 367.55,928.47 " fill="none" id="MeetingRepository-to-Meeting" style="stroke:#181818;stroke-width:1.0;"/><polygon fill="#181818" points="367.89,933.89,371.3159,924.6562,367.5754,928.8999,363.3317,925.1595,367.89,933.89" style="stroke:#181818;stroke-width:1.0;"/></g><!--link Meeting to Duration--><g id="link_Meeting_Duration"><path codeLine="103" d="M261.8,1141.56 C227.72,1169.78 191.47,1202.56 161.5,1236 C138.55,1261.61 117.04,1293.76 101.27,1319.5 " fill="none" id="Meeting-to-Duration" style="stroke:#181818;stroke-width:1.0;"/><polygon fill="#181818" points="98.59,1323.9,106.6863,1318.292,101.1897,1319.629,99.8527,1314.1324,98.59,1323.9" style="stroke:#181818;stroke-width:1.0;"/></g><!--link Meeting to TimeMeeting--><g id="link_Meeting_TimeMeeting"><path codeLine="104" d="M330.32,1176.16 C311.51,1226.19 290.8,1281.26 276.66,1318.85 " fill="none" id="Meeting-to-TimeMeeting" style="stroke:#181818;stroke-width:1.0;"/><polygon fill="#181818" points="274.8,1323.81,281.7242,1316.806,276.5681,1319.1331,274.241,1313.977,274.8,1323.81" style="stroke:#181818;stroke-width:1.0;"/></g><!--link Meeting to Date--><g id="link_Meeting_Date"><path codeLine="105" d="M421.85,1176.16 C438.34,1218.9 456.24,1265.32 470.15,1301.39 " fill="none" id="Meeting-to-Date" style="stroke:#181818;stroke-width:1.0;"/><polygon fill="#181818" points="472,1306.18,472.4965,1296.3437,470.2022,1301.5144,465.0315,1299.2201,472,1306.18" style="stroke:#181818;stroke-width:1.0;"/></g><!--link Meeting to SystemUser--><g id="link_Meeting_SystemUser"><path codeLine="106" d="M489.05,1127.52 C535.09,1158.59 587.63,1196.82 631.5,1236 C636.02,1240.04 640.54,1244.24 645.03,1248.56 " fill="none" id="Meeting-to-SystemUser" style="stroke:#181818;stroke-width:1.0;"/><polygon fill="#181818" points="648.79,1252.21,645.1248,1243.0685,645.2048,1248.7248,639.5485,1248.8048,648.79,1252.21" style="stroke:#181818;stroke-width:1.0;"/></g><!--link MeetingAccessList to Meeting--><g id="link_MeetingAccessList_Meeting"><path codeLine="107" d="M566.59,874.29 C542.24,897.19 516.86,921.06 492.86,943.63 " fill="none" id="MeetingAccessList-to-Meeting" style="stroke:#181818;stroke-width:1.0;"/><polygon fill="#181818" points="489.02,947.24,498.3153,943.9845,492.661,943.8132,492.8323,938.1589,489.02,947.24" style="stroke:#181818;stroke-width:1.0;"/></g><!--link MeetingAccessList to SystemUser--><g id="link_MeetingAccessList_SystemUser"><path codeLine="108" d="M705.3,874.05 C707.06,894.07 708.85,914.62 710.5,934 C718.96,1033.45 728.09,1145.85 734.9,1230.87 " fill="none" id="MeetingAccessList-to-SystemUser" style="stroke:#181818;stroke-width:1.0;"/><polygon fill="#181818" points="735.3,1235.91,738.5674,1226.6189,734.9001,1230.926,730.5931,1227.2587,735.3,1235.91" style="stroke:#181818;stroke-width:1.0;"/></g><!--link MeetingAccessList to InviteState--><g id="link_MeetingAccessList_InviteState"><path codeLine="109" d="M674.05,874.29 C667.29,914.06 660.04,956.73 654.29,990.51 " fill="none" id="MeetingAccessList-to-InviteState" style="stroke:#181818;stroke-width:1.0;"/><polygon fill="#181818" points="653.39,995.85,658.8267,987.6377,654.2189,990.9192,650.9375,986.3114,653.39,995.85" style="stroke:#181818;stroke-width:1.0;"/></g><!--link MeetingALRepository to MeetingAccessList--><g id="link_MeetingALRepository_MeetingAccessList"><path codeLine="110" d="M683.92,572.22 C684.9,588.83 686.01,607.59 687.12,626.57 " fill="none" id="MeetingALRepository-to-MeetingAccessList" style="stroke:#181818;stroke-width:1.0;"/><polygon fill="#181818" points="687.44,631.93,690.8922,622.706,687.1397,626.939,682.9067,623.1865,687.44,631.93" style="stroke:#181818;stroke-width:1.0;"/></g><!--SRC=[bLPBRnen4BxpAtpSYdBejMeZ8UW1YOGgGEwEFG6tNXkj3Icj-j_hv-wiTr6JNF3Em_FDDpEUC4cD8Ni33Vap-JkPiF1z3s25EZp2IHjXTNDrIkB-fYz2yNlwQyMh3-GpaLeTefnHnK0cjyhBYU3-qvjTjE3HxEpY92DJRMtZVWdKL4XljXR6VadQksXFfTo_tQM4FryF4xX08rwkSyKVj7M7AjomlHeBjOzqHpn4yp5VGUhuwuCzQos1gepCGhErrCAywjo3jxVD21W3OtoCqclv3gy0ANXL65P9GEU6g5ZWmknNYOPPJxpGoZPQIeU4jSSOckljKRzMW_IFGBaK2e8cLkL6J7HvYZrihZf6cytFzgWRyPjQeTKMcejWGEY8SAIRRdHGlp5B-a9d3jgcvJ4Z9klOq4LXPgIeOPAkr4LO20KZeZidRT5P4IOnO95RTUEA_ZIHWtD2e8gPz6eFBTQeHOfyKK1liogm1gDC7UhF39dMC3VLvla7C4kqFSOcxlM98msK5VOQ_1UQmu3kacGSP4QMvoOKdl1qIFATg25VOBjpzlAyyOvpL2VM07LDryB3-QqxxdAu85_Ys5CSBwXtHVnf21qzEoxVJrSePKjNoqJcAps6l0-k1xoSJCnQSOrFwaP-vIs1tH95b-WOWfITUQ9ISEzV8RyX3MuQnepwuufd9AFPC7O-2U0Pd6Cp7VsOd6ohMOBoPkrbNOVagy8ISz-2oYVt_hg4zgib-Ke-hN6_Ng8gYRxvnJJdl74J6RTKKdntCLvrmyaf7PBymJK5KRJEZVheMDY29Ux519Da2of1SPfQ5_WcHqkS4Sgik41fpI78UnwjSgXAL3laO7Vw9-HIX2n2AN5odhWmJhFPNRbZ9kNE6TXqEs5oQrTudy6YU8irNlgJuQf1bbaRPEs8Oo4Ux9wnRtOiGA_hS8cCX2oq_tN7B_FOFpSu_zRp7m00]--></g></svg>