<?xml version="1.0" encoding="us-ascii" standalone="no"?><svg xmlns="http://www.w3.org/2000/svg" xmlns:xlink="http://www.w3.org/1999/xlink" contentStyleType="text/css" height="856px" preserveAspectRatio="none" style="width:1522px;height:856px;background:#FFFFFF;" version="1.1" viewBox="0 0 1522 856" width="1522px" zoomAndPan="magnify"><defs/><g><rect fill="#FFFFFF" height="671.7344" style="stroke:#181818;stroke-width:1.0;" width="10" x="32.5" y="92.6094"/><rect fill="#FFFFFF" height="394.5703" style="stroke:#181818;stroke-width:1.0;" width="10" x="317.5" y="114.9609"/><rect fill="#FFFFFF" height="224.4609" style="stroke:#181818;stroke-width:1.0;" width="10" x="317.5" y="539.8828"/><rect fill="#FFFFFF" height="151.7578" style="stroke:#181818;stroke-width:1.0;" width="10" x="512.5" y="145.3125"/><rect fill="#FFFFFF" height="151.7578" style="stroke:#181818;stroke-width:1.0;" width="10" x="512.5" y="327.4219"/><rect fill="#FFFFFF" height="30.3516" style="stroke:#181818;stroke-width:1.0;" width="10" x="512.5" y="570.2344"/><rect fill="#FFFFFF" height="30.3516" style="stroke:#181818;stroke-width:1.0;" width="10" x="679" y="175.6641"/><rect fill="#FFFFFF" height="91.0547" style="stroke:#181818;stroke-width:1.0;" width="10" x="830.5" y="206.0156"/><rect fill="#FFFFFF" height="30.3516" style="stroke:#181818;stroke-width:1.0;" width="10" x="1002.5" y="236.3672"/><rect fill="#FFFFFF" height="91.0547" style="stroke:#181818;stroke-width:1.0;" width="10" x="1154.5" y="357.7734"/><rect fill="#FFFFFF" height="60.7031" style="stroke:#181818;stroke-width:1.0;" width="10" x="1154.5" y="600.5859"/><rect fill="#FFFFFF" height="30.3516" style="stroke:#181818;stroke-width:1.0;" width="10" x="1303.5" y="266.7188"/><rect fill="#FFFFFF" height="30.3516" style="stroke:#181818;stroke-width:1.0;" width="10" x="1303.5" y="388.125"/><rect fill="#FFFFFF" height="30.3516" style="stroke:#181818;stroke-width:1.0;" width="10" x="1303.5" y="630.9375"/><rect fill="#FFFFFF" height="55.7031" style="stroke:#181818;stroke-width:1.0;" width="10" x="1446" y="661.2891"/><rect fill="none" height="81.0547" style="stroke:#000000;stroke-width:1.5;" width="382.5" x="10" y="676.2891"/><line style="stroke:#181818;stroke-width:0.5;stroke-dasharray:5.0,5.0;" x1="37" x2="37" y1="82.6094" y2="774.3438"/><line style="stroke:#181818;stroke-width:0.5;stroke-dasharray:5.0,5.0;" x1="322.5" x2="322.5" y1="82.6094" y2="774.3438"/><line style="stroke:#181818;stroke-width:0.5;stroke-dasharray:5.0,5.0;" x1="517.5" x2="517.5" y1="82.6094" y2="774.3438"/><line style="stroke:#181818;stroke-width:0.5;stroke-dasharray:5.0,5.0;" x1="683.5" x2="683.5" y1="82.6094" y2="774.3438"/><line style="stroke:#181818;stroke-width:0.5;stroke-dasharray:5.0,5.0;" x1="835.5" x2="835.5" y1="82.6094" y2="774.3438"/><line style="stroke:#181818;stroke-width:0.5;stroke-dasharray:5.0,5.0;" x1="1007.5" x2="1007.5" y1="82.6094" y2="774.3438"/><line style="stroke:#181818;stroke-width:0.5;stroke-dasharray:5.0,5.0;" x1="1159.5" x2="1159.5" y1="82.6094" y2="774.3438"/><line style="stroke:#181818;stroke-width:0.5;stroke-dasharray:5.0,5.0;" x1="1308.5" x2="1308.5" y1="82.6094" y2="774.3438"/><line style="stroke:#181818;stroke-width:0.5;stroke-dasharray:5.0,5.0;" x1="1450.5" x2="1450.5" y1="82.6094" y2="774.3438"/><text fill="#000000" font-family="sans-serif" font-size="14" lengthAdjust="spacing" textLength="29" x="20" y="79.5332">User</text><ellipse cx="37.5" cy="13.5" fill="#E2E2F0" rx="8" ry="8" style="stroke:#181818;stroke-width:0.5;"/><path d="M37.5,21.5 L37.5,48.5 M24.5,29.5 L50.5,29.5 M37.5,48.5 L24.5,63.5 M37.5,48.5 L50.5,63.5 " fill="none" style="stroke:#181818;stroke-width:0.5;"/><text fill="#000000" font-family="sans-serif" font-size="14" lengthAdjust="spacing" textLength="29" x="20" y="787.877">User</text><ellipse cx="37.5" cy="799.4531" fill="#E2E2F0" rx="8" ry="8" style="stroke:#181818;stroke-width:0.5;"/><path d="M37.5,807.4531 L37.5,834.4531 M24.5,815.4531 L50.5,815.4531 M37.5,834.4531 L24.5,849.4531 M37.5,834.4531 L50.5,849.4531 " fill="none" style="stroke:#181818;stroke-width:0.5;"/><rect fill="#E2E2F0" height="31.6094" rx="2.5" ry="2.5" style="stroke:#181818;stroke-width:0.5;" width="120" x="262.5" y="50"/><text fill="#000000" font-family="sans-serif" font-size="14" lengthAdjust="spacing" textLength="106" x="269.5" y="71.5332">CancelMeetingUI</text><rect fill="#E2E2F0" height="31.6094" rx="2.5" ry="2.5" style="stroke:#181818;stroke-width:0.5;" width="120" x="262.5" y="773.3438"/><text fill="#000000" font-family="sans-serif" font-size="14" lengthAdjust="spacing" textLength="106" x="269.5" y="794.877">CancelMeetingUI</text><rect fill="#E2E2F0" height="31.6094" rx="2.5" ry="2.5" style="stroke:#181818;stroke-width:0.5;" width="170" x="432.5" y="50"/><text fill="#000000" font-family="sans-serif" font-size="14" lengthAdjust="spacing" textLength="156" x="439.5" y="71.5332">CancelMeetingController</text><rect fill="#E2E2F0" height="31.6094" rx="2.5" ry="2.5" style="stroke:#181818;stroke-width:0.5;" width="170" x="432.5" y="773.3438"/><text fill="#000000" font-family="sans-serif" font-size="14" lengthAdjust="spacing" textLength="156" x="439.5" y="794.877">CancelMeetingController</text><rect fill="#E2E2F0" height="31.6094" rx="2.5" ry="2.5" style="stroke:#181818;stroke-width:0.5;" width="143" x="612.5" y="50"/><text fill="#000000" font-family="sans-serif" font-size="14" lengthAdjust="spacing" textLength="129" x="619.5" y="71.5332">AuthorizationService</text><rect fill="#E2E2F0" height="31.6094" rx="2.5" ry="2.5" style="stroke:#181818;stroke-width:0.5;" width="143" x="612.5" y="773.3438"/><text fill="#000000" font-family="sans-serif" font-size="14" lengthAdjust="spacing" textLength="129" x="619.5" y="794.877">AuthorizationService</text><rect fill="#E2E2F0" height="31.6094" rx="2.5" ry="2.5" style="stroke:#181818;stroke-width:0.5;" width="140" x="765.5" y="50"/><text fill="#000000" font-family="sans-serif" font-size="14" lengthAdjust="spacing" textLength="126" x="772.5" y="71.5332">Persistence Context</text><rect fill="#E2E2F0" height="31.6094" rx="2.5" ry="2.5" style="stroke:#181818;stroke-width:0.5;" width="140" x="765.5" y="773.3438"/><text fill="#000000" font-family="sans-serif" font-size="14" lengthAdjust="spacing" textLength="126" x="772.5" y="794.877">Persistence Context</text><rect fill="#E2E2F0" height="31.6094" rx="2.5" ry="2.5" style="stroke:#181818;stroke-width:0.5;" width="130" x="942.5" y="50"/><text fill="#000000" font-family="sans-serif" font-size="14" lengthAdjust="spacing" textLength="116" x="949.5" y="71.5332">RepositoryFactory</text><rect fill="#E2E2F0" height="31.6094" rx="2.5" ry="2.5" style="stroke:#181818;stroke-width:0.5;" width="130" x="942.5" y="773.3438"/><text fill="#000000" font-family="sans-serif" font-size="14" lengthAdjust="spacing" textLength="116" x="949.5" y="794.877">RepositoryFactory</text><rect fill="#E2E2F0" height="31.6094" rx="2.5" ry="2.5" style="stroke:#181818;stroke-width:0.5;" width="154" x="1082.5" y="50"/><text fill="#000000" font-family="sans-serif" font-size="14" lengthAdjust="spacing" textLength="140" x="1089.5" y="71.5332">JpaMeetingRepository</text><rect fill="#E2E2F0" height="31.6094" rx="2.5" ry="2.5" style="stroke:#181818;stroke-width:0.5;" width="154" x="1082.5" y="773.3438"/><text fill="#000000" font-family="sans-serif" font-size="14" lengthAdjust="spacing" textLength="140" x="1089.5" y="794.877">JpaMeetingRepository</text><text fill="#000000" font-family="sans-serif" font-size="14" lengthAdjust="spacing" textLength="118" x="1246.5" y="79.5332">MeetingRepository</text><path d="M1290.5,29 C1290.5,19 1308.5,19 1308.5,19 C1308.5,19 1326.5,19 1326.5,29 L1326.5,55 C1326.5,65 1308.5,65 1308.5,65 C1308.5,65 1290.5,65 1290.5,55 L1290.5,29 " fill="#E2E2F0" style="stroke:#181818;stroke-width:1.5;"/><path d="M1290.5,29 C1290.5,39 1308.5,39 1308.5,39 C1308.5,39 1326.5,39 1326.5,29 " fill="none" style="stroke:#181818;stroke-width:1.5;"/><text fill="#000000" font-family="sans-serif" font-size="14" lengthAdjust="spacing" textLength="118" x="1246.5" y="787.877">MeetingRepository</text><path d="M1290.5,800.9531 C1290.5,790.9531 1308.5,790.9531 1308.5,790.9531 C1308.5,790.9531 1326.5,790.9531 1326.5,800.9531 L1326.5,826.9531 C1326.5,836.9531 1308.5,836.9531 1308.5,836.9531 C1308.5,836.9531 1290.5,836.9531 1290.5,826.9531 L1290.5,800.9531 " fill="#E2E2F0" style="stroke:#181818;stroke-width:1.5;"/><path d="M1290.5,800.9531 C1290.5,810.9531 1308.5,810.9531 1308.5,810.9531 C1308.5,810.9531 1326.5,810.9531 1326.5,800.9531 " fill="none" style="stroke:#181818;stroke-width:1.5;"/><text fill="#000000" font-family="sans-serif" font-size="14" lengthAdjust="spacing" textLength="135" x="1380.5" y="79.5332">MeetingALRepository</text><path d="M1433,29 C1433,19 1451,19 1451,19 C1451,19 1469,19 1469,29 L1469,55 C1469,65 1451,65 1451,65 C1451,65 1433,65 1433,55 L1433,29 " fill="#E2E2F0" style="stroke:#181818;stroke-width:1.5;"/><path d="M1433,29 C1433,39 1451,39 1451,39 C1451,39 1469,39 1469,29 " fill="none" style="stroke:#181818;stroke-width:1.5;"/><text fill="#000000" font-family="sans-serif" font-size="14" lengthAdjust="spacing" textLength="135" x="1380.5" y="787.877">MeetingALRepository</text><path d="M1433,800.9531 C1433,790.9531 1451,790.9531 1451,790.9531 C1451,790.9531 1469,790.9531 1469,800.9531 L1469,826.9531 C1469,836.9531 1451,836.9531 1451,836.9531 C1451,836.9531 1433,836.9531 1433,826.9531 L1433,800.9531 " fill="#E2E2F0" style="stroke:#181818;stroke-width:1.5;"/><path d="M1433,800.9531 C1433,810.9531 1451,810.9531 1451,810.9531 C1451,810.9531 1469,810.9531 1469,800.9531 " fill="none" style="stroke:#181818;stroke-width:1.5;"/><rect fill="#FFFFFF" height="671.7344" style="stroke:#181818;stroke-width:1.0;" width="10" x="32.5" y="92.6094"/><rect fill="#FFFFFF" height="394.5703" style="stroke:#181818;stroke-width:1.0;" width="10" x="317.5" y="114.9609"/><rect fill="#FFFFFF" height="224.4609" style="stroke:#181818;stroke-width:1.0;" width="10" x="317.5" y="539.8828"/><rect fill="#FFFFFF" height="151.7578" style="stroke:#181818;stroke-width:1.0;" width="10" x="512.5" y="145.3125"/><rect fill="#FFFFFF" height="151.7578" style="stroke:#181818;stroke-width:1.0;" width="10" x="512.5" y="327.4219"/><rect fill="#FFFFFF" height="30.3516" style="stroke:#181818;stroke-width:1.0;" width="10" x="512.5" y="570.2344"/><rect fill="#FFFFFF" height="30.3516" style="stroke:#181818;stroke-width:1.0;" width="10" x="679" y="175.6641"/><rect fill="#FFFFFF" height="91.0547" style="stroke:#181818;stroke-width:1.0;" width="10" x="830.5" y="206.0156"/><rect fill="#FFFFFF" height="30.3516" style="stroke:#181818;stroke-width:1.0;" width="10" x="1002.5" y="236.3672"/><rect fill="#FFFFFF" height="91.0547" style="stroke:#181818;stroke-width:1.0;" width="10" x="1154.5" y="357.7734"/><rect fill="#FFFFFF" height="60.7031" style="stroke:#181818;stroke-width:1.0;" width="10" x="1154.5" y="600.5859"/><rect fill="#FFFFFF" height="30.3516" style="stroke:#181818;stroke-width:1.0;" width="10" x="1303.5" y="266.7188"/><rect fill="#FFFFFF" height="30.3516" style="stroke:#181818;stroke-width:1.0;" width="10" x="1303.5" y="388.125"/><rect fill="#FFFFFF" height="30.3516" style="stroke:#181818;stroke-width:1.0;" width="10" x="1303.5" y="630.9375"/><rect fill="#FFFFFF" height="55.7031" style="stroke:#181818;stroke-width:1.0;" width="10" x="1446" y="661.2891"/><polygon fill="#181818" points="305.5,110.9609,315.5,114.9609,305.5,118.9609,309.5,114.9609" style="stroke:#181818;stroke-width:1.0;"/><line style="stroke:#181818;stroke-width:1.0;" x1="42.5" x2="311.5" y1="114.9609" y2="114.9609"/><text fill="#000000" font-family="sans-serif" font-size="13" font-weight="bold" lengthAdjust="spacing" textLength="7" x="49.5" y="110.1045">1</text><text fill="#000000" font-family="sans-serif" font-size="13" lengthAdjust="spacing" textLength="145" x="60.5" y="110.1045">want to cancel a meeting</text><polygon fill="#181818" points="500.5,141.3125,510.5,145.3125,500.5,149.3125,504.5,145.3125" style="stroke:#181818;stroke-width:1.0;"/><line style="stroke:#181818;stroke-width:1.0;" x1="327.5" x2="506.5" y1="145.3125" y2="145.3125"/><text fill="#000000" font-family="sans-serif" font-size="13" font-weight="bold" lengthAdjust="spacing" textLength="7" x="334.5" y="140.4561">2</text><text fill="#000000" font-family="sans-serif" font-size="13" lengthAdjust="spacing" textLength="149" x="345.5" y="140.4561">CancelMeetingController()</text><polygon fill="#181818" points="667,171.6641,677,175.6641,667,179.6641,671,175.6641" style="stroke:#181818;stroke-width:1.0;"/><line style="stroke:#181818;stroke-width:1.0;" x1="522.5" x2="673" y1="175.6641" y2="175.6641"/><text fill="#000000" font-family="sans-serif" font-size="13" font-weight="bold" lengthAdjust="spacing" textLength="7" x="529.5" y="170.8076">3</text><text fill="#000000" font-family="sans-serif" font-size="13" lengthAdjust="spacing" textLength="75" x="540.5" y="170.8076">userService()</text><polygon fill="#181818" points="818.5,202.0156,828.5,206.0156,818.5,210.0156,822.5,206.0156" style="stroke:#181818;stroke-width:1.0;"/><line style="stroke:#181818;stroke-width:1.0;" x1="522.5" x2="824.5" y1="206.0156" y2="206.0156"/><text fill="#000000" font-family="sans-serif" font-size="13" font-weight="bold" lengthAdjust="spacing" textLength="7" x="529.5" y="201.1592">4</text><text fill="#000000" font-family="sans-serif" font-size="13" lengthAdjust="spacing" textLength="75" x="540.5" y="201.1592">repositories()</text><polygon fill="#181818" points="990.5,232.3672,1000.5,236.3672,990.5,240.3672,994.5,236.3672" style="stroke:#181818;stroke-width:1.0;"/><line style="stroke:#181818;stroke-width:1.0;" x1="840.5" x2="996.5" y1="236.3672" y2="236.3672"/><text fill="#000000" font-family="sans-serif" font-size="13" font-weight="bold" lengthAdjust="spacing" textLength="7" x="847.5" y="231.5107">5</text><text fill="#000000" font-family="sans-serif" font-size="13" lengthAdjust="spacing" textLength="132" x="858.5" y="231.5107">getRepositoryFactory()</text><polygon fill="#181818" points="1291.5,262.7188,1301.5,266.7188,1291.5,270.7188,1295.5,266.7188" style="stroke:#181818;stroke-width:1.0;"/><line style="stroke:#181818;stroke-width:1.0;" x1="1007.5" x2="1297.5" y1="266.7188" y2="266.7188"/><text fill="#000000" font-family="sans-serif" font-size="13" font-weight="bold" lengthAdjust="spacing" textLength="7" x="1014.5" y="261.8623">6</text><text fill="#000000" font-family="sans-serif" font-size="13" lengthAdjust="spacing" textLength="116" x="1025.5" y="261.8623">meetingRepository()</text><polygon fill="#181818" points="528.5,293.0703,518.5,297.0703,528.5,301.0703,524.5,297.0703" style="stroke:#181818;stroke-width:1.0;"/><line style="stroke:#181818;stroke-width:1.0;stroke-dasharray:2.0,2.0;" x1="522.5" x2="834.5" y1="297.0703" y2="297.0703"/><text fill="#000000" font-family="sans-serif" font-size="13" font-weight="bold" lengthAdjust="spacing" textLength="7" x="534.5" y="292.2139">7</text><text fill="#000000" font-family="sans-serif" font-size="13" lengthAdjust="spacing" textLength="39" x="545.5" y="292.2139">factory</text><polygon fill="#181818" points="500.5,323.4219,510.5,327.4219,500.5,331.4219,504.5,327.4219" style="stroke:#181818;stroke-width:1.0;"/><line style="stroke:#181818;stroke-width:1.0;" x1="327.5" x2="506.5" y1="327.4219" y2="327.4219"/><text fill="#000000" font-family="sans-serif" font-size="13" font-weight="bold" lengthAdjust="spacing" textLength="7" x="334.5" y="322.5654">8</text><text fill="#000000" font-family="sans-serif" font-size="13" lengthAdjust="spacing" textLength="86" x="345.5" y="322.5654">userMeetings()</text><polygon fill="#181818" points="1142.5,353.7734,1152.5,357.7734,1142.5,361.7734,1146.5,357.7734" style="stroke:#181818;stroke-width:1.0;"/><line style="stroke:#181818;stroke-width:1.0;" x1="522.5" x2="1148.5" y1="357.7734" y2="357.7734"/><text fill="#000000" font-family="sans-serif" font-size="13" font-weight="bold" lengthAdjust="spacing" textLength="7" x="529.5" y="352.917">9</text><text fill="#000000" font-family="sans-serif" font-size="13" lengthAdjust="spacing" textLength="155" x="540.5" y="352.917">userMeetings(String email)</text><polygon fill="#181818" points="1291.5,384.125,1301.5,388.125,1291.5,392.125,1295.5,388.125" style="stroke:#181818;stroke-width:1.0;"/><line style="stroke:#181818;stroke-width:1.0;" x1="1164.5" x2="1297.5" y1="388.125" y2="388.125"/><text fill="#000000" font-family="sans-serif" font-size="13" font-weight="bold" lengthAdjust="spacing" textLength="14" x="1171.5" y="383.2686">10</text><text fill="#000000" font-family="sans-serif" font-size="13" lengthAdjust="spacing" textLength="40" x="1189.5" y="383.2686">query()</text><polygon fill="#181818" points="1175.5,414.4766,1165.5,418.4766,1175.5,422.4766,1171.5,418.4766" style="stroke:#181818;stroke-width:1.0;"/><line style="stroke:#181818;stroke-width:1.0;stroke-dasharray:2.0,2.0;" x1="1169.5" x2="1307.5" y1="418.4766" y2="418.4766"/><text fill="#000000" font-family="sans-serif" font-size="13" font-weight="bold" lengthAdjust="spacing" textLength="14" x="1181.5" y="413.6201">11</text><text fill="#000000" font-family="sans-serif" font-size="13" lengthAdjust="spacing" textLength="61" x="1199.5" y="413.6201">returns list</text><polygon fill="#181818" points="533.5,444.8281,523.5,448.8281,533.5,452.8281,529.5,448.8281" style="stroke:#181818;stroke-width:1.0;"/><line style="stroke:#181818;stroke-width:1.0;stroke-dasharray:2.0,2.0;" x1="527.5" x2="1158.5" y1="448.8281" y2="448.8281"/><text fill="#000000" font-family="sans-serif" font-size="13" font-weight="bold" lengthAdjust="spacing" textLength="14" x="539.5" y="443.9717">12</text><text fill="#000000" font-family="sans-serif" font-size="13" lengthAdjust="spacing" textLength="61" x="557.5" y="443.9717">returns list</text><polygon fill="#181818" points="338.5,475.1797,328.5,479.1797,338.5,483.1797,334.5,479.1797" style="stroke:#181818;stroke-width:1.0;"/><line style="stroke:#181818;stroke-width:1.0;stroke-dasharray:2.0,2.0;" x1="332.5" x2="516.5" y1="479.1797" y2="479.1797"/><text fill="#000000" font-family="sans-serif" font-size="13" font-weight="bold" lengthAdjust="spacing" textLength="14" x="344.5" y="474.3232">13</text><text fill="#000000" font-family="sans-serif" font-size="13" lengthAdjust="spacing" textLength="61" x="362.5" y="474.3232">returns list</text><polygon fill="#181818" points="53.5,505.5313,43.5,509.5313,53.5,513.5313,49.5,509.5313" style="stroke:#181818;stroke-width:1.0;"/><line style="stroke:#181818;stroke-width:1.0;stroke-dasharray:2.0,2.0;" x1="47.5" x2="321.5" y1="509.5313" y2="509.5313"/><text fill="#000000" font-family="sans-serif" font-size="13" font-weight="bold" lengthAdjust="spacing" textLength="14" x="59.5" y="504.6748">14</text><text fill="#000000" font-family="sans-serif" font-size="13" lengthAdjust="spacing" textLength="233" x="77.5" y="504.6748">asks what meeting user wants to cancel</text><polygon fill="#181818" points="305.5,535.8828,315.5,539.8828,305.5,543.8828,309.5,539.8828" style="stroke:#181818;stroke-width:1.0;"/><line style="stroke:#181818;stroke-width:1.0;" x1="42.5" x2="311.5" y1="539.8828" y2="539.8828"/><text fill="#000000" font-family="sans-serif" font-size="13" font-weight="bold" lengthAdjust="spacing" textLength="14" x="49.5" y="535.0264">15</text><text fill="#000000" font-family="sans-serif" font-size="13" lengthAdjust="spacing" textLength="156" x="67.5" y="535.0264">chooses meeting to cancel</text><polygon fill="#181818" points="500.5,566.2344,510.5,570.2344,500.5,574.2344,504.5,570.2344" style="stroke:#181818;stroke-width:1.0;"/><line style="stroke:#181818;stroke-width:1.0;" x1="327.5" x2="506.5" y1="570.2344" y2="570.2344"/><text fill="#000000" font-family="sans-serif" font-size="13" font-weight="bold" lengthAdjust="spacing" textLength="14" x="334.5" y="565.3779">16</text><text fill="#000000" font-family="sans-serif" font-size="13" lengthAdjust="spacing" textLength="148" x="352.5" y="565.3779">cancelMeeting(idMeeting)</text><polygon fill="#181818" points="1142.5,596.5859,1152.5,600.5859,1142.5,604.5859,1146.5,600.5859" style="stroke:#181818;stroke-width:1.0;"/><line style="stroke:#181818;stroke-width:1.0;" x1="517.5" x2="1148.5" y1="600.5859" y2="600.5859"/><text fill="#000000" font-family="sans-serif" font-size="13" font-weight="bold" lengthAdjust="spacing" textLength="14" x="524.5" y="595.7295">17</text><text fill="#000000" font-family="sans-serif" font-size="13" lengthAdjust="spacing" textLength="148" x="542.5" y="595.7295">cancelMeeting(idMeeting)</text><polygon fill="#181818" points="1291.5,626.9375,1301.5,630.9375,1291.5,634.9375,1295.5,630.9375" style="stroke:#181818;stroke-width:1.0;"/><line style="stroke:#181818;stroke-width:1.0;" x1="1164.5" x2="1297.5" y1="630.9375" y2="630.9375"/><text fill="#000000" font-family="sans-serif" font-size="13" font-weight="bold" lengthAdjust="spacing" textLength="14" x="1171.5" y="626.0811">18</text><text fill="#000000" font-family="sans-serif" font-size="13" lengthAdjust="spacing" textLength="40" x="1189.5" y="626.0811">query()</text><polygon fill="#181818" points="1434,657.2891,1444,661.2891,1434,665.2891,1438,661.2891" style="stroke:#181818;stroke-width:1.0;"/><line style="stroke:#181818;stroke-width:1.0;" x1="1159.5" x2="1440" y1="661.2891" y2="661.2891"/><text fill="#000000" font-family="sans-serif" font-size="13" font-weight="bold" lengthAdjust="spacing" textLength="14" x="1166.5" y="656.4326">19</text><text fill="#000000" font-family="sans-serif" font-size="13" lengthAdjust="spacing" textLength="40" x="1184.5" y="656.4326">query()</text><path d="M10,676.2891 L71,676.2891 L71,684.6406 L61,694.6406 L10,694.6406 L10,676.2891 " fill="#EEEEEE" style="stroke:#000000;stroke-width:1.5;"/><rect fill="none" height="81.0547" style="stroke:#000000;stroke-width:1.5;" width="382.5" x="10" y="676.2891"/><text fill="#000000" font-family="sans-serif" font-size="13" font-weight="bold" lengthAdjust="spacing" textLength="16" x="25" y="690.7842">alt</text><text fill="#000000" font-family="sans-serif" font-size="11" font-weight="bold" lengthAdjust="spacing" textLength="118" x="86" y="689.708">[exception is thrown]</text><polygon fill="#181818" points="53.5,712.9922,43.5,716.9922,53.5,720.9922,49.5,716.9922" style="stroke:#181818;stroke-width:1.0;"/><line style="stroke:#181818;stroke-width:1.0;stroke-dasharray:2.0,2.0;" x1="47.5" x2="316.5" y1="716.9922" y2="716.9922"/><text fill="#000000" font-family="sans-serif" font-size="13" font-weight="bold" lengthAdjust="spacing" textLength="14" x="59.5" y="712.1357">20</text><text fill="#000000" font-family="sans-serif" font-size="13" lengthAdjust="spacing" textLength="195" x="77.5" y="712.1357">Informs that an error has occurred</text><line style="stroke:#000000;stroke-width:1.0;stroke-dasharray:2.0,2.0;" x1="10" x2="392.5" y1="725.9922" y2="725.9922"/><polygon fill="#181818" points="53.5,745.3438,43.5,749.3438,53.5,753.3438,49.5,749.3438" style="stroke:#181818;stroke-width:1.0;"/><line style="stroke:#181818;stroke-width:1.0;stroke-dasharray:2.0,2.0;" x1="47.5" x2="316.5" y1="749.3438" y2="749.3438"/><text fill="#000000" font-family="sans-serif" font-size="13" font-weight="bold" lengthAdjust="spacing" textLength="14" x="59.5" y="744.4873">21</text><text fill="#000000" font-family="sans-serif" font-size="13" lengthAdjust="spacing" textLength="197" x="77.5" y="744.4873">Informs the meeting was canceled</text><!--SRC=[dPJ1ReCm343lV8NLqtRO3_Gm2I5LwhHAgAmVa0LlH8E4EM7TzlLp0eL0nmxhfT0-E_QpGNJEwAvvHag4T8PWSx986n0MJaaho2cfMg4TR3AX9TO7HAVqwsdV8_i_cCneHwQkXtJPq-CSJZjN6LBVmYcZ2wGF9J6GQJ47SoIhh4FE3JufVhh0vTcSEs9hhE8cldQXbwz07NTpwg4LGu4J7y27F3qafN3YMLY4pU_GuPWNrr3wkCJu5mQzK_KX7BBC4zpTip3OmjdNuGp8O0i4D7sMYDudJ3BFqZXWHUlDxHJXxNgOOzA2GpgUuk0qnbZjGEKPREbIj4BBL8anDrwpPeOvvBY3xIkwAytn0MoRCOQzAAwZMLgSdyFuU1tK-fF6lb_w_760xpEwxSU1SQtpxB56xsIGQ5VS-HrOaeKZ_WPiXAgZgB0kWP-wVUzmhYFK5_wycx8JkewqXPgN-ggPFkDOyneRJWz5NxPgZVJTUGkUOqpODmldIhZBQ4ApOIVjj9Hn0bx69DfUMHbZqOxXKypQ-ifuVMzKELpzEO7Lc4Ld_nZ728LdDCAMUgUm_cbUZYeHjGFybDZwDnWezbUHEUi4-1Cft-iNGut_bwqB3KZ4BzgANnD6oeu8on0Hf-yFnDhYUZ8SHt3cLBqmJeMw12viCS7uxWS0]--></g></svg>