<?xml version="1.0" encoding="UTF-8" standalone="no"?><svg xmlns="http://www.w3.org/2000/svg" xmlns:xlink="http://www.w3.org/1999/xlink" contentStyleType="text/css" height="935px" preserveAspectRatio="none" style="width:1524px;height:935px;background:#FFFFFF;" version="1.1" viewBox="0 0 1524 935" width="1524px" zoomAndPan="magnify"><defs/><g><rect fill="#FFFFFF" height="728.7344" style="stroke:#181818;stroke-width:1.0;" width="10" x="54.5" y="114.9609"/><rect fill="#FFFFFF" height="212.4609" style="stroke:#181818;stroke-width:1.0;" width="10" x="460.5" y="114.9609"/><rect fill="#FFFFFF" height="485.9219" style="stroke:#181818;stroke-width:1.0;" width="10" x="460.5" y="357.7734"/><rect fill="#FFFFFF" height="182.1094" style="stroke:#181818;stroke-width:1.0;" width="10" x="630.5" y="145.3125"/><rect fill="#FFFFFF" height="320.1641" style="stroke:#181818;stroke-width:1.0;" width="10" x="630.5" y="388.125"/><rect fill="#FFFFFF" height="121.4063" style="stroke:#181818;stroke-width:1.0;" width="10" x="818" y="175.6641"/><rect fill="#FFFFFF" height="259.4609" style="stroke:#181818;stroke-width:1.0;" width="10" x="818" y="418.4766"/><rect fill="#FFFFFF" height="91.0547" style="stroke:#181818;stroke-width:1.0;" width="10" x="983" y="206.0156"/><rect fill="#FFFFFF" height="60.7031" style="stroke:#181818;stroke-width:1.0;" width="10" x="1155" y="236.3672"/><rect fill="#FFFFFF" height="198.7578" style="stroke:#181818;stroke-width:1.0;" width="10" x="1299" y="448.8281"/><rect fill="#FFFFFF" height="30.3516" style="stroke:#181818;stroke-width:1.0;" width="10" x="1464" y="266.7188"/><rect fill="#FFFFFF" height="30" style="stroke:#181818;stroke-width:1.0;" width="10" x="1464" y="479.1797"/><rect height="94.0547" style="stroke:#000000;stroke-width:1.5;fill:none;" width="264" x="1215" y="524.1797"/><rect height="61.7031" style="stroke:#000000;stroke-width:1.5;fill:none;" width="244" x="1225" y="549.5313"/><rect height="113.4063" style="stroke:#000000;stroke-width:1.5;fill:none;" width="543" x="10" y="723.2891"/><rect height="48.7031" style="stroke:#000000;stroke-width:1.5;fill:none;" width="523" x="20" y="748.6406"/><line style="stroke:#181818;stroke-width:0.5;fill:none;stroke-dasharray:5.0,5.0;" x1="59" x2="59" y1="82.6094" y2="853.6953"/><line style="stroke:#181818;stroke-width:0.5;fill:none;stroke-dasharray:5.0,5.0;" x1="465" x2="465" y1="82.6094" y2="853.6953"/><line style="stroke:#181818;stroke-width:0.5;fill:none;stroke-dasharray:5.0,5.0;" x1="635" x2="635" y1="82.6094" y2="853.6953"/><line style="stroke:#181818;stroke-width:0.5;fill:none;stroke-dasharray:5.0,5.0;" x1="823" x2="823" y1="82.6094" y2="853.6953"/><line style="stroke:#181818;stroke-width:0.5;fill:none;stroke-dasharray:5.0,5.0;" x1="988" x2="988" y1="82.6094" y2="853.6953"/><line style="stroke:#181818;stroke-width:0.5;fill:none;stroke-dasharray:5.0,5.0;" x1="1160" x2="1160" y1="82.6094" y2="853.6953"/><line style="stroke:#181818;stroke-width:0.5;fill:none;stroke-dasharray:5.0,5.0;" x1="1304" x2="1304" y1="82.6094" y2="853.6953"/><line style="stroke:#181818;stroke-width:0.5;fill:none;stroke-dasharray:5.0,5.0;" x1="1469" x2="1469" y1="82.6094" y2="853.6953"/><text fill="#000000" font-family="sans-serif" font-size="14" lengthAdjust="spacing" textLength="53" x="30" y="79.5332">Teacher</text><ellipse cx="59.5" cy="13.5" fill="#E2E2F0" rx="8" ry="8" style="stroke:#181818;stroke-width:0.5;"/><path d="M59.5,21.5 L59.5,48.5 M46.5,29.5 L72.5,29.5 M59.5,48.5 L46.5,63.5 M59.5,48.5 L72.5,63.5 " fill="none" style="stroke:#181818;stroke-width:0.5;"/><text fill="#000000" font-family="sans-serif" font-size="14" lengthAdjust="spacing" textLength="53" x="30" y="867.2285">Teacher</text><ellipse cx="59.5" cy="878.8047" fill="#E2E2F0" rx="8" ry="8" style="stroke:#181818;stroke-width:0.5;"/><path d="M59.5,886.8047 L59.5,913.8047 M46.5,894.8047 L72.5,894.8047 M59.5,913.8047 L46.5,928.8047 M59.5,913.8047 L72.5,928.8047 " fill="none" style="stroke:#181818;stroke-width:0.5;"/><rect fill="#E2E2F0" height="31.6094" rx="2.5" ry="2.5" style="stroke:#181818;stroke-width:0.5;" width="135" x="398" y="50"/><text fill="#000000" font-family="sans-serif" font-size="14" lengthAdjust="spacing" textLength="121" x="405" y="71.5332">ListExamsCourseUI</text><rect fill="#E2E2F0" height="31.6094" rx="2.5" ry="2.5" style="stroke:#181818;stroke-width:0.5;" width="135" x="398" y="852.6953"/><text fill="#000000" font-family="sans-serif" font-size="14" lengthAdjust="spacing" textLength="121" x="405" y="874.2285">ListExamsCourseUI</text><rect fill="#E2E2F0" height="31.6094" rx="2.5" ry="2.5" style="stroke:#181818;stroke-width:0.5;" width="185" x="543" y="50"/><text fill="#000000" font-family="sans-serif" font-size="14" lengthAdjust="spacing" textLength="171" x="550" y="71.5332">ListExamsCourseController</text><rect fill="#E2E2F0" height="31.6094" rx="2.5" ry="2.5" style="stroke:#181818;stroke-width:0.5;" width="185" x="543" y="852.6953"/><text fill="#000000" font-family="sans-serif" font-size="14" lengthAdjust="spacing" textLength="171" x="550" y="874.2285">ListExamsCourseController</text><rect fill="#E2E2F0" height="31.6094" rx="2.5" ry="2.5" style="stroke:#181818;stroke-width:0.5;" width="170" x="738" y="50"/><text fill="#000000" font-family="sans-serif" font-size="14" lengthAdjust="spacing" textLength="156" x="745" y="71.5332">ListExamsCourseService</text><rect fill="#E2E2F0" height="31.6094" rx="2.5" ry="2.5" style="stroke:#181818;stroke-width:0.5;" width="170" x="738" y="852.6953"/><text fill="#000000" font-family="sans-serif" font-size="14" lengthAdjust="spacing" textLength="156" x="745" y="874.2285">ListExamsCourseService</text><rect fill="#E2E2F0" height="31.6094" rx="2.5" ry="2.5" style="stroke:#181818;stroke-width:0.5;" width="140" x="918" y="50"/><text fill="#000000" font-family="sans-serif" font-size="14" lengthAdjust="spacing" textLength="126" x="925" y="71.5332">Persistence Context</text><rect fill="#E2E2F0" height="31.6094" rx="2.5" ry="2.5" style="stroke:#181818;stroke-width:0.5;" width="140" x="918" y="852.6953"/><text fill="#000000" font-family="sans-serif" font-size="14" lengthAdjust="spacing" textLength="126" x="925" y="874.2285">Persistence Context</text><rect fill="#E2E2F0" height="31.6094" rx="2.5" ry="2.5" style="stroke:#181818;stroke-width:0.5;" width="130" x="1095" y="50"/><text fill="#000000" font-family="sans-serif" font-size="14" lengthAdjust="spacing" textLength="116" x="1102" y="71.5332">RepositoryFactory</text><rect fill="#E2E2F0" height="31.6094" rx="2.5" ry="2.5" style="stroke:#181818;stroke-width:0.5;" width="130" x="1095" y="852.6953"/><text fill="#000000" font-family="sans-serif" font-size="14" lengthAdjust="spacing" textLength="116" x="1102" y="874.2285">RepositoryFactory</text><rect fill="#E2E2F0" height="31.6094" rx="2.5" ry="2.5" style="stroke:#181818;stroke-width:0.5;" width="138" x="1235" y="50"/><text fill="#000000" font-family="sans-serif" font-size="14" lengthAdjust="spacing" textLength="124" x="1242" y="71.5332">JpaExamRepository</text><rect fill="#E2E2F0" height="31.6094" rx="2.5" ry="2.5" style="stroke:#181818;stroke-width:0.5;" width="138" x="1235" y="852.6953"/><text fill="#000000" font-family="sans-serif" font-size="14" lengthAdjust="spacing" textLength="124" x="1242" y="874.2285">JpaExamRepository</text><text fill="#000000" font-family="sans-serif" font-size="14" lengthAdjust="spacing" textLength="102" x="1415" y="79.5332">ExamRepository</text><path d="M1451,29 C1451,19 1469,19 1469,19 C1469,19 1487,19 1487,29 L1487,55 C1487,65 1469,65 1469,65 C1469,65 1451,65 1451,55 L1451,29 " fill="#E2E2F0" style="stroke:#181818;stroke-width:1.5;"/><path d="M1451,29 C1451,39 1469,39 1469,39 C1469,39 1487,39 1487,29 " fill="none" style="stroke:#181818;stroke-width:1.5;"/><text fill="#000000" font-family="sans-serif" font-size="14" lengthAdjust="spacing" textLength="102" x="1415" y="867.2285">ExamRepository</text><path d="M1451,880.3047 C1451,870.3047 1469,870.3047 1469,870.3047 C1469,870.3047 1487,870.3047 1487,880.3047 L1487,906.3047 C1487,916.3047 1469,916.3047 1469,916.3047 C1469,916.3047 1451,916.3047 1451,906.3047 L1451,880.3047 " fill="#E2E2F0" style="stroke:#181818;stroke-width:1.5;"/><path d="M1451,880.3047 C1451,890.3047 1469,890.3047 1469,890.3047 C1469,890.3047 1487,890.3047 1487,880.3047 " fill="none" style="stroke:#181818;stroke-width:1.5;"/><rect fill="#FFFFFF" height="728.7344" style="stroke:#181818;stroke-width:1.0;" width="10" x="54.5" y="114.9609"/><rect fill="#FFFFFF" height="212.4609" style="stroke:#181818;stroke-width:1.0;" width="10" x="460.5" y="114.9609"/><rect fill="#FFFFFF" height="485.9219" style="stroke:#181818;stroke-width:1.0;" width="10" x="460.5" y="357.7734"/><rect fill="#FFFFFF" height="182.1094" style="stroke:#181818;stroke-width:1.0;" width="10" x="630.5" y="145.3125"/><rect fill="#FFFFFF" height="320.1641" style="stroke:#181818;stroke-width:1.0;" width="10" x="630.5" y="388.125"/><rect fill="#FFFFFF" height="121.4063" style="stroke:#181818;stroke-width:1.0;" width="10" x="818" y="175.6641"/><rect fill="#FFFFFF" height="259.4609" style="stroke:#181818;stroke-width:1.0;" width="10" x="818" y="418.4766"/><rect fill="#FFFFFF" height="91.0547" style="stroke:#181818;stroke-width:1.0;" width="10" x="983" y="206.0156"/><rect fill="#FFFFFF" height="60.7031" style="stroke:#181818;stroke-width:1.0;" width="10" x="1155" y="236.3672"/><rect fill="#FFFFFF" height="198.7578" style="stroke:#181818;stroke-width:1.0;" width="10" x="1299" y="448.8281"/><rect fill="#FFFFFF" height="30.3516" style="stroke:#181818;stroke-width:1.0;" width="10" x="1464" y="266.7188"/><rect fill="#FFFFFF" height="30" style="stroke:#181818;stroke-width:1.0;" width="10" x="1464" y="479.1797"/><polygon fill="#181818" points="448.5,110.9609,458.5,114.9609,448.5,118.9609,452.5,114.9609" style="stroke:#181818;stroke-width:1.0;"/><line style="stroke:#181818;stroke-width:1.0;" x1="64.5" x2="454.5" y1="114.9609" y2="114.9609"/><text fill="#000000" font-family="sans-serif" font-size="13" font-weight="bold" lengthAdjust="spacing" textLength="7" x="71.5" y="110.1045">1</text><text fill="#000000" font-family="sans-serif" font-size="13" lengthAdjust="spacing" textLength="244" x="82.5" y="110.1045">want to view a list of all exams in a course</text><polygon fill="#181818" points="618.5,141.3125,628.5,145.3125,618.5,149.3125,622.5,145.3125" style="stroke:#181818;stroke-width:1.0;"/><line style="stroke:#181818;stroke-width:1.0;" x1="470.5" x2="624.5" y1="145.3125" y2="145.3125"/><text fill="#000000" font-family="sans-serif" font-size="13" font-weight="bold" lengthAdjust="spacing" textLength="7" x="477.5" y="140.4561">2</text><text fill="#000000" font-family="sans-serif" font-size="13" lengthAdjust="spacing" textLength="125" x="488.5" y="140.4561">ListExamsController()</text><polygon fill="#181818" points="806,171.6641,816,175.6641,806,179.6641,810,175.6641" style="stroke:#181818;stroke-width:1.0;"/><line style="stroke:#181818;stroke-width:1.0;" x1="640.5" x2="812" y1="175.6641" y2="175.6641"/><text fill="#000000" font-family="sans-serif" font-size="13" font-weight="bold" lengthAdjust="spacing" textLength="7" x="647.5" y="170.8076">3</text><text fill="#000000" font-family="sans-serif" font-size="13" lengthAdjust="spacing" textLength="112" x="658.5" y="170.8076">ListExamsService()</text><polygon fill="#181818" points="971,202.0156,981,206.0156,971,210.0156,975,206.0156" style="stroke:#181818;stroke-width:1.0;"/><line style="stroke:#181818;stroke-width:1.0;" x1="828" x2="977" y1="206.0156" y2="206.0156"/><text fill="#000000" font-family="sans-serif" font-size="13" font-weight="bold" lengthAdjust="spacing" textLength="7" x="835" y="201.1592">4</text><text fill="#000000" font-family="sans-serif" font-size="13" lengthAdjust="spacing" textLength="75" x="846" y="201.1592">repositories()</text><polygon fill="#181818" points="1143,232.3672,1153,236.3672,1143,240.3672,1147,236.3672" style="stroke:#181818;stroke-width:1.0;"/><line style="stroke:#181818;stroke-width:1.0;" x1="993" x2="1149" y1="236.3672" y2="236.3672"/><text fill="#000000" font-family="sans-serif" font-size="13" font-weight="bold" lengthAdjust="spacing" textLength="7" x="1000" y="231.5107">5</text><text fill="#000000" font-family="sans-serif" font-size="13" lengthAdjust="spacing" textLength="132" x="1011" y="231.5107">getRepositoryFactory()</text><polygon fill="#181818" points="1452,262.7188,1462,266.7188,1452,270.7188,1456,266.7188" style="stroke:#181818;stroke-width:1.0;"/><line style="stroke:#181818;stroke-width:1.0;" x1="1165" x2="1458" y1="266.7188" y2="266.7188"/><text fill="#000000" font-family="sans-serif" font-size="13" font-weight="bold" lengthAdjust="spacing" textLength="7" x="1172" y="261.8623">6</text><text fill="#000000" font-family="sans-serif" font-size="13" lengthAdjust="spacing" textLength="47" x="1183" y="261.8623">exams()</text><polygon fill="#181818" points="834,293.0703,824,297.0703,834,301.0703,830,297.0703" style="stroke:#181818;stroke-width:1.0;"/><line style="stroke:#181818;stroke-width:1.0;stroke-dasharray:2.0,2.0;" x1="828" x2="987" y1="297.0703" y2="297.0703"/><text fill="#000000" font-family="sans-serif" font-size="13" font-weight="bold" lengthAdjust="spacing" textLength="7" x="840" y="292.2139">7</text><text fill="#000000" font-family="sans-serif" font-size="13" lengthAdjust="spacing" textLength="39" x="851" y="292.2139">factory</text><polygon fill="#181818" points="75.5,323.4219,65.5,327.4219,75.5,331.4219,71.5,327.4219" style="stroke:#181818;stroke-width:1.0;"/><line style="stroke:#181818;stroke-width:1.0;stroke-dasharray:2.0,2.0;" x1="69.5" x2="464.5" y1="327.4219" y2="327.4219"/><text fill="#000000" font-family="sans-serif" font-size="13" font-weight="bold" lengthAdjust="spacing" textLength="7" x="81.5" y="322.5654">8</text><text fill="#000000" font-family="sans-serif" font-size="13" lengthAdjust="spacing" textLength="89" x="92.5" y="322.5654">asks for course</text><polygon fill="#181818" points="448.5,353.7734,458.5,357.7734,448.5,361.7734,452.5,357.7734" style="stroke:#181818;stroke-width:1.0;"/><line style="stroke:#181818;stroke-width:1.0;" x1="64.5" x2="454.5" y1="357.7734" y2="357.7734"/><text fill="#000000" font-family="sans-serif" font-size="13" font-weight="bold" lengthAdjust="spacing" textLength="7" x="71.5" y="352.917">9</text><text fill="#000000" font-family="sans-serif" font-size="13" lengthAdjust="spacing" textLength="103" x="82.5" y="352.917">introduces course</text><polygon fill="#181818" points="618.5,384.125,628.5,388.125,618.5,392.125,622.5,388.125" style="stroke:#181818;stroke-width:1.0;"/><line style="stroke:#181818;stroke-width:1.0;" x1="470.5" x2="624.5" y1="388.125" y2="388.125"/><text fill="#000000" font-family="sans-serif" font-size="13" font-weight="bold" lengthAdjust="spacing" textLength="14" x="477.5" y="383.2686">10</text><text fill="#000000" font-family="sans-serif" font-size="13" lengthAdjust="spacing" textLength="120" x="495.5" y="383.2686">listAllExams(course)</text><polygon fill="#181818" points="806,414.4766,816,418.4766,806,422.4766,810,418.4766" style="stroke:#181818;stroke-width:1.0;"/><line style="stroke:#181818;stroke-width:1.0;" x1="640.5" x2="812" y1="418.4766" y2="418.4766"/><text fill="#000000" font-family="sans-serif" font-size="13" font-weight="bold" lengthAdjust="spacing" textLength="14" x="647.5" y="413.6201">11</text><text fill="#000000" font-family="sans-serif" font-size="13" lengthAdjust="spacing" textLength="120" x="665.5" y="413.6201">listAllExams(course)</text><polygon fill="#181818" points="1287,444.8281,1297,448.8281,1287,452.8281,1291,448.8281" style="stroke:#181818;stroke-width:1.0;"/><line style="stroke:#181818;stroke-width:1.0;" x1="828" x2="1293" y1="448.8281" y2="448.8281"/><text fill="#000000" font-family="sans-serif" font-size="13" font-weight="bold" lengthAdjust="spacing" textLength="14" x="835" y="443.9717">12</text><text fill="#000000" font-family="sans-serif" font-size="13" lengthAdjust="spacing" textLength="124" x="853" y="443.9717">findByCourse(course)</text><polygon fill="#181818" points="1452,475.1797,1462,479.1797,1452,483.1797,1456,479.1797" style="stroke:#181818;stroke-width:1.0;"/><line style="stroke:#181818;stroke-width:1.0;" x1="1309" x2="1458" y1="479.1797" y2="479.1797"/><text fill="#000000" font-family="sans-serif" font-size="13" font-weight="bold" lengthAdjust="spacing" textLength="14" x="1316" y="474.3232">13</text><text fill="#000000" font-family="sans-serif" font-size="13" lengthAdjust="spacing" textLength="43" x="1334" y="474.3232">findAll()</text><path d="M1215,524.1797 L1288,524.1797 L1288,532.5313 L1278,542.5313 L1215,542.5313 L1215,524.1797 " fill="#EEEEEE" style="stroke:#000000;stroke-width:1.5;"/><rect fill="none" height="94.0547" style="stroke:#000000;stroke-width:1.5;" width="264" x="1215" y="524.1797"/><text fill="#000000" font-family="sans-serif" font-size="13" font-weight="bold" lengthAdjust="spacing" textLength="28" x="1230" y="538.6748">loop</text><path d="M1225,549.5313 L1290,549.5313 L1290,557.8828 L1280,567.8828 L1225,567.8828 L1225,549.5313 " fill="#EEEEEE" style="stroke:#000000;stroke-width:1.5;"/><rect fill="none" height="61.7031" style="stroke:#000000;stroke-width:1.5;" width="244" x="1225" y="549.5313"/><text fill="#000000" font-family="sans-serif" font-size="13" font-weight="bold" lengthAdjust="spacing" textLength="20" x="1240" y="564.0264">opt</text><text fill="#000000" font-family="sans-serif" font-size="11" font-weight="bold" lengthAdjust="spacing" textLength="116" x="1305" y="562.9502">[if exam is in course]</text><line style="stroke:#181818;stroke-width:1.0;" x1="1309" x2="1351" y1="590.2344" y2="590.2344"/><line style="stroke:#181818;stroke-width:1.0;" x1="1351" x2="1351" y1="590.2344" y2="603.2344"/><line style="stroke:#181818;stroke-width:1.0;" x1="1310" x2="1351" y1="603.2344" y2="603.2344"/><polygon fill="#181818" points="1320,599.2344,1310,603.2344,1320,607.2344,1316,603.2344" style="stroke:#181818;stroke-width:1.0;"/><text fill="#000000" font-family="sans-serif" font-size="13" font-weight="bold" lengthAdjust="spacing" textLength="14" x="1316" y="585.3779">14</text><text fill="#000000" font-family="sans-serif" font-size="13" lengthAdjust="spacing" textLength="123" x="1334" y="585.3779">listCourse.add(exam)</text><polygon fill="#181818" points="839,643.5859,829,647.5859,839,651.5859,835,647.5859" style="stroke:#181818;stroke-width:1.0;"/><line style="stroke:#181818;stroke-width:1.0;stroke-dasharray:2.0,2.0;" x1="833" x2="1303" y1="647.5859" y2="647.5859"/><text fill="#000000" font-family="sans-serif" font-size="13" font-weight="bold" lengthAdjust="spacing" textLength="14" x="845" y="642.7295">15</text><text fill="#000000" font-family="sans-serif" font-size="13" lengthAdjust="spacing" textLength="61" x="863" y="642.7295">returns list</text><polygon fill="#181818" points="651.5,673.9375,641.5,677.9375,651.5,681.9375,647.5,677.9375" style="stroke:#181818;stroke-width:1.0;"/><line style="stroke:#181818;stroke-width:1.0;stroke-dasharray:2.0,2.0;" x1="645.5" x2="822" y1="677.9375" y2="677.9375"/><text fill="#000000" font-family="sans-serif" font-size="13" font-weight="bold" lengthAdjust="spacing" textLength="14" x="657.5" y="673.0811">16</text><text fill="#000000" font-family="sans-serif" font-size="13" lengthAdjust="spacing" textLength="54" x="675.5" y="673.0811">return list</text><polygon fill="#181818" points="481.5,704.2891,471.5,708.2891,481.5,712.2891,477.5,708.2891" style="stroke:#181818;stroke-width:1.0;"/><line style="stroke:#181818;stroke-width:1.0;stroke-dasharray:2.0,2.0;" x1="475.5" x2="634.5" y1="708.2891" y2="708.2891"/><text fill="#000000" font-family="sans-serif" font-size="13" font-weight="bold" lengthAdjust="spacing" textLength="14" x="487.5" y="703.4326">17</text><text fill="#000000" font-family="sans-serif" font-size="13" lengthAdjust="spacing" textLength="54" x="505.5" y="703.4326">return list</text><path d="M10,723.2891 L71,723.2891 L71,731.6406 L61,741.6406 L10,741.6406 L10,723.2891 " fill="#EEEEEE" style="stroke:#000000;stroke-width:1.5;"/><rect fill="none" height="113.4063" style="stroke:#000000;stroke-width:1.5;" width="543" x="10" y="723.2891"/><text fill="#000000" font-family="sans-serif" font-size="13" font-weight="bold" lengthAdjust="spacing" textLength="16" x="25" y="737.7842">alt</text><text fill="#000000" font-family="sans-serif" font-size="11" font-weight="bold" lengthAdjust="spacing" textLength="97" x="86" y="736.708">[list is not empty]</text><path d="M20,748.6406 L93,748.6406 L93,756.9922 L83,766.9922 L20,766.9922 L20,748.6406 " fill="#EEEEEE" style="stroke:#000000;stroke-width:1.5;"/><rect fill="none" height="48.7031" style="stroke:#000000;stroke-width:1.5;" width="523" x="20" y="748.6406"/><text fill="#000000" font-family="sans-serif" font-size="13" font-weight="bold" lengthAdjust="spacing" textLength="28" x="35" y="763.1357">loop</text><polygon fill="#181818" points="75.5,785.3438,65.5,789.3438,75.5,793.3438,71.5,789.3438" style="stroke:#181818;stroke-width:1.0;"/><line style="stroke:#181818;stroke-width:1.0;stroke-dasharray:2.0,2.0;" x1="69.5" x2="459.5" y1="789.3438" y2="789.3438"/><text fill="#000000" font-family="sans-serif" font-size="13" font-weight="bold" lengthAdjust="spacing" textLength="14" x="81.5" y="784.4873">18</text><text fill="#000000" font-family="sans-serif" font-size="13" lengthAdjust="spacing" textLength="130" x="99.5" y="784.4873">Prints info of the exam</text><line style="stroke:#000000;stroke-width:1.0;stroke-dasharray:2.0,2.0;" x1="10" x2="553" y1="805.3438" y2="805.3438"/><polygon fill="#181818" points="75.5,824.6953,65.5,828.6953,75.5,832.6953,71.5,828.6953" style="stroke:#181818;stroke-width:1.0;"/><line style="stroke:#181818;stroke-width:1.0;stroke-dasharray:2.0,2.0;" x1="69.5" x2="459.5" y1="828.6953" y2="828.6953"/><text fill="#000000" font-family="sans-serif" font-size="13" font-weight="bold" lengthAdjust="spacing" textLength="14" x="81.5" y="823.8389">19</text><text fill="#000000" font-family="sans-serif" font-size="13" lengthAdjust="spacing" textLength="354" x="99.5" y="823.8389">Informs that there are no exams or the course does not exist.</text><!--MD5=[b3ad7f21aa943ca619c0925f46bf3491]
@startuml
autonumber
actor "Teacher" as T
participant "ListExamsCourseUI" as UI
participant "ListExamsCourseController" as CTL
participant "ListExamsCourseService" as SV
participant "Persistence Context" as PC
participant "RepositoryFactory" as RF
participant "JpaExamRepository" as JPA
database "ExamRepository" as EPS


T -> UI : want to view a list of all exams in a course
activate T
activate UI
UI -> CTL : ListExamsController()
activate CTL
CTL -> SV : ListExamsService()
activate SV
SV -> PC :repositories()
activate PC
PC -> RF :getRepositoryFactory()
activate RF
RF -> EPS : exams()
activate EPS
PC - -> SV :factory
deactivate PC
deactivate RF
deactivate EPS
deactivate SV
UI - -> T : asks for course
deactivate UI
deactivate CTL
T -> UI : introduces course
activate UI
UI -> CTL : listAllExams(course)
activate CTL

CTL -> SV : listAllExams(course)
activate SV
SV -> JPA : findByCourse(course)
activate JPA
JPA -> EPS : findAll()
activate EPS
deactivate EPS
loop
    opt if exam is in course
    JPA -> JPA : listCourse.add(exam)
    end opt
end loop
JPA - -> SV : returns list
deactivate JPA
SV - -> CTL : return list
deactivate SV
CTL - -> UI : return list
deactivate CTL
alt list is not empty
loop
UI - -> T : Prints info of the exam
end
else
UI - -> T : Informs that there are no exams or the course does not exist.
end alt
deactivate UI
deactivate T

@enduml

PlantUML version 1.2022.4(Sat Apr 09 14:29:17 BST 2022)
(GPL source distribution)
Java Runtime: OpenJDK Runtime Environment
JVM: OpenJDK 64-Bit Server VM
Default Encoding: Cp1252
Language: pt
Country: PT
--></g></svg>