<?xml version="1.0" encoding="UTF-8" standalone="no"?><svg xmlns="http://www.w3.org/2000/svg" xmlns:xlink="http://www.w3.org/1999/xlink" contentStyleType="text/css" height="1076px" preserveAspectRatio="none" style="width:398px;height:1076px;background:#FFFFFF;" version="1.1" viewBox="0 0 398 1076" width="398px" zoomAndPan="magnify"><defs/><g><!--MD5=[61a83f88cb8b7d3a80bc8c481f3736bf]
class Teacher--><g id="elem_Teacher"><rect codeLine="1" fill="#F1F1F1" height="48" id="Teacher" rx="2.5" ry="2.5" style="stroke:#181818;stroke-width:0.5;" width="85" x="156.5" y="7"/><ellipse cx="171.5" cy="23" fill="#ADD1B2" rx="11" ry="11" style="stroke:#181818;stroke-width:1.0;"/><path d="M173.5,19.5 Q173.7031,19 173.9375,18.75 Q174.1719,18.5 174.4375,18.5 Q174.9063,18.5 175.2031,18.7813 Q175.5,19.0625 175.5,19.7188 L175.5,21.2813 Q175.5,21.9375 175.2188,22.2188 Q174.9375,22.5 174.5,22.5 Q174.1094,22.5 173.8594,22.3281 Q173.6094,22.1563 173.5,21.7031 Q173.4531,21.3906 173.2813,21.2188 Q172.9688,20.8906 172.4063,20.7031 Q171.8438,20.5 171.2813,20.5 Q170.5781,20.5 169.9844,20.7813 Q169.4063,21.0625 168.9531,21.6875 Q168.5,22.3125 168.5,23.1719 L168.5,24.0938 Q168.5,25.125 169.3438,25.8125 Q170.1875,26.5 171.6875,26.5 Q172.5781,26.5 173.2031,26.2969 Q173.5625,26.1875 173.9688,25.8281 Q174.2344,25.625 174.375,25.5625 Q174.5156,25.5 174.6875,25.5 Q175.0156,25.5 175.25,25.7656 Q175.5,26.0156 175.5,26.375 Q175.5,26.7188 175.1563,27.125 Q174.6563,27.7188 173.8594,28.0469 Q172.8125,28.5 171.5313,28.5 Q170.0313,28.5 168.8281,27.9063 Q167.8594,27.4375 167.1719,26.4219 Q166.5,25.4063 166.5,24.2031 L166.5,23.1094 Q166.5,21.8594 167.0938,20.7656 Q167.7031,19.6719 168.75,19.0938 Q169.8125,18.5 171,18.5 Q171.7188,18.5 172.3438,18.75 Q172.9688,19 173.5,19.5 Z " fill="#000000"/><text fill="#000000" font-family="sans-serif" font-size="14" lengthAdjust="spacing" textLength="53" x="185.5" y="28.7285">Teacher</text><line style="stroke:#181818;stroke-width:0.5;" x1="157.5" x2="240.5" y1="39" y2="39"/><line style="stroke:#181818;stroke-width:0.5;" x1="157.5" x2="240.5" y1="47" y2="47"/></g><!--MD5=[ed47f17cc47ab3be695128ab3010584d]
class ExamsRepository--><g id="elem_ExamsRepository"><rect codeLine="4" fill="#F1F1F1" height="118.4375" id="ExamsRepository" rx="2.5" ry="2.5" style="stroke:#181818;stroke-width:0.5;" width="384" x="7" y="544"/><ellipse cx="140.25" cy="560" fill="#ADD1B2" rx="11" ry="11" style="stroke:#181818;stroke-width:1.0;"/><path d="M142.25,556.5 Q142.4531,556 142.6875,555.75 Q142.9219,555.5 143.1875,555.5 Q143.6563,555.5 143.9531,555.7813 Q144.25,556.0625 144.25,556.7188 L144.25,558.2813 Q144.25,558.9375 143.9688,559.2188 Q143.6875,559.5 143.25,559.5 Q142.8594,559.5 142.6094,559.3281 Q142.3594,559.1563 142.25,558.7031 Q142.2031,558.3906 142.0313,558.2188 Q141.7188,557.8906 141.1563,557.7031 Q140.5938,557.5 140.0313,557.5 Q139.3281,557.5 138.7344,557.7813 Q138.1563,558.0625 137.7031,558.6875 Q137.25,559.3125 137.25,560.1719 L137.25,561.0938 Q137.25,562.125 138.0938,562.8125 Q138.9375,563.5 140.4375,563.5 Q141.3281,563.5 141.9531,563.2969 Q142.3125,563.1875 142.7188,562.8281 Q142.9844,562.625 143.125,562.5625 Q143.2656,562.5 143.4375,562.5 Q143.7656,562.5 144,562.7656 Q144.25,563.0156 144.25,563.375 Q144.25,563.7188 143.9063,564.125 Q143.4063,564.7188 142.6094,565.0469 Q141.5625,565.5 140.2813,565.5 Q138.7813,565.5 137.5781,564.9063 Q136.6094,564.4375 135.9219,563.4219 Q135.25,562.4063 135.25,561.2031 L135.25,560.1094 Q135.25,558.8594 135.8438,557.7656 Q136.4531,556.6719 137.5,556.0938 Q138.5625,555.5 139.75,555.5 Q140.4688,555.5 141.0938,555.75 Q141.7188,556 142.25,556.5 Z " fill="#000000"/><text fill="#000000" font-family="sans-serif" font-size="14" lengthAdjust="spacing" textLength="109" x="160.75" y="565.7285">ExamsRepository</text><line style="stroke:#181818;stroke-width:0.5;" x1="8" x2="390" y1="576" y2="576"/><line style="stroke:#181818;stroke-width:0.5;" x1="8" x2="390" y1="584" y2="584"/><ellipse cx="18" cy="595" fill="#84BE84" rx="3" ry="3" style="stroke:#038048;stroke-width:1.0;"/><text fill="#000000" font-family="sans-serif" font-size="14" lengthAdjust="spacing" textLength="153" x="27" y="602.5332">findAll(): Iterable&lt;Exam&gt;</text><ellipse cx="18" cy="612.6094" fill="#84BE84" rx="3" ry="3" style="stroke:#038048;stroke-width:1.0;"/><text fill="#000000" font-family="sans-serif" font-size="14" lengthAdjust="spacing" textLength="263" x="27" y="620.1426">findByCourse(String course) : List&lt;Exam&gt;</text><ellipse cx="18" cy="630.2188" fill="#84BE84" rx="3" ry="3" style="stroke:#038048;stroke-width:1.0;"/><text fill="#000000" font-family="sans-serif" font-size="14" lengthAdjust="spacing" textLength="201" x="27" y="637.752">findByCode(String code) : Exam</text><ellipse cx="18" cy="647.8281" fill="#84BE84" rx="3" ry="3" style="stroke:#038048;stroke-width:1.0;"/><text fill="#000000" font-family="sans-serif" font-size="14" lengthAdjust="spacing" textLength="358" x="27" y="655.3613">appendStudent(Student student, Exam examCode) : void</text></g><!--MD5=[0c420a087dafa7b496cad8e87641181a]
class ListExamsCourseUI--><g id="elem_ListExamsCourseUI"><rect codeLine="11" fill="#F1F1F1" height="83.2188" id="ListExamsCourseUI" rx="2.5" ry="2.5" style="stroke:#181818;stroke-width:0.5;" width="153" x="122.5" y="115"/><ellipse cx="137.5" cy="131" fill="#ADD1B2" rx="11" ry="11" style="stroke:#181818;stroke-width:1.0;"/><path d="M139.5,127.5 Q139.7031,127 139.9375,126.75 Q140.1719,126.5 140.4375,126.5 Q140.9063,126.5 141.2031,126.7813 Q141.5,127.0625 141.5,127.7188 L141.5,129.2813 Q141.5,129.9375 141.2188,130.2188 Q140.9375,130.5 140.5,130.5 Q140.1094,130.5 139.8594,130.3281 Q139.6094,130.1563 139.5,129.7031 Q139.4531,129.3906 139.2813,129.2188 Q138.9688,128.8906 138.4063,128.7031 Q137.8438,128.5 137.2813,128.5 Q136.5781,128.5 135.9844,128.7813 Q135.4063,129.0625 134.9531,129.6875 Q134.5,130.3125 134.5,131.1719 L134.5,132.0938 Q134.5,133.125 135.3438,133.8125 Q136.1875,134.5 137.6875,134.5 Q138.5781,134.5 139.2031,134.2969 Q139.5625,134.1875 139.9688,133.8281 Q140.2344,133.625 140.375,133.5625 Q140.5156,133.5 140.6875,133.5 Q141.0156,133.5 141.25,133.7656 Q141.5,134.0156 141.5,134.375 Q141.5,134.7188 141.1563,135.125 Q140.6563,135.7188 139.8594,136.0469 Q138.8125,136.5 137.5313,136.5 Q136.0313,136.5 134.8281,135.9063 Q133.8594,135.4375 133.1719,134.4219 Q132.5,133.4063 132.5,132.2031 L132.5,131.1094 Q132.5,129.8594 133.0938,128.7656 Q133.7031,127.6719 134.75,127.0938 Q135.8125,126.5 137,126.5 Q137.7188,126.5 138.3438,126.75 Q138.9688,127 139.5,127.5 Z " fill="#000000"/><text fill="#000000" font-family="sans-serif" font-size="14" lengthAdjust="spacing" textLength="121" x="151.5" y="136.7285">ListExamsCourseUI</text><line style="stroke:#181818;stroke-width:0.5;" x1="123.5" x2="274.5" y1="147" y2="147"/><line style="stroke:#181818;stroke-width:0.5;" x1="123.5" x2="274.5" y1="155" y2="155"/><ellipse cx="133.5" cy="166" fill="#84BE84" rx="3" ry="3" style="stroke:#038048;stroke-width:1.0;"/><text fill="#000000" font-family="sans-serif" font-size="14" lengthAdjust="spacing" textLength="123" x="142.5" y="173.5332">doShow() : boolean</text><ellipse cx="133.5" cy="183.6094" fill="#84BE84" rx="3" ry="3" style="stroke:#038048;stroke-width:1.0;"/><text fill="#000000" font-family="sans-serif" font-size="14" lengthAdjust="spacing" textLength="113" x="142.5" y="191.1426">headline() : String</text></g><!--MD5=[3f064afa3ed89d1769e0203d5c28b8c9]
class ListExamsCourseController--><g id="elem_ListExamsCourseController"><rect codeLine="16" fill="#F1F1F1" height="83.2188" id="ListExamsCourseController" rx="2.5" ry="2.5" style="stroke:#181818;stroke-width:0.5;" width="277" x="60.5" y="258"/><ellipse cx="109.25" cy="274" fill="#ADD1B2" rx="11" ry="11" style="stroke:#181818;stroke-width:1.0;"/><path d="M111.25,270.5 Q111.4531,270 111.6875,269.75 Q111.9219,269.5 112.1875,269.5 Q112.6563,269.5 112.9531,269.7813 Q113.25,270.0625 113.25,270.7188 L113.25,272.2813 Q113.25,272.9375 112.9688,273.2188 Q112.6875,273.5 112.25,273.5 Q111.8594,273.5 111.6094,273.3281 Q111.3594,273.1563 111.25,272.7031 Q111.2031,272.3906 111.0313,272.2188 Q110.7188,271.8906 110.1563,271.7031 Q109.5938,271.5 109.0313,271.5 Q108.3281,271.5 107.7344,271.7813 Q107.1563,272.0625 106.7031,272.6875 Q106.25,273.3125 106.25,274.1719 L106.25,275.0938 Q106.25,276.125 107.0938,276.8125 Q107.9375,277.5 109.4375,277.5 Q110.3281,277.5 110.9531,277.2969 Q111.3125,277.1875 111.7188,276.8281 Q111.9844,276.625 112.125,276.5625 Q112.2656,276.5 112.4375,276.5 Q112.7656,276.5 113,276.7656 Q113.25,277.0156 113.25,277.375 Q113.25,277.7188 112.9063,278.125 Q112.4063,278.7188 111.6094,279.0469 Q110.5625,279.5 109.2813,279.5 Q107.7813,279.5 106.5781,278.9063 Q105.6094,278.4375 104.9219,277.4219 Q104.25,276.4063 104.25,275.2031 L104.25,274.1094 Q104.25,272.8594 104.8438,271.7656 Q105.4531,270.6719 106.5,270.0938 Q107.5625,269.5 108.75,269.5 Q109.4688,269.5 110.0938,269.75 Q110.7188,270 111.25,270.5 Z " fill="#000000"/><text fill="#000000" font-family="sans-serif" font-size="14" lengthAdjust="spacing" textLength="171" x="129.75" y="279.7285">ListExamsCourseController</text><line style="stroke:#181818;stroke-width:0.5;" x1="61.5" x2="336.5" y1="290" y2="290"/><rect fill="none" height="6" style="stroke:#C82930;stroke-width:1.0;" width="6" x="68.5" y="298"/><text fill="#000000" font-family="sans-serif" font-size="14" lengthAdjust="spacing" textLength="205" x="80.5" y="308.5332">ListExamsCourseService service</text><line style="stroke:#181818;stroke-width:0.5;" x1="61.5" x2="336.5" y1="315.6094" y2="315.6094"/><ellipse cx="71.5" cy="326.6094" fill="#84BE84" rx="3" ry="3" style="stroke:#038048;stroke-width:1.0;"/><text fill="#000000" font-family="sans-serif" font-size="14" lengthAdjust="spacing" textLength="251" x="80.5" y="334.1426">listAllExams(String course) : List&lt;Exam&gt;</text></g><!--MD5=[84a8ec834ae2beacf3720fa6df56fd75]
class ListExamsCourseService--><g id="elem_ListExamsCourseService"><rect codeLine="21" fill="#F1F1F1" height="83.2188" id="ListExamsCourseService" rx="2.5" ry="2.5" style="stroke:#181818;stroke-width:0.5;" width="277" x="60.5" y="401"/><ellipse cx="116.75" cy="417" fill="#ADD1B2" rx="11" ry="11" style="stroke:#181818;stroke-width:1.0;"/><path d="M118.75,413.5 Q118.9531,413 119.1875,412.75 Q119.4219,412.5 119.6875,412.5 Q120.1563,412.5 120.4531,412.7813 Q120.75,413.0625 120.75,413.7188 L120.75,415.2813 Q120.75,415.9375 120.4688,416.2188 Q120.1875,416.5 119.75,416.5 Q119.3594,416.5 119.1094,416.3281 Q118.8594,416.1563 118.75,415.7031 Q118.7031,415.3906 118.5313,415.2188 Q118.2188,414.8906 117.6563,414.7031 Q117.0938,414.5 116.5313,414.5 Q115.8281,414.5 115.2344,414.7813 Q114.6563,415.0625 114.2031,415.6875 Q113.75,416.3125 113.75,417.1719 L113.75,418.0938 Q113.75,419.125 114.5938,419.8125 Q115.4375,420.5 116.9375,420.5 Q117.8281,420.5 118.4531,420.2969 Q118.8125,420.1875 119.2188,419.8281 Q119.4844,419.625 119.625,419.5625 Q119.7656,419.5 119.9375,419.5 Q120.2656,419.5 120.5,419.7656 Q120.75,420.0156 120.75,420.375 Q120.75,420.7188 120.4063,421.125 Q119.9063,421.7188 119.1094,422.0469 Q118.0625,422.5 116.7813,422.5 Q115.2813,422.5 114.0781,421.9063 Q113.1094,421.4375 112.4219,420.4219 Q111.75,419.4063 111.75,418.2031 L111.75,417.1094 Q111.75,415.8594 112.3438,414.7656 Q112.9531,413.6719 114,413.0938 Q115.0625,412.5 116.25,412.5 Q116.9688,412.5 117.5938,412.75 Q118.2188,413 118.75,413.5 Z " fill="#000000"/><text fill="#000000" font-family="sans-serif" font-size="14" lengthAdjust="spacing" textLength="156" x="137.25" y="422.7285">ListExamsCourseService</text><line style="stroke:#181818;stroke-width:0.5;" x1="61.5" x2="336.5" y1="433" y2="433"/><rect fill="none" height="6" style="stroke:#C82930;stroke-width:1.0;" width="6" x="68.5" y="441"/><text fill="#000000" font-family="sans-serif" font-size="14" lengthAdjust="spacing" textLength="207" x="80.5" y="451.5332">ExamRepository examRepository</text><line style="stroke:#181818;stroke-width:0.5;" x1="61.5" x2="336.5" y1="458.6094" y2="458.6094"/><ellipse cx="71.5" cy="469.6094" fill="#84BE84" rx="3" ry="3" style="stroke:#038048;stroke-width:1.0;"/><text fill="#000000" font-family="sans-serif" font-size="14" lengthAdjust="spacing" textLength="251" x="80.5" y="477.1426">listAllExams(String course) : List&lt;Exam&gt;</text></g><!--MD5=[4ec975f1641a34b3290014bf4027a644]
class Exam--><g id="elem_Exam"><rect codeLine="26" fill="#F1F1F1" height="347.3594" id="Exam" rx="2.5" ry="2.5" style="stroke:#181818;stroke-width:0.5;" width="328" x="35" y="722"/><ellipse cx="177.75" cy="738" fill="#ADD1B2" rx="11" ry="11" style="stroke:#181818;stroke-width:1.0;"/><path d="M179.75,734.5 Q179.9531,734 180.1875,733.75 Q180.4219,733.5 180.6875,733.5 Q181.1563,733.5 181.4531,733.7813 Q181.75,734.0625 181.75,734.7188 L181.75,736.2813 Q181.75,736.9375 181.4688,737.2188 Q181.1875,737.5 180.75,737.5 Q180.3594,737.5 180.1094,737.3281 Q179.8594,737.1563 179.75,736.7031 Q179.7031,736.3906 179.5313,736.2188 Q179.2188,735.8906 178.6563,735.7031 Q178.0938,735.5 177.5313,735.5 Q176.8281,735.5 176.2344,735.7813 Q175.6563,736.0625 175.2031,736.6875 Q174.75,737.3125 174.75,738.1719 L174.75,739.0938 Q174.75,740.125 175.5938,740.8125 Q176.4375,741.5 177.9375,741.5 Q178.8281,741.5 179.4531,741.2969 Q179.8125,741.1875 180.2188,740.8281 Q180.4844,740.625 180.625,740.5625 Q180.7656,740.5 180.9375,740.5 Q181.2656,740.5 181.5,740.7656 Q181.75,741.0156 181.75,741.375 Q181.75,741.7188 181.4063,742.125 Q180.9063,742.7188 180.1094,743.0469 Q179.0625,743.5 177.7813,743.5 Q176.2813,743.5 175.0781,742.9063 Q174.1094,742.4375 173.4219,741.4219 Q172.75,740.4063 172.75,739.2031 L172.75,738.1094 Q172.75,736.8594 173.3438,735.7656 Q173.9531,734.6719 175,734.0938 Q176.0625,733.5 177.25,733.5 Q177.9688,733.5 178.5938,733.75 Q179.2188,734 179.75,734.5 Z " fill="#000000"/><text fill="#000000" font-family="sans-serif" font-size="14" lengthAdjust="spacing" textLength="34" x="198.25" y="743.7285">Exam</text><line style="stroke:#181818;stroke-width:0.5;" x1="36" x2="362" y1="754" y2="754"/><rect fill="none" height="6" style="stroke:#C82930;stroke-width:1.0;" width="6" x="43" y="762"/><text fill="#000000" font-family="sans-serif" font-size="14" lengthAdjust="spacing" textLength="47" x="55" y="772.5332">Long id</text><rect fill="none" height="6" style="stroke:#C82930;stroke-width:1.0;" width="6" x="43" y="779.6094"/><text fill="#000000" font-family="sans-serif" font-size="14" lengthAdjust="spacing" textLength="160" x="55" y="790.1426">List&lt;Question&gt; questions</text><rect fill="none" height="6" style="stroke:#C82930;stroke-width:1.0;" width="6" x="43" y="797.2188"/><text fill="#000000" font-family="sans-serif" font-size="14" lengthAdjust="spacing" textLength="62" x="55" y="807.752">Date date</text><rect fill="none" height="6" style="stroke:#C82930;stroke-width:1.0;" width="6" x="43" y="814.8281"/><text fill="#000000" font-family="sans-serif" font-size="14" lengthAdjust="spacing" textLength="144" x="55" y="825.3613">Description description</text><rect fill="none" height="6" style="stroke:#C82930;stroke-width:1.0;" width="6" x="43" y="832.4375"/><text fill="#000000" font-family="sans-serif" font-size="14" lengthAdjust="spacing" textLength="262" x="55" y="842.9707">SequenceofSections sequenceofSections</text><rect fill="none" height="6" style="stroke:#C82930;stroke-width:1.0;" width="6" x="43" y="850.0469"/><text fill="#000000" font-family="sans-serif" font-size="14" lengthAdjust="spacing" textLength="53" x="55" y="860.5801">Title title</text><rect fill="none" height="6" style="stroke:#C82930;stroke-width:1.0;" width="6" x="43" y="867.6563"/><text fill="#000000" font-family="sans-serif" font-size="14" lengthAdjust="spacing" textLength="93" x="55" y="878.1895">Course course</text><line style="stroke:#181818;stroke-width:0.5;" x1="36" x2="362" y1="885.2656" y2="885.2656"/><ellipse cx="46" cy="896.2656" fill="#84BE84" rx="3" ry="3" style="stroke:#038048;stroke-width:1.0;"/><text fill="#000000" font-family="sans-serif" font-size="14" lengthAdjust="spacing" textLength="245" x="55" y="903.7988">appendStudent(Student student) : void</text><ellipse cx="46" cy="913.875" fill="#84BE84" rx="3" ry="3" style="stroke:#038048;stroke-width:1.0;"/><text fill="#000000" font-family="sans-serif" font-size="14" lengthAdjust="spacing" textLength="134" x="55" y="921.4082">getCourse() : Course</text><ellipse cx="46" cy="931.4844" fill="#84BE84" rx="3" ry="3" style="stroke:#038048;stroke-width:1.0;"/><text fill="#000000" font-family="sans-serif" font-size="14" lengthAdjust="spacing" textLength="102" x="55" y="939.0176">getDate() : Date</text><ellipse cx="46" cy="949.0938" fill="#84BE84" rx="3" ry="3" style="stroke:#038048;stroke-width:1.0;"/><text fill="#000000" font-family="sans-serif" font-size="14" lengthAdjust="spacing" textLength="184" x="55" y="956.627">getDescription() : Description</text><ellipse cx="46" cy="966.7031" fill="#84BE84" rx="3" ry="3" style="stroke:#038048;stroke-width:1.0;"/><text fill="#000000" font-family="sans-serif" font-size="14" lengthAdjust="spacing" textLength="302" x="55" y="974.2363">getSequenceofSections() : SequenceofSections</text><ellipse cx="46" cy="984.3125" fill="#84BE84" rx="3" ry="3" style="stroke:#038048;stroke-width:1.0;"/><text fill="#000000" font-family="sans-serif" font-size="14" lengthAdjust="spacing" textLength="96" x="55" y="991.8457">getTitle() : Title</text><ellipse cx="46" cy="1001.9219" fill="#84BE84" rx="3" ry="3" style="stroke:#038048;stroke-width:1.0;"/><text fill="#000000" font-family="sans-serif" font-size="14" lengthAdjust="spacing" textLength="178" x="55" y="1009.4551">getStudent() : List&lt;Student&gt;</text><ellipse cx="46" cy="1019.5313" fill="#84BE84" rx="3" ry="3" style="stroke:#038048;stroke-width:1.0;"/><text fill="#000000" font-family="sans-serif" font-size="14" lengthAdjust="spacing" textLength="201" x="55" y="1027.0645">sameAs(Object other) : boolean</text><ellipse cx="46" cy="1037.1406" fill="#84BE84" rx="3" ry="3" style="stroke:#038048;stroke-width:1.0;"/><text fill="#000000" font-family="sans-serif" font-size="14" lengthAdjust="spacing" textLength="101" x="55" y="1044.6738">identity() : Code</text><ellipse cx="46" cy="1054.75" fill="#84BE84" rx="3" ry="3" style="stroke:#038048;stroke-width:1.0;"/><text fill="#000000" font-family="sans-serif" font-size="14" lengthAdjust="spacing" textLength="108" x="55" y="1062.2832">toString() : String</text></g><!--MD5=[0f1739ab8e291a8dcbafc7a08aee5bb8]
link Teacher to ListExamsCourseUI--><g id="link_Teacher_ListExamsCourseUI"><path codeLine="46" d="M199,55.23 C199,70.56 199,91.16 199,109.7 " fill="none" id="Teacher-to-ListExamsCourseUI" style="stroke:#181818;stroke-width:1.0;"/><polygon fill="#181818" points="199,114.87,203,105.87,199,109.87,195,105.87,199,114.87" style="stroke:#181818;stroke-width:1.0;"/></g><!--MD5=[41455dc39f2fe1d763d4130a704747eb]
link ListExamsCourseUI to ListExamsCourseController--><g id="link_ListExamsCourseUI_ListExamsCourseController"><path codeLine="47" d="M199,198.28 C199,215.24 199,235 199,252.47 " fill="none" id="ListExamsCourseUI-to-ListExamsCourseController" style="stroke:#181818;stroke-width:1.0;"/><polygon fill="#181818" points="199,257.81,203,248.81,199,252.81,195,248.81,199,257.81" style="stroke:#181818;stroke-width:1.0;"/></g><!--MD5=[3fea1c2130c195f2be6e2881d4e41509]
link ListExamsCourseController to ListExamsCourseService--><g id="link_ListExamsCourseController_ListExamsCourseService"><path codeLine="48" d="M199,341.28 C199,358.24 199,378 199,395.47 " fill="none" id="ListExamsCourseController-to-ListExamsCourseService" style="stroke:#181818;stroke-width:1.0;"/><polygon fill="#181818" points="199,400.81,203,391.81,199,395.81,195,391.81,199,400.81" style="stroke:#181818;stroke-width:1.0;"/></g><!--MD5=[830872be451e31ea6e255198fa5dce21]
link ListExamsCourseService to ExamsRepository--><g id="link_ListExamsCourseService_ExamsRepository"><path codeLine="49" d="M199,484.32 C199,500.92 199,520.49 199,538.85 " fill="none" id="ListExamsCourseService-to-ExamsRepository" style="stroke:#181818;stroke-width:1.0;"/><polygon fill="#181818" points="199,544,203,535,199,539,195,535,199,544" style="stroke:#181818;stroke-width:1.0;"/></g><!--MD5=[4638ef4ecae5aa249c3bef23ccd7994c]
link ExamsRepository to Exam--><g id="link_ExamsRepository_Exam"><path codeLine="50" d="M199,662.09 C199,678.36 199,696.94 199,716.36 " fill="none" id="ExamsRepository-to-Exam" style="stroke:#181818;stroke-width:1.0;"/><polygon fill="#181818" points="199,721.85,203,712.85,199,716.85,195,712.85,199,721.85" style="stroke:#181818;stroke-width:1.0;"/></g><!--MD5=[6ee6ef2ce741f341d1c83e93f63957a0]
@startuml
class Teacher {
}

class ExamsRepository {
    +findAll(): Iterable<Exam>
    +findByCourse(String course) : List<Exam>
    +findByCode(String code) : Exam
    +appendStudent(Student student, Exam examCode) : void
}

class ListExamsCourseUI {
    +doShow() : boolean
    +headline() : String
}

class ListExamsCourseController {
    -ListExamsCourseService service
    +listAllExams(String course) : List<Exam>
}

class ListExamsCourseService {
    -ExamRepository examRepository
    +listAllExams(String course) : List<Exam>
}

class Exam {
    - Long id
    - List<Question> questions
    - Date date
    - Description description
    - SequenceofSections sequenceofSections
    - Title title
    - Course course
    + appendStudent(Student student) : void
    + getCourse() : Course
    + getDate() : Date
    + getDescription() : Description
    + getSequenceofSections() : SequenceofSections
    + getTitle() : Title
    + getStudent() : List<Student>
    + sameAs(Object other) : boolean
    + identity() : Code
    + toString() : String
}

Teacher - -> ListExamsCourseUI
ListExamsCourseUI - -> ListExamsCourseController
ListExamsCourseController - -> ListExamsCourseService
ListExamsCourseService - -> ExamsRepository
ExamsRepository - -> Exam
@enduml

PlantUML version 1.2022.4(Sat Apr 09 14:29:17 BST 2022)
(GPL source distribution)
Java Runtime: OpenJDK Runtime Environment
JVM: OpenJDK 64-Bit Server VM
Default Encoding: Cp1252
Language: pt
Country: PT
--></g></svg>