<?xml version="1.0" encoding="UTF-8" standalone="no"?><svg xmlns="http://www.w3.org/2000/svg" xmlns:xlink="http://www.w3.org/1999/xlink" contentStyleType="text/css" height="498px" preserveAspectRatio="none" style="width:273px;height:498px;background:#FFFFFF;" version="1.1" viewBox="0 0 273 498" width="273px" zoomAndPan="magnify"><defs/><g><!--MD5=[cd6be90750a6dfd6b3f7d1514cf7f744]
class ShowGradesUI--><g id="elem_ShowGradesUI"><rect codeLine="1" fill="#F1F1F1" height="76.3125" id="ShowGradesUI" rx="2.5" ry="2.5" style="stroke:#181818;stroke-width:0.5;" width="125" x="59.5" y="7"/><ellipse cx="74.5" cy="28.3516" fill="#ADD1B2" rx="11" ry="11" style="stroke:#181818;stroke-width:1.0;"/><path d="M76.5,24.8516 Q76.7031,24.3516 76.9375,24.1016 Q77.1719,23.8516 77.4375,23.8516 Q77.9063,23.8516 78.2031,24.1328 Q78.5,24.4141 78.5,25.0703 L78.5,26.6328 Q78.5,27.2891 78.2188,27.5703 Q77.9375,27.8516 77.5,27.8516 Q77.1094,27.8516 76.8594,27.6797 Q76.6094,27.5078 76.5,27.0547 Q76.4531,26.7422 76.2813,26.5703 Q75.9688,26.2422 75.4063,26.0547 Q74.8438,25.8516 74.2813,25.8516 Q73.5781,25.8516 72.9844,26.1328 Q72.4063,26.4141 71.9531,27.0391 Q71.5,27.6641 71.5,28.5234 L71.5,29.4453 Q71.5,30.4766 72.3438,31.1641 Q73.1875,31.8516 74.6875,31.8516 Q75.5781,31.8516 76.2031,31.6484 Q76.5625,31.5391 76.9688,31.1797 Q77.2344,30.9766 77.375,30.9141 Q77.5156,30.8516 77.6875,30.8516 Q78.0156,30.8516 78.25,31.1172 Q78.5,31.3672 78.5,31.7266 Q78.5,32.0703 78.1563,32.4766 Q77.6563,33.0703 76.8594,33.3984 Q75.8125,33.8516 74.5313,33.8516 Q73.0313,33.8516 71.8281,33.2578 Q70.8594,32.7891 70.1719,31.7734 Q69.5,30.7578 69.5,29.5547 L69.5,28.4609 Q69.5,27.2109 70.0938,26.1172 Q70.7031,25.0234 71.75,24.4453 Q72.8125,23.8516 74,23.8516 Q74.7188,23.8516 75.3438,24.1016 Q75.9688,24.3516 76.5,24.8516 Z " fill="#000000"/><text fill="#000000" font-family="sans-serif" font-size="12" font-style="italic" lengthAdjust="spacing" textLength="82" x="94" y="24.457">«presentation»</text><text fill="#000000" font-family="sans-serif" font-size="14" lengthAdjust="spacing" textLength="93" x="88.5" y="41.627">ShowGradesUI</text><line style="stroke:#181818;stroke-width:0.5;" x1="60.5" x2="183.5" y1="49.7031" y2="49.7031"/><line style="stroke:#181818;stroke-width:0.5;" x1="60.5" x2="183.5" y1="57.7031" y2="57.7031"/><ellipse cx="70.5" cy="72.0078" fill="#84BE84" rx="3" ry="3" style="stroke:#038048;stroke-width:1.0;"/><text fill="#000000" font-family="sans-serif" font-size="14" lengthAdjust="spacing" textLength="60" x="79.5" y="76.2363">doShow()</text></g><!--MD5=[392fd105ed00b06db0b97c949ad6feb6]
class ShowGradesController--><g id="elem_ShowGradesController"><rect codeLine="5" fill="#F1F1F1" height="76.3125" id="ShowGradesController" rx="2.5" ry="2.5" style="stroke:#181818;stroke-width:0.5;" width="175" x="34.5" y="143"/><ellipse cx="49.5" cy="164.3516" fill="#ADD1B2" rx="11" ry="11" style="stroke:#181818;stroke-width:1.0;"/><path d="M51.5,160.8516 Q51.7031,160.3516 51.9375,160.1016 Q52.1719,159.8516 52.4375,159.8516 Q52.9063,159.8516 53.2031,160.1328 Q53.5,160.4141 53.5,161.0703 L53.5,162.6328 Q53.5,163.2891 53.2188,163.5703 Q52.9375,163.8516 52.5,163.8516 Q52.1094,163.8516 51.8594,163.6797 Q51.6094,163.5078 51.5,163.0547 Q51.4531,162.7422 51.2813,162.5703 Q50.9688,162.2422 50.4063,162.0547 Q49.8438,161.8516 49.2813,161.8516 Q48.5781,161.8516 47.9844,162.1328 Q47.4063,162.4141 46.9531,163.0391 Q46.5,163.6641 46.5,164.5234 L46.5,165.4453 Q46.5,166.4766 47.3438,167.1641 Q48.1875,167.8516 49.6875,167.8516 Q50.5781,167.8516 51.2031,167.6484 Q51.5625,167.5391 51.9688,167.1797 Q52.2344,166.9766 52.375,166.9141 Q52.5156,166.8516 52.6875,166.8516 Q53.0156,166.8516 53.25,167.1172 Q53.5,167.3672 53.5,167.7266 Q53.5,168.0703 53.1563,168.4766 Q52.6563,169.0703 51.8594,169.3984 Q50.8125,169.8516 49.5313,169.8516 Q48.0313,169.8516 46.8281,169.2578 Q45.8594,168.7891 45.1719,167.7734 Q44.5,166.7578 44.5,165.5547 L44.5,164.4609 Q44.5,163.2109 45.0938,162.1172 Q45.7031,161.0234 46.75,160.4453 Q47.8125,159.8516 49,159.8516 Q49.7188,159.8516 50.3438,160.1016 Q50.9688,160.3516 51.5,160.8516 Z " fill="#000000"/><text fill="#000000" font-family="sans-serif" font-size="12" font-style="italic" lengthAdjust="spacing" textLength="74" x="98" y="160.457">«application»</text><text fill="#000000" font-family="sans-serif" font-size="14" lengthAdjust="spacing" textLength="143" x="63.5" y="177.627">ShowGradesController</text><line style="stroke:#181818;stroke-width:0.5;" x1="35.5" x2="208.5" y1="185.7031" y2="185.7031"/><line style="stroke:#181818;stroke-width:0.5;" x1="35.5" x2="208.5" y1="193.7031" y2="193.7031"/><ellipse cx="45.5" cy="208.0078" fill="#84BE84" rx="3" ry="3" style="stroke:#038048;stroke-width:1.0;"/><text fill="#000000" font-family="sans-serif" font-size="14" lengthAdjust="spacing" textLength="89" x="54.5" y="212.2363">showGrades()</text></g><!--MD5=[f1584dfd29aeb5579fb73b9a20e63c45]
class GradeManagementService--><g id="elem_GradeManagementService"><rect codeLine="9" fill="#F1F1F1" height="76.3125" id="GradeManagementService" rx="2.5" ry="2.5" style="stroke:#181818;stroke-width:0.5;" width="201" x="21.5" y="279"/><ellipse cx="36.5" cy="300.3516" fill="#ADD1B2" rx="11" ry="11" style="stroke:#181818;stroke-width:1.0;"/><path d="M38.5,296.8516 Q38.7031,296.3516 38.9375,296.1016 Q39.1719,295.8516 39.4375,295.8516 Q39.9063,295.8516 40.2031,296.1328 Q40.5,296.4141 40.5,297.0703 L40.5,298.6328 Q40.5,299.2891 40.2188,299.5703 Q39.9375,299.8516 39.5,299.8516 Q39.1094,299.8516 38.8594,299.6797 Q38.6094,299.5078 38.5,299.0547 Q38.4531,298.7422 38.2813,298.5703 Q37.9688,298.2422 37.4063,298.0547 Q36.8438,297.8516 36.2813,297.8516 Q35.5781,297.8516 34.9844,298.1328 Q34.4063,298.4141 33.9531,299.0391 Q33.5,299.6641 33.5,300.5234 L33.5,301.4453 Q33.5,302.4766 34.3438,303.1641 Q35.1875,303.8516 36.6875,303.8516 Q37.5781,303.8516 38.2031,303.6484 Q38.5625,303.5391 38.9688,303.1797 Q39.2344,302.9766 39.375,302.9141 Q39.5156,302.8516 39.6875,302.8516 Q40.0156,302.8516 40.25,303.1172 Q40.5,303.3672 40.5,303.7266 Q40.5,304.0703 40.1563,304.4766 Q39.6563,305.0703 38.8594,305.3984 Q37.8125,305.8516 36.5313,305.8516 Q35.0313,305.8516 33.8281,305.2578 Q32.8594,304.7891 32.1719,303.7734 Q31.5,302.7578 31.5,301.5547 L31.5,300.4609 Q31.5,299.2109 32.0938,298.1172 Q32.7031,297.0234 33.75,296.4453 Q34.8125,295.8516 36,295.8516 Q36.7188,295.8516 37.3438,296.1016 Q37.9688,296.3516 38.5,296.8516 Z " fill="#000000"/><text fill="#000000" font-family="sans-serif" font-size="12" font-style="italic" lengthAdjust="spacing" textLength="74" x="98" y="296.457">«application»</text><text fill="#000000" font-family="sans-serif" font-size="14" lengthAdjust="spacing" textLength="169" x="50.5" y="313.627">GradeManagementService</text><line style="stroke:#181818;stroke-width:0.5;" x1="22.5" x2="221.5" y1="321.7031" y2="321.7031"/><line style="stroke:#181818;stroke-width:0.5;" x1="22.5" x2="221.5" y1="329.7031" y2="329.7031"/><ellipse cx="32.5" cy="344.0078" fill="#84BE84" rx="3" ry="3" style="stroke:#038048;stroke-width:1.0;"/><text fill="#000000" font-family="sans-serif" font-size="14" lengthAdjust="spacing" textLength="89" x="41.5" y="348.2363">showGrades()</text></g><!--MD5=[64e7a81d370390ac66d73872e4f36773]
class Grade--><g id="elem_Grade"><rect codeLine="13" fill="#F1F1F1" height="58.7031" id="Grade" rx="2.5" ry="2.5" style="stroke:#181818;stroke-width:0.5;" width="84" x="7" y="423.5"/><ellipse cx="22" cy="444.8516" fill="#ADD1B2" rx="11" ry="11" style="stroke:#181818;stroke-width:1.0;"/><path d="M24,441.3516 Q24.2031,440.8516 24.4375,440.6016 Q24.6719,440.3516 24.9375,440.3516 Q25.4063,440.3516 25.7031,440.6328 Q26,440.9141 26,441.5703 L26,443.1328 Q26,443.7891 25.7188,444.0703 Q25.4375,444.3516 25,444.3516 Q24.6094,444.3516 24.3594,444.1797 Q24.1094,444.0078 24,443.5547 Q23.9531,443.2422 23.7813,443.0703 Q23.4688,442.7422 22.9063,442.5547 Q22.3438,442.3516 21.7813,442.3516 Q21.0781,442.3516 20.4844,442.6328 Q19.9063,442.9141 19.4531,443.5391 Q19,444.1641 19,445.0234 L19,445.9453 Q19,446.9766 19.8438,447.6641 Q20.6875,448.3516 22.1875,448.3516 Q23.0781,448.3516 23.7031,448.1484 Q24.0625,448.0391 24.4688,447.6797 Q24.7344,447.4766 24.875,447.4141 Q25.0156,447.3516 25.1875,447.3516 Q25.5156,447.3516 25.75,447.6172 Q26,447.8672 26,448.2266 Q26,448.5703 25.6563,448.9766 Q25.1563,449.5703 24.3594,449.8984 Q23.3125,450.3516 22.0313,450.3516 Q20.5313,450.3516 19.3281,449.7578 Q18.3594,449.2891 17.6719,448.2734 Q17,447.2578 17,446.0547 L17,444.9609 Q17,443.7109 17.5938,442.6172 Q18.2031,441.5234 19.25,440.9453 Q20.3125,440.3516 21.5,440.3516 Q22.2188,440.3516 22.8438,440.6016 Q23.4688,440.8516 24,441.3516 Z " fill="#000000"/><text fill="#000000" font-family="sans-serif" font-size="12" font-style="italic" lengthAdjust="spacing" textLength="56" x="34" y="440.957">«domain»</text><text fill="#000000" font-family="sans-serif" font-size="14" lengthAdjust="spacing" textLength="40" x="42" y="458.127">Grade</text><line style="stroke:#181818;stroke-width:0.5;" x1="8" x2="90" y1="466.2031" y2="466.2031"/><line style="stroke:#181818;stroke-width:0.5;" x1="8" x2="90" y1="474.2031" y2="474.2031"/></g><!--MD5=[848da36695848765de009113961774a0]
class GradeRepository--><g id="elem_GradeRepository"><rect codeLine="17" fill="#F1F1F1" height="76.3125" id="GradeRepository" rx="2.5" ry="2.5" style="stroke:#181818;stroke-width:0.5;" width="140" x="126" y="415"/><ellipse cx="141" cy="436.3516" fill="#ADD1B2" rx="11" ry="11" style="stroke:#181818;stroke-width:1.0;"/><path d="M143,432.8516 Q143.2031,432.3516 143.4375,432.1016 Q143.6719,431.8516 143.9375,431.8516 Q144.4063,431.8516 144.7031,432.1328 Q145,432.4141 145,433.0703 L145,434.6328 Q145,435.2891 144.7188,435.5703 Q144.4375,435.8516 144,435.8516 Q143.6094,435.8516 143.3594,435.6797 Q143.1094,435.5078 143,435.0547 Q142.9531,434.7422 142.7813,434.5703 Q142.4688,434.2422 141.9063,434.0547 Q141.3438,433.8516 140.7813,433.8516 Q140.0781,433.8516 139.4844,434.1328 Q138.9063,434.4141 138.4531,435.0391 Q138,435.6641 138,436.5234 L138,437.4453 Q138,438.4766 138.8438,439.1641 Q139.6875,439.8516 141.1875,439.8516 Q142.0781,439.8516 142.7031,439.6484 Q143.0625,439.5391 143.4688,439.1797 Q143.7344,438.9766 143.875,438.9141 Q144.0156,438.8516 144.1875,438.8516 Q144.5156,438.8516 144.75,439.1172 Q145,439.3672 145,439.7266 Q145,440.0703 144.6563,440.4766 Q144.1563,441.0703 143.3594,441.3984 Q142.3125,441.8516 141.0313,441.8516 Q139.5313,441.8516 138.3281,441.2578 Q137.3594,440.7891 136.6719,439.7734 Q136,438.7578 136,437.5547 L136,436.4609 Q136,435.2109 136.5938,434.1172 Q137.2031,433.0234 138.25,432.4453 Q139.3125,431.8516 140.5,431.8516 Q141.2188,431.8516 141.8438,432.1016 Q142.4688,432.3516 143,432.8516 Z " fill="#000000"/><text fill="#000000" font-family="sans-serif" font-size="12" font-style="italic" lengthAdjust="spacing" textLength="68" x="175" y="432.457">«repository»</text><text fill="#000000" font-family="sans-serif" font-size="14" lengthAdjust="spacing" textLength="108" x="155" y="449.627">GradeRepository</text><line style="stroke:#181818;stroke-width:0.5;" x1="127" x2="265" y1="457.7031" y2="457.7031"/><line style="stroke:#181818;stroke-width:0.5;" x1="127" x2="265" y1="465.7031" y2="465.7031"/><ellipse cx="137" cy="480.0078" fill="#84BE84" rx="3" ry="3" style="stroke:#038048;stroke-width:1.0;"/><text fill="#000000" font-family="sans-serif" font-size="14" lengthAdjust="spacing" textLength="89" x="146" y="484.2363">showGrades()</text></g><!--MD5=[c2df1d0a37ac5e72c4ee84263fc2574f]
link ShowGradesUI to ShowGradesController--><g id="link_ShowGradesUI_ShowGradesController"><path codeLine="22" d="M122,83.33 C122,100.17 122,120.15 122,137.56 " fill="none" id="ShowGradesUI-to-ShowGradesController" style="stroke:#181818;stroke-width:1.0;"/><polygon fill="#181818" points="122,142.87,126,133.87,122,137.87,118,133.87,122,142.87" style="stroke:#181818;stroke-width:1.0;"/></g><!--MD5=[0e0eebd1f2d3b33214cf1161fcb34dd4]
link ShowGradesController to GradeManagementService--><g id="link_ShowGradesController_GradeManagementService"><path codeLine="23" d="M122,219.33 C122,236.17 122,256.15 122,273.56 " fill="none" id="ShowGradesController-to-GradeManagementService" style="stroke:#181818;stroke-width:1.0;"/><polygon fill="#181818" points="122,278.87,126,269.87,122,273.87,118,269.87,122,278.87" style="stroke:#181818;stroke-width:1.0;"/></g><!--MD5=[a04a2129df004f39808f9dea36ee851d]
link GradeManagementService to Grade--><g id="link_GradeManagementService_Grade"><path codeLine="24" d="M101.67,355.33 C90.85,375.17 77.67,399.37 67.2,418.6 " fill="none" id="GradeManagementService-to-Grade" style="stroke:#181818;stroke-width:1.0;"/><polygon fill="#181818" points="64.6,423.37,72.4213,417.3843,66.9943,418.9805,65.3981,413.5535,64.6,423.37" style="stroke:#181818;stroke-width:1.0;"/></g><!--MD5=[10d5d1c435efa5626d2b7d84e5bcf9e3]
link GradeManagementService to GradeRepository--><g id="link_GradeManagementService_GradeRepository"><path codeLine="25" d="M142.61,355.33 C152.08,372.46 163.33,392.84 173.06,410.46 " fill="none" id="GradeManagementService-to-GradeRepository" style="stroke:#181818;stroke-width:1.0;"/><polygon fill="#181818" points="175.5,414.87,174.6504,405.0579,173.0827,410.4932,167.6474,408.9255,175.5,414.87" style="stroke:#181818;stroke-width:1.0;"/></g><!--MD5=[4d56c7a7056eee6f43e722ee2482ff97]
@startuml
class ShowGradesUI <<presentation>>{
+doShow()
}

class ShowGradesController <<application>> {
+showGrades()
}

class GradeManagementService <<application>> {
+showGrades()
}

class Grade <<domain>> {

}

class GradeRepository <<repository>> {
+showGrades()

}

ShowGradesUI - -> ShowGradesController
ShowGradesController - -> GradeManagementService
GradeManagementService - -> Grade
GradeManagementService - -> GradeRepository


@enduml

PlantUML version 1.2022.12(Sun Oct 23 19:12:26 BST 2022)
(GPL source distribution)
Java Runtime: OpenJDK Runtime Environment
JVM: OpenJDK 64-Bit Server VM
Default Encoding: Cp1252
Language: pt
Country: PT
--></g></svg>