<?xml version="1.0" encoding="UTF-8" standalone="no"?><svg xmlns="http://www.w3.org/2000/svg" xmlns:xlink="http://www.w3.org/1999/xlink" contentStyleType="text/css" height="501px" preserveAspectRatio="none" style="width:644px;height:501px;background:#FFFFFF;" version="1.1" viewBox="0 0 644 501" width="644px" zoomAndPan="magnify"><defs/><g><rect fill="#FFFFFF" height="317.5156" style="stroke:#181818;stroke-width:1.0;" width="10" x="27.5" y="92.6094"/><rect fill="#FFFFFF" height="286.1641" style="stroke:#181818;stroke-width:1.0;" width="10" x="120.5" y="114.9609"/><rect fill="#FFFFFF" height="182.1094" style="stroke:#181818;stroke-width:1.0;" width="10" x="266.5" y="188.6641"/><rect fill="#FFFFFF" height="121.4063" style="stroke:#181818;stroke-width:1.0;" width="10" x="430" y="219.0156"/><rect fill="#FFFFFF" height="30.3516" style="stroke:#181818;stroke-width:1.0;" width="10" x="575.5" y="279.7188"/><line style="stroke:#181818;stroke-width:0.5;stroke-dasharray:5.0,5.0;" x1="32" x2="32" y1="82.6094" y2="419.125"/><line style="stroke:#181818;stroke-width:0.5;stroke-dasharray:5.0,5.0;" x1="125" x2="125" y1="82.6094" y2="419.125"/><line style="stroke:#181818;stroke-width:0.5;stroke-dasharray:5.0,5.0;" x1="271" x2="271" y1="82.6094" y2="419.125"/><line style="stroke:#181818;stroke-width:0.5;stroke-dasharray:5.0,5.0;" x1="435" x2="435" y1="82.6094" y2="419.125"/><line style="stroke:#181818;stroke-width:0.5;stroke-dasharray:5.0,5.0;" x1="580" x2="580" y1="82.6094" y2="419.125"/><text fill="#000000" font-family="sans-serif" font-size="14" lengthAdjust="spacing" textLength="49" x="5" y="79.5332">Student</text><ellipse cx="32.5" cy="13.5" fill="#E2E2F0" rx="8" ry="8" style="stroke:#181818;stroke-width:0.5;"/><path d="M32.5,21.5 L32.5,48.5 M19.5,29.5 L45.5,29.5 M32.5,48.5 L19.5,63.5 M32.5,48.5 L45.5,63.5 " fill="none" style="stroke:#181818;stroke-width:0.5;"/><text fill="#000000" font-family="sans-serif" font-size="14" lengthAdjust="spacing" textLength="49" x="5" y="432.6582">Student</text><ellipse cx="32.5" cy="444.2344" fill="#E2E2F0" rx="8" ry="8" style="stroke:#181818;stroke-width:0.5;"/><path d="M32.5,452.2344 L32.5,479.2344 M19.5,460.2344 L45.5,460.2344 M32.5,479.2344 L19.5,494.2344 M32.5,479.2344 L45.5,494.2344 " fill="none" style="stroke:#181818;stroke-width:0.5;"/><rect fill="#E2E2F0" height="31.6094" rx="2.5" ry="2.5" style="stroke:#181818;stroke-width:0.5;" width="111" x="70" y="50"/><text fill="#000000" font-family="sans-serif" font-size="14" lengthAdjust="spacing" textLength="97" x="77" y="71.5332">:ShowGradesUI</text><rect fill="#E2E2F0" height="31.6094" rx="2.5" ry="2.5" style="stroke:#181818;stroke-width:0.5;" width="111" x="70" y="418.125"/><text fill="#000000" font-family="sans-serif" font-size="14" lengthAdjust="spacing" textLength="97" x="77" y="439.6582">:ShowGradesUI</text><rect fill="#E2E2F0" height="31.6094" rx="2.5" ry="2.5" style="stroke:#181818;stroke-width:0.5;" width="161" x="191" y="50"/><text fill="#000000" font-family="sans-serif" font-size="14" lengthAdjust="spacing" textLength="147" x="198" y="71.5332">:ShowGradesController</text><rect fill="#E2E2F0" height="31.6094" rx="2.5" ry="2.5" style="stroke:#181818;stroke-width:0.5;" width="161" x="191" y="418.125"/><text fill="#000000" font-family="sans-serif" font-size="14" lengthAdjust="spacing" textLength="147" x="198" y="439.6582">:ShowGradesController</text><rect fill="#E2E2F0" height="31.6094" rx="2.5" ry="2.5" style="stroke:#181818;stroke-width:0.5;" width="146" x="362" y="50"/><text fill="#000000" font-family="sans-serif" font-size="14" lengthAdjust="spacing" textLength="132" x="369" y="71.5332">:ShowGradesService</text><rect fill="#E2E2F0" height="31.6094" rx="2.5" ry="2.5" style="stroke:#181818;stroke-width:0.5;" width="146" x="362" y="418.125"/><text fill="#000000" font-family="sans-serif" font-size="14" lengthAdjust="spacing" textLength="132" x="369" y="439.6582">:ShowGradesService</text><text fill="#000000" font-family="sans-serif" font-size="14" lengthAdjust="spacing" textLength="119" x="518" y="79.5332">:GradesRepository</text><path d="M562.5,29 C562.5,19 580.5,19 580.5,19 C580.5,19 598.5,19 598.5,29 L598.5,55 C598.5,65 580.5,65 580.5,65 C580.5,65 562.5,65 562.5,55 L562.5,29 " fill="#E2E2F0" style="stroke:#181818;stroke-width:1.5;"/><path d="M562.5,29 C562.5,39 580.5,39 580.5,39 C580.5,39 598.5,39 598.5,29 " fill="none" style="stroke:#181818;stroke-width:1.5;"/><text fill="#000000" font-family="sans-serif" font-size="14" lengthAdjust="spacing" textLength="119" x="518" y="432.6582">:GradesRepository</text><path d="M562.5,445.7344 C562.5,435.7344 580.5,435.7344 580.5,435.7344 C580.5,435.7344 598.5,435.7344 598.5,445.7344 L598.5,471.7344 C598.5,481.7344 580.5,481.7344 580.5,481.7344 C580.5,481.7344 562.5,481.7344 562.5,471.7344 L562.5,445.7344 " fill="#E2E2F0" style="stroke:#181818;stroke-width:1.5;"/><path d="M562.5,445.7344 C562.5,455.7344 580.5,455.7344 580.5,455.7344 C580.5,455.7344 598.5,455.7344 598.5,445.7344 " fill="none" style="stroke:#181818;stroke-width:1.5;"/><rect fill="#FFFFFF" height="317.5156" style="stroke:#181818;stroke-width:1.0;" width="10" x="27.5" y="92.6094"/><rect fill="#FFFFFF" height="286.1641" style="stroke:#181818;stroke-width:1.0;" width="10" x="120.5" y="114.9609"/><rect fill="#FFFFFF" height="182.1094" style="stroke:#181818;stroke-width:1.0;" width="10" x="266.5" y="188.6641"/><rect fill="#FFFFFF" height="121.4063" style="stroke:#181818;stroke-width:1.0;" width="10" x="430" y="219.0156"/><rect fill="#FFFFFF" height="30.3516" style="stroke:#181818;stroke-width:1.0;" width="10" x="575.5" y="279.7188"/><polygon fill="#181818" points="108.5,110.9609,118.5,114.9609,108.5,118.9609,112.5,114.9609" style="stroke:#181818;stroke-width:1.0;"/><line style="stroke:#181818;stroke-width:1.0;" x1="37.5" x2="114.5" y1="114.9609" y2="114.9609"/><text fill="#000000" font-family="sans-serif" font-size="13" font-weight="bold" lengthAdjust="spacing" textLength="7" x="44.5" y="110.1045">1</text><text fill="#000000" font-family="sans-serif" font-size="13" lengthAdjust="spacing" textLength="38" x="55.5" y="110.1045">show()</text><line style="stroke:#181818;stroke-width:1.0;" x1="130.5" x2="172.5" y1="145.3125" y2="145.3125"/><line style="stroke:#181818;stroke-width:1.0;" x1="172.5" x2="172.5" y1="145.3125" y2="158.3125"/><line style="stroke:#181818;stroke-width:1.0;" x1="131.5" x2="172.5" y1="158.3125" y2="158.3125"/><polygon fill="#181818" points="141.5,154.3125,131.5,158.3125,141.5,162.3125,137.5,158.3125" style="stroke:#181818;stroke-width:1.0;"/><text fill="#000000" font-family="sans-serif" font-size="13" font-weight="bold" lengthAdjust="spacing" textLength="7" x="137.5" y="140.4561">2</text><text fill="#000000" font-family="sans-serif" font-size="13" lengthAdjust="spacing" textLength="54" x="148.5" y="140.4561">doShow()</text><polygon fill="#181818" points="254.5,184.6641,264.5,188.6641,254.5,192.6641,258.5,188.6641" style="stroke:#181818;stroke-width:1.0;"/><line style="stroke:#181818;stroke-width:1.0;" x1="130.5" x2="260.5" y1="188.6641" y2="188.6641"/><text fill="#000000" font-family="sans-serif" font-size="13" font-weight="bold" lengthAdjust="spacing" textLength="7" x="137.5" y="183.8076">3</text><text fill="#000000" font-family="sans-serif" font-size="13" lengthAdjust="spacing" textLength="80" x="148.5" y="183.8076">showGrades()</text><polygon fill="#181818" points="418,215.0156,428,219.0156,418,223.0156,422,219.0156" style="stroke:#181818;stroke-width:1.0;"/><line style="stroke:#181818;stroke-width:1.0;" x1="276.5" x2="424" y1="219.0156" y2="219.0156"/><text fill="#000000" font-family="sans-serif" font-size="13" font-weight="bold" lengthAdjust="spacing" textLength="7" x="283.5" y="214.1592">4</text><text fill="#000000" font-family="sans-serif" font-size="13" lengthAdjust="spacing" textLength="44" x="294.5" y="214.1592">create()</text><polygon fill="#181818" points="418,245.3672,428,249.3672,418,253.3672,422,249.3672" style="stroke:#181818;stroke-width:1.0;"/><line style="stroke:#181818;stroke-width:1.0;" x1="276.5" x2="424" y1="249.3672" y2="249.3672"/><text fill="#000000" font-family="sans-serif" font-size="13" font-weight="bold" lengthAdjust="spacing" textLength="7" x="283.5" y="244.5107">5</text><text fill="#000000" font-family="sans-serif" font-size="13" lengthAdjust="spacing" textLength="80" x="294.5" y="244.5107">showGrades()</text><polygon fill="#181818" points="563.5,275.7188,573.5,279.7188,563.5,283.7188,567.5,279.7188" style="stroke:#181818;stroke-width:1.0;"/><line style="stroke:#181818;stroke-width:1.0;" x1="440" x2="569.5" y1="279.7188" y2="279.7188"/><text fill="#000000" font-family="sans-serif" font-size="13" font-weight="bold" lengthAdjust="spacing" textLength="7" x="447" y="274.8623">6</text><text fill="#000000" font-family="sans-serif" font-size="13" lengthAdjust="spacing" textLength="44" x="458" y="274.8623">create()</text><polygon fill="#181818" points="568.5,306.0703,578.5,310.0703,568.5,314.0703,572.5,310.0703" style="stroke:#181818;stroke-width:1.0;"/><line style="stroke:#181818;stroke-width:1.0;" x1="440" x2="574.5" y1="310.0703" y2="310.0703"/><text fill="#000000" font-family="sans-serif" font-size="13" font-weight="bold" lengthAdjust="spacing" textLength="7" x="447" y="305.2139">7</text><text fill="#000000" font-family="sans-serif" font-size="13" lengthAdjust="spacing" textLength="80" x="458" y="305.2139">showGrades()</text><polygon fill="#181818" points="287.5,336.4219,277.5,340.4219,287.5,344.4219,283.5,340.4219" style="stroke:#181818;stroke-width:1.0;"/><line style="stroke:#181818;stroke-width:1.0;stroke-dasharray:2.0,2.0;" x1="281.5" x2="434" y1="340.4219" y2="340.4219"/><text fill="#000000" font-family="sans-serif" font-size="13" font-weight="bold" lengthAdjust="spacing" textLength="7" x="293.5" y="335.5654">8</text><text fill="#000000" font-family="sans-serif" font-size="13" lengthAdjust="spacing" textLength="97" x="304.5" y="335.5654">return exams list</text><polygon fill="#181818" points="141.5,366.7734,131.5,370.7734,141.5,374.7734,137.5,370.7734" style="stroke:#181818;stroke-width:1.0;"/><line style="stroke:#181818;stroke-width:1.0;stroke-dasharray:2.0,2.0;" x1="135.5" x2="270.5" y1="370.7734" y2="370.7734"/><text fill="#000000" font-family="sans-serif" font-size="13" font-weight="bold" lengthAdjust="spacing" textLength="7" x="147.5" y="365.917">9</text><text fill="#000000" font-family="sans-serif" font-size="13" lengthAdjust="spacing" textLength="97" x="158.5" y="365.917">return grades list</text><polygon fill="#181818" points="48.5,397.125,38.5,401.125,48.5,405.125,44.5,401.125" style="stroke:#181818;stroke-width:1.0;"/><line style="stroke:#181818;stroke-width:1.0;stroke-dasharray:2.0,2.0;" x1="42.5" x2="124.5" y1="401.125" y2="401.125"/><text fill="#000000" font-family="sans-serif" font-size="13" font-weight="bold" lengthAdjust="spacing" textLength="14" x="54.5" y="396.2686">10</text><text fill="#000000" font-family="sans-serif" font-size="13" lengthAdjust="spacing" textLength="4" x="72.5" y="396.2686"> </text><!--MD5=[96c9400a85da16bb0b08e1074c28cead]
@startuml
autonumber
'hide footbox
actor "Student" as student

participant ":ShowGradesUI" as ui
participant ":ShowGradesController" as ctrl
participant ":ShowGradesService" as srvc

database ":GradesRepository" as repo

activate student

student -> ui: show()
activate ui

ui -> ui: doShow()



ui -> ctrl : showGrades()
activate ctrl

ctrl -> srvc: create()
activate srvc

ctrl -> srvc: showGrades()

srvc -> repo: create()
activate repo
srvc -> repo: showGrades()
deactivate repo

srvc - -> ctrl: return exams list
deactivate srvc

ctrl - -> ui: return grades list
deactivate ctrl


ui - -> student:
deactivate ui




@enduml

@startuml
autonumber
actor "Student" as student

participant ":ShowGradesUI" as ui
participant ":ShowGradesController" as ctrl
participant ":ShowGradesService" as srvc

database ":GradesRepository" as repo

activate student

student -> ui: show()
activate ui

ui -> ui: doShow()



ui -> ctrl : showGrades()
activate ctrl

ctrl -> srvc: create()
activate srvc

ctrl -> srvc: showGrades()

srvc -> repo: create()
activate repo
srvc -> repo: showGrades()
deactivate repo

srvc - -> ctrl: return exams list
deactivate srvc

ctrl - -> ui: return grades list
deactivate ctrl


ui - -> student:
deactivate ui




@enduml

PlantUML version 1.2022.12(Sun Oct 23 19:12:26 BST 2022)
(GPL source distribution)
Java Runtime: OpenJDK Runtime Environment
JVM: OpenJDK 64-Bit Server VM
Default Encoding: Cp1252
Language: pt
Country: PT
--></g></svg>