<?xml version="1.0" encoding="us-ascii" standalone="no"?><svg xmlns="http://www.w3.org/2000/svg" xmlns:xlink="http://www.w3.org/1999/xlink" contentStyleType="text/css" height="731px" preserveAspectRatio="none" style="width:1014px;height:731px;background:#FFFFFF;" version="1.1" viewBox="0 0 1014 731" width="1014px" zoomAndPan="magnify"><defs/><g><!--class ModifyPostItUI--><g id="elem_ModifyPostItUI"><rect codeLine="1" fill="#F1F1F1" height="113.9531" id="ModifyPostItUI" rx="2.5" ry="2.5" style="stroke:#181818;stroke-width:0.5;" width="322" x="294" y="7"/><ellipse cx="401.75" cy="23" fill="#ADD1B2" rx="11" ry="11" style="stroke:#181818;stroke-width:1.0;"/><path d="M404.7231,28.6431 Q404.1421,28.9419 403.5029,29.0913 Q402.8638,29.2407 402.1582,29.2407 Q399.6514,29.2407 398.3315,27.5889 Q397.0117,25.937 397.0117,22.8159 Q397.0117,19.6865 398.3315,18.0347 Q399.6514,16.3828 402.1582,16.3828 Q402.8638,16.3828 403.5112,16.5322 Q404.1587,16.6816 404.7231,16.9805 L404.7231,19.7031 Q404.0923,19.1221 403.4988,18.8523 Q402.9053,18.5825 402.2744,18.5825 Q400.9297,18.5825 400.2449,19.6492 Q399.5601,20.7158 399.5601,22.8159 Q399.5601,24.9077 400.2449,25.9744 Q400.9297,27.041 402.2744,27.041 Q402.9053,27.041 403.4988,26.7712 Q404.0923,26.5015 404.7231,25.9204 Z " fill="#000000"/><text fill="#000000" font-family="sans-serif" font-size="14" lengthAdjust="spacing" textLength="98" x="422.25" y="28.291">ModifyPostItUI</text><line style="stroke:#181818;stroke-width:0.5;" x1="295" x2="615" y1="39" y2="39"/><rect fill="none" height="6" style="stroke:#C82930;stroke-width:1.0;" width="6" x="302" y="49.7441"/><text fill="#000000" font-family="sans-serif" font-size="14" lengthAdjust="spacing" textLength="142" x="314" y="56.5352">boards: List&lt;String&gt;</text><line style="stroke:#181818;stroke-width:0.5;" x1="295" x2="615" y1="63.4883" y2="63.4883"/><ellipse cx="305" cy="77.2324" fill="#84BE84" rx="3" ry="3" style="stroke:#038048;stroke-width:1.0;"/><text fill="#000000" font-family="sans-serif" font-size="14" lengthAdjust="spacing" textLength="256" x="314" y="81.0234">ModifyPostIt(boardList: String): String</text><rect fill="#F24D5C" height="6" style="stroke:#C82930;stroke-width:1.0;" width="6" x="302" y="90.7207"/><text fill="#000000" font-family="sans-serif" font-size="14" lengthAdjust="spacing" textLength="277" x="314" y="97.5117">showBoards(boards, boardList): boolean</text><rect fill="#F24D5C" height="6" style="stroke:#C82930;stroke-width:1.0;" width="6" x="302" y="107.209"/><text fill="#000000" font-family="sans-serif" font-size="14" lengthAdjust="spacing" textLength="296" x="314" y="114">buildBoardsMenu(boards, boardList): Menu</text></g><!--class ModifyPostItController--><g id="elem_ModifyPostItController"><rect codeLine="8" fill="#F1F1F1" height="113.9531" id="ModifyPostItController" rx="2.5" ry="2.5" style="stroke:#181818;stroke-width:0.5;" width="414" x="248" y="189"/><ellipse cx="373.75" cy="205" fill="#ADD1B2" rx="11" ry="11" style="stroke:#181818;stroke-width:1.0;"/><path d="M376.7231,210.6431 Q376.1421,210.9419 375.5029,211.0913 Q374.8638,211.2407 374.1582,211.2407 Q371.6514,211.2407 370.3315,209.5889 Q369.0117,207.937 369.0117,204.8159 Q369.0117,201.6865 370.3315,200.0347 Q371.6514,198.3828 374.1582,198.3828 Q374.8638,198.3828 375.5112,198.5322 Q376.1587,198.6816 376.7231,198.9805 L376.7231,201.7031 Q376.0923,201.1221 375.4988,200.8523 Q374.9053,200.5825 374.2744,200.5825 Q372.9297,200.5825 372.2449,201.6492 Q371.5601,202.7158 371.5601,204.8159 Q371.5601,206.9077 372.2449,207.9744 Q372.9297,209.041 374.2744,209.041 Q374.9053,209.041 375.4988,208.7712 Q376.0923,208.5015 376.7231,207.9204 Z " fill="#000000"/><text fill="#000000" font-family="sans-serif" font-size="14" lengthAdjust="spacing" textLength="154" x="394.25" y="210.291">ModifyPostItController</text><line style="stroke:#181818;stroke-width:0.5;" x1="249" x2="661" y1="221" y2="221"/><rect fill="none" height="6" style="stroke:#C82930;stroke-width:1.0;" width="6" x="256" y="231.7441"/><text fill="#000000" font-family="sans-serif" font-size="14" lengthAdjust="spacing" textLength="161" x="268" y="238.5352">svc: ModifyPostItService</text><line style="stroke:#181818;stroke-width:0.5;" x1="249" x2="661" y1="245.4883" y2="245.4883"/><ellipse cx="259" cy="259.2324" fill="#84BE84" rx="3" ry="3" style="stroke:#038048;stroke-width:1.0;"/><text fill="#000000" font-family="sans-serif" font-size="14" lengthAdjust="spacing" textLength="388" x="268" y="263.0234">ModifyPostIt(email, data, row, column, boardId): boolean</text><ellipse cx="259" cy="275.7207" fill="#84BE84" rx="3" ry="3" style="stroke:#038048;stroke-width:1.0;"/><text fill="#000000" font-family="sans-serif" font-size="14" lengthAdjust="spacing" textLength="214" x="268" y="279.5117">findBoardPresent(email): String</text><ellipse cx="259" cy="292.209" fill="#84BE84" rx="3" ry="3" style="stroke:#038048;stroke-width:1.0;"/><text fill="#000000" font-family="sans-serif" font-size="14" lengthAdjust="spacing" textLength="185" x="268" y="296">findPostIts(boardId): String</text></g><!--class ModifyPostItService--><g id="elem_ModifyPostItService"><rect codeLine="15" fill="#F1F1F1" height="146.9297" id="ModifyPostItService" rx="2.5" ry="2.5" style="stroke:#181818;stroke-width:0.5;" width="430" x="240" y="371"/><ellipse cx="384.75" cy="387" fill="#ADD1B2" rx="11" ry="11" style="stroke:#181818;stroke-width:1.0;"/><path d="M387.7231,392.6431 Q387.1421,392.9419 386.5029,393.0913 Q385.8638,393.2407 385.1582,393.2407 Q382.6514,393.2407 381.3315,391.5889 Q380.0117,389.937 380.0117,386.8159 Q380.0117,383.6865 381.3315,382.0347 Q382.6514,380.3828 385.1582,380.3828 Q385.8638,380.3828 386.5112,380.5322 Q387.1587,380.6816 387.7231,380.9805 L387.7231,383.7031 Q387.0923,383.1221 386.4988,382.8523 Q385.9053,382.5825 385.2744,382.5825 Q383.9297,382.5825 383.2449,383.6492 Q382.5601,384.7158 382.5601,386.8159 Q382.5601,388.9077 383.2449,389.9744 Q383.9297,391.041 385.2744,391.041 Q385.9053,391.041 386.4988,390.7712 Q387.0923,390.5015 387.7231,389.9204 Z " fill="#000000"/><text fill="#000000" font-family="sans-serif" font-size="14" lengthAdjust="spacing" textLength="132" x="405.25" y="392.291">ModifyPostItService</text><line style="stroke:#181818;stroke-width:0.5;" x1="241" x2="669" y1="403" y2="403"/><rect fill="none" height="6" style="stroke:#C82930;stroke-width:1.0;" width="6" x="248" y="413.7441"/><text fill="#000000" font-family="sans-serif" font-size="14" lengthAdjust="spacing" textLength="161" x="260" y="420.5352">repoB: BoardRepository</text><rect fill="none" height="6" style="stroke:#C82930;stroke-width:1.0;" width="6" x="248" y="430.2324"/><text fill="#000000" font-family="sans-serif" font-size="14" lengthAdjust="spacing" textLength="159" x="260" y="437.0234">repoP: PostItRepository</text><rect fill="none" height="6" style="stroke:#C82930;stroke-width:1.0;" width="6" x="248" y="446.7207"/><text fill="#000000" font-family="sans-serif" font-size="14" lengthAdjust="spacing" textLength="154" x="260" y="453.5117">repoU: UserRepository</text><line style="stroke:#181818;stroke-width:0.5;" x1="241" x2="669" y1="460.4648" y2="460.4648"/><ellipse cx="251" cy="474.209" fill="#84BE84" rx="3" ry="3" style="stroke:#038048;stroke-width:1.0;"/><text fill="#000000" font-family="sans-serif" font-size="14" lengthAdjust="spacing" textLength="404" x="260" y="478">ModifyPostIt(email, data, rowS, columnS, boardId): boolean</text><ellipse cx="251" cy="490.6973" fill="#84BE84" rx="3" ry="3" style="stroke:#038048;stroke-width:1.0;"/><text fill="#000000" font-family="sans-serif" font-size="14" lengthAdjust="spacing" textLength="306" x="260" y="494.4883">findBoardPresent(email): List&lt;SharedBoard&gt;</text><ellipse cx="251" cy="507.1855" fill="#84BE84" rx="3" ry="3" style="stroke:#038048;stroke-width:1.0;"/><text fill="#000000" font-family="sans-serif" font-size="14" lengthAdjust="spacing" textLength="234" x="260" y="510.9766">findPostIts(boardId): List&lt;PostIts&gt;</text></g><!--class JpaPostItRepository--><g id="elem_JpaPostItRepository"><rect codeLine="24" fill="#F1F1F1" height="97.4648" id="JpaPostItRepository" rx="2.5" ry="2.5" style="stroke:#181818;stroke-width:0.5;" width="390" x="7" y="603"/><ellipse cx="131.75" cy="619" fill="#ADD1B2" rx="11" ry="11" style="stroke:#181818;stroke-width:1.0;"/><path d="M134.7231,624.6431 Q134.1421,624.9419 133.5029,625.0913 Q132.8638,625.2407 132.1582,625.2407 Q129.6514,625.2407 128.3315,623.5889 Q127.0117,621.937 127.0117,618.8159 Q127.0117,615.6865 128.3315,614.0347 Q129.6514,612.3828 132.1582,612.3828 Q132.8638,612.3828 133.5112,612.5322 Q134.1587,612.6816 134.7231,612.9805 L134.7231,615.7031 Q134.0923,615.1221 133.4988,614.8523 Q132.9053,614.5825 132.2744,614.5825 Q130.9297,614.5825 130.2449,615.6492 Q129.5601,616.7158 129.5601,618.8159 Q129.5601,620.9077 130.2449,621.9744 Q130.9297,623.041 132.2744,623.041 Q132.9053,623.041 133.4988,622.7712 Q134.0923,622.5015 134.7231,621.9204 Z " fill="#000000"/><text fill="#000000" font-family="sans-serif" font-size="14" lengthAdjust="spacing" textLength="132" x="152.25" y="624.291">JpaPostItRepository</text><line style="stroke:#181818;stroke-width:0.5;" x1="8" x2="396" y1="635" y2="635"/><line style="stroke:#181818;stroke-width:0.5;" x1="8" x2="396" y1="643" y2="643"/><ellipse cx="18" cy="656.7441" fill="#84BE84" rx="3" ry="3" style="stroke:#038048;stroke-width:1.0;"/><text fill="#000000" font-family="sans-serif" font-size="14" lengthAdjust="spacing" textLength="337" x="27" y="660.5352">findPostItByBoardId(idboard: Long): List&lt;PostIts&gt;</text><ellipse cx="18" cy="673.2324" fill="#84BE84" rx="3" ry="3" style="stroke:#038048;stroke-width:1.0;"/><text fill="#000000" font-family="sans-serif" font-size="14" lengthAdjust="spacing" textLength="194" x="27" y="677.0234">alterstate(post: PostIts): void</text><ellipse cx="18" cy="689.7207" fill="#84BE84" rx="3" ry="3" style="stroke:#038048;stroke-width:1.0;"/><text fill="#000000" font-family="sans-serif" font-size="14" lengthAdjust="spacing" textLength="364" x="27" y="693.5117">getactivepost(numColums: int, numRows: int): PostIts</text></g><!--class JpaBoardRepository--><g id="elem_JpaBoardRepository"><rect codeLine="30" fill="#F1F1F1" height="146.9297" id="JpaBoardRepository" rx="2.5" ry="2.5" style="stroke:#181818;stroke-width:0.5;" width="554" x="432" y="578"/><ellipse cx="637.75" cy="594" fill="#ADD1B2" rx="11" ry="11" style="stroke:#181818;stroke-width:1.0;"/><path d="M640.7231,599.6431 Q640.1421,599.9419 639.5029,600.0913 Q638.8638,600.2407 638.1582,600.2407 Q635.6514,600.2407 634.3315,598.5889 Q633.0117,596.937 633.0117,593.8159 Q633.0117,590.6865 634.3315,589.0347 Q635.6514,587.3828 638.1582,587.3828 Q638.8638,587.3828 639.5112,587.5322 Q640.1587,587.6816 640.7231,587.9805 L640.7231,590.7031 Q640.0923,590.1221 639.4988,589.8523 Q638.9053,589.5825 638.2744,589.5825 Q636.9297,589.5825 636.2449,590.6492 Q635.5601,591.7158 635.5601,593.8159 Q635.5601,595.9077 636.2449,596.9744 Q636.9297,598.041 638.2744,598.041 Q638.9053,598.041 639.4988,597.7712 Q640.0923,597.5015 640.7231,596.9204 Z " fill="#000000"/><text fill="#000000" font-family="sans-serif" font-size="14" lengthAdjust="spacing" textLength="134" x="658.25" y="599.291">JpaBoardRepository</text><line style="stroke:#181818;stroke-width:0.5;" x1="433" x2="985" y1="610" y2="610"/><line style="stroke:#181818;stroke-width:0.5;" x1="433" x2="985" y1="618" y2="618"/><ellipse cx="443" cy="631.7441" fill="#84BE84" rx="3" ry="3" style="stroke:#038048;stroke-width:1.0;"/><text fill="#000000" font-family="sans-serif" font-size="14" lengthAdjust="spacing" textLength="475" x="452" y="635.5352">appendUser(user: SystemUser, state: State, board: SharedBoard): void</text><ellipse cx="443" cy="648.2324" fill="#84BE84" rx="3" ry="3" style="stroke:#038048;stroke-width:1.0;"/><text fill="#000000" font-family="sans-serif" font-size="14" lengthAdjust="spacing" textLength="528" x="452" y="652.0234">createBoard(rows: int, columns: int, owner: SystemUser, state: State): boolean</text><ellipse cx="443" cy="664.7207" fill="#84BE84" rx="3" ry="3" style="stroke:#038048;stroke-width:1.0;"/><text fill="#000000" font-family="sans-serif" font-size="14" lengthAdjust="spacing" textLength="352" x="452" y="668.5117">findBoardOwned(email: String): List&lt;SharedBoard&gt;</text><ellipse cx="443" cy="681.209" fill="#84BE84" rx="3" ry="3" style="stroke:#038048;stroke-width:1.0;"/><text fill="#000000" font-family="sans-serif" font-size="14" lengthAdjust="spacing" textLength="390" x="452" y="685">findBoardPresentWrite(email: String): List&lt;SharedBoard&gt;</text><ellipse cx="443" cy="697.6973" fill="#84BE84" rx="3" ry="3" style="stroke:#038048;stroke-width:1.0;"/><text fill="#000000" font-family="sans-serif" font-size="14" lengthAdjust="spacing" textLength="256" x="452" y="701.4883">findBoardById(id: Long): SharedBoard</text><ellipse cx="443" cy="714.1855" fill="#84BE84" rx="3" ry="3" style="stroke:#038048;stroke-width:1.0;"/><text fill="#000000" font-family="sans-serif" font-size="14" lengthAdjust="spacing" textLength="232" x="452" y="717.9766">archiveBoard(boardId: Long): void</text></g><!--class TCPClient--><g id="elem_TCPClient"><rect codeLine="39" fill="#F1F1F1" height="113.9531" id="TCPClient" rx="2.5" ry="2.5" style="stroke:#181818;stroke-width:0.5;" width="337" x="670.5" y="7"/><ellipse cx="801.25" cy="23" fill="#ADD1B2" rx="11" ry="11" style="stroke:#181818;stroke-width:1.0;"/><path d="M804.2231,28.6431 Q803.6421,28.9419 803.0029,29.0913 Q802.3638,29.2407 801.6582,29.2407 Q799.1514,29.2407 797.8315,27.5889 Q796.5117,25.937 796.5117,22.8159 Q796.5117,19.6865 797.8315,18.0347 Q799.1514,16.3828 801.6582,16.3828 Q802.3638,16.3828 803.0112,16.5322 Q803.6587,16.6816 804.2231,16.9805 L804.2231,19.7031 Q803.5923,19.1221 802.9988,18.8523 Q802.4053,18.5825 801.7744,18.5825 Q800.4297,18.5825 799.7449,19.6492 Q799.0601,20.7158 799.0601,22.8159 Q799.0601,24.9077 799.7449,25.9744 Q800.4297,27.041 801.7744,27.041 Q802.4053,27.041 802.9988,26.7712 Q803.5923,26.5015 804.2231,25.9204 Z " fill="#000000"/><text fill="#000000" font-family="sans-serif" font-size="14" lengthAdjust="spacing" textLength="67" x="821.75" y="28.291">TCPClient</text><line style="stroke:#181818;stroke-width:0.5;" x1="671.5" x2="1006.5" y1="39" y2="39"/><line style="stroke:#181818;stroke-width:0.5;" x1="671.5" x2="1006.5" y1="47" y2="47"/><ellipse cx="681.5" cy="60.7441" fill="#84BE84" rx="3" ry="3" style="stroke:#038048;stroke-width:1.0;"/><text fill="#000000" font-family="sans-serif" font-size="14" lengthAdjust="spacing" textLength="311" x="690.5" y="64.5352">connect(serverAddress: String, port: int): void</text><ellipse cx="681.5" cy="77.2324" fill="#84BE84" rx="3" ry="3" style="stroke:#038048;stroke-width:1.0;"/><text fill="#000000" font-family="sans-serif" font-size="14" lengthAdjust="spacing" textLength="236" x="690.5" y="81.0234">sendRequest(request: String): void</text><ellipse cx="681.5" cy="93.7207" fill="#84BE84" rx="3" ry="3" style="stroke:#038048;stroke-width:1.0;"/><text fill="#000000" font-family="sans-serif" font-size="14" lengthAdjust="spacing" textLength="173" x="690.5" y="97.5117">receiveResponse(): String</text><ellipse cx="681.5" cy="110.209" fill="#84BE84" rx="3" ry="3" style="stroke:#038048;stroke-width:1.0;"/><text fill="#000000" font-family="sans-serif" font-size="14" lengthAdjust="spacing" textLength="161" x="690.5" y="114">closeConnection(): void</text></g><!--class TCPServer--><g id="elem_TCPServer"><rect codeLine="46" fill="#F1F1F1" height="130.4414" id="TCPServer" rx="2.5" ry="2.5" style="stroke:#181818;stroke-width:0.5;" width="284" x="697" y="181"/><ellipse cx="799.75" cy="197" fill="#ADD1B2" rx="11" ry="11" style="stroke:#181818;stroke-width:1.0;"/><path d="M802.7231,202.6431 Q802.1421,202.9419 801.5029,203.0913 Q800.8638,203.2407 800.1582,203.2407 Q797.6514,203.2407 796.3315,201.5889 Q795.0117,199.937 795.0117,196.8159 Q795.0117,193.6865 796.3315,192.0347 Q797.6514,190.3828 800.1582,190.3828 Q800.8638,190.3828 801.5112,190.5322 Q802.1587,190.6816 802.7231,190.9805 L802.7231,193.7031 Q802.0923,193.1221 801.4988,192.8523 Q800.9053,192.5825 800.2744,192.5825 Q798.9297,192.5825 798.2449,193.6492 Q797.5601,194.7158 797.5601,196.8159 Q797.5601,198.9077 798.2449,199.9744 Q798.9297,201.041 800.2744,201.041 Q800.9053,201.041 801.4988,200.7712 Q802.0923,200.5015 802.7231,199.9204 Z " fill="#000000"/><text fill="#000000" font-family="sans-serif" font-size="14" lengthAdjust="spacing" textLength="70" x="820.25" y="202.291">TCPServer</text><line style="stroke:#181818;stroke-width:0.5;" x1="698" x2="980" y1="213" y2="213"/><line style="stroke:#181818;stroke-width:0.5;" x1="698" x2="980" y1="221" y2="221"/><ellipse cx="708" cy="234.7441" fill="#84BE84" rx="3" ry="3" style="stroke:#038048;stroke-width:1.0;"/><text fill="#000000" font-family="sans-serif" font-size="14" lengthAdjust="spacing" textLength="195" x="717" y="238.5352">startListening(port: int): void</text><ellipse cx="708" cy="251.2324" fill="#84BE84" rx="3" ry="3" style="stroke:#038048;stroke-width:1.0;"/><text fill="#000000" font-family="sans-serif" font-size="14" lengthAdjust="spacing" textLength="170" x="717" y="255.0234">acceptConnection(): void</text><ellipse cx="708" cy="267.7207" fill="#84BE84" rx="3" ry="3" style="stroke:#038048;stroke-width:1.0;"/><text fill="#000000" font-family="sans-serif" font-size="14" lengthAdjust="spacing" textLength="162" x="717" y="271.5117">receiveRequest(): String</text><ellipse cx="708" cy="284.209" fill="#84BE84" rx="3" ry="3" style="stroke:#038048;stroke-width:1.0;"/><text fill="#000000" font-family="sans-serif" font-size="14" lengthAdjust="spacing" textLength="258" x="717" y="288">sendResponse(response: String): void</text><ellipse cx="708" cy="300.6973" fill="#84BE84" rx="3" ry="3" style="stroke:#038048;stroke-width:1.0;"/><text fill="#000000" font-family="sans-serif" font-size="14" lengthAdjust="spacing" textLength="161" x="717" y="304.4883">closeConnection(): void</text></g><!--link ModifyPostItUI to ModifyPostItController--><g id="link_ModifyPostItUI_ModifyPostItController"><path codeLine="54" d="M455,121.46 C455,141.23 455,163.52 455,183.67 " fill="none" id="ModifyPostItUI-to-ModifyPostItController" style="stroke:#181818;stroke-width:1.0;"/><polygon fill="#181818" points="455,188.74,459,179.74,455,183.74,451,179.74,455,188.74" style="stroke:#181818;stroke-width:1.0;"/></g><!--link ModifyPostItController to ModifyPostItService--><g id="link_ModifyPostItController_ModifyPostItService"><path codeLine="55" d="M455,303.05 C455,322.58 455,344.86 455,365.83 " fill="none" id="ModifyPostItController-to-ModifyPostItService" style="stroke:#181818;stroke-width:1.0;"/><polygon fill="#181818" points="455,370.85,459,361.85,455,365.85,451,361.85,455,370.85" style="stroke:#181818;stroke-width:1.0;"/></g><!--link ModifyPostItService to JpaPostItRepository--><g id="link_ModifyPostItService_JpaPostItRepository"><path codeLine="56" d="M365.45,518.06 C332.25,544.96 295.34,574.87 265,599.45 " fill="none" id="ModifyPostItService-to-JpaPostItRepository" style="stroke:#181818;stroke-width:1.0;"/><polygon fill="#181818" points="260.96,602.73,270.4731,600.1802,264.8476,599.5857,265.4421,593.9601,260.96,602.73" style="stroke:#181818;stroke-width:1.0;"/></g><!--link ModifyPostItService to JpaBoardRepository--><g id="link_ModifyPostItService_JpaBoardRepository"><path codeLine="57" d="M544.91,518.06 C567.57,536.36 591.96,556.04 614.83,574.5 " fill="none" id="ModifyPostItService-to-JpaBoardRepository" style="stroke:#181818;stroke-width:1.0;"/><polygon fill="#181818" points="618.78,577.69,614.2979,568.9201,614.8924,574.5457,609.2669,575.1402,618.78,577.69" style="stroke:#181818;stroke-width:1.0;"/></g><!--link TCPClient to TCPServer--><g id="link_TCPClient_TCPServer"><path codeLine="58" d="M839,121.46 C839,138.71 839,157.87 839,175.86 " fill="none" id="TCPClient-to-TCPServer" style="stroke:#181818;stroke-width:1.0;"/><polygon fill="#181818" points="839,180.9,843,171.9,839,175.9,835,171.9,839,180.9" style="stroke:#181818;stroke-width:1.0;"/></g><!--SRC=[bLNDZfim4Bxp53woMl82g8fKEANggb5erBFNdjrO8ZOTcqHHrNVl-0S2MP9gBm7ZRyRVZ-s8bblBNenKRvUjiMxZzXls9sDinLuDHsbBzbrPzwLngFJxcYQUP-Wye3oaP17pDBo49lPWpbLe596sO6C58L-DQO7hk5wlMXcnBw3xHRoVoFvccVX0kpRQeMbRm4JVdaGvGpI09oNWemGuSjKMJ7B72uRcN31Xslweqz8REIFwpDwKZZot21PqQZ3L7J6nVH8UkYJ0ee14Bx57w4nLih3CZjwjSWOluzIsPB5gOMvVihq5dCtyHt4pI6u-hJdkZWD7YFFh1_83DdrUNrturl5RCS65QPlgKiKskPAX8NKpORFDc_egtZf0wxY3dFgvmIfBu9DHCc3UmN7XrCclw7BT7skldtQxqgvWDDwPSnmzZVKpnZV99CAywq1BRt_UqmybVh4EZlv3mG8blmdeaNocqTMwAJ-1GAZmESU1of3IC39d_MYDUn7-e38P0vmSslj1JdF_XOfi_MHjTGcvZP5DaD4r50UA8gfDssK41qj6vt_MsxfLH2GPBepM85nEua-0NwKacdPWLh3Ee1jI7Bqb7PJSxnueUOpFYPOHXY20MEt0TaPRoES7NBJ6GXrNLqRdIqoRG2enfMJGUQD0KuzyaHaN0Zgtq7N69pAVqucQ4bDCBqkg7l2- -HTOhTPtRjZipiLxMp7Sk4lNdCSk7Fn7sDlByBeNF63qE_i7]--></g></svg>