<?xml version="1.0" encoding="us-ascii" standalone="no"?><svg xmlns="http://www.w3.org/2000/svg" xmlns:xlink="http://www.w3.org/1999/xlink" contentStyleType="text/css" height="921px" preserveAspectRatio="none" style="width:1498px;height:921px;background:#FFFFFF;" version="1.1" viewBox="0 0 1498 921" width="1498px" zoomAndPan="magnify"><defs/><g><line style="stroke:#181818;stroke-width:0.5;stroke-dasharray:5.0,5.0;" x1="23" x2="23" y1="81.4883" y2="840.6309"/><line style="stroke:#181818;stroke-width:0.5;stroke-dasharray:5.0,5.0;" x1="207.5" x2="207.5" y1="81.4883" y2="840.6309"/><line style="stroke:#181818;stroke-width:0.5;stroke-dasharray:5.0,5.0;" x1="529.5" x2="529.5" y1="81.4883" y2="840.6309"/><line style="stroke:#181818;stroke-width:0.5;stroke-dasharray:5.0,5.0;" x1="851.5" x2="851.5" y1="81.4883" y2="840.6309"/><line style="stroke:#181818;stroke-width:0.5;stroke-dasharray:5.0,5.0;" x1="1046.5" x2="1046.5" y1="81.4883" y2="840.6309"/><line style="stroke:#181818;stroke-width:0.5;stroke-dasharray:5.0,5.0;" x1="1203.5" x2="1203.5" y1="81.4883" y2="840.6309"/><line style="stroke:#181818;stroke-width:0.5;stroke-dasharray:5.0,5.0;" x1="1327.5" x2="1327.5" y1="81.4883" y2="840.6309"/><line style="stroke:#181818;stroke-width:0.5;stroke-dasharray:5.0,5.0;" x1="1450" x2="1450" y1="81.4883" y2="840.6309"/><text fill="#000000" font-family="sans-serif" font-size="14" lengthAdjust="spacing" textLength="31" x="5" y="78.5352">User</text><ellipse cx="23.5" cy="13.5" fill="#E2E2F0" rx="8" ry="8" style="stroke:#181818;stroke-width:0.5;"/><path d="M23.5,21.5 L23.5,48.5 M10.5,29.5 L36.5,29.5 M23.5,48.5 L10.5,63.5 M23.5,48.5 L36.5,63.5 " fill="none" style="stroke:#181818;stroke-width:0.5;"/><text fill="#000000" font-family="sans-serif" font-size="14" lengthAdjust="spacing" textLength="31" x="5" y="853.166">User</text><ellipse cx="23.5" cy="864.6191" fill="#E2E2F0" rx="8" ry="8" style="stroke:#181818;stroke-width:0.5;"/><path d="M23.5,872.6191 L23.5,899.6191 M10.5,880.6191 L36.5,880.6191 M23.5,899.6191 L10.5,914.6191 M23.5,899.6191 L36.5,914.6191 " fill="none" style="stroke:#181818;stroke-width:0.5;"/><rect fill="#F0F8FF" height="30.4883" rx="2.5" ry="2.5" style="stroke:#181818;stroke-width:0.5;" width="112" x="151.5" y="50"/><text fill="#000000" font-family="sans-serif" font-size="14" lengthAdjust="spacing" textLength="98" x="158.5" y="70.5352">ModifyPostItUI</text><rect fill="#F0F8FF" height="30.4883" rx="2.5" ry="2.5" style="stroke:#181818;stroke-width:0.5;" width="112" x="151.5" y="839.6309"/><text fill="#000000" font-family="sans-serif" font-size="14" lengthAdjust="spacing" textLength="98" x="158.5" y="860.166">ModifyPostItUI</text><rect fill="#F0F8FF" height="30.4883" rx="2.5" ry="2.5" style="stroke:#181818;stroke-width:0.5;" width="168" x="445.5" y="50"/><text fill="#000000" font-family="sans-serif" font-size="14" lengthAdjust="spacing" textLength="154" x="452.5" y="70.5352">ModifyPostItController</text><rect fill="#F0F8FF" height="30.4883" rx="2.5" ry="2.5" style="stroke:#181818;stroke-width:0.5;" width="168" x="445.5" y="839.6309"/><text fill="#000000" font-family="sans-serif" font-size="14" lengthAdjust="spacing" textLength="154" x="452.5" y="860.166">ModifyPostItController</text><rect fill="#F0F8FF" height="30.4883" rx="2.5" ry="2.5" style="stroke:#181818;stroke-width:0.5;" width="146" x="778.5" y="50"/><text fill="#000000" font-family="sans-serif" font-size="14" lengthAdjust="spacing" textLength="132" x="785.5" y="70.5352">ModifyPostItService</text><rect fill="#F0F8FF" height="30.4883" rx="2.5" ry="2.5" style="stroke:#181818;stroke-width:0.5;" width="146" x="778.5" y="839.6309"/><text fill="#000000" font-family="sans-serif" font-size="14" lengthAdjust="spacing" textLength="132" x="785.5" y="860.166">ModifyPostItService</text><rect fill="#F0F8FF" height="30.4883" rx="2.5" ry="2.5" style="stroke:#181818;stroke-width:0.5;" width="146" x="973.5" y="50"/><text fill="#000000" font-family="sans-serif" font-size="14" lengthAdjust="spacing" textLength="132" x="980.5" y="70.5352">JpaPostItRepository</text><rect fill="#F0F8FF" height="30.4883" rx="2.5" ry="2.5" style="stroke:#181818;stroke-width:0.5;" width="146" x="973.5" y="839.6309"/><text fill="#000000" font-family="sans-serif" font-size="14" lengthAdjust="spacing" textLength="132" x="980.5" y="860.166">JpaPostItRepository</text><rect fill="#F0F8FF" height="30.4883" rx="2.5" ry="2.5" style="stroke:#181818;stroke-width:0.5;" width="148" x="1129.5" y="50"/><text fill="#000000" font-family="sans-serif" font-size="14" lengthAdjust="spacing" textLength="134" x="1136.5" y="70.5352">JpaBoardRepository</text><rect fill="#F0F8FF" height="30.4883" rx="2.5" ry="2.5" style="stroke:#181818;stroke-width:0.5;" width="148" x="1129.5" y="839.6309"/><text fill="#000000" font-family="sans-serif" font-size="14" lengthAdjust="spacing" textLength="134" x="1136.5" y="860.166">JpaBoardRepository</text><rect fill="#F0F8FF" height="30.4883" rx="2.5" ry="2.5" style="stroke:#181818;stroke-width:0.5;" width="81" x="1287.5" y="50"/><text fill="#000000" font-family="sans-serif" font-size="14" lengthAdjust="spacing" textLength="67" x="1294.5" y="70.5352">TCPClient</text><rect fill="#F0F8FF" height="30.4883" rx="2.5" ry="2.5" style="stroke:#181818;stroke-width:0.5;" width="81" x="1287.5" y="839.6309"/><text fill="#000000" font-family="sans-serif" font-size="14" lengthAdjust="spacing" textLength="67" x="1294.5" y="860.166">TCPClient</text><rect fill="#F0F8FF" height="30.4883" rx="2.5" ry="2.5" style="stroke:#181818;stroke-width:0.5;" width="84" x="1408" y="50"/><text fill="#000000" font-family="sans-serif" font-size="14" lengthAdjust="spacing" textLength="70" x="1415" y="70.5352">TCPServer</text><rect fill="#F0F8FF" height="30.4883" rx="2.5" ry="2.5" style="stroke:#181818;stroke-width:0.5;" width="84" x="1408" y="839.6309"/><text fill="#000000" font-family="sans-serif" font-size="14" lengthAdjust="spacing" textLength="70" x="1415" y="860.166">TCPServer</text><polygon fill="#181818" points="195.5,108.7988,205.5,112.7988,195.5,116.7988,199.5,112.7988" style="stroke:#181818;stroke-width:1.0;"/><line style="stroke:#181818;stroke-width:1.0;" x1="23.5" x2="201.5" y1="112.7988" y2="112.7988"/><text fill="#000000" font-family="sans-serif" font-size="13" lengthAdjust="spacing" textLength="91" x="30.5" y="108.0566">Modify Post-It</text><line style="stroke:#181818;stroke-width:1.0;" x1="207.5" x2="249.5" y1="142.1094" y2="142.1094"/><line style="stroke:#181818;stroke-width:1.0;" x1="249.5" x2="249.5" y1="142.1094" y2="155.1094"/><line style="stroke:#181818;stroke-width:1.0;" x1="208.5" x2="249.5" y1="155.1094" y2="155.1094"/><polygon fill="#181818" points="218.5,151.1094,208.5,155.1094,218.5,159.1094,214.5,155.1094" style="stroke:#181818;stroke-width:1.0;"/><text fill="#000000" font-family="sans-serif" font-size="13" lengthAdjust="spacing" textLength="193" x="214.5" y="137.3672">showBoards(boards, boardList)</text><line style="stroke:#181818;stroke-width:1.0;" x1="207.5" x2="249.5" y1="184.4199" y2="184.4199"/><line style="stroke:#181818;stroke-width:1.0;" x1="249.5" x2="249.5" y1="184.4199" y2="197.4199"/><line style="stroke:#181818;stroke-width:1.0;" x1="208.5" x2="249.5" y1="197.4199" y2="197.4199"/><polygon fill="#181818" points="218.5,193.4199,208.5,197.4199,218.5,201.4199,214.5,197.4199" style="stroke:#181818;stroke-width:1.0;"/><text fill="#000000" font-family="sans-serif" font-size="13" lengthAdjust="spacing" textLength="77" x="214.5" y="179.6777">Select board</text><line style="stroke:#181818;stroke-width:1.0;" x1="207.5" x2="249.5" y1="226.7305" y2="226.7305"/><line style="stroke:#181818;stroke-width:1.0;" x1="249.5" x2="249.5" y1="226.7305" y2="239.7305"/><line style="stroke:#181818;stroke-width:1.0;" x1="208.5" x2="249.5" y1="239.7305" y2="239.7305"/><polygon fill="#181818" points="218.5,235.7305,208.5,239.7305,218.5,243.7305,214.5,239.7305" style="stroke:#181818;stroke-width:1.0;"/><text fill="#000000" font-family="sans-serif" font-size="13" lengthAdjust="spacing" textLength="197" x="214.5" y="221.9883">Enter Post-It data, row, column</text><polygon fill="#181818" points="517.5,265.041,527.5,269.041,517.5,273.041,521.5,269.041" style="stroke:#181818;stroke-width:1.0;"/><line style="stroke:#181818;stroke-width:1.0;" x1="207.5" x2="523.5" y1="269.041" y2="269.041"/><text fill="#000000" font-family="sans-serif" font-size="13" lengthAdjust="spacing" textLength="298" x="214.5" y="264.2988">ModifyPostIt(email, data, row, column, boardId)</text><polygon fill="#181818" points="839.5,294.3516,849.5,298.3516,839.5,302.3516,843.5,298.3516" style="stroke:#181818;stroke-width:1.0;"/><line style="stroke:#181818;stroke-width:1.0;" x1="529.5" x2="845.5" y1="298.3516" y2="298.3516"/><text fill="#000000" font-family="sans-serif" font-size="13" lengthAdjust="spacing" textLength="298" x="536.5" y="293.6094">ModifyPostIt(email, data, row, column, boardId)</text><polygon fill="#181818" points="1034.5,323.6621,1044.5,327.6621,1034.5,331.6621,1038.5,327.6621" style="stroke:#181818;stroke-width:1.0;"/><line style="stroke:#181818;stroke-width:1.0;" x1="851.5" x2="1040.5" y1="327.6621" y2="327.6621"/><text fill="#000000" font-family="sans-serif" font-size="13" lengthAdjust="spacing" textLength="171" x="858.5" y="322.9199">getactivepost(column, row)</text><polygon fill="#181818" points="862.5,352.9727,852.5,356.9727,862.5,360.9727,858.5,356.9727" style="stroke:#181818;stroke-width:1.0;"/><line style="stroke:#181818;stroke-width:1.0;stroke-dasharray:2.0,2.0;" x1="856.5" x2="1045.5" y1="356.9727" y2="356.9727"/><text fill="#000000" font-family="sans-serif" font-size="13" lengthAdjust="spacing" textLength="130" x="868.5" y="352.2305">Return active Post-It</text><polygon fill="#181818" points="1034.5,382.2832,1044.5,386.2832,1034.5,390.2832,1038.5,386.2832" style="stroke:#181818;stroke-width:1.0;"/><line style="stroke:#181818;stroke-width:1.0;" x1="851.5" x2="1040.5" y1="386.2832" y2="386.2832"/><text fill="#000000" font-family="sans-serif" font-size="13" lengthAdjust="spacing" textLength="148" x="858.5" y="381.541">alterstate(previousPost)</text><line style="stroke:#181818;stroke-width:1.0;" x1="1046.5" x2="1088.5" y1="415.5938" y2="415.5938"/><line style="stroke:#181818;stroke-width:1.0;" x1="1088.5" x2="1088.5" y1="415.5938" y2="428.5938"/><line style="stroke:#181818;stroke-width:1.0;" x1="1047.5" x2="1088.5" y1="428.5938" y2="428.5938"/><polygon fill="#181818" points="1057.5,424.5938,1047.5,428.5938,1057.5,432.5938,1053.5,428.5938" style="stroke:#181818;stroke-width:1.0;"/><text fill="#000000" font-family="sans-serif" font-size="13" lengthAdjust="spacing" textLength="116" x="1053.5" y="410.8516">Update postitstate</text><polygon fill="#181818" points="1034.5,453.9043,1044.5,457.9043,1034.5,461.9043,1038.5,457.9043" style="stroke:#181818;stroke-width:1.0;"/><line style="stroke:#181818;stroke-width:1.0;" x1="851.5" x2="1040.5" y1="457.9043" y2="457.9043"/><text fill="#000000" font-family="sans-serif" font-size="13" lengthAdjust="spacing" textLength="64" x="858.5" y="453.1621">save(post)</text><line style="stroke:#181818;stroke-width:1.0;" x1="1046.5" x2="1088.5" y1="487.2148" y2="487.2148"/><line style="stroke:#181818;stroke-width:1.0;" x1="1088.5" x2="1088.5" y1="487.2148" y2="500.2148"/><line style="stroke:#181818;stroke-width:1.0;" x1="1047.5" x2="1088.5" y1="500.2148" y2="500.2148"/><polygon fill="#181818" points="1057.5,496.2148,1047.5,500.2148,1057.5,504.2148,1053.5,500.2148" style="stroke:#181818;stroke-width:1.0;"/><text fill="#000000" font-family="sans-serif" font-size="13" lengthAdjust="spacing" textLength="136" x="1053.5" y="482.4727">Save modified Post-It</text><polygon fill="#181818" points="1191.5,525.5254,1201.5,529.5254,1191.5,533.5254,1195.5,529.5254" style="stroke:#181818;stroke-width:1.0;"/><line style="stroke:#181818;stroke-width:1.0;" x1="851.5" x2="1197.5" y1="529.5254" y2="529.5254"/><text fill="#000000" font-family="sans-serif" font-size="13" lengthAdjust="spacing" textLength="142" x="858.5" y="524.7832">findBoardById(boardId)</text><polygon fill="#181818" points="862.5,554.8359,852.5,558.8359,862.5,562.8359,858.5,558.8359" style="stroke:#181818;stroke-width:1.0;"/><line style="stroke:#181818;stroke-width:1.0;stroke-dasharray:2.0,2.0;" x1="856.5" x2="1202.5" y1="558.8359" y2="558.8359"/><text fill="#000000" font-family="sans-serif" font-size="13" lengthAdjust="spacing" textLength="81" x="868.5" y="554.0938">Return board</text><polygon fill="#181818" points="1316,584.1465,1326,588.1465,1316,592.1465,1320,588.1465" style="stroke:#181818;stroke-width:1.0;"/><line style="stroke:#181818;stroke-width:1.0;" x1="851.5" x2="1322" y1="588.1465" y2="588.1465"/><text fill="#000000" font-family="sans-serif" font-size="13" lengthAdjust="spacing" textLength="164" x="858.5" y="583.4043">Send ModifyPostIt request</text><polygon fill="#181818" points="1438,613.457,1448,617.457,1438,621.457,1442,617.457" style="stroke:#181818;stroke-width:1.0;"/><line style="stroke:#181818;stroke-width:1.0;" x1="1328" x2="1444" y1="617.457" y2="617.457"/><text fill="#000000" font-family="sans-serif" font-size="13" lengthAdjust="spacing" textLength="81" x="1335" y="612.7148">Send request</text><polygon fill="#181818" points="1339,642.7676,1329,646.7676,1339,650.7676,1335,646.7676" style="stroke:#181818;stroke-width:1.0;"/><line style="stroke:#181818;stroke-width:1.0;stroke-dasharray:2.0,2.0;" x1="1333" x2="1449" y1="646.7676" y2="646.7676"/><text fill="#000000" font-family="sans-serif" font-size="13" lengthAdjust="spacing" textLength="98" x="1345" y="642.0254">Receive request</text><polygon fill="#181818" points="862.5,672.0781,852.5,676.0781,862.5,680.0781,858.5,676.0781" style="stroke:#181818;stroke-width:1.0;"/><line style="stroke:#181818;stroke-width:1.0;" x1="856.5" x2="1449" y1="676.0781" y2="676.0781"/><text fill="#000000" font-family="sans-serif" font-size="13" lengthAdjust="spacing" textLength="182" x="868.5" y="671.3359">Process ModifyPostIt request</text><polygon fill="#181818" points="1438,701.3887,1448,705.3887,1438,709.3887,1442,705.3887" style="stroke:#181818;stroke-width:1.0;"/><line style="stroke:#181818;stroke-width:1.0;" x1="851.5" x2="1444" y1="705.3887" y2="705.3887"/><text fill="#000000" font-family="sans-serif" font-size="13" lengthAdjust="spacing" textLength="91" x="858.5" y="700.6465">Send response</text><polygon fill="#181818" points="862.5,730.6992,852.5,734.6992,862.5,738.6992,858.5,734.6992" style="stroke:#181818;stroke-width:1.0;"/><line style="stroke:#181818;stroke-width:1.0;stroke-dasharray:2.0,2.0;" x1="856.5" x2="1327" y1="734.6992" y2="734.6992"/><text fill="#000000" font-family="sans-serif" font-size="13" lengthAdjust="spacing" textLength="108" x="868.5" y="729.957">Receive response</text><polygon fill="#181818" points="540.5,760.0098,530.5,764.0098,540.5,768.0098,536.5,764.0098" style="stroke:#181818;stroke-width:1.0;"/><line style="stroke:#181818;stroke-width:1.0;stroke-dasharray:2.0,2.0;" x1="534.5" x2="850.5" y1="764.0098" y2="764.0098"/><text fill="#000000" font-family="sans-serif" font-size="13" lengthAdjust="spacing" textLength="70" x="546.5" y="759.2676">Return true</text><polygon fill="#181818" points="218.5,789.3203,208.5,793.3203,218.5,797.3203,214.5,793.3203" style="stroke:#181818;stroke-width:1.0;"/><line style="stroke:#181818;stroke-width:1.0;stroke-dasharray:2.0,2.0;" x1="212.5" x2="528.5" y1="793.3203" y2="793.3203"/><text fill="#000000" font-family="sans-serif" font-size="13" lengthAdjust="spacing" textLength="70" x="224.5" y="788.5781">Return true</text><polygon fill="#181818" points="34.5,818.6309,24.5,822.6309,34.5,826.6309,30.5,822.6309" style="stroke:#181818;stroke-width:1.0;"/><line style="stroke:#181818;stroke-width:1.0;" x1="28.5" x2="206.5" y1="822.6309" y2="822.6309"/><text fill="#000000" font-family="sans-serif" font-size="13" lengthAdjust="spacing" textLength="160" x="40.5" y="817.8887">Display success message</text><!--SRC=[fLJ1Rjim3BthAtXqWUG7V1Ymf3sus80WMJv0bTXKg2nv4fqY6FRlasmrjHshIJ4V99ZaUtmKHVbNPHhkU0rX9ILKmmt17mRXU-BYzU1iQ-JQQklWkrO2Lxf5zfSnBYYOzXuT6o9_MgcUJnlhgQ9zbNMjhI5djVu4lKDt3Fb6_iU6zyujDjQheE0qzQyiTpBZ_hNUhBL2GrDhp1Mai5WEBBzDgYZJFqJ3iY8sTiy1_8jzwvJuugdR5j3jFvIdknlmEzGegCVS4FvWA0XFya1ouWjmzcq1mkgsDbSOFffHZkm5rbpfnILVAgQIur8-UAOPKY__ZpwHHEwPUr320IbSIdMC9YhUgGBl7Pk9XsLEunQfTGPwhjcUNrF2TMY79qvOD0wFohO-1cLqP4ZsJJWOX5YCeexiIneyFuRiNyww2p2eOnw5yeRY9-DMmhCoiZEkJfKipesy3BtQWClBFqXz7kKuAqQEYC3XxnOziNDGGlHZdX23eDxU2HhmRb5Wl04pWHdX6sS5UZyl9b_8H9PlhF4u59y_g7U52JERuvDfJoTDhiNi9CyyDpbO_xJ4HxI4U-KRpK_WMz6TIHqMVa3s3m00]--></g></svg>