<?xml version="1.0" encoding="us-ascii" standalone="no"?><svg xmlns="http://www.w3.org/2000/svg" xmlns:xlink="http://www.w3.org/1999/xlink" contentStyleType="text/css" height="625px" preserveAspectRatio="none" style="width:2325px;height:625px;background:#FFFFFF;" version="1.1" viewBox="0 0 2325 625" width="2325px" zoomAndPan="magnify"><defs/><g><!--class Actor--><g id="elem_Actor"><rect codeLine="1" fill="#F1F1F1" height="48" id="Actor" rx="2.5" ry="2.5" style="stroke:#181818;stroke-width:0.5;" width="69" x="1088.5" y="7"/><ellipse cx="1103.5" cy="23" fill="#ADD1B2" rx="11" ry="11" style="stroke:#181818;stroke-width:1.0;"/><path d="M1106.4731,28.6431 Q1105.8921,28.9419 1105.2529,29.0913 Q1104.6138,29.2407 1103.9082,29.2407 Q1101.4014,29.2407 1100.0815,27.5889 Q1098.7617,25.937 1098.7617,22.8159 Q1098.7617,19.6865 1100.0815,18.0347 Q1101.4014,16.3828 1103.9082,16.3828 Q1104.6138,16.3828 1105.2612,16.5322 Q1105.9087,16.6816 1106.4731,16.9805 L1106.4731,19.7031 Q1105.8423,19.1221 1105.2488,18.8523 Q1104.6553,18.5825 1104.0244,18.5825 Q1102.6797,18.5825 1101.9949,19.6492 Q1101.3101,20.7158 1101.3101,22.8159 Q1101.3101,24.9077 1101.9949,25.9744 Q1102.6797,27.041 1104.0244,27.041 Q1104.6553,27.041 1105.2488,26.7712 Q1105.8423,26.5015 1106.4731,25.9204 Z " fill="#000000"/><text fill="#000000" font-family="sans-serif" font-size="14" lengthAdjust="spacing" textLength="37" x="1117.5" y="28.291">Actor</text><line style="stroke:#181818;stroke-width:0.5;" x1="1089.5" x2="1156.5" y1="39" y2="39"/><line style="stroke:#181818;stroke-width:0.5;" x1="1089.5" x2="1156.5" y1="47" y2="47"/></g><!--class EvaluateEnrollmentsUI--><g id="elem_EvaluateEnrollmentsUI"><rect codeLine="3" fill="#F1F1F1" height="64.4883" id="EvaluateEnrollmentsUI" rx="2.5" ry="2.5" style="stroke:#181818;stroke-width:0.5;" width="185" x="1030.5" y="115"/><ellipse cx="1045.5" cy="131" fill="#ADD1B2" rx="11" ry="11" style="stroke:#181818;stroke-width:1.0;"/><path d="M1048.4731,136.6431 Q1047.8921,136.9419 1047.2529,137.0913 Q1046.6138,137.2407 1045.9082,137.2407 Q1043.4014,137.2407 1042.0815,135.5889 Q1040.7617,133.937 1040.7617,130.8159 Q1040.7617,127.6865 1042.0815,126.0347 Q1043.4014,124.3828 1045.9082,124.3828 Q1046.6138,124.3828 1047.2612,124.5322 Q1047.9087,124.6816 1048.4731,124.9805 L1048.4731,127.7031 Q1047.8423,127.1221 1047.2488,126.8523 Q1046.6553,126.5825 1046.0244,126.5825 Q1044.6797,126.5825 1043.9949,127.6492 Q1043.3101,128.7158 1043.3101,130.8159 Q1043.3101,132.9077 1043.9949,133.9744 Q1044.6797,135.041 1046.0244,135.041 Q1046.6553,135.041 1047.2488,134.7712 Q1047.8423,134.5015 1048.4731,133.9204 Z " fill="#000000"/><text fill="#000000" font-family="sans-serif" font-size="14" lengthAdjust="spacing" textLength="153" x="1059.5" y="136.291">EvaluateEnrollmentsUI</text><line style="stroke:#181818;stroke-width:0.5;" x1="1031.5" x2="1214.5" y1="147" y2="147"/><line style="stroke:#181818;stroke-width:0.5;" x1="1031.5" x2="1214.5" y1="155" y2="155"/><ellipse cx="1041.5" cy="168.7441" fill="#84BE84" rx="3" ry="3" style="stroke:#038048;stroke-width:1.0;"/><text fill="#000000" font-family="sans-serif" font-size="14" lengthAdjust="spacing" textLength="65" x="1050.5" y="172.5352">doShow()</text></g><!--class EnrollmentConsulterService--><g id="elem_EnrollmentConsulterService"><rect codeLine="7" fill="#F1F1F1" height="64.4883" id="EnrollmentConsulterService" rx="2.5" ry="2.5" style="stroke:#181818;stroke-width:0.5;" width="222" x="156" y="264"/><ellipse cx="171" cy="280" fill="#ADD1B2" rx="11" ry="11" style="stroke:#181818;stroke-width:1.0;"/><path d="M173.9731,285.6431 Q173.3921,285.9419 172.7529,286.0913 Q172.1138,286.2407 171.4082,286.2407 Q168.9014,286.2407 167.5815,284.5889 Q166.2617,282.937 166.2617,279.8159 Q166.2617,276.6865 167.5815,275.0347 Q168.9014,273.3828 171.4082,273.3828 Q172.1138,273.3828 172.7612,273.5322 Q173.4087,273.6816 173.9731,273.9805 L173.9731,276.7031 Q173.3423,276.1221 172.7488,275.8523 Q172.1553,275.5825 171.5244,275.5825 Q170.1797,275.5825 169.4949,276.6492 Q168.8101,277.7158 168.8101,279.8159 Q168.8101,281.9077 169.4949,282.9744 Q170.1797,284.041 171.5244,284.041 Q172.1553,284.041 172.7488,283.7712 Q173.3423,283.5015 173.9731,282.9204 Z " fill="#000000"/><text fill="#000000" font-family="sans-serif" font-size="14" lengthAdjust="spacing" textLength="190" x="185" y="285.291">EnrollmentConsulterService</text><line style="stroke:#181818;stroke-width:0.5;" x1="157" x2="377" y1="296" y2="296"/><line style="stroke:#181818;stroke-width:0.5;" x1="157" x2="377" y1="304" y2="304"/><ellipse cx="167" cy="317.7441" fill="#84BE84" rx="3" ry="3" style="stroke:#038048;stroke-width:1.0;"/><text fill="#000000" font-family="sans-serif" font-size="14" lengthAdjust="spacing" textLength="112" x="176" y="321.5352">listEnrollments()</text></g><!--class DomainRepository--><g id="elem_DomainRepository"><rect codeLine="11" fill="#F1F1F1" height="80.9766" id="DomainRepository" rx="2.5" ry="2.5" style="stroke:#181818;stroke-width:0.5;" width="158" x="7" y="413"/><ellipse cx="22" cy="429" fill="#ADD1B2" rx="11" ry="11" style="stroke:#181818;stroke-width:1.0;"/><path d="M24.9731,434.6431 Q24.3921,434.9419 23.7529,435.0913 Q23.1138,435.2407 22.4082,435.2407 Q19.9014,435.2407 18.5815,433.5889 Q17.2617,431.937 17.2617,428.8159 Q17.2617,425.6865 18.5815,424.0347 Q19.9014,422.3828 22.4082,422.3828 Q23.1138,422.3828 23.7612,422.5322 Q24.4087,422.6816 24.9731,422.9805 L24.9731,425.7031 Q24.3423,425.1221 23.7488,424.8523 Q23.1553,424.5825 22.5244,424.5825 Q21.1797,424.5825 20.4949,425.6492 Q19.8101,426.7158 19.8101,428.8159 Q19.8101,430.9077 20.4949,431.9744 Q21.1797,433.041 22.5244,433.041 Q23.1553,433.041 23.7488,432.7712 Q24.3423,432.5015 24.9731,431.9204 Z " fill="#000000"/><text fill="#000000" font-family="sans-serif" font-size="14" lengthAdjust="spacing" textLength="126" x="36" y="434.291">DomainRepository</text><line style="stroke:#181818;stroke-width:0.5;" x1="8" x2="164" y1="445" y2="445"/><line style="stroke:#181818;stroke-width:0.5;" x1="8" x2="164" y1="453" y2="453"/><ellipse cx="18" cy="466.7441" fill="#84BE84" rx="3" ry="3" style="stroke:#038048;stroke-width:1.0;"/><text fill="#000000" font-family="sans-serif" font-size="14" lengthAdjust="spacing" textLength="55" x="27" y="470.5352">findAll()</text><ellipse cx="18" cy="483.2324" fill="#84BE84" rx="3" ry="3" style="stroke:#038048;stroke-width:1.0;"/><text fill="#000000" font-family="sans-serif" font-size="14" lengthAdjust="spacing" textLength="40" x="27" y="487.0234">save()</text></g><!--class PrintStream--><g id="elem_PrintStream"><rect codeLine="16" fill="#F1F1F1" height="80.9766" id="PrintStream" rx="2.5" ry="2.5" style="stroke:#181818;stroke-width:0.5;" width="112" x="413" y="255.5"/><ellipse cx="428" cy="271.5" fill="#ADD1B2" rx="11" ry="11" style="stroke:#181818;stroke-width:1.0;"/><path d="M430.9731,277.1431 Q430.3921,277.4419 429.7529,277.5913 Q429.1138,277.7407 428.4082,277.7407 Q425.9014,277.7407 424.5815,276.0889 Q423.2617,274.437 423.2617,271.3159 Q423.2617,268.1865 424.5815,266.5347 Q425.9014,264.8828 428.4082,264.8828 Q429.1138,264.8828 429.7612,265.0322 Q430.4087,265.1816 430.9731,265.4805 L430.9731,268.2031 Q430.3423,267.6221 429.7488,267.3523 Q429.1553,267.0825 428.5244,267.0825 Q427.1797,267.0825 426.4949,268.1492 Q425.8101,269.2158 425.8101,271.3159 Q425.8101,273.4077 426.4949,274.4744 Q427.1797,275.541 428.5244,275.541 Q429.1553,275.541 429.7488,275.2712 Q430.3423,275.0015 430.9731,274.4204 Z " fill="#000000"/><text fill="#000000" font-family="sans-serif" font-size="14" lengthAdjust="spacing" textLength="80" x="442" y="276.791">PrintStream</text><line style="stroke:#181818;stroke-width:0.5;" x1="414" x2="524" y1="287.5" y2="287.5"/><line style="stroke:#181818;stroke-width:0.5;" x1="414" x2="524" y1="295.5" y2="295.5"/><ellipse cx="424" cy="309.2441" fill="#84BE84" rx="3" ry="3" style="stroke:#038048;stroke-width:1.0;"/><text fill="#000000" font-family="sans-serif" font-size="14" lengthAdjust="spacing" textLength="56" x="433" y="313.0352">println()</text><ellipse cx="424" cy="325.7324" fill="#84BE84" rx="3" ry="3" style="stroke:#038048;stroke-width:1.0;"/><text fill="#000000" font-family="sans-serif" font-size="14" lengthAdjust="spacing" textLength="48" x="433" y="329.5234">printf()</text></g><!--class Enrollment--><g id="elem_Enrollment"><rect codeLine="21" fill="#F1F1F1" height="113.9531" id="Enrollment" rx="2.5" ry="2.5" style="stroke:#181818;stroke-width:0.5;" width="111" x="560.5" y="239"/><ellipse cx="577.3" cy="255" fill="#ADD1B2" rx="11" ry="11" style="stroke:#181818;stroke-width:1.0;"/><path d="M580.2731,260.6431 Q579.6921,260.9419 579.0529,261.0913 Q578.4138,261.2407 577.7082,261.2407 Q575.2014,261.2407 573.8815,259.5889 Q572.5617,257.937 572.5617,254.8159 Q572.5617,251.6865 573.8815,250.0347 Q575.2014,248.3828 577.7082,248.3828 Q578.4138,248.3828 579.0612,248.5322 Q579.7087,248.6816 580.2731,248.9805 L580.2731,251.7031 Q579.6423,251.1221 579.0488,250.8523 Q578.4553,250.5825 577.8244,250.5825 Q576.4797,250.5825 575.7949,251.6492 Q575.1101,252.7158 575.1101,254.8159 Q575.1101,256.9077 575.7949,257.9744 Q576.4797,259.041 577.8244,259.041 Q578.4553,259.041 579.0488,258.7712 Q579.6423,258.5015 580.2731,257.9204 Z " fill="#000000"/><text fill="#000000" font-family="sans-serif" font-size="14" lengthAdjust="spacing" textLength="75" x="591.7" y="260.291">Enrollment</text><line style="stroke:#181818;stroke-width:0.5;" x1="561.5" x2="670.5" y1="271" y2="271"/><line style="stroke:#181818;stroke-width:0.5;" x1="561.5" x2="670.5" y1="279" y2="279"/><ellipse cx="571.5" cy="292.7441" fill="#84BE84" rx="3" ry="3" style="stroke:#038048;stroke-width:1.0;"/><text fill="#000000" font-family="sans-serif" font-size="14" lengthAdjust="spacing" textLength="66" x="580.5" y="296.5352">getState()</text><ellipse cx="571.5" cy="309.2324" fill="#84BE84" rx="3" ry="3" style="stroke:#038048;stroke-width:1.0;"/><text fill="#000000" font-family="sans-serif" font-size="14" lengthAdjust="spacing" textLength="45" x="580.5" y="313.0234">getId()</text><ellipse cx="571.5" cy="325.7207" fill="#84BE84" rx="3" ry="3" style="stroke:#038048;stroke-width:1.0;"/><text fill="#000000" font-family="sans-serif" font-size="14" lengthAdjust="spacing" textLength="85" x="580.5" y="329.5117">getStudent()</text><ellipse cx="571.5" cy="342.209" fill="#84BE84" rx="3" ry="3" style="stroke:#038048;stroke-width:1.0;"/><text fill="#000000" font-family="sans-serif" font-size="14" lengthAdjust="spacing" textLength="81" x="580.5" y="346">getCourse()</text></g><!--class Enum--><g id="elem_Enum"><rect codeLine="28" fill="#F1F1F1" height="64.4883" id="Enum" rx="2.5" ry="2.5" style="stroke:#181818;stroke-width:0.5;" width="81" x="706.5" y="264"/><ellipse cx="726" cy="280" fill="#ADD1B2" rx="11" ry="11" style="stroke:#181818;stroke-width:1.0;"/><path d="M728.9731,285.6431 Q728.3921,285.9419 727.7529,286.0913 Q727.1138,286.2407 726.4082,286.2407 Q723.9014,286.2407 722.5815,284.5889 Q721.2617,282.937 721.2617,279.8159 Q721.2617,276.6865 722.5815,275.0347 Q723.9014,273.3828 726.4082,273.3828 Q727.1138,273.3828 727.7612,273.5322 Q728.4087,273.6816 728.9731,273.9805 L728.9731,276.7031 Q728.3423,276.1221 727.7488,275.8523 Q727.1553,275.5825 726.5244,275.5825 Q725.1797,275.5825 724.4949,276.6492 Q723.8101,277.7158 723.8101,279.8159 Q723.8101,281.9077 724.4949,282.9744 Q725.1797,284.041 726.5244,284.041 Q727.1553,284.041 727.7488,283.7712 Q728.3423,283.5015 728.9731,282.9204 Z " fill="#000000"/><text fill="#000000" font-family="sans-serif" font-size="14" lengthAdjust="spacing" textLength="39" x="741" y="285.291">Enum</text><line style="stroke:#181818;stroke-width:0.5;" x1="707.5" x2="786.5" y1="296" y2="296"/><line style="stroke:#181818;stroke-width:0.5;" x1="707.5" x2="786.5" y1="304" y2="304"/><ellipse cx="717.5" cy="317.7441" fill="#84BE84" rx="3" ry="3" style="stroke:#038048;stroke-width:1.0;"/><text fill="#000000" font-family="sans-serif" font-size="14" lengthAdjust="spacing" textLength="55" x="726.5" y="321.5352">equals()</text></g><!--class Student--><g id="elem_Student"><rect codeLine="32" fill="#F1F1F1" height="64.4883" id="Student" rx="2.5" ry="2.5" style="stroke:#181818;stroke-width:0.5;" width="218" x="823" y="264"/><ellipse cx="901.25" cy="280" fill="#ADD1B2" rx="11" ry="11" style="stroke:#181818;stroke-width:1.0;"/><path d="M904.2231,285.6431 Q903.6421,285.9419 903.0029,286.0913 Q902.3638,286.2407 901.6582,286.2407 Q899.1514,286.2407 897.8315,284.5889 Q896.5117,282.937 896.5117,279.8159 Q896.5117,276.6865 897.8315,275.0347 Q899.1514,273.3828 901.6582,273.3828 Q902.3638,273.3828 903.0112,273.5322 Q903.6587,273.6816 904.2231,273.9805 L904.2231,276.7031 Q903.5923,276.1221 902.9988,275.8523 Q902.4053,275.5825 901.7744,275.5825 Q900.4297,275.5825 899.7449,276.6492 Q899.0601,277.7158 899.0601,279.8159 Q899.0601,281.9077 899.7449,282.9744 Q900.4297,284.041 901.7744,284.041 Q902.4053,284.041 902.9988,283.7712 Q903.5923,283.5015 904.2231,282.9204 Z " fill="#000000"/><text fill="#000000" font-family="sans-serif" font-size="14" lengthAdjust="spacing" textLength="53" x="921.75" y="285.291">Student</text><line style="stroke:#181818;stroke-width:0.5;" x1="824" x2="1040" y1="296" y2="296"/><line style="stroke:#181818;stroke-width:0.5;" x1="824" x2="1040" y1="304" y2="304"/><ellipse cx="834" cy="317.7441" fill="#84BE84" rx="3" ry="3" style="stroke:#038048;stroke-width:1.0;"/><text fill="#000000" font-family="sans-serif" font-size="14" lengthAdjust="spacing" textLength="192" x="843" y="321.5352">getMecanographicNumber()</text></g><!--class Course--><g id="elem_Course"><rect codeLine="36" fill="#F1F1F1" height="64.4883" id="Course" rx="2.5" ry="2.5" style="stroke:#181818;stroke-width:0.5;" width="94" x="1076" y="264"/><ellipse cx="1096.85" cy="280" fill="#ADD1B2" rx="11" ry="11" style="stroke:#181818;stroke-width:1.0;"/><path d="M1099.8231,285.6431 Q1099.2421,285.9419 1098.6029,286.0913 Q1097.9638,286.2407 1097.2582,286.2407 Q1094.7514,286.2407 1093.4315,284.5889 Q1092.1117,282.937 1092.1117,279.8159 Q1092.1117,276.6865 1093.4315,275.0347 Q1094.7514,273.3828 1097.2582,273.3828 Q1097.9638,273.3828 1098.6112,273.5322 Q1099.2587,273.6816 1099.8231,273.9805 L1099.8231,276.7031 Q1099.1923,276.1221 1098.5988,275.8523 Q1098.0053,275.5825 1097.3744,275.5825 Q1096.0297,275.5825 1095.3449,276.6492 Q1094.6601,277.7158 1094.6601,279.8159 Q1094.6601,281.9077 1095.3449,282.9744 Q1096.0297,284.041 1097.3744,284.041 Q1098.0053,284.041 1098.5988,283.7712 Q1099.1923,283.5015 1099.8231,282.9204 Z " fill="#000000"/><text fill="#000000" font-family="sans-serif" font-size="14" lengthAdjust="spacing" textLength="49" x="1112.15" y="285.291">Course</text><line style="stroke:#181818;stroke-width:0.5;" x1="1077" x2="1169" y1="296" y2="296"/><line style="stroke:#181818;stroke-width:0.5;" x1="1077" x2="1169" y1="304" y2="304"/><ellipse cx="1087" cy="317.7441" fill="#84BE84" rx="3" ry="3" style="stroke:#038048;stroke-width:1.0;"/><text fill="#000000" font-family="sans-serif" font-size="14" lengthAdjust="spacing" textLength="68" x="1096" y="321.5352">getCode()</text></g><!--class Console--><g id="elem_Console"><rect codeLine="40" fill="#F1F1F1" height="64.4883" id="Console" rx="2.5" ry="2.5" style="stroke:#181818;stroke-width:0.5;" width="116" x="1205" y="264"/><ellipse cx="1232.6" cy="280" fill="#ADD1B2" rx="11" ry="11" style="stroke:#181818;stroke-width:1.0;"/><path d="M1235.5731,285.6431 Q1234.9921,285.9419 1234.3529,286.0913 Q1233.7138,286.2407 1233.0082,286.2407 Q1230.5014,286.2407 1229.1815,284.5889 Q1227.8617,282.937 1227.8617,279.8159 Q1227.8617,276.6865 1229.1815,275.0347 Q1230.5014,273.3828 1233.0082,273.3828 Q1233.7138,273.3828 1234.3612,273.5322 Q1235.0087,273.6816 1235.5731,273.9805 L1235.5731,276.7031 Q1234.9423,276.1221 1234.3488,275.8523 Q1233.7553,275.5825 1233.1244,275.5825 Q1231.7797,275.5825 1231.0949,276.6492 Q1230.4101,277.7158 1230.4101,279.8159 Q1230.4101,281.9077 1231.0949,282.9744 Q1231.7797,284.041 1233.1244,284.041 Q1233.7553,284.041 1234.3488,283.7712 Q1234.9423,283.5015 1235.5731,282.9204 Z " fill="#000000"/><text fill="#000000" font-family="sans-serif" font-size="14" lengthAdjust="spacing" textLength="56" x="1249.4" y="285.291">Console</text><line style="stroke:#181818;stroke-width:0.5;" x1="1206" x2="1320" y1="296" y2="296"/><line style="stroke:#181818;stroke-width:0.5;" x1="1206" x2="1320" y1="304" y2="304"/><ellipse cx="1216" cy="317.7441" fill="#84BE84" rx="3" ry="3" style="stroke:#038048;stroke-width:1.0;"/><text fill="#000000" font-family="sans-serif" font-size="14" lengthAdjust="spacing" textLength="90" x="1225" y="321.5352">readInteger()</text></g><!--class Iterable--><g id="elem_Iterable"><rect codeLine="44" fill="#F1F1F1" height="64.4883" id="Iterable" rx="2.5" ry="2.5" style="stroke:#181818;stroke-width:0.5;" width="87" x="1356.5" y="264"/><ellipse cx="1372.85" cy="280" fill="#ADD1B2" rx="11" ry="11" style="stroke:#181818;stroke-width:1.0;"/><path d="M1375.8231,285.6431 Q1375.2421,285.9419 1374.6029,286.0913 Q1373.9638,286.2407 1373.2582,286.2407 Q1370.7514,286.2407 1369.4315,284.5889 Q1368.1117,282.937 1368.1117,279.8159 Q1368.1117,276.6865 1369.4315,275.0347 Q1370.7514,273.3828 1373.2582,273.3828 Q1373.9638,273.3828 1374.6112,273.5322 Q1375.2587,273.6816 1375.8231,273.9805 L1375.8231,276.7031 Q1375.1923,276.1221 1374.5988,275.8523 Q1374.0053,275.5825 1373.3744,275.5825 Q1372.0297,275.5825 1371.3449,276.6492 Q1370.6601,277.7158 1370.6601,279.8159 Q1370.6601,281.9077 1371.3449,282.9744 Q1372.0297,284.041 1373.3744,284.041 Q1374.0053,284.041 1374.5988,283.7712 Q1375.1923,283.5015 1375.8231,282.9204 Z " fill="#000000"/><text fill="#000000" font-family="sans-serif" font-size="14" lengthAdjust="spacing" textLength="52" x="1387.15" y="285.291">Iterable</text><line style="stroke:#181818;stroke-width:0.5;" x1="1357.5" x2="1442.5" y1="296" y2="296"/><line style="stroke:#181818;stroke-width:0.5;" x1="1357.5" x2="1442.5" y1="304" y2="304"/><ellipse cx="1367.5" cy="317.7441" fill="#84BE84" rx="3" ry="3" style="stroke:#038048;stroke-width:1.0;"/><text fill="#000000" font-family="sans-serif" font-size="14" lengthAdjust="spacing" textLength="61" x="1376.5" y="321.5352">iterator()</text></g><!--class Iterator--><g id="elem_Iterator"><rect codeLine="48" fill="#F1F1F1" height="80.9766" id="Iterator" rx="2.5" ry="2.5" style="stroke:#181818;stroke-width:0.5;" width="92" x="1479" y="255.5"/><ellipse cx="1498.05" cy="271.5" fill="#ADD1B2" rx="11" ry="11" style="stroke:#181818;stroke-width:1.0;"/><path d="M1501.0231,277.1431 Q1500.4421,277.4419 1499.8029,277.5913 Q1499.1638,277.7407 1498.4582,277.7407 Q1495.9514,277.7407 1494.6315,276.0889 Q1493.3117,274.437 1493.3117,271.3159 Q1493.3117,268.1865 1494.6315,266.5347 Q1495.9514,264.8828 1498.4582,264.8828 Q1499.1638,264.8828 1499.8112,265.0322 Q1500.4587,265.1816 1501.0231,265.4805 L1501.0231,268.2031 Q1500.3923,267.6221 1499.7988,267.3523 Q1499.2053,267.0825 1498.5744,267.0825 Q1497.2297,267.0825 1496.5449,268.1492 Q1495.8601,269.2158 1495.8601,271.3159 Q1495.8601,273.4077 1496.5449,274.4744 Q1497.2297,275.541 1498.5744,275.541 Q1499.2053,275.541 1499.7988,275.2712 Q1500.3923,275.0015 1501.0231,274.4204 Z " fill="#000000"/><text fill="#000000" font-family="sans-serif" font-size="14" lengthAdjust="spacing" textLength="51" x="1512.95" y="276.791">Iterator</text><line style="stroke:#181818;stroke-width:0.5;" x1="1480" x2="1570" y1="287.5" y2="287.5"/><line style="stroke:#181818;stroke-width:0.5;" x1="1480" x2="1570" y1="295.5" y2="295.5"/><ellipse cx="1490" cy="309.2441" fill="#84BE84" rx="3" ry="3" style="stroke:#038048;stroke-width:1.0;"/><text fill="#000000" font-family="sans-serif" font-size="14" lengthAdjust="spacing" textLength="66" x="1499" y="313.0352">hasNext()</text><ellipse cx="1490" cy="325.7324" fill="#84BE84" rx="3" ry="3" style="stroke:#038048;stroke-width:1.0;"/><text fill="#000000" font-family="sans-serif" font-size="14" lengthAdjust="spacing" textLength="41" x="1499" y="329.5234">next()</text></g><!--class EnrollmentRepository--><g id="elem_EnrollmentRepository"><rect codeLine="53" fill="#F1F1F1" height="64.4883" id="EnrollmentRepository" rx="2.5" ry="2.5" style="stroke:#181818;stroke-width:0.5;" width="180" x="200" y="421.5"/><ellipse cx="215" cy="437.5" fill="#ADD1B2" rx="11" ry="11" style="stroke:#181818;stroke-width:1.0;"/><path d="M217.9731,443.1431 Q217.3921,443.4419 216.7529,443.5913 Q216.1138,443.7407 215.4082,443.7407 Q212.9014,443.7407 211.5815,442.0889 Q210.2617,440.437 210.2617,437.3159 Q210.2617,434.1865 211.5815,432.5347 Q212.9014,430.8828 215.4082,430.8828 Q216.1138,430.8828 216.7612,431.0322 Q217.4087,431.1816 217.9731,431.4805 L217.9731,434.2031 Q217.3423,433.6221 216.7488,433.3523 Q216.1553,433.0825 215.5244,433.0825 Q214.1797,433.0825 213.4949,434.1492 Q212.8101,435.2158 212.8101,437.3159 Q212.8101,439.4077 213.4949,440.4744 Q214.1797,441.541 215.5244,441.541 Q216.1553,441.541 216.7488,441.2712 Q217.3423,441.0015 217.9731,440.4204 Z " fill="#000000"/><text fill="#000000" font-family="sans-serif" font-size="14" lengthAdjust="spacing" textLength="148" x="229" y="442.791">EnrollmentRepository</text><line style="stroke:#181818;stroke-width:0.5;" x1="201" x2="379" y1="453.5" y2="453.5"/><line style="stroke:#181818;stroke-width:0.5;" x1="201" x2="379" y1="461.5" y2="461.5"/><ellipse cx="211" cy="475.2441" fill="#84BE84" rx="3" ry="3" style="stroke:#038048;stroke-width:1.0;"/><text fill="#000000" font-family="sans-serif" font-size="14" lengthAdjust="spacing" textLength="75" x="220" y="479.0352">alterState()</text></g><!--class ArrayList--><g id="elem_ArrayList"><rect codeLine="57" fill="#F1F1F1" height="64.4883" id="ArrayList" rx="2.5" ry="2.5" style="stroke:#181818;stroke-width:0.5;" width="187" x="1606.5" y="264"/><ellipse cx="1665.75" cy="280" fill="#ADD1B2" rx="11" ry="11" style="stroke:#181818;stroke-width:1.0;"/><path d="M1668.7231,285.6431 Q1668.1421,285.9419 1667.5029,286.0913 Q1666.8638,286.2407 1666.1582,286.2407 Q1663.6514,286.2407 1662.3315,284.5889 Q1661.0117,282.937 1661.0117,279.8159 Q1661.0117,276.6865 1662.3315,275.0347 Q1663.6514,273.3828 1666.1582,273.3828 Q1666.8638,273.3828 1667.5112,273.5322 Q1668.1587,273.6816 1668.7231,273.9805 L1668.7231,276.7031 Q1668.0923,276.1221 1667.4988,275.8523 Q1666.9053,275.5825 1666.2744,275.5825 Q1664.9297,275.5825 1664.2449,276.6492 Q1663.5601,277.7158 1663.5601,279.8159 Q1663.5601,281.9077 1664.2449,282.9744 Q1664.9297,284.041 1666.2744,284.041 Q1666.9053,284.041 1667.4988,283.7712 Q1668.0923,283.5015 1668.7231,282.9204 Z " fill="#000000"/><text fill="#000000" font-family="sans-serif" font-size="14" lengthAdjust="spacing" textLength="60" x="1686.25" y="285.291">ArrayList</text><line style="stroke:#181818;stroke-width:0.5;" x1="1607.5" x2="1792.5" y1="296" y2="296"/><text fill="#000000" font-family="sans-serif" font-size="14" lengthAdjust="spacing" textLength="175" x="1612.5" y="313.5352">// Implementation details</text><line style="stroke:#181818;stroke-width:0.5;" x1="1607.5" x2="1792.5" y1="320.4883" y2="320.4883"/></g><!--class List--><g id="elem_List"><rect codeLine="61" fill="#F1F1F1" height="64.4883" id="List" rx="2.5" ry="2.5" style="stroke:#181818;stroke-width:0.5;" width="62" x="1829" y="264"/><ellipse cx="1847.15" cy="280" fill="#ADD1B2" rx="11" ry="11" style="stroke:#181818;stroke-width:1.0;"/><path d="M1850.1231,285.6431 Q1849.5421,285.9419 1848.9029,286.0913 Q1848.2638,286.2407 1847.5582,286.2407 Q1845.0514,286.2407 1843.7315,284.5889 Q1842.4117,282.937 1842.4117,279.8159 Q1842.4117,276.6865 1843.7315,275.0347 Q1845.0514,273.3828 1847.5582,273.3828 Q1848.2638,273.3828 1848.9112,273.5322 Q1849.5587,273.6816 1850.1231,273.9805 L1850.1231,276.7031 Q1849.4923,276.1221 1848.8988,275.8523 Q1848.3053,275.5825 1847.6744,275.5825 Q1846.3297,275.5825 1845.6449,276.6492 Q1844.9601,277.7158 1844.9601,279.8159 Q1844.9601,281.9077 1845.6449,282.9744 Q1846.3297,284.041 1847.6744,284.041 Q1848.3053,284.041 1848.8988,283.7712 Q1849.4923,283.5015 1850.1231,282.9204 Z " fill="#000000"/><text fill="#000000" font-family="sans-serif" font-size="14" lengthAdjust="spacing" textLength="23" x="1861.85" y="285.291">List</text><line style="stroke:#181818;stroke-width:0.5;" x1="1830" x2="1890" y1="296" y2="296"/><line style="stroke:#181818;stroke-width:0.5;" x1="1830" x2="1890" y1="304" y2="304"/><ellipse cx="1840" cy="317.7441" fill="#84BE84" rx="3" ry="3" style="stroke:#038048;stroke-width:1.0;"/><text fill="#000000" font-family="sans-serif" font-size="14" lengthAdjust="spacing" textLength="36" x="1849" y="321.5352">add()</text></g><!--class CourseManagementController--><g id="elem_CourseManagementController"><rect codeLine="65" fill="#F1F1F1" height="64.4883" id="CourseManagementController" rx="2.5" ry="2.5" style="stroke:#181818;stroke-width:0.5;" width="240" x="1926" y="264"/><ellipse cx="1941" cy="280" fill="#ADD1B2" rx="11" ry="11" style="stroke:#181818;stroke-width:1.0;"/><path d="M1943.9731,285.6431 Q1943.3921,285.9419 1942.7529,286.0913 Q1942.1138,286.2407 1941.4082,286.2407 Q1938.9014,286.2407 1937.5815,284.5889 Q1936.2617,282.937 1936.2617,279.8159 Q1936.2617,276.6865 1937.5815,275.0347 Q1938.9014,273.3828 1941.4082,273.3828 Q1942.1138,273.3828 1942.7612,273.5322 Q1943.4087,273.6816 1943.9731,273.9805 L1943.9731,276.7031 Q1943.3423,276.1221 1942.7488,275.8523 Q1942.1553,275.5825 1941.5244,275.5825 Q1940.1797,275.5825 1939.4949,276.6492 Q1938.8101,277.7158 1938.8101,279.8159 Q1938.8101,281.9077 1939.4949,282.9744 Q1940.1797,284.041 1941.5244,284.041 Q1942.1553,284.041 1942.7488,283.7712 Q1943.3423,283.5015 1943.9731,282.9204 Z " fill="#000000"/><text fill="#000000" font-family="sans-serif" font-size="14" lengthAdjust="spacing" textLength="208" x="1955" y="285.291">CourseManagementController</text><line style="stroke:#181818;stroke-width:0.5;" x1="1927" x2="2165" y1="296" y2="296"/><line style="stroke:#181818;stroke-width:0.5;" x1="1927" x2="2165" y1="304" y2="304"/><ellipse cx="1937" cy="317.7441" fill="#84BE84" rx="3" ry="3" style="stroke:#038048;stroke-width:1.0;"/><text fill="#000000" font-family="sans-serif" font-size="14" lengthAdjust="spacing" textLength="115" x="1946" y="321.5352">appendStudent()</text></g><!--class CourseManagementService--><g id="elem_CourseManagementService"><rect codeLine="69" fill="#F1F1F1" height="64.4883" id="CourseManagementService" rx="2.5" ry="2.5" style="stroke:#181818;stroke-width:0.5;" width="218" x="1937" y="421.5"/><ellipse cx="1952" cy="437.5" fill="#ADD1B2" rx="11" ry="11" style="stroke:#181818;stroke-width:1.0;"/><path d="M1954.9731,443.1431 Q1954.3921,443.4419 1953.7529,443.5913 Q1953.1138,443.7407 1952.4082,443.7407 Q1949.9014,443.7407 1948.5815,442.0889 Q1947.2617,440.437 1947.2617,437.3159 Q1947.2617,434.1865 1948.5815,432.5347 Q1949.9014,430.8828 1952.4082,430.8828 Q1953.1138,430.8828 1953.7612,431.0322 Q1954.4087,431.1816 1954.9731,431.4805 L1954.9731,434.2031 Q1954.3423,433.6221 1953.7488,433.3523 Q1953.1553,433.0825 1952.5244,433.0825 Q1951.1797,433.0825 1950.4949,434.1492 Q1949.8101,435.2158 1949.8101,437.3159 Q1949.8101,439.4077 1950.4949,440.4744 Q1951.1797,441.541 1952.5244,441.541 Q1953.1553,441.541 1953.7488,441.2712 Q1954.3423,441.0015 1954.9731,440.4204 Z " fill="#000000"/><text fill="#000000" font-family="sans-serif" font-size="14" lengthAdjust="spacing" textLength="186" x="1966" y="442.791">CourseManagementService</text><line style="stroke:#181818;stroke-width:0.5;" x1="1938" x2="2154" y1="453.5" y2="453.5"/><line style="stroke:#181818;stroke-width:0.5;" x1="1938" x2="2154" y1="461.5" y2="461.5"/><ellipse cx="1948" cy="475.2441" fill="#84BE84" rx="3" ry="3" style="stroke:#038048;stroke-width:1.0;"/><text fill="#000000" font-family="sans-serif" font-size="14" lengthAdjust="spacing" textLength="115" x="1957" y="479.0352">appendStudent()</text></g><!--class CourseRepository--><g id="elem_CourseRepository"><rect codeLine="73" fill="#F1F1F1" height="64.4883" id="CourseRepository" rx="2.5" ry="2.5" style="stroke:#181818;stroke-width:0.5;" width="154" x="1969" y="554"/><ellipse cx="1984" cy="570" fill="#ADD1B2" rx="11" ry="11" style="stroke:#181818;stroke-width:1.0;"/><path d="M1986.9731,575.6431 Q1986.3921,575.9419 1985.7529,576.0913 Q1985.1138,576.2407 1984.4082,576.2407 Q1981.9014,576.2407 1980.5815,574.5889 Q1979.2617,572.937 1979.2617,569.8159 Q1979.2617,566.6865 1980.5815,565.0347 Q1981.9014,563.3828 1984.4082,563.3828 Q1985.1138,563.3828 1985.7612,563.5322 Q1986.4087,563.6816 1986.9731,563.9805 L1986.9731,566.7031 Q1986.3423,566.1221 1985.7488,565.8523 Q1985.1553,565.5825 1984.5244,565.5825 Q1983.1797,565.5825 1982.4949,566.6492 Q1981.8101,567.7158 1981.8101,569.8159 Q1981.8101,571.9077 1982.4949,572.9744 Q1983.1797,574.041 1984.5244,574.041 Q1985.1553,574.041 1985.7488,573.7712 Q1986.3423,573.5015 1986.9731,572.9204 Z " fill="#000000"/><text fill="#000000" font-family="sans-serif" font-size="14" lengthAdjust="spacing" textLength="122" x="1998" y="575.291">CourseRepository</text><line style="stroke:#181818;stroke-width:0.5;" x1="1970" x2="2122" y1="586" y2="586"/><line style="stroke:#181818;stroke-width:0.5;" x1="1970" x2="2122" y1="594" y2="594"/><ellipse cx="1980" cy="607.7441" fill="#84BE84" rx="3" ry="3" style="stroke:#038048;stroke-width:1.0;"/><text fill="#000000" font-family="sans-serif" font-size="14" lengthAdjust="spacing" textLength="115" x="1989" y="611.5352">appendStudent()</text></g><!--class Throwable--><g id="elem_Throwable"><rect codeLine="77" fill="#F1F1F1" height="64.4883" id="Throwable" rx="2.5" ry="2.5" style="stroke:#181818;stroke-width:0.5;" width="117" x="2201.5" y="264"/><ellipse cx="2221.9" cy="280" fill="#ADD1B2" rx="11" ry="11" style="stroke:#181818;stroke-width:1.0;"/><path d="M2224.8731,285.6431 Q2224.2921,285.9419 2223.6529,286.0913 Q2223.0138,286.2407 2222.3082,286.2407 Q2219.8014,286.2407 2218.4815,284.5889 Q2217.1617,282.937 2217.1617,279.8159 Q2217.1617,276.6865 2218.4815,275.0347 Q2219.8014,273.3828 2222.3082,273.3828 Q2223.0138,273.3828 2223.6612,273.5322 Q2224.3087,273.6816 2224.8731,273.9805 L2224.8731,276.7031 Q2224.2423,276.1221 2223.6488,275.8523 Q2223.0553,275.5825 2222.4244,275.5825 Q2221.0797,275.5825 2220.3949,276.6492 Q2219.7101,277.7158 2219.7101,279.8159 Q2219.7101,281.9077 2220.3949,282.9744 Q2221.0797,284.041 2222.4244,284.041 Q2223.0553,284.041 2223.6488,283.7712 Q2224.2423,283.5015 2224.8731,282.9204 Z " fill="#000000"/><text fill="#000000" font-family="sans-serif" font-size="14" lengthAdjust="spacing" textLength="73" x="2237.1" y="285.291">Throwable</text><line style="stroke:#181818;stroke-width:0.5;" x1="2202.5" x2="2317.5" y1="296" y2="296"/><line style="stroke:#181818;stroke-width:0.5;" x1="2202.5" x2="2317.5" y1="304" y2="304"/><ellipse cx="2212.5" cy="317.7441" fill="#84BE84" rx="3" ry="3" style="stroke:#038048;stroke-width:1.0;"/><text fill="#000000" font-family="sans-serif" font-size="14" lengthAdjust="spacing" textLength="91" x="2221.5" y="321.5352">getMessage()</text></g><!--link Actor to EvaluateEnrollmentsUI--><g id="link_Actor_EvaluateEnrollmentsUI"><path codeLine="81" d="M1123,55.07 C1123,70.64 1123,91.51 1123,109.33 " fill="none" id="Actor-to-EvaluateEnrollmentsUI" style="stroke:#181818;stroke-width:1.0;"/><polygon fill="#181818" points="1123,114.75,1127,105.75,1123,109.75,1119,105.75,1123,114.75" style="stroke:#181818;stroke-width:1.0;"/></g><!--link EvaluateEnrollmentsUI to EnrollmentConsulterService--><g id="link_EvaluateEnrollmentsUI_EnrollmentConsulterService"><path codeLine="82" d="M1030.23,150.6 C887.23,156.61 606.43,176.18 378,239 C357.3,244.69 335.62,253.14 316.8,261.76 " fill="none" id="EvaluateEnrollmentsUI-to-EnrollmentConsulterService" style="stroke:#181818;stroke-width:1.0;"/><polygon fill="#181818" points="312.09,263.95,321.9372,263.7671,316.6206,261.8348,318.5528,256.5182,312.09,263.95" style="stroke:#181818;stroke-width:1.0;"/></g><!--link EnrollmentConsulterService to EvaluateEnrollmentsUI--><g id="link_EnrollmentConsulterService_EvaluateEnrollmentsUI"><path codeLine="97" d="M345.24,263.95 C366.93,254.59 390.55,245.17 413,239 C626.71,180.23 886.25,159.31 1024.92,151.94 " fill="none" id="EnrollmentConsulterService-to-EvaluateEnrollmentsUI" style="stroke:#181818;stroke-width:1.0;"/><polygon fill="#181818" points="1030.21,151.66,1021.0164,148.1275,1025.2166,151.9168,1021.4273,156.117,1030.21,151.66" style="stroke:#181818;stroke-width:1.0;"/></g><!--link EvaluateEnrollmentsUI to PrintStream--><g id="link_EvaluateEnrollmentsUI_PrintStream"><path codeLine="83" d="M1030.27,148.42 C909.07,151.71 693.34,167.91 526,239 C517.62,242.56 509.33,247.28 501.68,252.47 " fill="none" id="EvaluateEnrollmentsUI-to-PrintStream" style="stroke:#181818;stroke-width:1.0;"/><polygon fill="#181818" points="497.51,255.4,507.1778,253.5203,501.6075,252.5346,502.5932,246.9643,497.51,255.4" style="stroke:#181818;stroke-width:1.0;"/></g><!--link PrintStream to EvaluateEnrollmentsUI--><g id="link_PrintStream_EvaluateEnrollmentsUI"><path codeLine="99" d="M525.23,260.01 C536.59,251.95 548.69,244.23 561,239 C715.02,173.57 910.05,154.63 1025.38,149.47 " fill="none" id="PrintStream-to-EvaluateEnrollmentsUI" style="stroke:#181818;stroke-width:1.0;"/><polygon fill="#181818" points="1030.47,149.25,1021.2963,145.6664,1025.4752,149.479,1021.6626,153.658,1030.47,149.25" style="stroke:#181818;stroke-width:1.0;"/></g><!--link EvaluateEnrollmentsUI to Enrollment--><g id="link_EvaluateEnrollmentsUI_Enrollment"><path codeLine="84" d="M1030.49,154.06 C937.43,163.11 792.17,185.05 676.36,237.02 " fill="none" id="EvaluateEnrollmentsUI-to-Enrollment" style="stroke:#181818;stroke-width:1.0;"/><polygon fill="#181818" points="671.56,239.2,681.4085,239.1172,676.1118,237.131,678.0981,231.8343,671.56,239.2" style="stroke:#181818;stroke-width:1.0;"/></g><!--link Enrollment to EvaluateEnrollmentsUI--><g id="link_Enrollment_EvaluateEnrollmentsUI"><path codeLine="100" d="M671.84,260.42 C683.04,252.36 694.95,244.53 707,239 C810.06,191.67 938.23,168.68 1025.04,157.69 " fill="none" id="Enrollment-to-EvaluateEnrollmentsUI" style="stroke:#181818;stroke-width:1.0;"/><polygon fill="#181818" points="1030.18,157.04,1020.7483,154.2039,1025.2197,157.669,1021.7547,162.1404,1030.18,157.04" style="stroke:#181818;stroke-width:1.0;"/></g><!--link EvaluateEnrollmentsUI to Enum--><g id="link_EvaluateEnrollmentsUI_Enum"><path codeLine="85" d="M1030.44,159.56 C959.93,171.87 862.98,195.74 788,239 C778.31,244.59 769.02,252.15 761.34,259.9 " fill="none" id="EvaluateEnrollmentsUI-to-Enum" style="stroke:#181818;stroke-width:1.0;"/><polygon fill="#181818" points="757.7,263.71,766.7964,259.9344,761.1415,260.0829,760.993,254.428,757.7,263.71" style="stroke:#181818;stroke-width:1.0;"/></g><!--link Enum to EvaluateEnrollmentsUI--><g id="link_Enum_EvaluateEnrollmentsUI"><path codeLine="101" d="M787.52,266.91 C798.45,256.88 810.39,246.27 823,239 C885.89,202.71 964.24,180.07 1025.26,166.45 " fill="none" id="Enum-to-EvaluateEnrollmentsUI" style="stroke:#181818;stroke-width:1.0;"/><polygon fill="#181818" points="1030.36,165.32,1020.7066,163.3676,1025.4791,166.4047,1022.442,171.1771,1030.36,165.32" style="stroke:#181818;stroke-width:1.0;"/></g><!--link EvaluateEnrollmentsUI to Student--><g id="link_EvaluateEnrollmentsUI_Student"><path codeLine="86" d="M1071.85,179.17 C1038.14,203.05 995.26,235.96 965.71,260.6 " fill="none" id="EvaluateEnrollmentsUI-to-Student" style="stroke:#181818;stroke-width:1.0;"/><polygon fill="#181818" points="961.81,263.87,971.2808,261.1673,965.6464,260.6634,966.1503,255.0291,961.81,263.87" style="stroke:#181818;stroke-width:1.0;"/></g><!--link Student to EvaluateEnrollmentsUI--><g id="link_Student_EvaluateEnrollmentsUI"><path codeLine="102" d="M983.71,263.87 C1017.57,240.01 1060.46,207.09 1089.89,182.44 " fill="none" id="Student-to-EvaluateEnrollmentsUI" style="stroke:#181818;stroke-width:1.0;"/><polygon fill="#181818" points="1093.77,179.17,1084.3162,181.9315,1089.9536,182.4004,1089.4848,188.0377,1093.77,179.17" style="stroke:#181818;stroke-width:1.0;"/></g><!--link EvaluateEnrollmentsUI to Course--><g id="link_EvaluateEnrollmentsUI_Course"><path codeLine="87" d="M1112.35,179.17 C1109.73,202.46 1109.56,234.36 1111.84,258.78 " fill="none" id="EvaluateEnrollmentsUI-to-Course" style="stroke:#181818;stroke-width:1.0;"/><polygon fill="#181818" points="1112.36,263.87,1115.4393,254.5149,1111.8597,258.8951,1107.4794,255.3155,1112.36,263.87" style="stroke:#181818;stroke-width:1.0;"/></g><!--link Course to EvaluateEnrollmentsUI--><g id="link_Course_EvaluateEnrollmentsUI"><path codeLine="103" d="M1134.27,263.87 C1137.05,240.59 1137.23,208.7 1134.82,184.27 " fill="none" id="Course-to-EvaluateEnrollmentsUI" style="stroke:#181818;stroke-width:1.0;"/><polygon fill="#181818" points="1134.27,179.17,1131.244,188.5425,1134.7986,184.142,1139.1991,187.6967,1134.27,179.17" style="stroke:#181818;stroke-width:1.0;"/></g><!--link EvaluateEnrollmentsUI to Console--><g id="link_EvaluateEnrollmentsUI_Console"><path codeLine="88" d="M1142.04,179.17 C1162.01,202.95 1193.07,235.69 1218.94,260.3 " fill="none" id="EvaluateEnrollmentsUI-to-Console" style="stroke:#181818;stroke-width:1.0;"/><polygon fill="#181818" points="1222.71,263.87,1218.8977,254.7889,1219.069,260.4432,1213.4147,260.6145,1222.71,263.87" style="stroke:#181818;stroke-width:1.0;"/></g><!--link Console to EvaluateEnrollmentsUI--><g id="link_Console_EvaluateEnrollmentsUI"><path codeLine="104" d="M1244.62,263.87 C1224.82,240.1 1193.77,207.36 1167.76,182.75 " fill="none" id="Console-to-EvaluateEnrollmentsUI" style="stroke:#181818;stroke-width:1.0;"/><polygon fill="#181818" points="1163.96,179.17,1167.7913,188.2431,1167.6081,182.5892,1173.262,182.4061,1163.96,179.17" style="stroke:#181818;stroke-width:1.0;"/></g><!--link EvaluateEnrollmentsUI to Iterable--><g id="link_EvaluateEnrollmentsUI_Iterable"><path codeLine="89" d="M1199.15,179.03 C1237.19,194.31 1282.89,214.71 1321,239 C1331.69,245.81 1342.31,254.5 1352.33,262.99 " fill="none" id="EvaluateEnrollmentsUI-to-Iterable" style="stroke:#181818;stroke-width:1.0;"/><polygon fill="#181818" points="1356.29,266.36,1352.0048,257.4923,1352.4736,263.1296,1346.8362,263.5985,1356.29,266.36" style="stroke:#181818;stroke-width:1.0;"/></g><!--link Iterable to EvaluateEnrollmentsUI--><g id="link_Iterable_EvaluateEnrollmentsUI"><path codeLine="105" d="M1386.7,263.75 C1377.94,255.02 1367.01,246.02 1356,239 C1314.45,212.51 1263.88,190.66 1220.29,175.01 " fill="none" id="Iterable-to-EvaluateEnrollmentsUI" style="stroke:#181818;stroke-width:1.0;"/><polygon fill="#181818" points="1215.56,173.33,1222.6995,180.1144,1220.271,175.0053,1225.38,172.5768,1215.56,173.33" style="stroke:#181818;stroke-width:1.0;"/></g><!--link EvaluateEnrollmentsUI to Iterator--><g id="link_EvaluateEnrollmentsUI_Iterator"><path codeLine="90" d="M1215.52,163.92 C1281.94,177.22 1371.78,200.4 1444,239 C1454.69,244.71 1465.11,252.52 1474.88,260.5 " fill="none" id="EvaluateEnrollmentsUI-to-Iterator" style="stroke:#181818;stroke-width:1.0;"/><polygon fill="#181818" points="1478.74,263.67,1474.332,254.8626,1474.8791,260.493,1469.2488,261.04,1478.74,263.67" style="stroke:#181818;stroke-width:1.0;"/></g><!--link Iterator to EvaluateEnrollmentsUI--><g id="link_Iterator_EvaluateEnrollmentsUI"><path codeLine="106" d="M1502.78,255.27 C1495.5,249.18 1487.33,243.45 1479,239 C1398.27,195.84 1295.52,171.97 1220.95,159.63 " fill="none" id="Iterator-to-EvaluateEnrollmentsUI" style="stroke:#181818;stroke-width:1.0;"/><polygon fill="#181818" points="1215.63,158.76,1223.8728,164.1503,1220.5654,159.5611,1225.1546,156.2537,1215.63,158.76" style="stroke:#181818;stroke-width:1.0;"/></g><!--link EvaluateEnrollmentsUI to ArrayList--><g id="link_EvaluateEnrollmentsUI_ArrayList"><path codeLine="91" d="M1215.68,160.43 C1307.64,173.59 1451.29,198.2 1571,239 C1588.59,244.99 1606.91,253.23 1624.16,261.54 " fill="none" id="EvaluateEnrollmentsUI-to-ArrayList" style="stroke:#181818;stroke-width:1.0;"/><polygon fill="#181818" points="1628.99,263.88,1622.642,256.3498,1624.4925,261.6955,1619.1468,263.5459,1628.99,263.88" style="stroke:#181818;stroke-width:1.0;"/></g><!--link EvaluateEnrollmentsUI to ArrayList--><g id="link_EvaluateEnrollmentsUI_ArrayList"><path codeLine="109" d="M1215.72,156.96 C1314.86,169.01 1474.8,194.29 1606,239 C1623.59,244.99 1641.91,253.23 1657.86,261.54 " fill="none" id="EvaluateEnrollmentsUI-to-ArrayList-1" style="stroke:#181818;stroke-width:1.0;"/><polygon fill="#181818" points="1662.29,263.88,1656.2052,256.1357,1657.8704,261.5419,1652.4642,263.2071,1662.29,263.88" style="stroke:#181818;stroke-width:1.0;"/></g><!--link EvaluateEnrollmentsUI to List--><g id="link_EvaluateEnrollmentsUI_List"><path codeLine="92" d="M1215.59,152.77 C1375.51,161.93 1695.03,185.99 1794,239 C1805.87,245.36 1816.19,255.82 1825.41,265.99 " fill="none" id="EvaluateEnrollmentsUI-to-List" style="stroke:#181818;stroke-width:1.0;"/><polygon fill="#181818" points="1828.76,269.71,1825.7304,260.3387,1825.4223,265.9872,1819.7738,265.6791,1828.76,269.71" style="stroke:#181818;stroke-width:1.0;"/></g><!--link List to EvaluateEnrollmentsUI--><g id="link_List_EvaluateEnrollmentsUI"><path codeLine="111" d="M1856.58,263.87 C1849.76,254.39 1840.05,244.92 1829,239 C1726.89,184.31 1390.01,160.44 1221.03,151.94 " fill="none" id="List-to-EvaluateEnrollmentsUI" style="stroke:#181818;stroke-width:1.0;"/><polygon fill="#181818" points="1215.59,151.67,1224.3727,156.127,1220.5834,151.9268,1224.7836,148.1375,1215.59,151.67" style="stroke:#181818;stroke-width:1.0;"/></g><!--link EvaluateEnrollmentsUI to CourseManagementController--><g id="link_EvaluateEnrollmentsUI_CourseManagementController"><path codeLine="93" d="M1215.71,150.67 C1364.09,156.74 1663.1,176.35 1908,239 C1930.36,244.72 1953.9,253.26 1975.08,261.95 " fill="none" id="EvaluateEnrollmentsUI-to-CourseManagementController" style="stroke:#181818;stroke-width:1.0;"/><polygon fill="#181818" points="1979.84,263.93,1973.0598,256.7866,1975.2217,262.014,1969.9942,264.1759,1979.84,263.93" style="stroke:#181818;stroke-width:1.0;"/></g><!--link EvaluateEnrollmentsUI to DomainRepository--><g id="link_EvaluateEnrollmentsUI_DomainRepository"><path codeLine="94" d="M1030.5,150.27 C795.15,157.1 188.53,180.72 121,239 C72.83,280.57 65.36,358.58 70.69,407.92 " fill="none" id="EvaluateEnrollmentsUI-to-DomainRepository" style="stroke:#181818;stroke-width:1.0;"/><polygon fill="#181818" points="71.29,412.9,74.2063,403.4928,70.7033,407.9345,66.2616,404.4315,71.29,412.9" style="stroke:#181818;stroke-width:1.0;"/></g><!--link DomainRepository to EvaluateEnrollmentsUI--><g id="link_DomainRepository_EvaluateEnrollmentsUI"><path codeLine="98" d="M95.58,412.9 C99.89,363.99 106.18,282 156,239 C221.42,182.54 792.8,158.61 1025.39,150.96 " fill="none" id="DomainRepository-to-EvaluateEnrollmentsUI" style="stroke:#181818;stroke-width:1.0;"/><polygon fill="#181818" points="1030.49,150.79,1021.3579,147.1016,1025.493,150.9618,1021.6328,155.0969,1030.49,150.79" style="stroke:#181818;stroke-width:1.0;"/></g><!--link EvaluateEnrollmentsUI to Throwable--><g id="link_EvaluateEnrollmentsUI_Throwable"><path codeLine="95" d="M1215.61,149.72 C1437.52,154.73 1993.02,173.46 2167,239 C2180.5,244.09 2193.71,252.3 2205.91,260.89 " fill="none" id="EvaluateEnrollmentsUI-to-Throwable" style="stroke:#181818;stroke-width:1.0;"/><polygon fill="#181818" points="2210.02,263.81,2205.0101,255.3306,2205.9475,260.9092,2200.3688,261.8466,2210.02,263.81" style="stroke:#181818;stroke-width:1.0;"/></g><!--link EvaluateEnrollmentsUI to Throwable--><g id="link_EvaluateEnrollmentsUI_Throwable"><path codeLine="110" d="M1215.6,149.35 C1443.26,153.79 2023.48,171.74 2202,239 C2215.27,244 2228.25,252.01 2238.93,260.44 " fill="none" id="EvaluateEnrollmentsUI-to-Throwable-1" style="stroke:#181818;stroke-width:1.0;"/><polygon fill="#181818" points="2243.05,263.81,2238.6226,255.0124,2239.1821,260.6415,2233.553,261.201,2243.05,263.81" style="stroke:#181818;stroke-width:1.0;"/></g><!--link EnrollmentConsulterService to DomainRepository--><g id="link_EnrollmentConsulterService_DomainRepository"><path codeLine="96" d="M230.81,328.09 C203.66,351.42 166.16,383.64 136.12,409.44 " fill="none" id="EnrollmentConsulterService-to-DomainRepository" style="stroke:#181818;stroke-width:1.0;"/><polygon fill="#181818" points="132.12,412.88,141.5565,410.0599,135.9163,409.626,136.3501,403.9859,132.12,412.88" style="stroke:#181818;stroke-width:1.0;"/></g><!--link EnrollmentConsulterService to EnrollmentRepository--><g id="link_EnrollmentConsulterService_EnrollmentRepository"><path codeLine="107" d="M261.16,328.09 C262.03,353.63 267.22,389.81 273.74,416.58 " fill="none" id="EnrollmentConsulterService-to-EnrollmentRepository" style="stroke:#181818;stroke-width:1.0;"/><polygon fill="#181818" points="274.98,421.46,276.6441,411.7527,273.7505,416.6135,268.8897,413.7199,274.98,421.46" style="stroke:#181818;stroke-width:1.0;"/></g><!--link EnrollmentRepository to EnrollmentConsulterService--><g id="link_EnrollmentRepository_EnrollmentConsulterService"><path codeLine="108" d="M296.45,421.46 C295.76,395.94 290.59,359.76 283.91,332.98 " fill="none" id="EnrollmentRepository-to-EnrollmentConsulterService" style="stroke:#181818;stroke-width:1.0;"/><polygon fill="#181818" points="282.65,328.09,281.0128,337.8018,283.8929,332.9331,288.7617,335.8132,282.65,328.09" style="stroke:#181818;stroke-width:1.0;"/></g><!--link CourseManagementController to CourseManagementService--><g id="link_CourseManagementController_CourseManagementService"><path codeLine="112" d="M2046,328.09 C2046,353.52 2046,389.51 2046,416.24 " fill="none" id="CourseManagementController-to-CourseManagementService" style="stroke:#181818;stroke-width:1.0;"/><polygon fill="#181818" points="2046,421.46,2050,412.46,2046,416.46,2042,412.46,2046,421.46" style="stroke:#181818;stroke-width:1.0;"/></g><!--link CourseManagementService to CourseRepository--><g id="link_CourseManagementService_CourseRepository"><path codeLine="113" d="M2034.93,485.76 C2032.86,504.72 2032.7,529.01 2034.45,548.8 " fill="none" id="CourseManagementService-to-CourseRepository" style="stroke:#181818;stroke-width:1.0;"/><polygon fill="#181818" points="2034.96,554,2038.0659,544.6537,2034.4738,549.0237,2030.1038,545.4316,2034.96,554" style="stroke:#181818;stroke-width:1.0;"/></g><!--link CourseRepository to CourseManagementService--><g id="link_CourseRepository_CourseManagementService"><path codeLine="114" d="M2057.69,554 C2059.9,535.08 2060.09,510.8 2058.26,490.96 " fill="none" id="CourseRepository-to-CourseManagementService" style="stroke:#181818;stroke-width:1.0;"/><polygon fill="#181818" points="2057.72,485.76,2054.6673,495.1238,2058.2345,490.7335,2062.6249,494.3006,2057.72,485.76" style="stroke:#181818;stroke-width:1.0;"/></g><!--SRC=[dPJVJkGW5CRl-nIzr4oCRx39PDQB9cesZli0PyfnXeH2vS-unlZkIu6XhGLgl2lbzntWyF6r39IgjwqMigfQDxWx0pEWyOvBmLY7NAk_JVrHrVM6YFr9l5rTLvyHZj1ES6MOHhb7UQOjUWMZIayAJQM_HGUKFs4l5BNBltl12-LaovW5xK316QUIFv9olTSIeVDqF_nWtDDky9BUdSUFQDNsQ9wteuR4pxqsn89nl1D6AfnNCs5PV3N0PeS9whZC0xR0nL52VwBje-aEAAUuBnxfdI0ud-PAi31lJqiQhl4uBz7OLiFX0j5XPBku8Em_Jvn0FUA_S3xklnAD-deVuAuqD2toModX_TxUhODkR-kcwnaEUj1Ky9gW1ihKA8Zi1WXPTk81E1mns4WFUy6mRUXxv6IydAnmPhiLrUAGEVpv9CNRs6LtiKhP5JtatarzS_Ch_MYgz5DoVFRT54GJ-t-hT14ofHgX5GN2Dx88E0yNY8k3rv0Xc_98j6A1MPdEUx0W-XfV1JIwg2h4PRfccK-xRX6iUNGQg0KRZp5QWaofnYKWyqJ8n1BWKp5Fn4nSGLPUxKhJ4rbP9GFqnm_zEvuUJUMoTQsloOHDcV-okro-Zfh9yHUnMgZy7m00]--></g></svg>