<?xml version="1.0" encoding="us-ascii" standalone="no"?><svg xmlns="http://www.w3.org/2000/svg" xmlns:xlink="http://www.w3.org/1999/xlink" contentStyleType="text/css" height="1749px" preserveAspectRatio="none" style="width:2238px;height:1749px;background:#FFFFFF;" version="1.1" viewBox="0 0 2238 1749" width="2238px" zoomAndPan="magnify"><defs/><g><rect fill="#FFFFFF" height="1628.668" style="stroke:#181818;stroke-width:1.0;" width="10" x="144.5" y="67.7988"/><rect fill="#FFFFFF" height="57.3105" style="stroke:#181818;stroke-width:1.0;" width="10" x="340" y="97.1094"/><rect fill="#FFFFFF" height="57.3105" style="stroke:#181818;stroke-width:1.0;" width="10" x="340" y="963.3203"/><rect fill="#FFFFFF" height="14" style="stroke:#181818;stroke-width:1.0;" width="10" x="522" y="126.4199"/><rect fill="#FFFFFF" height="14" style="stroke:#181818;stroke-width:1.0;" width="10" x="522" y="1365.293"/><rect fill="#FFFFFF" height="14" style="stroke:#181818;stroke-width:1.0;" width="10" x="649" y="183.7305"/><rect fill="#FFFFFF" height="14" style="stroke:#181818;stroke-width:1.0;" width="10" x="649" y="227.041"/><rect fill="#FFFFFF" height="14" style="stroke:#181818;stroke-width:1.0;" width="10" x="649" y="616.8359"/><rect fill="#FFFFFF" height="14" style="stroke:#181818;stroke-width:1.0;" width="10" x="649" y="833.3887"/><rect fill="#FFFFFF" height="14" style="stroke:#181818;stroke-width:1.0;" width="10" x="649" y="1581.8457"/><rect fill="#FFFFFF" height="14" style="stroke:#181818;stroke-width:1.0;" width="10" x="649" y="1668.4668"/><rect fill="#FFFFFF" height="14" style="stroke:#181818;stroke-width:1.0;" width="10" x="750.5" y="270.3516"/><rect fill="#FFFFFF" height="14" style="stroke:#181818;stroke-width:1.0;" width="10" x="750.5" y="356.9727"/><rect fill="#FFFFFF" height="14" style="stroke:#181818;stroke-width:1.0;" width="10" x="750.5" y="400.2832"/><rect fill="#FFFFFF" height="14" style="stroke:#181818;stroke-width:1.0;" width="10" x="750.5" y="486.9043"/><rect fill="#FFFFFF" height="14" style="stroke:#181818;stroke-width:1.0;" width="10" x="750.5" y="573.5254"/><rect fill="#FFFFFF" height="14" style="stroke:#181818;stroke-width:1.0;" width="10" x="750.5" y="876.6992"/><rect fill="#FFFFFF" height="14" style="stroke:#181818;stroke-width:1.0;" width="10" x="750.5" y="920.0098"/><rect fill="#FFFFFF" height="14" style="stroke:#181818;stroke-width:1.0;" width="10" x="750.5" y="1105.4297"/><rect fill="#FFFFFF" height="14" style="stroke:#181818;stroke-width:1.0;" width="10" x="750.5" y="1192.0508"/><rect fill="#FFFFFF" height="14" style="stroke:#181818;stroke-width:1.0;" width="10" x="750.5" y="1408.6035"/><rect fill="#FFFFFF" height="14" style="stroke:#181818;stroke-width:1.0;" width="10" x="750.5" y="1495.2246"/><rect fill="#FFFFFF" height="14" style="stroke:#181818;stroke-width:1.0;" width="10" x="831.5" y="313.6621"/><rect fill="#FFFFFF" height="14" style="stroke:#181818;stroke-width:1.0;" width="10" x="901.5" y="443.5938"/><rect fill="#FFFFFF" height="14" style="stroke:#181818;stroke-width:1.0;" width="10" x="901.5" y="1451.9141"/><rect fill="#FFFFFF" height="14" style="stroke:#181818;stroke-width:1.0;" width="10" x="976.5" y="530.2148"/><rect fill="#FFFFFF" height="14" style="stroke:#181818;stroke-width:1.0;" width="10" x="976.5" y="1538.5352"/><rect fill="#FFFFFF" height="14" style="stroke:#181818;stroke-width:1.0;" width="10" x="1053" y="660.1465"/><rect fill="#FFFFFF" height="14" style="stroke:#181818;stroke-width:1.0;" width="10" x="1131" y="703.457"/><rect fill="#FFFFFF" height="14" style="stroke:#181818;stroke-width:1.0;" width="10" x="1206.5" y="746.7676"/><rect fill="#FFFFFF" height="14" style="stroke:#181818;stroke-width:1.0;" width="10" x="1206.5" y="790.0781"/><rect fill="#FFFFFF" height="14" style="stroke:#181818;stroke-width:1.0;" width="10" x="1330" y="992.6309"/><rect fill="#FFFFFF" height="16.1777" style="stroke:#181818;stroke-width:1.0;" width="10" x="1458" y="1059.9414"/><rect fill="#FFFFFF" height="14" style="stroke:#181818;stroke-width:1.0;" width="10" x="1523.5" y="1148.7402"/><rect fill="#FFFFFF" height="100.6211" style="stroke:#181818;stroke-width:1.0;" width="10" x="1663" y="1235.3613"/><rect fill="#FFFFFF" height="57.3105" style="stroke:#181818;stroke-width:1.0;" width="10" x="1884" y="1264.6719"/><rect fill="#FFFFFF" height="14" style="stroke:#181818;stroke-width:1.0;" width="10" x="2062" y="1293.9824"/><rect fill="#FFFFFF" height="14" style="stroke:#181818;stroke-width:1.0;" width="10" x="2183.5" y="1625.1563"/><line style="stroke:#181818;stroke-width:0.5;stroke-dasharray:5.0,5.0;" x1="30" x2="30" y1="36.4883" y2="1714.4668"/><line style="stroke:#181818;stroke-width:0.5;stroke-dasharray:5.0,5.0;" x1="149" x2="149" y1="36.4883" y2="1714.4668"/><line style="stroke:#181818;stroke-width:0.5;stroke-dasharray:5.0,5.0;" x1="345" x2="345" y1="36.4883" y2="1714.4668"/><line style="stroke:#181818;stroke-width:0.5;stroke-dasharray:5.0,5.0;" x1="527" x2="527" y1="36.4883" y2="1714.4668"/><line style="stroke:#181818;stroke-width:0.5;stroke-dasharray:5.0,5.0;" x1="654" x2="654" y1="36.4883" y2="1714.4668"/><line style="stroke:#181818;stroke-width:0.5;stroke-dasharray:5.0,5.0;" x1="755" x2="755" y1="36.4883" y2="1714.4668"/><line style="stroke:#181818;stroke-width:0.5;stroke-dasharray:5.0,5.0;" x1="836" x2="836" y1="36.4883" y2="1714.4668"/><line style="stroke:#181818;stroke-width:0.5;stroke-dasharray:5.0,5.0;" x1="906" x2="906" y1="36.4883" y2="1714.4668"/><line style="stroke:#181818;stroke-width:0.5;stroke-dasharray:5.0,5.0;" x1="981" x2="981" y1="36.4883" y2="1714.4668"/><line style="stroke:#181818;stroke-width:0.5;stroke-dasharray:5.0,5.0;" x1="1058" x2="1058" y1="36.4883" y2="1714.4668"/><line style="stroke:#181818;stroke-width:0.5;stroke-dasharray:5.0,5.0;" x1="1136" x2="1136" y1="36.4883" y2="1714.4668"/><line style="stroke:#181818;stroke-width:0.5;stroke-dasharray:5.0,5.0;" x1="1211" x2="1211" y1="36.4883" y2="1714.4668"/><line style="stroke:#181818;stroke-width:0.5;stroke-dasharray:5.0,5.0;" x1="1335" x2="1335" y1="36.4883" y2="1714.4668"/><line style="stroke:#181818;stroke-width:0.5;stroke-dasharray:5.0,5.0;" x1="1463" x2="1463" y1="1059.375" y2="1714.4668"/><line style="stroke:#181818;stroke-width:0.5;stroke-dasharray:5.0,5.0;" x1="1528" x2="1528" y1="36.4883" y2="1714.4668"/><line style="stroke:#181818;stroke-width:0.5;stroke-dasharray:5.0,5.0;" x1="1668" x2="1668" y1="36.4883" y2="1714.4668"/><line style="stroke:#181818;stroke-width:0.5;stroke-dasharray:5.0,5.0;" x1="1889" x2="1889" y1="36.4883" y2="1714.4668"/><line style="stroke:#181818;stroke-width:0.5;stroke-dasharray:5.0,5.0;" x1="2067" x2="2067" y1="36.4883" y2="1714.4668"/><line style="stroke:#181818;stroke-width:0.5;stroke-dasharray:5.0,5.0;" x1="2188" x2="2188" y1="36.4883" y2="1714.4668"/><rect fill="#E2E2F0" height="30.4883" rx="2.5" ry="2.5" style="stroke:#181818;stroke-width:0.5;" width="51" x="5" y="5"/><text fill="#000000" font-family="sans-serif" font-size="14" lengthAdjust="spacing" textLength="37" x="12" y="25.5352">Actor</text><rect fill="#E2E2F0" height="30.4883" rx="2.5" ry="2.5" style="stroke:#181818;stroke-width:0.5;" width="51" x="5" y="1713.4668"/><text fill="#000000" font-family="sans-serif" font-size="14" lengthAdjust="spacing" textLength="37" x="12" y="1734.002">Actor</text><rect fill="#E2E2F0" height="30.4883" rx="2.5" ry="2.5" style="stroke:#181818;stroke-width:0.5;" width="167" x="66" y="5"/><text fill="#000000" font-family="sans-serif" font-size="14" lengthAdjust="spacing" textLength="153" x="73" y="25.5352">EvaluateEnrollmentsUI</text><rect fill="#E2E2F0" height="30.4883" rx="2.5" ry="2.5" style="stroke:#181818;stroke-width:0.5;" width="167" x="66" y="1713.4668"/><text fill="#000000" font-family="sans-serif" font-size="14" lengthAdjust="spacing" textLength="153" x="73" y="1734.002">EvaluateEnrollmentsUI</text><rect fill="#E2E2F0" height="30.4883" rx="2.5" ry="2.5" style="stroke:#181818;stroke-width:0.5;" width="204" x="243" y="5"/><text fill="#000000" font-family="sans-serif" font-size="14" lengthAdjust="spacing" textLength="190" x="250" y="25.5352">EnrollmentConsulterService</text><rect fill="#E2E2F0" height="30.4883" rx="2.5" ry="2.5" style="stroke:#181818;stroke-width:0.5;" width="204" x="243" y="1713.4668"/><text fill="#000000" font-family="sans-serif" font-size="14" lengthAdjust="spacing" textLength="190" x="250" y="1734.002">EnrollmentConsulterService</text><rect fill="#E2E2F0" height="30.4883" rx="2.5" ry="2.5" style="stroke:#181818;stroke-width:0.5;" width="140" x="457" y="5"/><text fill="#000000" font-family="sans-serif" font-size="14" lengthAdjust="spacing" textLength="126" x="464" y="25.5352">DomainRepository</text><rect fill="#E2E2F0" height="30.4883" rx="2.5" ry="2.5" style="stroke:#181818;stroke-width:0.5;" width="140" x="457" y="1713.4668"/><text fill="#000000" font-family="sans-serif" font-size="14" lengthAdjust="spacing" textLength="126" x="464" y="1734.002">DomainRepository</text><rect fill="#E2E2F0" height="30.4883" rx="2.5" ry="2.5" style="stroke:#181818;stroke-width:0.5;" width="94" x="607" y="5"/><text fill="#000000" font-family="sans-serif" font-size="14" lengthAdjust="spacing" textLength="80" x="614" y="25.5352">PrintStream</text><rect fill="#E2E2F0" height="30.4883" rx="2.5" ry="2.5" style="stroke:#181818;stroke-width:0.5;" width="94" x="607" y="1713.4668"/><text fill="#000000" font-family="sans-serif" font-size="14" lengthAdjust="spacing" textLength="80" x="614" y="1734.002">PrintStream</text><rect fill="#E2E2F0" height="30.4883" rx="2.5" ry="2.5" style="stroke:#181818;stroke-width:0.5;" width="89" x="711" y="5"/><text fill="#000000" font-family="sans-serif" font-size="14" lengthAdjust="spacing" textLength="75" x="718" y="25.5352">Enrollment</text><rect fill="#E2E2F0" height="30.4883" rx="2.5" ry="2.5" style="stroke:#181818;stroke-width:0.5;" width="89" x="711" y="1713.4668"/><text fill="#000000" font-family="sans-serif" font-size="14" lengthAdjust="spacing" textLength="75" x="718" y="1734.002">Enrollment</text><rect fill="#E2E2F0" height="30.4883" rx="2.5" ry="2.5" style="stroke:#181818;stroke-width:0.5;" width="53" x="810" y="5"/><text fill="#000000" font-family="sans-serif" font-size="14" lengthAdjust="spacing" textLength="39" x="817" y="25.5352">Enum</text><rect fill="#E2E2F0" height="30.4883" rx="2.5" ry="2.5" style="stroke:#181818;stroke-width:0.5;" width="53" x="810" y="1713.4668"/><text fill="#000000" font-family="sans-serif" font-size="14" lengthAdjust="spacing" textLength="39" x="817" y="1734.002">Enum</text><rect fill="#E2E2F0" height="30.4883" rx="2.5" ry="2.5" style="stroke:#181818;stroke-width:0.5;" width="67" x="873" y="5"/><text fill="#000000" font-family="sans-serif" font-size="14" lengthAdjust="spacing" textLength="53" x="880" y="25.5352">Student</text><rect fill="#E2E2F0" height="30.4883" rx="2.5" ry="2.5" style="stroke:#181818;stroke-width:0.5;" width="67" x="873" y="1713.4668"/><text fill="#000000" font-family="sans-serif" font-size="14" lengthAdjust="spacing" textLength="53" x="880" y="1734.002">Student</text><rect fill="#E2E2F0" height="30.4883" rx="2.5" ry="2.5" style="stroke:#181818;stroke-width:0.5;" width="63" x="950" y="5"/><text fill="#000000" font-family="sans-serif" font-size="14" lengthAdjust="spacing" textLength="49" x="957" y="25.5352">Course</text><rect fill="#E2E2F0" height="30.4883" rx="2.5" ry="2.5" style="stroke:#181818;stroke-width:0.5;" width="63" x="950" y="1713.4668"/><text fill="#000000" font-family="sans-serif" font-size="14" lengthAdjust="spacing" textLength="49" x="957" y="1734.002">Course</text><rect fill="#E2E2F0" height="30.4883" rx="2.5" ry="2.5" style="stroke:#181818;stroke-width:0.5;" width="70" x="1023" y="5"/><text fill="#000000" font-family="sans-serif" font-size="14" lengthAdjust="spacing" textLength="56" x="1030" y="25.5352">Console</text><rect fill="#E2E2F0" height="30.4883" rx="2.5" ry="2.5" style="stroke:#181818;stroke-width:0.5;" width="70" x="1023" y="1713.4668"/><text fill="#000000" font-family="sans-serif" font-size="14" lengthAdjust="spacing" textLength="56" x="1030" y="1734.002">Console</text><rect fill="#E2E2F0" height="30.4883" rx="2.5" ry="2.5" style="stroke:#181818;stroke-width:0.5;" width="66" x="1103" y="5"/><text fill="#000000" font-family="sans-serif" font-size="14" lengthAdjust="spacing" textLength="52" x="1110" y="25.5352">Iterable</text><rect fill="#E2E2F0" height="30.4883" rx="2.5" ry="2.5" style="stroke:#181818;stroke-width:0.5;" width="66" x="1103" y="1713.4668"/><text fill="#000000" font-family="sans-serif" font-size="14" lengthAdjust="spacing" textLength="52" x="1110" y="1734.002">Iterable</text><rect fill="#E2E2F0" height="30.4883" rx="2.5" ry="2.5" style="stroke:#181818;stroke-width:0.5;" width="65" x="1179" y="5"/><text fill="#000000" font-family="sans-serif" font-size="14" lengthAdjust="spacing" textLength="51" x="1186" y="25.5352">Iterator</text><rect fill="#E2E2F0" height="30.4883" rx="2.5" ry="2.5" style="stroke:#181818;stroke-width:0.5;" width="65" x="1179" y="1713.4668"/><text fill="#000000" font-family="sans-serif" font-size="14" lengthAdjust="spacing" textLength="51" x="1186" y="1734.002">Iterator</text><rect fill="#E2E2F0" height="30.4883" rx="2.5" ry="2.5" style="stroke:#181818;stroke-width:0.5;" width="162" x="1254" y="5"/><text fill="#000000" font-family="sans-serif" font-size="14" lengthAdjust="spacing" textLength="148" x="1261" y="25.5352">EnrollmentRepository</text><rect fill="#E2E2F0" height="30.4883" rx="2.5" ry="2.5" style="stroke:#181818;stroke-width:0.5;" width="162" x="1254" y="1713.4668"/><text fill="#000000" font-family="sans-serif" font-size="14" lengthAdjust="spacing" textLength="148" x="1261" y="1734.002">EnrollmentRepository</text><rect fill="#E2E2F0" height="30.4883" rx="2.5" ry="2.5" style="stroke:#181818;stroke-width:0.5;" width="74" x="1426" y="1713.4668"/><text fill="#000000" font-family="sans-serif" font-size="14" lengthAdjust="spacing" textLength="60" x="1433" y="1734.002">ArrayList</text><rect fill="#E2E2F0" height="30.4883" rx="2.5" ry="2.5" style="stroke:#181818;stroke-width:0.5;" width="37" x="1510" y="5"/><text fill="#000000" font-family="sans-serif" font-size="14" lengthAdjust="spacing" textLength="23" x="1517" y="25.5352">List</text><rect fill="#E2E2F0" height="30.4883" rx="2.5" ry="2.5" style="stroke:#181818;stroke-width:0.5;" width="37" x="1510" y="1713.4668"/><text fill="#000000" font-family="sans-serif" font-size="14" lengthAdjust="spacing" textLength="23" x="1517" y="1734.002">List</text><rect fill="#E2E2F0" height="30.4883" rx="2.5" ry="2.5" style="stroke:#181818;stroke-width:0.5;" width="222" x="1557" y="5"/><text fill="#000000" font-family="sans-serif" font-size="14" lengthAdjust="spacing" textLength="208" x="1564" y="25.5352">CourseManagementController</text><rect fill="#E2E2F0" height="30.4883" rx="2.5" ry="2.5" style="stroke:#181818;stroke-width:0.5;" width="222" x="1557" y="1713.4668"/><text fill="#000000" font-family="sans-serif" font-size="14" lengthAdjust="spacing" textLength="208" x="1564" y="1734.002">CourseManagementController</text><rect fill="#E2E2F0" height="30.4883" rx="2.5" ry="2.5" style="stroke:#181818;stroke-width:0.5;" width="200" x="1789" y="5"/><text fill="#000000" font-family="sans-serif" font-size="14" lengthAdjust="spacing" textLength="186" x="1796" y="25.5352">CourseManagementService</text><rect fill="#E2E2F0" height="30.4883" rx="2.5" ry="2.5" style="stroke:#181818;stroke-width:0.5;" width="200" x="1789" y="1713.4668"/><text fill="#000000" font-family="sans-serif" font-size="14" lengthAdjust="spacing" textLength="186" x="1796" y="1734.002">CourseManagementService</text><rect fill="#E2E2F0" height="30.4883" rx="2.5" ry="2.5" style="stroke:#181818;stroke-width:0.5;" width="136" x="1999" y="5"/><text fill="#000000" font-family="sans-serif" font-size="14" lengthAdjust="spacing" textLength="122" x="2006" y="25.5352">CourseRepository</text><rect fill="#E2E2F0" height="30.4883" rx="2.5" ry="2.5" style="stroke:#181818;stroke-width:0.5;" width="136" x="1999" y="1713.4668"/><text fill="#000000" font-family="sans-serif" font-size="14" lengthAdjust="spacing" textLength="122" x="2006" y="1734.002">CourseRepository</text><rect fill="#E2E2F0" height="30.4883" rx="2.5" ry="2.5" style="stroke:#181818;stroke-width:0.5;" width="87" x="2145" y="5"/><text fill="#000000" font-family="sans-serif" font-size="14" lengthAdjust="spacing" textLength="73" x="2152" y="25.5352">Throwable</text><rect fill="#E2E2F0" height="30.4883" rx="2.5" ry="2.5" style="stroke:#181818;stroke-width:0.5;" width="87" x="2145" y="1713.4668"/><text fill="#000000" font-family="sans-serif" font-size="14" lengthAdjust="spacing" textLength="73" x="2152" y="1734.002">Throwable</text><rect fill="#FFFFFF" height="1628.668" style="stroke:#181818;stroke-width:1.0;" width="10" x="144.5" y="67.7988"/><rect fill="#FFFFFF" height="57.3105" style="stroke:#181818;stroke-width:1.0;" width="10" x="340" y="97.1094"/><rect fill="#FFFFFF" height="57.3105" style="stroke:#181818;stroke-width:1.0;" width="10" x="340" y="963.3203"/><rect fill="#FFFFFF" height="14" style="stroke:#181818;stroke-width:1.0;" width="10" x="522" y="126.4199"/><rect fill="#FFFFFF" height="14" style="stroke:#181818;stroke-width:1.0;" width="10" x="522" y="1365.293"/><rect fill="#FFFFFF" height="14" style="stroke:#181818;stroke-width:1.0;" width="10" x="649" y="183.7305"/><rect fill="#FFFFFF" height="14" style="stroke:#181818;stroke-width:1.0;" width="10" x="649" y="227.041"/><rect fill="#FFFFFF" height="14" style="stroke:#181818;stroke-width:1.0;" width="10" x="649" y="616.8359"/><rect fill="#FFFFFF" height="14" style="stroke:#181818;stroke-width:1.0;" width="10" x="649" y="833.3887"/><rect fill="#FFFFFF" height="14" style="stroke:#181818;stroke-width:1.0;" width="10" x="649" y="1581.8457"/><rect fill="#FFFFFF" height="14" style="stroke:#181818;stroke-width:1.0;" width="10" x="649" y="1668.4668"/><rect fill="#FFFFFF" height="14" style="stroke:#181818;stroke-width:1.0;" width="10" x="750.5" y="270.3516"/><rect fill="#FFFFFF" height="14" style="stroke:#181818;stroke-width:1.0;" width="10" x="750.5" y="356.9727"/><rect fill="#FFFFFF" height="14" style="stroke:#181818;stroke-width:1.0;" width="10" x="750.5" y="400.2832"/><rect fill="#FFFFFF" height="14" style="stroke:#181818;stroke-width:1.0;" width="10" x="750.5" y="486.9043"/><rect fill="#FFFFFF" height="14" style="stroke:#181818;stroke-width:1.0;" width="10" x="750.5" y="573.5254"/><rect fill="#FFFFFF" height="14" style="stroke:#181818;stroke-width:1.0;" width="10" x="750.5" y="876.6992"/><rect fill="#FFFFFF" height="14" style="stroke:#181818;stroke-width:1.0;" width="10" x="750.5" y="920.0098"/><rect fill="#FFFFFF" height="14" style="stroke:#181818;stroke-width:1.0;" width="10" x="750.5" y="1105.4297"/><rect fill="#FFFFFF" height="14" style="stroke:#181818;stroke-width:1.0;" width="10" x="750.5" y="1192.0508"/><rect fill="#FFFFFF" height="14" style="stroke:#181818;stroke-width:1.0;" width="10" x="750.5" y="1408.6035"/><rect fill="#FFFFFF" height="14" style="stroke:#181818;stroke-width:1.0;" width="10" x="750.5" y="1495.2246"/><rect fill="#FFFFFF" height="14" style="stroke:#181818;stroke-width:1.0;" width="10" x="831.5" y="313.6621"/><rect fill="#FFFFFF" height="14" style="stroke:#181818;stroke-width:1.0;" width="10" x="901.5" y="443.5938"/><rect fill="#FFFFFF" height="14" style="stroke:#181818;stroke-width:1.0;" width="10" x="901.5" y="1451.9141"/><rect fill="#FFFFFF" height="14" style="stroke:#181818;stroke-width:1.0;" width="10" x="976.5" y="530.2148"/><rect fill="#FFFFFF" height="14" style="stroke:#181818;stroke-width:1.0;" width="10" x="976.5" y="1538.5352"/><rect fill="#FFFFFF" height="14" style="stroke:#181818;stroke-width:1.0;" width="10" x="1053" y="660.1465"/><rect fill="#FFFFFF" height="14" style="stroke:#181818;stroke-width:1.0;" width="10" x="1131" y="703.457"/><rect fill="#FFFFFF" height="14" style="stroke:#181818;stroke-width:1.0;" width="10" x="1206.5" y="746.7676"/><rect fill="#FFFFFF" height="14" style="stroke:#181818;stroke-width:1.0;" width="10" x="1206.5" y="790.0781"/><rect fill="#FFFFFF" height="14" style="stroke:#181818;stroke-width:1.0;" width="10" x="1330" y="992.6309"/><rect fill="#FFFFFF" height="16.1777" style="stroke:#181818;stroke-width:1.0;" width="10" x="1458" y="1059.9414"/><rect fill="#FFFFFF" height="14" style="stroke:#181818;stroke-width:1.0;" width="10" x="1523.5" y="1148.7402"/><rect fill="#FFFFFF" height="100.6211" style="stroke:#181818;stroke-width:1.0;" width="10" x="1663" y="1235.3613"/><rect fill="#FFFFFF" height="57.3105" style="stroke:#181818;stroke-width:1.0;" width="10" x="1884" y="1264.6719"/><rect fill="#FFFFFF" height="14" style="stroke:#181818;stroke-width:1.0;" width="10" x="2062" y="1293.9824"/><rect fill="#FFFFFF" height="14" style="stroke:#181818;stroke-width:1.0;" width="10" x="2183.5" y="1625.1563"/><polygon fill="#181818" points="132.5,63.7988,142.5,67.7988,132.5,71.7988,136.5,67.7988" style="stroke:#181818;stroke-width:1.0;"/><line style="stroke:#181818;stroke-width:1.0;" x1="30.5" x2="138.5" y1="67.7988" y2="67.7988"/><text fill="#000000" font-family="sans-serif" font-size="13" lengthAdjust="spacing" textLength="49" x="37.5" y="63.0566">doShow</text><polygon fill="#181818" points="328,93.1094,338,97.1094,328,101.1094,332,97.1094" style="stroke:#181818;stroke-width:1.0;"/><line style="stroke:#181818;stroke-width:1.0;" x1="154.5" x2="334" y1="97.1094" y2="97.1094"/><text fill="#000000" font-family="sans-serif" font-size="13" lengthAdjust="spacing" textLength="95" x="161.5" y="92.3672">listEnrollments</text><polygon fill="#181818" points="510,122.4199,520,126.4199,510,130.4199,514,126.4199" style="stroke:#181818;stroke-width:1.0;"/><line style="stroke:#181818;stroke-width:1.0;" x1="350" x2="516" y1="126.4199" y2="126.4199"/><text fill="#000000" font-family="sans-serif" font-size="13" lengthAdjust="spacing" textLength="42" x="357" y="121.6777">findAll</text><polygon fill="#181818" points="361,136.4199,351,140.4199,361,144.4199,357,140.4199" style="stroke:#181818;stroke-width:1.0;"/><line style="stroke:#181818;stroke-width:1.0;stroke-dasharray:2.0,2.0;" x1="355" x2="526" y1="140.4199" y2="140.4199"/><polygon fill="#181818" points="165.5,150.4199,155.5,154.4199,165.5,158.4199,161.5,154.4199" style="stroke:#181818;stroke-width:1.0;"/><line style="stroke:#181818;stroke-width:1.0;stroke-dasharray:2.0,2.0;" x1="159.5" x2="344" y1="154.4199" y2="154.4199"/><polygon fill="#181818" points="637,179.7305,647,183.7305,637,187.7305,641,183.7305" style="stroke:#181818;stroke-width:1.0;"/><line style="stroke:#181818;stroke-width:1.0;" x1="154.5" x2="643" y1="183.7305" y2="183.7305"/><text fill="#000000" font-family="sans-serif" font-size="13" lengthAdjust="spacing" textLength="42" x="161.5" y="178.9883">println</text><polygon fill="#181818" points="165.5,193.7305,155.5,197.7305,165.5,201.7305,161.5,197.7305" style="stroke:#181818;stroke-width:1.0;"/><line style="stroke:#181818;stroke-width:1.0;stroke-dasharray:2.0,2.0;" x1="159.5" x2="653" y1="197.7305" y2="197.7305"/><polygon fill="#181818" points="637,223.041,647,227.041,637,231.041,641,227.041" style="stroke:#181818;stroke-width:1.0;"/><line style="stroke:#181818;stroke-width:1.0;" x1="154.5" x2="643" y1="227.041" y2="227.041"/><text fill="#000000" font-family="sans-serif" font-size="13" lengthAdjust="spacing" textLength="35" x="161.5" y="222.2988">printf</text><polygon fill="#181818" points="165.5,237.041,155.5,241.041,165.5,245.041,161.5,241.041" style="stroke:#181818;stroke-width:1.0;"/><line style="stroke:#181818;stroke-width:1.0;stroke-dasharray:2.0,2.0;" x1="159.5" x2="653" y1="241.041" y2="241.041"/><polygon fill="#181818" points="738.5,266.3516,748.5,270.3516,738.5,274.3516,742.5,270.3516" style="stroke:#181818;stroke-width:1.0;"/><line style="stroke:#181818;stroke-width:1.0;" x1="154.5" x2="744.5" y1="270.3516" y2="270.3516"/><text fill="#000000" font-family="sans-serif" font-size="13" lengthAdjust="spacing" textLength="51" x="161.5" y="265.6094">getState</text><polygon fill="#181818" points="165.5,280.3516,155.5,284.3516,165.5,288.3516,161.5,284.3516" style="stroke:#181818;stroke-width:1.0;"/><line style="stroke:#181818;stroke-width:1.0;stroke-dasharray:2.0,2.0;" x1="159.5" x2="754.5" y1="284.3516" y2="284.3516"/><polygon fill="#181818" points="819.5,309.6621,829.5,313.6621,819.5,317.6621,823.5,313.6621" style="stroke:#181818;stroke-width:1.0;"/><line style="stroke:#181818;stroke-width:1.0;" x1="154.5" x2="825.5" y1="313.6621" y2="313.6621"/><text fill="#000000" font-family="sans-serif" font-size="13" lengthAdjust="spacing" textLength="41" x="161.5" y="308.9199">equals</text><polygon fill="#181818" points="165.5,323.6621,155.5,327.6621,165.5,331.6621,161.5,327.6621" style="stroke:#181818;stroke-width:1.0;"/><line style="stroke:#181818;stroke-width:1.0;stroke-dasharray:2.0,2.0;" x1="159.5" x2="835.5" y1="327.6621" y2="327.6621"/><polygon fill="#181818" points="738.5,352.9727,748.5,356.9727,738.5,360.9727,742.5,356.9727" style="stroke:#181818;stroke-width:1.0;"/><line style="stroke:#181818;stroke-width:1.0;" x1="154.5" x2="744.5" y1="356.9727" y2="356.9727"/><text fill="#000000" font-family="sans-serif" font-size="13" lengthAdjust="spacing" textLength="32" x="161.5" y="352.2305">getId</text><polygon fill="#181818" points="165.5,366.9727,155.5,370.9727,165.5,374.9727,161.5,370.9727" style="stroke:#181818;stroke-width:1.0;"/><line style="stroke:#181818;stroke-width:1.0;stroke-dasharray:2.0,2.0;" x1="159.5" x2="754.5" y1="370.9727" y2="370.9727"/><polygon fill="#181818" points="738.5,396.2832,748.5,400.2832,738.5,404.2832,742.5,400.2832" style="stroke:#181818;stroke-width:1.0;"/><line style="stroke:#181818;stroke-width:1.0;" x1="154.5" x2="744.5" y1="400.2832" y2="400.2832"/><text fill="#000000" font-family="sans-serif" font-size="13" lengthAdjust="spacing" textLength="68" x="161.5" y="395.541">getStudent</text><polygon fill="#181818" points="165.5,410.2832,155.5,414.2832,165.5,418.2832,161.5,414.2832" style="stroke:#181818;stroke-width:1.0;"/><line style="stroke:#181818;stroke-width:1.0;stroke-dasharray:2.0,2.0;" x1="159.5" x2="754.5" y1="414.2832" y2="414.2832"/><polygon fill="#181818" points="889.5,439.5938,899.5,443.5938,889.5,447.5938,893.5,443.5938" style="stroke:#181818;stroke-width:1.0;"/><line style="stroke:#181818;stroke-width:1.0;" x1="154.5" x2="895.5" y1="443.5938" y2="443.5938"/><text fill="#000000" font-family="sans-serif" font-size="13" lengthAdjust="spacing" textLength="165" x="161.5" y="438.8516">getMecanographicNumber</text><polygon fill="#181818" points="165.5,453.5938,155.5,457.5938,165.5,461.5938,161.5,457.5938" style="stroke:#181818;stroke-width:1.0;"/><line style="stroke:#181818;stroke-width:1.0;stroke-dasharray:2.0,2.0;" x1="159.5" x2="905.5" y1="457.5938" y2="457.5938"/><polygon fill="#181818" points="738.5,482.9043,748.5,486.9043,738.5,490.9043,742.5,486.9043" style="stroke:#181818;stroke-width:1.0;"/><line style="stroke:#181818;stroke-width:1.0;" x1="154.5" x2="744.5" y1="486.9043" y2="486.9043"/><text fill="#000000" font-family="sans-serif" font-size="13" lengthAdjust="spacing" textLength="64" x="161.5" y="482.1621">getCourse</text><polygon fill="#181818" points="165.5,496.9043,155.5,500.9043,165.5,504.9043,161.5,500.9043" style="stroke:#181818;stroke-width:1.0;"/><line style="stroke:#181818;stroke-width:1.0;stroke-dasharray:2.0,2.0;" x1="159.5" x2="754.5" y1="500.9043" y2="500.9043"/><polygon fill="#181818" points="964.5,526.2148,974.5,530.2148,964.5,534.2148,968.5,530.2148" style="stroke:#181818;stroke-width:1.0;"/><line style="stroke:#181818;stroke-width:1.0;" x1="154.5" x2="970.5" y1="530.2148" y2="530.2148"/><text fill="#000000" font-family="sans-serif" font-size="13" lengthAdjust="spacing" textLength="52" x="161.5" y="525.4727">getCode</text><polygon fill="#181818" points="165.5,540.2148,155.5,544.2148,165.5,548.2148,161.5,544.2148" style="stroke:#181818;stroke-width:1.0;"/><line style="stroke:#181818;stroke-width:1.0;stroke-dasharray:2.0,2.0;" x1="159.5" x2="980.5" y1="544.2148" y2="544.2148"/><polygon fill="#181818" points="738.5,569.5254,748.5,573.5254,738.5,577.5254,742.5,573.5254" style="stroke:#181818;stroke-width:1.0;"/><line style="stroke:#181818;stroke-width:1.0;" x1="154.5" x2="744.5" y1="573.5254" y2="573.5254"/><text fill="#000000" font-family="sans-serif" font-size="13" lengthAdjust="spacing" textLength="51" x="161.5" y="568.7832">getState</text><polygon fill="#181818" points="165.5,583.5254,155.5,587.5254,165.5,591.5254,161.5,587.5254" style="stroke:#181818;stroke-width:1.0;"/><line style="stroke:#181818;stroke-width:1.0;stroke-dasharray:2.0,2.0;" x1="159.5" x2="754.5" y1="587.5254" y2="587.5254"/><polygon fill="#181818" points="637,612.8359,647,616.8359,637,620.8359,641,616.8359" style="stroke:#181818;stroke-width:1.0;"/><line style="stroke:#181818;stroke-width:1.0;" x1="154.5" x2="643" y1="616.8359" y2="616.8359"/><text fill="#000000" font-family="sans-serif" font-size="13" lengthAdjust="spacing" textLength="35" x="161.5" y="612.0938">printf</text><polygon fill="#181818" points="165.5,626.8359,155.5,630.8359,165.5,634.8359,161.5,630.8359" style="stroke:#181818;stroke-width:1.0;"/><line style="stroke:#181818;stroke-width:1.0;stroke-dasharray:2.0,2.0;" x1="159.5" x2="653" y1="630.8359" y2="630.8359"/><polygon fill="#181818" points="1041,656.1465,1051,660.1465,1041,664.1465,1045,660.1465" style="stroke:#181818;stroke-width:1.0;"/><line style="stroke:#181818;stroke-width:1.0;" x1="154.5" x2="1047" y1="660.1465" y2="660.1465"/><text fill="#000000" font-family="sans-serif" font-size="13" lengthAdjust="spacing" textLength="71" x="161.5" y="655.4043">readInteger</text><polygon fill="#181818" points="165.5,670.1465,155.5,674.1465,165.5,678.1465,161.5,674.1465" style="stroke:#181818;stroke-width:1.0;"/><line style="stroke:#181818;stroke-width:1.0;stroke-dasharray:2.0,2.0;" x1="159.5" x2="1057" y1="674.1465" y2="674.1465"/><polygon fill="#181818" points="1119,699.457,1129,703.457,1119,707.457,1123,703.457" style="stroke:#181818;stroke-width:1.0;"/><line style="stroke:#181818;stroke-width:1.0;" x1="154.5" x2="1125" y1="703.457" y2="703.457"/><text fill="#000000" font-family="sans-serif" font-size="13" lengthAdjust="spacing" textLength="46" x="161.5" y="698.7148">iterator</text><polygon fill="#181818" points="165.5,713.457,155.5,717.457,165.5,721.457,161.5,717.457" style="stroke:#181818;stroke-width:1.0;"/><line style="stroke:#181818;stroke-width:1.0;stroke-dasharray:2.0,2.0;" x1="159.5" x2="1135" y1="717.457" y2="717.457"/><polygon fill="#181818" points="1194.5,742.7676,1204.5,746.7676,1194.5,750.7676,1198.5,746.7676" style="stroke:#181818;stroke-width:1.0;"/><line style="stroke:#181818;stroke-width:1.0;" x1="154.5" x2="1200.5" y1="746.7676" y2="746.7676"/><text fill="#000000" font-family="sans-serif" font-size="13" lengthAdjust="spacing" textLength="52" x="161.5" y="742.0254">hasNext</text><polygon fill="#181818" points="165.5,756.7676,155.5,760.7676,165.5,764.7676,161.5,760.7676" style="stroke:#181818;stroke-width:1.0;"/><line style="stroke:#181818;stroke-width:1.0;stroke-dasharray:2.0,2.0;" x1="159.5" x2="1210.5" y1="760.7676" y2="760.7676"/><polygon fill="#181818" points="1194.5,786.0781,1204.5,790.0781,1194.5,794.0781,1198.5,790.0781" style="stroke:#181818;stroke-width:1.0;"/><line style="stroke:#181818;stroke-width:1.0;" x1="154.5" x2="1200.5" y1="790.0781" y2="790.0781"/><text fill="#000000" font-family="sans-serif" font-size="13" lengthAdjust="spacing" textLength="28" x="161.5" y="785.3359">next</text><polygon fill="#181818" points="165.5,800.0781,155.5,804.0781,165.5,808.0781,161.5,804.0781" style="stroke:#181818;stroke-width:1.0;"/><line style="stroke:#181818;stroke-width:1.0;stroke-dasharray:2.0,2.0;" x1="159.5" x2="1210.5" y1="804.0781" y2="804.0781"/><polygon fill="#181818" points="637,829.3887,647,833.3887,637,837.3887,641,833.3887" style="stroke:#181818;stroke-width:1.0;"/><line style="stroke:#181818;stroke-width:1.0;" x1="154.5" x2="643" y1="833.3887" y2="833.3887"/><text fill="#000000" font-family="sans-serif" font-size="13" lengthAdjust="spacing" textLength="42" x="161.5" y="828.6465">println</text><polygon fill="#181818" points="165.5,843.3887,155.5,847.3887,165.5,851.3887,161.5,847.3887" style="stroke:#181818;stroke-width:1.0;"/><line style="stroke:#181818;stroke-width:1.0;stroke-dasharray:2.0,2.0;" x1="159.5" x2="653" y1="847.3887" y2="847.3887"/><polygon fill="#181818" points="738.5,872.6992,748.5,876.6992,738.5,880.6992,742.5,876.6992" style="stroke:#181818;stroke-width:1.0;"/><line style="stroke:#181818;stroke-width:1.0;" x1="154.5" x2="744.5" y1="876.6992" y2="876.6992"/><text fill="#000000" font-family="sans-serif" font-size="13" lengthAdjust="spacing" textLength="68" x="161.5" y="871.957">getStudent</text><polygon fill="#181818" points="165.5,886.6992,155.5,890.6992,165.5,894.6992,161.5,890.6992" style="stroke:#181818;stroke-width:1.0;"/><line style="stroke:#181818;stroke-width:1.0;stroke-dasharray:2.0,2.0;" x1="159.5" x2="754.5" y1="890.6992" y2="890.6992"/><polygon fill="#181818" points="738.5,916.0098,748.5,920.0098,738.5,924.0098,742.5,920.0098" style="stroke:#181818;stroke-width:1.0;"/><line style="stroke:#181818;stroke-width:1.0;" x1="154.5" x2="744.5" y1="920.0098" y2="920.0098"/><text fill="#000000" font-family="sans-serif" font-size="13" lengthAdjust="spacing" textLength="64" x="161.5" y="915.2676">getCourse</text><polygon fill="#181818" points="165.5,930.0098,155.5,934.0098,165.5,938.0098,161.5,934.0098" style="stroke:#181818;stroke-width:1.0;"/><line style="stroke:#181818;stroke-width:1.0;stroke-dasharray:2.0,2.0;" x1="159.5" x2="754.5" y1="934.0098" y2="934.0098"/><polygon fill="#181818" points="328,959.3203,338,963.3203,328,967.3203,332,963.3203" style="stroke:#181818;stroke-width:1.0;"/><line style="stroke:#181818;stroke-width:1.0;" x1="154.5" x2="334" y1="963.3203" y2="963.3203"/><text fill="#000000" font-family="sans-serif" font-size="13" lengthAdjust="spacing" textLength="59" x="161.5" y="958.5781">alterState</text><polygon fill="#181818" points="1318,988.6309,1328,992.6309,1318,996.6309,1322,992.6309" style="stroke:#181818;stroke-width:1.0;"/><line style="stroke:#181818;stroke-width:1.0;" x1="350" x2="1324" y1="992.6309" y2="992.6309"/><text fill="#000000" font-family="sans-serif" font-size="13" lengthAdjust="spacing" textLength="59" x="357" y="987.8887">alterState</text><polygon fill="#181818" points="361,1002.6309,351,1006.6309,361,1010.6309,357,1006.6309" style="stroke:#181818;stroke-width:1.0;"/><line style="stroke:#181818;stroke-width:1.0;stroke-dasharray:2.0,2.0;" x1="355" x2="1334" y1="1006.6309" y2="1006.6309"/><polygon fill="#181818" points="165.5,1016.6309,155.5,1020.6309,165.5,1024.6309,161.5,1020.6309" style="stroke:#181818;stroke-width:1.0;"/><line style="stroke:#181818;stroke-width:1.0;stroke-dasharray:2.0,2.0;" x1="159.5" x2="344" y1="1020.6309" y2="1020.6309"/><polygon fill="#181818" points="1414,1045.9414,1424,1049.9414,1414,1053.9414,1418,1049.9414" style="stroke:#181818;stroke-width:1.0;"/><line style="stroke:#181818;stroke-width:1.0;" x1="154.5" x2="1420" y1="1049.9414" y2="1049.9414"/><text fill="#000000" font-family="sans-serif" font-size="13" lengthAdjust="spacing" textLength="25" x="161.5" y="1045.1992">new</text><rect fill="#E2E2F0" height="30.4883" rx="2.5" ry="2.5" style="stroke:#181818;stroke-width:0.5;" width="74" x="1426" y="1028.6309"/><text fill="#000000" font-family="sans-serif" font-size="14" lengthAdjust="spacing" textLength="60" x="1433" y="1049.166">ArrayList</text><polygon fill="#181818" points="165.5,1072.1191,155.5,1076.1191,165.5,1080.1191,161.5,1076.1191" style="stroke:#181818;stroke-width:1.0;"/><line style="stroke:#181818;stroke-width:1.0;stroke-dasharray:2.0,2.0;" x1="159.5" x2="1462" y1="1076.1191" y2="1076.1191"/><polygon fill="#181818" points="738.5,1101.4297,748.5,1105.4297,738.5,1109.4297,742.5,1105.4297" style="stroke:#181818;stroke-width:1.0;"/><line style="stroke:#181818;stroke-width:1.0;" x1="154.5" x2="744.5" y1="1105.4297" y2="1105.4297"/><text fill="#000000" font-family="sans-serif" font-size="13" lengthAdjust="spacing" textLength="68" x="161.5" y="1100.6875">getStudent</text><polygon fill="#181818" points="165.5,1115.4297,155.5,1119.4297,165.5,1123.4297,161.5,1119.4297" style="stroke:#181818;stroke-width:1.0;"/><line style="stroke:#181818;stroke-width:1.0;stroke-dasharray:2.0,2.0;" x1="159.5" x2="754.5" y1="1119.4297" y2="1119.4297"/><polygon fill="#181818" points="1511.5,1144.7402,1521.5,1148.7402,1511.5,1152.7402,1515.5,1148.7402" style="stroke:#181818;stroke-width:1.0;"/><line style="stroke:#181818;stroke-width:1.0;" x1="154.5" x2="1517.5" y1="1148.7402" y2="1148.7402"/><text fill="#000000" font-family="sans-serif" font-size="13" lengthAdjust="spacing" textLength="23" x="161.5" y="1143.998">add</text><polygon fill="#181818" points="165.5,1158.7402,155.5,1162.7402,165.5,1166.7402,161.5,1162.7402" style="stroke:#181818;stroke-width:1.0;"/><line style="stroke:#181818;stroke-width:1.0;stroke-dasharray:2.0,2.0;" x1="159.5" x2="1527.5" y1="1162.7402" y2="1162.7402"/><polygon fill="#181818" points="738.5,1188.0508,748.5,1192.0508,738.5,1196.0508,742.5,1192.0508" style="stroke:#181818;stroke-width:1.0;"/><line style="stroke:#181818;stroke-width:1.0;" x1="154.5" x2="744.5" y1="1192.0508" y2="1192.0508"/><text fill="#000000" font-family="sans-serif" font-size="13" lengthAdjust="spacing" textLength="64" x="161.5" y="1187.3086">getCourse</text><polygon fill="#181818" points="165.5,1202.0508,155.5,1206.0508,165.5,1210.0508,161.5,1206.0508" style="stroke:#181818;stroke-width:1.0;"/><line style="stroke:#181818;stroke-width:1.0;stroke-dasharray:2.0,2.0;" x1="159.5" x2="754.5" y1="1206.0508" y2="1206.0508"/><polygon fill="#181818" points="1651,1231.3613,1661,1235.3613,1651,1239.3613,1655,1235.3613" style="stroke:#181818;stroke-width:1.0;"/><line style="stroke:#181818;stroke-width:1.0;" x1="154.5" x2="1657" y1="1235.3613" y2="1235.3613"/><text fill="#000000" font-family="sans-serif" font-size="13" lengthAdjust="spacing" textLength="94" x="161.5" y="1230.6191">appendStudent</text><polygon fill="#181818" points="1872,1260.6719,1882,1264.6719,1872,1268.6719,1876,1264.6719" style="stroke:#181818;stroke-width:1.0;"/><line style="stroke:#181818;stroke-width:1.0;" x1="1673" x2="1878" y1="1264.6719" y2="1264.6719"/><text fill="#000000" font-family="sans-serif" font-size="13" lengthAdjust="spacing" textLength="94" x="1680" y="1259.9297">appendStudent</text><polygon fill="#181818" points="2050,1289.9824,2060,1293.9824,2050,1297.9824,2054,1293.9824" style="stroke:#181818;stroke-width:1.0;"/><line style="stroke:#181818;stroke-width:1.0;" x1="1894" x2="2056" y1="1293.9824" y2="1293.9824"/><text fill="#000000" font-family="sans-serif" font-size="13" lengthAdjust="spacing" textLength="94" x="1901" y="1289.2402">appendStudent</text><polygon fill="#181818" points="1905,1303.9824,1895,1307.9824,1905,1311.9824,1901,1307.9824" style="stroke:#181818;stroke-width:1.0;"/><line style="stroke:#181818;stroke-width:1.0;stroke-dasharray:2.0,2.0;" x1="1899" x2="2066" y1="1307.9824" y2="1307.9824"/><polygon fill="#181818" points="1684,1317.9824,1674,1321.9824,1684,1325.9824,1680,1321.9824" style="stroke:#181818;stroke-width:1.0;"/><line style="stroke:#181818;stroke-width:1.0;stroke-dasharray:2.0,2.0;" x1="1678" x2="1888" y1="1321.9824" y2="1321.9824"/><polygon fill="#181818" points="165.5,1331.9824,155.5,1335.9824,165.5,1339.9824,161.5,1335.9824" style="stroke:#181818;stroke-width:1.0;"/><line style="stroke:#181818;stroke-width:1.0;stroke-dasharray:2.0,2.0;" x1="159.5" x2="1667" y1="1335.9824" y2="1335.9824"/><polygon fill="#181818" points="510,1361.293,520,1365.293,510,1369.293,514,1365.293" style="stroke:#181818;stroke-width:1.0;"/><line style="stroke:#181818;stroke-width:1.0;" x1="154.5" x2="516" y1="1365.293" y2="1365.293"/><text fill="#000000" font-family="sans-serif" font-size="13" lengthAdjust="spacing" textLength="28" x="161.5" y="1360.5508">save</text><polygon fill="#181818" points="165.5,1375.293,155.5,1379.293,165.5,1383.293,161.5,1379.293" style="stroke:#181818;stroke-width:1.0;"/><line style="stroke:#181818;stroke-width:1.0;stroke-dasharray:2.0,2.0;" x1="159.5" x2="526" y1="1379.293" y2="1379.293"/><polygon fill="#181818" points="738.5,1404.6035,748.5,1408.6035,738.5,1412.6035,742.5,1408.6035" style="stroke:#181818;stroke-width:1.0;"/><line style="stroke:#181818;stroke-width:1.0;" x1="154.5" x2="744.5" y1="1408.6035" y2="1408.6035"/><text fill="#000000" font-family="sans-serif" font-size="13" lengthAdjust="spacing" textLength="68" x="161.5" y="1403.8613">getStudent</text><polygon fill="#181818" points="165.5,1418.6035,155.5,1422.6035,165.5,1426.6035,161.5,1422.6035" style="stroke:#181818;stroke-width:1.0;"/><line style="stroke:#181818;stroke-width:1.0;stroke-dasharray:2.0,2.0;" x1="159.5" x2="754.5" y1="1422.6035" y2="1422.6035"/><polygon fill="#181818" points="889.5,1447.9141,899.5,1451.9141,889.5,1455.9141,893.5,1451.9141" style="stroke:#181818;stroke-width:1.0;"/><line style="stroke:#181818;stroke-width:1.0;" x1="154.5" x2="895.5" y1="1451.9141" y2="1451.9141"/><text fill="#000000" font-family="sans-serif" font-size="13" lengthAdjust="spacing" textLength="165" x="161.5" y="1447.1719">getMecanographicNumber</text><polygon fill="#181818" points="165.5,1461.9141,155.5,1465.9141,165.5,1469.9141,161.5,1465.9141" style="stroke:#181818;stroke-width:1.0;"/><line style="stroke:#181818;stroke-width:1.0;stroke-dasharray:2.0,2.0;" x1="159.5" x2="905.5" y1="1465.9141" y2="1465.9141"/><polygon fill="#181818" points="738.5,1491.2246,748.5,1495.2246,738.5,1499.2246,742.5,1495.2246" style="stroke:#181818;stroke-width:1.0;"/><line style="stroke:#181818;stroke-width:1.0;" x1="154.5" x2="744.5" y1="1495.2246" y2="1495.2246"/><text fill="#000000" font-family="sans-serif" font-size="13" lengthAdjust="spacing" textLength="64" x="161.5" y="1490.4824">getCourse</text><polygon fill="#181818" points="165.5,1505.2246,155.5,1509.2246,165.5,1513.2246,161.5,1509.2246" style="stroke:#181818;stroke-width:1.0;"/><line style="stroke:#181818;stroke-width:1.0;stroke-dasharray:2.0,2.0;" x1="159.5" x2="754.5" y1="1509.2246" y2="1509.2246"/><polygon fill="#181818" points="964.5,1534.5352,974.5,1538.5352,964.5,1542.5352,968.5,1538.5352" style="stroke:#181818;stroke-width:1.0;"/><line style="stroke:#181818;stroke-width:1.0;" x1="154.5" x2="970.5" y1="1538.5352" y2="1538.5352"/><text fill="#000000" font-family="sans-serif" font-size="13" lengthAdjust="spacing" textLength="52" x="161.5" y="1533.793">getCode</text><polygon fill="#181818" points="165.5,1548.5352,155.5,1552.5352,165.5,1556.5352,161.5,1552.5352" style="stroke:#181818;stroke-width:1.0;"/><line style="stroke:#181818;stroke-width:1.0;stroke-dasharray:2.0,2.0;" x1="159.5" x2="980.5" y1="1552.5352" y2="1552.5352"/><polygon fill="#181818" points="637,1577.8457,647,1581.8457,637,1585.8457,641,1581.8457" style="stroke:#181818;stroke-width:1.0;"/><line style="stroke:#181818;stroke-width:1.0;" x1="154.5" x2="643" y1="1581.8457" y2="1581.8457"/><text fill="#000000" font-family="sans-serif" font-size="13" lengthAdjust="spacing" textLength="42" x="161.5" y="1577.1035">println</text><polygon fill="#181818" points="165.5,1591.8457,155.5,1595.8457,165.5,1599.8457,161.5,1595.8457" style="stroke:#181818;stroke-width:1.0;"/><line style="stroke:#181818;stroke-width:1.0;stroke-dasharray:2.0,2.0;" x1="159.5" x2="653" y1="1595.8457" y2="1595.8457"/><polygon fill="#181818" points="2171.5,1621.1563,2181.5,1625.1563,2171.5,1629.1563,2175.5,1625.1563" style="stroke:#181818;stroke-width:1.0;"/><line style="stroke:#181818;stroke-width:1.0;" x1="154.5" x2="2177.5" y1="1625.1563" y2="1625.1563"/><text fill="#000000" font-family="sans-serif" font-size="13" lengthAdjust="spacing" textLength="74" x="161.5" y="1620.4141">getMessage</text><polygon fill="#181818" points="165.5,1635.1563,155.5,1639.1563,165.5,1643.1563,161.5,1639.1563" style="stroke:#181818;stroke-width:1.0;"/><line style="stroke:#181818;stroke-width:1.0;stroke-dasharray:2.0,2.0;" x1="159.5" x2="2187.5" y1="1639.1563" y2="1639.1563"/><polygon fill="#181818" points="637,1664.4668,647,1668.4668,637,1672.4668,641,1668.4668" style="stroke:#181818;stroke-width:1.0;"/><line style="stroke:#181818;stroke-width:1.0;" x1="154.5" x2="643" y1="1668.4668" y2="1668.4668"/><text fill="#000000" font-family="sans-serif" font-size="13" lengthAdjust="spacing" textLength="42" x="161.5" y="1663.7246">println</text><polygon fill="#181818" points="165.5,1678.4668,155.5,1682.4668,165.5,1686.4668,161.5,1682.4668" style="stroke:#181818;stroke-width:1.0;"/><line style="stroke:#181818;stroke-width:1.0;stroke-dasharray:2.0,2.0;" x1="159.5" x2="653" y1="1682.4668" y2="1682.4668"/><polygon fill="#181818" points="41.5,1692.4668,31.5,1696.4668,41.5,1700.4668,37.5,1696.4668" style="stroke:#181818;stroke-width:1.0;"/><line style="stroke:#181818;stroke-width:1.0;stroke-dasharray:2.0,2.0;" x1="35.5" x2="148.5" y1="1696.4668" y2="1696.4668"/><!--SRC=[xLV1RkCW4Btp5Vw1_40FbQ9k3v7QQhNfVi3KJ1Ca0Yw6jFtxWcCR4Xk2LokxXrwYsCoRzsOOnaC5IhEILI1qiIwrLAJvBLQtnVqHk06Dzq99pWyeTFrtKzmKL6xtyfr0gTdHBe_RaN6qSzk_k9EYDboZsg8wiXAjRyvg7I02aYYA91nQkb_o04pymKhMp0RsQKbUcQ1hphtpInio0AsImWd5kA-Kl5YMGuUfo6Cv_gsOq5kj40ustiezSU7Z3PP9Q9gb9mHF4V0w9xz_OUbtQEsjrLWr1TipTJjIxCQ5ZMy6-5aD6olPhMKocGaHRkYCuLqcrr07c8k_vJkHFs89GkuKL7jMFfd32oelf5FM8R8aTA3i-E-aKVLyrNMYwwXfGDmAQGso25l8Dpr8IxSHrt4bTxcsTdGZDEx2ycgNIMUMcV4JA4gwiHqUNXfMvlwwZtAFxXP9RvL5siFIhExBVrFieNx23tr1wcJqHlca3fP3AkPXNFpBk7JpNBXv9QS_Q1vZ7MRYuETNpuQ_DCVetFPFS-0Ld_zz5YnjsLcBjLBm-M2dwFWMz2RDgGi6UO_r9bcoCaYNBlisNg31cDGepezoMe2B30MF8627RNrePuAkjq9LeQ23bCSn9E5kX2mumNbCNT767FKSvqStvJmuPGFeAgvvE0iD78t8IoPywF9wu65-yyUsKVPeYOpSX6iuukHhy3LjmnlmpqNYvoAn-E3rl5VolPshc-skQtjul89-dNZBB7OFN3nuXTeeyGK0]--></g></svg>