<?xml version="1.0" encoding="us-ascii" standalone="no"?><svg xmlns="http://www.w3.org/2000/svg" xmlns:xlink="http://www.w3.org/1999/xlink" contentStyleType="text/css" height="677px" preserveAspectRatio="none" style="width:958px;height:677px;background:#FFFFFF;" version="1.1" viewBox="0 0 958 677" width="958px" zoomAndPan="magnify"><defs/><g><line style="stroke:#181818;stroke-width:0.5;stroke-dasharray:5.0,5.0;" x1="22" x2="22" y1="82.2813" y2="584.0391"/><line style="stroke:#181818;stroke-width:0.5;stroke-dasharray:5.0,5.0;" x1="89" x2="89" y1="82.2813" y2="584.0391"/><line style="stroke:#181818;stroke-width:0.5;stroke-dasharray:5.0,5.0;" x1="202" x2="202" y1="82.2813" y2="584.0391"/><line style="stroke:#181818;stroke-width:0.5;stroke-dasharray:5.0,5.0;" x1="309" x2="309" y1="82.2813" y2="584.0391"/><line style="stroke:#181818;stroke-width:0.5;stroke-dasharray:5.0,5.0;" x1="455" x2="455" y1="82.2813" y2="584.0391"/><line style="stroke:#181818;stroke-width:0.5;stroke-dasharray:5.0,5.0;" x1="636" x2="636" y1="82.2813" y2="584.0391"/><line style="stroke:#181818;stroke-width:0.5;stroke-dasharray:5.0,5.0;" x1="786" x2="786" y1="82.2813" y2="584.0391"/><line style="stroke:#181818;stroke-width:0.5;stroke-dasharray:5.0,5.0;" x1="901" x2="901" y1="82.2813" y2="584.0391"/><text fill="#000000" font-family="sans-serif" font-size="14" lengthAdjust="spacing" textLength="29" x="5" y="79.3145">User</text><ellipse cx="22.5" cy="15.1406" fill="#E2E2F0" rx="8" ry="8" style="stroke:#181818;stroke-width:0.5;"/><path d="M22.5,23.1406 L22.5,50.1406 M9.5,31.1406 L35.5,31.1406 M22.5,50.1406 L9.5,65.1406 M22.5,50.1406 L35.5,65.1406 " fill="none" style="stroke:#181818;stroke-width:0.5;"/><text fill="#000000" font-family="sans-serif" font-size="14" lengthAdjust="spacing" textLength="29" x="5" y="595.7129">User</text><ellipse cx="22.5" cy="607.1797" fill="#E2E2F0" rx="8" ry="8" style="stroke:#181818;stroke-width:0.5;"/><path d="M22.5,615.1797 L22.5,642.1797 M9.5,623.1797 L35.5,623.1797 M22.5,642.1797 L9.5,657.1797 M22.5,642.1797 L35.5,657.1797 " fill="none" style="stroke:#181818;stroke-width:0.5;"/><rect fill="#E2E2F0" height="29.6406" rx="2.5" ry="2.5" style="stroke:#181818;stroke-width:0.5;" width="78" x="50" y="51.6406"/><text fill="#000000" font-family="sans-serif" font-size="14" lengthAdjust="spacing" textLength="64" x="57" y="71.3145">TCPClient</text><rect fill="#E2E2F0" height="29.6406" rx="2.5" ry="2.5" style="stroke:#181818;stroke-width:0.5;" width="78" x="50" y="583.0391"/><text fill="#000000" font-family="sans-serif" font-size="14" lengthAdjust="spacing" textLength="64" x="57" y="602.7129">TCPClient</text><rect fill="#E2E2F0" height="29.6406" rx="2.5" ry="2.5" style="stroke:#181818;stroke-width:0.5;" width="84" x="160" y="51.6406"/><text fill="#000000" font-family="sans-serif" font-size="14" lengthAdjust="spacing" textLength="70" x="167" y="71.3145">TCPServer</text><rect fill="#E2E2F0" height="29.6406" rx="2.5" ry="2.5" style="stroke:#181818;stroke-width:0.5;" width="84" x="160" y="583.0391"/><text fill="#000000" font-family="sans-serif" font-size="14" lengthAdjust="spacing" textLength="70" x="167" y="602.7129">TCPServer</text><rect fill="#E2E2F0" height="45.2813" rx="2.5" ry="2.5" style="stroke:#181818;stroke-width:0.5;" width="111" x="254" y="36"/><text fill="#000000" font-family="sans-serif" font-size="14" font-style="italic" lengthAdjust="spacing" textLength="95" x="262" y="55.6738">&#171;presentation&#187;</text><text fill="#000000" font-family="sans-serif" font-size="14" lengthAdjust="spacing" textLength="97" x="261" y="71.3145">ArchiveBoardUi</text><rect fill="#E2E2F0" height="45.2813" rx="2.5" ry="2.5" style="stroke:#181818;stroke-width:0.5;" width="111" x="254" y="583.0391"/><text fill="#000000" font-family="sans-serif" font-size="14" font-style="italic" lengthAdjust="spacing" textLength="95" x="262" y="602.7129">&#171;presentation&#187;</text><text fill="#000000" font-family="sans-serif" font-size="14" lengthAdjust="spacing" textLength="97" x="261" y="618.3535">ArchiveBoardUi</text><rect fill="#E2E2F0" height="45.2813" rx="2.5" ry="2.5" style="stroke:#181818;stroke-width:0.5;" width="161" x="375" y="36"/><text fill="#000000" font-family="sans-serif" font-size="14" font-style="italic" lengthAdjust="spacing" textLength="84" x="413.5" y="55.6738">&#171;application&#187;</text><text fill="#000000" font-family="sans-serif" font-size="14" lengthAdjust="spacing" textLength="147" x="382" y="71.3145">ArchiveBoardController</text><rect fill="#E2E2F0" height="45.2813" rx="2.5" ry="2.5" style="stroke:#181818;stroke-width:0.5;" width="161" x="375" y="583.0391"/><text fill="#000000" font-family="sans-serif" font-size="14" font-style="italic" lengthAdjust="spacing" textLength="84" x="413.5" y="602.7129">&#171;application&#187;</text><text fill="#000000" font-family="sans-serif" font-size="14" lengthAdjust="spacing" textLength="147" x="382" y="618.3535">ArchiveBoardController</text><rect fill="#E2E2F0" height="45.2813" rx="2.5" ry="2.5" style="stroke:#181818;stroke-width:0.5;" width="181" x="546" y="36"/><text fill="#000000" font-family="sans-serif" font-size="14" font-style="italic" lengthAdjust="spacing" textLength="84" x="594.5" y="55.6738">&#171;application&#187;</text><text fill="#000000" font-family="sans-serif" font-size="14" lengthAdjust="spacing" textLength="167" x="553" y="71.3145">BoardManagementService</text><rect fill="#E2E2F0" height="45.2813" rx="2.5" ry="2.5" style="stroke:#181818;stroke-width:0.5;" width="181" x="546" y="583.0391"/><text fill="#000000" font-family="sans-serif" font-size="14" font-style="italic" lengthAdjust="spacing" textLength="84" x="594.5" y="602.7129">&#171;application&#187;</text><text fill="#000000" font-family="sans-serif" font-size="14" lengthAdjust="spacing" textLength="167" x="553" y="618.3535">BoardManagementService</text><rect fill="#E2E2F0" height="45.2813" rx="2.5" ry="2.5" style="stroke:#181818;stroke-width:0.5;" width="98" x="737" y="36"/><text fill="#000000" font-family="sans-serif" font-size="14" font-style="italic" lengthAdjust="spacing" textLength="62" x="755" y="55.6738">&#171;domain&#187;</text><text fill="#000000" font-family="sans-serif" font-size="14" lengthAdjust="spacing" textLength="84" x="744" y="71.3145">SharedBoard</text><rect fill="#E2E2F0" height="45.2813" rx="2.5" ry="2.5" style="stroke:#181818;stroke-width:0.5;" width="98" x="737" y="583.0391"/><text fill="#000000" font-family="sans-serif" font-size="14" font-style="italic" lengthAdjust="spacing" textLength="62" x="755" y="602.7129">&#171;domain&#187;</text><text fill="#000000" font-family="sans-serif" font-size="14" lengthAdjust="spacing" textLength="84" x="744" y="618.3535">SharedBoard</text><text fill="#000000" font-family="sans-serif" font-size="14" font-style="italic" lengthAdjust="spacing" textLength="79" x="858.5" y="63.6738">&#171;repository&#187;</text><text fill="#000000" font-family="sans-serif" font-size="14" lengthAdjust="spacing" textLength="106" x="845" y="79.3145">BoardRepository</text><path d="M883,15 C883,5 901,5 901,5 C901,5 919,5 919,15 L919,41 C919,51 901,51 901,51 C901,51 883,51 883,41 L883,15 " fill="#E2E2F0" style="stroke:#181818;stroke-width:1.5;"/><path d="M883,15 C883,25 901,25 901,25 C901,25 919,25 919,15 " fill="none" style="stroke:#181818;stroke-width:1.5;"/><text fill="#000000" font-family="sans-serif" font-size="14" font-style="italic" lengthAdjust="spacing" textLength="79" x="858.5" y="595.7129">&#171;repository&#187;</text><text fill="#000000" font-family="sans-serif" font-size="14" lengthAdjust="spacing" textLength="106" x="845" y="611.3535">BoardRepository</text><path d="M883,624.3203 C883,614.3203 901,614.3203 901,614.3203 C901,614.3203 919,614.3203 919,624.3203 L919,650.3203 C919,660.3203 901,660.3203 901,660.3203 C901,660.3203 883,660.3203 883,650.3203 L883,624.3203 " fill="#E2E2F0" style="stroke:#181818;stroke-width:1.5;"/><path d="M883,624.3203 C883,634.3203 901,634.3203 901,634.3203 C901,634.3203 919,634.3203 919,624.3203 " fill="none" style="stroke:#181818;stroke-width:1.5;"/><polygon fill="#181818" points="77,94.2813,87,98.2813,77,102.2813,81,98.2813" style="stroke:#181818;stroke-width:1.0;"/><line style="stroke:#181818;stroke-width:1.0;stroke-dasharray:2.0,2.0;" x1="22.5" x2="83" y1="98.2813" y2="98.2813"/><polygon fill="#181818" points="190,122.8047,200,126.8047,190,130.8047,194,126.8047" style="stroke:#181818;stroke-width:1.0;"/><line style="stroke:#181818;stroke-width:1.0;" x1="89" x2="196" y1="126.8047" y2="126.8047"/><text fill="#000000" font-family="sans-serif" font-size="13" font-weight="bold" lengthAdjust="spacing" textLength="73" x="96" y="122.0498">Message 30</text><text fill="#000000" font-family="sans-serif" font-size="13" lengthAdjust="spacing" textLength="4" x="181" y="122.0498">&#160;</text><polygon fill="#181818" points="443.5,151.3281,453.5,155.3281,443.5,159.3281,447.5,155.3281" style="stroke:#181818;stroke-width:1.0;"/><line style="stroke:#181818;stroke-width:1.0;" x1="202" x2="449.5" y1="155.3281" y2="155.3281"/><text fill="#000000" font-family="sans-serif" font-size="13" lengthAdjust="spacing" textLength="133" x="209" y="150.5732">findBoardOwned(email)</text><polygon fill="#181818" points="889,179.8516,899,183.8516,889,187.8516,893,183.8516" style="stroke:#181818;stroke-width:1.0;"/><line style="stroke:#181818;stroke-width:1.0;" x1="455.5" x2="895" y1="183.8516" y2="183.8516"/><text fill="#000000" font-family="sans-serif" font-size="13" lengthAdjust="spacing" textLength="133" x="462.5" y="179.0967">findBoardOwned(email)</text><polygon fill="#181818" points="466.5,193.8516,456.5,197.8516,466.5,201.8516,462.5,197.8516" style="stroke:#181818;stroke-width:1.0;"/><line style="stroke:#181818;stroke-width:1.0;" x1="460.5" x2="900" y1="197.8516" y2="197.8516"/><polygon fill="#181818" points="213,207.8516,203,211.8516,213,215.8516,209,211.8516" style="stroke:#181818;stroke-width:1.0;"/><line style="stroke:#181818;stroke-width:1.0;" x1="207" x2="454.5" y1="211.8516" y2="211.8516"/><polygon fill="#181818" points="100,221.8516,90,225.8516,100,229.8516,96,225.8516" style="stroke:#181818;stroke-width:1.0;"/><line style="stroke:#181818;stroke-width:1.0;" x1="94" x2="201" y1="225.8516" y2="225.8516"/><polygon fill="#181818" points="297.5,250.375,307.5,254.375,297.5,258.375,301.5,254.375" style="stroke:#181818;stroke-width:1.0;"/><line style="stroke:#181818;stroke-width:1.0;" x1="89" x2="303.5" y1="254.375" y2="254.375"/><text fill="#000000" font-family="sans-serif" font-size="13" lengthAdjust="spacing" textLength="111" x="96" y="249.6201">chooseIdBoard(list)</text><polygon fill="#181818" points="100,264.375,90,268.375,100,272.375,96,268.375" style="stroke:#181818;stroke-width:1.0;"/><line style="stroke:#181818;stroke-width:1.0;" x1="94" x2="308.5" y1="268.375" y2="268.375"/><polygon fill="#181818" points="190,292.8984,200,296.8984,190,300.8984,194,296.8984" style="stroke:#181818;stroke-width:1.0;"/><line style="stroke:#181818;stroke-width:1.0;" x1="89" x2="196" y1="296.8984" y2="296.8984"/><text fill="#000000" font-family="sans-serif" font-size="13" font-weight="bold" lengthAdjust="spacing" textLength="73" x="96" y="292.1436">Message 31</text><text fill="#000000" font-family="sans-serif" font-size="13" lengthAdjust="spacing" textLength="4" x="181" y="292.1436">&#160;</text><polygon fill="#181818" points="443.5,321.4219,453.5,325.4219,443.5,329.4219,447.5,325.4219" style="stroke:#181818;stroke-width:1.0;"/><line style="stroke:#181818;stroke-width:1.0;" x1="202" x2="449.5" y1="325.4219" y2="325.4219"/><text fill="#000000" font-family="sans-serif" font-size="13" lengthAdjust="spacing" textLength="130" x="209" y="320.667">findBoardById(boardId)</text><polygon fill="#181818" points="889,349.9453,899,353.9453,889,357.9453,893,353.9453" style="stroke:#181818;stroke-width:1.0;"/><line style="stroke:#181818;stroke-width:1.0;" x1="455.5" x2="895" y1="353.9453" y2="353.9453"/><text fill="#000000" font-family="sans-serif" font-size="13" lengthAdjust="spacing" textLength="98" x="462.5" y="349.1904">findBoardById(id)</text><polygon fill="#181818" points="466.5,363.9453,456.5,367.9453,466.5,371.9453,462.5,367.9453" style="stroke:#181818;stroke-width:1.0;"/><line style="stroke:#181818;stroke-width:1.0;" x1="460.5" x2="900" y1="367.9453" y2="367.9453"/><polygon fill="#181818" points="213,377.9453,203,381.9453,213,385.9453,209,381.9453" style="stroke:#181818;stroke-width:1.0;"/><line style="stroke:#181818;stroke-width:1.0;" x1="207" x2="454.5" y1="381.9453" y2="381.9453"/><polygon fill="#181818" points="443.5,406.4688,453.5,410.4688,443.5,414.4688,447.5,410.4688" style="stroke:#181818;stroke-width:1.0;"/><line style="stroke:#181818;stroke-width:1.0;" x1="202" x2="449.5" y1="410.4688" y2="410.4688"/><text fill="#000000" font-family="sans-serif" font-size="13" lengthAdjust="spacing" textLength="114" x="209" y="405.7139">archiveBoard(board)</text><polygon fill="#181818" points="624.5,434.9922,634.5,438.9922,624.5,442.9922,628.5,438.9922" style="stroke:#181818;stroke-width:1.0;"/><line style="stroke:#181818;stroke-width:1.0;" x1="455.5" x2="630.5" y1="438.9922" y2="438.9922"/><text fill="#000000" font-family="sans-serif" font-size="13" lengthAdjust="spacing" textLength="114" x="462.5" y="434.2373">archiveBoard(board)</text><polygon fill="#181818" points="774,463.5156,784,467.5156,774,471.5156,778,467.5156" style="stroke:#181818;stroke-width:1.0;"/><line style="stroke:#181818;stroke-width:1.0;" x1="636.5" x2="780" y1="467.5156" y2="467.5156"/><text fill="#000000" font-family="sans-serif" font-size="13" lengthAdjust="spacing" textLength="48" x="643.5" y="462.7607">archive()</text><polygon fill="#181818" points="889,492.0391,899,496.0391,889,500.0391,893,496.0391" style="stroke:#181818;stroke-width:1.0;"/><line style="stroke:#181818;stroke-width:1.0;" x1="636.5" x2="895" y1="496.0391" y2="496.0391"/><text fill="#000000" font-family="sans-serif" font-size="13" lengthAdjust="spacing" textLength="114" x="643.5" y="491.2842">archiveBoard(board)</text><polygon fill="#181818" points="647.5,506.0391,637.5,510.0391,647.5,514.0391,643.5,510.0391" style="stroke:#181818;stroke-width:1.0;"/><line style="stroke:#181818;stroke-width:1.0;" x1="641.5" x2="900" y1="510.0391" y2="510.0391"/><polygon fill="#181818" points="466.5,520.0391,456.5,524.0391,466.5,528.0391,462.5,524.0391" style="stroke:#181818;stroke-width:1.0;"/><line style="stroke:#181818;stroke-width:1.0;" x1="460.5" x2="635.5" y1="524.0391" y2="524.0391"/><polygon fill="#181818" points="213,534.0391,203,538.0391,213,542.0391,209,538.0391" style="stroke:#181818;stroke-width:1.0;"/><line style="stroke:#181818;stroke-width:1.0;" x1="207" x2="454.5" y1="538.0391" y2="538.0391"/><polygon fill="#181818" points="100,548.0391,90,552.0391,100,556.0391,96,552.0391" style="stroke:#181818;stroke-width:1.0;"/><line style="stroke:#181818;stroke-width:1.0;" x1="94" x2="201" y1="552.0391" y2="552.0391"/><polygon fill="#181818" points="33.5,562.0391,23.5,566.0391,33.5,570.0391,29.5,566.0391" style="stroke:#181818;stroke-width:1.0;"/><line style="stroke:#181818;stroke-width:1.0;stroke-dasharray:2.0,2.0;" x1="27.5" x2="88" y1="566.0391" y2="566.0391"/><!--SRC=[jLD1RiCW4Bpx5SWdvn0fLM-LQwdnAOUeLTqyO0saMPKO13XLVjy5OYUjd2YNdeoPcPtP1O1xRTd6ISl0iPw-cG7haQE1phEF-grMA6b5gEUc_eisqXwIbj3c5vg_MBx3Wrngi6A3UJJ0iZHMEge87dLNLTSbjUwyrKf96wNSMyNA4enHo2V5KRM63ZxbdWn2DEGoYjs1tzOsEx1In0f9q19Vw3rWe0hmq8AJ9uztQRH36jmnSYtzBebknssIP66MR3wlqjYWzxhhzotjFIvONcwfESQrqlQvLS2_ghAjrj8voiuMZELPKB6aRYxLpciJm2Q0SIPFR8jTYlxwtKbHI4gjPba4YPJYNMCbz5Hhr4JNmIKsCEJfaKhndTPEhbAvGg7piuo0gMOV_gtPvN4bYZQiLk96jv66ugvEJnPmSGkJmxb-k4dJZ804Gdl6Yt5tY3Kb78CHT-3VTHhXECABpR8V]--></g></svg>