<?xml version="1.0" encoding="us-ascii" standalone="no"?><svg xmlns="http://www.w3.org/2000/svg" xmlns:xlink="http://www.w3.org/1999/xlink" contentStyleType="text/css" height="631px" preserveAspectRatio="none" style="width:392px;height:631px;background:#FFFFFF;" version="1.1" viewBox="0 0 392 631" width="392px" zoomAndPan="magnify"><defs/><g><!--class TCPClient--><g id="elem_TCPClient"><rect codeLine="1" fill="#F1F1F1" height="48" id="TCPClient" rx="2.5" ry="2.5" style="stroke:#181818;stroke-width:0.5;" width="96" x="197" y="7"/><ellipse cx="212" cy="23" fill="#ADD1B2" rx="11" ry="11" style="stroke:#181818;stroke-width:1.0;"/><path d="M214,19.5 Q214.2031,19 214.4375,18.75 Q214.6719,18.5 214.9375,18.5 Q215.4063,18.5 215.7031,18.7813 Q216,19.0625 216,19.7188 L216,21.2813 Q216,21.9375 215.7188,22.2188 Q215.4375,22.5 215,22.5 Q214.6094,22.5 214.3594,22.3281 Q214.1094,22.1563 214,21.7031 Q213.9531,21.3906 213.7813,21.2188 Q213.4688,20.8906 212.9063,20.7031 Q212.3438,20.5 211.7813,20.5 Q211.0781,20.5 210.4844,20.7813 Q209.9063,21.0625 209.4531,21.6875 Q209,22.3125 209,23.1719 L209,24.0938 Q209,25.125 209.8438,25.8125 Q210.6875,26.5 212.1875,26.5 Q213.0781,26.5 213.7031,26.2969 Q214.0625,26.1875 214.4688,25.8281 Q214.7344,25.625 214.875,25.5625 Q215.0156,25.5 215.1875,25.5 Q215.5156,25.5 215.75,25.7656 Q216,26.0156 216,26.375 Q216,26.7188 215.6563,27.125 Q215.1563,27.7188 214.3594,28.0469 Q213.3125,28.5 212.0313,28.5 Q210.5313,28.5 209.3281,27.9063 Q208.3594,27.4375 207.6719,26.4219 Q207,25.4063 207,24.2031 L207,23.1094 Q207,21.8594 207.5938,20.7656 Q208.2031,19.6719 209.25,19.0938 Q210.3125,18.5 211.5,18.5 Q212.2188,18.5 212.8438,18.75 Q213.4688,19 214,19.5 Z " fill="#000000"/><text fill="#000000" font-family="sans-serif" font-size="14" lengthAdjust="spacing" textLength="64" x="226" y="27.8535">TCPClient</text><line style="stroke:#181818;stroke-width:0.5;" x1="198" x2="292" y1="39" y2="39"/><line style="stroke:#181818;stroke-width:0.5;" x1="198" x2="292" y1="47" y2="47"/></g><!--class TCPServer--><g id="elem_TCPServer"><rect codeLine="4" fill="#F1F1F1" height="48" id="TCPServer" rx="2.5" ry="2.5" style="stroke:#181818;stroke-width:0.5;" width="102" x="119" y="118.5"/><ellipse cx="134" cy="134.5" fill="#ADD1B2" rx="11" ry="11" style="stroke:#181818;stroke-width:1.0;"/><path d="M136,131 Q136.2031,130.5 136.4375,130.25 Q136.6719,130 136.9375,130 Q137.4063,130 137.7031,130.2813 Q138,130.5625 138,131.2188 L138,132.7813 Q138,133.4375 137.7188,133.7188 Q137.4375,134 137,134 Q136.6094,134 136.3594,133.8281 Q136.1094,133.6563 136,133.2031 Q135.9531,132.8906 135.7813,132.7188 Q135.4688,132.3906 134.9063,132.2031 Q134.3438,132 133.7813,132 Q133.0781,132 132.4844,132.2813 Q131.9063,132.5625 131.4531,133.1875 Q131,133.8125 131,134.6719 L131,135.5938 Q131,136.625 131.8438,137.3125 Q132.6875,138 134.1875,138 Q135.0781,138 135.7031,137.7969 Q136.0625,137.6875 136.4688,137.3281 Q136.7344,137.125 136.875,137.0625 Q137.0156,137 137.1875,137 Q137.5156,137 137.75,137.2656 Q138,137.5156 138,137.875 Q138,138.2188 137.6563,138.625 Q137.1563,139.2188 136.3594,139.5469 Q135.3125,140 134.0313,140 Q132.5313,140 131.3281,139.4063 Q130.3594,138.9375 129.6719,137.9219 Q129,136.9063 129,135.7031 L129,134.6094 Q129,133.3594 129.5938,132.2656 Q130.2031,131.1719 131.25,130.5938 Q132.3125,130 133.5,130 Q134.2188,130 134.8438,130.25 Q135.4688,130.5 136,131 Z " fill="#000000"/><text fill="#000000" font-family="sans-serif" font-size="14" lengthAdjust="spacing" textLength="70" x="148" y="139.3535">TCPServer</text><line style="stroke:#181818;stroke-width:0.5;" x1="120" x2="220" y1="150.5" y2="150.5"/><line style="stroke:#181818;stroke-width:0.5;" x1="120" x2="220" y1="158.5" y2="158.5"/></g><!--class ArchiveBoardUI--><g id="elem_ArchiveBoardUI"><rect codeLine="7" fill="#F1F1F1" height="55.0469" id="ArchiveBoardUI" rx="2.5" ry="2.5" style="stroke:#181818;stroke-width:0.5;" width="129" x="256.5" y="115"/><ellipse cx="271.5" cy="134.5234" fill="#ADD1B2" rx="11" ry="11" style="stroke:#181818;stroke-width:1.0;"/><path d="M273.5,131.0234 Q273.7031,130.5234 273.9375,130.2734 Q274.1719,130.0234 274.4375,130.0234 Q274.9063,130.0234 275.2031,130.3047 Q275.5,130.5859 275.5,131.2422 L275.5,132.8047 Q275.5,133.4609 275.2188,133.7422 Q274.9375,134.0234 274.5,134.0234 Q274.1094,134.0234 273.8594,133.8516 Q273.6094,133.6797 273.5,133.2266 Q273.4531,132.9141 273.2813,132.7422 Q272.9688,132.4141 272.4063,132.2266 Q271.8438,132.0234 271.2813,132.0234 Q270.5781,132.0234 269.9844,132.3047 Q269.4063,132.5859 268.9531,133.2109 Q268.5,133.8359 268.5,134.6953 L268.5,135.6172 Q268.5,136.6484 269.3438,137.3359 Q270.1875,138.0234 271.6875,138.0234 Q272.5781,138.0234 273.2031,137.8203 Q273.5625,137.7109 273.9688,137.3516 Q274.2344,137.1484 274.375,137.0859 Q274.5156,137.0234 274.6875,137.0234 Q275.0156,137.0234 275.25,137.2891 Q275.5,137.5391 275.5,137.8984 Q275.5,138.2422 275.1563,138.6484 Q274.6563,139.2422 273.8594,139.5703 Q272.8125,140.0234 271.5313,140.0234 Q270.0313,140.0234 268.8281,139.4297 Q267.8594,138.9609 267.1719,137.9453 Q266.5,136.9297 266.5,135.7266 L266.5,134.6328 Q266.5,133.3828 267.0938,132.2891 Q267.7031,131.1953 268.75,130.6172 Q269.8125,130.0234 271,130.0234 Q271.7188,130.0234 272.3438,130.2734 Q272.9688,130.5234 273.5,131.0234 Z " fill="#000000"/><text fill="#000000" font-family="sans-serif" font-size="12" font-style="italic" lengthAdjust="spacing" textLength="82" x="293" y="130.8633">&#171;presentation&#187;</text><text fill="#000000" font-family="sans-serif" font-size="14" lengthAdjust="spacing" textLength="97" x="285.5" y="146.0801">ArchiveBoardUI</text><line style="stroke:#181818;stroke-width:0.5;" x1="257.5" x2="384.5" y1="154.0469" y2="154.0469"/><line style="stroke:#181818;stroke-width:0.5;" x1="257.5" x2="384.5" y1="162.0469" y2="162.0469"/></g><!--class ArchiveBoardController--><g id="elem_ArchiveBoardController"><rect codeLine="9" fill="#F1F1F1" height="101.9688" id="ArchiveBoardController" rx="2.5" ry="2.5" style="stroke:#181818;stroke-width:0.5;" width="179" x="80.5" y="230"/><ellipse cx="95.5" cy="249.5234" fill="#ADD1B2" rx="11" ry="11" style="stroke:#181818;stroke-width:1.0;"/><path d="M97.5,246.0234 Q97.7031,245.5234 97.9375,245.2734 Q98.1719,245.0234 98.4375,245.0234 Q98.9063,245.0234 99.2031,245.3047 Q99.5,245.5859 99.5,246.2422 L99.5,247.8047 Q99.5,248.4609 99.2188,248.7422 Q98.9375,249.0234 98.5,249.0234 Q98.1094,249.0234 97.8594,248.8516 Q97.6094,248.6797 97.5,248.2266 Q97.4531,247.9141 97.2813,247.7422 Q96.9688,247.4141 96.4063,247.2266 Q95.8438,247.0234 95.2813,247.0234 Q94.5781,247.0234 93.9844,247.3047 Q93.4063,247.5859 92.9531,248.2109 Q92.5,248.8359 92.5,249.6953 L92.5,250.6172 Q92.5,251.6484 93.3438,252.3359 Q94.1875,253.0234 95.6875,253.0234 Q96.5781,253.0234 97.2031,252.8203 Q97.5625,252.7109 97.9688,252.3516 Q98.2344,252.1484 98.375,252.0859 Q98.5156,252.0234 98.6875,252.0234 Q99.0156,252.0234 99.25,252.2891 Q99.5,252.5391 99.5,252.8984 Q99.5,253.2422 99.1563,253.6484 Q98.6563,254.2422 97.8594,254.5703 Q96.8125,255.0234 95.5313,255.0234 Q94.0313,255.0234 92.8281,254.4297 Q91.8594,253.9609 91.1719,252.9453 Q90.5,251.9297 90.5,250.7266 L90.5,249.6328 Q90.5,248.3828 91.0938,247.2891 Q91.7031,246.1953 92.75,245.6172 Q93.8125,245.0234 95,245.0234 Q95.7188,245.0234 96.3438,245.2734 Q96.9688,245.5234 97.5,246.0234 Z " fill="#000000"/><text fill="#000000" font-family="sans-serif" font-size="12" font-style="italic" lengthAdjust="spacing" textLength="74" x="146" y="245.8633">&#171;application&#187;</text><text fill="#000000" font-family="sans-serif" font-size="14" lengthAdjust="spacing" textLength="147" x="109.5" y="261.0801">ArchiveBoardController</text><line style="stroke:#181818;stroke-width:0.5;" x1="81.5" x2="258.5" y1="269.0469" y2="269.0469"/><line style="stroke:#181818;stroke-width:0.5;" x1="81.5" x2="258.5" y1="277.0469" y2="277.0469"/><ellipse cx="91.5" cy="290.3672" fill="#84BE84" rx="3" ry="3" style="stroke:#038048;stroke-width:1.0;"/><text fill="#000000" font-family="sans-serif" font-size="14" lengthAdjust="spacing" textLength="148" x="100.5" y="293.7207">findBoardOwned(email)</text><ellipse cx="91.5" cy="306.0078" fill="#84BE84" rx="3" ry="3" style="stroke:#038048;stroke-width:1.0;"/><text fill="#000000" font-family="sans-serif" font-size="14" lengthAdjust="spacing" textLength="131" x="100.5" y="309.3613">archiveBoard(board)</text><ellipse cx="91.5" cy="321.6484" fill="#84BE84" rx="3" ry="3" style="stroke:#038048;stroke-width:1.0;"/><text fill="#000000" font-family="sans-serif" font-size="14" lengthAdjust="spacing" textLength="146" x="100.5" y="325.002">findBoardById(boardId)</text></g><!--class BoardManagementService--><g id="elem_BoardManagementService"><rect codeLine="15" fill="#F1F1F1" height="70.6875" id="BoardManagementService" rx="2.5" ry="2.5" style="stroke:#181818;stroke-width:0.5;" width="199" x="147.5" y="392"/><ellipse cx="162.5" cy="411.5234" fill="#ADD1B2" rx="11" ry="11" style="stroke:#181818;stroke-width:1.0;"/><path d="M164.5,408.0234 Q164.7031,407.5234 164.9375,407.2734 Q165.1719,407.0234 165.4375,407.0234 Q165.9063,407.0234 166.2031,407.3047 Q166.5,407.5859 166.5,408.2422 L166.5,409.8047 Q166.5,410.4609 166.2188,410.7422 Q165.9375,411.0234 165.5,411.0234 Q165.1094,411.0234 164.8594,410.8516 Q164.6094,410.6797 164.5,410.2266 Q164.4531,409.9141 164.2813,409.7422 Q163.9688,409.4141 163.4063,409.2266 Q162.8438,409.0234 162.2813,409.0234 Q161.5781,409.0234 160.9844,409.3047 Q160.4063,409.5859 159.9531,410.2109 Q159.5,410.8359 159.5,411.6953 L159.5,412.6172 Q159.5,413.6484 160.3438,414.3359 Q161.1875,415.0234 162.6875,415.0234 Q163.5781,415.0234 164.2031,414.8203 Q164.5625,414.7109 164.9688,414.3516 Q165.2344,414.1484 165.375,414.0859 Q165.5156,414.0234 165.6875,414.0234 Q166.0156,414.0234 166.25,414.2891 Q166.5,414.5391 166.5,414.8984 Q166.5,415.2422 166.1563,415.6484 Q165.6563,416.2422 164.8594,416.5703 Q163.8125,417.0234 162.5313,417.0234 Q161.0313,417.0234 159.8281,416.4297 Q158.8594,415.9609 158.1719,414.9453 Q157.5,413.9297 157.5,412.7266 L157.5,411.6328 Q157.5,410.3828 158.0938,409.2891 Q158.7031,408.1953 159.75,407.6172 Q160.8125,407.0234 162,407.0234 Q162.7188,407.0234 163.3438,407.2734 Q163.9688,407.5234 164.5,408.0234 Z " fill="#000000"/><text fill="#000000" font-family="sans-serif" font-size="12" font-style="italic" lengthAdjust="spacing" textLength="74" x="223" y="407.8633">&#171;application&#187;</text><text fill="#000000" font-family="sans-serif" font-size="14" lengthAdjust="spacing" textLength="167" x="176.5" y="423.0801">BoardManagementService</text><line style="stroke:#181818;stroke-width:0.5;" x1="148.5" x2="345.5" y1="431.0469" y2="431.0469"/><line style="stroke:#181818;stroke-width:0.5;" x1="148.5" x2="345.5" y1="439.0469" y2="439.0469"/><ellipse cx="158.5" cy="452.3672" fill="#84BE84" rx="3" ry="3" style="stroke:#038048;stroke-width:1.0;"/><text fill="#000000" font-family="sans-serif" font-size="14" lengthAdjust="spacing" textLength="94" x="167.5" y="455.7207">archiveBoard()</text></g><!--class BoardRepository--><g id="elem_BoardRepository"><rect codeLine="19" fill="#F1F1F1" height="101.9688" id="BoardRepository" rx="2.5" ry="2.5" style="stroke:#181818;stroke-width:0.5;" width="174" x="7" y="523"/><ellipse cx="38.2" cy="542.5234" fill="#ADD1B2" rx="11" ry="11" style="stroke:#181818;stroke-width:1.0;"/><path d="M40.2,539.0234 Q40.4031,538.5234 40.6375,538.2734 Q40.8719,538.0234 41.1375,538.0234 Q41.6063,538.0234 41.9031,538.3047 Q42.2,538.5859 42.2,539.2422 L42.2,540.8047 Q42.2,541.4609 41.9188,541.7422 Q41.6375,542.0234 41.2,542.0234 Q40.8094,542.0234 40.5594,541.8516 Q40.3094,541.6797 40.2,541.2266 Q40.1531,540.9141 39.9813,540.7422 Q39.6688,540.4141 39.1063,540.2266 Q38.5438,540.0234 37.9813,540.0234 Q37.2781,540.0234 36.6844,540.3047 Q36.1063,540.5859 35.6531,541.2109 Q35.2,541.8359 35.2,542.6953 L35.2,543.6172 Q35.2,544.6484 36.0438,545.3359 Q36.8875,546.0234 38.3875,546.0234 Q39.2781,546.0234 39.9031,545.8203 Q40.2625,545.7109 40.6688,545.3516 Q40.9344,545.1484 41.075,545.0859 Q41.2156,545.0234 41.3875,545.0234 Q41.7156,545.0234 41.95,545.2891 Q42.2,545.5391 42.2,545.8984 Q42.2,546.2422 41.8563,546.6484 Q41.3563,547.2422 40.5594,547.5703 Q39.5125,548.0234 38.2313,548.0234 Q36.7313,548.0234 35.5281,547.4297 Q34.5594,546.9609 33.8719,545.9453 Q33.2,544.9297 33.2,543.7266 L33.2,542.6328 Q33.2,541.3828 33.7938,540.2891 Q34.4031,539.1953 35.45,538.6172 Q36.5125,538.0234 37.7,538.0234 Q38.4188,538.0234 39.0438,538.2734 Q39.6688,538.5234 40.2,539.0234 Z " fill="#000000"/><text fill="#000000" font-family="sans-serif" font-size="12" font-style="italic" lengthAdjust="spacing" textLength="68" x="74.8" y="538.8633">&#171;repository&#187;</text><text fill="#000000" font-family="sans-serif" font-size="14" lengthAdjust="spacing" textLength="106" x="55.8" y="554.0801">BoardRepository</text><line style="stroke:#181818;stroke-width:0.5;" x1="8" x2="180" y1="562.0469" y2="562.0469"/><line style="stroke:#181818;stroke-width:0.5;" x1="8" x2="180" y1="570.0469" y2="570.0469"/><ellipse cx="18" cy="583.3672" fill="#84BE84" rx="3" ry="3" style="stroke:#038048;stroke-width:1.0;"/><text fill="#000000" font-family="sans-serif" font-size="14" lengthAdjust="spacing" textLength="148" x="27" y="586.7207">findBoardOwned(email)</text><ellipse cx="18" cy="599.0078" fill="#84BE84" rx="3" ry="3" style="stroke:#038048;stroke-width:1.0;"/><text fill="#000000" font-family="sans-serif" font-size="14" lengthAdjust="spacing" textLength="108" x="27" y="602.3613">findBoardbyId(id)</text><ellipse cx="18" cy="614.6484" fill="#84BE84" rx="3" ry="3" style="stroke:#038048;stroke-width:1.0;"/><text fill="#000000" font-family="sans-serif" font-size="14" lengthAdjust="spacing" textLength="131" x="27" y="618.002">archiveBoard(board)</text></g><!--class SharedBoard--><g id="elem_SharedBoard"><rect codeLine="25" fill="#F1F1F1" height="70.6875" id="SharedBoard" rx="2.5" ry="2.5" style="stroke:#181818;stroke-width:0.5;" width="116" x="216" y="538.5"/><ellipse cx="231" cy="558.0234" fill="#ADD1B2" rx="11" ry="11" style="stroke:#181818;stroke-width:1.0;"/><path d="M233,554.5234 Q233.2031,554.0234 233.4375,553.7734 Q233.6719,553.5234 233.9375,553.5234 Q234.4063,553.5234 234.7031,553.8047 Q235,554.0859 235,554.7422 L235,556.3047 Q235,556.9609 234.7188,557.2422 Q234.4375,557.5234 234,557.5234 Q233.6094,557.5234 233.3594,557.3516 Q233.1094,557.1797 233,556.7266 Q232.9531,556.4141 232.7813,556.2422 Q232.4688,555.9141 231.9063,555.7266 Q231.3438,555.5234 230.7813,555.5234 Q230.0781,555.5234 229.4844,555.8047 Q228.9063,556.0859 228.4531,556.7109 Q228,557.3359 228,558.1953 L228,559.1172 Q228,560.1484 228.8438,560.8359 Q229.6875,561.5234 231.1875,561.5234 Q232.0781,561.5234 232.7031,561.3203 Q233.0625,561.2109 233.4688,560.8516 Q233.7344,560.6484 233.875,560.5859 Q234.0156,560.5234 234.1875,560.5234 Q234.5156,560.5234 234.75,560.7891 Q235,561.0391 235,561.3984 Q235,561.7422 234.6563,562.1484 Q234.1563,562.7422 233.3594,563.0703 Q232.3125,563.5234 231.0313,563.5234 Q229.5313,563.5234 228.3281,562.9297 Q227.3594,562.4609 226.6719,561.4453 Q226,560.4297 226,559.2266 L226,558.1328 Q226,556.8828 226.5938,555.7891 Q227.2031,554.6953 228.25,554.1172 Q229.3125,553.5234 230.5,553.5234 Q231.2188,553.5234 231.8438,553.7734 Q232.4688,554.0234 233,554.5234 Z " fill="#000000"/><text fill="#000000" font-family="sans-serif" font-size="12" font-style="italic" lengthAdjust="spacing" textLength="56" x="259" y="554.3633">&#171;domain&#187;</text><text fill="#000000" font-family="sans-serif" font-size="14" lengthAdjust="spacing" textLength="84" x="245" y="569.5801">SharedBoard</text><line style="stroke:#181818;stroke-width:0.5;" x1="217" x2="331" y1="577.5469" y2="577.5469"/><line style="stroke:#181818;stroke-width:0.5;" x1="217" x2="331" y1="585.5469" y2="585.5469"/><ellipse cx="227" cy="598.8672" fill="#84BE84" rx="3" ry="3" style="stroke:#038048;stroke-width:1.0;"/><text fill="#000000" font-family="sans-serif" font-size="14" lengthAdjust="spacing" textLength="56" x="236" y="602.2207">archive()</text></g><!--link TCPClient to ArchiveBoardUI--><g id="link_TCPClient_ArchiveBoardUI"><path codeLine="30" d="M261.12,55.22 C272.28,71.31 287.28,92.91 299.46,110.47 " fill="none" id="TCPClient-to-ArchiveBoardUI" style="stroke:#181818;stroke-width:1.0;"/><polygon fill="#181818" points="302.5,114.84,300.6746,105.1618,299.6577,110.7265,294.093,109.7095,302.5,114.84" style="stroke:#181818;stroke-width:1.0;"/></g><!--link TCPClient to TCPServer--><g id="link_TCPClient_TCPServer"><path codeLine="31" d="M229.09,55.22 C217.36,72.35 201.35,95.73 188.95,113.83 " fill="none" id="TCPClient-to-TCPServer" style="stroke:#181818;stroke-width:1.0;"/><polygon fill="#181818" points="185.88,118.31,194.2666,113.1462,188.706,114.1852,187.6669,108.6246,185.88,118.31" style="stroke:#181818;stroke-width:1.0;"/></g><!--link TCPServer to ArchiveBoardController--><g id="link_TCPServer_ArchiveBoardController"><path codeLine="32" d="M170,166.66 C170,182.57 170,204.41 170,224.68 " fill="none" id="TCPServer-to-ArchiveBoardController" style="stroke:#181818;stroke-width:1.0;"/><polygon fill="#181818" points="170,229.79,174,220.79,170,224.79,166,220.79,170,229.79" style="stroke:#181818;stroke-width:1.0;"/></g><!--link ArchiveBoardController to BoardRepository--><g id="link_ArchiveBoardController_BoardRepository"><path codeLine="33" d="M149.94,332.13 C142.99,350.73 135.55,372.14 130,392 C118.37,433.62 109,481.62 102.74,517.73 " fill="none" id="ArchiveBoardController-to-BoardRepository" style="stroke:#181818;stroke-width:1.0;"/><polygon fill="#181818" points="101.84,522.97,107.3229,514.7885,102.6967,518.0439,99.4412,513.4177,101.84,522.97" style="stroke:#181818;stroke-width:1.0;"/></g><!--link ArchiveBoardController to BoardManagementService--><g id="link_ArchiveBoardController_BoardManagementService"><path codeLine="34" d="M196.71,332.13 C206.32,350.16 217.02,370.23 226.06,387.21 " fill="none" id="ArchiveBoardController-to-BoardManagementService" style="stroke:#181818;stroke-width:1.0;"/><polygon fill="#181818" points="228.57,391.91,227.8592,382.0868,226.2148,387.4994,220.8022,385.8551,228.57,391.91" style="stroke:#181818;stroke-width:1.0;"/></g><!--link BoardManagementService to SharedBoard--><g id="link_BoardManagementService_SharedBoard"><path codeLine="35" d="M253.47,463.11 C257.4,484.14 262.43,511.06 266.53,533 " fill="none" id="BoardManagementService-to-SharedBoard" style="stroke:#181818;stroke-width:1.0;"/><polygon fill="#181818" points="267.49,538.17,269.7494,528.5838,266.5617,533.2569,261.8885,530.0692,267.49,538.17" style="stroke:#181818;stroke-width:1.0;"/></g><!--link BoardManagementService to BoardRepository--><g id="link_BoardManagementService_BoardRepository"><path codeLine="36" d="M210.35,463.11 C192.62,479.86 170.91,500.36 151.08,519.09 " fill="none" id="BoardManagementService-to-BoardRepository" style="stroke:#181818;stroke-width:1.0;"/><polygon fill="#181818" points="147.14,522.81,156.4289,519.5363,150.7743,519.376,150.9345,513.7215,147.14,522.81" style="stroke:#181818;stroke-width:1.0;"/></g><!--SRC=[XL7B2i8m4BpdAtfKn3ye1Usf1r5yVC2QhBeGax8jYeZ_Rb8rhT7g9P39pEnaHsgegcITBt9DQEhaAcv2o1UuGZuXTy49omETS6g1rQP8qhHah9mGQh8copppavXRKxFLsbcbAPIb9ldaE-lHZengQFEpGJN08v0UYX5q30PRVmuxtEcbUAA5mqEyvcq61lPuTAbyVfBuRUgRVUomnD9ML5k-E2c7oy-y0TxwQAHwlX06hGx0-52u8SewcsQ1BzKZb6Yh6O-pQFtHOoXCjDN5ehOAqTEGLqHB-4lzsBZeAS8hEX__HOipt040]--></g></svg>