<?xml version="1.0" encoding="us-ascii" standalone="no"?><svg xmlns="http://www.w3.org/2000/svg" xmlns:xlink="http://www.w3.org/1999/xlink" contentStyleType="text/css" height="1062px" preserveAspectRatio="none" style="width:2517px;height:1062px;background:#FFFFFF;" version="1.1" viewBox="0 0 2517 1062" width="2517px" zoomAndPan="magnify"><defs/><g><!--class Actor--><g id="elem_Actor"><rect codeLine="1" fill="#F1F1F1" height="48" id="Actor" rx="2.5" ry="2.5" style="stroke:#181818;stroke-width:0.5;" width="69" x="845" y="7"/><ellipse cx="860" cy="23" fill="#ADD1B2" rx="11" ry="11" style="stroke:#181818;stroke-width:1.0;"/><path d="M862.9731,28.6431 Q862.3921,28.9419 861.7529,29.0913 Q861.1138,29.2407 860.4082,29.2407 Q857.9014,29.2407 856.5815,27.5889 Q855.2617,25.937 855.2617,22.8159 Q855.2617,19.6865 856.5815,18.0347 Q857.9014,16.3828 860.4082,16.3828 Q861.1138,16.3828 861.7612,16.5322 Q862.4087,16.6816 862.9731,16.9805 L862.9731,19.7031 Q862.3423,19.1221 861.7488,18.8523 Q861.1553,18.5825 860.5244,18.5825 Q859.1797,18.5825 858.4949,19.6492 Q857.8101,20.7158 857.8101,22.8159 Q857.8101,24.9077 858.4949,25.9744 Q859.1797,27.041 860.5244,27.041 Q861.1553,27.041 861.7488,26.7712 Q862.3423,26.5015 862.9731,25.9204 Z " fill="#000000"/><text fill="#000000" font-family="sans-serif" font-size="14" lengthAdjust="spacing" textLength="37" x="874" y="28.291">Actor</text><line style="stroke:#181818;stroke-width:0.5;" x1="846" x2="913" y1="39" y2="39"/><line style="stroke:#181818;stroke-width:0.5;" x1="846" x2="913" y1="47" y2="47"/></g><!--class RequestEnrollmentUI--><g id="elem_RequestEnrollmentUI"><rect codeLine="3" fill="#F1F1F1" height="97.4648" id="RequestEnrollmentUI" rx="2.5" ry="2.5" style="stroke:#181818;stroke-width:0.5;" width="176" x="791.5" y="115"/><ellipse cx="806.5" cy="131" fill="#ADD1B2" rx="11" ry="11" style="stroke:#181818;stroke-width:1.0;"/><path d="M809.4731,136.6431 Q808.8921,136.9419 808.2529,137.0913 Q807.6138,137.2407 806.9082,137.2407 Q804.4014,137.2407 803.0815,135.5889 Q801.7617,133.937 801.7617,130.8159 Q801.7617,127.6865 803.0815,126.0347 Q804.4014,124.3828 806.9082,124.3828 Q807.6138,124.3828 808.2612,124.5322 Q808.9087,124.6816 809.4731,124.9805 L809.4731,127.7031 Q808.8423,127.1221 808.2488,126.8523 Q807.6553,126.5825 807.0244,126.5825 Q805.6797,126.5825 804.9949,127.6492 Q804.3101,128.7158 804.3101,130.8159 Q804.3101,132.9077 804.9949,133.9744 Q805.6797,135.041 807.0244,135.041 Q807.6553,135.041 808.2488,134.7712 Q808.8423,134.5015 809.4731,133.9204 Z " fill="#000000"/><text fill="#000000" font-family="sans-serif" font-size="14" lengthAdjust="spacing" textLength="144" x="820.5" y="136.291">RequestEnrollmentUI</text><line style="stroke:#181818;stroke-width:0.5;" x1="792.5" x2="966.5" y1="147" y2="147"/><line style="stroke:#181818;stroke-width:0.5;" x1="792.5" x2="966.5" y1="155" y2="155"/><ellipse cx="802.5" cy="168.7441" fill="#84BE84" rx="3" ry="3" style="stroke:#038048;stroke-width:1.0;"/><text fill="#000000" font-family="sans-serif" font-size="14" lengthAdjust="spacing" textLength="65" x="811.5" y="172.5352">doShow()</text><ellipse cx="802.5" cy="185.2324" fill="#84BE84" rx="3" ry="3" style="stroke:#038048;stroke-width:1.0;"/><text fill="#000000" font-family="sans-serif" font-size="14" lengthAdjust="spacing" textLength="86" x="811.5" y="189.0234">listCourses()</text><ellipse cx="802.5" cy="201.7207" fill="#84BE84" rx="3" ry="3" style="stroke:#038048;stroke-width:1.0;"/><text fill="#000000" font-family="sans-serif" font-size="14" lengthAdjust="spacing" textLength="103" x="811.5" y="205.5117">enrollStudent()</text></g><!--class EnrollmentBuilder--><g id="elem_EnrollmentBuilder"><rect codeLine="9" fill="#F1F1F1" height="80.9766" id="EnrollmentBuilder" rx="2.5" ry="2.5" style="stroke:#181818;stroke-width:0.5;" width="155" x="1170" y="280"/><ellipse cx="1185" cy="296" fill="#ADD1B2" rx="11" ry="11" style="stroke:#181818;stroke-width:1.0;"/><path d="M1187.9731,301.6431 Q1187.3921,301.9419 1186.7529,302.0913 Q1186.1138,302.2407 1185.4082,302.2407 Q1182.9014,302.2407 1181.5815,300.5889 Q1180.2617,298.937 1180.2617,295.8159 Q1180.2617,292.6865 1181.5815,291.0347 Q1182.9014,289.3828 1185.4082,289.3828 Q1186.1138,289.3828 1186.7612,289.5322 Q1187.4087,289.6816 1187.9731,289.9805 L1187.9731,292.7031 Q1187.3423,292.1221 1186.7488,291.8523 Q1186.1553,291.5825 1185.5244,291.5825 Q1184.1797,291.5825 1183.4949,292.6492 Q1182.8101,293.7158 1182.8101,295.8159 Q1182.8101,297.9077 1183.4949,298.9744 Q1184.1797,300.041 1185.5244,300.041 Q1186.1553,300.041 1186.7488,299.7712 Q1187.3423,299.5015 1187.9731,298.9204 Z " fill="#000000"/><text fill="#000000" font-family="sans-serif" font-size="14" lengthAdjust="spacing" textLength="123" x="1199" y="301.291">EnrollmentBuilder</text><line style="stroke:#181818;stroke-width:0.5;" x1="1171" x2="1324" y1="312" y2="312"/><line style="stroke:#181818;stroke-width:0.5;" x1="1171" x2="1324" y1="320" y2="320"/><ellipse cx="1181" cy="333.7441" fill="#84BE84" rx="3" ry="3" style="stroke:#038048;stroke-width:1.0;"/><text fill="#000000" font-family="sans-serif" font-size="14" lengthAdjust="spacing" textLength="38" x="1190" y="337.5352">new()</text><ellipse cx="1181" cy="350.2324" fill="#84BE84" rx="3" ry="3" style="stroke:#038048;stroke-width:1.0;"/><text fill="#000000" font-family="sans-serif" font-size="14" lengthAdjust="spacing" textLength="103" x="1190" y="354.0234">enrollStudent()</text></g><!--class AuthzRegistry--><g id="elem_AuthzRegistry"><rect codeLine="14" fill="#F1F1F1" height="80.9766" id="AuthzRegistry" rx="2.5" ry="2.5" style="stroke:#181818;stroke-width:0.5;" width="177" x="1340" y="437"/><ellipse cx="1377.05" cy="453" fill="#ADD1B2" rx="11" ry="11" style="stroke:#181818;stroke-width:1.0;"/><path d="M1380.0231,458.6431 Q1379.4421,458.9419 1378.8029,459.0913 Q1378.1638,459.2407 1377.4582,459.2407 Q1374.9514,459.2407 1373.6315,457.5889 Q1372.3117,455.937 1372.3117,452.8159 Q1372.3117,449.6865 1373.6315,448.0347 Q1374.9514,446.3828 1377.4582,446.3828 Q1378.1638,446.3828 1378.8112,446.5322 Q1379.4587,446.6816 1380.0231,446.9805 L1380.0231,449.7031 Q1379.3923,449.1221 1378.7988,448.8523 Q1378.2053,448.5825 1377.5744,448.5825 Q1376.2297,448.5825 1375.5449,449.6492 Q1374.8601,450.7158 1374.8601,452.8159 Q1374.8601,454.9077 1375.5449,455.9744 Q1376.2297,457.041 1377.5744,457.041 Q1378.2053,457.041 1378.7988,456.7712 Q1379.3923,456.5015 1380.0231,455.9204 Z " fill="#000000"/><text fill="#000000" font-family="sans-serif" font-size="14" lengthAdjust="spacing" textLength="96" x="1395.95" y="458.291">AuthzRegistry</text><line style="stroke:#181818;stroke-width:0.5;" x1="1341" x2="1516" y1="469" y2="469"/><line style="stroke:#181818;stroke-width:0.5;" x1="1341" x2="1516" y1="477" y2="477"/><ellipse cx="1351" cy="490.7441" fill="#84BE84" rx="3" ry="3" style="stroke:#038048;stroke-width:1.0;"/><text fill="#000000" font-family="sans-serif" font-size="14" lengthAdjust="spacing" textLength="151" x="1360" y="494.5352">authorizationService()</text><ellipse cx="1351" cy="507.2324" fill="#84BE84" rx="3" ry="3" style="stroke:#038048;stroke-width:1.0;"/><text fill="#000000" font-family="sans-serif" font-size="14" lengthAdjust="spacing" textLength="64" x="1360" y="511.0234">nonNull()</text></g><!--class AuthorizationService--><g id="elem_AuthorizationService"><rect codeLine="20" fill="#F1F1F1" height="97.4648" id="AuthorizationService" rx="2.5" ry="2.5" style="stroke:#181818;stroke-width:0.5;" width="277" x="178" y="429"/><ellipse cx="240.75" cy="445" fill="#ADD1B2" rx="11" ry="11" style="stroke:#181818;stroke-width:1.0;"/><path d="M243.7231,450.6431 Q243.1421,450.9419 242.5029,451.0913 Q241.8638,451.2407 241.1582,451.2407 Q238.6514,451.2407 237.3315,449.5889 Q236.0117,447.937 236.0117,444.8159 Q236.0117,441.6865 237.3315,440.0347 Q238.6514,438.3828 241.1582,438.3828 Q241.8638,438.3828 242.5112,438.5322 Q243.1587,438.6816 243.7231,438.9805 L243.7231,441.7031 Q243.0923,441.1221 242.4988,440.8523 Q241.9053,440.5825 241.2744,440.5825 Q239.9297,440.5825 239.2449,441.6492 Q238.5601,442.7158 238.5601,444.8159 Q238.5601,446.9077 239.2449,447.9744 Q239.9297,449.041 241.2744,449.041 Q241.9053,449.041 242.4988,448.7712 Q243.0923,448.5015 243.7231,447.9204 Z " fill="#000000"/><text fill="#000000" font-family="sans-serif" font-size="14" lengthAdjust="spacing" textLength="143" x="261.25" y="450.291">AuthorizationService</text><line style="stroke:#181818;stroke-width:0.5;" x1="179" x2="454" y1="461" y2="461"/><line style="stroke:#181818;stroke-width:0.5;" x1="179" x2="454" y1="469" y2="469"/><ellipse cx="189" cy="482.7441" fill="#84BE84" rx="3" ry="3" style="stroke:#038048;stroke-width:1.0;"/><text fill="#000000" font-family="sans-serif" font-size="14" lengthAdjust="spacing" textLength="251" x="198" y="486.5352">ensureAuthenticatedUserHasAnyOf()</text><ellipse cx="189" cy="499.2324" fill="#84BE84" rx="3" ry="3" style="stroke:#038048;stroke-width:1.0;"/><text fill="#000000" font-family="sans-serif" font-size="14" lengthAdjust="spacing" textLength="61" x="198" y="503.0234">session()</text><ellipse cx="189" cy="515.7207" fill="#84BE84" rx="3" ry="3" style="stroke:#038048;stroke-width:1.0;"/><text fill="#000000" font-family="sans-serif" font-size="14" lengthAdjust="spacing" textLength="37" x="198" y="519.5117">info()</text></g><!--class Logger--><g id="elem_Logger"><rect codeLine="26" fill="#F1F1F1" height="64.4883" id="Logger" rx="2.5" ry="2.5" style="stroke:#181818;stroke-width:0.5;" width="80" x="448.5" y="586"/><ellipse cx="463.5" cy="602" fill="#ADD1B2" rx="11" ry="11" style="stroke:#181818;stroke-width:1.0;"/><path d="M466.4731,607.6431 Q465.8921,607.9419 465.2529,608.0913 Q464.6138,608.2407 463.9082,608.2407 Q461.4014,608.2407 460.0815,606.5889 Q458.7617,604.937 458.7617,601.8159 Q458.7617,598.6865 460.0815,597.0347 Q461.4014,595.3828 463.9082,595.3828 Q464.6138,595.3828 465.2612,595.5322 Q465.9087,595.6816 466.4731,595.9805 L466.4731,598.7031 Q465.8423,598.1221 465.2488,597.8523 Q464.6553,597.5825 464.0244,597.5825 Q462.6797,597.5825 461.9949,598.6492 Q461.3101,599.7158 461.3101,601.8159 Q461.3101,603.9077 461.9949,604.9744 Q462.6797,606.041 464.0244,606.041 Q464.6553,606.041 465.2488,605.7712 Q465.8423,605.5015 466.4731,604.9204 Z " fill="#000000"/><text fill="#000000" font-family="sans-serif" font-size="14" lengthAdjust="spacing" textLength="48" x="477.5" y="607.291">Logger</text><line style="stroke:#181818;stroke-width:0.5;" x1="449.5" x2="527.5" y1="618" y2="618"/><line style="stroke:#181818;stroke-width:0.5;" x1="449.5" x2="527.5" y1="626" y2="626"/><ellipse cx="459.5" cy="639.7441" fill="#84BE84" rx="3" ry="3" style="stroke:#038048;stroke-width:1.0;"/><text fill="#000000" font-family="sans-serif" font-size="14" lengthAdjust="spacing" textLength="37" x="468.5" y="643.5352">info()</text></g><!--class UnauthenticatedException--><g id="elem_UnauthenticatedException"><rect codeLine="30" fill="#F1F1F1" height="64.4883" id="UnauthenticatedException" rx="2.5" ry="2.5" style="stroke:#181818;stroke-width:0.5;" width="213" x="7" y="288.5"/><ellipse cx="22" cy="304.5" fill="#ADD1B2" rx="11" ry="11" style="stroke:#181818;stroke-width:1.0;"/><path d="M24.9731,310.1431 Q24.3921,310.4419 23.7529,310.5913 Q23.1138,310.7407 22.4082,310.7407 Q19.9014,310.7407 18.5815,309.0889 Q17.2617,307.437 17.2617,304.3159 Q17.2617,301.1865 18.5815,299.5347 Q19.9014,297.8828 22.4082,297.8828 Q23.1138,297.8828 23.7612,298.0322 Q24.4087,298.1816 24.9731,298.4805 L24.9731,301.2031 Q24.3423,300.6221 23.7488,300.3523 Q23.1553,300.0825 22.5244,300.0825 Q21.1797,300.0825 20.4949,301.1492 Q19.8101,302.2158 19.8101,304.3159 Q19.8101,306.4077 20.4949,307.4744 Q21.1797,308.541 22.5244,308.541 Q23.1553,308.541 23.7488,308.2712 Q24.3423,308.0015 24.9731,307.4204 Z " fill="#000000"/><text fill="#000000" font-family="sans-serif" font-size="14" lengthAdjust="spacing" textLength="181" x="36" y="309.791">UnauthenticatedException</text><line style="stroke:#181818;stroke-width:0.5;" x1="8" x2="219" y1="320.5" y2="320.5"/><line style="stroke:#181818;stroke-width:0.5;" x1="8" x2="219" y1="328.5" y2="328.5"/><ellipse cx="18" cy="342.2441" fill="#84BE84" rx="3" ry="3" style="stroke:#038048;stroke-width:1.0;"/><text fill="#000000" font-family="sans-serif" font-size="14" lengthAdjust="spacing" textLength="38" x="27" y="346.0352">new()</text></g><!--class Optional--><g id="elem_Optional"><rect codeLine="34" fill="#F1F1F1" height="97.4648" id="Optional" rx="2.5" ry="2.5" style="stroke:#181818;stroke-width:0.5;" width="122" x="255.5" y="272"/><ellipse cx="284.45" cy="288" fill="#ADD1B2" rx="11" ry="11" style="stroke:#181818;stroke-width:1.0;"/><path d="M287.4231,293.6431 Q286.8421,293.9419 286.2029,294.0913 Q285.5638,294.2407 284.8582,294.2407 Q282.3514,294.2407 281.0315,292.5889 Q279.7117,290.937 279.7117,287.8159 Q279.7117,284.6865 281.0315,283.0347 Q282.3514,281.3828 284.8582,281.3828 Q285.5638,281.3828 286.2112,281.5322 Q286.8587,281.6816 287.4231,281.9805 L287.4231,284.7031 Q286.7923,284.1221 286.1988,283.8523 Q285.6053,283.5825 284.9744,283.5825 Q283.6297,283.5825 282.9449,284.6492 Q282.2601,285.7158 282.2601,287.8159 Q282.2601,289.9077 282.9449,290.9744 Q283.6297,292.041 284.9744,292.041 Q285.6053,292.041 286.1988,291.7712 Q286.7923,291.5015 287.4231,290.9204 Z " fill="#000000"/><text fill="#000000" font-family="sans-serif" font-size="14" lengthAdjust="spacing" textLength="59" x="301.55" y="293.291">Optional</text><line style="stroke:#181818;stroke-width:0.5;" x1="256.5" x2="376.5" y1="304" y2="304"/><line style="stroke:#181818;stroke-width:0.5;" x1="256.5" x2="376.5" y1="312" y2="312"/><ellipse cx="266.5" cy="325.7441" fill="#84BE84" rx="3" ry="3" style="stroke:#038048;stroke-width:1.0;"/><text fill="#000000" font-family="sans-serif" font-size="14" lengthAdjust="spacing" textLength="80" x="275.5" y="329.5352">ofNullable()</text><ellipse cx="266.5" cy="342.2324" fill="#84BE84" rx="3" ry="3" style="stroke:#038048;stroke-width:1.0;"/><text fill="#000000" font-family="sans-serif" font-size="14" lengthAdjust="spacing" textLength="96" x="275.5" y="346.0234">orElseThrow()</text><ellipse cx="266.5" cy="358.7207" fill="#84BE84" rx="3" ry="3" style="stroke:#038048;stroke-width:1.0;"/><text fill="#000000" font-family="sans-serif" font-size="14" lengthAdjust="spacing" textLength="32" x="275.5" y="362.5117">get()</text></g><!--class UserSession--><g id="elem_UserSession"><rect codeLine="40" fill="#F1F1F1" height="48" id="UserSession" rx="2.5" ry="2.5" style="stroke:#181818;stroke-width:0.5;" width="115" x="490" y="453.5"/><ellipse cx="505" cy="469.5" fill="#ADD1B2" rx="11" ry="11" style="stroke:#181818;stroke-width:1.0;"/><path d="M507.9731,475.1431 Q507.3921,475.4419 506.7529,475.5913 Q506.1138,475.7407 505.4082,475.7407 Q502.9014,475.7407 501.5815,474.0889 Q500.2617,472.437 500.2617,469.3159 Q500.2617,466.1865 501.5815,464.5347 Q502.9014,462.8828 505.4082,462.8828 Q506.1138,462.8828 506.7612,463.0322 Q507.4087,463.1816 507.9731,463.4805 L507.9731,466.2031 Q507.3423,465.6221 506.7488,465.3523 Q506.1553,465.0825 505.5244,465.0825 Q504.1797,465.0825 503.4949,466.1492 Q502.8101,467.2158 502.8101,469.3159 Q502.8101,471.4077 503.4949,472.4744 Q504.1797,473.541 505.5244,473.541 Q506.1553,473.541 506.7488,473.2712 Q507.3423,473.0015 507.9731,472.4204 Z " fill="#000000"/><text fill="#000000" font-family="sans-serif" font-size="14" lengthAdjust="spacing" textLength="83" x="519" y="474.791">UserSession</text><line style="stroke:#181818;stroke-width:0.5;" x1="491" x2="604" y1="485.5" y2="485.5"/><line style="stroke:#181818;stroke-width:0.5;" x1="491" x2="604" y1="493.5" y2="493.5"/></g><!--class SystemUser--><g id="elem_SystemUser"><rect codeLine="42" fill="#F1F1F1" height="80.9766" id="SystemUser" rx="2.5" ry="2.5" style="stroke:#181818;stroke-width:0.5;" width="111" x="972" y="710"/><ellipse cx="987" cy="726" fill="#ADD1B2" rx="11" ry="11" style="stroke:#181818;stroke-width:1.0;"/><path d="M989.9731,731.6431 Q989.3921,731.9419 988.7529,732.0913 Q988.1138,732.2407 987.4082,732.2407 Q984.9014,732.2407 983.5815,730.5889 Q982.2617,728.937 982.2617,725.8159 Q982.2617,722.6865 983.5815,721.0347 Q984.9014,719.3828 987.4082,719.3828 Q988.1138,719.3828 988.7612,719.5322 Q989.4087,719.6816 989.9731,719.9805 L989.9731,722.7031 Q989.3423,722.1221 988.7488,721.8523 Q988.1553,721.5825 987.5244,721.5825 Q986.1797,721.5825 985.4949,722.6492 Q984.8101,723.7158 984.8101,725.8159 Q984.8101,727.9077 985.4949,728.9744 Q986.1797,730.041 987.5244,730.041 Q988.1553,730.041 988.7488,729.7712 Q989.3423,729.5015 989.9731,728.9204 Z " fill="#000000"/><text fill="#000000" font-family="sans-serif" font-size="14" lengthAdjust="spacing" textLength="79" x="1001" y="731.291">SystemUser</text><line style="stroke:#181818;stroke-width:0.5;" x1="973" x2="1082" y1="742" y2="742"/><line style="stroke:#181818;stroke-width:0.5;" x1="973" x2="1082" y1="750" y2="750"/><ellipse cx="983" cy="763.7441" fill="#84BE84" rx="3" ry="3" style="stroke:#038048;stroke-width:1.0;"/><text fill="#000000" font-family="sans-serif" font-size="14" lengthAdjust="spacing" textLength="60" x="992" y="767.5352">hasAny()</text><ellipse cx="983" cy="780.2324" fill="#84BE84" rx="3" ry="3" style="stroke:#038048;stroke-width:1.0;"/><text fill="#000000" font-family="sans-serif" font-size="14" lengthAdjust="spacing" textLength="47" x="992" y="784.0234">email()</text></g><!--class RoleSet--><g id="elem_RoleSet"><rect codeLine="47" fill="#F1F1F1" height="64.4883" id="RoleSet" rx="2.5" ry="2.5" style="stroke:#181818;stroke-width:0.5;" width="141" x="957" y="851"/><ellipse cx="998.1" cy="867" fill="#ADD1B2" rx="11" ry="11" style="stroke:#181818;stroke-width:1.0;"/><path d="M1001.0731,872.6431 Q1000.4921,872.9419 999.8529,873.0913 Q999.2138,873.2407 998.5082,873.2407 Q996.0014,873.2407 994.6815,871.5889 Q993.3617,869.937 993.3617,866.8159 Q993.3617,863.6865 994.6815,862.0347 Q996.0014,860.3828 998.5082,860.3828 Q999.2138,860.3828 999.8612,860.5322 Q1000.5087,860.6816 1001.0731,860.9805 L1001.0731,863.7031 Q1000.4423,863.1221 999.8488,862.8523 Q999.2553,862.5825 998.6244,862.5825 Q997.2797,862.5825 996.5949,863.6492 Q995.9101,864.7158 995.9101,866.8159 Q995.9101,868.9077 996.5949,869.9744 Q997.2797,871.041 998.6244,871.041 Q999.2553,871.041 999.8488,870.7712 Q1000.4423,870.5015 1001.0731,869.9204 Z " fill="#000000"/><text fill="#000000" font-family="sans-serif" font-size="14" lengthAdjust="spacing" textLength="51" x="1017.9" y="872.291">RoleSet</text><line style="stroke:#181818;stroke-width:0.5;" x1="958" x2="1097" y1="883" y2="883"/><line style="stroke:#181818;stroke-width:0.5;" x1="958" x2="1097" y1="891" y2="891"/><ellipse cx="968" cy="904.7441" fill="#84BE84" rx="3" ry="3" style="stroke:#038048;stroke-width:1.0;"/><text fill="#000000" font-family="sans-serif" font-size="14" lengthAdjust="spacing" textLength="115" x="977" y="908.5352">hasAssignment()</text></g><!--class RoleAssignment--><g id="elem_RoleAssignment"><rect codeLine="51" fill="#F1F1F1" height="80.9766" id="RoleAssignment" rx="2.5" ry="2.5" style="stroke:#181818;stroke-width:0.5;" width="143" x="956" y="975"/><ellipse cx="971" cy="991" fill="#ADD1B2" rx="11" ry="11" style="stroke:#181818;stroke-width:1.0;"/><path d="M973.9731,996.6431 Q973.3921,996.9419 972.7529,997.0913 Q972.1138,997.2407 971.4082,997.2407 Q968.9014,997.2407 967.5815,995.5889 Q966.2617,993.937 966.2617,990.8159 Q966.2617,987.6865 967.5815,986.0347 Q968.9014,984.3828 971.4082,984.3828 Q972.1138,984.3828 972.7612,984.5322 Q973.4087,984.6816 973.9731,984.9805 L973.9731,987.7031 Q973.3423,987.1221 972.7488,986.8523 Q972.1553,986.5825 971.5244,986.5825 Q970.1797,986.5825 969.4949,987.6492 Q968.8101,988.7158 968.8101,990.8159 Q968.8101,992.9077 969.4949,993.9744 Q970.1797,995.041 971.5244,995.041 Q972.1553,995.041 972.7488,994.7712 Q973.3423,994.5015 973.9731,993.9204 Z " fill="#000000"/><text fill="#000000" font-family="sans-serif" font-size="14" lengthAdjust="spacing" textLength="111" x="985" y="996.291">RoleAssignment</text><line style="stroke:#181818;stroke-width:0.5;" x1="957" x2="1098" y1="1007" y2="1007"/><line style="stroke:#181818;stroke-width:0.5;" x1="957" x2="1098" y1="1015" y2="1015"/><ellipse cx="967" cy="1028.7441" fill="#84BE84" rx="3" ry="3" style="stroke:#038048;stroke-width:1.0;"/><text fill="#000000" font-family="sans-serif" font-size="14" lengthAdjust="spacing" textLength="74" x="976" y="1032.5352">isExpired()</text><ellipse cx="967" cy="1045.2324" fill="#84BE84" rx="3" ry="3" style="stroke:#038048;stroke-width:1.0;"/><text fill="#000000" font-family="sans-serif" font-size="14" lengthAdjust="spacing" textLength="37" x="976" y="1049.0234">isOf()</text></g><!--class CourseRepository--><g id="elem_CourseRepository"><rect codeLine="56" fill="#F1F1F1" height="64.4883" id="CourseRepository" rx="2.5" ry="2.5" style="stroke:#181818;stroke-width:0.5;" width="154" x="1677.5" y="288.5"/><ellipse cx="1692.5" cy="304.5" fill="#ADD1B2" rx="11" ry="11" style="stroke:#181818;stroke-width:1.0;"/><path d="M1695.4731,310.1431 Q1694.8921,310.4419 1694.2529,310.5913 Q1693.6138,310.7407 1692.9082,310.7407 Q1690.4014,310.7407 1689.0815,309.0889 Q1687.7617,307.437 1687.7617,304.3159 Q1687.7617,301.1865 1689.0815,299.5347 Q1690.4014,297.8828 1692.9082,297.8828 Q1693.6138,297.8828 1694.2612,298.0322 Q1694.9087,298.1816 1695.4731,298.4805 L1695.4731,301.2031 Q1694.8423,300.6221 1694.2488,300.3523 Q1693.6553,300.0825 1693.0244,300.0825 Q1691.6797,300.0825 1690.9949,301.1492 Q1690.3101,302.2158 1690.3101,304.3159 Q1690.3101,306.4077 1690.9949,307.4744 Q1691.6797,308.541 1693.0244,308.541 Q1693.6553,308.541 1694.2488,308.2712 Q1694.8423,308.0015 1695.4731,307.4204 Z " fill="#000000"/><text fill="#000000" font-family="sans-serif" font-size="14" lengthAdjust="spacing" textLength="122" x="1706.5" y="309.791">CourseRepository</text><line style="stroke:#181818;stroke-width:0.5;" x1="1678.5" x2="1830.5" y1="320.5" y2="320.5"/><line style="stroke:#181818;stroke-width:0.5;" x1="1678.5" x2="1830.5" y1="328.5" y2="328.5"/><ellipse cx="1688.5" cy="342.2441" fill="#84BE84" rx="3" ry="3" style="stroke:#038048;stroke-width:1.0;"/><text fill="#000000" font-family="sans-serif" font-size="14" lengthAdjust="spacing" textLength="55" x="1697.5" y="346.0352">findAll()</text></g><!--class Course--><g id="elem_Course"><rect codeLine="60" fill="#F1F1F1" height="80.9766" id="Course" rx="2.5" ry="2.5" style="stroke:#181818;stroke-width:0.5;" width="96" x="1960.5" y="437"/><ellipse cx="1982.25" cy="453" fill="#ADD1B2" rx="11" ry="11" style="stroke:#181818;stroke-width:1.0;"/><path d="M1985.2231,458.6431 Q1984.6421,458.9419 1984.0029,459.0913 Q1983.3638,459.2407 1982.6582,459.2407 Q1980.1514,459.2407 1978.8315,457.5889 Q1977.5117,455.937 1977.5117,452.8159 Q1977.5117,449.6865 1978.8315,448.0347 Q1980.1514,446.3828 1982.6582,446.3828 Q1983.3638,446.3828 1984.0112,446.5322 Q1984.6587,446.6816 1985.2231,446.9805 L1985.2231,449.7031 Q1984.5923,449.1221 1983.9988,448.8523 Q1983.4053,448.5825 1982.7744,448.5825 Q1981.4297,448.5825 1980.7449,449.6492 Q1980.0601,450.7158 1980.0601,452.8159 Q1980.0601,454.9077 1980.7449,455.9744 Q1981.4297,457.041 1982.7744,457.041 Q1983.4053,457.041 1983.9988,456.7712 Q1984.5923,456.5015 1985.2231,455.9204 Z " fill="#000000"/><text fill="#000000" font-family="sans-serif" font-size="14" lengthAdjust="spacing" textLength="49" x="1997.75" y="458.291">Course</text><line style="stroke:#181818;stroke-width:0.5;" x1="1961.5" x2="2055.5" y1="469" y2="469"/><line style="stroke:#181818;stroke-width:0.5;" x1="1961.5" x2="2055.5" y1="477" y2="477"/><ellipse cx="1971.5" cy="490.7441" fill="#84BE84" rx="3" ry="3" style="stroke:#038048;stroke-width:1.0;"/><text fill="#000000" font-family="sans-serif" font-size="14" lengthAdjust="spacing" textLength="70" x="1980.5" y="494.5352">getValue()</text><ellipse cx="1971.5" cy="507.2324" fill="#84BE84" rx="3" ry="3" style="stroke:#038048;stroke-width:1.0;"/><text fill="#000000" font-family="sans-serif" font-size="14" lengthAdjust="spacing" textLength="65" x="1980.5" y="511.0234">toString()</text></g><!--class Code--><g id="elem_Code"><rect codeLine="65" fill="#F1F1F1" height="64.4883" id="Code" rx="2.5" ry="2.5" style="stroke:#181818;stroke-width:0.5;" width="96" x="2152.5" y="586"/><ellipse cx="2180.1" cy="602" fill="#ADD1B2" rx="11" ry="11" style="stroke:#181818;stroke-width:1.0;"/><path d="M2183.0731,607.6431 Q2182.4921,607.9419 2181.8529,608.0913 Q2181.2138,608.2407 2180.5082,608.2407 Q2178.0014,608.2407 2176.6815,606.5889 Q2175.3617,604.937 2175.3617,601.8159 Q2175.3617,598.6865 2176.6815,597.0347 Q2178.0014,595.3828 2180.5082,595.3828 Q2181.2138,595.3828 2181.8612,595.5322 Q2182.5087,595.6816 2183.0731,595.9805 L2183.0731,598.7031 Q2182.4423,598.1221 2181.8488,597.8523 Q2181.2553,597.5825 2180.6244,597.5825 Q2179.2797,597.5825 2178.5949,598.6492 Q2177.9101,599.7158 2177.9101,601.8159 Q2177.9101,603.9077 2178.5949,604.9744 Q2179.2797,606.041 2180.6244,606.041 Q2181.2553,606.041 2181.8488,605.7712 Q2182.4423,605.5015 2183.0731,604.9204 Z " fill="#000000"/><text fill="#000000" font-family="sans-serif" font-size="14" lengthAdjust="spacing" textLength="36" x="2196.9" y="607.291">Code</text><line style="stroke:#181818;stroke-width:0.5;" x1="2153.5" x2="2247.5" y1="618" y2="618"/><line style="stroke:#181818;stroke-width:0.5;" x1="2153.5" x2="2247.5" y1="626" y2="626"/><ellipse cx="2163.5" cy="639.7441" fill="#84BE84" rx="3" ry="3" style="stroke:#038048;stroke-width:1.0;"/><text fill="#000000" font-family="sans-serif" font-size="14" lengthAdjust="spacing" textLength="70" x="2172.5" y="643.5352">getValue()</text></g><!--class Title--><g id="elem_Title"><rect codeLine="69" fill="#F1F1F1" height="64.4883" id="Title" rx="2.5" ry="2.5" style="stroke:#181818;stroke-width:0.5;" width="96" x="2283.5" y="586"/><ellipse cx="2313.8" cy="602" fill="#ADD1B2" rx="11" ry="11" style="stroke:#181818;stroke-width:1.0;"/><path d="M2316.7731,607.6431 Q2316.1921,607.9419 2315.5529,608.0913 Q2314.9138,608.2407 2314.2082,608.2407 Q2311.7014,608.2407 2310.3815,606.5889 Q2309.0617,604.937 2309.0617,601.8159 Q2309.0617,598.6865 2310.3815,597.0347 Q2311.7014,595.3828 2314.2082,595.3828 Q2314.9138,595.3828 2315.5612,595.5322 Q2316.2087,595.6816 2316.7731,595.9805 L2316.7731,598.7031 Q2316.1423,598.1221 2315.5488,597.8523 Q2314.9553,597.5825 2314.3244,597.5825 Q2312.9797,597.5825 2312.2949,598.6492 Q2311.6101,599.7158 2311.6101,601.8159 Q2311.6101,603.9077 2312.2949,604.9744 Q2312.9797,606.041 2314.3244,606.041 Q2314.9553,606.041 2315.5488,605.7712 Q2316.1423,605.5015 2316.7731,604.9204 Z " fill="#000000"/><text fill="#000000" font-family="sans-serif" font-size="14" lengthAdjust="spacing" textLength="30" x="2331.2" y="607.291">Title</text><line style="stroke:#181818;stroke-width:0.5;" x1="2284.5" x2="2378.5" y1="618" y2="618"/><line style="stroke:#181818;stroke-width:0.5;" x1="2284.5" x2="2378.5" y1="626" y2="626"/><ellipse cx="2294.5" cy="639.7441" fill="#84BE84" rx="3" ry="3" style="stroke:#038048;stroke-width:1.0;"/><text fill="#000000" font-family="sans-serif" font-size="14" lengthAdjust="spacing" textLength="70" x="2303.5" y="643.5352">getValue()</text></g><!--class Name--><g id="elem_Name"><rect codeLine="73" fill="#F1F1F1" height="64.4883" id="Name" rx="2.5" ry="2.5" style="stroke:#181818;stroke-width:0.5;" width="96" x="2414.5" y="586"/><ellipse cx="2440.75" cy="602" fill="#ADD1B2" rx="11" ry="11" style="stroke:#181818;stroke-width:1.0;"/><path d="M2443.7231,607.6431 Q2443.1421,607.9419 2442.5029,608.0913 Q2441.8638,608.2407 2441.1582,608.2407 Q2438.6514,608.2407 2437.3315,606.5889 Q2436.0117,604.937 2436.0117,601.8159 Q2436.0117,598.6865 2437.3315,597.0347 Q2438.6514,595.3828 2441.1582,595.3828 Q2441.8638,595.3828 2442.5112,595.5322 Q2443.1587,595.6816 2443.7231,595.9805 L2443.7231,598.7031 Q2443.0923,598.1221 2442.4988,597.8523 Q2441.9053,597.5825 2441.2744,597.5825 Q2439.9297,597.5825 2439.2449,598.6492 Q2438.5601,599.7158 2438.5601,601.8159 Q2438.5601,603.9077 2439.2449,604.9744 Q2439.9297,606.041 2441.2744,606.041 Q2441.9053,606.041 2442.4988,605.7712 Q2443.0923,605.5015 2443.7231,604.9204 Z " fill="#000000"/><text fill="#000000" font-family="sans-serif" font-size="14" lengthAdjust="spacing" textLength="39" x="2457.25" y="607.291">Name</text><line style="stroke:#181818;stroke-width:0.5;" x1="2415.5" x2="2509.5" y1="618" y2="618"/><line style="stroke:#181818;stroke-width:0.5;" x1="2415.5" x2="2509.5" y1="626" y2="626"/><ellipse cx="2425.5" cy="639.7441" fill="#84BE84" rx="3" ry="3" style="stroke:#038048;stroke-width:1.0;"/><text fill="#000000" font-family="sans-serif" font-size="14" lengthAdjust="spacing" textLength="70" x="2434.5" y="643.5352">getValue()</text></g><!--class Description--><g id="elem_Description"><rect codeLine="77" fill="#F1F1F1" height="64.4883" id="Description" rx="2.5" ry="2.5" style="stroke:#181818;stroke-width:0.5;" width="110" x="1623.5" y="586"/><ellipse cx="1638.5" cy="602" fill="#ADD1B2" rx="11" ry="11" style="stroke:#181818;stroke-width:1.0;"/><path d="M1641.4731,607.6431 Q1640.8921,607.9419 1640.2529,608.0913 Q1639.6138,608.2407 1638.9082,608.2407 Q1636.4014,608.2407 1635.0815,606.5889 Q1633.7617,604.937 1633.7617,601.8159 Q1633.7617,598.6865 1635.0815,597.0347 Q1636.4014,595.3828 1638.9082,595.3828 Q1639.6138,595.3828 1640.2612,595.5322 Q1640.9087,595.6816 1641.4731,595.9805 L1641.4731,598.7031 Q1640.8423,598.1221 1640.2488,597.8523 Q1639.6553,597.5825 1639.0244,597.5825 Q1637.6797,597.5825 1636.9949,598.6492 Q1636.3101,599.7158 1636.3101,601.8159 Q1636.3101,603.9077 1636.9949,604.9744 Q1637.6797,606.041 1639.0244,606.041 Q1639.6553,606.041 1640.2488,605.7712 Q1640.8423,605.5015 1641.4731,604.9204 Z " fill="#000000"/><text fill="#000000" font-family="sans-serif" font-size="14" lengthAdjust="spacing" textLength="78" x="1652.5" y="607.291">Description</text><line style="stroke:#181818;stroke-width:0.5;" x1="1624.5" x2="1732.5" y1="618" y2="618"/><line style="stroke:#181818;stroke-width:0.5;" x1="1624.5" x2="1732.5" y1="626" y2="626"/><ellipse cx="1634.5" cy="639.7441" fill="#84BE84" rx="3" ry="3" style="stroke:#038048;stroke-width:1.0;"/><text fill="#000000" font-family="sans-serif" font-size="14" lengthAdjust="spacing" textLength="70" x="1643.5" y="643.5352">getValue()</text></g><!--class Capacity--><g id="elem_Capacity"><rect codeLine="81" fill="#F1F1F1" height="64.4883" id="Capacity" rx="2.5" ry="2.5" style="stroke:#181818;stroke-width:0.5;" width="96" x="1768.5" y="586"/><ellipse cx="1786.2" cy="602" fill="#ADD1B2" rx="11" ry="11" style="stroke:#181818;stroke-width:1.0;"/><path d="M1789.1731,607.6431 Q1788.5921,607.9419 1787.9529,608.0913 Q1787.3138,608.2407 1786.6082,608.2407 Q1784.1014,608.2407 1782.7815,606.5889 Q1781.4617,604.937 1781.4617,601.8159 Q1781.4617,598.6865 1782.7815,597.0347 Q1784.1014,595.3828 1786.6082,595.3828 Q1787.3138,595.3828 1787.9612,595.5322 Q1788.6087,595.6816 1789.1731,595.9805 L1789.1731,598.7031 Q1788.5423,598.1221 1787.9488,597.8523 Q1787.3553,597.5825 1786.7244,597.5825 Q1785.3797,597.5825 1784.6949,598.6492 Q1784.0101,599.7158 1784.0101,601.8159 Q1784.0101,603.9077 1784.6949,604.9744 Q1785.3797,606.041 1786.7244,606.041 Q1787.3553,606.041 1787.9488,605.7712 Q1788.5423,605.5015 1789.1731,604.9204 Z " fill="#000000"/><text fill="#000000" font-family="sans-serif" font-size="14" lengthAdjust="spacing" textLength="58" x="1800.8" y="607.291">Capacity</text><line style="stroke:#181818;stroke-width:0.5;" x1="1769.5" x2="1863.5" y1="618" y2="618"/><line style="stroke:#181818;stroke-width:0.5;" x1="1769.5" x2="1863.5" y1="626" y2="626"/><ellipse cx="1779.5" cy="639.7441" fill="#84BE84" rx="3" ry="3" style="stroke:#038048;stroke-width:1.0;"/><text fill="#000000" font-family="sans-serif" font-size="14" lengthAdjust="spacing" textLength="70" x="1788.5" y="643.5352">getValue()</text></g><!--class Enum--><g id="elem_Enum"><rect codeLine="85" fill="#F1F1F1" height="64.4883" id="Enum" rx="2.5" ry="2.5" style="stroke:#181818;stroke-width:0.5;" width="91" x="1900" y="586"/><ellipse cx="1924" cy="602" fill="#ADD1B2" rx="11" ry="11" style="stroke:#181818;stroke-width:1.0;"/><path d="M1926.9731,607.6431 Q1926.3921,607.9419 1925.7529,608.0913 Q1925.1138,608.2407 1924.4082,608.2407 Q1921.9014,608.2407 1920.5815,606.5889 Q1919.2617,604.937 1919.2617,601.8159 Q1919.2617,598.6865 1920.5815,597.0347 Q1921.9014,595.3828 1924.4082,595.3828 Q1925.1138,595.3828 1925.7612,595.5322 Q1926.4087,595.6816 1926.9731,595.9805 L1926.9731,598.7031 Q1926.3423,598.1221 1925.7488,597.8523 Q1925.1553,597.5825 1924.5244,597.5825 Q1923.1797,597.5825 1922.4949,598.6492 Q1921.8101,599.7158 1921.8101,601.8159 Q1921.8101,603.9077 1922.4949,604.9744 Q1923.1797,606.041 1924.5244,606.041 Q1925.1553,606.041 1925.7488,605.7712 Q1926.3423,605.5015 1926.9731,604.9204 Z " fill="#000000"/><text fill="#000000" font-family="sans-serif" font-size="14" lengthAdjust="spacing" textLength="39" x="1940" y="607.291">Enum</text><line style="stroke:#181818;stroke-width:0.5;" x1="1901" x2="1990" y1="618" y2="618"/><line style="stroke:#181818;stroke-width:0.5;" x1="1901" x2="1990" y1="626" y2="626"/><ellipse cx="1911" cy="639.7441" fill="#84BE84" rx="3" ry="3" style="stroke:#038048;stroke-width:1.0;"/><text fill="#000000" font-family="sans-serif" font-size="14" lengthAdjust="spacing" textLength="65" x="1920" y="643.5352">toString()</text></g><!--class Object--><g id="elem_Object"><rect codeLine="89" fill="#F1F1F1" height="64.4883" id="Object" rx="2.5" ry="2.5" style="stroke:#181818;stroke-width:0.5;" width="91" x="2026" y="586"/><ellipse cx="2047.75" cy="602" fill="#ADD1B2" rx="11" ry="11" style="stroke:#181818;stroke-width:1.0;"/><path d="M2050.7231,607.6431 Q2050.1421,607.9419 2049.5029,608.0913 Q2048.8638,608.2407 2048.1582,608.2407 Q2045.6514,608.2407 2044.3315,606.5889 Q2043.0117,604.937 2043.0117,601.8159 Q2043.0117,598.6865 2044.3315,597.0347 Q2045.6514,595.3828 2048.1582,595.3828 Q2048.8638,595.3828 2049.5112,595.5322 Q2050.1587,595.6816 2050.7231,595.9805 L2050.7231,598.7031 Q2050.0923,598.1221 2049.4988,597.8523 Q2048.9053,597.5825 2048.2744,597.5825 Q2046.9297,597.5825 2046.2449,598.6492 Q2045.5601,599.7158 2045.5601,601.8159 Q2045.5601,603.9077 2046.2449,604.9744 Q2046.9297,606.041 2048.2744,606.041 Q2048.9053,606.041 2049.4988,605.7712 Q2050.0923,605.5015 2050.7231,604.9204 Z " fill="#000000"/><text fill="#000000" font-family="sans-serif" font-size="14" lengthAdjust="spacing" textLength="44" x="2063.25" y="607.291">Object</text><line style="stroke:#181818;stroke-width:0.5;" x1="2027" x2="2116" y1="618" y2="618"/><line style="stroke:#181818;stroke-width:0.5;" x1="2027" x2="2116" y1="626" y2="626"/><ellipse cx="2037" cy="639.7441" fill="#84BE84" rx="3" ry="3" style="stroke:#038048;stroke-width:1.0;"/><text fill="#000000" font-family="sans-serif" font-size="14" lengthAdjust="spacing" textLength="65" x="2046" y="643.5352">toString()</text></g><!--class PrintStream--><g id="elem_PrintStream"><rect codeLine="93" fill="#F1F1F1" height="64.4883" id="PrintStream" rx="2.5" ry="2.5" style="stroke:#181818;stroke-width:0.5;" width="112" x="412.5" y="288.5"/><ellipse cx="427.5" cy="304.5" fill="#ADD1B2" rx="11" ry="11" style="stroke:#181818;stroke-width:1.0;"/><path d="M430.4731,310.1431 Q429.8921,310.4419 429.2529,310.5913 Q428.6138,310.7407 427.9082,310.7407 Q425.4014,310.7407 424.0815,309.0889 Q422.7617,307.437 422.7617,304.3159 Q422.7617,301.1865 424.0815,299.5347 Q425.4014,297.8828 427.9082,297.8828 Q428.6138,297.8828 429.2612,298.0322 Q429.9087,298.1816 430.4731,298.4805 L430.4731,301.2031 Q429.8423,300.6221 429.2488,300.3523 Q428.6553,300.0825 428.0244,300.0825 Q426.6797,300.0825 425.9949,301.1492 Q425.3101,302.2158 425.3101,304.3159 Q425.3101,306.4077 425.9949,307.4744 Q426.6797,308.541 428.0244,308.541 Q428.6553,308.541 429.2488,308.2712 Q429.8423,308.0015 430.4731,307.4204 Z " fill="#000000"/><text fill="#000000" font-family="sans-serif" font-size="14" lengthAdjust="spacing" textLength="80" x="441.5" y="309.791">PrintStream</text><line style="stroke:#181818;stroke-width:0.5;" x1="413.5" x2="523.5" y1="320.5" y2="320.5"/><line style="stroke:#181818;stroke-width:0.5;" x1="413.5" x2="523.5" y1="328.5" y2="328.5"/><ellipse cx="423.5" cy="342.2441" fill="#84BE84" rx="3" ry="3" style="stroke:#038048;stroke-width:1.0;"/><text fill="#000000" font-family="sans-serif" font-size="14" lengthAdjust="spacing" textLength="56" x="432.5" y="346.0352">println()</text></g><!--class Console--><g id="elem_Console"><rect codeLine="97" fill="#F1F1F1" height="64.4883" id="Console" rx="2.5" ry="2.5" style="stroke:#181818;stroke-width:0.5;" width="116" x="559.5" y="288.5"/><ellipse cx="587.1" cy="304.5" fill="#ADD1B2" rx="11" ry="11" style="stroke:#181818;stroke-width:1.0;"/><path d="M590.0731,310.1431 Q589.4921,310.4419 588.8529,310.5913 Q588.2138,310.7407 587.5082,310.7407 Q585.0014,310.7407 583.6815,309.0889 Q582.3617,307.437 582.3617,304.3159 Q582.3617,301.1865 583.6815,299.5347 Q585.0014,297.8828 587.5082,297.8828 Q588.2138,297.8828 588.8612,298.0322 Q589.5087,298.1816 590.0731,298.4805 L590.0731,301.2031 Q589.4423,300.6221 588.8488,300.3523 Q588.2553,300.0825 587.6244,300.0825 Q586.2797,300.0825 585.5949,301.1492 Q584.9101,302.2158 584.9101,304.3159 Q584.9101,306.4077 585.5949,307.4744 Q586.2797,308.541 587.6244,308.541 Q588.2553,308.541 588.8488,308.2712 Q589.4423,308.0015 590.0731,307.4204 Z " fill="#000000"/><text fill="#000000" font-family="sans-serif" font-size="14" lengthAdjust="spacing" textLength="56" x="603.9" y="309.791">Console</text><line style="stroke:#181818;stroke-width:0.5;" x1="560.5" x2="674.5" y1="320.5" y2="320.5"/><line style="stroke:#181818;stroke-width:0.5;" x1="560.5" x2="674.5" y1="328.5" y2="328.5"/><ellipse cx="570.5" cy="342.2441" fill="#84BE84" rx="3" ry="3" style="stroke:#038048;stroke-width:1.0;"/><text fill="#000000" font-family="sans-serif" font-size="14" lengthAdjust="spacing" textLength="90" x="579.5" y="346.0352">readInteger()</text></g><!--class Iterable--><g id="elem_Iterable"><rect codeLine="101" fill="#F1F1F1" height="64.4883" id="Iterable" rx="2.5" ry="2.5" style="stroke:#181818;stroke-width:0.5;" width="87" x="711" y="288.5"/><ellipse cx="727.35" cy="304.5" fill="#ADD1B2" rx="11" ry="11" style="stroke:#181818;stroke-width:1.0;"/><path d="M730.3231,310.1431 Q729.7421,310.4419 729.1029,310.5913 Q728.4638,310.7407 727.7582,310.7407 Q725.2514,310.7407 723.9315,309.0889 Q722.6117,307.437 722.6117,304.3159 Q722.6117,301.1865 723.9315,299.5347 Q725.2514,297.8828 727.7582,297.8828 Q728.4638,297.8828 729.1112,298.0322 Q729.7587,298.1816 730.3231,298.4805 L730.3231,301.2031 Q729.6923,300.6221 729.0988,300.3523 Q728.5053,300.0825 727.8744,300.0825 Q726.5297,300.0825 725.8449,301.1492 Q725.1601,302.2158 725.1601,304.3159 Q725.1601,306.4077 725.8449,307.4744 Q726.5297,308.541 727.8744,308.541 Q728.5053,308.541 729.0988,308.2712 Q729.6923,308.0015 730.3231,307.4204 Z " fill="#000000"/><text fill="#000000" font-family="sans-serif" font-size="14" lengthAdjust="spacing" textLength="52" x="741.65" y="309.791">Iterable</text><line style="stroke:#181818;stroke-width:0.5;" x1="712" x2="797" y1="320.5" y2="320.5"/><line style="stroke:#181818;stroke-width:0.5;" x1="712" x2="797" y1="328.5" y2="328.5"/><ellipse cx="722" cy="342.2441" fill="#84BE84" rx="3" ry="3" style="stroke:#038048;stroke-width:1.0;"/><text fill="#000000" font-family="sans-serif" font-size="14" lengthAdjust="spacing" textLength="61" x="731" y="346.0352">iterator()</text></g><!--class Iterator--><g id="elem_Iterator"><rect codeLine="105" fill="#F1F1F1" height="80.9766" id="Iterator" rx="2.5" ry="2.5" style="stroke:#181818;stroke-width:0.5;" width="92" x="833.5" y="280"/><ellipse cx="852.55" cy="296" fill="#ADD1B2" rx="11" ry="11" style="stroke:#181818;stroke-width:1.0;"/><path d="M855.5231,301.6431 Q854.9421,301.9419 854.3029,302.0913 Q853.6638,302.2407 852.9582,302.2407 Q850.4514,302.2407 849.1315,300.5889 Q847.8117,298.937 847.8117,295.8159 Q847.8117,292.6865 849.1315,291.0347 Q850.4514,289.3828 852.9582,289.3828 Q853.6638,289.3828 854.3112,289.5322 Q854.9587,289.6816 855.5231,289.9805 L855.5231,292.7031 Q854.8923,292.1221 854.2988,291.8523 Q853.7053,291.5825 853.0744,291.5825 Q851.7297,291.5825 851.0449,292.6492 Q850.3601,293.7158 850.3601,295.8159 Q850.3601,297.9077 851.0449,298.9744 Q851.7297,300.041 853.0744,300.041 Q853.7053,300.041 854.2988,299.7712 Q854.8923,299.5015 855.5231,298.9204 Z " fill="#000000"/><text fill="#000000" font-family="sans-serif" font-size="14" lengthAdjust="spacing" textLength="51" x="867.45" y="301.291">Iterator</text><line style="stroke:#181818;stroke-width:0.5;" x1="834.5" x2="924.5" y1="312" y2="312"/><line style="stroke:#181818;stroke-width:0.5;" x1="834.5" x2="924.5" y1="320" y2="320"/><ellipse cx="844.5" cy="333.7441" fill="#84BE84" rx="3" ry="3" style="stroke:#038048;stroke-width:1.0;"/><text fill="#000000" font-family="sans-serif" font-size="14" lengthAdjust="spacing" textLength="66" x="853.5" y="337.5352">hasNext()</text><ellipse cx="844.5" cy="350.2324" fill="#84BE84" rx="3" ry="3" style="stroke:#038048;stroke-width:1.0;"/><text fill="#000000" font-family="sans-serif" font-size="14" lengthAdjust="spacing" textLength="41" x="853.5" y="354.0234">next()</text></g><!--class StudentRepository--><g id="elem_StudentRepository"><rect codeLine="110" fill="#F1F1F1" height="64.4883" id="StudentRepository" rx="2.5" ry="2.5" style="stroke:#181818;stroke-width:0.5;" width="168" x="640.5" y="445.5"/><ellipse cx="660" cy="461.5" fill="#ADD1B2" rx="11" ry="11" style="stroke:#181818;stroke-width:1.0;"/><path d="M662.9731,467.1431 Q662.3921,467.4419 661.7529,467.5913 Q661.1138,467.7407 660.4082,467.7407 Q657.9014,467.7407 656.5815,466.0889 Q655.2617,464.437 655.2617,461.3159 Q655.2617,458.1865 656.5815,456.5347 Q657.9014,454.8828 660.4082,454.8828 Q661.1138,454.8828 661.7612,455.0322 Q662.4087,455.1816 662.9731,455.4805 L662.9731,458.2031 Q662.3423,457.6221 661.7488,457.3523 Q661.1553,457.0825 660.5244,457.0825 Q659.1797,457.0825 658.4949,458.1492 Q657.8101,459.2158 657.8101,461.3159 Q657.8101,463.4077 658.4949,464.4744 Q659.1797,465.541 660.5244,465.541 Q661.1553,465.541 661.7488,465.2712 Q662.3423,465.0015 662.9731,464.4204 Z " fill="#000000"/><text fill="#000000" font-family="sans-serif" font-size="14" lengthAdjust="spacing" textLength="126" x="675" y="466.791">StudentRepository</text><line style="stroke:#181818;stroke-width:0.5;" x1="641.5" x2="807.5" y1="477.5" y2="477.5"/><line style="stroke:#181818;stroke-width:0.5;" x1="641.5" x2="807.5" y1="485.5" y2="485.5"/><ellipse cx="651.5" cy="499.2441" fill="#84BE84" rx="3" ry="3" style="stroke:#038048;stroke-width:1.0;"/><text fill="#000000" font-family="sans-serif" font-size="14" lengthAdjust="spacing" textLength="142" x="660.5" y="503.0352">findStudentByEmail()</text></g><!--class EmailAddress--><g id="elem_EmailAddress"><rect codeLine="114" fill="#F1F1F1" height="64.4883" id="EmailAddress" rx="2.5" ry="2.5" style="stroke:#181818;stroke-width:0.5;" width="125" x="844" y="445.5"/><ellipse cx="859" cy="461.5" fill="#ADD1B2" rx="11" ry="11" style="stroke:#181818;stroke-width:1.0;"/><path d="M861.9731,467.1431 Q861.3921,467.4419 860.7529,467.5913 Q860.1138,467.7407 859.4082,467.7407 Q856.9014,467.7407 855.5815,466.0889 Q854.2617,464.437 854.2617,461.3159 Q854.2617,458.1865 855.5815,456.5347 Q856.9014,454.8828 859.4082,454.8828 Q860.1138,454.8828 860.7612,455.0322 Q861.4087,455.1816 861.9731,455.4805 L861.9731,458.2031 Q861.3423,457.6221 860.7488,457.3523 Q860.1553,457.0825 859.5244,457.0825 Q858.1797,457.0825 857.4949,458.1492 Q856.8101,459.2158 856.8101,461.3159 Q856.8101,463.4077 857.4949,464.4744 Q858.1797,465.541 859.5244,465.541 Q860.1553,465.541 860.7488,465.2712 Q861.3423,465.0015 861.9731,464.4204 Z " fill="#000000"/><text fill="#000000" font-family="sans-serif" font-size="14" lengthAdjust="spacing" textLength="93" x="873" y="466.791">EmailAddress</text><line style="stroke:#181818;stroke-width:0.5;" x1="845" x2="968" y1="477.5" y2="477.5"/><line style="stroke:#181818;stroke-width:0.5;" x1="845" x2="968" y1="485.5" y2="485.5"/><ellipse cx="855" cy="499.2441" fill="#84BE84" rx="3" ry="3" style="stroke:#038048;stroke-width:1.0;"/><text fill="#000000" font-family="sans-serif" font-size="14" lengthAdjust="spacing" textLength="65" x="864" y="503.0352">toString()</text></g><!--class DomainRepository--><g id="elem_DomainRepository"><rect codeLine="118" fill="#F1F1F1" height="64.4883" id="DomainRepository" rx="2.5" ry="2.5" style="stroke:#181818;stroke-width:0.5;" width="158" x="1004.5" y="445.5"/><ellipse cx="1019.5" cy="461.5" fill="#ADD1B2" rx="11" ry="11" style="stroke:#181818;stroke-width:1.0;"/><path d="M1022.4731,467.1431 Q1021.8921,467.4419 1021.2529,467.5913 Q1020.6138,467.7407 1019.9082,467.7407 Q1017.4014,467.7407 1016.0815,466.0889 Q1014.7617,464.437 1014.7617,461.3159 Q1014.7617,458.1865 1016.0815,456.5347 Q1017.4014,454.8828 1019.9082,454.8828 Q1020.6138,454.8828 1021.2612,455.0322 Q1021.9087,455.1816 1022.4731,455.4805 L1022.4731,458.2031 Q1021.8423,457.6221 1021.2488,457.3523 Q1020.6553,457.0825 1020.0244,457.0825 Q1018.6797,457.0825 1017.9949,458.1492 Q1017.3101,459.2158 1017.3101,461.3159 Q1017.3101,463.4077 1017.9949,464.4744 Q1018.6797,465.541 1020.0244,465.541 Q1020.6553,465.541 1021.2488,465.2712 Q1021.8423,465.0015 1022.4731,464.4204 Z " fill="#000000"/><text fill="#000000" font-family="sans-serif" font-size="14" lengthAdjust="spacing" textLength="126" x="1033.5" y="466.791">DomainRepository</text><line style="stroke:#181818;stroke-width:0.5;" x1="1005.5" x2="1161.5" y1="477.5" y2="477.5"/><line style="stroke:#181818;stroke-width:0.5;" x1="1005.5" x2="1161.5" y1="485.5" y2="485.5"/><ellipse cx="1015.5" cy="499.2441" fill="#84BE84" rx="3" ry="3" style="stroke:#038048;stroke-width:1.0;"/><text fill="#000000" font-family="sans-serif" font-size="14" lengthAdjust="spacing" textLength="40" x="1024.5" y="503.0352">save()</text></g><!--class Enrollment--><g id="elem_Enrollment"><rect codeLine="122" fill="#F1F1F1" height="64.4883" id="Enrollment" rx="2.5" ry="2.5" style="stroke:#181818;stroke-width:0.5;" width="107" x="1198" y="445.5"/><ellipse cx="1213" cy="461.5" fill="#ADD1B2" rx="11" ry="11" style="stroke:#181818;stroke-width:1.0;"/><path d="M1215.9731,467.1431 Q1215.3921,467.4419 1214.7529,467.5913 Q1214.1138,467.7407 1213.4082,467.7407 Q1210.9014,467.7407 1209.5815,466.0889 Q1208.2617,464.437 1208.2617,461.3159 Q1208.2617,458.1865 1209.5815,456.5347 Q1210.9014,454.8828 1213.4082,454.8828 Q1214.1138,454.8828 1214.7612,455.0322 Q1215.4087,455.1816 1215.9731,455.4805 L1215.9731,458.2031 Q1215.3423,457.6221 1214.7488,457.3523 Q1214.1553,457.0825 1213.5244,457.0825 Q1212.1797,457.0825 1211.4949,458.1492 Q1210.8101,459.2158 1210.8101,461.3159 Q1210.8101,463.4077 1211.4949,464.4744 Q1212.1797,465.541 1213.5244,465.541 Q1214.1553,465.541 1214.7488,465.2712 Q1215.3423,465.0015 1215.9731,464.4204 Z " fill="#000000"/><text fill="#000000" font-family="sans-serif" font-size="14" lengthAdjust="spacing" textLength="75" x="1227" y="466.791">Enrollment</text><line style="stroke:#181818;stroke-width:0.5;" x1="1199" x2="1304" y1="477.5" y2="477.5"/><line style="stroke:#181818;stroke-width:0.5;" x1="1199" x2="1304" y1="485.5" y2="485.5"/><ellipse cx="1209" cy="499.2441" fill="#84BE84" rx="3" ry="3" style="stroke:#038048;stroke-width:1.0;"/><text fill="#000000" font-family="sans-serif" font-size="14" lengthAdjust="spacing" textLength="38" x="1218" y="503.0352">new()</text></g><!--class ListCourseController--><g id="elem_ListCourseController"><rect fill="#F1F1F1" height="48" id="ListCourseController" rx="2.5" ry="2.5" style="stroke:#181818;stroke-width:0.5;" width="174" x="960.5" y="296.5"/><ellipse cx="975.5" cy="312.5" fill="#ADD1B2" rx="11" ry="11" style="stroke:#181818;stroke-width:1.0;"/><path d="M978.4731,318.1431 Q977.8921,318.4419 977.2529,318.5913 Q976.6138,318.7407 975.9082,318.7407 Q973.4014,318.7407 972.0815,317.0889 Q970.7617,315.437 970.7617,312.3159 Q970.7617,309.1865 972.0815,307.5347 Q973.4014,305.8828 975.9082,305.8828 Q976.6138,305.8828 977.2612,306.0322 Q977.9087,306.1816 978.4731,306.4805 L978.4731,309.2031 Q977.8423,308.6221 977.2488,308.3523 Q976.6553,308.0825 976.0244,308.0825 Q974.6797,308.0825 973.9949,309.1492 Q973.3101,310.2158 973.3101,312.3159 Q973.3101,314.4077 973.9949,315.4744 Q974.6797,316.541 976.0244,316.541 Q976.6553,316.541 977.2488,316.2712 Q977.8423,316.0015 978.4731,315.4204 Z " fill="#000000"/><text fill="#000000" font-family="sans-serif" font-size="14" lengthAdjust="spacing" textLength="142" x="989.5" y="317.791">ListCourseController</text><line style="stroke:#181818;stroke-width:0.5;" x1="961.5" x2="1133.5" y1="328.5" y2="328.5"/><line style="stroke:#181818;stroke-width:0.5;" x1="961.5" x2="1133.5" y1="336.5" y2="336.5"/></g><!--class UnauthorizedException--><g id="elem_UnauthorizedException"><rect fill="#F1F1F1" height="48" id="UnauthorizedException" rx="2.5" ry="2.5" style="stroke:#181818;stroke-width:0.5;" width="194" x="219.5" y="594"/><ellipse cx="234.5" cy="610" fill="#ADD1B2" rx="11" ry="11" style="stroke:#181818;stroke-width:1.0;"/><path d="M237.4731,615.6431 Q236.8921,615.9419 236.2529,616.0913 Q235.6138,616.2407 234.9082,616.2407 Q232.4014,616.2407 231.0815,614.5889 Q229.7617,612.937 229.7617,609.8159 Q229.7617,606.6865 231.0815,605.0347 Q232.4014,603.3828 234.9082,603.3828 Q235.6138,603.3828 236.2612,603.5322 Q236.9087,603.6816 237.4731,603.9805 L237.4731,606.7031 Q236.8423,606.1221 236.2488,605.8523 Q235.6553,605.5825 235.0244,605.5825 Q233.6797,605.5825 232.9949,606.6492 Q232.3101,607.7158 232.3101,609.8159 Q232.3101,611.9077 232.9949,612.9744 Q233.6797,614.041 235.0244,614.041 Q235.6553,614.041 236.2488,613.7712 Q236.8423,613.5015 237.4731,612.9204 Z " fill="#000000"/><text fill="#000000" font-family="sans-serif" font-size="14" lengthAdjust="spacing" textLength="162" x="248.5" y="615.291">UnauthorizedException</text><line style="stroke:#181818;stroke-width:0.5;" x1="220.5" x2="412.5" y1="626" y2="626"/><line style="stroke:#181818;stroke-width:0.5;" x1="220.5" x2="412.5" y1="634" y2="634"/></g><!--class RuntimeException--><g id="elem_RuntimeException"><rect fill="#F1F1F1" height="48" id="RuntimeException" rx="2.5" ry="2.5" style="stroke:#181818;stroke-width:0.5;" width="157" x="238" y="726.5"/><ellipse cx="253" cy="742.5" fill="#ADD1B2" rx="11" ry="11" style="stroke:#181818;stroke-width:1.0;"/><path d="M255.9731,748.1431 Q255.3921,748.4419 254.7529,748.5913 Q254.1138,748.7407 253.4082,748.7407 Q250.9014,748.7407 249.5815,747.0889 Q248.2617,745.437 248.2617,742.3159 Q248.2617,739.1865 249.5815,737.5347 Q250.9014,735.8828 253.4082,735.8828 Q254.1138,735.8828 254.7612,736.0322 Q255.4087,736.1816 255.9731,736.4805 L255.9731,739.2031 Q255.3423,738.6221 254.7488,738.3523 Q254.1553,738.0825 253.5244,738.0825 Q252.1797,738.0825 251.4949,739.1492 Q250.8101,740.2158 250.8101,742.3159 Q250.8101,744.4077 251.4949,745.4744 Q252.1797,746.541 253.5244,746.541 Q254.1553,746.541 254.7488,746.2712 Q255.3423,746.0015 255.9731,745.4204 Z " fill="#000000"/><text fill="#000000" font-family="sans-serif" font-size="14" lengthAdjust="spacing" textLength="125" x="267" y="747.791">RuntimeException</text><line style="stroke:#181818;stroke-width:0.5;" x1="239" x2="394" y1="758.5" y2="758.5"/><line style="stroke:#181818;stroke-width:0.5;" x1="239" x2="394" y1="766.5" y2="766.5"/></g><!--link Actor to RequestEnrollmentUI--><g id="link_Actor_RequestEnrollmentUI"><path codeLine="126" d="M879.5,55.03 C879.5,70.15 879.5,90.56 879.5,109.53 " fill="none" id="Actor-to-RequestEnrollmentUI" style="stroke:#181818;stroke-width:1.0;"/><polygon fill="#181818" points="879.5,114.84,883.5,105.84,879.5,109.84,875.5,105.84,879.5,114.84" style="stroke:#181818;stroke-width:1.0;"/></g><!--link RequestEnrollmentUI to EnrollmentBuilder--><g id="link_RequestEnrollmentUI_EnrollmentBuilder"><path codeLine="127" d="M967.55,197.17 C1021.17,217.59 1090.82,245.05 1151.5,272 C1156.02,274.01 1160.65,276.11 1165.3,278.27 " fill="none" id="RequestEnrollmentUI-to-EnrollmentBuilder" style="stroke:#181818;stroke-width:1.0;"/><polygon fill="#181818" points="1169.95,280.45,1163.4872,273.0182,1165.4194,278.3348,1160.1028,280.2671,1169.95,280.45" style="stroke:#181818;stroke-width:1.0;"/></g><!--link RequestEnrollmentUI to ListCourseController--><g id="link_RequestEnrollmentUI_ListCourseController"><path codeLine="128" d="M931.28,212.27 C960.01,238.78 994.68,270.77 1018.63,292.87 " fill="none" id="RequestEnrollmentUI-to-ListCourseController" style="stroke:#181818;stroke-width:1.0;"/><polygon fill="#181818" points="1022.38,296.33,1018.4755,287.2882,1018.7043,292.9404,1013.0521,293.1692,1022.38,296.33" style="stroke:#181818;stroke-width:1.0;"/></g><!--link EnrollmentBuilder to AuthzRegistry--><g id="link_EnrollmentBuilder_AuthzRegistry"><path codeLine="129" d="M1293.64,361.01 C1319.5,383.16 1351.77,410.79 1378.26,433.48 " fill="none" id="EnrollmentBuilder-to-AuthzRegistry" style="stroke:#181818;stroke-width:1.0;"/><polygon fill="#181818" points="1382.13,436.79,1377.8999,427.8959,1378.3337,433.536,1372.6935,433.9699,1382.13,436.79" style="stroke:#181818;stroke-width:1.0;"/></g><!--link EnrollmentBuilder to AuthorizationService--><g id="link_EnrollmentBuilder_AuthorizationService"><path codeLine="130" d="M1174.44,361.05 C1166.84,364.13 1159.11,366.86 1151.5,369 C859.83,450.92 769.9,371.23 472.5,429 C468.41,429.8 464.26,430.66 460.1,431.57 " fill="none" id="EnrollmentBuilder-to-AuthorizationService" style="stroke:#181818;stroke-width:1.0;"/><polygon fill="#181818" points="455.2,432.67,464.8588,434.5955,460.0779,431.5718,463.1016,426.7909,455.2,432.67" style="stroke:#181818;stroke-width:1.0;"/></g><!--link EnrollmentBuilder to UserSession--><g id="link_EnrollmentBuilder_UserSession"><path codeLine="131" d="M1173.84,361.07 C1166.43,364.1 1158.9,366.82 1151.5,369 C924.51,435.8 845.67,350.37 622.5,429 C608.26,434.02 593.93,442.15 581.67,450.28 " fill="none" id="EnrollmentBuilder-to-UserSession" style="stroke:#181818;stroke-width:1.0;"/><polygon fill="#181818" points="577.26,453.27,586.9565,451.5444,581.4026,450.4702,582.4768,444.9163,577.26,453.27" style="stroke:#181818;stroke-width:1.0;"/></g><!--link EnrollmentBuilder to SystemUser--><g id="link_EnrollmentBuilder_SystemUser"><path codeLine="132" d="M1325.31,326.98 C1393.13,336.36 1487.74,361.55 1534.5,429 C1559.06,464.43 1558.05,489.89 1534.5,526 C1433.78,680.47 1199.59,728.93 1088.31,743.52 " fill="none" id="EnrollmentBuilder-to-SystemUser" style="stroke:#181818;stroke-width:1.0;"/><polygon fill="#181818" points="1083.11,744.19,1092.5497,746.9993,1088.0685,743.547,1091.5208,739.0658,1083.11,744.19" style="stroke:#181818;stroke-width:1.0;"/></g><!--link EnrollmentBuilder to EmailAddress--><g id="link_EnrollmentBuilder_EmailAddress"><path codeLine="133" d="M1169.77,360.86 C1163.63,363.69 1157.48,366.44 1151.5,369 C1079.75,399.68 1057.02,395.6 986.5,429 C977.88,433.08 968.98,437.81 960.38,442.67 " fill="none" id="EnrollmentBuilder-to-EmailAddress" style="stroke:#181818;stroke-width:1.0;"/><polygon fill="#181818" points="955.64,445.38,965.4391,444.3912,959.9821,442.9008,961.4725,437.4438,955.64,445.38" style="stroke:#181818;stroke-width:1.0;"/></g><!--link EnrollmentBuilder to StudentRepository--><g id="link_EnrollmentBuilder_StudentRepository"><path codeLine="134" d="M1172.34,361.1 C1165.39,364.02 1158.38,366.71 1151.5,369 C1012.12,415.35 966.42,384.3 826.5,429 C814.26,432.91 801.58,437.95 789.49,443.27 " fill="none" id="EnrollmentBuilder-to-StudentRepository" style="stroke:#181818;stroke-width:1.0;"/><polygon fill="#181818" points="784.71,445.4,794.5588,445.3685,789.2725,443.3547,791.2864,438.0685,784.71,445.4" style="stroke:#181818;stroke-width:1.0;"/></g><!--link EnrollmentBuilder to Enrollment--><g id="link_EnrollmentBuilder_Enrollment"><path codeLine="135" d="M1248.52,361.01 C1249.15,385.36 1249.95,416.36 1250.56,440.11 " fill="none" id="EnrollmentBuilder-to-Enrollment" style="stroke:#181818;stroke-width:1.0;"/><polygon fill="#181818" points="1250.7,445.36,1254.4673,436.2602,1250.5715,440.3617,1246.47,436.4658,1250.7,445.36" style="stroke:#181818;stroke-width:1.0;"/></g><!--link EnrollmentBuilder to DomainRepository--><g id="link_EnrollmentBuilder_DomainRepository"><path codeLine="136" d="M1205.69,361.01 C1179.28,385.98 1145.48,417.92 1120.12,441.89 " fill="none" id="EnrollmentBuilder-to-DomainRepository" style="stroke:#181818;stroke-width:1.0;"/><polygon fill="#181818" points="1116.44,445.36,1125.7289,442.0863,1120.0743,441.926,1120.2345,436.2715,1116.44,445.36" style="stroke:#181818;stroke-width:1.0;"/></g><!--link RequestEnrollmentUI to CourseRepository--><g id="link_RequestEnrollmentUI_CourseRepository"><path codeLine="137" d="M967.81,180.14 C1137.48,210.2 1506.8,275.62 1671.89,304.87 " fill="none" id="RequestEnrollmentUI-to-CourseRepository" style="stroke:#181818;stroke-width:1.0;"/><polygon fill="#181818" points="1677.19,305.81,1669.0394,300.2812,1672.2688,304.9256,1667.6244,308.155,1677.19,305.81" style="stroke:#181818;stroke-width:1.0;"/></g><!--link RequestEnrollmentUI to PrintStream--><g id="link_RequestEnrollmentUI_PrintStream"><path codeLine="138" d="M791.27,185.57 C721.6,203.86 622.89,233.45 541.5,272 C533.2,275.93 524.73,280.67 516.63,285.62 " fill="none" id="RequestEnrollmentUI-to-PrintStream" style="stroke:#181818;stroke-width:1.0;"/><polygon fill="#181818" points="512.18,288.38,521.9341,287.0168,516.424,285.7364,517.7043,280.2264,512.18,288.38" style="stroke:#181818;stroke-width:1.0;"/></g><!--link RequestEnrollmentUI to Console--><g id="link_RequestEnrollmentUI_Console"><path codeLine="139" d="M795.81,212.05 C763.67,230.52 726.74,252.01 693.5,272 C686.32,276.32 678.8,280.92 671.4,285.49 " fill="none" id="RequestEnrollmentUI-to-Console" style="stroke:#181818;stroke-width:1.0;"/><polygon fill="#181818" points="666.81,288.33,676.5661,286.9815,671.058,285.6928,672.3466,280.1847,666.81,288.33" style="stroke:#181818;stroke-width:1.0;"/></g><!--link RequestEnrollmentUI to Iterable--><g id="link_RequestEnrollmentUI_Iterable"><path codeLine="140" d="M840.98,212.27 C822.2,235.55 800.03,263.05 782.83,284.37 " fill="none" id="RequestEnrollmentUI-to-Iterable" style="stroke:#181818;stroke-width:1.0;"/><polygon fill="#181818" points="779.68,288.27,788.4499,283.7879,782.8243,284.3824,782.2298,278.7569,779.68,288.27" style="stroke:#181818;stroke-width:1.0;"/></g><!--link RequestEnrollmentUI to Iterator--><g id="link_RequestEnrollmentUI_Iterator"><path codeLine="141" d="M879.5,212.27 C879.5,232.19 879.5,255.21 879.5,274.79 " fill="none" id="RequestEnrollmentUI-to-Iterator" style="stroke:#181818;stroke-width:1.0;"/><polygon fill="#181818" points="879.5,279.96,883.5,270.96,879.5,274.96,875.5,270.96,879.5,279.96" style="stroke:#181818;stroke-width:1.0;"/></g><!--link Optional to AuthorizationService--><g id="link_Optional_AuthorizationService"><path codeLine="142" d="M316.5,369.27 C316.5,386.44 316.5,405.91 316.5,423.49 " fill="none" id="Optional-to-AuthorizationService" style="stroke:#181818;stroke-width:1.0;"/><polygon fill="#181818" points="316.5,428.89,320.5,419.89,316.5,423.89,312.5,419.89,316.5,428.89" style="stroke:#181818;stroke-width:1.0;"/></g><!--link UnauthenticatedException to AuthorizationService--><g id="link_UnauthenticatedException_AuthorizationService"><path codeLine="143" d="M154.58,352.87 C181.97,373.78 218.58,401.73 250.06,425.77 " fill="none" id="UnauthenticatedException-to-AuthorizationService" style="stroke:#181818;stroke-width:1.0;"/><polygon fill="#181818" points="254.27,428.98,249.5587,420.3311,250.301,425.939,244.6931,426.6814,254.27,428.98" style="stroke:#181818;stroke-width:1.0;"/></g><!--link SystemUser to RoleSet--><g id="link_SystemUser_RoleSet"><path codeLine="144" d="M1027.5,791.01 C1027.5,808.41 1027.5,828.73 1027.5,845.74 " fill="none" id="SystemUser-to-RoleSet" style="stroke:#181818;stroke-width:1.0;"/><polygon fill="#181818" points="1027.5,850.91,1031.5,841.91,1027.5,845.91,1023.5,841.91,1027.5,850.91" style="stroke:#181818;stroke-width:1.0;"/></g><!--link RoleSet to RoleAssignment--><g id="link_RoleSet_RoleAssignment"><path codeLine="145" d="M1027.5,915.26 C1027.5,931.39 1027.5,951.36 1027.5,969.15 " fill="none" id="RoleSet-to-RoleAssignment" style="stroke:#181818;stroke-width:1.0;"/><polygon fill="#181818" points="1027.5,974.59,1031.5,965.59,1027.5,969.59,1023.5,965.59,1027.5,974.59" style="stroke:#181818;stroke-width:1.0;"/></g><!--link AuthorizationService to Logger--><g id="link_AuthorizationService_Logger"><path codeLine="146" d="M375.69,526.16 C398.84,544.8 424.86,565.76 446.07,582.84 " fill="none" id="AuthorizationService-to-Logger" style="stroke:#181818;stroke-width:1.0;"/><polygon fill="#181818" points="449.98,585.98,445.4627,577.2282,446.0798,582.8513,440.4568,583.4685,449.98,585.98" style="stroke:#181818;stroke-width:1.0;"/></g><!--link UnauthorizedException to SystemUser--><g id="link_UnauthorizedException_SystemUser"><path codeLine="147" d="M397.21,642.02 C408.35,644.89 419.68,647.63 430.5,650 C624.76,692.49 858.06,726.53 966.52,741.4 " fill="none" id="UnauthorizedException-to-SystemUser" style="stroke:#181818;stroke-width:1.0;"/><polygon fill="#181818" points="971.59,742.09,963.2083,736.9182,966.6352,741.4189,962.1346,744.8458,971.59,742.09" style="stroke:#181818;stroke-width:1.0;"/></g><!--link UnauthorizedException to RuntimeException--><g id="link_UnauthorizedException_RuntimeException"><path codeLine="148" d="M316.5,642.03 C316.5,664.07 316.5,697.38 316.5,721.06 " fill="none" id="UnauthorizedException-to-RuntimeException" style="stroke:#181818;stroke-width:1.0;"/><polygon fill="#181818" points="316.5,726.26,320.5,717.26,316.5,721.26,312.5,717.26,316.5,726.26" style="stroke:#181818;stroke-width:1.0;"/></g><!--link AuthorizationService to UnauthorizedException--><g id="link_AuthorizationService_UnauthorizedException"><path codeLine="149" d="M316.5,526.16 C316.5,546.87 316.5,570.44 316.5,588.38 " fill="none" id="AuthorizationService-to-UnauthorizedException" style="stroke:#181818;stroke-width:1.0;"/><polygon fill="#181818" points="316.5,593.75,320.5,584.75,316.5,588.75,312.5,584.75,316.5,593.75" style="stroke:#181818;stroke-width:1.0;"/></g><!--link CourseRepository to Course--><g id="link_CourseRepository_Course"><path codeLine="150" d="M1805.6,352.68 C1849.29,379.35 1911.93,417.57 1956.02,444.47 " fill="none" id="CourseRepository-to-Course" style="stroke:#181818;stroke-width:1.0;"/><polygon fill="#181818" points="1960.5,447.21,1954.892,439.1137,1956.229,444.6103,1950.7324,445.9473,1960.5,447.21" style="stroke:#181818;stroke-width:1.0;"/></g><!--link Course to Code--><g id="link_Course_Code"><path codeLine="151" d="M2056.95,513.45 C2086.39,534.68 2123.8,561.67 2153.05,582.77 " fill="none" id="Course-to-Code" style="stroke:#181818;stroke-width:1.0;"/><polygon fill="#181818" points="2157.31,585.84,2152.3537,577.3291,2153.2559,582.9136,2147.6714,583.8158,2157.31,585.84" style="stroke:#181818;stroke-width:1.0;"/></g><!--link Course to Title--><g id="link_Course_Title"><path codeLine="152" d="M2056.84,497.79 C2108.91,518.78 2194.05,553.66 2266.5,586 C2270.44,587.76 2274.5,589.61 2278.57,591.49 " fill="none" id="Course-to-Title" style="stroke:#181818;stroke-width:1.0;"/><polygon fill="#181818" points="2283.35,593.71,2276.859,586.3028,2278.8115,591.612,2273.5022,593.5644,2283.35,593.71" style="stroke:#181818;stroke-width:1.0;"/></g><!--link Course to Name--><g id="link_Course_Name"><path codeLine="153" d="M2056.66,488.94 C2131.02,505.69 2277.71,541.28 2397.5,586 C2401.46,587.48 2405.5,589.1 2409.54,590.82 " fill="none" id="Course-to-Name" style="stroke:#181818;stroke-width:1.0;"/><polygon fill="#181818" points="2414.28,592.86,2407.6023,585.6206,2409.6895,590.8784,2404.4317,592.9655,2414.28,592.86" style="stroke:#181818;stroke-width:1.0;"/></g><!--link Course to Description--><g id="link_Course_Description"><path codeLine="154" d="M1960.4,498.34 C1908.53,519.79 1823.55,555.06 1750.5,586 C1746.54,587.68 1742.45,589.42 1738.34,591.17 " fill="none" id="Course-to-Description" style="stroke:#181818;stroke-width:1.0;"/><polygon fill="#181818" points="1733.51,593.24,1743.3576,593.3972,1738.1109,591.2825,1740.2256,586.0358,1733.51,593.24" style="stroke:#181818;stroke-width:1.0;"/></g><!--link Course to Capacity--><g id="link_Course_Capacity"><path codeLine="155" d="M1960.05,513.45 C1930.61,534.68 1893.2,561.67 1863.95,582.77 " fill="none" id="Course-to-Capacity" style="stroke:#181818;stroke-width:1.0;"/><polygon fill="#181818" points="1859.69,585.84,1869.3286,583.8158,1863.7441,582.9136,1864.6463,577.3291,1859.69,585.84" style="stroke:#181818;stroke-width:1.0;"/></g><!--link Course to Enum--><g id="link_Course_Enum"><path codeLine="156" d="M1990.45,518.19 C1981.46,537.94 1970.68,561.63 1961.93,580.87 " fill="none" id="Course-to-Enum" style="stroke:#181818;stroke-width:1.0;"/><polygon fill="#181818" points="1959.76,585.66,1967.1087,579.1028,1961.8172,581.1028,1959.8171,575.8113,1959.76,585.66" style="stroke:#181818;stroke-width:1.0;"/></g><!--link Course to Object--><g id="link_Course_Object"><path codeLine="157" d="M2026.55,518.19 C2035.54,537.94 2046.32,561.63 2055.07,580.87 " fill="none" id="Course-to-Object" style="stroke:#181818;stroke-width:1.0;"/><polygon fill="#181818" points="2057.24,585.66,2057.1829,575.8113,2055.1828,581.1028,2049.8913,579.1028,2057.24,585.66" style="stroke:#181818;stroke-width:1.0;"/></g><!--SRC=[XLNBRjim4BphAtniKEGN2ZY9W1e8xCAAUsV4jSo28XsIIkmK_VSk7v8eIdHkukxiQ5ySrfnelLhNHggYgDrX3syTQ5CA9JblGPZ3PlMtMAs-KrcTvCUtE_lDcJQFibCQj3U0WrUcenY1fdyztSZpq35EGNao0HzV1AuxS_hSGuD_KbSVHD0a5ViaXabHWNfdDNWM8SMsuzp7HmGfslE0q9q2wyT_ifeOe0SDwYVHQt7T7JqbbgOnq1-OECeukMVPD7qfgUyWICnSNceusnJYmWVmpha8zqvvj5MGLnxAagha6bvEgkzx0vCUsQmhdsTlggxQG6iTdlBaYWgzRWdZSVnUSgZ0Z4YaQaIRJCAYHayeMfUNCrD0Gt-qQziGudTZ3sUf6UvMcD-H2RhcV0xqRYpkD-5TgDt8oYWccYcQph63zuKPViEz9UqDxnFeMh5eK4kWHt8cDJFNFA8KNUkzI_dlNlz0RVB-NsWmQ0OIICxMmCMq1qBBlav4qeqmWCiOOpO6bDsYC2jxmYdC46WRHh-5YmbtoNyDq70tbuOPN0_NCjqiPrXJgd0xy_K-IOI9b5cJTrYMaEGAETrQtT__M1AjOad8B7QcI5dayw1os7HZdGYU2vg5JjJg1YOLf0mqljZBYF6UPm3n178SwMHpL8Cr0qZdcEregWjPO7GJRf2vcv3rzxVWDi0-VOCAPyUK5VLiH2J4RaEzr1QzvFQsKLYBnGVBxQ5xRK8E5f4c42r37hJlCFiM1cF-VuiSnKpJnu46Nx3GoTcfScomEXoV8-MTy0IjZMrMNUEprzF_]--></g></svg>