<?xml version="1.0" encoding="us-ascii" standalone="no"?><svg xmlns="http://www.w3.org/2000/svg" xmlns:xlink="http://www.w3.org/1999/xlink" contentStyleType="text/css" height="637px" preserveAspectRatio="none" style="width:740px;height:637px;background:#FFFFFF;" version="1.1" viewBox="0 0 740 637" width="740px" zoomAndPan="magnify"><defs/><g><!--class Manager--><g id="elem_Manager"><rect codeLine="1" fill="#F1F1F1" height="48" id="Manager" rx="2.5" ry="2.5" style="stroke:#181818;stroke-width:0.5;" width="88" x="204" y="7"/><ellipse cx="219" cy="23" fill="#ADD1B2" rx="11" ry="11" style="stroke:#181818;stroke-width:1.0;"/><path d="M221.7656,18.875 Q221.9219,18.6563 222.1094,18.5469 Q222.2969,18.4375 222.5156,18.4375 Q222.8906,18.4375 223.125,18.7031 Q223.3594,18.9531 223.3594,19.5625 L223.3594,21.0156 Q223.3594,21.625 223.125,21.8906 Q222.8906,22.1563 222.5156,22.1563 Q222.1719,22.1563 221.9688,21.9531 Q221.7656,21.7656 221.6563,21.25 Q221.6094,20.8906 221.4219,20.7031 Q221.0938,20.3281 220.4844,20.1094 Q219.875,19.8906 219.25,19.8906 Q218.4844,19.8906 217.8438,20.2188 Q217.2188,20.5469 216.7188,21.2969 Q216.2344,22.0469 216.2344,23.0781 L216.2344,24.1719 Q216.2344,25.4063 217.125,26.2344 Q218.0156,27.0469 219.6094,27.0469 Q220.5469,27.0469 221.2031,26.7969 Q221.5938,26.6406 222.0156,26.2031 Q222.2813,25.9375 222.4219,25.8594 Q222.5781,25.7813 222.7813,25.7813 Q223.1094,25.7813 223.3594,26.0469 Q223.625,26.2969 223.625,26.6406 Q223.625,26.9844 223.2813,27.3906 Q222.7813,27.9688 221.9844,28.2969 Q220.9063,28.75 219.6094,28.75 Q218.0938,28.75 216.8906,28.125 Q215.9063,27.625 215.2188,26.5625 Q214.5313,25.4844 214.5313,24.2031 L214.5313,23.0469 Q214.5313,21.7188 215.1406,20.5781 Q215.7656,19.4219 216.8594,18.8125 Q217.9531,18.1875 219.1875,18.1875 Q219.9219,18.1875 220.5625,18.3594 Q221.2188,18.5156 221.7656,18.875 Z " fill="#000000"/><text fill="#000000" font-family="sans-serif" font-size="14" lengthAdjust="spacing" textLength="56" x="233" y="27.8535">Manager</text><line style="stroke:#181818;stroke-width:0.5;" x1="205" x2="291" y1="39" y2="39"/><line style="stroke:#181818;stroke-width:0.5;" x1="205" x2="291" y1="47" y2="47"/></g><!--class ShowAllCoursesUI--><g id="elem_ShowAllCoursesUI"><rect codeLine="4" fill="#F1F1F1" height="63.6406" id="ShowAllCoursesUI" rx="2.5" ry="2.5" style="stroke:#181818;stroke-width:0.5;" width="171" x="162.5" y="131"/><ellipse cx="188.75" cy="147" fill="#ADD1B2" rx="11" ry="11" style="stroke:#181818;stroke-width:1.0;"/><path d="M191.5156,142.875 Q191.6719,142.6563 191.8594,142.5469 Q192.0469,142.4375 192.2656,142.4375 Q192.6406,142.4375 192.875,142.7031 Q193.1094,142.9531 193.1094,143.5625 L193.1094,145.0156 Q193.1094,145.625 192.875,145.8906 Q192.6406,146.1563 192.2656,146.1563 Q191.9219,146.1563 191.7188,145.9531 Q191.5156,145.7656 191.4063,145.25 Q191.3594,144.8906 191.1719,144.7031 Q190.8438,144.3281 190.2344,144.1094 Q189.625,143.8906 189,143.8906 Q188.2344,143.8906 187.5938,144.2188 Q186.9688,144.5469 186.4688,145.2969 Q185.9844,146.0469 185.9844,147.0781 L185.9844,148.1719 Q185.9844,149.4063 186.875,150.2344 Q187.7656,151.0469 189.3594,151.0469 Q190.2969,151.0469 190.9531,150.7969 Q191.3438,150.6406 191.7656,150.2031 Q192.0313,149.9375 192.1719,149.8594 Q192.3281,149.7813 192.5313,149.7813 Q192.8594,149.7813 193.1094,150.0469 Q193.375,150.2969 193.375,150.6406 Q193.375,150.9844 193.0313,151.3906 Q192.5313,151.9688 191.7344,152.2969 Q190.6563,152.75 189.3594,152.75 Q187.8438,152.75 186.6406,152.125 Q185.6563,151.625 184.9688,150.5625 Q184.2813,149.4844 184.2813,148.2031 L184.2813,147.0469 Q184.2813,145.7188 184.8906,144.5781 Q185.5156,143.4219 186.6094,142.8125 Q187.7031,142.1875 188.9375,142.1875 Q189.6719,142.1875 190.3125,142.3594 Q190.9688,142.5156 191.5156,142.875 Z " fill="#000000"/><text fill="#000000" font-family="sans-serif" font-size="14" lengthAdjust="spacing" textLength="114" x="205.25" y="151.8535">ShowAllCoursesUI</text><line style="stroke:#181818;stroke-width:0.5;" x1="163.5" x2="332.5" y1="163" y2="163"/><line style="stroke:#181818;stroke-width:0.5;" x1="163.5" x2="332.5" y1="171" y2="171"/><ellipse cx="173.5" cy="184.3203" fill="#84BE84" rx="3" ry="3" style="stroke:#038048;stroke-width:1.0;"/><text fill="#000000" font-family="sans-serif" font-size="14" lengthAdjust="spacing" textLength="145" x="182.5" y="187.6738">displayCourses() : void</text></g><!--class ListCourseController--><g id="elem_ListCourseController"><rect codeLine="8" fill="#F1F1F1" height="63.6406" id="ListCourseController" rx="2.5" ry="2.5" style="stroke:#181818;stroke-width:0.5;" width="162" x="11" y="349"/><ellipse cx="26" cy="365" fill="#ADD1B2" rx="11" ry="11" style="stroke:#181818;stroke-width:1.0;"/><path d="M28.7656,360.875 Q28.9219,360.6563 29.1094,360.5469 Q29.2969,360.4375 29.5156,360.4375 Q29.8906,360.4375 30.125,360.7031 Q30.3594,360.9531 30.3594,361.5625 L30.3594,363.0156 Q30.3594,363.625 30.125,363.8906 Q29.8906,364.1563 29.5156,364.1563 Q29.1719,364.1563 28.9688,363.9531 Q28.7656,363.7656 28.6563,363.25 Q28.6094,362.8906 28.4219,362.7031 Q28.0938,362.3281 27.4844,362.1094 Q26.875,361.8906 26.25,361.8906 Q25.4844,361.8906 24.8438,362.2188 Q24.2188,362.5469 23.7188,363.2969 Q23.2344,364.0469 23.2344,365.0781 L23.2344,366.1719 Q23.2344,367.4063 24.125,368.2344 Q25.0156,369.0469 26.6094,369.0469 Q27.5469,369.0469 28.2031,368.7969 Q28.5938,368.6406 29.0156,368.2031 Q29.2813,367.9375 29.4219,367.8594 Q29.5781,367.7813 29.7813,367.7813 Q30.1094,367.7813 30.3594,368.0469 Q30.625,368.2969 30.625,368.6406 Q30.625,368.9844 30.2813,369.3906 Q29.7813,369.9688 28.9844,370.2969 Q27.9063,370.75 26.6094,370.75 Q25.0938,370.75 23.8906,370.125 Q22.9063,369.625 22.2188,368.5625 Q21.5313,367.4844 21.5313,366.2031 L21.5313,365.0469 Q21.5313,363.7188 22.1406,362.5781 Q22.7656,361.4219 23.8594,360.8125 Q24.9531,360.1875 26.1875,360.1875 Q26.9219,360.1875 27.5625,360.3594 Q28.2188,360.5156 28.7656,360.875 Z " fill="#000000"/><text fill="#000000" font-family="sans-serif" font-size="14" lengthAdjust="spacing" textLength="130" x="40" y="369.8535">ListCourseController</text><line style="stroke:#181818;stroke-width:0.5;" x1="12" x2="172" y1="381" y2="381"/><line style="stroke:#181818;stroke-width:0.5;" x1="12" x2="172" y1="389" y2="389"/><ellipse cx="22" cy="402.3203" fill="#84BE84" rx="3" ry="3" style="stroke:#038048;stroke-width:1.0;"/><text fill="#000000" font-family="sans-serif" font-size="14" lengthAdjust="spacing" textLength="118" x="31" y="405.6738">listCourses() : void</text></g><!--class Course--><g id="elem_Course"><rect codeLine="12" fill="#F1F1F1" height="220.0469" id="Course" rx="2.5" ry="2.5" style="stroke:#181818;stroke-width:0.5;" width="525" x="208.5" y="271"/><ellipse cx="443.75" cy="287" fill="#ADD1B2" rx="11" ry="11" style="stroke:#181818;stroke-width:1.0;"/><path d="M446.5156,282.875 Q446.6719,282.6563 446.8594,282.5469 Q447.0469,282.4375 447.2656,282.4375 Q447.6406,282.4375 447.875,282.7031 Q448.1094,282.9531 448.1094,283.5625 L448.1094,285.0156 Q448.1094,285.625 447.875,285.8906 Q447.6406,286.1563 447.2656,286.1563 Q446.9219,286.1563 446.7188,285.9531 Q446.5156,285.7656 446.4063,285.25 Q446.3594,284.8906 446.1719,284.7031 Q445.8438,284.3281 445.2344,284.1094 Q444.625,283.8906 444,283.8906 Q443.2344,283.8906 442.5938,284.2188 Q441.9688,284.5469 441.4688,285.2969 Q440.9844,286.0469 440.9844,287.0781 L440.9844,288.1719 Q440.9844,289.4063 441.875,290.2344 Q442.7656,291.0469 444.3594,291.0469 Q445.2969,291.0469 445.9531,290.7969 Q446.3438,290.6406 446.7656,290.2031 Q447.0313,289.9375 447.1719,289.8594 Q447.3281,289.7813 447.5313,289.7813 Q447.8594,289.7813 448.1094,290.0469 Q448.375,290.2969 448.375,290.6406 Q448.375,290.9844 448.0313,291.3906 Q447.5313,291.9688 446.7344,292.2969 Q445.6563,292.75 444.3594,292.75 Q442.8438,292.75 441.6406,292.125 Q440.6563,291.625 439.9688,290.5625 Q439.2813,289.4844 439.2813,288.2031 L439.2813,287.0469 Q439.2813,285.7188 439.8906,284.5781 Q440.5156,283.4219 441.6094,282.8125 Q442.7031,282.1875 443.9375,282.1875 Q444.6719,282.1875 445.3125,282.3594 Q445.9688,282.5156 446.5156,282.875 Z " fill="#000000"/><text fill="#000000" font-family="sans-serif" font-size="14" lengthAdjust="spacing" textLength="46" x="464.25" y="291.8535">Course</text><line style="stroke:#181818;stroke-width:0.5;" x1="209.5" x2="732.5" y1="303" y2="303"/><rect fill="none" height="6" style="stroke:#C82930;stroke-width:1.0;" width="6" x="216.5" y="313.3203"/><text fill="#000000" font-family="sans-serif" font-size="14" lengthAdjust="spacing" textLength="61" x="228.5" y="319.6738">Code : int</text><rect fill="none" height="6" style="stroke:#C82930;stroke-width:1.0;" width="6" x="216.5" y="328.9609"/><text fill="#000000" font-family="sans-serif" font-size="14" lengthAdjust="spacing" textLength="82" x="228.5" y="335.3145">name : string</text><rect fill="none" height="6" style="stroke:#C82930;stroke-width:1.0;" width="6" x="216.5" y="344.6016"/><text fill="#000000" font-family="sans-serif" font-size="14" lengthAdjust="spacing" textLength="116" x="228.5" y="350.9551">description : string</text><rect fill="none" height="6" style="stroke:#C82930;stroke-width:1.0;" width="6" x="216.5" y="360.2422"/><text fill="#000000" font-family="sans-serif" font-size="14" lengthAdjust="spacing" textLength="79" x="228.5" y="366.5957">capacity : int</text><rect fill="none" height="6" style="stroke:#C82930;stroke-width:1.0;" width="6" x="216.5" y="375.8828"/><text fill="#000000" font-family="sans-serif" font-size="14" lengthAdjust="spacing" textLength="94" x="228.5" y="382.2363">state : boolean</text><line style="stroke:#181818;stroke-width:0.5;" x1="209.5" x2="732.5" y1="389.2031" y2="389.2031"/><ellipse cx="219.5" cy="402.5234" fill="#84BE84" rx="3" ry="3" style="stroke:#038048;stroke-width:1.0;"/><text fill="#000000" font-family="sans-serif" font-size="14" lengthAdjust="spacing" textLength="499" x="228.5" y="405.877">Course(Code: int, name: string, description: string, Capacity: int,state: boolean)</text><ellipse cx="219.5" cy="418.1641" fill="#84BE84" rx="3" ry="3" style="stroke:#038048;stroke-width:1.0;"/><text fill="#000000" font-family="sans-serif" font-size="14" lengthAdjust="spacing" textLength="91" x="228.5" y="421.5176">getCode() : int</text><ellipse cx="219.5" cy="433.8047" fill="#84BE84" rx="3" ry="3" style="stroke:#038048;stroke-width:1.0;"/><text fill="#000000" font-family="sans-serif" font-size="14" lengthAdjust="spacing" textLength="113" x="228.5" y="437.1582">getName() : string</text><ellipse cx="219.5" cy="449.4453" fill="#84BE84" rx="3" ry="3" style="stroke:#038048;stroke-width:1.0;"/><text fill="#000000" font-family="sans-serif" font-size="14" lengthAdjust="spacing" textLength="148" x="228.5" y="452.7988">getDescription() : string</text><ellipse cx="219.5" cy="465.0859" fill="#84BE84" rx="3" ry="3" style="stroke:#038048;stroke-width:1.0;"/><text fill="#000000" font-family="sans-serif" font-size="14" lengthAdjust="spacing" textLength="112" x="228.5" y="468.4395">getCapacity() : int</text><ellipse cx="219.5" cy="480.7266" fill="#84BE84" rx="3" ry="3" style="stroke:#038048;stroke-width:1.0;"/><text fill="#000000" font-family="sans-serif" font-size="14" lengthAdjust="spacing" textLength="106" x="228.5" y="484.0801">toString() : string</text></g><!--class CourseRepository--><g id="elem_CourseRepository"><rect codeLine="26" fill="#F1F1F1" height="63.6406" id="CourseRepository" rx="2.5" ry="2.5" style="stroke:#181818;stroke-width:0.5;" width="170" x="7" y="567"/><ellipse cx="32.8" cy="583" fill="#ADD1B2" rx="11" ry="11" style="stroke:#181818;stroke-width:1.0;"/><path d="M35.5656,578.875 Q35.7219,578.6563 35.9094,578.5469 Q36.0969,578.4375 36.3156,578.4375 Q36.6906,578.4375 36.925,578.7031 Q37.1594,578.9531 37.1594,579.5625 L37.1594,581.0156 Q37.1594,581.625 36.925,581.8906 Q36.6906,582.1563 36.3156,582.1563 Q35.9719,582.1563 35.7688,581.9531 Q35.5656,581.7656 35.4563,581.25 Q35.4094,580.8906 35.2219,580.7031 Q34.8938,580.3281 34.2844,580.1094 Q33.675,579.8906 33.05,579.8906 Q32.2844,579.8906 31.6437,580.2188 Q31.0187,580.5469 30.5187,581.2969 Q30.0344,582.0469 30.0344,583.0781 L30.0344,584.1719 Q30.0344,585.4063 30.925,586.2344 Q31.8156,587.0469 33.4094,587.0469 Q34.3469,587.0469 35.0031,586.7969 Q35.3938,586.6406 35.8156,586.2031 Q36.0813,585.9375 36.2219,585.8594 Q36.3781,585.7813 36.5813,585.7813 Q36.9094,585.7813 37.1594,586.0469 Q37.425,586.2969 37.425,586.6406 Q37.425,586.9844 37.0813,587.3906 Q36.5813,587.9688 35.7844,588.2969 Q34.7063,588.75 33.4094,588.75 Q31.8937,588.75 30.6906,588.125 Q29.7062,587.625 29.0187,586.5625 Q28.3312,585.4844 28.3312,584.2031 L28.3312,583.0469 Q28.3312,581.7188 28.9406,580.5781 Q29.5656,579.4219 30.6594,578.8125 Q31.7531,578.1875 32.9875,578.1875 Q33.7219,578.1875 34.3625,578.3594 Q35.0188,578.5156 35.5656,578.875 Z " fill="#000000"/><text fill="#000000" font-family="sans-serif" font-size="14" lengthAdjust="spacing" textLength="114" x="49.2" y="587.8535">CourseRepository</text><line style="stroke:#181818;stroke-width:0.5;" x1="8" x2="176" y1="599" y2="599"/><line style="stroke:#181818;stroke-width:0.5;" x1="8" x2="176" y1="607" y2="607"/><ellipse cx="18" cy="620.3203" fill="#84BE84" rx="3" ry="3" style="stroke:#038048;stroke-width:1.0;"/><text fill="#000000" font-family="sans-serif" font-size="14" lengthAdjust="spacing" textLength="144" x="27" y="623.6738">findAll() : List&lt;Course&gt;</text></g><!--link Manager to ShowAllCoursesUI--><g id="link_Manager_ShowAllCoursesUI"><path codeLine="30" d="M248,55.24 C248,74.8 248,103.09 248,125.64 " fill="none" id="Manager-to-ShowAllCoursesUI" style="stroke:#181818;stroke-width:1.0;"/><polygon fill="#181818" points="248,130.65,252,121.65,248,125.65,244,121.65,248,130.65" style="stroke:#181818;stroke-width:1.0;"/><text fill="#000000" font-family="sans-serif" font-size="13" lengthAdjust="spacing" textLength="37" x="249" y="97.7686">shows</text></g><!--link ShowAllCoursesUI to ListCourseController--><g id="link_ShowAllCoursesUI_ListCourseController"><path codeLine="31" d="M162.32,176.94 C134.23,185.71 105.92,200.39 89,225 C65.09,259.78 71.6,310.09 80.23,343.87 " fill="none" id="ShowAllCoursesUI-to-ListCourseController" style="stroke:#181818;stroke-width:1.0;"/><polygon fill="#181818" points="81.51,348.73,83.0667,339.0049,80.227,343.8974,75.3345,341.0577,81.51,348.73" style="stroke:#181818;stroke-width:1.0;"/><text fill="#000000" font-family="sans-serif" font-size="13" lengthAdjust="spacing" textLength="114" x="90" y="237.7686">requests course list</text></g><!--link ListCourseController to ShowAllCoursesUI--><g id="link_ListCourseController_ShowAllCoursesUI"><path codeLine="33" d="M121.89,348.81 C146.98,321.68 182.82,280.6 209,241 C217.47,228.2 225.4,213.31 231.87,200.06 " fill="none" id="ListCourseController-to-ShowAllCoursesUI" style="stroke:#181818;stroke-width:1.0;"/><polygon fill="#181818" points="234.19,195.26,226.6762,201.6273,232.0171,199.7631,233.8812,205.104,234.19,195.26" style="stroke:#181818;stroke-width:1.0;"/><text fill="#000000" font-family="sans-serif" font-size="13" lengthAdjust="spacing" textLength="104" x="218" y="237.7686">returns course list</text></g><!--link ListCourseController to CourseRepository--><g id="link_ListCourseController_CourseRepository"><path codeLine="32" d="M92,413.41 C92,452.79 92,520.18 92,561.72 " fill="none" id="ListCourseController-to-CourseRepository" style="stroke:#181818;stroke-width:1.0;"/><polygon fill="#181818" points="92,566.9,96,557.9,92,561.9,88,557.9,92,566.9" style="stroke:#181818;stroke-width:1.0;"/><text fill="#000000" font-family="sans-serif" font-size="13" lengthAdjust="spacing" textLength="120" x="93" y="533.7686">retrieves course data</text></g><!--link ShowAllCoursesUI to Course--><g id="link_ShowAllCoursesUI_Course"><path codeLine="34" d="M293.67,195.01 C306.18,204.18 319.46,214.57 331,225 C345.51,238.11 360.11,252.58 374.14,267.25 " fill="none" id="ShowAllCoursesUI-to-Course" style="stroke:#181818;stroke-width:1.0;"/><polygon fill="#181818" points="377.69,270.98,374.3778,261.7048,374.241,267.36,368.5858,267.2232,377.69,270.98" style="stroke:#181818;stroke-width:1.0;"/><text fill="#000000" font-family="sans-serif" font-size="13" lengthAdjust="spacing" textLength="133" x="348" y="237.7686">displays course details</text></g><!--SRC=[TP9DJiGm38NtFKMMCs9wWGgDXCe62LWmuW0X2ILIY4li3geGToTE-ZVJqbsUxU_PjPMJYE99UjcO87wAtw9GIJfzmFUTSpLq0Gs-FiIOYD-DjjWwsG_wRYygSGQhvy97YvIZDNWAu5m2fs8tnROgSsJ8BMlG9gPOJ_djvIU_aOBrJPQqGHLiInRyLKJ9LYfB_HA098a9Rm3EI9yxofuxDakf1y4-8-mW5XQpM0_qN96u4tQVkOqXPgOfnmvOV8xq92wwPVr-zjaAZuwNF89JIbjMNFtD5zC2MeBGZpjujrx7nQOQtjLjJZnovNW7PNbS7q2qY18Mgm1dRswz4i5yTGO9XSgxvGCeDdCPicgP0N4iSpOJGKkI_nCscew4BlZB3ZP76Cwl4iE9pvQ6f7Nu1m00]--></g></svg>