<?xml version="1.0" encoding="us-ascii" standalone="no"?><svg xmlns="http://www.w3.org/2000/svg" xmlns:xlink="http://www.w3.org/1999/xlink" contentStyleType="text/css" height="350px" preserveAspectRatio="none" style="width:565px;height:350px;background:#FFFFFF;" version="1.1" viewBox="0 0 565 350" width="565px" zoomAndPan="magnify"><defs/><g><rect fill="#FFFFFF" height="141.5703" style="stroke:#181818;stroke-width:1.0;" width="10" x="136" y="111.1641"/><rect fill="#FFFFFF" height="56.5234" style="stroke:#181818;stroke-width:1.0;" width="10" x="282" y="139.6875"/><rect fill="#FFFFFF" height="14" style="stroke:#181818;stroke-width:1.0;" width="10" x="424" y="168.2109"/><rect fill="#FFFFFF" height="14" style="stroke:#181818;stroke-width:1.0;" width="10" x="524" y="224.7344"/><line style="stroke:#181818;stroke-width:0.5;stroke-dasharray:5.0,5.0;" x1="36" x2="36" y1="80.6406" y2="270.7344"/><line style="stroke:#181818;stroke-width:0.5;stroke-dasharray:5.0,5.0;" x1="141" x2="141" y1="80.6406" y2="270.7344"/><line style="stroke:#181818;stroke-width:0.5;stroke-dasharray:5.0,5.0;" x1="287" x2="287" y1="80.6406" y2="270.7344"/><line style="stroke:#181818;stroke-width:0.5;stroke-dasharray:5.0,5.0;" x1="429" x2="429" y1="80.6406" y2="270.7344"/><line style="stroke:#181818;stroke-width:0.5;stroke-dasharray:5.0,5.0;" x1="529" x2="529" y1="80.6406" y2="270.7344"/><text fill="#000000" font-family="sans-serif" font-size="14" lengthAdjust="spacing" textLength="56" x="5" y="77.6738">Manager</text><ellipse cx="36" cy="13.5" fill="#E2E2F0" rx="8" ry="8" style="stroke:#181818;stroke-width:0.5;"/><path d="M36,21.5 L36,48.5 M23,29.5 L49,29.5 M36,48.5 L23,63.5 M36,48.5 L49,63.5 " fill="none" style="stroke:#181818;stroke-width:0.5;"/><text fill="#000000" font-family="sans-serif" font-size="14" lengthAdjust="spacing" textLength="56" x="5" y="282.4082">Manager</text><ellipse cx="36" cy="293.875" fill="#E2E2F0" rx="8" ry="8" style="stroke:#181818;stroke-width:0.5;"/><path d="M36,301.875 L36,328.875 M23,309.875 L49,309.875 M36,328.875 L23,343.875 M36,328.875 L49,343.875 " fill="none" style="stroke:#181818;stroke-width:0.5;"/><rect fill="#E2E2F0" height="29.6406" rx="2.5" ry="2.5" style="stroke:#181818;stroke-width:0.5;" width="128" x="77" y="50"/><text fill="#000000" font-family="sans-serif" font-size="14" lengthAdjust="spacing" textLength="114" x="84" y="69.6738">ShowAllCoursesUI</text><rect fill="#E2E2F0" height="29.6406" rx="2.5" ry="2.5" style="stroke:#181818;stroke-width:0.5;" width="128" x="77" y="269.7344"/><text fill="#000000" font-family="sans-serif" font-size="14" lengthAdjust="spacing" textLength="114" x="84" y="289.4082">ShowAllCoursesUI</text><rect fill="#E2E2F0" height="29.6406" rx="2.5" ry="2.5" style="stroke:#181818;stroke-width:0.5;" width="144" x="215" y="50"/><text fill="#000000" font-family="sans-serif" font-size="14" lengthAdjust="spacing" textLength="130" x="222" y="69.6738">ListCourseController</text><rect fill="#E2E2F0" height="29.6406" rx="2.5" ry="2.5" style="stroke:#181818;stroke-width:0.5;" width="144" x="215" y="269.7344"/><text fill="#000000" font-family="sans-serif" font-size="14" lengthAdjust="spacing" textLength="130" x="222" y="289.4082">ListCourseController</text><text fill="#000000" font-family="sans-serif" font-size="14" lengthAdjust="spacing" textLength="114" x="369" y="77.6738">CourseRepository</text><path d="M411,29 C411,19 429,19 429,19 C429,19 447,19 447,29 L447,55 C447,65 429,65 429,65 C429,65 411,65 411,55 L411,29 " fill="#E2E2F0" style="stroke:#181818;stroke-width:1.5;"/><path d="M411,29 C411,39 429,39 429,39 C429,39 447,39 447,29 " fill="none" style="stroke:#181818;stroke-width:1.5;"/><text fill="#000000" font-family="sans-serif" font-size="14" lengthAdjust="spacing" textLength="114" x="369" y="282.4082">CourseRepository</text><path d="M411,295.375 C411,285.375 429,285.375 429,285.375 C429,285.375 447,285.375 447,295.375 L447,321.375 C447,331.375 429,331.375 429,331.375 C429,331.375 411,331.375 411,321.375 L411,295.375 " fill="#E2E2F0" style="stroke:#181818;stroke-width:1.5;"/><path d="M411,295.375 C411,305.375 429,305.375 429,305.375 C429,305.375 447,305.375 447,295.375 " fill="none" style="stroke:#181818;stroke-width:1.5;"/><rect fill="#E2E2F0" height="29.6406" rx="2.5" ry="2.5" style="stroke:#181818;stroke-width:0.5;" width="60" x="499" y="50"/><text fill="#000000" font-family="sans-serif" font-size="14" lengthAdjust="spacing" textLength="46" x="506" y="69.6738">Course</text><rect fill="#E2E2F0" height="29.6406" rx="2.5" ry="2.5" style="stroke:#181818;stroke-width:0.5;" width="60" x="499" y="269.7344"/><text fill="#000000" font-family="sans-serif" font-size="14" lengthAdjust="spacing" textLength="46" x="506" y="289.4082">Course</text><rect fill="#FFFFFF" height="141.5703" style="stroke:#181818;stroke-width:1.0;" width="10" x="136" y="111.1641"/><rect fill="#FFFFFF" height="56.5234" style="stroke:#181818;stroke-width:1.0;" width="10" x="282" y="139.6875"/><rect fill="#FFFFFF" height="14" style="stroke:#181818;stroke-width:1.0;" width="10" x="424" y="168.2109"/><rect fill="#FFFFFF" height="14" style="stroke:#181818;stroke-width:1.0;" width="10" x="524" y="224.7344"/><polygon fill="#181818" points="124,107.1641,134,111.1641,124,115.1641,128,111.1641" style="stroke:#181818;stroke-width:1.0;"/><line style="stroke:#181818;stroke-width:1.0;" x1="36" x2="130" y1="111.1641" y2="111.1641"/><text fill="#000000" font-family="sans-serif" font-size="13" lengthAdjust="spacing" textLength="30" x="43" y="106.4092">show</text><polygon fill="#181818" points="270,135.6875,280,139.6875,270,143.6875,274,139.6875" style="stroke:#181818;stroke-width:1.0;"/><line style="stroke:#181818;stroke-width:1.0;" x1="146" x2="276" y1="139.6875" y2="139.6875"/><text fill="#000000" font-family="sans-serif" font-size="13" lengthAdjust="spacing" textLength="65" x="153" y="134.9326">listCourses</text><polygon fill="#181818" points="412,164.2109,422,168.2109,412,172.2109,416,168.2109" style="stroke:#181818;stroke-width:1.0;"/><line style="stroke:#181818;stroke-width:1.0;" x1="292" x2="418" y1="168.2109" y2="168.2109"/><text fill="#000000" font-family="sans-serif" font-size="13" lengthAdjust="spacing" textLength="35" x="299" y="163.4561">findAll</text><polygon fill="#181818" points="303,178.2109,293,182.2109,303,186.2109,299,182.2109" style="stroke:#181818;stroke-width:1.0;"/><line style="stroke:#181818;stroke-width:1.0;stroke-dasharray:2.0,2.0;" x1="297" x2="428" y1="182.2109" y2="182.2109"/><polygon fill="#181818" points="157,192.2109,147,196.2109,157,200.2109,153,196.2109" style="stroke:#181818;stroke-width:1.0;"/><line style="stroke:#181818;stroke-width:1.0;stroke-dasharray:2.0,2.0;" x1="151" x2="286" y1="196.2109" y2="196.2109"/><polygon fill="#181818" points="512,220.7344,522,224.7344,512,228.7344,516,224.7344" style="stroke:#181818;stroke-width:1.0;"/><line style="stroke:#181818;stroke-width:1.0;" x1="146" x2="518" y1="224.7344" y2="224.7344"/><text fill="#000000" font-family="sans-serif" font-size="13" lengthAdjust="spacing" textLength="45" x="153" y="219.9795">toString</text><polygon fill="#181818" points="157,234.7344,147,238.7344,157,242.7344,153,238.7344" style="stroke:#181818;stroke-width:1.0;"/><line style="stroke:#181818;stroke-width:1.0;stroke-dasharray:2.0,2.0;" x1="151" x2="528" y1="238.7344" y2="238.7344"/><polygon fill="#181818" points="47,248.7344,37,252.7344,47,256.7344,43,252.7344" style="stroke:#181818;stroke-width:1.0;"/><line style="stroke:#181818;stroke-width:1.0;stroke-dasharray:2.0,2.0;" x1="41" x2="140" y1="252.7344" y2="252.7344"/><!--SRC=[XL3D2i8m3BxdASBkUu4T19qNGIyE7o1kTHPAAqsc-FPcRhZ9AjxQxvzGBI7YWJor9WAC3ynNM5t3O-rS6Rh8XayxB90L0gh5tadCGW0BXwRiBSi0bC5B3CvfUe7k0_CKcD92Gq9dOeFPG1tDBR3LqSyCYR7SRY3PeTtAQTN5-aPNJJMzfQVo7_EWCL_QT7pYGdDZCZXreE6ZEoLK4grlPqFV58oAVusZEXhfedy1]--></g></svg>