<?xml version="1.0" encoding="us-ascii" standalone="no"?><svg xmlns="http://www.w3.org/2000/svg" xmlns:xlink="http://www.w3.org/1999/xlink" contentStyleType="text/css" height="1873px" preserveAspectRatio="none" style="width:1798px;height:1873px;background:#FFFFFF;" version="1.1" viewBox="0 0 1798 1873" width="1798px" zoomAndPan="magnify"><defs/><g><rect fill="#FFFFFF" height="14" style="stroke:#181818;stroke-width:1.0;" width="10" x="125" y="809.25"/><rect fill="#FFFFFF" height="14" style="stroke:#181818;stroke-width:1.0;" width="10" x="125" y="1719.4297"/><rect fill="#FFFFFF" height="14" style="stroke:#181818;stroke-width:1.0;" width="10" x="256.5" y="1648.3828"/><rect fill="#FFFFFF" height="1664.2656" style="stroke:#181818;stroke-width:1.0;" width="10" x="413" y="111.1641"/><rect fill="#FFFFFF" height="711.5625" style="stroke:#181818;stroke-width:1.0;" width="10" x="618" y="139.6875"/><rect fill="#FFFFFF" height="881.6563" style="stroke:#181818;stroke-width:1.0;" width="10" x="618" y="879.7734"/><rect fill="#FFFFFF" height="583.9922" style="stroke:#181818;stroke-width:1.0;" width="10" x="852" y="168.2109"/><rect fill="#FFFFFF" height="25" style="stroke:#181818;stroke-width:1.0;" width="10" x="857" y="204.7344"/><rect fill="#FFFFFF" height="79.6406" style="stroke:#181818;stroke-width:1.0;" width="10" x="857" y="273.2578"/><rect fill="#FFFFFF" height="583.9922" style="stroke:#181818;stroke-width:1.0;" width="10" x="852" y="908.2969"/><rect fill="#FFFFFF" height="25" style="stroke:#181818;stroke-width:1.0;" width="10" x="857" y="944.8203"/><rect fill="#FFFFFF" height="79.6406" style="stroke:#181818;stroke-width:1.0;" width="10" x="857" y="1013.3438"/><rect fill="#FFFFFF" height="14" style="stroke:#181818;stroke-width:1.0;" width="10" x="852" y="1520.8125"/><rect fill="#FFFFFF" height="16.1172" style="stroke:#181818;stroke-width:1.0;" width="10" x="1022.5" y="316.7813"/><rect fill="#FFFFFF" height="16.1172" style="stroke:#181818;stroke-width:1.0;" width="10" x="1022.5" y="1056.8672"/><rect fill="#FFFFFF" height="14" style="stroke:#181818;stroke-width:1.0;" width="10" x="1168" y="388.4219"/><rect fill="#FFFFFF" height="14" style="stroke:#181818;stroke-width:1.0;" width="10" x="1168" y="515.9922"/><rect fill="#FFFFFF" height="14" style="stroke:#181818;stroke-width:1.0;" width="10" x="1168" y="601.0391"/><rect fill="#FFFFFF" height="14" style="stroke:#181818;stroke-width:1.0;" width="10" x="1168" y="1128.5078"/><rect fill="#FFFFFF" height="14" style="stroke:#181818;stroke-width:1.0;" width="10" x="1168" y="1256.0781"/><rect fill="#FFFFFF" height="14" style="stroke:#181818;stroke-width:1.0;" width="10" x="1168" y="1341.125"/><rect fill="#FFFFFF" height="14" style="stroke:#181818;stroke-width:1.0;" width="10" x="1168" y="1563.3359"/><rect fill="#FFFFFF" height="56.5234" style="stroke:#181818;stroke-width:1.0;" width="10" x="1269" y="430.9453"/><rect fill="#FFFFFF" height="14" style="stroke:#181818;stroke-width:1.0;" width="10" x="1269" y="558.5156"/><rect fill="#FFFFFF" height="56.5234" style="stroke:#181818;stroke-width:1.0;" width="10" x="1269" y="1171.0313"/><rect fill="#FFFFFF" height="14" style="stroke:#181818;stroke-width:1.0;" width="10" x="1269" y="1298.6016"/><rect fill="#FFFFFF" height="14" style="stroke:#181818;stroke-width:1.0;" width="10" x="1269" y="1605.8594"/><rect fill="#FFFFFF" height="14" style="stroke:#181818;stroke-width:1.0;" width="10" x="1388" y="459.4688"/><rect fill="#FFFFFF" height="14" style="stroke:#181818;stroke-width:1.0;" width="10" x="1388" y="1199.5547"/><rect fill="#FFFFFF" height="84.6406" style="stroke:#181818;stroke-width:1.0;" width="10" x="1509" y="653.5625"/><rect fill="#FFFFFF" height="25" style="stroke:#181818;stroke-width:1.0;" width="10" x="1514" y="692.2031"/><rect fill="#FFFFFF" height="84.6406" style="stroke:#181818;stroke-width:1.0;" width="10" x="1509" y="1393.6484"/><rect fill="#FFFFFF" height="25" style="stroke:#181818;stroke-width:1.0;" width="10" x="1514" y="1432.2891"/><rect fill="#FFFFFF" height="56.5234" style="stroke:#181818;stroke-width:1.0;" width="10" x="1692.5" y="780.7266"/><rect fill="#FFFFFF" height="56.5234" style="stroke:#181818;stroke-width:1.0;" width="10" x="1692.5" y="1690.9063"/><line style="stroke:#181818;stroke-width:0.5;stroke-dasharray:5.0,5.0;" x1="32" x2="32" y1="80.6406" y2="1793.4297"/><line style="stroke:#181818;stroke-width:0.5;stroke-dasharray:5.0,5.0;" x1="130" x2="130" y1="80.6406" y2="1793.4297"/><line style="stroke:#181818;stroke-width:0.5;stroke-dasharray:5.0,5.0;" x1="261" x2="261" y1="80.6406" y2="1793.4297"/><line style="stroke:#181818;stroke-width:0.5;stroke-dasharray:5.0,5.0;" x1="418" x2="418" y1="80.6406" y2="1793.4297"/><line style="stroke:#181818;stroke-width:0.5;stroke-dasharray:5.0,5.0;" x1="623" x2="623" y1="80.6406" y2="1793.4297"/><line style="stroke:#181818;stroke-width:0.5;stroke-dasharray:5.0,5.0;" x1="856.5" x2="856.5" y1="80.6406" y2="1793.4297"/><line style="stroke:#181818;stroke-width:0.5;stroke-dasharray:5.0,5.0;" x1="1027.5" x2="1027.5" y1="1056.6641" y2="1793.4297"/><line style="stroke:#181818;stroke-width:0.5;stroke-dasharray:5.0,5.0;" x1="1172.5" x2="1172.5" y1="80.6406" y2="1793.4297"/><line style="stroke:#181818;stroke-width:0.5;stroke-dasharray:5.0,5.0;" x1="1273.5" x2="1273.5" y1="80.6406" y2="1793.4297"/><line style="stroke:#181818;stroke-width:0.5;stroke-dasharray:5.0,5.0;" x1="1393" x2="1393" y1="80.6406" y2="1793.4297"/><line style="stroke:#181818;stroke-width:0.5;stroke-dasharray:5.0,5.0;" x1="1514" x2="1514" y1="1393.4453" y2="1793.4297"/><line style="stroke:#181818;stroke-width:0.5;stroke-dasharray:5.0,5.0;" x1="1697" x2="1697" y1="80.6406" y2="1793.4297"/><text fill="#000000" font-family="sans-serif" font-size="14" lengthAdjust="spacing" textLength="49" x="5" y="77.6738">Student</text><ellipse cx="32.5" cy="13.5" fill="#E2E2F0" rx="8" ry="8" style="stroke:#181818;stroke-width:0.5;"/><path d="M32.5,21.5 L32.5,48.5 M19.5,29.5 L45.5,29.5 M32.5,48.5 L19.5,63.5 M32.5,48.5 L45.5,63.5 " fill="none" style="stroke:#181818;stroke-width:0.5;"/><text fill="#000000" font-family="sans-serif" font-size="14" lengthAdjust="spacing" textLength="49" x="5" y="1805.1035">Student</text><ellipse cx="32.5" cy="1816.5703" fill="#E2E2F0" rx="8" ry="8" style="stroke:#181818;stroke-width:0.5;"/><path d="M32.5,1824.5703 L32.5,1851.5703 M19.5,1832.5703 L45.5,1832.5703 M32.5,1851.5703 L19.5,1866.5703 M32.5,1851.5703 L45.5,1866.5703 " fill="none" style="stroke:#181818;stroke-width:0.5;"/><text fill="#000000" font-family="sans-serif" font-size="14" lengthAdjust="spacing" textLength="114" x="70" y="77.6738">CourseRepository</text><path d="M112,29 C112,19 130,19 130,19 C130,19 148,19 148,29 L148,55 C148,65 130,65 130,65 C130,65 112,65 112,55 L112,29 " fill="#E2E2F0" style="stroke:#181818;stroke-width:1.5;"/><path d="M112,29 C112,39 130,39 130,39 C130,39 148,39 148,29 " fill="none" style="stroke:#181818;stroke-width:1.5;"/><text fill="#000000" font-family="sans-serif" font-size="14" lengthAdjust="spacing" textLength="114" x="70" y="1805.1035">CourseRepository</text><path d="M112,1818.0703 C112,1808.0703 130,1808.0703 130,1808.0703 C130,1808.0703 148,1808.0703 148,1818.0703 L148,1844.0703 C148,1854.0703 130,1854.0703 130,1854.0703 C130,1854.0703 112,1854.0703 112,1844.0703 L112,1818.0703 " fill="#E2E2F0" style="stroke:#181818;stroke-width:1.5;"/><path d="M112,1818.0703 C112,1828.0703 130,1828.0703 130,1828.0703 C130,1828.0703 148,1828.0703 148,1818.0703 " fill="none" style="stroke:#181818;stroke-width:1.5;"/><text fill="#000000" font-family="sans-serif" font-size="14" lengthAdjust="spacing" textLength="117" x="200" y="77.6738">StudentRepository</text><path d="M243.5,29 C243.5,19 261.5,19 261.5,19 C261.5,19 279.5,19 279.5,29 L279.5,55 C279.5,65 261.5,65 261.5,65 C261.5,65 243.5,65 243.5,55 L243.5,29 " fill="#E2E2F0" style="stroke:#181818;stroke-width:1.5;"/><path d="M243.5,29 C243.5,39 261.5,39 261.5,39 C261.5,39 279.5,39 279.5,29 " fill="none" style="stroke:#181818;stroke-width:1.5;"/><text fill="#000000" font-family="sans-serif" font-size="14" lengthAdjust="spacing" textLength="117" x="200" y="1805.1035">StudentRepository</text><path d="M243.5,1818.0703 C243.5,1808.0703 261.5,1808.0703 261.5,1808.0703 C261.5,1808.0703 279.5,1808.0703 279.5,1818.0703 L279.5,1844.0703 C279.5,1854.0703 261.5,1854.0703 261.5,1854.0703 C261.5,1854.0703 243.5,1854.0703 243.5,1844.0703 L243.5,1818.0703 " fill="#E2E2F0" style="stroke:#181818;stroke-width:1.5;"/><path d="M243.5,1818.0703 C243.5,1828.0703 261.5,1828.0703 261.5,1828.0703 C261.5,1828.0703 279.5,1828.0703 279.5,1818.0703 " fill="none" style="stroke:#181818;stroke-width:1.5;"/><rect fill="#E2E2F0" height="29.6406" rx="2.5" ry="2.5" style="stroke:#181818;stroke-width:0.5;" width="170" x="333" y="50"/><text fill="#000000" font-family="sans-serif" font-size="14" lengthAdjust="spacing" textLength="156" x="340" y="69.6738">ShowCoursesAvailableUI</text><rect fill="#E2E2F0" height="29.6406" rx="2.5" ry="2.5" style="stroke:#181818;stroke-width:0.5;" width="170" x="333" y="1792.4297"/><text fill="#000000" font-family="sans-serif" font-size="14" lengthAdjust="spacing" textLength="156" x="340" y="1812.1035">ShowCoursesAvailableUI</text><rect fill="#E2E2F0" height="29.6406" rx="2.5" ry="2.5" style="stroke:#181818;stroke-width:0.5;" width="220" x="513" y="50"/><text fill="#000000" font-family="sans-serif" font-size="14" lengthAdjust="spacing" textLength="206" x="520" y="69.6738">ShowCoursesAvailableController</text><rect fill="#E2E2F0" height="29.6406" rx="2.5" ry="2.5" style="stroke:#181818;stroke-width:0.5;" width="220" x="513" y="1792.4297"/><text fill="#000000" font-family="sans-serif" font-size="14" lengthAdjust="spacing" textLength="206" x="520" y="1812.1035">ShowCoursesAvailableController</text><rect fill="#E2E2F0" height="29.6406" rx="2.5" ry="2.5" style="stroke:#181818;stroke-width:0.5;" width="143" x="785.5" y="50"/><text fill="#000000" font-family="sans-serif" font-size="14" lengthAdjust="spacing" textLength="129" x="792.5" y="69.6738">AuthorizationService</text><rect fill="#E2E2F0" height="29.6406" rx="2.5" ry="2.5" style="stroke:#181818;stroke-width:0.5;" width="143" x="785.5" y="1792.4297"/><text fill="#000000" font-family="sans-serif" font-size="14" lengthAdjust="spacing" textLength="129" x="792.5" y="1812.1035">AuthorizationService</text><rect fill="#E2E2F0" height="29.6406" rx="2.5" ry="2.5" style="stroke:#181818;stroke-width:0.5;" width="178" x="938.5" y="1792.4297"/><text fill="#000000" font-family="sans-serif" font-size="14" lengthAdjust="spacing" textLength="164" x="945.5" y="1812.1035">UnauthenticatedException</text><rect fill="#E2E2F0" height="29.6406" rx="2.5" ry="2.5" style="stroke:#181818;stroke-width:0.5;" width="93" x="1126.5" y="50"/><text fill="#000000" font-family="sans-serif" font-size="14" lengthAdjust="spacing" textLength="79" x="1133.5" y="69.6738">UserSession</text><rect fill="#E2E2F0" height="29.6406" rx="2.5" ry="2.5" style="stroke:#181818;stroke-width:0.5;" width="93" x="1126.5" y="1792.4297"/><text fill="#000000" font-family="sans-serif" font-size="14" lengthAdjust="spacing" textLength="79" x="1133.5" y="1812.1035">UserSession</text><rect fill="#E2E2F0" height="29.6406" rx="2.5" ry="2.5" style="stroke:#181818;stroke-width:0.5;" width="89" x="1229.5" y="50"/><text fill="#000000" font-family="sans-serif" font-size="14" lengthAdjust="spacing" textLength="75" x="1236.5" y="69.6738">SystemUser</text><rect fill="#E2E2F0" height="29.6406" rx="2.5" ry="2.5" style="stroke:#181818;stroke-width:0.5;" width="89" x="1229.5" y="1792.4297"/><text fill="#000000" font-family="sans-serif" font-size="14" lengthAdjust="spacing" textLength="75" x="1236.5" y="1812.1035">SystemUser</text><rect fill="#E2E2F0" height="29.6406" rx="2.5" ry="2.5" style="stroke:#181818;stroke-width:0.5;" width="64" x="1361" y="50"/><text fill="#000000" font-family="sans-serif" font-size="14" lengthAdjust="spacing" textLength="50" x="1368" y="69.6738">RoleSet</text><rect fill="#E2E2F0" height="29.6406" rx="2.5" ry="2.5" style="stroke:#181818;stroke-width:0.5;" width="64" x="1361" y="1792.4297"/><text fill="#000000" font-family="sans-serif" font-size="14" lengthAdjust="spacing" textLength="50" x="1368" y="1812.1035">RoleSet</text><rect fill="#E2E2F0" height="29.6406" rx="2.5" ry="2.5" style="stroke:#181818;stroke-width:0.5;" width="158" x="1435" y="1792.4297"/><text fill="#000000" font-family="sans-serif" font-size="14" lengthAdjust="spacing" textLength="144" x="1442" y="1812.1035">UnauthorizedException</text><rect fill="#E2E2F0" height="29.6406" rx="2.5" ry="2.5" style="stroke:#181818;stroke-width:0.5;" width="189" x="1603" y="50"/><text fill="#000000" font-family="sans-serif" font-size="14" lengthAdjust="spacing" textLength="175" x="1610" y="69.6738">CourseManagementService</text><rect fill="#E2E2F0" height="29.6406" rx="2.5" ry="2.5" style="stroke:#181818;stroke-width:0.5;" width="189" x="1603" y="1792.4297"/><text fill="#000000" font-family="sans-serif" font-size="14" lengthAdjust="spacing" textLength="175" x="1610" y="1812.1035">CourseManagementService</text><rect fill="#FFFFFF" height="14" style="stroke:#181818;stroke-width:1.0;" width="10" x="125" y="809.25"/><rect fill="#FFFFFF" height="14" style="stroke:#181818;stroke-width:1.0;" width="10" x="125" y="1719.4297"/><rect fill="#FFFFFF" height="14" style="stroke:#181818;stroke-width:1.0;" width="10" x="256.5" y="1648.3828"/><rect fill="#FFFFFF" height="1664.2656" style="stroke:#181818;stroke-width:1.0;" width="10" x="413" y="111.1641"/><rect fill="#FFFFFF" height="711.5625" style="stroke:#181818;stroke-width:1.0;" width="10" x="618" y="139.6875"/><rect fill="#FFFFFF" height="881.6563" style="stroke:#181818;stroke-width:1.0;" width="10" x="618" y="879.7734"/><rect fill="#FFFFFF" height="583.9922" style="stroke:#181818;stroke-width:1.0;" width="10" x="852" y="168.2109"/><rect fill="#FFFFFF" height="25" style="stroke:#181818;stroke-width:1.0;" width="10" x="857" y="204.7344"/><rect fill="#FFFFFF" height="79.6406" style="stroke:#181818;stroke-width:1.0;" width="10" x="857" y="273.2578"/><rect fill="#FFFFFF" height="583.9922" style="stroke:#181818;stroke-width:1.0;" width="10" x="852" y="908.2969"/><rect fill="#FFFFFF" height="25" style="stroke:#181818;stroke-width:1.0;" width="10" x="857" y="944.8203"/><rect fill="#FFFFFF" height="79.6406" style="stroke:#181818;stroke-width:1.0;" width="10" x="857" y="1013.3438"/><rect fill="#FFFFFF" height="14" style="stroke:#181818;stroke-width:1.0;" width="10" x="852" y="1520.8125"/><rect fill="#FFFFFF" height="16.1172" style="stroke:#181818;stroke-width:1.0;" width="10" x="1022.5" y="316.7813"/><rect fill="#FFFFFF" height="16.1172" style="stroke:#181818;stroke-width:1.0;" width="10" x="1022.5" y="1056.8672"/><rect fill="#FFFFFF" height="14" style="stroke:#181818;stroke-width:1.0;" width="10" x="1168" y="388.4219"/><rect fill="#FFFFFF" height="14" style="stroke:#181818;stroke-width:1.0;" width="10" x="1168" y="515.9922"/><rect fill="#FFFFFF" height="14" style="stroke:#181818;stroke-width:1.0;" width="10" x="1168" y="601.0391"/><rect fill="#FFFFFF" height="14" style="stroke:#181818;stroke-width:1.0;" width="10" x="1168" y="1128.5078"/><rect fill="#FFFFFF" height="14" style="stroke:#181818;stroke-width:1.0;" width="10" x="1168" y="1256.0781"/><rect fill="#FFFFFF" height="14" style="stroke:#181818;stroke-width:1.0;" width="10" x="1168" y="1341.125"/><rect fill="#FFFFFF" height="14" style="stroke:#181818;stroke-width:1.0;" width="10" x="1168" y="1563.3359"/><rect fill="#FFFFFF" height="56.5234" style="stroke:#181818;stroke-width:1.0;" width="10" x="1269" y="430.9453"/><rect fill="#FFFFFF" height="14" style="stroke:#181818;stroke-width:1.0;" width="10" x="1269" y="558.5156"/><rect fill="#FFFFFF" height="56.5234" style="stroke:#181818;stroke-width:1.0;" width="10" x="1269" y="1171.0313"/><rect fill="#FFFFFF" height="14" style="stroke:#181818;stroke-width:1.0;" width="10" x="1269" y="1298.6016"/><rect fill="#FFFFFF" height="14" style="stroke:#181818;stroke-width:1.0;" width="10" x="1269" y="1605.8594"/><rect fill="#FFFFFF" height="14" style="stroke:#181818;stroke-width:1.0;" width="10" x="1388" y="459.4688"/><rect fill="#FFFFFF" height="14" style="stroke:#181818;stroke-width:1.0;" width="10" x="1388" y="1199.5547"/><rect fill="#FFFFFF" height="84.6406" style="stroke:#181818;stroke-width:1.0;" width="10" x="1509" y="653.5625"/><rect fill="#FFFFFF" height="25" style="stroke:#181818;stroke-width:1.0;" width="10" x="1514" y="692.2031"/><rect fill="#FFFFFF" height="84.6406" style="stroke:#181818;stroke-width:1.0;" width="10" x="1509" y="1393.6484"/><rect fill="#FFFFFF" height="25" style="stroke:#181818;stroke-width:1.0;" width="10" x="1514" y="1432.2891"/><rect fill="#FFFFFF" height="56.5234" style="stroke:#181818;stroke-width:1.0;" width="10" x="1692.5" y="780.7266"/><rect fill="#FFFFFF" height="56.5234" style="stroke:#181818;stroke-width:1.0;" width="10" x="1692.5" y="1690.9063"/><polygon fill="#181818" points="401,107.1641,411,111.1641,401,115.1641,405,111.1641" style="stroke:#181818;stroke-width:1.0;"/><line style="stroke:#181818;stroke-width:1.0;" x1="32.5" x2="407" y1="111.1641" y2="111.1641"/><text fill="#000000" font-family="sans-serif" font-size="13" lengthAdjust="spacing" textLength="46" x="39.5" y="106.4092">doShow</text><polygon fill="#181818" points="606,135.6875,616,139.6875,606,143.6875,610,139.6875" style="stroke:#181818;stroke-width:1.0;"/><line style="stroke:#181818;stroke-width:1.0;" x1="423" x2="612" y1="139.6875" y2="139.6875"/><text fill="#000000" font-family="sans-serif" font-size="13" lengthAdjust="spacing" textLength="113" x="430" y="134.9326">showActiveCourses</text><polygon fill="#181818" points="840,164.2109,850,168.2109,840,172.2109,844,168.2109" style="stroke:#181818;stroke-width:1.0;"/><line style="stroke:#181818;stroke-width:1.0;" x1="628" x2="846" y1="168.2109" y2="168.2109"/><text fill="#000000" font-family="sans-serif" font-size="13" lengthAdjust="spacing" textLength="205" x="635" y="163.4561">ensureAuthenticatedUserHasAnyOf</text><line style="stroke:#181818;stroke-width:1.0;" x1="862" x2="909" y1="191.7344" y2="191.7344"/><line style="stroke:#181818;stroke-width:1.0;" x1="909" x2="909" y1="191.7344" y2="204.7344"/><line style="stroke:#181818;stroke-width:1.0;" x1="868" x2="909" y1="204.7344" y2="204.7344"/><polygon fill="#181818" points="878,200.7344,868,204.7344,878,208.7344,874,204.7344" style="stroke:#181818;stroke-width:1.0;"/><text fill="#000000" font-family="sans-serif" font-size="13" lengthAdjust="spacing" textLength="45" x="874" y="186.9795">session</text><line style="stroke:#181818;stroke-width:1.0;stroke-dasharray:2.0,2.0;" x1="867" x2="909" y1="228.7344" y2="228.7344"/><line style="stroke:#181818;stroke-width:1.0;stroke-dasharray:2.0,2.0;" x1="909" x2="909" y1="228.7344" y2="241.7344"/><line style="stroke:#181818;stroke-width:1.0;stroke-dasharray:2.0,2.0;" x1="862" x2="909" y1="241.7344" y2="241.7344"/><polygon fill="#181818" points="872,237.7344,862,241.7344,872,245.7344,868,241.7344" style="stroke:#181818;stroke-width:1.0;"/><line style="stroke:#181818;stroke-width:1.0;" x1="862" x2="909" y1="260.2578" y2="260.2578"/><line style="stroke:#181818;stroke-width:1.0;" x1="909" x2="909" y1="260.2578" y2="273.2578"/><line style="stroke:#181818;stroke-width:1.0;" x1="868" x2="909" y1="273.2578" y2="273.2578"/><polygon fill="#181818" points="878,269.2578,868,273.2578,878,277.2578,874,273.2578" style="stroke:#181818;stroke-width:1.0;"/><text fill="#000000" font-family="sans-serif" font-size="13" lengthAdjust="spacing" textLength="24" x="874" y="255.5029">() -&gt;</text><polygon fill="#181818" points="926.5,302.7813,936.5,306.7813,926.5,310.7813,930.5,306.7813" style="stroke:#181818;stroke-width:1.0;"/><line style="stroke:#181818;stroke-width:1.0;" x1="867" x2="932.5" y1="306.7813" y2="306.7813"/><text fill="#000000" font-family="sans-serif" font-size="13" lengthAdjust="spacing" textLength="23" x="874" y="302.0264">new</text><rect fill="#E2E2F0" height="29.6406" rx="2.5" ry="2.5" style="stroke:#181818;stroke-width:0.5;" width="178" x="938.5" y="286.2578"/><text fill="#000000" font-family="sans-serif" font-size="14" lengthAdjust="spacing" textLength="164" x="945.5" y="305.9316">UnauthenticatedException</text><polygon fill="#181818" points="878,328.8984,868,332.8984,878,336.8984,874,332.8984" style="stroke:#181818;stroke-width:1.0;"/><line style="stroke:#181818;stroke-width:1.0;stroke-dasharray:2.0,2.0;" x1="872" x2="1026.5" y1="332.8984" y2="332.8984"/><line style="stroke:#181818;stroke-width:1.0;stroke-dasharray:2.0,2.0;" x1="867" x2="909" y1="351.8984" y2="351.8984"/><line style="stroke:#181818;stroke-width:1.0;stroke-dasharray:2.0,2.0;" x1="909" x2="909" y1="351.8984" y2="364.8984"/><line style="stroke:#181818;stroke-width:1.0;stroke-dasharray:2.0,2.0;" x1="862" x2="909" y1="364.8984" y2="364.8984"/><polygon fill="#181818" points="872,360.8984,862,364.8984,872,368.8984,868,364.8984" style="stroke:#181818;stroke-width:1.0;"/><polygon fill="#181818" points="1156,384.4219,1166,388.4219,1156,392.4219,1160,388.4219" style="stroke:#181818;stroke-width:1.0;"/><line style="stroke:#181818;stroke-width:1.0;" x1="862" x2="1162" y1="388.4219" y2="388.4219"/><text fill="#000000" font-family="sans-serif" font-size="13" lengthAdjust="spacing" textLength="105" x="869" y="383.667">authenticatedUser</text><polygon fill="#181818" points="873,398.4219,863,402.4219,873,406.4219,869,402.4219" style="stroke:#181818;stroke-width:1.0;"/><line style="stroke:#181818;stroke-width:1.0;stroke-dasharray:2.0,2.0;" x1="867" x2="1172" y1="402.4219" y2="402.4219"/><polygon fill="#181818" points="1257,426.9453,1267,430.9453,1257,434.9453,1261,430.9453" style="stroke:#181818;stroke-width:1.0;"/><line style="stroke:#181818;stroke-width:1.0;" x1="862" x2="1263" y1="430.9453" y2="430.9453"/><text fill="#000000" font-family="sans-serif" font-size="13" lengthAdjust="spacing" textLength="44" x="869" y="426.1904">hasAny</text><polygon fill="#181818" points="1376,455.4688,1386,459.4688,1376,463.4688,1380,459.4688" style="stroke:#181818;stroke-width:1.0;"/><line style="stroke:#181818;stroke-width:1.0;" x1="1279" x2="1382" y1="459.4688" y2="459.4688"/><text fill="#000000" font-family="sans-serif" font-size="13" lengthAdjust="spacing" textLength="90" x="1286" y="454.7139">hasAssignment</text><polygon fill="#181818" points="1290,469.4688,1280,473.4688,1290,477.4688,1286,473.4688" style="stroke:#181818;stroke-width:1.0;"/><line style="stroke:#181818;stroke-width:1.0;stroke-dasharray:2.0,2.0;" x1="1284" x2="1392" y1="473.4688" y2="473.4688"/><polygon fill="#181818" points="873,483.4688,863,487.4688,873,491.4688,869,487.4688" style="stroke:#181818;stroke-width:1.0;"/><line style="stroke:#181818;stroke-width:1.0;stroke-dasharray:2.0,2.0;" x1="867" x2="1273" y1="487.4688" y2="487.4688"/><polygon fill="#181818" points="1156,511.9922,1166,515.9922,1156,519.9922,1160,515.9922" style="stroke:#181818;stroke-width:1.0;"/><line style="stroke:#181818;stroke-width:1.0;" x1="862" x2="1162" y1="515.9922" y2="515.9922"/><text fill="#000000" font-family="sans-serif" font-size="13" lengthAdjust="spacing" textLength="105" x="869" y="511.2373">authenticatedUser</text><polygon fill="#181818" points="873,525.9922,863,529.9922,873,533.9922,869,529.9922" style="stroke:#181818;stroke-width:1.0;"/><line style="stroke:#181818;stroke-width:1.0;stroke-dasharray:2.0,2.0;" x1="867" x2="1172" y1="529.9922" y2="529.9922"/><polygon fill="#181818" points="1257,554.5156,1267,558.5156,1257,562.5156,1261,558.5156" style="stroke:#181818;stroke-width:1.0;"/><line style="stroke:#181818;stroke-width:1.0;" x1="862" x2="1263" y1="558.5156" y2="558.5156"/><text fill="#000000" font-family="sans-serif" font-size="13" lengthAdjust="spacing" textLength="31" x="869" y="553.7607">email</text><polygon fill="#181818" points="873,568.5156,863,572.5156,873,576.5156,869,572.5156" style="stroke:#181818;stroke-width:1.0;"/><line style="stroke:#181818;stroke-width:1.0;stroke-dasharray:2.0,2.0;" x1="867" x2="1273" y1="572.5156" y2="572.5156"/><polygon fill="#181818" points="1156,597.0391,1166,601.0391,1156,605.0391,1160,601.0391" style="stroke:#181818;stroke-width:1.0;"/><line style="stroke:#181818;stroke-width:1.0;" x1="862" x2="1162" y1="601.0391" y2="601.0391"/><text fill="#000000" font-family="sans-serif" font-size="13" lengthAdjust="spacing" textLength="105" x="869" y="596.2842">authenticatedUser</text><polygon fill="#181818" points="873,611.0391,863,615.0391,873,619.0391,869,615.0391" style="stroke:#181818;stroke-width:1.0;"/><line style="stroke:#181818;stroke-width:1.0;stroke-dasharray:2.0,2.0;" x1="867" x2="1172" y1="615.0391" y2="615.0391"/><polygon fill="#181818" points="1423,639.5625,1433,643.5625,1423,647.5625,1427,643.5625" style="stroke:#181818;stroke-width:1.0;"/><line style="stroke:#181818;stroke-width:1.0;" x1="862" x2="1429" y1="643.5625" y2="643.5625"/><text fill="#000000" font-family="sans-serif" font-size="13" lengthAdjust="spacing" textLength="23" x="869" y="638.8076">new</text><rect fill="#E2E2F0" height="29.6406" rx="2.5" ry="2.5" style="stroke:#181818;stroke-width:0.5;" width="158" x="1435" y="623.0391"/><text fill="#000000" font-family="sans-serif" font-size="14" lengthAdjust="spacing" textLength="144" x="1442" y="642.7129">UnauthorizedException</text><line style="stroke:#181818;stroke-width:1.0;" x1="1519" x2="1566" y1="679.2031" y2="679.2031"/><line style="stroke:#181818;stroke-width:1.0;" x1="1566" x2="1566" y1="679.2031" y2="692.2031"/><line style="stroke:#181818;stroke-width:1.0;" x1="1525" x2="1566" y1="692.2031" y2="692.2031"/><polygon fill="#181818" points="1535,688.2031,1525,692.2031,1535,696.2031,1531,692.2031" style="stroke:#181818;stroke-width:1.0;"/><text fill="#000000" font-family="sans-serif" font-size="13" lengthAdjust="spacing" textLength="80" x="1531" y="674.4482">buildMessage</text><line style="stroke:#181818;stroke-width:1.0;stroke-dasharray:2.0,2.0;" x1="1524" x2="1566" y1="716.2031" y2="716.2031"/><line style="stroke:#181818;stroke-width:1.0;stroke-dasharray:2.0,2.0;" x1="1566" x2="1566" y1="716.2031" y2="729.2031"/><line style="stroke:#181818;stroke-width:1.0;stroke-dasharray:2.0,2.0;" x1="1519" x2="1566" y1="729.2031" y2="729.2031"/><polygon fill="#181818" points="1529,725.2031,1519,729.2031,1529,733.2031,1525,729.2031" style="stroke:#181818;stroke-width:1.0;"/><polygon fill="#181818" points="873,734.2031,863,738.2031,873,742.2031,869,738.2031" style="stroke:#181818;stroke-width:1.0;"/><line style="stroke:#181818;stroke-width:1.0;stroke-dasharray:2.0,2.0;" x1="867" x2="1513" y1="738.2031" y2="738.2031"/><polygon fill="#181818" points="639,748.2031,629,752.2031,639,756.2031,635,752.2031" style="stroke:#181818;stroke-width:1.0;"/><line style="stroke:#181818;stroke-width:1.0;stroke-dasharray:2.0,2.0;" x1="633" x2="856" y1="752.2031" y2="752.2031"/><polygon fill="#181818" points="1680.5,776.7266,1690.5,780.7266,1680.5,784.7266,1684.5,780.7266" style="stroke:#181818;stroke-width:1.0;"/><line style="stroke:#181818;stroke-width:1.0;" x1="628" x2="1686.5" y1="780.7266" y2="780.7266"/><text fill="#000000" font-family="sans-serif" font-size="13" lengthAdjust="spacing" textLength="70" x="635" y="775.9717">findAllActive</text><polygon fill="#181818" points="146,805.25,136,809.25,146,813.25,142,809.25" style="stroke:#181818;stroke-width:1.0;"/><line style="stroke:#181818;stroke-width:1.0;" x1="140" x2="1691.5" y1="809.25" y2="809.25"/><text fill="#000000" font-family="sans-serif" font-size="13" lengthAdjust="spacing" textLength="70" x="152" y="804.4951">findAllActive</text><polygon fill="#181818" points="1680.5,819.25,1690.5,823.25,1680.5,827.25,1684.5,823.25" style="stroke:#181818;stroke-width:1.0;"/><line style="stroke:#181818;stroke-width:1.0;stroke-dasharray:2.0,2.0;" x1="130" x2="1686.5" y1="823.25" y2="823.25"/><polygon fill="#181818" points="639,833.25,629,837.25,639,841.25,635,837.25" style="stroke:#181818;stroke-width:1.0;"/><line style="stroke:#181818;stroke-width:1.0;stroke-dasharray:2.0,2.0;" x1="633" x2="1696.5" y1="837.25" y2="837.25"/><polygon fill="#181818" points="434,847.25,424,851.25,434,855.25,430,851.25" style="stroke:#181818;stroke-width:1.0;"/><line style="stroke:#181818;stroke-width:1.0;stroke-dasharray:2.0,2.0;" x1="428" x2="622" y1="851.25" y2="851.25"/><polygon fill="#181818" points="606,875.7734,616,879.7734,606,883.7734,610,879.7734" style="stroke:#181818;stroke-width:1.0;"/><line style="stroke:#181818;stroke-width:1.0;" x1="423" x2="612" y1="879.7734" y2="879.7734"/><text fill="#000000" font-family="sans-serif" font-size="13" lengthAdjust="spacing" textLength="125" x="430" y="875.0186">showCoursesEnrolled</text><polygon fill="#181818" points="840,904.2969,850,908.2969,840,912.2969,844,908.2969" style="stroke:#181818;stroke-width:1.0;"/><line style="stroke:#181818;stroke-width:1.0;" x1="628" x2="846" y1="908.2969" y2="908.2969"/><text fill="#000000" font-family="sans-serif" font-size="13" lengthAdjust="spacing" textLength="205" x="635" y="903.542">ensureAuthenticatedUserHasAnyOf</text><line style="stroke:#181818;stroke-width:1.0;" x1="862" x2="909" y1="931.8203" y2="931.8203"/><line style="stroke:#181818;stroke-width:1.0;" x1="909" x2="909" y1="931.8203" y2="944.8203"/><line style="stroke:#181818;stroke-width:1.0;" x1="868" x2="909" y1="944.8203" y2="944.8203"/><polygon fill="#181818" points="878,940.8203,868,944.8203,878,948.8203,874,944.8203" style="stroke:#181818;stroke-width:1.0;"/><text fill="#000000" font-family="sans-serif" font-size="13" lengthAdjust="spacing" textLength="45" x="874" y="927.0654">session</text><line style="stroke:#181818;stroke-width:1.0;stroke-dasharray:2.0,2.0;" x1="867" x2="909" y1="968.8203" y2="968.8203"/><line style="stroke:#181818;stroke-width:1.0;stroke-dasharray:2.0,2.0;" x1="909" x2="909" y1="968.8203" y2="981.8203"/><line style="stroke:#181818;stroke-width:1.0;stroke-dasharray:2.0,2.0;" x1="862" x2="909" y1="981.8203" y2="981.8203"/><polygon fill="#181818" points="872,977.8203,862,981.8203,872,985.8203,868,981.8203" style="stroke:#181818;stroke-width:1.0;"/><line style="stroke:#181818;stroke-width:1.0;" x1="862" x2="909" y1="1000.3438" y2="1000.3438"/><line style="stroke:#181818;stroke-width:1.0;" x1="909" x2="909" y1="1000.3438" y2="1013.3438"/><line style="stroke:#181818;stroke-width:1.0;" x1="868" x2="909" y1="1013.3438" y2="1013.3438"/><polygon fill="#181818" points="878,1009.3438,868,1013.3438,878,1017.3438,874,1013.3438" style="stroke:#181818;stroke-width:1.0;"/><text fill="#000000" font-family="sans-serif" font-size="13" lengthAdjust="spacing" textLength="24" x="874" y="995.5889">() -&gt;</text><polygon fill="#181818" points="926.5,1042.8672,936.5,1046.8672,926.5,1050.8672,930.5,1046.8672" style="stroke:#181818;stroke-width:1.0;"/><line style="stroke:#181818;stroke-width:1.0;" x1="867" x2="932.5" y1="1046.8672" y2="1046.8672"/><text fill="#000000" font-family="sans-serif" font-size="13" lengthAdjust="spacing" textLength="23" x="874" y="1042.1123">new</text><rect fill="#E2E2F0" height="29.6406" rx="2.5" ry="2.5" style="stroke:#181818;stroke-width:0.5;" width="178" x="938.5" y="1026.3438"/><text fill="#000000" font-family="sans-serif" font-size="14" lengthAdjust="spacing" textLength="164" x="945.5" y="1046.0176">UnauthenticatedException</text><polygon fill="#181818" points="878,1068.9844,868,1072.9844,878,1076.9844,874,1072.9844" style="stroke:#181818;stroke-width:1.0;"/><line style="stroke:#181818;stroke-width:1.0;stroke-dasharray:2.0,2.0;" x1="872" x2="1026.5" y1="1072.9844" y2="1072.9844"/><line style="stroke:#181818;stroke-width:1.0;stroke-dasharray:2.0,2.0;" x1="867" x2="909" y1="1091.9844" y2="1091.9844"/><line style="stroke:#181818;stroke-width:1.0;stroke-dasharray:2.0,2.0;" x1="909" x2="909" y1="1091.9844" y2="1104.9844"/><line style="stroke:#181818;stroke-width:1.0;stroke-dasharray:2.0,2.0;" x1="862" x2="909" y1="1104.9844" y2="1104.9844"/><polygon fill="#181818" points="872,1100.9844,862,1104.9844,872,1108.9844,868,1104.9844" style="stroke:#181818;stroke-width:1.0;"/><polygon fill="#181818" points="1156,1124.5078,1166,1128.5078,1156,1132.5078,1160,1128.5078" style="stroke:#181818;stroke-width:1.0;"/><line style="stroke:#181818;stroke-width:1.0;" x1="862" x2="1162" y1="1128.5078" y2="1128.5078"/><text fill="#000000" font-family="sans-serif" font-size="13" lengthAdjust="spacing" textLength="105" x="869" y="1123.7529">authenticatedUser</text><polygon fill="#181818" points="873,1138.5078,863,1142.5078,873,1146.5078,869,1142.5078" style="stroke:#181818;stroke-width:1.0;"/><line style="stroke:#181818;stroke-width:1.0;stroke-dasharray:2.0,2.0;" x1="867" x2="1172" y1="1142.5078" y2="1142.5078"/><polygon fill="#181818" points="1257,1167.0313,1267,1171.0313,1257,1175.0313,1261,1171.0313" style="stroke:#181818;stroke-width:1.0;"/><line style="stroke:#181818;stroke-width:1.0;" x1="862" x2="1263" y1="1171.0313" y2="1171.0313"/><text fill="#000000" font-family="sans-serif" font-size="13" lengthAdjust="spacing" textLength="44" x="869" y="1166.2764">hasAny</text><polygon fill="#181818" points="1376,1195.5547,1386,1199.5547,1376,1203.5547,1380,1199.5547" style="stroke:#181818;stroke-width:1.0;"/><line style="stroke:#181818;stroke-width:1.0;" x1="1279" x2="1382" y1="1199.5547" y2="1199.5547"/><text fill="#000000" font-family="sans-serif" font-size="13" lengthAdjust="spacing" textLength="90" x="1286" y="1194.7998">hasAssignment</text><polygon fill="#181818" points="1290,1209.5547,1280,1213.5547,1290,1217.5547,1286,1213.5547" style="stroke:#181818;stroke-width:1.0;"/><line style="stroke:#181818;stroke-width:1.0;stroke-dasharray:2.0,2.0;" x1="1284" x2="1392" y1="1213.5547" y2="1213.5547"/><polygon fill="#181818" points="873,1223.5547,863,1227.5547,873,1231.5547,869,1227.5547" style="stroke:#181818;stroke-width:1.0;"/><line style="stroke:#181818;stroke-width:1.0;stroke-dasharray:2.0,2.0;" x1="867" x2="1273" y1="1227.5547" y2="1227.5547"/><polygon fill="#181818" points="1156,1252.0781,1166,1256.0781,1156,1260.0781,1160,1256.0781" style="stroke:#181818;stroke-width:1.0;"/><line style="stroke:#181818;stroke-width:1.0;" x1="862" x2="1162" y1="1256.0781" y2="1256.0781"/><text fill="#000000" font-family="sans-serif" font-size="13" lengthAdjust="spacing" textLength="105" x="869" y="1251.3232">authenticatedUser</text><polygon fill="#181818" points="873,1266.0781,863,1270.0781,873,1274.0781,869,1270.0781" style="stroke:#181818;stroke-width:1.0;"/><line style="stroke:#181818;stroke-width:1.0;stroke-dasharray:2.0,2.0;" x1="867" x2="1172" y1="1270.0781" y2="1270.0781"/><polygon fill="#181818" points="1257,1294.6016,1267,1298.6016,1257,1302.6016,1261,1298.6016" style="stroke:#181818;stroke-width:1.0;"/><line style="stroke:#181818;stroke-width:1.0;" x1="862" x2="1263" y1="1298.6016" y2="1298.6016"/><text fill="#000000" font-family="sans-serif" font-size="13" lengthAdjust="spacing" textLength="31" x="869" y="1293.8467">email</text><polygon fill="#181818" points="873,1308.6016,863,1312.6016,873,1316.6016,869,1312.6016" style="stroke:#181818;stroke-width:1.0;"/><line style="stroke:#181818;stroke-width:1.0;stroke-dasharray:2.0,2.0;" x1="867" x2="1273" y1="1312.6016" y2="1312.6016"/><polygon fill="#181818" points="1156,1337.125,1166,1341.125,1156,1345.125,1160,1341.125" style="stroke:#181818;stroke-width:1.0;"/><line style="stroke:#181818;stroke-width:1.0;" x1="862" x2="1162" y1="1341.125" y2="1341.125"/><text fill="#000000" font-family="sans-serif" font-size="13" lengthAdjust="spacing" textLength="105" x="869" y="1336.3701">authenticatedUser</text><polygon fill="#181818" points="873,1351.125,863,1355.125,873,1359.125,869,1355.125" style="stroke:#181818;stroke-width:1.0;"/><line style="stroke:#181818;stroke-width:1.0;stroke-dasharray:2.0,2.0;" x1="867" x2="1172" y1="1355.125" y2="1355.125"/><polygon fill="#181818" points="1423,1379.6484,1433,1383.6484,1423,1387.6484,1427,1383.6484" style="stroke:#181818;stroke-width:1.0;"/><line style="stroke:#181818;stroke-width:1.0;" x1="862" x2="1429" y1="1383.6484" y2="1383.6484"/><text fill="#000000" font-family="sans-serif" font-size="13" lengthAdjust="spacing" textLength="23" x="869" y="1378.8936">new</text><rect fill="#E2E2F0" height="29.6406" rx="2.5" ry="2.5" style="stroke:#181818;stroke-width:0.5;" width="158" x="1435" y="1363.125"/><text fill="#000000" font-family="sans-serif" font-size="14" lengthAdjust="spacing" textLength="144" x="1442" y="1382.7988">UnauthorizedException</text><line style="stroke:#181818;stroke-width:1.0;" x1="1519" x2="1566" y1="1419.2891" y2="1419.2891"/><line style="stroke:#181818;stroke-width:1.0;" x1="1566" x2="1566" y1="1419.2891" y2="1432.2891"/><line style="stroke:#181818;stroke-width:1.0;" x1="1525" x2="1566" y1="1432.2891" y2="1432.2891"/><polygon fill="#181818" points="1535,1428.2891,1525,1432.2891,1535,1436.2891,1531,1432.2891" style="stroke:#181818;stroke-width:1.0;"/><text fill="#000000" font-family="sans-serif" font-size="13" lengthAdjust="spacing" textLength="80" x="1531" y="1414.5342">buildMessage</text><line style="stroke:#181818;stroke-width:1.0;stroke-dasharray:2.0,2.0;" x1="1524" x2="1566" y1="1456.2891" y2="1456.2891"/><line style="stroke:#181818;stroke-width:1.0;stroke-dasharray:2.0,2.0;" x1="1566" x2="1566" y1="1456.2891" y2="1469.2891"/><line style="stroke:#181818;stroke-width:1.0;stroke-dasharray:2.0,2.0;" x1="1519" x2="1566" y1="1469.2891" y2="1469.2891"/><polygon fill="#181818" points="1529,1465.2891,1519,1469.2891,1529,1473.2891,1525,1469.2891" style="stroke:#181818;stroke-width:1.0;"/><polygon fill="#181818" points="873,1474.2891,863,1478.2891,873,1482.2891,869,1478.2891" style="stroke:#181818;stroke-width:1.0;"/><line style="stroke:#181818;stroke-width:1.0;stroke-dasharray:2.0,2.0;" x1="867" x2="1513" y1="1478.2891" y2="1478.2891"/><polygon fill="#181818" points="639,1488.2891,629,1492.2891,639,1496.2891,635,1492.2891" style="stroke:#181818;stroke-width:1.0;"/><line style="stroke:#181818;stroke-width:1.0;stroke-dasharray:2.0,2.0;" x1="633" x2="856" y1="1492.2891" y2="1492.2891"/><polygon fill="#181818" points="840,1516.8125,850,1520.8125,840,1524.8125,844,1520.8125" style="stroke:#181818;stroke-width:1.0;"/><line style="stroke:#181818;stroke-width:1.0;" x1="628" x2="846" y1="1520.8125" y2="1520.8125"/><text fill="#000000" font-family="sans-serif" font-size="13" lengthAdjust="spacing" textLength="45" x="635" y="1516.0576">session</text><polygon fill="#181818" points="639,1530.8125,629,1534.8125,639,1538.8125,635,1534.8125" style="stroke:#181818;stroke-width:1.0;"/><line style="stroke:#181818;stroke-width:1.0;stroke-dasharray:2.0,2.0;" x1="633" x2="856" y1="1534.8125" y2="1534.8125"/><polygon fill="#181818" points="1156,1559.3359,1166,1563.3359,1156,1567.3359,1160,1563.3359" style="stroke:#181818;stroke-width:1.0;"/><line style="stroke:#181818;stroke-width:1.0;" x1="628" x2="1162" y1="1563.3359" y2="1563.3359"/><text fill="#000000" font-family="sans-serif" font-size="13" lengthAdjust="spacing" textLength="105" x="635" y="1558.5811">authenticatedUser</text><polygon fill="#181818" points="639,1573.3359,629,1577.3359,639,1581.3359,635,1577.3359" style="stroke:#181818;stroke-width:1.0;"/><line style="stroke:#181818;stroke-width:1.0;stroke-dasharray:2.0,2.0;" x1="633" x2="1172" y1="1577.3359" y2="1577.3359"/><polygon fill="#181818" points="1257,1601.8594,1267,1605.8594,1257,1609.8594,1261,1605.8594" style="stroke:#181818;stroke-width:1.0;"/><line style="stroke:#181818;stroke-width:1.0;" x1="628" x2="1263" y1="1605.8594" y2="1605.8594"/><text fill="#000000" font-family="sans-serif" font-size="13" lengthAdjust="spacing" textLength="31" x="635" y="1601.1045">email</text><polygon fill="#181818" points="639,1615.8594,629,1619.8594,639,1623.8594,635,1619.8594" style="stroke:#181818;stroke-width:1.0;"/><line style="stroke:#181818;stroke-width:1.0;stroke-dasharray:2.0,2.0;" x1="633" x2="1273" y1="1619.8594" y2="1619.8594"/><polygon fill="#181818" points="277.5,1644.3828,267.5,1648.3828,277.5,1652.3828,273.5,1648.3828" style="stroke:#181818;stroke-width:1.0;"/><line style="stroke:#181818;stroke-width:1.0;" x1="271.5" x2="617" y1="1648.3828" y2="1648.3828"/><text fill="#000000" font-family="sans-serif" font-size="13" lengthAdjust="spacing" textLength="114" x="283.5" y="1643.6279">findStudentByEmail</text><polygon fill="#181818" points="606,1658.3828,616,1662.3828,606,1666.3828,610,1662.3828" style="stroke:#181818;stroke-width:1.0;"/><line style="stroke:#181818;stroke-width:1.0;stroke-dasharray:2.0,2.0;" x1="261.5" x2="612" y1="1662.3828" y2="1662.3828"/><polygon fill="#181818" points="1680.5,1686.9063,1690.5,1690.9063,1680.5,1694.9063,1684.5,1690.9063" style="stroke:#181818;stroke-width:1.0;"/><line style="stroke:#181818;stroke-width:1.0;" x1="628" x2="1686.5" y1="1690.9063" y2="1690.9063"/><text fill="#000000" font-family="sans-serif" font-size="13" lengthAdjust="spacing" textLength="132" x="635" y="1686.1514">findEnrollStateCourses</text><polygon fill="#181818" points="146,1715.4297,136,1719.4297,146,1723.4297,142,1719.4297" style="stroke:#181818;stroke-width:1.0;"/><line style="stroke:#181818;stroke-width:1.0;" x1="140" x2="1691.5" y1="1719.4297" y2="1719.4297"/><text fill="#000000" font-family="sans-serif" font-size="13" lengthAdjust="spacing" textLength="132" x="152" y="1714.6748">findEnrollStateCourses</text><polygon fill="#181818" points="1680.5,1729.4297,1690.5,1733.4297,1680.5,1737.4297,1684.5,1733.4297" style="stroke:#181818;stroke-width:1.0;"/><line style="stroke:#181818;stroke-width:1.0;stroke-dasharray:2.0,2.0;" x1="130" x2="1686.5" y1="1733.4297" y2="1733.4297"/><polygon fill="#181818" points="639,1743.4297,629,1747.4297,639,1751.4297,635,1747.4297" style="stroke:#181818;stroke-width:1.0;"/><line style="stroke:#181818;stroke-width:1.0;stroke-dasharray:2.0,2.0;" x1="633" x2="1696.5" y1="1747.4297" y2="1747.4297"/><polygon fill="#181818" points="434,1757.4297,424,1761.4297,434,1765.4297,430,1761.4297" style="stroke:#181818;stroke-width:1.0;"/><line style="stroke:#181818;stroke-width:1.0;stroke-dasharray:2.0,2.0;" x1="428" x2="622" y1="1761.4297" y2="1761.4297"/><polygon fill="#181818" points="43.5,1771.4297,33.5,1775.4297,43.5,1779.4297,39.5,1775.4297" style="stroke:#181818;stroke-width:1.0;"/><line style="stroke:#181818;stroke-width:1.0;stroke-dasharray:2.0,2.0;" x1="37.5" x2="417" y1="1775.4297" y2="1775.4297"/><!--SRC=[xLZBJiCm4BpxAo9ESEWFS41A7n8S419HFy1DjjHIQYFRAPIlPzsaZHkoZLEA42BNUcPslBNNe_3KAXqbjiX0MfPnonVSG7GrKOKsy0oloWX4RAyYRgB9TEn1Ab83ao2cMeb6Tr6oKc-bbeatNEHyaSFy8RgDCkMM64-js70B190HV49vegJLAiz1OmM3WDZ9GmKxNQpciWvfB1uNTgMq-E1MA9c0teWKi2H8KsXmYxXzaMAfR6v0ttCJo-tJiZRGncUjedGnT6VmXxD42LMMmKKjNj_WOeV1L8DRcqlkjstsdiAhWv4bAGAMbU0TB5AO50ZfJa-xb-wtErL9-V_ZVddpm7cxhu7C9mNjqUDIHfAjiR1sIFInsfrpxveT5fc7GzQpoY41Mr6mmejSk_bpO5O0jWUEZahv9lT8lq30tZonlzLZMED0wcpn7-t0qInmfF11q42tJu6cP3lrXEQY47dsY6xv2vmfJgb_dIxXWc7JAgoXdKzhvz3gVZxBrKSkiOtkujSlnbB8BCxpyjskEqmG62NaQap79_GmfJZ0Y3RZRtC7fqhrQXXLhAjdP9GwkjBzOqsFB5K1PdBtQpQagI5D3MbgI5D3cXhIr92cVZDD_SoBzatR0RulSY72RVegtURE6nFXRZoD43U7C5jzMnjlPmrFxhjRbMXxk72iRyRrCX0c5lNs7zek5DnRbFztWjTW2oq_0G00]--></g></svg>