<?xml version="1.0" encoding="us-ascii" standalone="no"?><svg xmlns="http://www.w3.org/2000/svg" xmlns:xlink="http://www.w3.org/1999/xlink" contentStyleType="text/css" height="435px" preserveAspectRatio="none" style="width:738px;height:435px;background:#FFFFFF;" version="1.1" viewBox="0 0 738 435" width="738px" zoomAndPan="magnify"><defs/><g><!--class Student--><g id="elem_Student"><rect codeLine="1" fill="#F1F1F1" height="204.4063" id="Student" rx="2.5" ry="2.5" style="stroke:#181818;stroke-width:0.5;" width="325" x="7" y="7"/><ellipse cx="140.75" cy="23" fill="#ADD1B2" rx="11" ry="11" style="stroke:#181818;stroke-width:1.0;"/><path d="M143.5156,18.875 Q143.6719,18.6563 143.8594,18.5469 Q144.0469,18.4375 144.2656,18.4375 Q144.6406,18.4375 144.875,18.7031 Q145.1094,18.9531 145.1094,19.5625 L145.1094,21.0156 Q145.1094,21.625 144.875,21.8906 Q144.6406,22.1563 144.2656,22.1563 Q143.9219,22.1563 143.7188,21.9531 Q143.5156,21.7656 143.4063,21.25 Q143.3594,20.8906 143.1719,20.7031 Q142.8438,20.3281 142.2344,20.1094 Q141.625,19.8906 141,19.8906 Q140.2344,19.8906 139.5938,20.2188 Q138.9688,20.5469 138.4688,21.2969 Q137.9844,22.0469 137.9844,23.0781 L137.9844,24.1719 Q137.9844,25.4063 138.875,26.2344 Q139.7656,27.0469 141.3594,27.0469 Q142.2969,27.0469 142.9531,26.7969 Q143.3438,26.6406 143.7656,26.2031 Q144.0313,25.9375 144.1719,25.8594 Q144.3281,25.7813 144.5313,25.7813 Q144.8594,25.7813 145.1094,26.0469 Q145.375,26.2969 145.375,26.6406 Q145.375,26.9844 145.0313,27.3906 Q144.5313,27.9688 143.7344,28.2969 Q142.6563,28.75 141.3594,28.75 Q139.8438,28.75 138.6406,28.125 Q137.6563,27.625 136.9688,26.5625 Q136.2813,25.4844 136.2813,24.2031 L136.2813,23.0469 Q136.2813,21.7188 136.8906,20.5781 Q137.5156,19.4219 138.6094,18.8125 Q139.7031,18.1875 140.9375,18.1875 Q141.6719,18.1875 142.3125,18.3594 Q142.9688,18.5156 143.5156,18.875 Z " fill="#000000"/><text fill="#000000" font-family="sans-serif" font-size="14" lengthAdjust="spacing" textLength="49" x="161.25" y="27.8535">Student</text><line style="stroke:#181818;stroke-width:0.5;" x1="8" x2="331" y1="39" y2="39"/><rect fill="none" height="6" style="stroke:#C82930;stroke-width:1.0;" width="6" x="15" y="49.3203"/><text fill="#000000" font-family="sans-serif" font-size="14" lengthAdjust="spacing" textLength="34" x="27" y="55.6738">id: int</text><rect fill="none" height="6" style="stroke:#C82930;stroke-width:1.0;" width="6" x="15" y="64.9609"/><text fill="#000000" font-family="sans-serif" font-size="14" lengthAdjust="spacing" textLength="80" x="27" y="71.3145">name: String</text><rect fill="none" height="6" style="stroke:#C82930;stroke-width:1.0;" width="6" x="15" y="80.6016"/><text fill="#000000" font-family="sans-serif" font-size="14" lengthAdjust="spacing" textLength="78" x="27" y="86.9551">email: String</text><rect fill="none" height="6" style="stroke:#C82930;stroke-width:1.0;" width="6" x="15" y="96.2422"/><text fill="#000000" font-family="sans-serif" font-size="14" lengthAdjust="spacing" textLength="186" x="27" y="102.5957">enrollments: List&lt;Enrollment&gt;</text><line style="stroke:#181818;stroke-width:0.5;" x1="8" x2="331" y1="109.5625" y2="109.5625"/><ellipse cx="18" cy="122.8828" fill="#84BE84" rx="3" ry="3" style="stroke:#038048;stroke-width:1.0;"/><text fill="#000000" font-family="sans-serif" font-size="14" lengthAdjust="spacing" textLength="64" x="27" y="126.2363">getId(): int</text><ellipse cx="18" cy="138.5234" fill="#84BE84" rx="3" ry="3" style="stroke:#038048;stroke-width:1.0;"/><text fill="#000000" font-family="sans-serif" font-size="14" lengthAdjust="spacing" textLength="111" x="27" y="141.877">getName(): String</text><ellipse cx="18" cy="154.1641" fill="#84BE84" rx="3" ry="3" style="stroke:#038048;stroke-width:1.0;"/><text fill="#000000" font-family="sans-serif" font-size="14" lengthAdjust="spacing" textLength="109" x="27" y="157.5176">getEmail(): String</text><ellipse cx="18" cy="169.8047" fill="#84BE84" rx="3" ry="3" style="stroke:#038048;stroke-width:1.0;"/><text fill="#000000" font-family="sans-serif" font-size="14" lengthAdjust="spacing" textLength="217" x="27" y="173.1582">getEnrollments(): List&lt;Enrollment&gt;</text><ellipse cx="18" cy="185.4453" fill="#84BE84" rx="3" ry="3" style="stroke:#038048;stroke-width:1.0;"/><text fill="#000000" font-family="sans-serif" font-size="14" lengthAdjust="spacing" textLength="276" x="27" y="188.7988">addEnrollment(enrollment: Enrollment): void</text><ellipse cx="18" cy="201.0859" fill="#84BE84" rx="3" ry="3" style="stroke:#038048;stroke-width:1.0;"/><text fill="#000000" font-family="sans-serif" font-size="14" lengthAdjust="spacing" textLength="299" x="27" y="204.4395">removeEnrollment(enrollment: Enrollment): void</text></g><!--class CourseRepository--><g id="elem_CourseRepository"><rect codeLine="14" fill="#F1F1F1" height="110.5625" id="CourseRepository" rx="2.5" ry="2.5" style="stroke:#181818;stroke-width:0.5;" width="206" x="484.5" y="302.5"/><ellipse cx="526.5" cy="318.5" fill="#ADD1B2" rx="11" ry="11" style="stroke:#181818;stroke-width:1.0;"/><path d="M529.2656,314.375 Q529.4219,314.1563 529.6094,314.0469 Q529.7969,313.9375 530.0156,313.9375 Q530.3906,313.9375 530.625,314.2031 Q530.8594,314.4531 530.8594,315.0625 L530.8594,316.5156 Q530.8594,317.125 530.625,317.3906 Q530.3906,317.6563 530.0156,317.6563 Q529.6719,317.6563 529.4688,317.4531 Q529.2656,317.2656 529.1563,316.75 Q529.1094,316.3906 528.9219,316.2031 Q528.5938,315.8281 527.9844,315.6094 Q527.375,315.3906 526.75,315.3906 Q525.9844,315.3906 525.3438,315.7188 Q524.7188,316.0469 524.2188,316.7969 Q523.7344,317.5469 523.7344,318.5781 L523.7344,319.6719 Q523.7344,320.9063 524.625,321.7344 Q525.5156,322.5469 527.1094,322.5469 Q528.0469,322.5469 528.7031,322.2969 Q529.0938,322.1406 529.5156,321.7031 Q529.7813,321.4375 529.9219,321.3594 Q530.0781,321.2813 530.2813,321.2813 Q530.6094,321.2813 530.8594,321.5469 Q531.125,321.7969 531.125,322.1406 Q531.125,322.4844 530.7813,322.8906 Q530.2813,323.4688 529.4844,323.7969 Q528.4063,324.25 527.1094,324.25 Q525.5938,324.25 524.3906,323.625 Q523.4063,323.125 522.7188,322.0625 Q522.0313,320.9844 522.0313,319.7031 L522.0313,318.5469 Q522.0313,317.2188 522.6406,316.0781 Q523.2656,314.9219 524.3594,314.3125 Q525.4531,313.6875 526.6875,313.6875 Q527.4219,313.6875 528.0625,313.8594 Q528.7188,314.0156 529.2656,314.375 Z " fill="#000000"/><text fill="#000000" font-family="sans-serif" font-size="14" lengthAdjust="spacing" textLength="114" x="546.5" y="323.3535">CourseRepository</text><line style="stroke:#181818;stroke-width:0.5;" x1="485.5" x2="689.5" y1="334.5" y2="334.5"/><line style="stroke:#181818;stroke-width:0.5;" x1="485.5" x2="689.5" y1="342.5" y2="342.5"/><ellipse cx="495.5" cy="355.8203" fill="#84BE84" rx="3" ry="3" style="stroke:#038048;stroke-width:1.0;"/><text fill="#000000" font-family="sans-serif" font-size="14" lengthAdjust="spacing" textLength="140" x="504.5" y="359.1738">findAll(): List&lt;Course&gt;</text><ellipse cx="495.5" cy="371.4609" fill="#84BE84" rx="3" ry="3" style="stroke:#038048;stroke-width:1.0;"/><text fill="#000000" font-family="sans-serif" font-size="14" lengthAdjust="spacing" textLength="148" x="504.5" y="374.8145">findById(id: int): Course</text><ellipse cx="495.5" cy="387.1016" fill="#84BE84" rx="3" ry="3" style="stroke:#038048;stroke-width:1.0;"/><text fill="#000000" font-family="sans-serif" font-size="14" lengthAdjust="spacing" textLength="171" x="504.5" y="390.4551">save(course: Course): void</text><ellipse cx="495.5" cy="402.7422" fill="#84BE84" rx="3" ry="3" style="stroke:#038048;stroke-width:1.0;"/><text fill="#000000" font-family="sans-serif" font-size="14" lengthAdjust="spacing" textLength="180" x="504.5" y="406.0957">delete(course: Course): void</text></g><!--class Course--><g id="elem_Course"><rect codeLine="21" fill="#F1F1F1" height="204.4063" id="Course" rx="2.5" ry="2.5" style="stroke:#181818;stroke-width:0.5;" width="325" x="406" y="7"/><ellipse cx="541.25" cy="23" fill="#ADD1B2" rx="11" ry="11" style="stroke:#181818;stroke-width:1.0;"/><path d="M544.0156,18.875 Q544.1719,18.6563 544.3594,18.5469 Q544.5469,18.4375 544.7656,18.4375 Q545.1406,18.4375 545.375,18.7031 Q545.6094,18.9531 545.6094,19.5625 L545.6094,21.0156 Q545.6094,21.625 545.375,21.8906 Q545.1406,22.1563 544.7656,22.1563 Q544.4219,22.1563 544.2188,21.9531 Q544.0156,21.7656 543.9063,21.25 Q543.8594,20.8906 543.6719,20.7031 Q543.3438,20.3281 542.7344,20.1094 Q542.125,19.8906 541.5,19.8906 Q540.7344,19.8906 540.0938,20.2188 Q539.4688,20.5469 538.9688,21.2969 Q538.4844,22.0469 538.4844,23.0781 L538.4844,24.1719 Q538.4844,25.4063 539.375,26.2344 Q540.2656,27.0469 541.8594,27.0469 Q542.7969,27.0469 543.4531,26.7969 Q543.8438,26.6406 544.2656,26.2031 Q544.5313,25.9375 544.6719,25.8594 Q544.8281,25.7813 545.0313,25.7813 Q545.3594,25.7813 545.6094,26.0469 Q545.875,26.2969 545.875,26.6406 Q545.875,26.9844 545.5313,27.3906 Q545.0313,27.9688 544.2344,28.2969 Q543.1563,28.75 541.8594,28.75 Q540.3438,28.75 539.1406,28.125 Q538.1563,27.625 537.4688,26.5625 Q536.7813,25.4844 536.7813,24.2031 L536.7813,23.0469 Q536.7813,21.7188 537.3906,20.5781 Q538.0156,19.4219 539.1094,18.8125 Q540.2031,18.1875 541.4375,18.1875 Q542.1719,18.1875 542.8125,18.3594 Q543.4688,18.5156 544.0156,18.875 Z " fill="#000000"/><text fill="#000000" font-family="sans-serif" font-size="14" lengthAdjust="spacing" textLength="46" x="561.75" y="27.8535">Course</text><line style="stroke:#181818;stroke-width:0.5;" x1="407" x2="730" y1="39" y2="39"/><rect fill="none" height="6" style="stroke:#C82930;stroke-width:1.0;" width="6" x="414" y="49.3203"/><text fill="#000000" font-family="sans-serif" font-size="14" lengthAdjust="spacing" textLength="34" x="426" y="55.6738">id: int</text><rect fill="none" height="6" style="stroke:#C82930;stroke-width:1.0;" width="6" x="414" y="64.9609"/><text fill="#000000" font-family="sans-serif" font-size="14" lengthAdjust="spacing" textLength="80" x="426" y="71.3145">name: String</text><rect fill="none" height="6" style="stroke:#C82930;stroke-width:1.0;" width="6" x="414" y="80.6016"/><text fill="#000000" font-family="sans-serif" font-size="14" lengthAdjust="spacing" textLength="114" x="426" y="86.9551">description: String</text><rect fill="none" height="6" style="stroke:#C82930;stroke-width:1.0;" width="6" x="414" y="96.2422"/><text fill="#000000" font-family="sans-serif" font-size="14" lengthAdjust="spacing" textLength="186" x="426" y="102.5957">enrollments: List&lt;Enrollment&gt;</text><line style="stroke:#181818;stroke-width:0.5;" x1="407" x2="730" y1="109.5625" y2="109.5625"/><ellipse cx="417" cy="122.8828" fill="#84BE84" rx="3" ry="3" style="stroke:#038048;stroke-width:1.0;"/><text fill="#000000" font-family="sans-serif" font-size="14" lengthAdjust="spacing" textLength="64" x="426" y="126.2363">getId(): int</text><ellipse cx="417" cy="138.5234" fill="#84BE84" rx="3" ry="3" style="stroke:#038048;stroke-width:1.0;"/><text fill="#000000" font-family="sans-serif" font-size="14" lengthAdjust="spacing" textLength="111" x="426" y="141.877">getName(): String</text><ellipse cx="417" cy="154.1641" fill="#84BE84" rx="3" ry="3" style="stroke:#038048;stroke-width:1.0;"/><text fill="#000000" font-family="sans-serif" font-size="14" lengthAdjust="spacing" textLength="146" x="426" y="157.5176">getDescription(): String</text><ellipse cx="417" cy="169.8047" fill="#84BE84" rx="3" ry="3" style="stroke:#038048;stroke-width:1.0;"/><text fill="#000000" font-family="sans-serif" font-size="14" lengthAdjust="spacing" textLength="217" x="426" y="173.1582">getEnrollments(): List&lt;Enrollment&gt;</text><ellipse cx="417" cy="185.4453" fill="#84BE84" rx="3" ry="3" style="stroke:#038048;stroke-width:1.0;"/><text fill="#000000" font-family="sans-serif" font-size="14" lengthAdjust="spacing" textLength="276" x="426" y="188.7988">addEnrollment(enrollment: Enrollment): void</text><ellipse cx="417" cy="201.0859" fill="#84BE84" rx="3" ry="3" style="stroke:#038048;stroke-width:1.0;"/><text fill="#000000" font-family="sans-serif" font-size="14" lengthAdjust="spacing" textLength="299" x="426" y="204.4395">removeEnrollment(enrollment: Enrollment): void</text></g><!--class StudentRepository--><g id="elem_StudentRepository"><rect codeLine="34" fill="#F1F1F1" height="126.2031" id="StudentRepository" rx="2.5" ry="2.5" style="stroke:#181818;stroke-width:0.5;" width="244" x="8.5" y="295"/><ellipse cx="67.75" cy="311" fill="#ADD1B2" rx="11" ry="11" style="stroke:#181818;stroke-width:1.0;"/><path d="M70.5156,306.875 Q70.6719,306.6563 70.8594,306.5469 Q71.0469,306.4375 71.2656,306.4375 Q71.6406,306.4375 71.875,306.7031 Q72.1094,306.9531 72.1094,307.5625 L72.1094,309.0156 Q72.1094,309.625 71.875,309.8906 Q71.6406,310.1563 71.2656,310.1563 Q70.9219,310.1563 70.7188,309.9531 Q70.5156,309.7656 70.4063,309.25 Q70.3594,308.8906 70.1719,308.7031 Q69.8438,308.3281 69.2344,308.1094 Q68.625,307.8906 68,307.8906 Q67.2344,307.8906 66.5938,308.2188 Q65.9688,308.5469 65.4688,309.2969 Q64.9844,310.0469 64.9844,311.0781 L64.9844,312.1719 Q64.9844,313.4063 65.875,314.2344 Q66.7656,315.0469 68.3594,315.0469 Q69.2969,315.0469 69.9531,314.7969 Q70.3438,314.6406 70.7656,314.2031 Q71.0313,313.9375 71.1719,313.8594 Q71.3281,313.7813 71.5313,313.7813 Q71.8594,313.7813 72.1094,314.0469 Q72.375,314.2969 72.375,314.6406 Q72.375,314.9844 72.0313,315.3906 Q71.5313,315.9688 70.7344,316.2969 Q69.6563,316.75 68.3594,316.75 Q66.8438,316.75 65.6406,316.125 Q64.6563,315.625 63.9688,314.5625 Q63.2813,313.4844 63.2813,312.2031 L63.2813,311.0469 Q63.2813,309.7188 63.8906,308.5781 Q64.5156,307.4219 65.6094,306.8125 Q66.7031,306.1875 67.9375,306.1875 Q68.6719,306.1875 69.3125,306.3594 Q69.9688,306.5156 70.5156,306.875 Z " fill="#000000"/><text fill="#000000" font-family="sans-serif" font-size="14" lengthAdjust="spacing" textLength="117" x="88.25" y="315.8535">StudentRepository</text><line style="stroke:#181818;stroke-width:0.5;" x1="9.5" x2="251.5" y1="327" y2="327"/><line style="stroke:#181818;stroke-width:0.5;" x1="9.5" x2="251.5" y1="335" y2="335"/><ellipse cx="19.5" cy="348.3203" fill="#84BE84" rx="3" ry="3" style="stroke:#038048;stroke-width:1.0;"/><text fill="#000000" font-family="sans-serif" font-size="14" lengthAdjust="spacing" textLength="143" x="28.5" y="351.6738">findAll(): List&lt;Student&gt;</text><ellipse cx="19.5" cy="363.9609" fill="#84BE84" rx="3" ry="3" style="stroke:#038048;stroke-width:1.0;"/><text fill="#000000" font-family="sans-serif" font-size="14" lengthAdjust="spacing" textLength="151" x="28.5" y="367.3145">findById(id: int): Student</text><ellipse cx="19.5" cy="379.6016" fill="#84BE84" rx="3" ry="3" style="stroke:#038048;stroke-width:1.0;"/><text fill="#000000" font-family="sans-serif" font-size="14" lengthAdjust="spacing" textLength="218" x="28.5" y="382.9551">findByEmail(email: String): Student</text><ellipse cx="19.5" cy="395.2422" fill="#84BE84" rx="3" ry="3" style="stroke:#038048;stroke-width:1.0;"/><text fill="#000000" font-family="sans-serif" font-size="14" lengthAdjust="spacing" textLength="178" x="28.5" y="398.5957">save(student: Student): void</text><ellipse cx="19.5" cy="410.8828" fill="#84BE84" rx="3" ry="3" style="stroke:#038048;stroke-width:1.0;"/><text fill="#000000" font-family="sans-serif" font-size="14" lengthAdjust="spacing" textLength="187" x="28.5" y="414.2363">delete(student: Student): void</text></g><!--class Enrollment--><g id="elem_Enrollment"><rect codeLine="42" fill="#F1F1F1" height="141.8438" id="Enrollment" rx="2.5" ry="2.5" style="stroke:#181818;stroke-width:0.5;" width="162" x="287.5" y="287"/><ellipse cx="330.85" cy="303" fill="#ADD1B2" rx="11" ry="11" style="stroke:#181818;stroke-width:1.0;"/><path d="M333.6156,298.875 Q333.7719,298.6563 333.9594,298.5469 Q334.1469,298.4375 334.3656,298.4375 Q334.7406,298.4375 334.975,298.7031 Q335.2094,298.9531 335.2094,299.5625 L335.2094,301.0156 Q335.2094,301.625 334.975,301.8906 Q334.7406,302.1563 334.3656,302.1563 Q334.0219,302.1563 333.8188,301.9531 Q333.6156,301.7656 333.5063,301.25 Q333.4594,300.8906 333.2719,300.7031 Q332.9438,300.3281 332.3344,300.1094 Q331.725,299.8906 331.1,299.8906 Q330.3344,299.8906 329.6938,300.2188 Q329.0688,300.5469 328.5688,301.2969 Q328.0844,302.0469 328.0844,303.0781 L328.0844,304.1719 Q328.0844,305.4063 328.975,306.2344 Q329.8656,307.0469 331.4594,307.0469 Q332.3969,307.0469 333.0531,306.7969 Q333.4438,306.6406 333.8656,306.2031 Q334.1313,305.9375 334.2719,305.8594 Q334.4281,305.7813 334.6313,305.7813 Q334.9594,305.7813 335.2094,306.0469 Q335.475,306.2969 335.475,306.6406 Q335.475,306.9844 335.1313,307.3906 Q334.6313,307.9688 333.8344,308.2969 Q332.7563,308.75 331.4594,308.75 Q329.9438,308.75 328.7406,308.125 Q327.7563,307.625 327.0688,306.5625 Q326.3813,305.4844 326.3813,304.2031 L326.3813,303.0469 Q326.3813,301.7188 326.9906,300.5781 Q327.6156,299.4219 328.7094,298.8125 Q329.8031,298.1875 331.0375,298.1875 Q331.7719,298.1875 332.4125,298.3594 Q333.0688,298.5156 333.6156,298.875 Z " fill="#000000"/><text fill="#000000" font-family="sans-serif" font-size="14" lengthAdjust="spacing" textLength="67" x="351.15" y="307.8535">Enrollment</text><line style="stroke:#181818;stroke-width:0.5;" x1="288.5" x2="448.5" y1="319" y2="319"/><rect fill="none" height="6" style="stroke:#C82930;stroke-width:1.0;" width="6" x="295.5" y="329.3203"/><text fill="#000000" font-family="sans-serif" font-size="14" lengthAdjust="spacing" textLength="34" x="307.5" y="335.6738">id: int</text><rect fill="none" height="6" style="stroke:#C82930;stroke-width:1.0;" width="6" x="295.5" y="344.9609"/><text fill="#000000" font-family="sans-serif" font-size="14" lengthAdjust="spacing" textLength="104" x="307.5" y="351.3145">student: Student</text><rect fill="none" height="6" style="stroke:#C82930;stroke-width:1.0;" width="6" x="295.5" y="360.6016"/><text fill="#000000" font-family="sans-serif" font-size="14" lengthAdjust="spacing" textLength="97" x="307.5" y="366.9551">course: Course</text><line style="stroke:#181818;stroke-width:0.5;" x1="288.5" x2="448.5" y1="373.9219" y2="373.9219"/><ellipse cx="298.5" cy="387.2422" fill="#84BE84" rx="3" ry="3" style="stroke:#038048;stroke-width:1.0;"/><text fill="#000000" font-family="sans-serif" font-size="14" lengthAdjust="spacing" textLength="64" x="307.5" y="390.5957">getId(): int</text><ellipse cx="298.5" cy="402.8828" fill="#84BE84" rx="3" ry="3" style="stroke:#038048;stroke-width:1.0;"/><text fill="#000000" font-family="sans-serif" font-size="14" lengthAdjust="spacing" textLength="136" x="307.5" y="406.2363">getStudent(): Student</text><ellipse cx="298.5" cy="418.5234" fill="#84BE84" rx="3" ry="3" style="stroke:#038048;stroke-width:1.0;"/><text fill="#000000" font-family="sans-serif" font-size="14" lengthAdjust="spacing" textLength="130" x="307.5" y="421.877">getCourse(): Course</text></g><!--link Student to Enrollment--><g id="link_Student_Enrollment"><path codeLine="51" d="M251.02,211.18 C271.52,236.62 293.07,263.38 312.04,286.92 " fill="none" id="Student-Enrollment" style="stroke:#181818;stroke-width:1.0;"/><text fill="#000000" font-family="sans-serif" font-size="13" lengthAdjust="spacing" textLength="21" x="288.5" y="253.7686">has</text><text fill="#000000" font-family="sans-serif" font-size="13" lengthAdjust="spacing" textLength="7" x="249.9934" y="231.3121">1</text><text fill="#000000" font-family="sans-serif" font-size="13" lengthAdjust="spacing" textLength="5" x="300.5913" y="276.1857">*</text></g><!--link Course to Enrollment--><g id="link_Course_Enrollment"><path codeLine="52" d="M486.58,211.18 C465.97,236.62 444.31,263.38 425.24,286.92 " fill="none" id="Course-Enrollment" style="stroke:#181818;stroke-width:1.0;"/><text fill="#000000" font-family="sans-serif" font-size="13" lengthAdjust="spacing" textLength="21" x="457.5" y="253.7686">has</text><text fill="#000000" font-family="sans-serif" font-size="13" lengthAdjust="spacing" textLength="7" x="473.04" y="231.3121">1</text><text fill="#000000" font-family="sans-serif" font-size="13" lengthAdjust="spacing" textLength="5" x="426.1725" y="276.1857">*</text></g><!--link Student to StudentRepository--><g id="link_Student_StudentRepository"><path codeLine="53" d="M153.52,211.18 C149.34,237.67 144.93,265.58 141.11,289.81 " fill="none" id="Student-to-StudentRepository" style="stroke:#181818;stroke-width:1.0;"/><polygon fill="#181818" points="140.3,294.92,145.6633,286.6596,141.0849,289.982,137.7625,285.4036,140.3,294.92" style="stroke:#181818;stroke-width:1.0;"/></g><!--link Course to CourseRepository--><g id="link_Course_CourseRepository"><path codeLine="54" d="M576.28,211.18 C578.53,240.4 580.91,271.36 582.9,297.19 " fill="none" id="Course-to-CourseRepository" style="stroke:#181818;stroke-width:1.0;"/><polygon fill="#181818" points="583.29,302.29,586.6103,293.0177,582.9185,297.3038,578.6324,293.612,583.29,302.29" style="stroke:#181818;stroke-width:1.0;"/></g><!--SRC=[pLHDIyGm4BttLuIUgaiFNeiKrDs381xq5uHcN0DfiYJPmYB-TpFDrxQrhXV1M-UzDzENl6axGOqXh_R8G5hoKH1ISzOGBYq-Ijf3urZDvHvhw2aN4q1g9KJlUar3dhYnjxk4j4wmsODzPDLLd8ZrinkAI9g2u0udBz4y7hdlNa0PoqYL_JGamwvrK9oXN4El1lXrnsTHTECDFQYZDl021sMuLVeqNjNcZKjs9qJovbLjfEvFxkpXEft4iqWQEa3LZMM4ppmo463N-9cZYv4nC9tc1ykL_9FWjdd-FuulBFYb_89iBS10PzPlxUIhcCh6e8sl4x6CUasH_EUZBGAVzo8sNPsLE8E-cZfsXE-gyiOw6_4FKTwKfAv9ULsUUsh8EpL5sCYV975CNRVBJE809EVVsnS0]--></g></svg>