<?xml version="1.0" encoding="us-ascii" standalone="no"?><svg xmlns="http://www.w3.org/2000/svg" xmlns:xlink="http://www.w3.org/1999/xlink" contentStyleType="text/css" height="1176px" preserveAspectRatio="none" style="width:1888px;height:1176px;background:#FFFFFF;" version="1.1" viewBox="0 0 1888 1176" width="1888px" zoomAndPan="magnify"><defs/><g><rect fill="#FFFFFF" height="14" style="stroke:#181818;stroke-width:1.0;" width="10" x="129" y="1021.8672"/><rect fill="#FFFFFF" height="14" style="stroke:#181818;stroke-width:1.0;" width="10" x="262.5" y="908.2969"/><rect fill="#FFFFFF" height="966.7031" style="stroke:#181818;stroke-width:1.0;" width="10" x="422" y="111.1641"/><rect fill="#FFFFFF" height="924.1797" style="stroke:#181818;stroke-width:1.0;" width="10" x="629" y="139.6875"/><rect fill="#FFFFFF" height="583.9922" style="stroke:#181818;stroke-width:1.0;" width="10" x="863" y="168.2109"/><rect fill="#FFFFFF" height="25" style="stroke:#181818;stroke-width:1.0;" width="10" x="868" y="204.7344"/><rect fill="#FFFFFF" height="79.6406" style="stroke:#181818;stroke-width:1.0;" width="10" x="868" y="273.2578"/><rect fill="#FFFFFF" height="14" style="stroke:#181818;stroke-width:1.0;" width="10" x="863" y="780.7266"/><rect fill="#FFFFFF" height="16.1172" style="stroke:#181818;stroke-width:1.0;" width="10" x="1033.5" y="316.7813"/><rect fill="#FFFFFF" height="14" style="stroke:#181818;stroke-width:1.0;" width="10" x="1179" y="388.4219"/><rect fill="#FFFFFF" height="14" style="stroke:#181818;stroke-width:1.0;" width="10" x="1179" y="515.9922"/><rect fill="#FFFFFF" height="14" style="stroke:#181818;stroke-width:1.0;" width="10" x="1179" y="601.0391"/><rect fill="#FFFFFF" height="14" style="stroke:#181818;stroke-width:1.0;" width="10" x="1179" y="823.25"/><rect fill="#FFFFFF" height="56.5234" style="stroke:#181818;stroke-width:1.0;" width="10" x="1280" y="430.9453"/><rect fill="#FFFFFF" height="14" style="stroke:#181818;stroke-width:1.0;" width="10" x="1280" y="558.5156"/><rect fill="#FFFFFF" height="14" style="stroke:#181818;stroke-width:1.0;" width="10" x="1280" y="865.7734"/><rect fill="#FFFFFF" height="14" style="stroke:#181818;stroke-width:1.0;" width="10" x="1399" y="459.4688"/><rect fill="#FFFFFF" height="84.6406" style="stroke:#181818;stroke-width:1.0;" width="10" x="1520" y="653.5625"/><rect fill="#FFFFFF" height="25" style="stroke:#181818;stroke-width:1.0;" width="10" x="1525" y="692.2031"/><rect fill="#FFFFFF" height="14" style="stroke:#181818;stroke-width:1.0;" width="10" x="1643.5" y="950.8203"/><rect fill="#FFFFFF" height="56.5234" style="stroke:#181818;stroke-width:1.0;" width="10" x="1782.5" y="993.3438"/><line style="stroke:#181818;stroke-width:0.5;stroke-dasharray:5.0,5.0;" x1="34" x2="34" y1="80.6406" y2="1095.8672"/><line style="stroke:#181818;stroke-width:0.5;stroke-dasharray:5.0,5.0;" x1="134" x2="134" y1="80.6406" y2="1095.8672"/><line style="stroke:#181818;stroke-width:0.5;stroke-dasharray:5.0,5.0;" x1="267" x2="267" y1="80.6406" y2="1095.8672"/><line style="stroke:#181818;stroke-width:0.5;stroke-dasharray:5.0,5.0;" x1="427" x2="427" y1="80.6406" y2="1095.8672"/><line style="stroke:#181818;stroke-width:0.5;stroke-dasharray:5.0,5.0;" x1="634" x2="634" y1="80.6406" y2="1095.8672"/><line style="stroke:#181818;stroke-width:0.5;stroke-dasharray:5.0,5.0;" x1="867.5" x2="867.5" y1="80.6406" y2="1095.8672"/><line style="stroke:#181818;stroke-width:0.5;stroke-dasharray:5.0,5.0;" x1="1038.5" x2="1038.5" y1="316.5781" y2="1095.8672"/><line style="stroke:#181818;stroke-width:0.5;stroke-dasharray:5.0,5.0;" x1="1183.5" x2="1183.5" y1="80.6406" y2="1095.8672"/><line style="stroke:#181818;stroke-width:0.5;stroke-dasharray:5.0,5.0;" x1="1284.5" x2="1284.5" y1="80.6406" y2="1095.8672"/><line style="stroke:#181818;stroke-width:0.5;stroke-dasharray:5.0,5.0;" x1="1404" x2="1404" y1="80.6406" y2="1095.8672"/><line style="stroke:#181818;stroke-width:0.5;stroke-dasharray:5.0,5.0;" x1="1525" x2="1525" y1="653.3594" y2="1095.8672"/><line style="stroke:#181818;stroke-width:0.5;stroke-dasharray:5.0,5.0;" x1="1648" x2="1648" y1="80.6406" y2="1095.8672"/><line style="stroke:#181818;stroke-width:0.5;stroke-dasharray:5.0,5.0;" x1="1787" x2="1787" y1="80.6406" y2="1095.8672"/><text fill="#000000" font-family="sans-serif" font-size="14" lengthAdjust="spacing" textLength="53" x="5" y="77.6738">Teacher</text><ellipse cx="34.5" cy="13.5" fill="#E2E2F0" rx="8" ry="8" style="stroke:#181818;stroke-width:0.5;"/><path d="M34.5,21.5 L34.5,48.5 M21.5,29.5 L47.5,29.5 M34.5,48.5 L21.5,63.5 M34.5,48.5 L47.5,63.5 " fill="none" style="stroke:#181818;stroke-width:0.5;"/><text fill="#000000" font-family="sans-serif" font-size="14" lengthAdjust="spacing" textLength="53" x="5" y="1107.541">Teacher</text><ellipse cx="34.5" cy="1119.0078" fill="#E2E2F0" rx="8" ry="8" style="stroke:#181818;stroke-width:0.5;"/><path d="M34.5,1127.0078 L34.5,1154.0078 M21.5,1135.0078 L47.5,1135.0078 M34.5,1154.0078 L21.5,1169.0078 M34.5,1154.0078 L47.5,1169.0078 " fill="none" style="stroke:#181818;stroke-width:0.5;"/><text fill="#000000" font-family="sans-serif" font-size="14" lengthAdjust="spacing" textLength="114" x="74" y="77.6738">CourseRepository</text><path d="M116,29 C116,19 134,19 134,19 C134,19 152,19 152,29 L152,55 C152,65 134,65 134,65 C134,65 116,65 116,55 L116,29 " fill="#E2E2F0" style="stroke:#181818;stroke-width:1.5;"/><path d="M116,29 C116,39 134,39 134,39 C134,39 152,39 152,29 " fill="none" style="stroke:#181818;stroke-width:1.5;"/><text fill="#000000" font-family="sans-serif" font-size="14" lengthAdjust="spacing" textLength="114" x="74" y="1107.541">CourseRepository</text><path d="M116,1120.5078 C116,1110.5078 134,1110.5078 134,1110.5078 C134,1110.5078 152,1110.5078 152,1120.5078 L152,1146.5078 C152,1156.5078 134,1156.5078 134,1156.5078 C134,1156.5078 116,1156.5078 116,1146.5078 L116,1120.5078 " fill="#E2E2F0" style="stroke:#181818;stroke-width:1.5;"/><path d="M116,1120.5078 C116,1130.5078 134,1130.5078 134,1130.5078 C134,1130.5078 152,1130.5078 152,1120.5078 " fill="none" style="stroke:#181818;stroke-width:1.5;"/><text fill="#000000" font-family="sans-serif" font-size="14" lengthAdjust="spacing" textLength="121" x="204" y="77.6738">TeacherRepository</text><path d="M249.5,29 C249.5,19 267.5,19 267.5,19 C267.5,19 285.5,19 285.5,29 L285.5,55 C285.5,65 267.5,65 267.5,65 C267.5,65 249.5,65 249.5,55 L249.5,29 " fill="#E2E2F0" style="stroke:#181818;stroke-width:1.5;"/><path d="M249.5,29 C249.5,39 267.5,39 267.5,39 C267.5,39 285.5,39 285.5,29 " fill="none" style="stroke:#181818;stroke-width:1.5;"/><text fill="#000000" font-family="sans-serif" font-size="14" lengthAdjust="spacing" textLength="121" x="204" y="1107.541">TeacherRepository</text><path d="M249.5,1120.5078 C249.5,1110.5078 267.5,1110.5078 267.5,1110.5078 C267.5,1110.5078 285.5,1110.5078 285.5,1120.5078 L285.5,1146.5078 C285.5,1156.5078 267.5,1156.5078 267.5,1156.5078 C267.5,1156.5078 249.5,1156.5078 249.5,1146.5078 L249.5,1120.5078 " fill="#E2E2F0" style="stroke:#181818;stroke-width:1.5;"/><path d="M249.5,1120.5078 C249.5,1130.5078 267.5,1130.5078 267.5,1130.5078 C267.5,1130.5078 285.5,1130.5078 285.5,1120.5078 " fill="none" style="stroke:#181818;stroke-width:1.5;"/><rect fill="#E2E2F0" height="29.6406" rx="2.5" ry="2.5" style="stroke:#181818;stroke-width:0.5;" width="172" x="341" y="50"/><text fill="#000000" font-family="sans-serif" font-size="14" lengthAdjust="spacing" textLength="158" x="348" y="69.6738">ShowTeachingCoursesUI</text><rect fill="#E2E2F0" height="29.6406" rx="2.5" ry="2.5" style="stroke:#181818;stroke-width:0.5;" width="172" x="341" y="1094.8672"/><text fill="#000000" font-family="sans-serif" font-size="14" lengthAdjust="spacing" textLength="158" x="348" y="1114.541">ShowTeachingCoursesUI</text><rect fill="#E2E2F0" height="29.6406" rx="2.5" ry="2.5" style="stroke:#181818;stroke-width:0.5;" width="222" x="523" y="50"/><text fill="#000000" font-family="sans-serif" font-size="14" lengthAdjust="spacing" textLength="208" x="530" y="69.6738">ShowTeachingCoursesController</text><rect fill="#E2E2F0" height="29.6406" rx="2.5" ry="2.5" style="stroke:#181818;stroke-width:0.5;" width="222" x="523" y="1094.8672"/><text fill="#000000" font-family="sans-serif" font-size="14" lengthAdjust="spacing" textLength="208" x="530" y="1114.541">ShowTeachingCoursesController</text><rect fill="#E2E2F0" height="29.6406" rx="2.5" ry="2.5" style="stroke:#181818;stroke-width:0.5;" width="143" x="796.5" y="50"/><text fill="#000000" font-family="sans-serif" font-size="14" lengthAdjust="spacing" textLength="129" x="803.5" y="69.6738">AuthorizationService</text><rect fill="#E2E2F0" height="29.6406" rx="2.5" ry="2.5" style="stroke:#181818;stroke-width:0.5;" width="143" x="796.5" y="1094.8672"/><text fill="#000000" font-family="sans-serif" font-size="14" lengthAdjust="spacing" textLength="129" x="803.5" y="1114.541">AuthorizationService</text><rect fill="#E2E2F0" height="29.6406" rx="2.5" ry="2.5" style="stroke:#181818;stroke-width:0.5;" width="178" x="949.5" y="1094.8672"/><text fill="#000000" font-family="sans-serif" font-size="14" lengthAdjust="spacing" textLength="164" x="956.5" y="1114.541">UnauthenticatedException</text><rect fill="#E2E2F0" height="29.6406" rx="2.5" ry="2.5" style="stroke:#181818;stroke-width:0.5;" width="93" x="1137.5" y="50"/><text fill="#000000" font-family="sans-serif" font-size="14" lengthAdjust="spacing" textLength="79" x="1144.5" y="69.6738">UserSession</text><rect fill="#E2E2F0" height="29.6406" rx="2.5" ry="2.5" style="stroke:#181818;stroke-width:0.5;" width="93" x="1137.5" y="1094.8672"/><text fill="#000000" font-family="sans-serif" font-size="14" lengthAdjust="spacing" textLength="79" x="1144.5" y="1114.541">UserSession</text><rect fill="#E2E2F0" height="29.6406" rx="2.5" ry="2.5" style="stroke:#181818;stroke-width:0.5;" width="89" x="1240.5" y="50"/><text fill="#000000" font-family="sans-serif" font-size="14" lengthAdjust="spacing" textLength="75" x="1247.5" y="69.6738">SystemUser</text><rect fill="#E2E2F0" height="29.6406" rx="2.5" ry="2.5" style="stroke:#181818;stroke-width:0.5;" width="89" x="1240.5" y="1094.8672"/><text fill="#000000" font-family="sans-serif" font-size="14" lengthAdjust="spacing" textLength="75" x="1247.5" y="1114.541">SystemUser</text><rect fill="#E2E2F0" height="29.6406" rx="2.5" ry="2.5" style="stroke:#181818;stroke-width:0.5;" width="64" x="1372" y="50"/><text fill="#000000" font-family="sans-serif" font-size="14" lengthAdjust="spacing" textLength="50" x="1379" y="69.6738">RoleSet</text><rect fill="#E2E2F0" height="29.6406" rx="2.5" ry="2.5" style="stroke:#181818;stroke-width:0.5;" width="64" x="1372" y="1094.8672"/><text fill="#000000" font-family="sans-serif" font-size="14" lengthAdjust="spacing" textLength="50" x="1379" y="1114.541">RoleSet</text><rect fill="#E2E2F0" height="29.6406" rx="2.5" ry="2.5" style="stroke:#181818;stroke-width:0.5;" width="158" x="1446" y="1094.8672"/><text fill="#000000" font-family="sans-serif" font-size="14" lengthAdjust="spacing" textLength="144" x="1453" y="1114.541">UnauthorizedException</text><rect fill="#E2E2F0" height="29.6406" rx="2.5" ry="2.5" style="stroke:#181818;stroke-width:0.5;" width="69" x="1614" y="50"/><text fill="#000000" font-family="sans-serif" font-size="14" lengthAdjust="spacing" textLength="55" x="1621" y="69.6738">Acronym</text><rect fill="#E2E2F0" height="29.6406" rx="2.5" ry="2.5" style="stroke:#181818;stroke-width:0.5;" width="69" x="1614" y="1094.8672"/><text fill="#000000" font-family="sans-serif" font-size="14" lengthAdjust="spacing" textLength="55" x="1621" y="1114.541">Acronym</text><rect fill="#E2E2F0" height="29.6406" rx="2.5" ry="2.5" style="stroke:#181818;stroke-width:0.5;" width="189" x="1693" y="50"/><text fill="#000000" font-family="sans-serif" font-size="14" lengthAdjust="spacing" textLength="175" x="1700" y="69.6738">CourseManagementService</text><rect fill="#E2E2F0" height="29.6406" rx="2.5" ry="2.5" style="stroke:#181818;stroke-width:0.5;" width="189" x="1693" y="1094.8672"/><text fill="#000000" font-family="sans-serif" font-size="14" lengthAdjust="spacing" textLength="175" x="1700" y="1114.541">CourseManagementService</text><rect fill="#FFFFFF" height="14" style="stroke:#181818;stroke-width:1.0;" width="10" x="129" y="1021.8672"/><rect fill="#FFFFFF" height="14" style="stroke:#181818;stroke-width:1.0;" width="10" x="262.5" y="908.2969"/><rect fill="#FFFFFF" height="966.7031" style="stroke:#181818;stroke-width:1.0;" width="10" x="422" y="111.1641"/><rect fill="#FFFFFF" height="924.1797" style="stroke:#181818;stroke-width:1.0;" width="10" x="629" y="139.6875"/><rect fill="#FFFFFF" height="583.9922" style="stroke:#181818;stroke-width:1.0;" width="10" x="863" y="168.2109"/><rect fill="#FFFFFF" height="25" style="stroke:#181818;stroke-width:1.0;" width="10" x="868" y="204.7344"/><rect fill="#FFFFFF" height="79.6406" style="stroke:#181818;stroke-width:1.0;" width="10" x="868" y="273.2578"/><rect fill="#FFFFFF" height="14" style="stroke:#181818;stroke-width:1.0;" width="10" x="863" y="780.7266"/><rect fill="#FFFFFF" height="16.1172" style="stroke:#181818;stroke-width:1.0;" width="10" x="1033.5" y="316.7813"/><rect fill="#FFFFFF" height="14" style="stroke:#181818;stroke-width:1.0;" width="10" x="1179" y="388.4219"/><rect fill="#FFFFFF" height="14" style="stroke:#181818;stroke-width:1.0;" width="10" x="1179" y="515.9922"/><rect fill="#FFFFFF" height="14" style="stroke:#181818;stroke-width:1.0;" width="10" x="1179" y="601.0391"/><rect fill="#FFFFFF" height="14" style="stroke:#181818;stroke-width:1.0;" width="10" x="1179" y="823.25"/><rect fill="#FFFFFF" height="56.5234" style="stroke:#181818;stroke-width:1.0;" width="10" x="1280" y="430.9453"/><rect fill="#FFFFFF" height="14" style="stroke:#181818;stroke-width:1.0;" width="10" x="1280" y="558.5156"/><rect fill="#FFFFFF" height="14" style="stroke:#181818;stroke-width:1.0;" width="10" x="1280" y="865.7734"/><rect fill="#FFFFFF" height="14" style="stroke:#181818;stroke-width:1.0;" width="10" x="1399" y="459.4688"/><rect fill="#FFFFFF" height="84.6406" style="stroke:#181818;stroke-width:1.0;" width="10" x="1520" y="653.5625"/><rect fill="#FFFFFF" height="25" style="stroke:#181818;stroke-width:1.0;" width="10" x="1525" y="692.2031"/><rect fill="#FFFFFF" height="14" style="stroke:#181818;stroke-width:1.0;" width="10" x="1643.5" y="950.8203"/><rect fill="#FFFFFF" height="56.5234" style="stroke:#181818;stroke-width:1.0;" width="10" x="1782.5" y="993.3438"/><polygon fill="#181818" points="410,107.1641,420,111.1641,410,115.1641,414,111.1641" style="stroke:#181818;stroke-width:1.0;"/><line style="stroke:#181818;stroke-width:1.0;" x1="34.5" x2="416" y1="111.1641" y2="111.1641"/><text fill="#000000" font-family="sans-serif" font-size="13" lengthAdjust="spacing" textLength="46" x="41.5" y="106.4092">doShow</text><polygon fill="#181818" points="617,135.6875,627,139.6875,617,143.6875,621,139.6875" style="stroke:#181818;stroke-width:1.0;"/><line style="stroke:#181818;stroke-width:1.0;" x1="432" x2="623" y1="139.6875" y2="139.6875"/><text fill="#000000" font-family="sans-serif" font-size="13" lengthAdjust="spacing" textLength="130" x="439" y="134.9326">showTeachingCourses</text><polygon fill="#181818" points="851,164.2109,861,168.2109,851,172.2109,855,168.2109" style="stroke:#181818;stroke-width:1.0;"/><line style="stroke:#181818;stroke-width:1.0;" x1="639" x2="857" y1="168.2109" y2="168.2109"/><text fill="#000000" font-family="sans-serif" font-size="13" lengthAdjust="spacing" textLength="205" x="646" y="163.4561">ensureAuthenticatedUserHasAnyOf</text><line style="stroke:#181818;stroke-width:1.0;" x1="873" x2="920" y1="191.7344" y2="191.7344"/><line style="stroke:#181818;stroke-width:1.0;" x1="920" x2="920" y1="191.7344" y2="204.7344"/><line style="stroke:#181818;stroke-width:1.0;" x1="879" x2="920" y1="204.7344" y2="204.7344"/><polygon fill="#181818" points="889,200.7344,879,204.7344,889,208.7344,885,204.7344" style="stroke:#181818;stroke-width:1.0;"/><text fill="#000000" font-family="sans-serif" font-size="13" lengthAdjust="spacing" textLength="45" x="885" y="186.9795">session</text><line style="stroke:#181818;stroke-width:1.0;stroke-dasharray:2.0,2.0;" x1="878" x2="920" y1="228.7344" y2="228.7344"/><line style="stroke:#181818;stroke-width:1.0;stroke-dasharray:2.0,2.0;" x1="920" x2="920" y1="228.7344" y2="241.7344"/><line style="stroke:#181818;stroke-width:1.0;stroke-dasharray:2.0,2.0;" x1="873" x2="920" y1="241.7344" y2="241.7344"/><polygon fill="#181818" points="883,237.7344,873,241.7344,883,245.7344,879,241.7344" style="stroke:#181818;stroke-width:1.0;"/><line style="stroke:#181818;stroke-width:1.0;" x1="873" x2="920" y1="260.2578" y2="260.2578"/><line style="stroke:#181818;stroke-width:1.0;" x1="920" x2="920" y1="260.2578" y2="273.2578"/><line style="stroke:#181818;stroke-width:1.0;" x1="879" x2="920" y1="273.2578" y2="273.2578"/><polygon fill="#181818" points="889,269.2578,879,273.2578,889,277.2578,885,273.2578" style="stroke:#181818;stroke-width:1.0;"/><text fill="#000000" font-family="sans-serif" font-size="13" lengthAdjust="spacing" textLength="24" x="885" y="255.5029">() -&gt;</text><polygon fill="#181818" points="937.5,302.7813,947.5,306.7813,937.5,310.7813,941.5,306.7813" style="stroke:#181818;stroke-width:1.0;"/><line style="stroke:#181818;stroke-width:1.0;" x1="878" x2="943.5" y1="306.7813" y2="306.7813"/><text fill="#000000" font-family="sans-serif" font-size="13" lengthAdjust="spacing" textLength="23" x="885" y="302.0264">new</text><rect fill="#E2E2F0" height="29.6406" rx="2.5" ry="2.5" style="stroke:#181818;stroke-width:0.5;" width="178" x="949.5" y="286.2578"/><text fill="#000000" font-family="sans-serif" font-size="14" lengthAdjust="spacing" textLength="164" x="956.5" y="305.9316">UnauthenticatedException</text><polygon fill="#181818" points="889,328.8984,879,332.8984,889,336.8984,885,332.8984" style="stroke:#181818;stroke-width:1.0;"/><line style="stroke:#181818;stroke-width:1.0;stroke-dasharray:2.0,2.0;" x1="883" x2="1037.5" y1="332.8984" y2="332.8984"/><line style="stroke:#181818;stroke-width:1.0;stroke-dasharray:2.0,2.0;" x1="878" x2="920" y1="351.8984" y2="351.8984"/><line style="stroke:#181818;stroke-width:1.0;stroke-dasharray:2.0,2.0;" x1="920" x2="920" y1="351.8984" y2="364.8984"/><line style="stroke:#181818;stroke-width:1.0;stroke-dasharray:2.0,2.0;" x1="873" x2="920" y1="364.8984" y2="364.8984"/><polygon fill="#181818" points="883,360.8984,873,364.8984,883,368.8984,879,364.8984" style="stroke:#181818;stroke-width:1.0;"/><polygon fill="#181818" points="1167,384.4219,1177,388.4219,1167,392.4219,1171,388.4219" style="stroke:#181818;stroke-width:1.0;"/><line style="stroke:#181818;stroke-width:1.0;" x1="873" x2="1173" y1="388.4219" y2="388.4219"/><text fill="#000000" font-family="sans-serif" font-size="13" lengthAdjust="spacing" textLength="105" x="880" y="383.667">authenticatedUser</text><polygon fill="#181818" points="884,398.4219,874,402.4219,884,406.4219,880,402.4219" style="stroke:#181818;stroke-width:1.0;"/><line style="stroke:#181818;stroke-width:1.0;stroke-dasharray:2.0,2.0;" x1="878" x2="1183" y1="402.4219" y2="402.4219"/><polygon fill="#181818" points="1268,426.9453,1278,430.9453,1268,434.9453,1272,430.9453" style="stroke:#181818;stroke-width:1.0;"/><line style="stroke:#181818;stroke-width:1.0;" x1="873" x2="1274" y1="430.9453" y2="430.9453"/><text fill="#000000" font-family="sans-serif" font-size="13" lengthAdjust="spacing" textLength="44" x="880" y="426.1904">hasAny</text><polygon fill="#181818" points="1387,455.4688,1397,459.4688,1387,463.4688,1391,459.4688" style="stroke:#181818;stroke-width:1.0;"/><line style="stroke:#181818;stroke-width:1.0;" x1="1290" x2="1393" y1="459.4688" y2="459.4688"/><text fill="#000000" font-family="sans-serif" font-size="13" lengthAdjust="spacing" textLength="90" x="1297" y="454.7139">hasAssignment</text><polygon fill="#181818" points="1301,469.4688,1291,473.4688,1301,477.4688,1297,473.4688" style="stroke:#181818;stroke-width:1.0;"/><line style="stroke:#181818;stroke-width:1.0;stroke-dasharray:2.0,2.0;" x1="1295" x2="1403" y1="473.4688" y2="473.4688"/><polygon fill="#181818" points="884,483.4688,874,487.4688,884,491.4688,880,487.4688" style="stroke:#181818;stroke-width:1.0;"/><line style="stroke:#181818;stroke-width:1.0;stroke-dasharray:2.0,2.0;" x1="878" x2="1284" y1="487.4688" y2="487.4688"/><polygon fill="#181818" points="1167,511.9922,1177,515.9922,1167,519.9922,1171,515.9922" style="stroke:#181818;stroke-width:1.0;"/><line style="stroke:#181818;stroke-width:1.0;" x1="873" x2="1173" y1="515.9922" y2="515.9922"/><text fill="#000000" font-family="sans-serif" font-size="13" lengthAdjust="spacing" textLength="105" x="880" y="511.2373">authenticatedUser</text><polygon fill="#181818" points="884,525.9922,874,529.9922,884,533.9922,880,529.9922" style="stroke:#181818;stroke-width:1.0;"/><line style="stroke:#181818;stroke-width:1.0;stroke-dasharray:2.0,2.0;" x1="878" x2="1183" y1="529.9922" y2="529.9922"/><polygon fill="#181818" points="1268,554.5156,1278,558.5156,1268,562.5156,1272,558.5156" style="stroke:#181818;stroke-width:1.0;"/><line style="stroke:#181818;stroke-width:1.0;" x1="873" x2="1274" y1="558.5156" y2="558.5156"/><text fill="#000000" font-family="sans-serif" font-size="13" lengthAdjust="spacing" textLength="31" x="880" y="553.7607">email</text><polygon fill="#181818" points="884,568.5156,874,572.5156,884,576.5156,880,572.5156" style="stroke:#181818;stroke-width:1.0;"/><line style="stroke:#181818;stroke-width:1.0;stroke-dasharray:2.0,2.0;" x1="878" x2="1284" y1="572.5156" y2="572.5156"/><polygon fill="#181818" points="1167,597.0391,1177,601.0391,1167,605.0391,1171,601.0391" style="stroke:#181818;stroke-width:1.0;"/><line style="stroke:#181818;stroke-width:1.0;" x1="873" x2="1173" y1="601.0391" y2="601.0391"/><text fill="#000000" font-family="sans-serif" font-size="13" lengthAdjust="spacing" textLength="105" x="880" y="596.2842">authenticatedUser</text><polygon fill="#181818" points="884,611.0391,874,615.0391,884,619.0391,880,615.0391" style="stroke:#181818;stroke-width:1.0;"/><line style="stroke:#181818;stroke-width:1.0;stroke-dasharray:2.0,2.0;" x1="878" x2="1183" y1="615.0391" y2="615.0391"/><polygon fill="#181818" points="1434,639.5625,1444,643.5625,1434,647.5625,1438,643.5625" style="stroke:#181818;stroke-width:1.0;"/><line style="stroke:#181818;stroke-width:1.0;" x1="873" x2="1440" y1="643.5625" y2="643.5625"/><text fill="#000000" font-family="sans-serif" font-size="13" lengthAdjust="spacing" textLength="23" x="880" y="638.8076">new</text><rect fill="#E2E2F0" height="29.6406" rx="2.5" ry="2.5" style="stroke:#181818;stroke-width:0.5;" width="158" x="1446" y="623.0391"/><text fill="#000000" font-family="sans-serif" font-size="14" lengthAdjust="spacing" textLength="144" x="1453" y="642.7129">UnauthorizedException</text><line style="stroke:#181818;stroke-width:1.0;" x1="1530" x2="1577" y1="679.2031" y2="679.2031"/><line style="stroke:#181818;stroke-width:1.0;" x1="1577" x2="1577" y1="679.2031" y2="692.2031"/><line style="stroke:#181818;stroke-width:1.0;" x1="1536" x2="1577" y1="692.2031" y2="692.2031"/><polygon fill="#181818" points="1546,688.2031,1536,692.2031,1546,696.2031,1542,692.2031" style="stroke:#181818;stroke-width:1.0;"/><text fill="#000000" font-family="sans-serif" font-size="13" lengthAdjust="spacing" textLength="80" x="1542" y="674.4482">buildMessage</text><line style="stroke:#181818;stroke-width:1.0;stroke-dasharray:2.0,2.0;" x1="1535" x2="1577" y1="716.2031" y2="716.2031"/><line style="stroke:#181818;stroke-width:1.0;stroke-dasharray:2.0,2.0;" x1="1577" x2="1577" y1="716.2031" y2="729.2031"/><line style="stroke:#181818;stroke-width:1.0;stroke-dasharray:2.0,2.0;" x1="1530" x2="1577" y1="729.2031" y2="729.2031"/><polygon fill="#181818" points="1540,725.2031,1530,729.2031,1540,733.2031,1536,729.2031" style="stroke:#181818;stroke-width:1.0;"/><polygon fill="#181818" points="884,734.2031,874,738.2031,884,742.2031,880,738.2031" style="stroke:#181818;stroke-width:1.0;"/><line style="stroke:#181818;stroke-width:1.0;stroke-dasharray:2.0,2.0;" x1="878" x2="1524" y1="738.2031" y2="738.2031"/><polygon fill="#181818" points="650,748.2031,640,752.2031,650,756.2031,646,752.2031" style="stroke:#181818;stroke-width:1.0;"/><line style="stroke:#181818;stroke-width:1.0;stroke-dasharray:2.0,2.0;" x1="644" x2="867" y1="752.2031" y2="752.2031"/><polygon fill="#181818" points="851,776.7266,861,780.7266,851,784.7266,855,780.7266" style="stroke:#181818;stroke-width:1.0;"/><line style="stroke:#181818;stroke-width:1.0;" x1="639" x2="857" y1="780.7266" y2="780.7266"/><text fill="#000000" font-family="sans-serif" font-size="13" lengthAdjust="spacing" textLength="45" x="646" y="775.9717">session</text><polygon fill="#181818" points="650,790.7266,640,794.7266,650,798.7266,646,794.7266" style="stroke:#181818;stroke-width:1.0;"/><line style="stroke:#181818;stroke-width:1.0;stroke-dasharray:2.0,2.0;" x1="644" x2="867" y1="794.7266" y2="794.7266"/><polygon fill="#181818" points="1167,819.25,1177,823.25,1167,827.25,1171,823.25" style="stroke:#181818;stroke-width:1.0;"/><line style="stroke:#181818;stroke-width:1.0;" x1="639" x2="1173" y1="823.25" y2="823.25"/><text fill="#000000" font-family="sans-serif" font-size="13" lengthAdjust="spacing" textLength="105" x="646" y="818.4951">authenticatedUser</text><polygon fill="#181818" points="650,833.25,640,837.25,650,841.25,646,837.25" style="stroke:#181818;stroke-width:1.0;"/><line style="stroke:#181818;stroke-width:1.0;stroke-dasharray:2.0,2.0;" x1="644" x2="1183" y1="837.25" y2="837.25"/><polygon fill="#181818" points="1268,861.7734,1278,865.7734,1268,869.7734,1272,865.7734" style="stroke:#181818;stroke-width:1.0;"/><line style="stroke:#181818;stroke-width:1.0;" x1="639" x2="1274" y1="865.7734" y2="865.7734"/><text fill="#000000" font-family="sans-serif" font-size="13" lengthAdjust="spacing" textLength="31" x="646" y="861.0186">email</text><polygon fill="#181818" points="650,875.7734,640,879.7734,650,883.7734,646,879.7734" style="stroke:#181818;stroke-width:1.0;"/><line style="stroke:#181818;stroke-width:1.0;stroke-dasharray:2.0,2.0;" x1="644" x2="1284" y1="879.7734" y2="879.7734"/><polygon fill="#181818" points="283.5,904.2969,273.5,908.2969,283.5,912.2969,279.5,908.2969" style="stroke:#181818;stroke-width:1.0;"/><line style="stroke:#181818;stroke-width:1.0;" x1="277.5" x2="628" y1="908.2969" y2="908.2969"/><text fill="#000000" font-family="sans-serif" font-size="13" lengthAdjust="spacing" textLength="115" x="289.5" y="903.542">findTeacherByEmail</text><polygon fill="#181818" points="617,918.2969,627,922.2969,617,926.2969,621,922.2969" style="stroke:#181818;stroke-width:1.0;"/><line style="stroke:#181818;stroke-width:1.0;stroke-dasharray:2.0,2.0;" x1="267.5" x2="623" y1="922.2969" y2="922.2969"/><polygon fill="#181818" points="1631.5,946.8203,1641.5,950.8203,1631.5,954.8203,1635.5,950.8203" style="stroke:#181818;stroke-width:1.0;"/><line style="stroke:#181818;stroke-width:1.0;" x1="639" x2="1637.5" y1="950.8203" y2="950.8203"/><text fill="#000000" font-family="sans-serif" font-size="13" lengthAdjust="spacing" textLength="45" x="646" y="946.0654">toString</text><polygon fill="#181818" points="650,960.8203,640,964.8203,650,968.8203,646,964.8203" style="stroke:#181818;stroke-width:1.0;"/><line style="stroke:#181818;stroke-width:1.0;stroke-dasharray:2.0,2.0;" x1="644" x2="1647.5" y1="964.8203" y2="964.8203"/><polygon fill="#181818" points="1770.5,989.3438,1780.5,993.3438,1770.5,997.3438,1774.5,993.3438" style="stroke:#181818;stroke-width:1.0;"/><line style="stroke:#181818;stroke-width:1.0;" x1="639" x2="1776.5" y1="993.3438" y2="993.3438"/><text fill="#000000" font-family="sans-serif" font-size="13" lengthAdjust="spacing" textLength="120" x="646" y="988.5889">findTeachingCourses</text><polygon fill="#181818" points="150,1017.8672,140,1021.8672,150,1025.8672,146,1021.8672" style="stroke:#181818;stroke-width:1.0;"/><line style="stroke:#181818;stroke-width:1.0;" x1="144" x2="1781.5" y1="1021.8672" y2="1021.8672"/><text fill="#000000" font-family="sans-serif" font-size="13" lengthAdjust="spacing" textLength="120" x="156" y="1017.1123">findTeachingCourses</text><polygon fill="#181818" points="1770.5,1031.8672,1780.5,1035.8672,1770.5,1039.8672,1774.5,1035.8672" style="stroke:#181818;stroke-width:1.0;"/><line style="stroke:#181818;stroke-width:1.0;stroke-dasharray:2.0,2.0;" x1="134" x2="1776.5" y1="1035.8672" y2="1035.8672"/><polygon fill="#181818" points="650,1045.8672,640,1049.8672,650,1053.8672,646,1049.8672" style="stroke:#181818;stroke-width:1.0;"/><line style="stroke:#181818;stroke-width:1.0;stroke-dasharray:2.0,2.0;" x1="644" x2="1786.5" y1="1049.8672" y2="1049.8672"/><polygon fill="#181818" points="443,1059.8672,433,1063.8672,443,1067.8672,439,1063.8672" style="stroke:#181818;stroke-width:1.0;"/><line style="stroke:#181818;stroke-width:1.0;stroke-dasharray:2.0,2.0;" x1="437" x2="633" y1="1063.8672" y2="1063.8672"/><polygon fill="#181818" points="45.5,1073.8672,35.5,1077.8672,45.5,1081.8672,41.5,1077.8672" style="stroke:#181818;stroke-width:1.0;"/><line style="stroke:#181818;stroke-width:1.0;stroke-dasharray:2.0,2.0;" x1="39.5" x2="426" y1="1077.8672" y2="1077.8672"/><!--SRC=[rLVDKi8m4BxdAJASzC0BU716qHazCCvOUO3Ohf2PaZ19gjQdTzCMca92GiK3HxhVNvPb6rXkfA9lmF8LA58mmzwP1ZgPoKffU8MDr1mHzOGoJMSFzmwa8-rXtX3JLUZqbcOh-TLyv6BPQkh5CxsXXRGLmdB3Fva1FuxusNxPcHH6oR94tnkg3-j7lNeoEIwDtdULMKd5VvZXKcIWFdaEQ0b2Lmfi4OJXEHeL2mtgYUaxKRzyzFO-Fl6AXiqmbCO7eqG3ggI0iqQykiPY962kmDOMWhbjU_pEOMDXGSiG0Mq5E5CL50uAf7JdnBZdxhUTggpz_l6yR7_WdDFtGEAIaixeS4D1ibeRM5iavbWrS-xyo7P5uk2GzIfBoC1q57HOYZKUe6Ts0B85JWTMRiWjqZL8E9iZTbazXZNZPRJ55zg1mIwmfFH5i8VsRu5zIJ_rYEPxnSjYZcdP4aQAXzGFjqkwODgsIcjexCqQtLbZNvv_V9_zS-Yp_1QICxeYqMZZzaDo5bSY5WLlVfZXWukYk__Tru_3GCtT454dHR2a-5ZbIefwZVv6PaOXp1cbjaQscDC6fYD74xGFvqpWTh3litwsTntntKK3D1AIiqx3FdjLiMUphj4X1-UG3JnaU4gtGbwHxeN-9mmcyMW61QPIuXS0]--></g></svg>