<?xml version="1.0" encoding="us-ascii" standalone="no"?><svg xmlns="http://www.w3.org/2000/svg" xmlns:xlink="http://www.w3.org/1999/xlink" contentStyleType="text/css" height="653px" preserveAspectRatio="none" style="width:1070px;height:653px;background:#FFFFFF;" version="1.1" viewBox="0 0 1070 653" width="1070px" zoomAndPan="magnify"><defs/><g><!--class Teacher--><g id="elem_Teacher"><rect codeLine="1" fill="#F1F1F1" height="141.8438" id="Teacher" rx="2.5" ry="2.5" style="stroke:#181818;stroke-width:0.5;" width="137" x="89" y="147"/><ellipse cx="127.4" cy="163" fill="#ADD1B2" rx="11" ry="11" style="stroke:#181818;stroke-width:1.0;"/><path d="M130.1656,158.875 Q130.3219,158.6563 130.5094,158.5469 Q130.6969,158.4375 130.9156,158.4375 Q131.2906,158.4375 131.525,158.7031 Q131.7594,158.9531 131.7594,159.5625 L131.7594,161.0156 Q131.7594,161.625 131.525,161.8906 Q131.2906,162.1563 130.9156,162.1563 Q130.5719,162.1563 130.3688,161.9531 Q130.1656,161.7656 130.0563,161.25 Q130.0094,160.8906 129.8219,160.7031 Q129.4938,160.3281 128.8844,160.1094 Q128.275,159.8906 127.65,159.8906 Q126.8844,159.8906 126.2438,160.2188 Q125.6188,160.5469 125.1188,161.2969 Q124.6344,162.0469 124.6344,163.0781 L124.6344,164.1719 Q124.6344,165.4063 125.525,166.2344 Q126.4156,167.0469 128.0094,167.0469 Q128.9469,167.0469 129.6031,166.7969 Q129.9938,166.6406 130.4156,166.2031 Q130.6813,165.9375 130.8219,165.8594 Q130.9781,165.7813 131.1813,165.7813 Q131.5094,165.7813 131.7594,166.0469 Q132.025,166.2969 132.025,166.6406 Q132.025,166.9844 131.6813,167.3906 Q131.1813,167.9688 130.3844,168.2969 Q129.3063,168.75 128.0094,168.75 Q126.4938,168.75 125.2906,168.125 Q124.3063,167.625 123.6188,166.5625 Q122.9313,165.4844 122.9313,164.2031 L122.9313,163.0469 Q122.9313,161.7188 123.5406,160.5781 Q124.1656,159.4219 125.2594,158.8125 Q126.3531,158.1875 127.5875,158.1875 Q128.3219,158.1875 128.9625,158.3594 Q129.6188,158.5156 130.1656,158.875 Z " fill="#000000"/><text fill="#000000" font-family="sans-serif" font-size="14" lengthAdjust="spacing" textLength="53" x="146.6" y="167.8535">Teacher</text><line style="stroke:#181818;stroke-width:0.5;" x1="90" x2="225" y1="179" y2="179"/><rect fill="none" height="6" style="stroke:#C82930;stroke-width:1.0;" width="6" x="97" y="189.3203"/><text fill="#000000" font-family="sans-serif" font-size="14" lengthAdjust="spacing" textLength="34" x="109" y="195.6738">id: int</text><rect fill="none" height="6" style="stroke:#C82930;stroke-width:1.0;" width="6" x="97" y="204.9609"/><text fill="#000000" font-family="sans-serif" font-size="14" lengthAdjust="spacing" textLength="80" x="109" y="211.3145">name: String</text><rect fill="none" height="6" style="stroke:#C82930;stroke-width:1.0;" width="6" x="97" y="220.6016"/><text fill="#000000" font-family="sans-serif" font-size="14" lengthAdjust="spacing" textLength="78" x="109" y="226.9551">email: String</text><line style="stroke:#181818;stroke-width:0.5;" x1="90" x2="225" y1="233.9219" y2="233.9219"/><ellipse cx="100" cy="247.2422" fill="#84BE84" rx="3" ry="3" style="stroke:#038048;stroke-width:1.0;"/><text fill="#000000" font-family="sans-serif" font-size="14" lengthAdjust="spacing" textLength="64" x="109" y="250.5957">getId(): int</text><ellipse cx="100" cy="262.8828" fill="#84BE84" rx="3" ry="3" style="stroke:#038048;stroke-width:1.0;"/><text fill="#000000" font-family="sans-serif" font-size="14" lengthAdjust="spacing" textLength="111" x="109" y="266.2363">getName(): String</text><ellipse cx="100" cy="278.5234" fill="#84BE84" rx="3" ry="3" style="stroke:#038048;stroke-width:1.0;"/><text fill="#000000" font-family="sans-serif" font-size="14" lengthAdjust="spacing" textLength="109" x="109" y="281.877">getEmail(): String</text></g><!--class CourseRepository--><g id="elem_CourseRepository"><rect codeLine="10" fill="#F1F1F1" height="63.6406" id="CourseRepository" rx="2.5" ry="2.5" style="stroke:#181818;stroke-width:0.5;" width="345" x="293" y="583"/><ellipse cx="404.25" cy="599" fill="#ADD1B2" rx="11" ry="11" style="stroke:#181818;stroke-width:1.0;"/><path d="M407.0156,594.875 Q407.1719,594.6563 407.3594,594.5469 Q407.5469,594.4375 407.7656,594.4375 Q408.1406,594.4375 408.375,594.7031 Q408.6094,594.9531 408.6094,595.5625 L408.6094,597.0156 Q408.6094,597.625 408.375,597.8906 Q408.1406,598.1563 407.7656,598.1563 Q407.4219,598.1563 407.2188,597.9531 Q407.0156,597.7656 406.9063,597.25 Q406.8594,596.8906 406.6719,596.7031 Q406.3438,596.3281 405.7344,596.1094 Q405.125,595.8906 404.5,595.8906 Q403.7344,595.8906 403.0938,596.2188 Q402.4688,596.5469 401.9688,597.2969 Q401.4844,598.0469 401.4844,599.0781 L401.4844,600.1719 Q401.4844,601.4063 402.375,602.2344 Q403.2656,603.0469 404.8594,603.0469 Q405.7969,603.0469 406.4531,602.7969 Q406.8438,602.6406 407.2656,602.2031 Q407.5313,601.9375 407.6719,601.8594 Q407.8281,601.7813 408.0313,601.7813 Q408.3594,601.7813 408.6094,602.0469 Q408.875,602.2969 408.875,602.6406 Q408.875,602.9844 408.5313,603.3906 Q408.0313,603.9688 407.2344,604.2969 Q406.1563,604.75 404.8594,604.75 Q403.3438,604.75 402.1406,604.125 Q401.1563,603.625 400.4688,602.5625 Q399.7813,601.4844 399.7813,600.2031 L399.7813,599.0469 Q399.7813,597.7188 400.3906,596.5781 Q401.0156,595.4219 402.1094,594.8125 Q403.2031,594.1875 404.4375,594.1875 Q405.1719,594.1875 405.8125,594.3594 Q406.4688,594.5156 407.0156,594.875 Z " fill="#000000"/><text fill="#000000" font-family="sans-serif" font-size="14" lengthAdjust="spacing" textLength="114" x="424.75" y="603.8535">CourseRepository</text><line style="stroke:#181818;stroke-width:0.5;" x1="294" x2="637" y1="615" y2="615"/><line style="stroke:#181818;stroke-width:0.5;" x1="294" x2="637" y1="623" y2="623"/><ellipse cx="304" cy="636.3203" fill="#84BE84" rx="3" ry="3" style="stroke:#038048;stroke-width:1.0;"/><text fill="#000000" font-family="sans-serif" font-size="14" lengthAdjust="spacing" textLength="319" x="313" y="639.6738">findTeachingCourses(teacherId: int): List&lt;Course&gt;</text></g><!--class TeacherRepository--><g id="elem_TeacherRepository"><rect codeLine="14" fill="#F1F1F1" height="63.6406" id="TeacherRepository" rx="2.5" ry="2.5" style="stroke:#181818;stroke-width:0.5;" width="301" x="7" y="404"/><ellipse cx="92.75" cy="420" fill="#ADD1B2" rx="11" ry="11" style="stroke:#181818;stroke-width:1.0;"/><path d="M95.5156,415.875 Q95.6719,415.6563 95.8594,415.5469 Q96.0469,415.4375 96.2656,415.4375 Q96.6406,415.4375 96.875,415.7031 Q97.1094,415.9531 97.1094,416.5625 L97.1094,418.0156 Q97.1094,418.625 96.875,418.8906 Q96.6406,419.1563 96.2656,419.1563 Q95.9219,419.1563 95.7188,418.9531 Q95.5156,418.7656 95.4063,418.25 Q95.3594,417.8906 95.1719,417.7031 Q94.8438,417.3281 94.2344,417.1094 Q93.625,416.8906 93,416.8906 Q92.2344,416.8906 91.5938,417.2188 Q90.9688,417.5469 90.4688,418.2969 Q89.9844,419.0469 89.9844,420.0781 L89.9844,421.1719 Q89.9844,422.4063 90.875,423.2344 Q91.7656,424.0469 93.3594,424.0469 Q94.2969,424.0469 94.9531,423.7969 Q95.3438,423.6406 95.7656,423.2031 Q96.0313,422.9375 96.1719,422.8594 Q96.3281,422.7813 96.5313,422.7813 Q96.8594,422.7813 97.1094,423.0469 Q97.375,423.2969 97.375,423.6406 Q97.375,423.9844 97.0313,424.3906 Q96.5313,424.9688 95.7344,425.2969 Q94.6563,425.75 93.3594,425.75 Q91.8438,425.75 90.6406,425.125 Q89.6563,424.625 88.9688,423.5625 Q88.2813,422.4844 88.2813,421.2031 L88.2813,420.0469 Q88.2813,418.7188 88.8906,417.5781 Q89.5156,416.4219 90.6094,415.8125 Q91.7031,415.1875 92.9375,415.1875 Q93.6719,415.1875 94.3125,415.3594 Q94.9688,415.5156 95.5156,415.875 Z " fill="#000000"/><text fill="#000000" font-family="sans-serif" font-size="14" lengthAdjust="spacing" textLength="121" x="113.25" y="424.8535">TeacherRepository</text><line style="stroke:#181818;stroke-width:0.5;" x1="8" x2="307" y1="436" y2="436"/><line style="stroke:#181818;stroke-width:0.5;" x1="8" x2="307" y1="444" y2="444"/><ellipse cx="18" cy="457.3203" fill="#84BE84" rx="3" ry="3" style="stroke:#038048;stroke-width:1.0;"/><text fill="#000000" font-family="sans-serif" font-size="14" lengthAdjust="spacing" textLength="275" x="27" y="460.6738">findTeacherByEmail(email: String): Teacher</text></g><!--class ShowTeachingCoursesUI--><g id="elem_ShowTeachingCoursesUI"><rect codeLine="18" fill="#F1F1F1" height="63.6406" id="ShowTeachingCoursesUI" rx="2.5" ry="2.5" style="stroke:#181818;stroke-width:0.5;" width="190" x="521.5" y="7"/><ellipse cx="536.5" cy="23" fill="#ADD1B2" rx="11" ry="11" style="stroke:#181818;stroke-width:1.0;"/><path d="M539.2656,18.875 Q539.4219,18.6563 539.6094,18.5469 Q539.7969,18.4375 540.0156,18.4375 Q540.3906,18.4375 540.625,18.7031 Q540.8594,18.9531 540.8594,19.5625 L540.8594,21.0156 Q540.8594,21.625 540.625,21.8906 Q540.3906,22.1563 540.0156,22.1563 Q539.6719,22.1563 539.4688,21.9531 Q539.2656,21.7656 539.1563,21.25 Q539.1094,20.8906 538.9219,20.7031 Q538.5938,20.3281 537.9844,20.1094 Q537.375,19.8906 536.75,19.8906 Q535.9844,19.8906 535.3438,20.2188 Q534.7188,20.5469 534.2188,21.2969 Q533.7344,22.0469 533.7344,23.0781 L533.7344,24.1719 Q533.7344,25.4063 534.625,26.2344 Q535.5156,27.0469 537.1094,27.0469 Q538.0469,27.0469 538.7031,26.7969 Q539.0938,26.6406 539.5156,26.2031 Q539.7813,25.9375 539.9219,25.8594 Q540.0781,25.7813 540.2813,25.7813 Q540.6094,25.7813 540.8594,26.0469 Q541.125,26.2969 541.125,26.6406 Q541.125,26.9844 540.7813,27.3906 Q540.2813,27.9688 539.4844,28.2969 Q538.4063,28.75 537.1094,28.75 Q535.5938,28.75 534.3906,28.125 Q533.4063,27.625 532.7188,26.5625 Q532.0313,25.4844 532.0313,24.2031 L532.0313,23.0469 Q532.0313,21.7188 532.6406,20.5781 Q533.2656,19.4219 534.3594,18.8125 Q535.4531,18.1875 536.6875,18.1875 Q537.4219,18.1875 538.0625,18.3594 Q538.7188,18.5156 539.2656,18.875 Z " fill="#000000"/><text fill="#000000" font-family="sans-serif" font-size="14" lengthAdjust="spacing" textLength="158" x="550.5" y="27.8535">ShowTeachingCoursesUI</text><line style="stroke:#181818;stroke-width:0.5;" x1="522.5" x2="710.5" y1="39" y2="39"/><line style="stroke:#181818;stroke-width:0.5;" x1="522.5" x2="710.5" y1="47" y2="47"/><ellipse cx="532.5" cy="60.3203" fill="#84BE84" rx="3" ry="3" style="stroke:#038048;stroke-width:1.0;"/><text fill="#000000" font-family="sans-serif" font-size="14" lengthAdjust="spacing" textLength="94" x="541.5" y="63.6738">doShow(): void</text></g><!--class ShowTeachingCoursesController--><g id="elem_ShowTeachingCoursesController"><rect codeLine="22" fill="#F1F1F1" height="63.6406" id="ShowTeachingCoursesController" rx="2.5" ry="2.5" style="stroke:#181818;stroke-width:0.5;" width="240" x="497.5" y="186"/><ellipse cx="512.5" cy="202" fill="#ADD1B2" rx="11" ry="11" style="stroke:#181818;stroke-width:1.0;"/><path d="M515.2656,197.875 Q515.4219,197.6563 515.6094,197.5469 Q515.7969,197.4375 516.0156,197.4375 Q516.3906,197.4375 516.625,197.7031 Q516.8594,197.9531 516.8594,198.5625 L516.8594,200.0156 Q516.8594,200.625 516.625,200.8906 Q516.3906,201.1563 516.0156,201.1563 Q515.6719,201.1563 515.4688,200.9531 Q515.2656,200.7656 515.1563,200.25 Q515.1094,199.8906 514.9219,199.7031 Q514.5938,199.3281 513.9844,199.1094 Q513.375,198.8906 512.75,198.8906 Q511.9844,198.8906 511.3438,199.2188 Q510.7188,199.5469 510.2188,200.2969 Q509.7344,201.0469 509.7344,202.0781 L509.7344,203.1719 Q509.7344,204.4063 510.625,205.2344 Q511.5156,206.0469 513.1094,206.0469 Q514.0469,206.0469 514.7031,205.7969 Q515.0938,205.6406 515.5156,205.2031 Q515.7813,204.9375 515.9219,204.8594 Q516.0781,204.7813 516.2813,204.7813 Q516.6094,204.7813 516.8594,205.0469 Q517.125,205.2969 517.125,205.6406 Q517.125,205.9844 516.7813,206.3906 Q516.2813,206.9688 515.4844,207.2969 Q514.4063,207.75 513.1094,207.75 Q511.5938,207.75 510.3906,207.125 Q509.4063,206.625 508.7188,205.5625 Q508.0313,204.4844 508.0313,203.2031 L508.0313,202.0469 Q508.0313,200.7188 508.6406,199.5781 Q509.2656,198.4219 510.3594,197.8125 Q511.4531,197.1875 512.6875,197.1875 Q513.4219,197.1875 514.0625,197.3594 Q514.7188,197.5156 515.2656,197.875 Z " fill="#000000"/><text fill="#000000" font-family="sans-serif" font-size="14" lengthAdjust="spacing" textLength="208" x="526.5" y="206.8535">ShowTeachingCoursesController</text><line style="stroke:#181818;stroke-width:0.5;" x1="498.5" x2="736.5" y1="218" y2="218"/><line style="stroke:#181818;stroke-width:0.5;" x1="498.5" x2="736.5" y1="226" y2="226"/><ellipse cx="508.5" cy="239.3203" fill="#84BE84" rx="3" ry="3" style="stroke:#038048;stroke-width:1.0;"/><text fill="#000000" font-family="sans-serif" font-size="14" lengthAdjust="spacing" textLength="188" x="517.5" y="242.6738">showTeachingCourses(): void</text></g><!--class Acronym--><g id="elem_Acronym"><rect codeLine="26" fill="#F1F1F1" height="63.6406" id="Acronym" rx="2.5" ry="2.5" style="stroke:#181818;stroke-width:0.5;" width="130" x="552.5" y="404"/><ellipse cx="586.85" cy="420" fill="#ADD1B2" rx="11" ry="11" style="stroke:#181818;stroke-width:1.0;"/><path d="M589.6156,415.875 Q589.7719,415.6563 589.9594,415.5469 Q590.1469,415.4375 590.3656,415.4375 Q590.7406,415.4375 590.975,415.7031 Q591.2094,415.9531 591.2094,416.5625 L591.2094,418.0156 Q591.2094,418.625 590.975,418.8906 Q590.7406,419.1563 590.3656,419.1563 Q590.0219,419.1563 589.8188,418.9531 Q589.6156,418.7656 589.5063,418.25 Q589.4594,417.8906 589.2719,417.7031 Q588.9438,417.3281 588.3344,417.1094 Q587.725,416.8906 587.1,416.8906 Q586.3344,416.8906 585.6938,417.2188 Q585.0688,417.5469 584.5688,418.2969 Q584.0844,419.0469 584.0844,420.0781 L584.0844,421.1719 Q584.0844,422.4063 584.975,423.2344 Q585.8656,424.0469 587.4594,424.0469 Q588.3969,424.0469 589.0531,423.7969 Q589.4438,423.6406 589.8656,423.2031 Q590.1313,422.9375 590.2719,422.8594 Q590.4281,422.7813 590.6313,422.7813 Q590.9594,422.7813 591.2094,423.0469 Q591.475,423.2969 591.475,423.6406 Q591.475,423.9844 591.1313,424.3906 Q590.6313,424.9688 589.8344,425.2969 Q588.7563,425.75 587.4594,425.75 Q585.9438,425.75 584.7406,425.125 Q583.7563,424.625 583.0688,423.5625 Q582.3813,422.4844 582.3813,421.2031 L582.3813,420.0469 Q582.3813,418.7188 582.9906,417.5781 Q583.6156,416.4219 584.7094,415.8125 Q585.8031,415.1875 587.0375,415.1875 Q587.7719,415.1875 588.4125,415.3594 Q589.0688,415.5156 589.6156,415.875 Z " fill="#000000"/><text fill="#000000" font-family="sans-serif" font-size="14" lengthAdjust="spacing" textLength="55" x="605.15" y="424.8535">Acronym</text><line style="stroke:#181818;stroke-width:0.5;" x1="553.5" x2="681.5" y1="436" y2="436"/><line style="stroke:#181818;stroke-width:0.5;" x1="553.5" x2="681.5" y1="444" y2="444"/><ellipse cx="563.5" cy="457.3203" fill="#84BE84" rx="3" ry="3" style="stroke:#038048;stroke-width:1.0;"/><text fill="#000000" font-family="sans-serif" font-size="14" lengthAdjust="spacing" textLength="104" x="572.5" y="460.6738">toString(): String</text></g><!--class CourseManagementService--><g id="elem_CourseManagementService"><rect codeLine="30" fill="#F1F1F1" height="63.6406" id="CourseManagementService" rx="2.5" ry="2.5" style="stroke:#181818;stroke-width:0.5;" width="345" x="718" y="404"/><ellipse cx="798.75" cy="420" fill="#ADD1B2" rx="11" ry="11" style="stroke:#181818;stroke-width:1.0;"/><path d="M801.5156,415.875 Q801.6719,415.6563 801.8594,415.5469 Q802.0469,415.4375 802.2656,415.4375 Q802.6406,415.4375 802.875,415.7031 Q803.1094,415.9531 803.1094,416.5625 L803.1094,418.0156 Q803.1094,418.625 802.875,418.8906 Q802.6406,419.1563 802.2656,419.1563 Q801.9219,419.1563 801.7188,418.9531 Q801.5156,418.7656 801.4063,418.25 Q801.3594,417.8906 801.1719,417.7031 Q800.8438,417.3281 800.2344,417.1094 Q799.625,416.8906 799,416.8906 Q798.2344,416.8906 797.5938,417.2188 Q796.9688,417.5469 796.4688,418.2969 Q795.9844,419.0469 795.9844,420.0781 L795.9844,421.1719 Q795.9844,422.4063 796.875,423.2344 Q797.7656,424.0469 799.3594,424.0469 Q800.2969,424.0469 800.9531,423.7969 Q801.3438,423.6406 801.7656,423.2031 Q802.0313,422.9375 802.1719,422.8594 Q802.3281,422.7813 802.5313,422.7813 Q802.8594,422.7813 803.1094,423.0469 Q803.375,423.2969 803.375,423.6406 Q803.375,423.9844 803.0313,424.3906 Q802.5313,424.9688 801.7344,425.2969 Q800.6563,425.75 799.3594,425.75 Q797.8438,425.75 796.6406,425.125 Q795.6563,424.625 794.9688,423.5625 Q794.2813,422.4844 794.2813,421.2031 L794.2813,420.0469 Q794.2813,418.7188 794.8906,417.5781 Q795.5156,416.4219 796.6094,415.8125 Q797.7031,415.1875 798.9375,415.1875 Q799.6719,415.1875 800.3125,415.3594 Q800.9688,415.5156 801.5156,415.875 Z " fill="#000000"/><text fill="#000000" font-family="sans-serif" font-size="14" lengthAdjust="spacing" textLength="175" x="819.25" y="424.8535">CourseManagementService</text><line style="stroke:#181818;stroke-width:0.5;" x1="719" x2="1062" y1="436" y2="436"/><line style="stroke:#181818;stroke-width:0.5;" x1="719" x2="1062" y1="444" y2="444"/><ellipse cx="729" cy="457.3203" fill="#84BE84" rx="3" ry="3" style="stroke:#038048;stroke-width:1.0;"/><text fill="#000000" font-family="sans-serif" font-size="14" lengthAdjust="spacing" textLength="319" x="738" y="460.6738">findTeachingCourses(teacherId: int): List&lt;Course&gt;</text></g><!--class Course--><g id="elem_Course"><rect codeLine="34" fill="#F1F1F1" height="141.8438" id="Course" rx="2.5" ry="2.5" style="stroke:#181818;stroke-width:0.5;" width="174" x="343.5" y="365"/><ellipse cx="403.25" cy="381" fill="#ADD1B2" rx="11" ry="11" style="stroke:#181818;stroke-width:1.0;"/><path d="M406.0156,376.875 Q406.1719,376.6563 406.3594,376.5469 Q406.5469,376.4375 406.7656,376.4375 Q407.1406,376.4375 407.375,376.7031 Q407.6094,376.9531 407.6094,377.5625 L407.6094,379.0156 Q407.6094,379.625 407.375,379.8906 Q407.1406,380.1563 406.7656,380.1563 Q406.4219,380.1563 406.2188,379.9531 Q406.0156,379.7656 405.9063,379.25 Q405.8594,378.8906 405.6719,378.7031 Q405.3438,378.3281 404.7344,378.1094 Q404.125,377.8906 403.5,377.8906 Q402.7344,377.8906 402.0938,378.2188 Q401.4688,378.5469 400.9688,379.2969 Q400.4844,380.0469 400.4844,381.0781 L400.4844,382.1719 Q400.4844,383.4063 401.375,384.2344 Q402.2656,385.0469 403.8594,385.0469 Q404.7969,385.0469 405.4531,384.7969 Q405.8438,384.6406 406.2656,384.2031 Q406.5313,383.9375 406.6719,383.8594 Q406.8281,383.7813 407.0313,383.7813 Q407.3594,383.7813 407.6094,384.0469 Q407.875,384.2969 407.875,384.6406 Q407.875,384.9844 407.5313,385.3906 Q407.0313,385.9688 406.2344,386.2969 Q405.1563,386.75 403.8594,386.75 Q402.3438,386.75 401.1406,386.125 Q400.1563,385.625 399.4688,384.5625 Q398.7813,383.4844 398.7813,382.2031 L398.7813,381.0469 Q398.7813,379.7188 399.3906,378.5781 Q400.0156,377.4219 401.1094,376.8125 Q402.2031,376.1875 403.4375,376.1875 Q404.1719,376.1875 404.8125,376.3594 Q405.4688,376.5156 406.0156,376.875 Z " fill="#000000"/><text fill="#000000" font-family="sans-serif" font-size="14" lengthAdjust="spacing" textLength="46" x="423.75" y="385.8535">Course</text><line style="stroke:#181818;stroke-width:0.5;" x1="344.5" x2="516.5" y1="397" y2="397"/><rect fill="none" height="6" style="stroke:#C82930;stroke-width:1.0;" width="6" x="351.5" y="407.3203"/><text fill="#000000" font-family="sans-serif" font-size="14" lengthAdjust="spacing" textLength="34" x="363.5" y="413.6738">id: int</text><rect fill="none" height="6" style="stroke:#C82930;stroke-width:1.0;" width="6" x="351.5" y="422.9609"/><text fill="#000000" font-family="sans-serif" font-size="14" lengthAdjust="spacing" textLength="80" x="363.5" y="429.3145">name: String</text><rect fill="none" height="6" style="stroke:#C82930;stroke-width:1.0;" width="6" x="351.5" y="438.6016"/><text fill="#000000" font-family="sans-serif" font-size="14" lengthAdjust="spacing" textLength="117" x="363.5" y="444.9551">acronym: Acronym</text><line style="stroke:#181818;stroke-width:0.5;" x1="344.5" x2="516.5" y1="451.9219" y2="451.9219"/><ellipse cx="354.5" cy="465.2422" fill="#84BE84" rx="3" ry="3" style="stroke:#038048;stroke-width:1.0;"/><text fill="#000000" font-family="sans-serif" font-size="14" lengthAdjust="spacing" textLength="64" x="363.5" y="468.5957">getId(): int</text><ellipse cx="354.5" cy="480.8828" fill="#84BE84" rx="3" ry="3" style="stroke:#038048;stroke-width:1.0;"/><text fill="#000000" font-family="sans-serif" font-size="14" lengthAdjust="spacing" textLength="111" x="363.5" y="484.2363">getName(): String</text><ellipse cx="354.5" cy="496.5234" fill="#84BE84" rx="3" ry="3" style="stroke:#038048;stroke-width:1.0;"/><text fill="#000000" font-family="sans-serif" font-size="14" lengthAdjust="spacing" textLength="148" x="363.5" y="499.877">getAcronym(): Acronym</text></g><!--link Teacher to TeacherRepository--><g id="link_Teacher_TeacherRepository"><path codeLine="44" d="M157.5,289.13 C157.5,325.69 157.5,368.89 157.5,398.74 " fill="none" id="Teacher-to-TeacherRepository" style="stroke:#181818;stroke-width:1.0;"/><polygon fill="#181818" points="157.5,403.78,161.5,394.78,157.5,398.78,153.5,394.78,157.5,403.78" style="stroke:#181818;stroke-width:1.0;"/><text fill="#000000" font-family="sans-serif" font-size="13" lengthAdjust="spacing" textLength="28" x="158.5" y="331.7686">uses</text></g><!--link Course to CourseRepository--><g id="link_Course_CourseRepository"><path codeLine="45" d="M444.38,507.21 C449.17,531.41 454.33,557.52 458.35,577.87 " fill="none" id="Course-to-CourseRepository" style="stroke:#181818;stroke-width:1.0;"/><polygon fill="#181818" points="459.35,582.91,461.5234,573.304,458.3777,578.0055,453.6762,574.8597,459.35,582.91" style="stroke:#181818;stroke-width:1.0;"/><text fill="#000000" font-family="sans-serif" font-size="13" lengthAdjust="spacing" textLength="28" x="454.5" y="549.7686">uses</text></g><!--link ShowTeachingCoursesUI to ShowTeachingCoursesController--><g id="link_ShowTeachingCoursesUI_ShowTeachingCoursesController"><path codeLine="46" d="M593.21,71.08 C587.6,80.25 582.4,90.62 579.5,101 C571.9,128.17 582.48,158.45 594.39,181.26 " fill="none" id="ShowTeachingCoursesUI-to-ShowTeachingCoursesController" style="stroke:#181818;stroke-width:1.0;"/><polygon fill="#181818" points="596.78,185.72,596.0559,175.8978,594.4189,181.3126,589.0041,179.6756,596.78,185.72" style="stroke:#181818;stroke-width:1.0;"/><text fill="#000000" font-family="sans-serif" font-size="13" lengthAdjust="spacing" textLength="27" x="580.5" y="113.7686">calls</text></g><!--reverse link ShowTeachingCoursesUI to ShowTeachingCoursesController--><g id="link_ShowTeachingCoursesUI_ShowTeachingCoursesController"><path codeLine="51" d="M616.7,76.28 C616.89,108.53 617.15,155.17 617.32,185.78 " fill="none" id="ShowTeachingCoursesUI-backto-ShowTeachingCoursesController" style="stroke:#181818;stroke-width:1.0;"/><polygon fill="#181818" points="616.68,71.24,612.7315,80.2627,616.7086,76.2399,620.7314,80.217,616.68,71.24" style="stroke:#181818;stroke-width:1.0;"/><text fill="#000000" font-family="sans-serif" font-size="13" lengthAdjust="spacing" textLength="40" x="617.5" y="113.7686">returns</text></g><!--link ShowTeachingCoursesController to TeacherRepository--><g id="link_ShowTeachingCoursesController_TeacherRepository"><path codeLine="47" d="M551.1,250.18 C465.31,290.46 316.54,360.32 228.54,401.64 " fill="none" id="ShowTeachingCoursesController-to-TeacherRepository" style="stroke:#181818;stroke-width:1.0;"/><polygon fill="#181818" points="223.88,403.83,233.7267,403.6216,228.4051,401.7031,230.3236,396.3815,223.88,403.83" style="stroke:#181818;stroke-width:1.0;"/><text fill="#000000" font-family="sans-serif" font-size="13" lengthAdjust="spacing" textLength="28" x="402.5" y="331.7686">uses</text></g><!--link ShowTeachingCoursesController to Acronym--><g id="link_ShowTeachingCoursesController_Acronym"><path codeLine="48" d="M617.5,250.41 C617.5,289.79 617.5,357.18 617.5,398.72 " fill="none" id="ShowTeachingCoursesController-to-Acronym" style="stroke:#181818;stroke-width:1.0;"/><polygon fill="#181818" points="617.5,403.9,621.5,394.9,617.5,398.9,613.5,394.9,617.5,403.9" style="stroke:#181818;stroke-width:1.0;"/><text fill="#000000" font-family="sans-serif" font-size="13" lengthAdjust="spacing" textLength="28" x="618.5" y="331.7686">uses</text></g><!--link ShowTeachingCoursesController to CourseManagementService--><g id="link_ShowTeachingCoursesController_CourseManagementService"><path codeLine="49" d="M656.9,250.18 C707.42,290.14 794.71,359.21 847.09,400.65 " fill="none" id="ShowTeachingCoursesController-to-CourseManagementService" style="stroke:#181818;stroke-width:1.0;"/><polygon fill="#181818" points="851.11,403.83,846.538,395.1066,847.1904,400.7258,841.5712,401.3781,851.11,403.83" style="stroke:#181818;stroke-width:1.0;"/><text fill="#000000" font-family="sans-serif" font-size="13" lengthAdjust="spacing" textLength="28" x="762.5" y="331.7686">uses</text></g><!--link CourseManagementService to CourseRepository--><g id="link_CourseManagementService_CourseRepository"><path codeLine="50" d="M815.98,468.03 C740.16,499.61 623.04,548.39 545.35,580.75 " fill="none" id="CourseManagementService-to-CourseRepository" style="stroke:#181818;stroke-width:1.0;"/><polygon fill="#181818" points="540.29,582.85,550.1364,583.07,544.9033,580.9219,547.0514,575.6887,540.29,582.85" style="stroke:#181818;stroke-width:1.0;"/><text fill="#000000" font-family="sans-serif" font-size="13" lengthAdjust="spacing" textLength="28" x="640.5" y="549.7686">uses</text></g><!--SRC=[fLBBQiCm4BpxA_QOOFm39WJIq8EXxQ5kFq38MqSWIqMI4qpflrSl4xj-9AKtiJipcfrToedMy8Q4db31LmAG0QjoOCBujo0Dvb0QnKJj2zWGnWUL56eqHRNPzXnVUB4qLnh37XrtKFvE4kh_FyfMQNp5JwcPaQhpHbBuOABorYmuGFJ61Aj5y6YrdfWskz3TNnNZHCkIg1wwu6SqaHMCxQjMUPANNpRUYwXNITTrCvqbgrOvHocCafp7d5FGKynKw42L55qJAKO6cyiXFXD1QcnGc1BLcL7yVvQXSCzna60sxrt_yJuYopLw0MiYwQypo_RJlURGsb6IwD519iSK8VDhT8pLPUL02UUpzC56rxpTPXxwtEx4BwnwbCNq4ER2MSrcbsMtib5eMYNq3m00]--></g></svg>