<?xml version="1.0" encoding="us-ascii" standalone="no"?><svg xmlns="http://www.w3.org/2000/svg" xmlns:xlink="http://www.w3.org/1999/xlink" contentStyleType="text/css" height="619px" preserveAspectRatio="none" style="width:1666px;height:619px;background:#FFFFFF;" version="1.1" viewBox="0 0 1666 619" width="1666px" zoomAndPan="magnify"><defs/><g><!--class Teacher--><g id="elem_Teacher"><rect codeLine="1" fill="#F1F1F1" height="94.9219" id="Teacher" rx="2.5" ry="2.5" style="stroke:#181818;stroke-width:0.5;" width="137" x="1126.5" y="7"/><ellipse cx="1164.9" cy="23" fill="#ADD1B2" rx="11" ry="11" style="stroke:#181818;stroke-width:1.0;"/><path d="M1167.6656,18.875 Q1167.8219,18.6563 1168.0094,18.5469 Q1168.1969,18.4375 1168.4156,18.4375 Q1168.7906,18.4375 1169.025,18.7031 Q1169.2594,18.9531 1169.2594,19.5625 L1169.2594,21.0156 Q1169.2594,21.625 1169.025,21.8906 Q1168.7906,22.1563 1168.4156,22.1563 Q1168.0719,22.1563 1167.8688,21.9531 Q1167.6656,21.7656 1167.5563,21.25 Q1167.5094,20.8906 1167.3219,20.7031 Q1166.9938,20.3281 1166.3844,20.1094 Q1165.775,19.8906 1165.15,19.8906 Q1164.3844,19.8906 1163.7438,20.2188 Q1163.1188,20.5469 1162.6188,21.2969 Q1162.1344,22.0469 1162.1344,23.0781 L1162.1344,24.1719 Q1162.1344,25.4063 1163.025,26.2344 Q1163.9156,27.0469 1165.5094,27.0469 Q1166.4469,27.0469 1167.1031,26.7969 Q1167.4938,26.6406 1167.9156,26.2031 Q1168.1813,25.9375 1168.3219,25.8594 Q1168.4781,25.7813 1168.6813,25.7813 Q1169.0094,25.7813 1169.2594,26.0469 Q1169.525,26.2969 1169.525,26.6406 Q1169.525,26.9844 1169.1813,27.3906 Q1168.6813,27.9688 1167.8844,28.2969 Q1166.8063,28.75 1165.5094,28.75 Q1163.9938,28.75 1162.7906,28.125 Q1161.8063,27.625 1161.1188,26.5625 Q1160.4313,25.4844 1160.4313,24.2031 L1160.4313,23.0469 Q1160.4313,21.7188 1161.0406,20.5781 Q1161.6656,19.4219 1162.7594,18.8125 Q1163.8531,18.1875 1165.0875,18.1875 Q1165.8219,18.1875 1166.4625,18.3594 Q1167.1188,18.5156 1167.6656,18.875 Z " fill="#000000"/><text fill="#000000" font-family="sans-serif" font-size="14" lengthAdjust="spacing" textLength="53" x="1184.1" y="27.8535">Teacher</text><line style="stroke:#181818;stroke-width:0.5;" x1="1127.5" x2="1262.5" y1="39" y2="39"/><ellipse cx="1137.5" cy="52.3203" fill="none" rx="3" ry="3" style="stroke:#038048;stroke-width:1.0;"/><text fill="#000000" font-family="sans-serif" font-size="14" lengthAdjust="spacing" textLength="78" x="1146.5" y="55.6738">email: String</text><ellipse cx="1137.5" cy="67.9609" fill="none" rx="3" ry="3" style="stroke:#038048;stroke-width:1.0;"/><text fill="#000000" font-family="sans-serif" font-size="14" lengthAdjust="spacing" textLength="80" x="1146.5" y="71.3145">name: String</text><line style="stroke:#181818;stroke-width:0.5;" x1="1127.5" x2="1262.5" y1="78.2813" y2="78.2813"/><ellipse cx="1137.5" cy="91.6016" fill="#84BE84" rx="3" ry="3" style="stroke:#038048;stroke-width:1.0;"/><text fill="#000000" font-family="sans-serif" font-size="14" lengthAdjust="spacing" textLength="111" x="1146.5" y="94.9551">getGrades(): void</text></g><!--class ListExamsGradesUI--><g id="elem_ListExamsGradesUI"><rect codeLine="7" fill="#F1F1F1" height="63.6406" id="ListExamsGradesUI" rx="2.5" ry="2.5" style="stroke:#181818;stroke-width:0.5;" width="154" x="1118" y="169.5"/><ellipse cx="1133" cy="185.5" fill="#ADD1B2" rx="11" ry="11" style="stroke:#181818;stroke-width:1.0;"/><path d="M1135.7656,181.375 Q1135.9219,181.1563 1136.1094,181.0469 Q1136.2969,180.9375 1136.5156,180.9375 Q1136.8906,180.9375 1137.125,181.2031 Q1137.3594,181.4531 1137.3594,182.0625 L1137.3594,183.5156 Q1137.3594,184.125 1137.125,184.3906 Q1136.8906,184.6563 1136.5156,184.6563 Q1136.1719,184.6563 1135.9688,184.4531 Q1135.7656,184.2656 1135.6563,183.75 Q1135.6094,183.3906 1135.4219,183.2031 Q1135.0938,182.8281 1134.4844,182.6094 Q1133.875,182.3906 1133.25,182.3906 Q1132.4844,182.3906 1131.8438,182.7188 Q1131.2188,183.0469 1130.7188,183.7969 Q1130.2344,184.5469 1130.2344,185.5781 L1130.2344,186.6719 Q1130.2344,187.9063 1131.125,188.7344 Q1132.0156,189.5469 1133.6094,189.5469 Q1134.5469,189.5469 1135.2031,189.2969 Q1135.5938,189.1406 1136.0156,188.7031 Q1136.2813,188.4375 1136.4219,188.3594 Q1136.5781,188.2813 1136.7813,188.2813 Q1137.1094,188.2813 1137.3594,188.5469 Q1137.625,188.7969 1137.625,189.1406 Q1137.625,189.4844 1137.2813,189.8906 Q1136.7813,190.4688 1135.9844,190.7969 Q1134.9063,191.25 1133.6094,191.25 Q1132.0938,191.25 1130.8906,190.625 Q1129.9063,190.125 1129.2188,189.0625 Q1128.5313,187.9844 1128.5313,186.7031 L1128.5313,185.5469 Q1128.5313,184.2188 1129.1406,183.0781 Q1129.7656,181.9219 1130.8594,181.3125 Q1131.9531,180.6875 1133.1875,180.6875 Q1133.9219,180.6875 1134.5625,180.8594 Q1135.2188,181.0156 1135.7656,181.375 Z " fill="#000000"/><text fill="#000000" font-family="sans-serif" font-size="14" lengthAdjust="spacing" textLength="122" x="1147" y="190.3535">ListExamsGradesUI</text><line style="stroke:#181818;stroke-width:0.5;" x1="1119" x2="1271" y1="201.5" y2="201.5"/><line style="stroke:#181818;stroke-width:0.5;" x1="1119" x2="1271" y1="209.5" y2="209.5"/><ellipse cx="1129" cy="222.8203" fill="#84BE84" rx="3" ry="3" style="stroke:#038048;stroke-width:1.0;"/><text fill="#000000" font-family="sans-serif" font-size="14" lengthAdjust="spacing" textLength="94" x="1138" y="226.1738">doShow(): void</text></g><!--class ShowTeachingCoursesController--><g id="elem_ShowTeachingCoursesController"><rect codeLine="11" fill="#F1F1F1" height="63.6406" id="ShowTeachingCoursesController" rx="2.5" ry="2.5" style="stroke:#181818;stroke-width:0.5;" width="240" x="610" y="301"/><ellipse cx="625" cy="317" fill="#ADD1B2" rx="11" ry="11" style="stroke:#181818;stroke-width:1.0;"/><path d="M627.7656,312.875 Q627.9219,312.6563 628.1094,312.5469 Q628.2969,312.4375 628.5156,312.4375 Q628.8906,312.4375 629.125,312.7031 Q629.3594,312.9531 629.3594,313.5625 L629.3594,315.0156 Q629.3594,315.625 629.125,315.8906 Q628.8906,316.1563 628.5156,316.1563 Q628.1719,316.1563 627.9688,315.9531 Q627.7656,315.7656 627.6563,315.25 Q627.6094,314.8906 627.4219,314.7031 Q627.0938,314.3281 626.4844,314.1094 Q625.875,313.8906 625.25,313.8906 Q624.4844,313.8906 623.8438,314.2188 Q623.2188,314.5469 622.7188,315.2969 Q622.2344,316.0469 622.2344,317.0781 L622.2344,318.1719 Q622.2344,319.4063 623.125,320.2344 Q624.0156,321.0469 625.6094,321.0469 Q626.5469,321.0469 627.2031,320.7969 Q627.5938,320.6406 628.0156,320.2031 Q628.2813,319.9375 628.4219,319.8594 Q628.5781,319.7813 628.7813,319.7813 Q629.1094,319.7813 629.3594,320.0469 Q629.625,320.2969 629.625,320.6406 Q629.625,320.9844 629.2813,321.3906 Q628.7813,321.9688 627.9844,322.2969 Q626.9063,322.75 625.6094,322.75 Q624.0938,322.75 622.8906,322.125 Q621.9063,321.625 621.2188,320.5625 Q620.5313,319.4844 620.5313,318.2031 L620.5313,317.0469 Q620.5313,315.7188 621.1406,314.5781 Q621.7656,313.4219 622.8594,312.8125 Q623.9531,312.1875 625.1875,312.1875 Q625.9219,312.1875 626.5625,312.3594 Q627.2188,312.5156 627.7656,312.875 Z " fill="#000000"/><text fill="#000000" font-family="sans-serif" font-size="14" lengthAdjust="spacing" textLength="208" x="639" y="321.8535">ShowTeachingCoursesController</text><line style="stroke:#181818;stroke-width:0.5;" x1="611" x2="849" y1="333" y2="333"/><line style="stroke:#181818;stroke-width:0.5;" x1="611" x2="849" y1="341" y2="341"/><ellipse cx="621" cy="354.3203" fill="#84BE84" rx="3" ry="3" style="stroke:#038048;stroke-width:1.0;"/><text fill="#000000" font-family="sans-serif" font-size="14" lengthAdjust="spacing" textLength="188" x="630" y="357.6738">showTeachingCourses(): void</text></g><!--class AuthorizationService--><g id="elem_AuthorizationService"><rect codeLine="15" fill="#F1F1F1" height="63.6406" id="AuthorizationService" rx="2.5" ry="2.5" style="stroke:#181818;stroke-width:0.5;" width="293" x="66.5" y="425"/><ellipse cx="144.25" cy="441" fill="#ADD1B2" rx="11" ry="11" style="stroke:#181818;stroke-width:1.0;"/><path d="M147.0156,436.875 Q147.1719,436.6563 147.3594,436.5469 Q147.5469,436.4375 147.7656,436.4375 Q148.1406,436.4375 148.375,436.7031 Q148.6094,436.9531 148.6094,437.5625 L148.6094,439.0156 Q148.6094,439.625 148.375,439.8906 Q148.1406,440.1563 147.7656,440.1563 Q147.4219,440.1563 147.2188,439.9531 Q147.0156,439.7656 146.9063,439.25 Q146.8594,438.8906 146.6719,438.7031 Q146.3438,438.3281 145.7344,438.1094 Q145.125,437.8906 144.5,437.8906 Q143.7344,437.8906 143.0938,438.2188 Q142.4688,438.5469 141.9688,439.2969 Q141.4844,440.0469 141.4844,441.0781 L141.4844,442.1719 Q141.4844,443.4063 142.375,444.2344 Q143.2656,445.0469 144.8594,445.0469 Q145.7969,445.0469 146.4531,444.7969 Q146.8438,444.6406 147.2656,444.2031 Q147.5313,443.9375 147.6719,443.8594 Q147.8281,443.7813 148.0313,443.7813 Q148.3594,443.7813 148.6094,444.0469 Q148.875,444.2969 148.875,444.6406 Q148.875,444.9844 148.5313,445.3906 Q148.0313,445.9688 147.2344,446.2969 Q146.1563,446.75 144.8594,446.75 Q143.3438,446.75 142.1406,446.125 Q141.1563,445.625 140.4688,444.5625 Q139.7813,443.4844 139.7813,442.2031 L139.7813,441.0469 Q139.7813,439.7188 140.3906,438.5781 Q141.0156,437.4219 142.1094,436.8125 Q143.2031,436.1875 144.4375,436.1875 Q145.1719,436.1875 145.8125,436.3594 Q146.4688,436.5156 147.0156,436.875 Z " fill="#000000"/><text fill="#000000" font-family="sans-serif" font-size="14" lengthAdjust="spacing" textLength="129" x="164.75" y="445.8535">AuthorizationService</text><line style="stroke:#181818;stroke-width:0.5;" x1="67.5" x2="358.5" y1="457" y2="457"/><line style="stroke:#181818;stroke-width:0.5;" x1="67.5" x2="358.5" y1="465" y2="465"/><ellipse cx="77.5" cy="478.3203" fill="#84BE84" rx="3" ry="3" style="stroke:#038048;stroke-width:1.0;"/><text fill="#000000" font-family="sans-serif" font-size="14" lengthAdjust="spacing" textLength="267" x="86.5" y="481.6738">ensureAuthenticatedUserHasAnyOf(): void</text></g><!--class UserSession--><g id="elem_UserSession"><rect codeLine="19" fill="#F1F1F1" height="63.6406" id="UserSession" rx="2.5" ry="2.5" style="stroke:#181818;stroke-width:0.5;" width="178" x="7" y="549"/><ellipse cx="52.25" cy="565" fill="#ADD1B2" rx="11" ry="11" style="stroke:#181818;stroke-width:1.0;"/><path d="M55.0156,560.875 Q55.1719,560.6563 55.3594,560.5469 Q55.5469,560.4375 55.7656,560.4375 Q56.1406,560.4375 56.375,560.7031 Q56.6094,560.9531 56.6094,561.5625 L56.6094,563.0156 Q56.6094,563.625 56.375,563.8906 Q56.1406,564.1563 55.7656,564.1563 Q55.4219,564.1563 55.2188,563.9531 Q55.0156,563.7656 54.9063,563.25 Q54.8594,562.8906 54.6719,562.7031 Q54.3438,562.3281 53.7344,562.1094 Q53.125,561.8906 52.5,561.8906 Q51.7344,561.8906 51.0938,562.2188 Q50.4688,562.5469 49.9688,563.2969 Q49.4844,564.0469 49.4844,565.0781 L49.4844,566.1719 Q49.4844,567.4063 50.375,568.2344 Q51.2656,569.0469 52.8594,569.0469 Q53.7969,569.0469 54.4531,568.7969 Q54.8438,568.6406 55.2656,568.2031 Q55.5313,567.9375 55.6719,567.8594 Q55.8281,567.7813 56.0313,567.7813 Q56.3594,567.7813 56.6094,568.0469 Q56.875,568.2969 56.875,568.6406 Q56.875,568.9844 56.5313,569.3906 Q56.0313,569.9688 55.2344,570.2969 Q54.1563,570.75 52.8594,570.75 Q51.3438,570.75 50.1406,570.125 Q49.1563,569.625 48.4688,568.5625 Q47.7813,567.4844 47.7813,566.2031 L47.7813,565.0469 Q47.7813,563.7188 48.3906,562.5781 Q49.0156,561.4219 50.1094,560.8125 Q51.2031,560.1875 52.4375,560.1875 Q53.1719,560.1875 53.8125,560.3594 Q54.4688,560.5156 55.0156,560.875 Z " fill="#000000"/><text fill="#000000" font-family="sans-serif" font-size="14" lengthAdjust="spacing" textLength="79" x="72.75" y="569.8535">UserSession</text><line style="stroke:#181818;stroke-width:0.5;" x1="8" x2="184" y1="581" y2="581"/><ellipse cx="18" cy="594.3203" fill="none" rx="3" ry="3" style="stroke:#038048;stroke-width:1.0;"/><text fill="#000000" font-family="sans-serif" font-size="14" lengthAdjust="spacing" textLength="152" x="27" y="597.6738">authenticatedUser: User</text><line style="stroke:#181818;stroke-width:0.5;" x1="8" x2="184" y1="604.6406" y2="604.6406"/></g><!--class SystemUserAuth--><g id="elem_SystemUserAuth"><rect codeLine="23" fill="#F1F1F1" height="63.6406" id="SystemUserAuth" rx="2.5" ry="2.5" style="stroke:#181818;stroke-width:0.5;" width="220" x="220" y="549"/><ellipse cx="273.75" cy="565" fill="#ADD1B2" rx="11" ry="11" style="stroke:#181818;stroke-width:1.0;"/><path d="M276.5156,560.875 Q276.6719,560.6563 276.8594,560.5469 Q277.0469,560.4375 277.2656,560.4375 Q277.6406,560.4375 277.875,560.7031 Q278.1094,560.9531 278.1094,561.5625 L278.1094,563.0156 Q278.1094,563.625 277.875,563.8906 Q277.6406,564.1563 277.2656,564.1563 Q276.9219,564.1563 276.7188,563.9531 Q276.5156,563.7656 276.4063,563.25 Q276.3594,562.8906 276.1719,562.7031 Q275.8438,562.3281 275.2344,562.1094 Q274.625,561.8906 274,561.8906 Q273.2344,561.8906 272.5938,562.2188 Q271.9688,562.5469 271.4688,563.2969 Q270.9844,564.0469 270.9844,565.0781 L270.9844,566.1719 Q270.9844,567.4063 271.875,568.2344 Q272.7656,569.0469 274.3594,569.0469 Q275.2969,569.0469 275.9531,568.7969 Q276.3438,568.6406 276.7656,568.2031 Q277.0313,567.9375 277.1719,567.8594 Q277.3281,567.7813 277.5313,567.7813 Q277.8594,567.7813 278.1094,568.0469 Q278.375,568.2969 278.375,568.6406 Q278.375,568.9844 278.0313,569.3906 Q277.5313,569.9688 276.7344,570.2969 Q275.6563,570.75 274.3594,570.75 Q272.8438,570.75 271.6406,570.125 Q270.6563,569.625 269.9688,568.5625 Q269.2813,567.4844 269.2813,566.2031 L269.2813,565.0469 Q269.2813,563.7188 269.8906,562.5781 Q270.5156,561.4219 271.6094,560.8125 Q272.7031,560.1875 273.9375,560.1875 Q274.6719,560.1875 275.3125,560.3594 Q275.9688,560.5156 276.5156,560.875 Z " fill="#000000"/><text fill="#000000" font-family="sans-serif" font-size="14" lengthAdjust="spacing" textLength="104" x="294.25" y="569.8535">SystemUserAuth</text><line style="stroke:#181818;stroke-width:0.5;" x1="221" x2="439" y1="581" y2="581"/><line style="stroke:#181818;stroke-width:0.5;" x1="221" x2="439" y1="589" y2="589"/><ellipse cx="231" cy="602.3203" fill="#84BE84" rx="3" ry="3" style="stroke:#038048;stroke-width:1.0;"/><text fill="#000000" font-family="sans-serif" font-size="14" lengthAdjust="spacing" textLength="194" x="240" y="605.6738">hasAny(email: String): boolean</text></g><!--class TeacherRepository--><g id="elem_TeacherRepository"><rect codeLine="27" fill="#F1F1F1" height="63.6406" id="TeacherRepository" rx="2.5" ry="2.5" style="stroke:#181818;stroke-width:0.5;" width="301" x="394.5" y="425"/><ellipse cx="480.25" cy="441" fill="#ADD1B2" rx="11" ry="11" style="stroke:#181818;stroke-width:1.0;"/><path d="M483.0156,436.875 Q483.1719,436.6563 483.3594,436.5469 Q483.5469,436.4375 483.7656,436.4375 Q484.1406,436.4375 484.375,436.7031 Q484.6094,436.9531 484.6094,437.5625 L484.6094,439.0156 Q484.6094,439.625 484.375,439.8906 Q484.1406,440.1563 483.7656,440.1563 Q483.4219,440.1563 483.2188,439.9531 Q483.0156,439.7656 482.9063,439.25 Q482.8594,438.8906 482.6719,438.7031 Q482.3438,438.3281 481.7344,438.1094 Q481.125,437.8906 480.5,437.8906 Q479.7344,437.8906 479.0938,438.2188 Q478.4688,438.5469 477.9688,439.2969 Q477.4844,440.0469 477.4844,441.0781 L477.4844,442.1719 Q477.4844,443.4063 478.375,444.2344 Q479.2656,445.0469 480.8594,445.0469 Q481.7969,445.0469 482.4531,444.7969 Q482.8438,444.6406 483.2656,444.2031 Q483.5313,443.9375 483.6719,443.8594 Q483.8281,443.7813 484.0313,443.7813 Q484.3594,443.7813 484.6094,444.0469 Q484.875,444.2969 484.875,444.6406 Q484.875,444.9844 484.5313,445.3906 Q484.0313,445.9688 483.2344,446.2969 Q482.1563,446.75 480.8594,446.75 Q479.3438,446.75 478.1406,446.125 Q477.1563,445.625 476.4688,444.5625 Q475.7813,443.4844 475.7813,442.2031 L475.7813,441.0469 Q475.7813,439.7188 476.3906,438.5781 Q477.0156,437.4219 478.1094,436.8125 Q479.2031,436.1875 480.4375,436.1875 Q481.1719,436.1875 481.8125,436.3594 Q482.4688,436.5156 483.0156,436.875 Z " fill="#000000"/><text fill="#000000" font-family="sans-serif" font-size="14" lengthAdjust="spacing" textLength="121" x="500.75" y="445.8535">TeacherRepository</text><line style="stroke:#181818;stroke-width:0.5;" x1="395.5" x2="694.5" y1="457" y2="457"/><line style="stroke:#181818;stroke-width:0.5;" x1="395.5" x2="694.5" y1="465" y2="465"/><ellipse cx="405.5" cy="478.3203" fill="#84BE84" rx="3" ry="3" style="stroke:#038048;stroke-width:1.0;"/><text fill="#000000" font-family="sans-serif" font-size="14" lengthAdjust="spacing" textLength="275" x="414.5" y="481.6738">findTeacherByEmail(email: String): Teacher</text></g><!--class CourseManagementService--><g id="elem_CourseManagementService"><rect codeLine="31" fill="#F1F1F1" height="63.6406" id="CourseManagementService" rx="2.5" ry="2.5" style="stroke:#181818;stroke-width:0.5;" width="233" x="730.5" y="425"/><ellipse cx="757.2" cy="441" fill="#ADD1B2" rx="11" ry="11" style="stroke:#181818;stroke-width:1.0;"/><path d="M759.9656,436.875 Q760.1219,436.6563 760.3094,436.5469 Q760.4969,436.4375 760.7156,436.4375 Q761.0906,436.4375 761.325,436.7031 Q761.5594,436.9531 761.5594,437.5625 L761.5594,439.0156 Q761.5594,439.625 761.325,439.8906 Q761.0906,440.1563 760.7156,440.1563 Q760.3719,440.1563 760.1688,439.9531 Q759.9656,439.7656 759.8563,439.25 Q759.8094,438.8906 759.6219,438.7031 Q759.2938,438.3281 758.6844,438.1094 Q758.075,437.8906 757.45,437.8906 Q756.6844,437.8906 756.0438,438.2188 Q755.4188,438.5469 754.9188,439.2969 Q754.4344,440.0469 754.4344,441.0781 L754.4344,442.1719 Q754.4344,443.4063 755.325,444.2344 Q756.2156,445.0469 757.8094,445.0469 Q758.7469,445.0469 759.4031,444.7969 Q759.7938,444.6406 760.2156,444.2031 Q760.4813,443.9375 760.6219,443.8594 Q760.7781,443.7813 760.9813,443.7813 Q761.3094,443.7813 761.5594,444.0469 Q761.825,444.2969 761.825,444.6406 Q761.825,444.9844 761.4813,445.3906 Q760.9813,445.9688 760.1844,446.2969 Q759.1063,446.75 757.8094,446.75 Q756.2938,446.75 755.0906,446.125 Q754.1063,445.625 753.4188,444.5625 Q752.7313,443.4844 752.7313,442.2031 L752.7313,441.0469 Q752.7313,439.7188 753.3406,438.5781 Q753.9656,437.4219 755.0594,436.8125 Q756.1531,436.1875 757.3875,436.1875 Q758.1219,436.1875 758.7625,436.3594 Q759.4188,436.5156 759.9656,436.875 Z " fill="#000000"/><text fill="#000000" font-family="sans-serif" font-size="14" lengthAdjust="spacing" textLength="175" x="773.8" y="445.8535">CourseManagementService</text><line style="stroke:#181818;stroke-width:0.5;" x1="731.5" x2="962.5" y1="457" y2="457"/><line style="stroke:#181818;stroke-width:0.5;" x1="731.5" x2="962.5" y1="465" y2="465"/><ellipse cx="741.5" cy="478.3203" fill="#84BE84" rx="3" ry="3" style="stroke:#038048;stroke-width:1.0;"/><text fill="#000000" font-family="sans-serif" font-size="14" lengthAdjust="spacing" textLength="207" x="750.5" y="481.6738">findTeachingCourses(): Course[]</text></g><!--class CourseRepository--><g id="elem_CourseRepository"><rect codeLine="35" fill="#F1F1F1" height="63.6406" id="CourseRepository" rx="2.5" ry="2.5" style="stroke:#181818;stroke-width:0.5;" width="233" x="730.5" y="549"/><ellipse cx="785.75" cy="565" fill="#ADD1B2" rx="11" ry="11" style="stroke:#181818;stroke-width:1.0;"/><path d="M788.5156,560.875 Q788.6719,560.6563 788.8594,560.5469 Q789.0469,560.4375 789.2656,560.4375 Q789.6406,560.4375 789.875,560.7031 Q790.1094,560.9531 790.1094,561.5625 L790.1094,563.0156 Q790.1094,563.625 789.875,563.8906 Q789.6406,564.1563 789.2656,564.1563 Q788.9219,564.1563 788.7188,563.9531 Q788.5156,563.7656 788.4063,563.25 Q788.3594,562.8906 788.1719,562.7031 Q787.8438,562.3281 787.2344,562.1094 Q786.625,561.8906 786,561.8906 Q785.2344,561.8906 784.5938,562.2188 Q783.9688,562.5469 783.4688,563.2969 Q782.9844,564.0469 782.9844,565.0781 L782.9844,566.1719 Q782.9844,567.4063 783.875,568.2344 Q784.7656,569.0469 786.3594,569.0469 Q787.2969,569.0469 787.9531,568.7969 Q788.3438,568.6406 788.7656,568.2031 Q789.0313,567.9375 789.1719,567.8594 Q789.3281,567.7813 789.5313,567.7813 Q789.8594,567.7813 790.1094,568.0469 Q790.375,568.2969 790.375,568.6406 Q790.375,568.9844 790.0313,569.3906 Q789.5313,569.9688 788.7344,570.2969 Q787.6563,570.75 786.3594,570.75 Q784.8438,570.75 783.6406,570.125 Q782.6563,569.625 781.9688,568.5625 Q781.2813,567.4844 781.2813,566.2031 L781.2813,565.0469 Q781.2813,563.7188 781.8906,562.5781 Q782.5156,561.4219 783.6094,560.8125 Q784.7031,560.1875 785.9375,560.1875 Q786.6719,560.1875 787.3125,560.3594 Q787.9688,560.5156 788.5156,560.875 Z " fill="#000000"/><text fill="#000000" font-family="sans-serif" font-size="14" lengthAdjust="spacing" textLength="114" x="806.25" y="569.8535">CourseRepository</text><line style="stroke:#181818;stroke-width:0.5;" x1="731.5" x2="962.5" y1="581" y2="581"/><line style="stroke:#181818;stroke-width:0.5;" x1="731.5" x2="962.5" y1="589" y2="589"/><ellipse cx="741.5" cy="602.3203" fill="#84BE84" rx="3" ry="3" style="stroke:#038048;stroke-width:1.0;"/><text fill="#000000" font-family="sans-serif" font-size="14" lengthAdjust="spacing" textLength="207" x="750.5" y="605.6738">findTeachingCourses(): Course[]</text></g><!--class ExamManagementController--><g id="elem_ExamManagementController"><rect codeLine="39" fill="#F1F1F1" height="63.6406" id="ExamManagementController" rx="2.5" ry="2.5" style="stroke:#181818;stroke-width:0.5;" width="210" x="952" y="301"/><ellipse cx="967" cy="317" fill="#ADD1B2" rx="11" ry="11" style="stroke:#181818;stroke-width:1.0;"/><path d="M969.7656,312.875 Q969.9219,312.6563 970.1094,312.5469 Q970.2969,312.4375 970.5156,312.4375 Q970.8906,312.4375 971.125,312.7031 Q971.3594,312.9531 971.3594,313.5625 L971.3594,315.0156 Q971.3594,315.625 971.125,315.8906 Q970.8906,316.1563 970.5156,316.1563 Q970.1719,316.1563 969.9688,315.9531 Q969.7656,315.7656 969.6563,315.25 Q969.6094,314.8906 969.4219,314.7031 Q969.0938,314.3281 968.4844,314.1094 Q967.875,313.8906 967.25,313.8906 Q966.4844,313.8906 965.8438,314.2188 Q965.2188,314.5469 964.7188,315.2969 Q964.2344,316.0469 964.2344,317.0781 L964.2344,318.1719 Q964.2344,319.4063 965.125,320.2344 Q966.0156,321.0469 967.6094,321.0469 Q968.5469,321.0469 969.2031,320.7969 Q969.5938,320.6406 970.0156,320.2031 Q970.2813,319.9375 970.4219,319.8594 Q970.5781,319.7813 970.7813,319.7813 Q971.1094,319.7813 971.3594,320.0469 Q971.625,320.2969 971.625,320.6406 Q971.625,320.9844 971.2813,321.3906 Q970.7813,321.9688 969.9844,322.2969 Q968.9063,322.75 967.6094,322.75 Q966.0938,322.75 964.8906,322.125 Q963.9063,321.625 963.2188,320.5625 Q962.5313,319.4844 962.5313,318.2031 L962.5313,317.0469 Q962.5313,315.7188 963.1406,314.5781 Q963.7656,313.4219 964.8594,312.8125 Q965.9531,312.1875 967.1875,312.1875 Q967.9219,312.1875 968.5625,312.3594 Q969.2188,312.5156 969.7656,312.875 Z " fill="#000000"/><text fill="#000000" font-family="sans-serif" font-size="14" lengthAdjust="spacing" textLength="178" x="981" y="321.8535">ExamManagementController</text><line style="stroke:#181818;stroke-width:0.5;" x1="953" x2="1161" y1="333" y2="333"/><line style="stroke:#181818;stroke-width:0.5;" x1="953" x2="1161" y1="341" y2="341"/><ellipse cx="963" cy="354.3203" fill="#84BE84" rx="3" ry="3" style="stroke:#038048;stroke-width:1.0;"/><text fill="#000000" font-family="sans-serif" font-size="14" lengthAdjust="spacing" textLength="125" x="972" y="357.6738">findByCode(): Exam</text></g><!--class ExamManagementService--><g id="elem_ExamManagementService"><rect codeLine="43" fill="#F1F1F1" height="63.6406" id="ExamManagementService" rx="2.5" ry="2.5" style="stroke:#181818;stroke-width:0.5;" width="195" x="998.5" y="425"/><ellipse cx="1013.5" cy="441" fill="#ADD1B2" rx="11" ry="11" style="stroke:#181818;stroke-width:1.0;"/><path d="M1016.2656,436.875 Q1016.4219,436.6563 1016.6094,436.5469 Q1016.7969,436.4375 1017.0156,436.4375 Q1017.3906,436.4375 1017.625,436.7031 Q1017.8594,436.9531 1017.8594,437.5625 L1017.8594,439.0156 Q1017.8594,439.625 1017.625,439.8906 Q1017.3906,440.1563 1017.0156,440.1563 Q1016.6719,440.1563 1016.4688,439.9531 Q1016.2656,439.7656 1016.1563,439.25 Q1016.1094,438.8906 1015.9219,438.7031 Q1015.5938,438.3281 1014.9844,438.1094 Q1014.375,437.8906 1013.75,437.8906 Q1012.9844,437.8906 1012.3438,438.2188 Q1011.7188,438.5469 1011.2188,439.2969 Q1010.7344,440.0469 1010.7344,441.0781 L1010.7344,442.1719 Q1010.7344,443.4063 1011.625,444.2344 Q1012.5156,445.0469 1014.1094,445.0469 Q1015.0469,445.0469 1015.7031,444.7969 Q1016.0938,444.6406 1016.5156,444.2031 Q1016.7813,443.9375 1016.9219,443.8594 Q1017.0781,443.7813 1017.2813,443.7813 Q1017.6094,443.7813 1017.8594,444.0469 Q1018.125,444.2969 1018.125,444.6406 Q1018.125,444.9844 1017.7813,445.3906 Q1017.2813,445.9688 1016.4844,446.2969 Q1015.4063,446.75 1014.1094,446.75 Q1012.5938,446.75 1011.3906,446.125 Q1010.4063,445.625 1009.7188,444.5625 Q1009.0313,443.4844 1009.0313,442.2031 L1009.0313,441.0469 Q1009.0313,439.7188 1009.6406,438.5781 Q1010.2656,437.4219 1011.3594,436.8125 Q1012.4531,436.1875 1013.6875,436.1875 Q1014.4219,436.1875 1015.0625,436.3594 Q1015.7188,436.5156 1016.2656,436.875 Z " fill="#000000"/><text fill="#000000" font-family="sans-serif" font-size="14" lengthAdjust="spacing" textLength="163" x="1027.5" y="445.8535">ExamManagementService</text><line style="stroke:#181818;stroke-width:0.5;" x1="999.5" x2="1192.5" y1="457" y2="457"/><line style="stroke:#181818;stroke-width:0.5;" x1="999.5" x2="1192.5" y1="465" y2="465"/><ellipse cx="1009.5" cy="478.3203" fill="#84BE84" rx="3" ry="3" style="stroke:#038048;stroke-width:1.0;"/><text fill="#000000" font-family="sans-serif" font-size="14" lengthAdjust="spacing" textLength="125" x="1018.5" y="481.6738">findByCode(): Exam</text></g><!--class ExamRepository--><g id="elem_ExamRepository"><rect codeLine="47" fill="#F1F1F1" height="63.6406" id="ExamRepository" rx="2.5" ry="2.5" style="stroke:#181818;stroke-width:0.5;" width="151" x="1020.5" y="549"/><ellipse cx="1043.15" cy="565" fill="#ADD1B2" rx="11" ry="11" style="stroke:#181818;stroke-width:1.0;"/><path d="M1045.9156,560.875 Q1046.0719,560.6563 1046.2594,560.5469 Q1046.4469,560.4375 1046.6656,560.4375 Q1047.0406,560.4375 1047.275,560.7031 Q1047.5094,560.9531 1047.5094,561.5625 L1047.5094,563.0156 Q1047.5094,563.625 1047.275,563.8906 Q1047.0406,564.1563 1046.6656,564.1563 Q1046.3219,564.1563 1046.1188,563.9531 Q1045.9156,563.7656 1045.8063,563.25 Q1045.7594,562.8906 1045.5719,562.7031 Q1045.2438,562.3281 1044.6344,562.1094 Q1044.025,561.8906 1043.4,561.8906 Q1042.6344,561.8906 1041.9938,562.2188 Q1041.3688,562.5469 1040.8688,563.2969 Q1040.3844,564.0469 1040.3844,565.0781 L1040.3844,566.1719 Q1040.3844,567.4063 1041.275,568.2344 Q1042.1656,569.0469 1043.7594,569.0469 Q1044.6969,569.0469 1045.3531,568.7969 Q1045.7438,568.6406 1046.1656,568.2031 Q1046.4313,567.9375 1046.5719,567.8594 Q1046.7281,567.7813 1046.9313,567.7813 Q1047.2594,567.7813 1047.5094,568.0469 Q1047.775,568.2969 1047.775,568.6406 Q1047.775,568.9844 1047.4313,569.3906 Q1046.9313,569.9688 1046.1344,570.2969 Q1045.0563,570.75 1043.7594,570.75 Q1042.2438,570.75 1041.0406,570.125 Q1040.0563,569.625 1039.3688,568.5625 Q1038.6813,567.4844 1038.6813,566.2031 L1038.6813,565.0469 Q1038.6813,563.7188 1039.2906,562.5781 Q1039.9156,561.4219 1041.0094,560.8125 Q1042.1031,560.1875 1043.3375,560.1875 Q1044.0719,560.1875 1044.7125,560.3594 Q1045.3688,560.5156 1045.9156,560.875 Z " fill="#000000"/><text fill="#000000" font-family="sans-serif" font-size="14" lengthAdjust="spacing" textLength="102" x="1058.85" y="569.8535">ExamRepository</text><line style="stroke:#181818;stroke-width:0.5;" x1="1021.5" x2="1170.5" y1="581" y2="581"/><line style="stroke:#181818;stroke-width:0.5;" x1="1021.5" x2="1170.5" y1="589" y2="589"/><ellipse cx="1031.5" cy="602.3203" fill="#84BE84" rx="3" ry="3" style="stroke:#038048;stroke-width:1.0;"/><text fill="#000000" font-family="sans-serif" font-size="14" lengthAdjust="spacing" textLength="125" x="1040.5" y="605.6738">findByCode(): Exam</text></g><!--class ListExamsGradesPerCourseController--><g id="elem_ListExamsGradesPerCourseController"><rect codeLine="51" fill="#F1F1F1" height="63.6406" id="ListExamsGradesPerCourseController" rx="2.5" ry="2.5" style="stroke:#181818;stroke-width:0.5;" width="272" x="1197" y="301"/><ellipse cx="1212" cy="317" fill="#ADD1B2" rx="11" ry="11" style="stroke:#181818;stroke-width:1.0;"/><path d="M1214.7656,312.875 Q1214.9219,312.6563 1215.1094,312.5469 Q1215.2969,312.4375 1215.5156,312.4375 Q1215.8906,312.4375 1216.125,312.7031 Q1216.3594,312.9531 1216.3594,313.5625 L1216.3594,315.0156 Q1216.3594,315.625 1216.125,315.8906 Q1215.8906,316.1563 1215.5156,316.1563 Q1215.1719,316.1563 1214.9688,315.9531 Q1214.7656,315.7656 1214.6563,315.25 Q1214.6094,314.8906 1214.4219,314.7031 Q1214.0938,314.3281 1213.4844,314.1094 Q1212.875,313.8906 1212.25,313.8906 Q1211.4844,313.8906 1210.8438,314.2188 Q1210.2188,314.5469 1209.7188,315.2969 Q1209.2344,316.0469 1209.2344,317.0781 L1209.2344,318.1719 Q1209.2344,319.4063 1210.125,320.2344 Q1211.0156,321.0469 1212.6094,321.0469 Q1213.5469,321.0469 1214.2031,320.7969 Q1214.5938,320.6406 1215.0156,320.2031 Q1215.2813,319.9375 1215.4219,319.8594 Q1215.5781,319.7813 1215.7813,319.7813 Q1216.1094,319.7813 1216.3594,320.0469 Q1216.625,320.2969 1216.625,320.6406 Q1216.625,320.9844 1216.2813,321.3906 Q1215.7813,321.9688 1214.9844,322.2969 Q1213.9063,322.75 1212.6094,322.75 Q1211.0938,322.75 1209.8906,322.125 Q1208.9063,321.625 1208.2188,320.5625 Q1207.5313,319.4844 1207.5313,318.2031 L1207.5313,317.0469 Q1207.5313,315.7188 1208.1406,314.5781 Q1208.7656,313.4219 1209.8594,312.8125 Q1210.9531,312.1875 1212.1875,312.1875 Q1212.9219,312.1875 1213.5625,312.3594 Q1214.2188,312.5156 1214.7656,312.875 Z " fill="#000000"/><text fill="#000000" font-family="sans-serif" font-size="14" lengthAdjust="spacing" textLength="240" x="1226" y="321.8535">ListExamsGradesPerCourseController</text><line style="stroke:#181818;stroke-width:0.5;" x1="1198" x2="1468" y1="333" y2="333"/><line style="stroke:#181818;stroke-width:0.5;" x1="1198" x2="1468" y1="341" y2="341"/><ellipse cx="1208" cy="354.3203" fill="#84BE84" rx="3" ry="3" style="stroke:#038048;stroke-width:1.0;"/><text fill="#000000" font-family="sans-serif" font-size="14" lengthAdjust="spacing" textLength="159" x="1217" y="357.6738">GradesPerCourse(): void</text></g><!--class EvaluationRepository--><g id="elem_EvaluationRepository"><rect codeLine="55" fill="#F1F1F1" height="63.6406" id="EvaluationRepository" rx="2.5" ry="2.5" style="stroke:#181818;stroke-width:0.5;" width="353" x="1306.5" y="425"/><ellipse cx="1411.75" cy="441" fill="#ADD1B2" rx="11" ry="11" style="stroke:#181818;stroke-width:1.0;"/><path d="M1414.5156,436.875 Q1414.6719,436.6563 1414.8594,436.5469 Q1415.0469,436.4375 1415.2656,436.4375 Q1415.6406,436.4375 1415.875,436.7031 Q1416.1094,436.9531 1416.1094,437.5625 L1416.1094,439.0156 Q1416.1094,439.625 1415.875,439.8906 Q1415.6406,440.1563 1415.2656,440.1563 Q1414.9219,440.1563 1414.7188,439.9531 Q1414.5156,439.7656 1414.4063,439.25 Q1414.3594,438.8906 1414.1719,438.7031 Q1413.8438,438.3281 1413.2344,438.1094 Q1412.625,437.8906 1412,437.8906 Q1411.2344,437.8906 1410.5938,438.2188 Q1409.9688,438.5469 1409.4688,439.2969 Q1408.9844,440.0469 1408.9844,441.0781 L1408.9844,442.1719 Q1408.9844,443.4063 1409.875,444.2344 Q1410.7656,445.0469 1412.3594,445.0469 Q1413.2969,445.0469 1413.9531,444.7969 Q1414.3438,444.6406 1414.7656,444.2031 Q1415.0313,443.9375 1415.1719,443.8594 Q1415.3281,443.7813 1415.5313,443.7813 Q1415.8594,443.7813 1416.1094,444.0469 Q1416.375,444.2969 1416.375,444.6406 Q1416.375,444.9844 1416.0313,445.3906 Q1415.5313,445.9688 1414.7344,446.2969 Q1413.6563,446.75 1412.3594,446.75 Q1410.8438,446.75 1409.6406,446.125 Q1408.6563,445.625 1407.9688,444.5625 Q1407.2813,443.4844 1407.2813,442.2031 L1407.2813,441.0469 Q1407.2813,439.7188 1407.8906,438.5781 Q1408.5156,437.4219 1409.6094,436.8125 Q1410.7031,436.1875 1411.9375,436.1875 Q1412.6719,436.1875 1413.3125,436.3594 Q1413.9688,436.5156 1414.5156,436.875 Z " fill="#000000"/><text fill="#000000" font-family="sans-serif" font-size="14" lengthAdjust="spacing" textLength="134" x="1432.25" y="445.8535">EvaluationRepository</text><line style="stroke:#181818;stroke-width:0.5;" x1="1307.5" x2="1658.5" y1="457" y2="457"/><line style="stroke:#181818;stroke-width:0.5;" x1="1307.5" x2="1658.5" y1="465" y2="465"/><ellipse cx="1317.5" cy="478.3203" fill="#84BE84" rx="3" ry="3" style="stroke:#038048;stroke-width:1.0;"/><text fill="#000000" font-family="sans-serif" font-size="14" lengthAdjust="spacing" textLength="327" x="1326.5" y="481.6738">findAllStudentsOfACourse(course: Course): Grade[]</text></g><!--class Grade--><g id="elem_Grade"><rect codeLine="59" fill="#F1F1F1" height="79.2813" id="Grade" rx="2.5" ry="2.5" style="stroke:#181818;stroke-width:0.5;" width="130" x="820" y="15"/><ellipse cx="861.1" cy="31" fill="#ADD1B2" rx="11" ry="11" style="stroke:#181818;stroke-width:1.0;"/><path d="M863.8656,26.875 Q864.0219,26.6563 864.2094,26.5469 Q864.3969,26.4375 864.6156,26.4375 Q864.9906,26.4375 865.225,26.7031 Q865.4594,26.9531 865.4594,27.5625 L865.4594,29.0156 Q865.4594,29.625 865.225,29.8906 Q864.9906,30.1563 864.6156,30.1563 Q864.2719,30.1563 864.0688,29.9531 Q863.8656,29.7656 863.7563,29.25 Q863.7094,28.8906 863.5219,28.7031 Q863.1938,28.3281 862.5844,28.1094 Q861.975,27.8906 861.35,27.8906 Q860.5844,27.8906 859.9438,28.2188 Q859.3188,28.5469 858.8188,29.2969 Q858.3344,30.0469 858.3344,31.0781 L858.3344,32.1719 Q858.3344,33.4063 859.225,34.2344 Q860.1156,35.0469 861.7094,35.0469 Q862.6469,35.0469 863.3031,34.7969 Q863.6938,34.6406 864.1156,34.2031 Q864.3813,33.9375 864.5219,33.8594 Q864.6781,33.7813 864.8813,33.7813 Q865.2094,33.7813 865.4594,34.0469 Q865.725,34.2969 865.725,34.6406 Q865.725,34.9844 865.3813,35.3906 Q864.8813,35.9688 864.0844,36.2969 Q863.0063,36.75 861.7094,36.75 Q860.1938,36.75 858.9906,36.125 Q858.0063,35.625 857.3188,34.5625 Q856.6313,33.4844 856.6313,32.2031 L856.6313,31.0469 Q856.6313,29.7188 857.2406,28.5781 Q857.8656,27.4219 858.9594,26.8125 Q860.0531,26.1875 861.2875,26.1875 Q862.0219,26.1875 862.6625,26.3594 Q863.3188,26.5156 863.8656,26.875 Z " fill="#000000"/><text fill="#000000" font-family="sans-serif" font-size="14" lengthAdjust="spacing" textLength="40" x="880.9" y="35.8535">Grade</text><line style="stroke:#181818;stroke-width:0.5;" x1="821" x2="949" y1="47" y2="47"/><ellipse cx="831" cy="60.3203" fill="none" rx="3" ry="3" style="stroke:#038048;stroke-width:1.0;"/><text fill="#000000" font-family="sans-serif" font-size="14" lengthAdjust="spacing" textLength="104" x="840" y="63.6738">student: Student</text><ellipse cx="831" cy="75.9609" fill="none" rx="3" ry="3" style="stroke:#038048;stroke-width:1.0;"/><text fill="#000000" font-family="sans-serif" font-size="14" lengthAdjust="spacing" textLength="57" x="840" y="79.3145">value: int</text><line style="stroke:#181818;stroke-width:0.5;" x1="821" x2="949" y1="86.2813" y2="86.2813"/></g><!--class Course--><g id="elem_Course"><rect codeLine="64" fill="#F1F1F1" height="79.2813" id="Course" rx="2.5" ry="2.5" style="stroke:#181818;stroke-width:0.5;" width="106" x="985" y="15"/><ellipse cx="1012.6" cy="31" fill="#ADD1B2" rx="11" ry="11" style="stroke:#181818;stroke-width:1.0;"/><path d="M1015.3656,26.875 Q1015.5219,26.6563 1015.7094,26.5469 Q1015.8969,26.4375 1016.1156,26.4375 Q1016.4906,26.4375 1016.725,26.7031 Q1016.9594,26.9531 1016.9594,27.5625 L1016.9594,29.0156 Q1016.9594,29.625 1016.725,29.8906 Q1016.4906,30.1563 1016.1156,30.1563 Q1015.7719,30.1563 1015.5688,29.9531 Q1015.3656,29.7656 1015.2563,29.25 Q1015.2094,28.8906 1015.0219,28.7031 Q1014.6938,28.3281 1014.0844,28.1094 Q1013.475,27.8906 1012.85,27.8906 Q1012.0844,27.8906 1011.4438,28.2188 Q1010.8188,28.5469 1010.3188,29.2969 Q1009.8344,30.0469 1009.8344,31.0781 L1009.8344,32.1719 Q1009.8344,33.4063 1010.725,34.2344 Q1011.6156,35.0469 1013.2094,35.0469 Q1014.1469,35.0469 1014.8031,34.7969 Q1015.1938,34.6406 1015.6156,34.2031 Q1015.8813,33.9375 1016.0219,33.8594 Q1016.1781,33.7813 1016.3813,33.7813 Q1016.7094,33.7813 1016.9594,34.0469 Q1017.225,34.2969 1017.225,34.6406 Q1017.225,34.9844 1016.8813,35.3906 Q1016.3813,35.9688 1015.5844,36.2969 Q1014.5063,36.75 1013.2094,36.75 Q1011.6938,36.75 1010.4906,36.125 Q1009.5063,35.625 1008.8188,34.5625 Q1008.1313,33.4844 1008.1313,32.2031 L1008.1313,31.0469 Q1008.1313,29.7188 1008.7406,28.5781 Q1009.3656,27.4219 1010.4594,26.8125 Q1011.5531,26.1875 1012.7875,26.1875 Q1013.5219,26.1875 1014.1625,26.3594 Q1014.8188,26.5156 1015.3656,26.875 Z " fill="#000000"/><text fill="#000000" font-family="sans-serif" font-size="14" lengthAdjust="spacing" textLength="46" x="1029.4" y="35.8535">Course</text><line style="stroke:#181818;stroke-width:0.5;" x1="986" x2="1090" y1="47" y2="47"/><ellipse cx="996" cy="60.3203" fill="none" rx="3" ry="3" style="stroke:#038048;stroke-width:1.0;"/><text fill="#000000" font-family="sans-serif" font-size="14" lengthAdjust="spacing" textLength="76" x="1005" y="63.6738">code: String</text><ellipse cx="996" cy="75.9609" fill="none" rx="3" ry="3" style="stroke:#038048;stroke-width:1.0;"/><text fill="#000000" font-family="sans-serif" font-size="14" lengthAdjust="spacing" textLength="80" x="1005" y="79.3145">name: String</text><line style="stroke:#181818;stroke-width:0.5;" x1="986" x2="1090" y1="86.2813" y2="86.2813"/></g><!--class Student--><g id="elem_Student"><rect codeLine="69" fill="#F1F1F1" height="79.2813" id="Student" rx="2.5" ry="2.5" style="stroke:#181818;stroke-width:0.5;" width="106" x="832" y="162"/><ellipse cx="858.25" cy="178" fill="#ADD1B2" rx="11" ry="11" style="stroke:#181818;stroke-width:1.0;"/><path d="M861.0156,173.875 Q861.1719,173.6563 861.3594,173.5469 Q861.5469,173.4375 861.7656,173.4375 Q862.1406,173.4375 862.375,173.7031 Q862.6094,173.9531 862.6094,174.5625 L862.6094,176.0156 Q862.6094,176.625 862.375,176.8906 Q862.1406,177.1563 861.7656,177.1563 Q861.4219,177.1563 861.2188,176.9531 Q861.0156,176.7656 860.9063,176.25 Q860.8594,175.8906 860.6719,175.7031 Q860.3438,175.3281 859.7344,175.1094 Q859.125,174.8906 858.5,174.8906 Q857.7344,174.8906 857.0938,175.2188 Q856.4688,175.5469 855.9688,176.2969 Q855.4844,177.0469 855.4844,178.0781 L855.4844,179.1719 Q855.4844,180.4063 856.375,181.2344 Q857.2656,182.0469 858.8594,182.0469 Q859.7969,182.0469 860.4531,181.7969 Q860.8438,181.6406 861.2656,181.2031 Q861.5313,180.9375 861.6719,180.8594 Q861.8281,180.7813 862.0313,180.7813 Q862.3594,180.7813 862.6094,181.0469 Q862.875,181.2969 862.875,181.6406 Q862.875,181.9844 862.5313,182.3906 Q862.0313,182.9688 861.2344,183.2969 Q860.1563,183.75 858.8594,183.75 Q857.3438,183.75 856.1406,183.125 Q855.1563,182.625 854.4688,181.5625 Q853.7813,180.4844 853.7813,179.2031 L853.7813,178.0469 Q853.7813,176.7188 854.3906,175.5781 Q855.0156,174.4219 856.1094,173.8125 Q857.2031,173.1875 858.4375,173.1875 Q859.1719,173.1875 859.8125,173.3594 Q860.4688,173.5156 861.0156,173.875 Z " fill="#000000"/><text fill="#000000" font-family="sans-serif" font-size="14" lengthAdjust="spacing" textLength="49" x="874.75" y="182.8535">Student</text><line style="stroke:#181818;stroke-width:0.5;" x1="833" x2="937" y1="194" y2="194"/><ellipse cx="843" cy="207.3203" fill="none" rx="3" ry="3" style="stroke:#038048;stroke-width:1.0;"/><text fill="#000000" font-family="sans-serif" font-size="14" lengthAdjust="spacing" textLength="34" x="852" y="210.6738">id: int</text><ellipse cx="843" cy="222.9609" fill="none" rx="3" ry="3" style="stroke:#038048;stroke-width:1.0;"/><text fill="#000000" font-family="sans-serif" font-size="14" lengthAdjust="spacing" textLength="80" x="852" y="226.3145">name: String</text><line style="stroke:#181818;stroke-width:0.5;" x1="833" x2="937" y1="233.2813" y2="233.2813"/></g><!--link Teacher to ListExamsGradesUI--><g id="link_Teacher_ListExamsGradesUI"><path codeLine="74" d="M1183,102.18 C1181.78,122.31 1182.05,145.49 1183.79,164.29 " fill="none" id="Teacher-to-ListExamsGradesUI" style="stroke:#181818;stroke-width:1.0;"/><polygon fill="#181818" points="1184.32,169.47,1187.3993,160.1149,1183.8197,164.4951,1179.4394,160.9155,1184.32,169.47" style="stroke:#181818;stroke-width:1.0;"/></g><!--link ListExamsGradesUI to Teacher--><g id="link_ListExamsGradesUI_Teacher"><path codeLine="88" d="M1206.31,169.47 C1208.46,151.41 1209.03,128.17 1208,107.4 " fill="none" id="ListExamsGradesUI-to-Teacher" style="stroke:#181818;stroke-width:1.0;"/><polygon fill="#181818" points="1207.71,102.18,1204.23,111.3935,1207.9952,107.1719,1212.2169,110.9371,1207.71,102.18" style="stroke:#181818;stroke-width:1.0;"/></g><!--link ListExamsGradesUI to ShowTeachingCoursesController--><g id="link_ListExamsGradesUI_ShowTeachingCoursesController"><path codeLine="75" d="M1117.95,223.96 C1044.06,244.54 931.5,275.88 846.62,299.52 " fill="none" id="ListExamsGradesUI-to-ShowTeachingCoursesController" style="stroke:#181818;stroke-width:1.0;"/><polygon fill="#181818" points="841.58,300.92,851.3238,302.3548,846.3962,299.5766,849.1744,294.649,841.58,300.92" style="stroke:#181818;stroke-width:1.0;"/></g><!--link ShowTeachingCoursesController to AuthorizationService--><g id="link_ShowTeachingCoursesController_AuthorizationService"><path codeLine="76" d="M609.76,362.37 C532.11,380.7 430.87,404.59 350.1,423.65 " fill="none" id="ShowTeachingCoursesController-to-AuthorizationService" style="stroke:#181818;stroke-width:1.0;"/><polygon fill="#181818" points="344.81,424.9,354.4869,426.7323,349.6771,423.7548,352.6546,418.945,344.81,424.9" style="stroke:#181818;stroke-width:1.0;"/></g><!--link AuthorizationService to UserSession--><g id="link_AuthorizationService_UserSession"><path codeLine="77" d="M183.17,489.1 C166.81,506.17 146.47,527.38 129.55,545.02 " fill="none" id="AuthorizationService-to-UserSession" style="stroke:#181818;stroke-width:1.0;"/><polygon fill="#181818" points="125.77,548.96,134.8816,545.2211,129.2261,545.3468,129.1004,539.6913,125.77,548.96" style="stroke:#181818;stroke-width:1.0;"/></g><!--link AuthorizationService to SystemUserAuth--><g id="link_AuthorizationService_SystemUserAuth"><path codeLine="78" d="M242.83,489.1 C259.19,506.17 279.53,527.38 296.45,545.02 " fill="none" id="AuthorizationService-to-SystemUserAuth" style="stroke:#181818;stroke-width:1.0;"/><polygon fill="#181818" points="300.23,548.96,296.8996,539.6913,296.7739,545.3468,291.1184,545.2211,300.23,548.96" style="stroke:#181818;stroke-width:1.0;"/></g><!--link ShowTeachingCoursesController to TeacherRepository--><g id="link_ShowTeachingCoursesController_TeacherRepository"><path codeLine="79" d="M682.84,365.1 C656.42,382.52 623.44,404.27 596.37,422.12 " fill="none" id="ShowTeachingCoursesController-to-TeacherRepository" style="stroke:#181818;stroke-width:1.0;"/><polygon fill="#181818" points="592.08,424.96,601.7976,423.3576,596.2578,422.213,597.4024,416.6731,592.08,424.96" style="stroke:#181818;stroke-width:1.0;"/></g><!--link ShowTeachingCoursesController to CourseManagementService--><g id="link_ShowTeachingCoursesController_CourseManagementService"><path codeLine="80" d="M759.83,365.1 C776.19,382.17 796.53,403.38 813.45,421.02 " fill="none" id="ShowTeachingCoursesController-to-CourseManagementService" style="stroke:#181818;stroke-width:1.0;"/><polygon fill="#181818" points="817.23,424.96,813.8996,415.6913,813.7739,421.3468,808.1184,421.2211,817.23,424.96" style="stroke:#181818;stroke-width:1.0;"/></g><!--link CourseManagementService to CourseRepository--><g id="link_CourseManagementService_CourseRepository"><path codeLine="81" d="M847,489.1 C847,505.74 847,526.31 847,543.68 " fill="none" id="CourseManagementService-to-CourseRepository" style="stroke:#181818;stroke-width:1.0;"/><polygon fill="#181818" points="847,548.96,851,539.96,847,543.96,843,539.96,847,548.96" style="stroke:#181818;stroke-width:1.0;"/></g><!--link ListExamsGradesUI to ExamManagementController--><g id="link_ListExamsGradesUI_ExamManagementController"><path codeLine="82" d="M1161.95,233.52 C1141.53,252.68 1115.28,277.31 1094.15,297.14 " fill="none" id="ListExamsGradesUI-to-ExamManagementController" style="stroke:#181818;stroke-width:1.0;"/><polygon fill="#181818" points="1090.26,300.79,1099.5553,297.5345,1093.901,297.3632,1094.0723,291.7089,1090.26,300.79" style="stroke:#181818;stroke-width:1.0;"/></g><!--link ExamManagementController to ExamManagementService--><g id="link_ExamManagementController_ExamManagementService"><path codeLine="83" d="M1066.94,365.1 C1072.31,381.88 1078.95,402.67 1084.53,420.13 " fill="none" id="ExamManagementController-to-ExamManagementService" style="stroke:#181818;stroke-width:1.0;"/><polygon fill="#181818" points="1086.08,424.96,1087.135,415.1678,1084.5504,420.1997,1079.5185,417.6151,1086.08,424.96" style="stroke:#181818;stroke-width:1.0;"/></g><!--link ExamManagementService to ExamRepository--><g id="link_ExamManagementService_ExamRepository"><path codeLine="84" d="M1096,489.1 C1096,505.74 1096,526.31 1096,543.68 " fill="none" id="ExamManagementService-to-ExamRepository" style="stroke:#181818;stroke-width:1.0;"/><polygon fill="#181818" points="1096,548.96,1100,539.96,1096,543.96,1092,539.96,1096,548.96" style="stroke:#181818;stroke-width:1.0;"/></g><!--link ListExamsGradesUI to ListExamsGradesPerCourseController--><g id="link_ListExamsGradesUI_ListExamsGradesPerCourseController"><path codeLine="85" d="M1228.05,233.52 C1248.47,252.68 1274.72,277.31 1295.85,297.14 " fill="none" id="ListExamsGradesUI-to-ListExamsGradesPerCourseController" style="stroke:#181818;stroke-width:1.0;"/><polygon fill="#181818" points="1299.74,300.79,1295.9277,291.7089,1296.099,297.3632,1290.4447,297.5345,1299.74,300.79" style="stroke:#181818;stroke-width:1.0;"/></g><!--link ListExamsGradesPerCourseController to EvaluationRepository--><g id="link_ListExamsGradesPerCourseController_EvaluationRepository"><path codeLine="86" d="M1371.24,365.1 C1392.48,382.38 1418.96,403.91 1440.81,421.68 " fill="none" id="ListExamsGradesPerCourseController-to-EvaluationRepository" style="stroke:#181818;stroke-width:1.0;"/><polygon fill="#181818" points="1444.83,424.96,1440.3673,416.1802,1440.9494,421.807,1435.3226,422.3891,1444.83,424.96" style="stroke:#181818;stroke-width:1.0;"/></g><!--link EvaluationRepository to ListExamsGradesUI--><g id="link_EvaluationRepository_ListExamsGradesUI"><path codeLine="87" d="M1493.98,424.84 C1503.76,391.04 1512.91,337.08 1487,301 C1439.71,235.14 1346.08,212.74 1277.54,205.42 " fill="none" id="EvaluationRepository-to-ListExamsGradesUI" style="stroke:#181818;stroke-width:1.0;"/><polygon fill="#181818" points="1272.24,204.88,1280.7821,209.7824,1277.2136,205.393,1281.6029,201.8246,1272.24,204.88" style="stroke:#181818;stroke-width:1.0;"/></g><!--SRC=[bLJBJiCm4BpxAt84eVv03qXfLG4Ig8ZG4-9WacrZAR6HxHG2uj_nsWb9OxijfoJhcTc7Tv9NLAda6MXUWao-IP9SGKrPDKyoBHdVOO3J6iRVEz0taXQWBYxdoLwmWlmGabkXUwRqwfFMoW4sTqwo45afFdmuHcrkexmKZLIWbe9hAQgghqRv45ydRNGf9FkYcWcUWTop7Bfck6eau3bmpNAgeTWeaBTKfRnTRtqfFCr0AIFa5EYKExUOKHEjqb1Z3DCuKcdrBmv6QLAz2L41vGEt6_mJl0l5j92jesyPBxgZHRj24K-gEnwat70UAASxg4t11sFu4poSedjzUPsgHEivHSUx7qgOtYNABDgbA03PY8qnlUAFqKBLnl2J1Nq4wPgObZevzlTajQTLO_Sjb3wjgamtXUb4hRTffv7RHpysesYJZCTd0ztUEphUk7t16AOqV6Q-9XVcEBbfEMhSOL-TeAEmmka5qFrFOJQxzdrDVASZxgYXoN6x8pzaP19qDw97Nes33krvHWsU9y_WHCn7OgOSEACquP76B4MYNlDPVJbXa_NuawMSDWyvmrysNS0z96Yf_snV_q_y1G00]--></g></svg>