<?xml version="1.0" encoding="us-ascii" standalone="no"?><svg xmlns="http://www.w3.org/2000/svg" xmlns:xlink="http://www.w3.org/1999/xlink" contentStyleType="text/css" height="518px" preserveAspectRatio="none" style="width:2296px;height:518px;background:#FFFFFF;" version="1.1" viewBox="0 0 2296 518" width="2296px" zoomAndPan="magnify"><defs/><g><line style="stroke:#181818;stroke-width:0.5;stroke-dasharray:5.0,5.0;" x1="38" x2="38" y1="35.6406" y2="483.4922"/><line style="stroke:#181818;stroke-width:0.5;stroke-dasharray:5.0,5.0;" x1="150" x2="150" y1="35.6406" y2="483.4922"/><line style="stroke:#181818;stroke-width:0.5;stroke-dasharray:5.0,5.0;" x1="339" x2="339" y1="35.6406" y2="483.4922"/><line style="stroke:#181818;stroke-width:0.5;stroke-dasharray:5.0,5.0;" x1="567.5" x2="567.5" y1="35.6406" y2="483.4922"/><line style="stroke:#181818;stroke-width:0.5;stroke-dasharray:5.0,5.0;" x1="696.5" x2="696.5" y1="35.6406" y2="483.4922"/><line style="stroke:#181818;stroke-width:0.5;stroke-dasharray:5.0,5.0;" x1="812.5" x2="812.5" y1="35.6406" y2="483.4922"/><line style="stroke:#181818;stroke-width:0.5;stroke-dasharray:5.0,5.0;" x1="948.5" x2="948.5" y1="35.6406" y2="483.4922"/><line style="stroke:#181818;stroke-width:0.5;stroke-dasharray:5.0,5.0;" x1="1120.5" x2="1120.5" y1="35.6406" y2="483.4922"/><line style="stroke:#181818;stroke-width:0.5;stroke-dasharray:5.0,5.0;" x1="1289.5" x2="1289.5" y1="35.6406" y2="483.4922"/><line style="stroke:#181818;stroke-width:0.5;stroke-dasharray:5.0,5.0;" x1="1459.5" x2="1459.5" y1="35.6406" y2="483.4922"/><line style="stroke:#181818;stroke-width:0.5;stroke-dasharray:5.0,5.0;" x1="1653.5" x2="1653.5" y1="35.6406" y2="483.4922"/><line style="stroke:#181818;stroke-width:0.5;stroke-dasharray:5.0,5.0;" x1="1810.5" x2="1810.5" y1="35.6406" y2="483.4922"/><line style="stroke:#181818;stroke-width:0.5;stroke-dasharray:5.0,5.0;" x1="2005.5" x2="2005.5" y1="35.6406" y2="483.4922"/><line style="stroke:#181818;stroke-width:0.5;stroke-dasharray:5.0,5.0;" x1="2216.5" x2="2216.5" y1="35.6406" y2="483.4922"/><rect fill="#E2E2F0" height="29.6406" rx="2.5" ry="2.5" style="stroke:#181818;stroke-width:0.5;" width="67" x="5" y="5"/><text fill="#000000" font-family="sans-serif" font-size="14" lengthAdjust="spacing" textLength="53" x="12" y="24.6738">Teacher</text><rect fill="#E2E2F0" height="29.6406" rx="2.5" ry="2.5" style="stroke:#181818;stroke-width:0.5;" width="67" x="5" y="482.4922"/><text fill="#000000" font-family="sans-serif" font-size="14" lengthAdjust="spacing" textLength="53" x="12" y="502.166">Teacher</text><rect fill="#E2E2F0" height="29.6406" rx="2.5" ry="2.5" style="stroke:#181818;stroke-width:0.5;" width="136" x="82" y="5"/><text fill="#000000" font-family="sans-serif" font-size="14" lengthAdjust="spacing" textLength="122" x="89" y="24.6738">ListExamsGradesUI</text><rect fill="#E2E2F0" height="29.6406" rx="2.5" ry="2.5" style="stroke:#181818;stroke-width:0.5;" width="136" x="82" y="482.4922"/><text fill="#000000" font-family="sans-serif" font-size="14" lengthAdjust="spacing" textLength="122" x="89" y="502.166">ListExamsGradesUI</text><rect fill="#E2E2F0" height="29.6406" rx="2.5" ry="2.5" style="stroke:#181818;stroke-width:0.5;" width="222" x="228" y="5"/><text fill="#000000" font-family="sans-serif" font-size="14" lengthAdjust="spacing" textLength="208" x="235" y="24.6738">ShowTeachingCoursesController</text><rect fill="#E2E2F0" height="29.6406" rx="2.5" ry="2.5" style="stroke:#181818;stroke-width:0.5;" width="222" x="228" y="482.4922"/><text fill="#000000" font-family="sans-serif" font-size="14" lengthAdjust="spacing" textLength="208" x="235" y="502.166">ShowTeachingCoursesController</text><rect fill="#E2E2F0" height="29.6406" rx="2.5" ry="2.5" style="stroke:#181818;stroke-width:0.5;" width="143" x="496.5" y="5"/><text fill="#000000" font-family="sans-serif" font-size="14" lengthAdjust="spacing" textLength="129" x="503.5" y="24.6738">AuthorizationService</text><rect fill="#E2E2F0" height="29.6406" rx="2.5" ry="2.5" style="stroke:#181818;stroke-width:0.5;" width="143" x="496.5" y="482.4922"/><text fill="#000000" font-family="sans-serif" font-size="14" lengthAdjust="spacing" textLength="129" x="503.5" y="502.166">AuthorizationService</text><rect fill="#E2E2F0" height="29.6406" rx="2.5" ry="2.5" style="stroke:#181818;stroke-width:0.5;" width="93" x="650.5" y="5"/><text fill="#000000" font-family="sans-serif" font-size="14" lengthAdjust="spacing" textLength="79" x="657.5" y="24.6738">UserSession</text><rect fill="#E2E2F0" height="29.6406" rx="2.5" ry="2.5" style="stroke:#181818;stroke-width:0.5;" width="93" x="650.5" y="482.4922"/><text fill="#000000" font-family="sans-serif" font-size="14" lengthAdjust="spacing" textLength="79" x="657.5" y="502.166">UserSession</text><rect fill="#E2E2F0" height="29.6406" rx="2.5" ry="2.5" style="stroke:#181818;stroke-width:0.5;" width="118" x="753.5" y="5"/><text fill="#000000" font-family="sans-serif" font-size="14" lengthAdjust="spacing" textLength="104" x="760.5" y="24.6738">SystemUserAuth</text><rect fill="#E2E2F0" height="29.6406" rx="2.5" ry="2.5" style="stroke:#181818;stroke-width:0.5;" width="118" x="753.5" y="482.4922"/><text fill="#000000" font-family="sans-serif" font-size="14" lengthAdjust="spacing" textLength="104" x="760.5" y="502.166">SystemUserAuth</text><rect fill="#E2E2F0" height="29.6406" rx="2.5" ry="2.5" style="stroke:#181818;stroke-width:0.5;" width="135" x="881.5" y="5"/><text fill="#000000" font-family="sans-serif" font-size="14" lengthAdjust="spacing" textLength="121" x="888.5" y="24.6738">TeacherRepository</text><rect fill="#E2E2F0" height="29.6406" rx="2.5" ry="2.5" style="stroke:#181818;stroke-width:0.5;" width="135" x="881.5" y="482.4922"/><text fill="#000000" font-family="sans-serif" font-size="14" lengthAdjust="spacing" textLength="121" x="888.5" y="502.166">TeacherRepository</text><rect fill="#E2E2F0" height="29.6406" rx="2.5" ry="2.5" style="stroke:#181818;stroke-width:0.5;" width="189" x="1026.5" y="5"/><text fill="#000000" font-family="sans-serif" font-size="14" lengthAdjust="spacing" textLength="175" x="1033.5" y="24.6738">CourseManagementService</text><rect fill="#E2E2F0" height="29.6406" rx="2.5" ry="2.5" style="stroke:#181818;stroke-width:0.5;" width="189" x="1026.5" y="482.4922"/><text fill="#000000" font-family="sans-serif" font-size="14" lengthAdjust="spacing" textLength="175" x="1033.5" y="502.166">CourseManagementService</text><rect fill="#E2E2F0" height="29.6406" rx="2.5" ry="2.5" style="stroke:#181818;stroke-width:0.5;" width="128" x="1225.5" y="5"/><text fill="#000000" font-family="sans-serif" font-size="14" lengthAdjust="spacing" textLength="114" x="1232.5" y="24.6738">CourseRepository</text><rect fill="#E2E2F0" height="29.6406" rx="2.5" ry="2.5" style="stroke:#181818;stroke-width:0.5;" width="128" x="1225.5" y="482.4922"/><text fill="#000000" font-family="sans-serif" font-size="14" lengthAdjust="spacing" textLength="114" x="1232.5" y="502.166">CourseRepository</text><rect fill="#E2E2F0" height="29.6406" rx="2.5" ry="2.5" style="stroke:#181818;stroke-width:0.5;" width="192" x="1363.5" y="5"/><text fill="#000000" font-family="sans-serif" font-size="14" lengthAdjust="spacing" textLength="178" x="1370.5" y="24.6738">ExamManagementController</text><rect fill="#E2E2F0" height="29.6406" rx="2.5" ry="2.5" style="stroke:#181818;stroke-width:0.5;" width="192" x="1363.5" y="482.4922"/><text fill="#000000" font-family="sans-serif" font-size="14" lengthAdjust="spacing" textLength="178" x="1370.5" y="502.166">ExamManagementController</text><rect fill="#E2E2F0" height="29.6406" rx="2.5" ry="2.5" style="stroke:#181818;stroke-width:0.5;" width="177" x="1565.5" y="5"/><text fill="#000000" font-family="sans-serif" font-size="14" lengthAdjust="spacing" textLength="163" x="1572.5" y="24.6738">ExamManagementService</text><rect fill="#E2E2F0" height="29.6406" rx="2.5" ry="2.5" style="stroke:#181818;stroke-width:0.5;" width="177" x="1565.5" y="482.4922"/><text fill="#000000" font-family="sans-serif" font-size="14" lengthAdjust="spacing" textLength="163" x="1572.5" y="502.166">ExamManagementService</text><rect fill="#E2E2F0" height="29.6406" rx="2.5" ry="2.5" style="stroke:#181818;stroke-width:0.5;" width="116" x="1752.5" y="5"/><text fill="#000000" font-family="sans-serif" font-size="14" lengthAdjust="spacing" textLength="102" x="1759.5" y="24.6738">ExamRepository</text><rect fill="#E2E2F0" height="29.6406" rx="2.5" ry="2.5" style="stroke:#181818;stroke-width:0.5;" width="116" x="1752.5" y="482.4922"/><text fill="#000000" font-family="sans-serif" font-size="14" lengthAdjust="spacing" textLength="102" x="1759.5" y="502.166">ExamRepository</text><rect fill="#E2E2F0" height="29.6406" rx="2.5" ry="2.5" style="stroke:#181818;stroke-width:0.5;" width="254" x="1878.5" y="5"/><text fill="#000000" font-family="sans-serif" font-size="14" lengthAdjust="spacing" textLength="240" x="1885.5" y="24.6738">ListExamsGradesPerCourseController</text><rect fill="#E2E2F0" height="29.6406" rx="2.5" ry="2.5" style="stroke:#181818;stroke-width:0.5;" width="254" x="1878.5" y="482.4922"/><text fill="#000000" font-family="sans-serif" font-size="14" lengthAdjust="spacing" textLength="240" x="1885.5" y="502.166">ListExamsGradesPerCourseController</text><rect fill="#E2E2F0" height="29.6406" rx="2.5" ry="2.5" style="stroke:#181818;stroke-width:0.5;" width="148" x="2142.5" y="5"/><text fill="#000000" font-family="sans-serif" font-size="14" lengthAdjust="spacing" textLength="134" x="2149.5" y="24.6738">EvaluationRepository</text><rect fill="#E2E2F0" height="29.6406" rx="2.5" ry="2.5" style="stroke:#181818;stroke-width:0.5;" width="148" x="2142.5" y="482.4922"/><text fill="#000000" font-family="sans-serif" font-size="14" lengthAdjust="spacing" textLength="134" x="2149.5" y="502.166">EvaluationRepository</text><polygon fill="#181818" points="138,62.1641,148,66.1641,138,70.1641,142,66.1641" style="stroke:#181818;stroke-width:1.0;"/><line style="stroke:#181818;stroke-width:1.0;" x1="38.5" x2="144" y1="66.1641" y2="66.1641"/><text fill="#000000" font-family="sans-serif" font-size="13" lengthAdjust="spacing" textLength="46" x="45.5" y="61.4092">doShow</text><polygon fill="#181818" points="327,90.6875,337,94.6875,327,98.6875,331,94.6875" style="stroke:#181818;stroke-width:1.0;"/><line style="stroke:#181818;stroke-width:1.0;" x1="150" x2="333" y1="94.6875" y2="94.6875"/><text fill="#000000" font-family="sans-serif" font-size="13" lengthAdjust="spacing" textLength="130" x="157" y="89.9326">showTeachingCourses</text><polygon fill="#181818" points="556,119.2109,566,123.2109,556,127.2109,560,123.2109" style="stroke:#181818;stroke-width:1.0;"/><line style="stroke:#181818;stroke-width:1.0;" x1="339" x2="562" y1="123.2109" y2="123.2109"/><text fill="#000000" font-family="sans-serif" font-size="13" lengthAdjust="spacing" textLength="205" x="346" y="118.4561">ensureAuthenticatedUserHasAnyOf</text><polygon fill="#181818" points="685,147.7344,695,151.7344,685,155.7344,689,151.7344" style="stroke:#181818;stroke-width:1.0;"/><line style="stroke:#181818;stroke-width:1.0;" x1="568" x2="691" y1="151.7344" y2="151.7344"/><text fill="#000000" font-family="sans-serif" font-size="13" lengthAdjust="spacing" textLength="105" x="575" y="146.9795">authenticatedUser</text><polygon fill="#181818" points="800.5,176.2578,810.5,180.2578,800.5,184.2578,804.5,180.2578" style="stroke:#181818;stroke-width:1.0;"/><line style="stroke:#181818;stroke-width:1.0;" x1="568" x2="806.5" y1="180.2578" y2="180.2578"/><text fill="#000000" font-family="sans-serif" font-size="13" lengthAdjust="spacing" textLength="83" x="575" y="175.5029">hasAny(email)</text><polygon fill="#181818" points="937,204.7813,947,208.7813,937,212.7813,941,208.7813" style="stroke:#181818;stroke-width:1.0;"/><line style="stroke:#181818;stroke-width:1.0;" x1="339" x2="943" y1="208.7813" y2="208.7813"/><text fill="#000000" font-family="sans-serif" font-size="13" lengthAdjust="spacing" textLength="115" x="346" y="204.0264">findTeacherByEmail</text><polygon fill="#181818" points="1109,233.3047,1119,237.3047,1109,241.3047,1113,237.3047" style="stroke:#181818;stroke-width:1.0;"/><line style="stroke:#181818;stroke-width:1.0;" x1="339" x2="1115" y1="237.3047" y2="237.3047"/><text fill="#000000" font-family="sans-serif" font-size="13" lengthAdjust="spacing" textLength="120" x="346" y="232.5498">findTeachingCourses</text><polygon fill="#181818" points="1277.5,261.8281,1287.5,265.8281,1277.5,269.8281,1281.5,265.8281" style="stroke:#181818;stroke-width:1.0;"/><line style="stroke:#181818;stroke-width:1.0;" x1="1121" x2="1283.5" y1="265.8281" y2="265.8281"/><text fill="#000000" font-family="sans-serif" font-size="13" lengthAdjust="spacing" textLength="120" x="1128" y="261.0732">findTeachingCourses</text><polygon fill="#181818" points="1447.5,290.3516,1457.5,294.3516,1447.5,298.3516,1451.5,294.3516" style="stroke:#181818;stroke-width:1.0;"/><line style="stroke:#181818;stroke-width:1.0;" x1="150" x2="1453.5" y1="294.3516" y2="294.3516"/><text fill="#000000" font-family="sans-serif" font-size="13" lengthAdjust="spacing" textLength="66" x="157" y="289.5967">findByCode</text><polygon fill="#181818" points="1642,318.875,1652,322.875,1642,326.875,1646,322.875" style="stroke:#181818;stroke-width:1.0;"/><line style="stroke:#181818;stroke-width:1.0;" x1="1459.5" x2="1648" y1="322.875" y2="322.875"/><text fill="#000000" font-family="sans-serif" font-size="13" lengthAdjust="spacing" textLength="66" x="1466.5" y="318.1201">findByCode</text><polygon fill="#181818" points="1798.5,347.3984,1808.5,351.3984,1798.5,355.3984,1802.5,351.3984" style="stroke:#181818;stroke-width:1.0;"/><line style="stroke:#181818;stroke-width:1.0;" x1="1654" x2="1804.5" y1="351.3984" y2="351.3984"/><text fill="#000000" font-family="sans-serif" font-size="13" lengthAdjust="spacing" textLength="66" x="1661" y="346.6436">findByCode</text><polygon fill="#181818" points="1993.5,375.9219,2003.5,379.9219,1993.5,383.9219,1997.5,379.9219" style="stroke:#181818;stroke-width:1.0;"/><line style="stroke:#181818;stroke-width:1.0;" x1="150" x2="1999.5" y1="379.9219" y2="379.9219"/><text fill="#000000" font-family="sans-serif" font-size="13" lengthAdjust="spacing" textLength="103" x="157" y="375.167">GradesPerCourse</text><polygon fill="#181818" points="2204.5,404.4453,2214.5,408.4453,2204.5,412.4453,2208.5,408.4453" style="stroke:#181818;stroke-width:1.0;"/><line style="stroke:#181818;stroke-width:1.0;" x1="2005.5" x2="2210.5" y1="408.4453" y2="408.4453"/><text fill="#000000" font-family="sans-serif" font-size="13" lengthAdjust="spacing" textLength="150" x="2012.5" y="403.6904">findAllStudentsOfACourse</text><polygon fill="#181818" points="161,432.9688,151,436.9688,161,440.9688,157,436.9688" style="stroke:#181818;stroke-width:1.0;"/><line style="stroke:#181818;stroke-width:1.0;" x1="155" x2="2215.5" y1="436.9688" y2="436.9688"/><text fill="#000000" font-family="sans-serif" font-size="13" lengthAdjust="spacing" textLength="211" x="167" y="432.2139">Return Grades of Teacher&#180;s Courses</text><polygon fill="#181818" points="49.5,461.4922,39.5,465.4922,49.5,469.4922,45.5,465.4922" style="stroke:#181818;stroke-width:1.0;"/><line style="stroke:#181818;stroke-width:1.0;" x1="43.5" x2="149" y1="465.4922" y2="465.4922"/><text fill="#000000" font-family="sans-serif" font-size="13" lengthAdjust="spacing" textLength="71" x="55.5" y="460.7373">See Results</text><!--SRC=[ZPDDJiCm48NtEOMNiE02MI2bKGL8eA8wFO0LJnfBZeqyTY6SYnDmCkmcjFbnscvdtlloPiOfW9Kr6FBmI5u5slKNQ_39C0wuUo4fuPhM-ZEPjxm-T8fW5sgVQsSGCDVA6Ysb1wO4v_taiiT3CsThRSGtiq8h2kOWIl0iKEWCX2OeAqfcWUyGp3F3JBMRAedQF2w8A23wggUmgN_HHrkqq0H9K7XhVVpI7JHCoFlhOnJTMhVmeL5ORLgFg8JYVNtLhWFeEgShlZ75zj3uwEUDd6Y3xIwfJw1udW4XUkXGE4D7DmwCLPjh3icYQaOO3n6r3vA7nYntRuh6dHJVmNJJZO9FUiaDff3bmAGxlfLPeanAQXttsN5JPJqrgb_urRPWdL5zCAAh_pVq-uFaudbwNKeeWAUWanR_0000]--></g></svg>