<?xml version="1.0" encoding="us-ascii" standalone="no"?><svg xmlns="http://www.w3.org/2000/svg" xmlns:xlink="http://www.w3.org/1999/xlink" contentStyleType="text/css" height="1176px" preserveAspectRatio="none" style="width:1102px;height:1176px;background:#FFFFFF;" version="1.1" viewBox="0 0 1102 1176" width="1102px" zoomAndPan="magnify"><defs/><g><rect fill="none" height="485.0938" style="stroke:#000000;stroke-width:1.5;" width="1085" x="10" y="552.5625"/><line style="stroke:#181818;stroke-width:0.5;stroke-dasharray:5.0,5.0;" x1="51" x2="51" y1="82.2813" y2="1083.1797"/><line style="stroke:#181818;stroke-width:0.5;stroke-dasharray:5.0,5.0;" x1="373" x2="373" y1="82.2813" y2="1083.1797"/><line style="stroke:#181818;stroke-width:0.5;stroke-dasharray:5.0,5.0;" x1="580" x2="580" y1="82.2813" y2="1083.1797"/><line style="stroke:#181818;stroke-width:0.5;stroke-dasharray:5.0,5.0;" x1="787" x2="787" y1="82.2813" y2="1083.1797"/><line style="stroke:#181818;stroke-width:0.5;stroke-dasharray:5.0,5.0;" x1="927" x2="927" y1="82.2813" y2="1083.1797"/><line style="stroke:#181818;stroke-width:0.5;stroke-dasharray:5.0,5.0;" x1="1033" x2="1033" y1="82.2813" y2="1083.1797"/><text fill="#000000" font-family="sans-serif" font-size="14" lengthAdjust="spacing" textLength="56" x="20" y="79.3145">Manager</text><ellipse cx="51" cy="15.1406" fill="#E2E2F0" rx="8" ry="8" style="stroke:#181818;stroke-width:0.5;"/><path d="M51,23.1406 L51,50.1406 M38,31.1406 L64,31.1406 M51,50.1406 L38,65.1406 M51,50.1406 L64,65.1406 " fill="none" style="stroke:#181818;stroke-width:0.5;"/><text fill="#000000" font-family="sans-serif" font-size="14" lengthAdjust="spacing" textLength="56" x="20" y="1094.8535">Manager</text><ellipse cx="51" cy="1106.3203" fill="#E2E2F0" rx="8" ry="8" style="stroke:#181818;stroke-width:0.5;"/><path d="M51,1114.3203 L51,1141.3203 M38,1122.3203 L64,1122.3203 M51,1141.3203 L38,1156.3203 M51,1141.3203 L64,1156.3203 " fill="none" style="stroke:#181818;stroke-width:0.5;"/><rect fill="#E2E2F0" height="45.2813" rx="2.5" ry="2.5" style="stroke:#181818;stroke-width:0.5;" width="172" x="287" y="36"/><text fill="#000000" font-family="sans-serif" font-size="14" font-style="italic" lengthAdjust="spacing" textLength="95" x="325.5" y="55.6738">&#171;presentation&#187;</text><text fill="#000000" font-family="sans-serif" font-size="14" lengthAdjust="spacing" textLength="158" x="294" y="71.3145">DeactivateActivateUserUI</text><rect fill="#E2E2F0" height="45.2813" rx="2.5" ry="2.5" style="stroke:#181818;stroke-width:0.5;" width="172" x="287" y="1082.1797"/><text fill="#000000" font-family="sans-serif" font-size="14" font-style="italic" lengthAdjust="spacing" textLength="95" x="325.5" y="1101.8535">&#171;presentation&#187;</text><text fill="#000000" font-family="sans-serif" font-size="14" lengthAdjust="spacing" textLength="158" x="294" y="1117.4941">DeactivateActivateUserUI</text><rect fill="#E2E2F0" height="45.2813" rx="2.5" ry="2.5" style="stroke:#181818;stroke-width:0.5;" width="222" x="469" y="36"/><text fill="#000000" font-family="sans-serif" font-size="14" font-style="italic" lengthAdjust="spacing" textLength="84" x="538" y="55.6738">&#171;application&#187;</text><text fill="#000000" font-family="sans-serif" font-size="14" lengthAdjust="spacing" textLength="208" x="476" y="71.3145">DeactivateActivateUserController</text><rect fill="#E2E2F0" height="45.2813" rx="2.5" ry="2.5" style="stroke:#181818;stroke-width:0.5;" width="222" x="469" y="1082.1797"/><text fill="#000000" font-family="sans-serif" font-size="14" font-style="italic" lengthAdjust="spacing" textLength="84" x="538" y="1101.8535">&#171;application&#187;</text><text fill="#000000" font-family="sans-serif" font-size="14" lengthAdjust="spacing" textLength="208" x="476" y="1117.4941">DeactivateActivateUserController</text><rect fill="#E2E2F0" height="45.2813" rx="2.5" ry="2.5" style="stroke:#181818;stroke-width:0.5;" width="172" x="701" y="36"/><text fill="#000000" font-family="sans-serif" font-size="14" font-style="italic" lengthAdjust="spacing" textLength="84" x="745" y="55.6738">&#171;application&#187;</text><text fill="#000000" font-family="sans-serif" font-size="14" lengthAdjust="spacing" textLength="158" x="708" y="71.3145">UserManagementService</text><rect fill="#E2E2F0" height="45.2813" rx="2.5" ry="2.5" style="stroke:#181818;stroke-width:0.5;" width="172" x="701" y="1082.1797"/><text fill="#000000" font-family="sans-serif" font-size="14" font-style="italic" lengthAdjust="spacing" textLength="84" x="745" y="1101.8535">&#171;application&#187;</text><text fill="#000000" font-family="sans-serif" font-size="14" lengthAdjust="spacing" textLength="158" x="708" y="1117.4941">UserManagementService</text><rect fill="#E2E2F0" height="45.2813" rx="2.5" ry="2.5" style="stroke:#181818;stroke-width:0.5;" width="89" x="883" y="36"/><text fill="#000000" font-family="sans-serif" font-size="14" font-style="italic" lengthAdjust="spacing" textLength="62" x="896.5" y="55.6738">&#171;domain&#187;</text><text fill="#000000" font-family="sans-serif" font-size="14" lengthAdjust="spacing" textLength="75" x="890" y="71.3145">SystemUser</text><rect fill="#E2E2F0" height="45.2813" rx="2.5" ry="2.5" style="stroke:#181818;stroke-width:0.5;" width="89" x="883" y="1082.1797"/><text fill="#000000" font-family="sans-serif" font-size="14" font-style="italic" lengthAdjust="spacing" textLength="62" x="896.5" y="1101.8535">&#171;domain&#187;</text><text fill="#000000" font-family="sans-serif" font-size="14" lengthAdjust="spacing" textLength="75" x="890" y="1117.4941">SystemUser</text><text fill="#000000" font-family="sans-serif" font-size="14" font-style="italic" lengthAdjust="spacing" textLength="79" x="991" y="63.6738">&#171;repository&#187;</text><text fill="#000000" font-family="sans-serif" font-size="14" lengthAdjust="spacing" textLength="97" x="982" y="79.3145">UserRepository</text><path d="M1015.5,15 C1015.5,5 1033.5,5 1033.5,5 C1033.5,5 1051.5,5 1051.5,15 L1051.5,41 C1051.5,51 1033.5,51 1033.5,51 C1033.5,51 1015.5,51 1015.5,41 L1015.5,15 " fill="#E2E2F0" style="stroke:#181818;stroke-width:1.5;"/><path d="M1015.5,15 C1015.5,25 1033.5,25 1033.5,25 C1033.5,25 1051.5,25 1051.5,15 " fill="none" style="stroke:#181818;stroke-width:1.5;"/><text fill="#000000" font-family="sans-serif" font-size="14" font-style="italic" lengthAdjust="spacing" textLength="79" x="991" y="1094.8535">&#171;repository&#187;</text><text fill="#000000" font-family="sans-serif" font-size="14" lengthAdjust="spacing" textLength="97" x="982" y="1110.4941">UserRepository</text><path d="M1015.5,1123.4609 C1015.5,1113.4609 1033.5,1113.4609 1033.5,1113.4609 C1033.5,1113.4609 1051.5,1113.4609 1051.5,1123.4609 L1051.5,1149.4609 C1051.5,1159.4609 1033.5,1159.4609 1033.5,1159.4609 C1033.5,1159.4609 1015.5,1159.4609 1015.5,1149.4609 L1015.5,1123.4609 " fill="#E2E2F0" style="stroke:#181818;stroke-width:1.5;"/><path d="M1015.5,1123.4609 C1015.5,1133.4609 1033.5,1133.4609 1033.5,1133.4609 C1033.5,1133.4609 1051.5,1133.4609 1051.5,1123.4609 " fill="none" style="stroke:#181818;stroke-width:1.5;"/><polygon fill="#181818" points="361,94.2813,371,98.2813,361,102.2813,365,98.2813" style="stroke:#181818;stroke-width:1.0;"/><line style="stroke:#181818;stroke-width:1.0;" x1="51" x2="367" y1="98.2813" y2="98.2813"/><polygon fill="#181818" points="568,122.8047,578,126.8047,568,130.8047,572,126.8047" style="stroke:#181818;stroke-width:1.0;"/><line style="stroke:#181818;stroke-width:1.0;" x1="373" x2="574" y1="126.8047" y2="126.8047"/><text fill="#000000" font-family="sans-serif" font-size="13" lengthAdjust="spacing" textLength="44" x="380" y="122.0498">create()</text><line style="stroke:#181818;stroke-width:1.0;" x1="373" x2="415" y1="155.3281" y2="155.3281"/><line style="stroke:#181818;stroke-width:1.0;" x1="415" x2="415" y1="155.3281" y2="168.3281"/><line style="stroke:#181818;stroke-width:1.0;" x1="374" x2="415" y1="168.3281" y2="168.3281"/><polygon fill="#181818" points="384,164.3281,374,168.3281,384,172.3281,380,168.3281" style="stroke:#181818;stroke-width:1.0;"/><text fill="#000000" font-family="sans-serif" font-size="13" lengthAdjust="spacing" textLength="54" x="380" y="150.5732">doShow()</text><polygon fill="#181818" points="568,192.8516,578,196.8516,568,200.8516,572,196.8516" style="stroke:#181818;stroke-width:1.0;"/><line style="stroke:#181818;stroke-width:1.0;" x1="373" x2="574" y1="196.8516" y2="196.8516"/><text fill="#000000" font-family="sans-serif" font-size="13" lengthAdjust="spacing" textLength="75" x="380" y="192.0967">activeUsers()</text><polygon fill="#181818" points="775,221.375,785,225.375,775,229.375,779,225.375" style="stroke:#181818;stroke-width:1.0;"/><line style="stroke:#181818;stroke-width:1.0;" x1="580" x2="781" y1="225.375" y2="225.375"/><text fill="#000000" font-family="sans-serif" font-size="13" lengthAdjust="spacing" textLength="44" x="587" y="220.6201">create()</text><polygon fill="#181818" points="775,249.8984,785,253.8984,775,257.8984,779,253.8984" style="stroke:#181818;stroke-width:1.0;"/><line style="stroke:#181818;stroke-width:1.0;" x1="580" x2="781" y1="253.8984" y2="253.8984"/><text fill="#000000" font-family="sans-serif" font-size="13" lengthAdjust="spacing" textLength="75" x="587" y="249.1436">activeUsers()</text><polygon fill="#181818" points="1021.5,278.4219,1031.5,282.4219,1021.5,286.4219,1025.5,282.4219" style="stroke:#181818;stroke-width:1.0;"/><line style="stroke:#181818;stroke-width:1.0;" x1="787" x2="1027.5" y1="282.4219" y2="282.4219"/><text fill="#000000" font-family="sans-serif" font-size="13" lengthAdjust="spacing" textLength="44" x="794" y="277.667">create()</text><polygon fill="#181818" points="1021.5,306.9453,1031.5,310.9453,1021.5,314.9453,1025.5,310.9453" style="stroke:#181818;stroke-width:1.0;"/><line style="stroke:#181818;stroke-width:1.0;" x1="787" x2="1027.5" y1="310.9453" y2="310.9453"/><text fill="#000000" font-family="sans-serif" font-size="13" lengthAdjust="spacing" textLength="101" x="794" y="306.1904">findByActive(true)</text><polygon fill="#181818" points="798,320.9453,788,324.9453,798,328.9453,794,324.9453" style="stroke:#181818;stroke-width:1.0;"/><line style="stroke:#181818;stroke-width:1.0;" x1="792" x2="1032.5" y1="324.9453" y2="324.9453"/><polygon fill="#181818" points="591,334.9453,581,338.9453,591,342.9453,587,338.9453" style="stroke:#181818;stroke-width:1.0;"/><line style="stroke:#181818;stroke-width:1.0;" x1="585" x2="786" y1="338.9453" y2="338.9453"/><polygon fill="#181818" points="384,348.9453,374,352.9453,384,356.9453,380,352.9453" style="stroke:#181818;stroke-width:1.0;"/><line style="stroke:#181818;stroke-width:1.0;" x1="378" x2="579" y1="352.9453" y2="352.9453"/><polygon fill="#181818" points="568,377.4688,578,381.4688,568,385.4688,572,381.4688" style="stroke:#181818;stroke-width:1.0;"/><line style="stroke:#181818;stroke-width:1.0;" x1="373" x2="574" y1="381.4688" y2="381.4688"/><text fill="#000000" font-family="sans-serif" font-size="13" lengthAdjust="spacing" textLength="100" x="380" y="376.7139">deactivateUsers()</text><polygon fill="#181818" points="775,405.9922,785,409.9922,775,413.9922,779,409.9922" style="stroke:#181818;stroke-width:1.0;"/><line style="stroke:#181818;stroke-width:1.0;" x1="580" x2="781" y1="409.9922" y2="409.9922"/><text fill="#000000" font-family="sans-serif" font-size="13" lengthAdjust="spacing" textLength="107" x="587" y="405.2373">deactivatedUsers()</text><polygon fill="#181818" points="1021.5,434.5156,1031.5,438.5156,1021.5,442.5156,1025.5,438.5156" style="stroke:#181818;stroke-width:1.0;"/><line style="stroke:#181818;stroke-width:1.0;" x1="787" x2="1027.5" y1="438.5156" y2="438.5156"/><text fill="#000000" font-family="sans-serif" font-size="13" lengthAdjust="spacing" textLength="106" x="794" y="433.7607">findByActive(false)</text><polygon fill="#181818" points="798,448.5156,788,452.5156,798,456.5156,794,452.5156" style="stroke:#181818;stroke-width:1.0;"/><line style="stroke:#181818;stroke-width:1.0;" x1="792" x2="1032.5" y1="452.5156" y2="452.5156"/><polygon fill="#181818" points="591,462.5156,581,466.5156,591,470.5156,587,466.5156" style="stroke:#181818;stroke-width:1.0;"/><line style="stroke:#181818;stroke-width:1.0;" x1="585" x2="786" y1="466.5156" y2="466.5156"/><polygon fill="#181818" points="384,476.5156,374,480.5156,384,484.5156,380,480.5156" style="stroke:#181818;stroke-width:1.0;"/><line style="stroke:#181818;stroke-width:1.0;" x1="378" x2="579" y1="480.5156" y2="480.5156"/><polygon fill="#181818" points="62,505.0391,52,509.0391,62,513.0391,58,509.0391" style="stroke:#181818;stroke-width:1.0;"/><line style="stroke:#181818;stroke-width:1.0;stroke-dasharray:2.0,2.0;" x1="56" x2="372" y1="509.0391" y2="509.0391"/><text fill="#000000" font-family="sans-serif" font-size="13" lengthAdjust="spacing" textLength="298" x="68" y="504.2842">ask user to select the action (activate or deactivate)</text><polygon fill="#181818" points="361,533.5625,371,537.5625,361,541.5625,365,537.5625" style="stroke:#181818;stroke-width:1.0;"/><line style="stroke:#181818;stroke-width:1.0;stroke-dasharray:2.0,2.0;" x1="51" x2="367" y1="537.5625" y2="537.5625"/><text fill="#000000" font-family="sans-serif" font-size="13" lengthAdjust="spacing" textLength="89" x="58" y="532.8076">input the action</text><path d="M10,552.5625 L71,552.5625 L71,559.0859 L61,569.0859 L10,569.0859 L10,552.5625 " fill="#EEEEEE" style="stroke:#000000;stroke-width:1.5;"/><rect fill="none" height="485.0938" style="stroke:#000000;stroke-width:1.5;" width="1085" x="10" y="552.5625"/><text fill="#000000" font-family="sans-serif" font-size="13" font-weight="bold" lengthAdjust="spacing" textLength="16" x="25" y="565.3311">alt</text><text fill="#000000" font-family="sans-serif" font-size="11" font-weight="bold" lengthAdjust="spacing" textLength="64" x="86" y="564.5205">[deactivate]</text><polygon fill="#181818" points="62,585.6094,52,589.6094,62,593.6094,58,589.6094" style="stroke:#181818;stroke-width:1.0;"/><line style="stroke:#181818;stroke-width:1.0;stroke-dasharray:2.0,2.0;" x1="56" x2="372" y1="589.6094" y2="589.6094"/><text fill="#000000" font-family="sans-serif" font-size="13" lengthAdjust="spacing" textLength="138" x="68" y="584.8545">ask user n to deactivate</text><polygon fill="#181818" points="361,614.1328,371,618.1328,361,622.1328,365,618.1328" style="stroke:#181818;stroke-width:1.0;"/><line style="stroke:#181818;stroke-width:1.0;stroke-dasharray:2.0,2.0;" x1="51" x2="367" y1="618.1328" y2="618.1328"/><text fill="#000000" font-family="sans-serif" font-size="13" lengthAdjust="spacing" textLength="181" x="58" y="613.3779">input user number to deactivate</text><polygon fill="#181818" points="568,642.6563,578,646.6563,568,650.6563,572,646.6563" style="stroke:#181818;stroke-width:1.0;"/><line style="stroke:#181818;stroke-width:1.0;" x1="373" x2="574" y1="646.6563" y2="646.6563"/><text fill="#000000" font-family="sans-serif" font-size="13" lengthAdjust="spacing" textLength="118" x="380" y="641.9014">deactivateUser(user)</text><polygon fill="#181818" points="775,671.1797,785,675.1797,775,679.1797,779,675.1797" style="stroke:#181818;stroke-width:1.0;"/><line style="stroke:#181818;stroke-width:1.0;" x1="580" x2="781" y1="675.1797" y2="675.1797"/><text fill="#000000" font-family="sans-serif" font-size="13" lengthAdjust="spacing" textLength="118" x="587" y="670.4248">deactivateUser(user)</text><polygon fill="#181818" points="915.5,699.7031,925.5,703.7031,915.5,707.7031,919.5,703.7031" style="stroke:#181818;stroke-width:1.0;"/><line style="stroke:#181818;stroke-width:1.0;" x1="787" x2="921.5" y1="703.7031" y2="703.7031"/><text fill="#000000" font-family="sans-serif" font-size="13" lengthAdjust="spacing" textLength="58" x="794" y="698.9482">deactivate</text><polygon fill="#181818" points="798,713.7031,788,717.7031,798,721.7031,794,717.7031" style="stroke:#181818;stroke-width:1.0;"/><line style="stroke:#181818;stroke-width:1.0;" x1="792" x2="926.5" y1="717.7031" y2="717.7031"/><polygon fill="#181818" points="1021.5,742.2266,1031.5,746.2266,1021.5,750.2266,1025.5,746.2266" style="stroke:#181818;stroke-width:1.0;"/><line style="stroke:#181818;stroke-width:1.0;" x1="787" x2="1027.5" y1="746.2266" y2="746.2266"/><text fill="#000000" font-family="sans-serif" font-size="13" lengthAdjust="spacing" textLength="59" x="794" y="741.4717">save(user)</text><polygon fill="#181818" points="798,756.2266,788,760.2266,798,764.2266,794,760.2266" style="stroke:#181818;stroke-width:1.0;"/><line style="stroke:#181818;stroke-width:1.0;" x1="792" x2="1032.5" y1="760.2266" y2="760.2266"/><polygon fill="#181818" points="591,770.2266,581,774.2266,591,778.2266,587,774.2266" style="stroke:#181818;stroke-width:1.0;"/><line style="stroke:#181818;stroke-width:1.0;" x1="585" x2="786" y1="774.2266" y2="774.2266"/><polygon fill="#181818" points="384,784.2266,374,788.2266,384,792.2266,380,788.2266" style="stroke:#181818;stroke-width:1.0;"/><line style="stroke:#181818;stroke-width:1.0;" x1="378" x2="579" y1="788.2266" y2="788.2266"/><line style="stroke:#000000;stroke-width:1.0;stroke-dasharray:2.0,2.0;" x1="10" x2="1095" y1="797.2266" y2="797.2266"/><text fill="#000000" font-family="sans-serif" font-size="11" font-weight="bold" lengthAdjust="spacing" textLength="50" x="15" y="807.1846">[activate]</text><polygon fill="#181818" points="62,827.0391,52,831.0391,62,835.0391,58,831.0391" style="stroke:#181818;stroke-width:1.0;"/><line style="stroke:#181818;stroke-width:1.0;stroke-dasharray:2.0,2.0;" x1="56" x2="372" y1="831.0391" y2="831.0391"/><text fill="#000000" font-family="sans-serif" font-size="13" lengthAdjust="spacing" textLength="124" x="68" y="826.2842">ask user n to activate</text><polygon fill="#181818" points="361,855.5625,371,859.5625,361,863.5625,365,859.5625" style="stroke:#181818;stroke-width:1.0;"/><line style="stroke:#181818;stroke-width:1.0;stroke-dasharray:2.0,2.0;" x1="51" x2="367" y1="859.5625" y2="859.5625"/><text fill="#000000" font-family="sans-serif" font-size="13" lengthAdjust="spacing" textLength="167" x="58" y="854.8076">input user number to activate</text><polygon fill="#181818" points="568,884.0859,578,888.0859,568,892.0859,572,888.0859" style="stroke:#181818;stroke-width:1.0;"/><line style="stroke:#181818;stroke-width:1.0;" x1="373" x2="574" y1="888.0859" y2="888.0859"/><text fill="#000000" font-family="sans-serif" font-size="13" lengthAdjust="spacing" textLength="104" x="380" y="883.3311">activateUser(user)</text><polygon fill="#181818" points="775,912.6094,785,916.6094,775,920.6094,779,916.6094" style="stroke:#181818;stroke-width:1.0;"/><line style="stroke:#181818;stroke-width:1.0;" x1="580" x2="781" y1="916.6094" y2="916.6094"/><text fill="#000000" font-family="sans-serif" font-size="13" lengthAdjust="spacing" textLength="104" x="587" y="911.8545">activateUser(user)</text><polygon fill="#181818" points="915.5,941.1328,925.5,945.1328,915.5,949.1328,919.5,945.1328" style="stroke:#181818;stroke-width:1.0;"/><line style="stroke:#181818;stroke-width:1.0;" x1="787" x2="921.5" y1="945.1328" y2="945.1328"/><text fill="#000000" font-family="sans-serif" font-size="13" lengthAdjust="spacing" textLength="44" x="794" y="940.3779">activate</text><polygon fill="#181818" points="798,955.1328,788,959.1328,798,963.1328,794,959.1328" style="stroke:#181818;stroke-width:1.0;"/><line style="stroke:#181818;stroke-width:1.0;" x1="792" x2="926.5" y1="959.1328" y2="959.1328"/><polygon fill="#181818" points="1021.5,983.6563,1031.5,987.6563,1021.5,991.6563,1025.5,987.6563" style="stroke:#181818;stroke-width:1.0;"/><line style="stroke:#181818;stroke-width:1.0;" x1="787" x2="1027.5" y1="987.6563" y2="987.6563"/><text fill="#000000" font-family="sans-serif" font-size="13" lengthAdjust="spacing" textLength="59" x="794" y="982.9014">save(user)</text><polygon fill="#181818" points="798,997.6563,788,1001.6563,798,1005.6563,794,1001.6563" style="stroke:#181818;stroke-width:1.0;"/><line style="stroke:#181818;stroke-width:1.0;" x1="792" x2="1032.5" y1="1001.6563" y2="1001.6563"/><polygon fill="#181818" points="591,1011.6563,581,1015.6563,591,1019.6563,587,1015.6563" style="stroke:#181818;stroke-width:1.0;"/><line style="stroke:#181818;stroke-width:1.0;" x1="585" x2="786" y1="1015.6563" y2="1015.6563"/><polygon fill="#181818" points="384,1025.6563,374,1029.6563,384,1033.6563,380,1029.6563" style="stroke:#181818;stroke-width:1.0;"/><line style="stroke:#181818;stroke-width:1.0;" x1="378" x2="579" y1="1029.6563" y2="1029.6563"/><polygon fill="#181818" points="62,1061.1797,52,1065.1797,62,1069.1797,58,1065.1797" style="stroke:#181818;stroke-width:1.0;"/><line style="stroke:#181818;stroke-width:1.0;stroke-dasharray:2.0,2.0;" x1="56" x2="372" y1="1065.1797" y2="1065.1797"/><text fill="#000000" font-family="sans-serif" font-size="13" lengthAdjust="spacing" textLength="96" x="68" y="1060.4248">action performed</text><!--SRC=[hP9BRiCW48RtFiKeAsVH2qHHf3usNNJJA0UOu4c3QWC2d2gtxm2sWoCxIQLkR1Z-VnuVeF3QmWSg_28BwA19oyAWzL98Wyh3uerGU7b2Jy_TV-V8xjuNmT5AMA-D9KVAevTQRJQFk5-rybRNDTcOHNXRSnuqffPYCaqmfKORhhGbUvA2ejUTn6thzkmyDI51qhSihtI3CYWhzBX7Hwd29ndj94CvHwdbBOlj46L3qJ62fmqFN_3yl8Zzhq1OuldAPHVbxmeglJtgdo7MAIEJICBnKGpoOHWbop8EZoqXnaUnmyoIXLTmaAfwEKViL7hRqhA8-fIoruOgGwdhYQhXzgPxlPnNqvsDUZXWxHvlWbSzQvxUVKFB5S1hS5IJyE2F5A5e1MNV1V1xllIql5nMVnrIcJQt5bZxp76Zi0gbC-LCwgHjcttgzIhr3DWokERPPfAE5p_YN53mVWoqm- -GiIVd37N8iHFV3ppAueyafZdSfN27mRyJKDN4tEcL6R87RHkgYk8N]--></g></svg>