<?xml version="1.0" encoding="us-ascii" standalone="no"?><svg xmlns="http://www.w3.org/2000/svg" xmlns:xlink="http://www.w3.org/1999/xlink" contentStyleType="text/css" height="1014.3px" preserveAspectRatio="none" style="width:1847px;height:1014px;background:#FFFFFF;" version="1.1" viewBox="0 0 1847 1014" width="1847.3px" zoomAndPan="magnify"><defs/><g><rect fill="#FFFFFF" height="864.3961" style="stroke:#181818;stroke-width:0.6999999999999998;" width="7" x="239.4" y="78.9633"/><rect fill="#FFFFFF" height="19.6" style="stroke:#181818;stroke-width:0.6999999999999998;" width="7" x="242.9" y="104.5297"/><rect fill="#FFFFFF" height="19.6" style="stroke:#181818;stroke-width:0.6999999999999998;" width="7" x="242.9" y="194.5289"/><rect fill="#FFFFFF" height="29.7664" style="stroke:#181818;stroke-width:0.6999999999999998;" width="7" x="619.5" y="238.9953"/><rect fill="#FFFFFF" height="558.6656" style="stroke:#181818;stroke-width:0.6999999999999998;" width="7" x="619.5" y="358.4273"/><rect fill="#FFFFFF" height="488.6" style="stroke:#181818;stroke-width:0.6999999999999998;" width="7" x="1006.6" y="454.7594"/><rect fill="#FFFFFF" height="9.8" style="stroke:#181818;stroke-width:0.6999999999999998;" width="7" x="1082.55" y="258.9617"/><rect fill="#FFFFFF" height="9.8" style="stroke:#181818;stroke-width:0.6999999999999998;" width="7" x="1442.7" y="813.0937"/><rect fill="#FFFFFF" height="9.8" style="stroke:#181818;stroke-width:0.6999999999999998;" width="7" x="1442.7" y="862.8266"/><rect fill="#FFFFFF" height="9.8" style="stroke:#181818;stroke-width:0.6999999999999998;" width="7" x="1526" y="653.893"/><rect fill="#FFFFFF" height="9.8" style="stroke:#181818;stroke-width:0.6999999999999998;" width="7" x="1526" y="703.6258"/><rect fill="#FFFFFF" height="9.8" style="stroke:#181818;stroke-width:0.6999999999999998;" width="7" x="1611.75" y="494.6922"/><rect fill="#FFFFFF" height="9.8" style="stroke:#181818;stroke-width:0.6999999999999998;" width="7" x="1611.75" y="544.425"/><rect fill="none" height="479.1664" style="stroke:#000000;stroke-width:1.0499999999999998;" width="1272.25" x="570.5" y="428.8266"/><line style="stroke:#181818;stroke-width:0.3499999999999999;stroke-dasharray:5.0,5.0;" x1="25.2" x2="25.2" y1="57.5969" y2="949.6594"/><line style="stroke:#181818;stroke-width:0.3499999999999999;stroke-dasharray:5.0,5.0;" x1="242.55" x2="242.55" y1="57.5969" y2="949.6594"/><line style="stroke:#181818;stroke-width:0.3499999999999999;stroke-dasharray:5.0,5.0;" x1="623" x2="623" y1="57.5969" y2="949.6594"/><line style="stroke:#181818;stroke-width:0.3499999999999999;stroke-dasharray:5.0,5.0;" x1="1009.75" x2="1009.75" y1="57.5969" y2="949.6594"/><line style="stroke:#181818;stroke-width:0.3499999999999999;stroke-dasharray:5.0,5.0;" x1="1086.05" x2="1086.05" y1="57.5969" y2="949.6594"/><line style="stroke:#181818;stroke-width:0.3499999999999999;stroke-dasharray:5.0,5.0;" x1="1164.45" x2="1164.45" y1="57.5969" y2="949.6594"/><line style="stroke:#181818;stroke-width:0.3499999999999999;stroke-dasharray:5.0,5.0;" x1="1258.95" x2="1258.95" y1="57.5969" y2="949.6594"/><line style="stroke:#181818;stroke-width:0.3499999999999999;stroke-dasharray:5.0,5.0;" x1="1356.25" x2="1356.25" y1="57.5969" y2="949.6594"/><line style="stroke:#181818;stroke-width:0.3499999999999999;stroke-dasharray:5.0,5.0;" x1="1445.85" x2="1445.85" y1="57.5969" y2="949.6594"/><line style="stroke:#181818;stroke-width:0.3499999999999999;stroke-dasharray:5.0,5.0;" x1="1529.15" x2="1529.15" y1="57.5969" y2="949.6594"/><line style="stroke:#181818;stroke-width:0.3499999999999999;stroke-dasharray:5.0,5.0;" x1="1615.25" x2="1615.25" y1="57.5969" y2="949.6594"/><line style="stroke:#181818;stroke-width:0.3499999999999999;stroke-dasharray:5.0,5.0;" x1="1688.75" x2="1688.75" y1="57.5969" y2="949.6594"/><line style="stroke:#181818;stroke-width:0.3499999999999999;stroke-dasharray:5.0,5.0;" x1="1748.95" x2="1748.95" y1="57.5969" y2="949.6594"/><line style="stroke:#181818;stroke-width:0.3499999999999999;stroke-dasharray:5.0,5.0;" x1="1809.15" x2="1809.15" y1="57.5969" y2="949.6594"/><text fill="#000000" font-family="sans-serif" font-size="9.8" lengthAdjust="spacing" textLength="39.2" x="3.5" y="55.5201">Manager</text><ellipse cx="25.2" cy="10.5984" fill="#E2E2F0" rx="5.6" ry="5.6" style="stroke:#181818;stroke-width:0.3499999999999999;"/><path d="M25.2,16.1984 L25.2,35.0984 M16.1,21.7984 L34.3,21.7984 M25.2,35.0984 L16.1,45.5984 M25.2,35.0984 L34.3,45.5984 " fill="none" style="stroke:#181818;stroke-width:0.3499999999999999;"/><text fill="#000000" font-family="sans-serif" font-size="9.8" lengthAdjust="spacing" textLength="39.2" x="3.5" y="957.8311">Manager</text><ellipse cx="25.2" cy="965.8578" fill="#E2E2F0" rx="5.6" ry="5.6" style="stroke:#181818;stroke-width:0.3499999999999999;"/><path d="M25.2,971.4578 L25.2,990.3578 M16.1,977.0578 L34.3,977.0578 M25.2,990.3578 L16.1,1000.8578 M25.2,990.3578 L34.3,1000.8578 " fill="none" style="stroke:#181818;stroke-width:0.3499999999999999;"/><rect fill="#E2E2F0" height="31.6969" rx="1.75" ry="1.75" style="stroke:#181818;stroke-width:0.3499999999999999;" width="76.3" x="204.75" y="25.2"/><text fill="#000000" font-family="sans-serif" font-size="9.8" font-style="italic" lengthAdjust="spacing" textLength="66.5" x="209.65" y="38.9717">&#171;presentation&#187;</text><text fill="#000000" font-family="sans-serif" font-size="9.8" lengthAdjust="spacing" textLength="46.2" x="219.8" y="49.9201">AddUserUI</text><rect fill="#E2E2F0" height="31.6969" rx="1.75" ry="1.75" style="stroke:#181818;stroke-width:0.3499999999999999;" width="76.3" x="204.75" y="948.9594"/><text fill="#000000" font-family="sans-serif" font-size="9.8" font-style="italic" lengthAdjust="spacing" textLength="66.5" x="209.65" y="962.7311">&#171;presentation&#187;</text><text fill="#000000" font-family="sans-serif" font-size="9.8" lengthAdjust="spacing" textLength="46.2" x="219.8" y="973.6795">AddUserUI</text><rect fill="#E2E2F0" height="31.6969" rx="1.75" ry="1.75" style="stroke:#181818;stroke-width:0.3499999999999999;" width="91" x="577.5" y="25.2"/><text fill="#000000" font-family="sans-serif" font-size="9.8" font-style="italic" lengthAdjust="spacing" textLength="58.8" x="593.6" y="38.9717">&#171;application&#187;</text><text fill="#000000" font-family="sans-serif" font-size="9.8" lengthAdjust="spacing" textLength="81.2" x="582.4" y="49.9201">AddUserController</text><rect fill="#E2E2F0" height="31.6969" rx="1.75" ry="1.75" style="stroke:#181818;stroke-width:0.3499999999999999;" width="91" x="577.5" y="948.9594"/><text fill="#000000" font-family="sans-serif" font-size="9.8" font-style="italic" lengthAdjust="spacing" textLength="58.8" x="593.6" y="962.7311">&#171;application&#187;</text><text fill="#000000" font-family="sans-serif" font-size="9.8" lengthAdjust="spacing" textLength="81.2" x="582.4" y="973.6795">AddUserController</text><rect fill="#E2E2F0" height="31.6969" rx="1.75" ry="1.75" style="stroke:#181818;stroke-width:0.3499999999999999;" width="80.5" x="969.85" y="25.2"/><text fill="#000000" font-family="sans-serif" font-size="9.8" font-style="italic" lengthAdjust="spacing" textLength="58.8" x="980.7" y="38.9717">&#171;application&#187;</text><text fill="#000000" font-family="sans-serif" font-size="9.8" lengthAdjust="spacing" textLength="70.7" x="974.75" y="49.9201">AddUserService</text><rect fill="#E2E2F0" height="31.6969" rx="1.75" ry="1.75" style="stroke:#181818;stroke-width:0.3499999999999999;" width="80.5" x="969.85" y="948.9594"/><text fill="#000000" font-family="sans-serif" font-size="9.8" font-style="italic" lengthAdjust="spacing" textLength="58.8" x="980.7" y="962.7311">&#171;application&#187;</text><text fill="#000000" font-family="sans-serif" font-size="9.8" lengthAdjust="spacing" textLength="70.7" x="974.75" y="973.6795">AddUserService</text><rect fill="#E2E2F0" height="31.6969" rx="1.75" ry="1.75" style="stroke:#181818;stroke-width:0.3499999999999999;" width="57.4" x="1057.35" y="25.2"/><text fill="#000000" font-family="sans-serif" font-size="9.8" font-style="italic" lengthAdjust="spacing" textLength="43.4" x="1064.35" y="38.9717">&#171;domain&#187;</text><text fill="#000000" font-family="sans-serif" font-size="9.8" lengthAdjust="spacing" textLength="47.6" x="1062.25" y="49.9201">BaseRoles</text><rect fill="#E2E2F0" height="31.6969" rx="1.75" ry="1.75" style="stroke:#181818;stroke-width:0.3499999999999999;" width="57.4" x="1057.35" y="948.9594"/><text fill="#000000" font-family="sans-serif" font-size="9.8" font-style="italic" lengthAdjust="spacing" textLength="43.4" x="1064.35" y="962.7311">&#171;domain&#187;</text><text fill="#000000" font-family="sans-serif" font-size="9.8" lengthAdjust="spacing" textLength="47.6" x="1062.25" y="973.6795">BaseRoles</text><text fill="#000000" font-family="sans-serif" font-size="9.8" font-style="italic" lengthAdjust="spacing" textLength="55.3" x="1135.05" y="44.5717">&#171;repository&#187;</text><text fill="#000000" font-family="sans-serif" font-size="9.8" lengthAdjust="spacing" textLength="81.9" x="1121.75" y="55.5201">StudentRepository</text><path d="M1152.2,10.5 C1152.2,3.5 1164.8,3.5 1164.8,3.5 C1164.8,3.5 1177.4,3.5 1177.4,10.5 L1177.4,28.7 C1177.4,35.7 1164.8,35.7 1164.8,35.7 C1164.8,35.7 1152.2,35.7 1152.2,28.7 L1152.2,10.5 " fill="#E2E2F0" style="stroke:#181818;stroke-width:1.0499999999999998;"/><path d="M1152.2,10.5 C1152.2,17.5 1164.8,17.5 1164.8,17.5 C1164.8,17.5 1177.4,17.5 1177.4,10.5 " fill="none" style="stroke:#181818;stroke-width:1.0499999999999998;"/><text fill="#000000" font-family="sans-serif" font-size="9.8" font-style="italic" lengthAdjust="spacing" textLength="55.3" x="1135.05" y="957.8311">&#171;repository&#187;</text><text fill="#000000" font-family="sans-serif" font-size="9.8" lengthAdjust="spacing" textLength="81.9" x="1121.75" y="968.7795">StudentRepository</text><path d="M1152.2,977.8562 C1152.2,970.8562 1164.8,970.8562 1164.8,970.8562 C1164.8,970.8562 1177.4,970.8562 1177.4,977.8562 L1177.4,996.0562 C1177.4,1003.0562 1164.8,1003.0562 1164.8,1003.0562 C1164.8,1003.0562 1152.2,1003.0562 1152.2,996.0562 L1152.2,977.8562 " fill="#E2E2F0" style="stroke:#181818;stroke-width:1.0499999999999998;"/><path d="M1152.2,977.8562 C1152.2,984.8562 1164.8,984.8562 1164.8,984.8562 C1164.8,984.8562 1177.4,984.8562 1177.4,977.8562 " fill="none" style="stroke:#181818;stroke-width:1.0499999999999998;"/><text fill="#000000" font-family="sans-serif" font-size="9.8" font-style="italic" lengthAdjust="spacing" textLength="55.3" x="1229.55" y="44.5717">&#171;repository&#187;</text><text fill="#000000" font-family="sans-serif" font-size="9.8" lengthAdjust="spacing" textLength="84.7" x="1214.85" y="55.5201">TeacherRepository</text><path d="M1246.7,10.5 C1246.7,3.5 1259.3,3.5 1259.3,3.5 C1259.3,3.5 1271.9,3.5 1271.9,10.5 L1271.9,28.7 C1271.9,35.7 1259.3,35.7 1259.3,35.7 C1259.3,35.7 1246.7,35.7 1246.7,28.7 L1246.7,10.5 " fill="#E2E2F0" style="stroke:#181818;stroke-width:1.0499999999999998;"/><path d="M1246.7,10.5 C1246.7,17.5 1259.3,17.5 1259.3,17.5 C1259.3,17.5 1271.9,17.5 1271.9,10.5 " fill="none" style="stroke:#181818;stroke-width:1.0499999999999998;"/><text fill="#000000" font-family="sans-serif" font-size="9.8" font-style="italic" lengthAdjust="spacing" textLength="55.3" x="1229.55" y="957.8311">&#171;repository&#187;</text><text fill="#000000" font-family="sans-serif" font-size="9.8" lengthAdjust="spacing" textLength="84.7" x="1214.85" y="968.7795">TeacherRepository</text><path d="M1246.7,977.8562 C1246.7,970.8562 1259.3,970.8562 1259.3,970.8562 C1259.3,970.8562 1271.9,970.8562 1271.9,977.8562 L1271.9,996.0562 C1271.9,1003.0562 1259.3,1003.0562 1259.3,1003.0562 C1259.3,1003.0562 1246.7,1003.0562 1246.7,996.0562 L1246.7,977.8562 " fill="#E2E2F0" style="stroke:#181818;stroke-width:1.0499999999999998;"/><path d="M1246.7,977.8562 C1246.7,984.8562 1259.3,984.8562 1259.3,984.8562 C1259.3,984.8562 1271.9,984.8562 1271.9,977.8562 " fill="none" style="stroke:#181818;stroke-width:1.0499999999999998;"/><text fill="#000000" font-family="sans-serif" font-size="9.8" font-style="italic" lengthAdjust="spacing" textLength="55.3" x="1326.5" y="44.5717">&#171;repository&#187;</text><text fill="#000000" font-family="sans-serif" font-size="9.8" lengthAdjust="spacing" textLength="86.8" x="1310.75" y="55.5201">ManagerRepository</text><path d="M1343.65,10.5 C1343.65,3.5 1356.25,3.5 1356.25,3.5 C1356.25,3.5 1368.85,3.5 1368.85,10.5 L1368.85,28.7 C1368.85,35.7 1356.25,35.7 1356.25,35.7 C1356.25,35.7 1343.65,35.7 1343.65,28.7 L1343.65,10.5 " fill="#E2E2F0" style="stroke:#181818;stroke-width:1.0499999999999998;"/><path d="M1343.65,10.5 C1343.65,17.5 1356.25,17.5 1356.25,17.5 C1356.25,17.5 1368.85,17.5 1368.85,10.5 " fill="none" style="stroke:#181818;stroke-width:1.0499999999999998;"/><text fill="#000000" font-family="sans-serif" font-size="9.8" font-style="italic" lengthAdjust="spacing" textLength="55.3" x="1326.5" y="957.8311">&#171;repository&#187;</text><text fill="#000000" font-family="sans-serif" font-size="9.8" lengthAdjust="spacing" textLength="86.8" x="1310.75" y="968.7795">ManagerRepository</text><path d="M1343.65,977.8562 C1343.65,970.8562 1356.25,970.8562 1356.25,970.8562 C1356.25,970.8562 1368.85,970.8562 1368.85,977.8562 L1368.85,996.0562 C1368.85,1003.0562 1356.25,1003.0562 1356.25,1003.0562 C1356.25,1003.0562 1343.65,1003.0562 1343.65,996.0562 L1343.65,977.8562 " fill="#E2E2F0" style="stroke:#181818;stroke-width:1.0499999999999998;"/><path d="M1343.65,977.8562 C1343.65,984.8562 1356.25,984.8562 1356.25,984.8562 C1356.25,984.8562 1368.85,984.8562 1368.85,977.8562 " fill="none" style="stroke:#181818;stroke-width:1.0499999999999998;"/><rect fill="#E2E2F0" height="31.6969" rx="1.75" ry="1.75" style="stroke:#181818;stroke-width:0.3499999999999999;" width="74.9" x="1408.75" y="25.2"/><text fill="#000000" font-family="sans-serif" font-size="9.8" font-style="italic" lengthAdjust="spacing" textLength="41.3" x="1425.55" y="38.9717">&#171;builder&#187;</text><text fill="#000000" font-family="sans-serif" font-size="9.8" lengthAdjust="spacing" textLength="65.1" x="1413.65" y="49.9201">StudentBuilder</text><rect fill="#E2E2F0" height="31.6969" rx="1.75" ry="1.75" style="stroke:#181818;stroke-width:0.3499999999999999;" width="74.9" x="1408.75" y="948.9594"/><text fill="#000000" font-family="sans-serif" font-size="9.8" font-style="italic" lengthAdjust="spacing" textLength="41.3" x="1425.55" y="962.7311">&#171;builder&#187;</text><text fill="#000000" font-family="sans-serif" font-size="9.8" lengthAdjust="spacing" textLength="65.1" x="1413.65" y="973.6795">StudentBuilder</text><rect fill="#E2E2F0" height="31.6969" rx="1.75" ry="1.75" style="stroke:#181818;stroke-width:0.3499999999999999;" width="77.7" x="1490.65" y="25.2"/><text fill="#000000" font-family="sans-serif" font-size="9.8" font-style="italic" lengthAdjust="spacing" textLength="41.3" x="1508.85" y="38.9717">&#171;builder&#187;</text><text fill="#000000" font-family="sans-serif" font-size="9.8" lengthAdjust="spacing" textLength="67.9" x="1495.55" y="49.9201">TeacherBuilder</text><rect fill="#E2E2F0" height="31.6969" rx="1.75" ry="1.75" style="stroke:#181818;stroke-width:0.3499999999999999;" width="77.7" x="1490.65" y="948.9594"/><text fill="#000000" font-family="sans-serif" font-size="9.8" font-style="italic" lengthAdjust="spacing" textLength="41.3" x="1508.85" y="962.7311">&#171;builder&#187;</text><text fill="#000000" font-family="sans-serif" font-size="9.8" lengthAdjust="spacing" textLength="67.9" x="1495.55" y="973.6795">TeacherBuilder</text><rect fill="#E2E2F0" height="31.6969" rx="1.75" ry="1.75" style="stroke:#181818;stroke-width:0.3499999999999999;" width="79.8" x="1575.35" y="25.2"/><text fill="#000000" font-family="sans-serif" font-size="9.8" font-style="italic" lengthAdjust="spacing" textLength="41.3" x="1594.6" y="38.9717">&#171;builder&#187;</text><text fill="#000000" font-family="sans-serif" font-size="9.8" lengthAdjust="spacing" textLength="70" x="1580.25" y="49.9201">ManagerBuilder</text><rect fill="#E2E2F0" height="31.6969" rx="1.75" ry="1.75" style="stroke:#181818;stroke-width:0.3499999999999999;" width="79.8" x="1575.35" y="948.9594"/><text fill="#000000" font-family="sans-serif" font-size="9.8" font-style="italic" lengthAdjust="spacing" textLength="41.3" x="1594.6" y="962.7311">&#171;builder&#187;</text><text fill="#000000" font-family="sans-serif" font-size="9.8" lengthAdjust="spacing" textLength="70" x="1580.25" y="973.6795">ManagerBuilder</text><rect fill="#E2E2F0" height="31.6969" rx="1.75" ry="1.75" style="stroke:#181818;stroke-width:0.3499999999999999;" width="53.2" x="1662.15" y="25.2"/><text fill="#000000" font-family="sans-serif" font-size="9.8" font-style="italic" lengthAdjust="spacing" textLength="43.4" x="1667.05" y="38.9717">&#171;domain&#187;</text><text fill="#000000" font-family="sans-serif" font-size="9.8" lengthAdjust="spacing" textLength="34.3" x="1671.6" y="49.9201">Student</text><rect fill="#E2E2F0" height="31.6969" rx="1.75" ry="1.75" style="stroke:#181818;stroke-width:0.3499999999999999;" width="53.2" x="1662.15" y="948.9594"/><text fill="#000000" font-family="sans-serif" font-size="9.8" font-style="italic" lengthAdjust="spacing" textLength="43.4" x="1667.05" y="962.7311">&#171;domain&#187;</text><text fill="#000000" font-family="sans-serif" font-size="9.8" lengthAdjust="spacing" textLength="34.3" x="1671.6" y="973.6795">Student</text><rect fill="#E2E2F0" height="31.6969" rx="1.75" ry="1.75" style="stroke:#181818;stroke-width:0.3499999999999999;" width="53.2" x="1722.35" y="25.2"/><text fill="#000000" font-family="sans-serif" font-size="9.8" font-style="italic" lengthAdjust="spacing" textLength="43.4" x="1727.25" y="38.9717">&#171;domain&#187;</text><text fill="#000000" font-family="sans-serif" font-size="9.8" lengthAdjust="spacing" textLength="37.1" x="1730.4" y="49.9201">Teacher</text><rect fill="#E2E2F0" height="31.6969" rx="1.75" ry="1.75" style="stroke:#181818;stroke-width:0.3499999999999999;" width="53.2" x="1722.35" y="948.9594"/><text fill="#000000" font-family="sans-serif" font-size="9.8" font-style="italic" lengthAdjust="spacing" textLength="43.4" x="1727.25" y="962.7311">&#171;domain&#187;</text><text fill="#000000" font-family="sans-serif" font-size="9.8" lengthAdjust="spacing" textLength="37.1" x="1730.4" y="973.6795">Teacher</text><rect fill="#E2E2F0" height="31.6969" rx="1.75" ry="1.75" style="stroke:#181818;stroke-width:0.3499999999999999;" width="53.2" x="1782.55" y="25.2"/><text fill="#000000" font-family="sans-serif" font-size="9.8" font-style="italic" lengthAdjust="spacing" textLength="43.4" x="1787.45" y="38.9717">&#171;domain&#187;</text><text fill="#000000" font-family="sans-serif" font-size="9.8" lengthAdjust="spacing" textLength="39.2" x="1789.55" y="49.9201">Manager</text><rect fill="#E2E2F0" height="31.6969" rx="1.75" ry="1.75" style="stroke:#181818;stroke-width:0.3499999999999999;" width="53.2" x="1782.55" y="948.9594"/><text fill="#000000" font-family="sans-serif" font-size="9.8" font-style="italic" lengthAdjust="spacing" textLength="43.4" x="1787.45" y="962.7311">&#171;domain&#187;</text><text fill="#000000" font-family="sans-serif" font-size="9.8" lengthAdjust="spacing" textLength="39.2" x="1789.55" y="973.6795">Manager</text><rect fill="#FFFFFF" height="864.3961" style="stroke:#181818;stroke-width:0.6999999999999998;" width="7" x="239.4" y="78.9633"/><rect fill="#FFFFFF" height="19.6" style="stroke:#181818;stroke-width:0.6999999999999998;" width="7" x="242.9" y="104.5297"/><rect fill="#FFFFFF" height="19.6" style="stroke:#181818;stroke-width:0.6999999999999998;" width="7" x="242.9" y="194.5289"/><rect fill="#FFFFFF" height="29.7664" style="stroke:#181818;stroke-width:0.6999999999999998;" width="7" x="619.5" y="238.9953"/><rect fill="#FFFFFF" height="558.6656" style="stroke:#181818;stroke-width:0.6999999999999998;" width="7" x="619.5" y="358.4273"/><rect fill="#FFFFFF" height="488.6" style="stroke:#181818;stroke-width:0.6999999999999998;" width="7" x="1006.6" y="454.7594"/><rect fill="#FFFFFF" height="9.8" style="stroke:#181818;stroke-width:0.6999999999999998;" width="7" x="1082.55" y="258.9617"/><rect fill="#FFFFFF" height="9.8" style="stroke:#181818;stroke-width:0.6999999999999998;" width="7" x="1442.7" y="813.0937"/><rect fill="#FFFFFF" height="9.8" style="stroke:#181818;stroke-width:0.6999999999999998;" width="7" x="1442.7" y="862.8266"/><rect fill="#FFFFFF" height="9.8" style="stroke:#181818;stroke-width:0.6999999999999998;" width="7" x="1526" y="653.893"/><rect fill="#FFFFFF" height="9.8" style="stroke:#181818;stroke-width:0.6999999999999998;" width="7" x="1526" y="703.6258"/><rect fill="#FFFFFF" height="9.8" style="stroke:#181818;stroke-width:0.6999999999999998;" width="7" x="1611.75" y="494.6922"/><rect fill="#FFFFFF" height="9.8" style="stroke:#181818;stroke-width:0.6999999999999998;" width="7" x="1611.75" y="544.425"/><polygon fill="#181818" points="614.6,76.1633,621.6,78.9633,614.6,81.7633,617.4,78.9633" style="stroke:#181818;stroke-width:0.6999999999999998;"/><line style="stroke:#181818;stroke-width:0.6999999999999998;" x1="246.4" x2="618.8" y1="78.9633" y2="78.9633"/><text fill="#000000" font-family="sans-serif" font-size="9.1" lengthAdjust="spacing" textLength="25.2" x="251.3" y="75.6349">create</text><line style="stroke:#181818;stroke-width:0.6999999999999998;" x1="249.9" x2="279.3" y1="98.9297" y2="98.9297"/><line style="stroke:#181818;stroke-width:0.6999999999999998;" x1="279.3" x2="279.3" y1="98.9297" y2="108.0297"/><line style="stroke:#181818;stroke-width:0.6999999999999998;" x1="250.6" x2="279.3" y1="108.0297" y2="108.0297"/><polygon fill="#181818" points="257.6,105.2297,250.6,108.0297,257.6,110.8297,254.8,108.0297" style="stroke:#181818;stroke-width:0.6999999999999998;"/><text fill="#000000" font-family="sans-serif" font-size="9.1" lengthAdjust="spacing" textLength="37.8" x="254.8" y="95.6013">doShow()</text><polygon fill="#181818" points="32.9,146.1961,25.9,148.9961,32.9,151.7961,30.1,148.9961" style="stroke:#181818;stroke-width:0.6999999999999998;"/><line style="stroke:#181818;stroke-width:0.6999999999999998;stroke-dasharray:2.0,2.0;" x1="28.7" x2="238.7" y1="148.9961" y2="148.9961"/><text fill="#000000" font-family="sans-serif" font-size="9.1" lengthAdjust="spacing" textLength="86.8" x="37.1" y="145.6677">asks manager for info</text><polygon fill="#181818" points="231,166.1625,238,168.9625,231,171.7625,233.8,168.9625" style="stroke:#181818;stroke-width:0.6999999999999998;"/><line style="stroke:#181818;stroke-width:0.6999999999999998;stroke-dasharray:2.0,2.0;" x1="25.2" x2="235.2" y1="168.9625" y2="168.9625"/><text fill="#000000" font-family="sans-serif" font-size="9.1" lengthAdjust="spacing" textLength="197.4" x="30.1" y="165.6341">inputs info (email,password,fullName,shortName)</text><line style="stroke:#181818;stroke-width:0.6999999999999998;" x1="249.9" x2="279.3" y1="188.9289" y2="188.9289"/><line style="stroke:#181818;stroke-width:0.6999999999999998;" x1="279.3" x2="279.3" y1="188.9289" y2="198.0289"/><line style="stroke:#181818;stroke-width:0.6999999999999998;" x1="250.6" x2="279.3" y1="198.0289" y2="198.0289"/><polygon fill="#181818" points="257.6,195.2289,250.6,198.0289,257.6,200.8289,254.8,198.0289" style="stroke:#181818;stroke-width:0.6999999999999998;"/><text fill="#000000" font-family="sans-serif" font-size="9.1" lengthAdjust="spacing" textLength="49.7" x="254.8" y="185.6005">showRoles()</text><polygon fill="#181818" points="611.1,236.1953,618.1,238.9953,611.1,241.7953,613.9,238.9953" style="stroke:#181818;stroke-width:0.6999999999999998;"/><line style="stroke:#181818;stroke-width:0.6999999999999998;" x1="246.4" x2="615.3" y1="238.9953" y2="238.9953"/><text fill="#000000" font-family="sans-serif" font-size="9.1" lengthAdjust="spacing" textLength="60.9" x="251.3" y="235.6669">getRoleTypes()</text><polygon fill="#181818" points="1074.15,256.1617,1081.15,258.9617,1074.15,261.7617,1076.95,258.9617" style="stroke:#181818;stroke-width:0.6999999999999998;"/><line style="stroke:#181818;stroke-width:0.6999999999999998;" x1="626.5" x2="1078.35" y1="258.9617" y2="258.9617"/><text fill="#000000" font-family="sans-serif" font-size="9.1" lengthAdjust="spacing" textLength="67.2" x="631.4" y="255.6333">nonUserValues()</text><polygon fill="#181818" points="630.7,265.9617,623.7,268.7617,630.7,271.5617,627.9,268.7617" style="stroke:#181818;stroke-width:0.6999999999999998;"/><line style="stroke:#181818;stroke-width:0.6999999999999998;" x1="626.5" x2="1085.35" y1="268.7617" y2="268.7617"/><polygon fill="#181818" points="254.1,275.7617,247.1,278.5617,254.1,281.3617,251.3,278.5617" style="stroke:#181818;stroke-width:0.6999999999999998;"/><line style="stroke:#181818;stroke-width:0.6999999999999998;" x1="249.9" x2="622.3" y1="278.5617" y2="278.5617"/><polygon fill="#181818" points="32.9,295.7281,25.9,298.5281,32.9,301.3281,30.1,298.5281" style="stroke:#181818;stroke-width:0.6999999999999998;"/><line style="stroke:#181818;stroke-width:0.6999999999999998;stroke-dasharray:2.0,2.0;" x1="28.7" x2="238.7" y1="298.5281" y2="298.5281"/><text fill="#000000" font-family="sans-serif" font-size="9.1" lengthAdjust="spacing" textLength="82.6" x="37.1" y="295.1997">asks teacher for role</text><polygon fill="#181818" points="231,315.6945,238,318.4945,231,321.2945,233.8,318.4945" style="stroke:#181818;stroke-width:0.6999999999999998;"/><line style="stroke:#181818;stroke-width:0.6999999999999998;stroke-dasharray:2.0,2.0;" x1="25.2" x2="235.2" y1="318.4945" y2="318.4945"/><text fill="#000000" font-family="sans-serif" font-size="9.1" lengthAdjust="spacing" textLength="87.5" x="30.1" y="315.1661">inputs role of the user</text><polygon fill="#181818" points="1001.7,335.6609,1008.7,338.4609,1001.7,341.2609,1004.5,338.4609" style="stroke:#181818;stroke-width:0.6999999999999998;"/><line style="stroke:#181818;stroke-width:0.6999999999999998;" x1="623" x2="1005.9" y1="338.4609" y2="338.4609"/><text fill="#000000" font-family="sans-serif" font-size="9.1" lengthAdjust="spacing" textLength="25.2" x="627.9" y="335.1325">create</text><polygon fill="#181818" points="611.1,355.6273,618.1,358.4273,611.1,361.2273,613.9,358.4273" style="stroke:#181818;stroke-width:0.6999999999999998;"/><line style="stroke:#181818;stroke-width:0.6999999999999998;" x1="246.4" x2="615.3" y1="358.4273" y2="358.4273"/><text fill="#000000" font-family="sans-serif" font-size="9.1" lengthAdjust="spacing" textLength="359.8" x="251.3" y="355.0989">addUser(email,password, fullName,shortName,roles,acronym,birthDate,taxPayerNumber)</text><polygon fill="#181818" points="1156.4,375.5937,1163.4,378.3937,1156.4,381.1937,1159.2,378.3937" style="stroke:#181818;stroke-width:0.6999999999999998;"/><line style="stroke:#181818;stroke-width:0.6999999999999998;" x1="1010.1" x2="1160.6" y1="378.3937" y2="378.3937"/><text fill="#000000" font-family="sans-serif" font-size="9.1" lengthAdjust="spacing" textLength="25.2" x="1015" y="375.0653">create</text><polygon fill="#181818" points="1250.9,395.5602,1257.9,398.3602,1250.9,401.1602,1253.7,398.3602" style="stroke:#181818;stroke-width:0.6999999999999998;"/><line style="stroke:#181818;stroke-width:0.6999999999999998;" x1="1010.1" x2="1255.1" y1="398.3602" y2="398.3602"/><text fill="#000000" font-family="sans-serif" font-size="9.1" lengthAdjust="spacing" textLength="25.2" x="1015" y="395.0317">create</text><polygon fill="#181818" points="1347.85,415.5266,1354.85,418.3266,1347.85,421.1266,1350.65,418.3266" style="stroke:#181818;stroke-width:0.6999999999999998;"/><line style="stroke:#181818;stroke-width:0.6999999999999998;" x1="1010.1" x2="1352.05" y1="418.3266" y2="418.3266"/><text fill="#000000" font-family="sans-serif" font-size="9.1" lengthAdjust="spacing" textLength="25.2" x="1015" y="414.9981">create</text><path d="M570.5,428.8266 L613.2,428.8266 L613.2,433.393 L606.2,440.393 L570.5,440.393 L570.5,428.8266 " fill="#EEEEEE" style="stroke:#000000;stroke-width:1.0499999999999998;"/><rect fill="none" height="479.1664" style="stroke:#000000;stroke-width:1.0499999999999998;" width="1272.25" x="570.5" y="428.8266"/><text fill="#000000" font-family="sans-serif" font-size="9.1" font-weight="bold" lengthAdjust="spacing" textLength="11.2" x="581" y="437.7646">alt</text><text fill="#000000" font-family="sans-serif" font-size="7.7" font-weight="bold" lengthAdjust="spacing" textLength="29.4" x="623.7" y="437.1972">[admin]</text><polygon fill="#181818" points="998.2,451.9594,1005.2,454.7594,998.2,457.5594,1001,454.7594" style="stroke:#181818;stroke-width:0.6999999999999998;"/><line style="stroke:#181818;stroke-width:0.6999999999999998;" x1="626.5" x2="1002.4" y1="454.7594" y2="454.7594"/><text fill="#000000" font-family="sans-serif" font-size="9.1" lengthAdjust="spacing" textLength="218.4" x="631.4" y="451.431">registerManager(email,password,fullName,shortName)</text><polygon fill="#181818" points="1606.85,471.9258,1613.85,474.7258,1606.85,477.5258,1609.65,474.7258" style="stroke:#181818;stroke-width:0.6999999999999998;"/><line style="stroke:#181818;stroke-width:0.6999999999999998;" x1="1013.6" x2="1611.05" y1="474.7258" y2="474.7258"/><text fill="#000000" font-family="sans-serif" font-size="9.1" lengthAdjust="spacing" textLength="30.8" x="1018.5" y="471.3974">create()</text><polygon fill="#181818" points="1603.35,491.8922,1610.35,494.6922,1603.35,497.4922,1606.15,494.6922" style="stroke:#181818;stroke-width:0.6999999999999998;"/><line style="stroke:#181818;stroke-width:0.6999999999999998;" x1="1013.6" x2="1607.55" y1="494.6922" y2="494.6922"/><text fill="#000000" font-family="sans-serif" font-size="9.1" lengthAdjust="spacing" textLength="183.4" x="1018.5" y="491.3638">with(email,rawPassword,fullName,shortname)</text><polygon fill="#181818" points="1021.3,501.6922,1014.3,504.4922,1021.3,507.2922,1018.5,504.4922" style="stroke:#181818;stroke-width:0.6999999999999998;"/><line style="stroke:#181818;stroke-width:0.6999999999999998;" x1="1017.1" x2="1614.55" y1="504.4922" y2="504.4922"/><polygon fill="#181818" points="1800.75,521.6586,1807.75,524.4586,1800.75,527.2586,1803.55,524.4586" style="stroke:#181818;stroke-width:0.6999999999999998;"/><line style="stroke:#181818;stroke-width:0.6999999999999998;" x1="1615.25" x2="1804.95" y1="524.4586" y2="524.4586"/><text fill="#000000" font-family="sans-serif" font-size="9.1" lengthAdjust="spacing" textLength="30.8" x="1620.15" y="521.1302">create()</text><polygon fill="#181818" points="1603.35,541.625,1610.35,544.425,1603.35,547.225,1606.15,544.425" style="stroke:#181818;stroke-width:0.6999999999999998;"/><line style="stroke:#181818;stroke-width:0.6999999999999998;" x1="1013.6" x2="1607.55" y1="544.425" y2="544.425"/><text fill="#000000" font-family="sans-serif" font-size="9.1" lengthAdjust="spacing" textLength="24.5" x="1018.5" y="541.0966">build()</text><polygon fill="#181818" points="1021.3,551.425,1014.3,554.225,1021.3,557.025,1018.5,554.225" style="stroke:#181818;stroke-width:0.6999999999999998;"/><line style="stroke:#181818;stroke-width:0.6999999999999998;" x1="1017.1" x2="1614.55" y1="554.225" y2="554.225"/><polygon fill="#181818" points="1347.85,571.3914,1354.85,574.1914,1347.85,576.9914,1350.65,574.1914" style="stroke:#181818;stroke-width:0.6999999999999998;"/><line style="stroke:#181818;stroke-width:0.6999999999999998;" x1="1013.6" x2="1352.05" y1="574.1914" y2="574.1914"/><text fill="#000000" font-family="sans-serif" font-size="9.1" lengthAdjust="spacing" textLength="74.9" x="1018.5" y="570.863">save(newManager)</text><polygon fill="#181818" points="634.2,581.1914,627.2,583.9914,634.2,586.7914,631.4,583.9914" style="stroke:#181818;stroke-width:0.6999999999999998;"/><line style="stroke:#181818;stroke-width:0.6999999999999998;" x1="630" x2="1355.55" y1="583.9914" y2="583.9914"/><line style="stroke:#000000;stroke-width:0.6999999999999998;stroke-dasharray:2.0,2.0;" x1="570.5" x2="1842.75" y1="590.2914" y2="590.2914"/><text fill="#000000" font-family="sans-serif" font-size="7.7" font-weight="bold" lengthAdjust="spacing" textLength="35" x="574" y="597.262">[teacher]</text><polygon fill="#181818" points="998.2,611.1602,1005.2,613.9602,998.2,616.7602,1001,613.9602" style="stroke:#181818;stroke-width:0.6999999999999998;"/><line style="stroke:#181818;stroke-width:0.6999999999999998;" x1="626.5" x2="1002.4" y1="613.9602" y2="613.9602"/><text fill="#000000" font-family="sans-serif" font-size="9.1" lengthAdjust="spacing" textLength="363.3" x="631.4" y="610.6317">registerTeacher(email,password,fullName,shortName,acronym,birthDate,taxPayerNumber)</text><polygon fill="#181818" points="1521.1,631.1266,1528.1,633.9266,1521.1,636.7266,1523.9,633.9266" style="stroke:#181818;stroke-width:0.6999999999999998;"/><line style="stroke:#181818;stroke-width:0.6999999999999998;" x1="1013.6" x2="1525.3" y1="633.9266" y2="633.9266"/><text fill="#000000" font-family="sans-serif" font-size="9.1" lengthAdjust="spacing" textLength="30.8" x="1018.5" y="630.5981">create()</text><polygon fill="#181818" points="1517.6,651.093,1524.6,653.893,1517.6,656.693,1520.4,653.893" style="stroke:#181818;stroke-width:0.6999999999999998;"/><line style="stroke:#181818;stroke-width:0.6999999999999998;" x1="1013.6" x2="1521.8" y1="653.893" y2="653.893"/><text fill="#000000" font-family="sans-serif" font-size="9.1" lengthAdjust="spacing" textLength="331.1" x="1018.5" y="650.5646">with(email,rawPassword,fullName,shortname,acronym,birthDate,taxPayerNumber)</text><polygon fill="#181818" points="1021.3,660.893,1014.3,663.693,1021.3,666.493,1018.5,663.693" style="stroke:#181818;stroke-width:0.6999999999999998;"/><line style="stroke:#181818;stroke-width:0.6999999999999998;" x1="1017.1" x2="1528.8" y1="663.693" y2="663.693"/><polygon fill="#181818" points="1740.55,680.8594,1747.55,683.6594,1740.55,686.4594,1743.35,683.6594" style="stroke:#181818;stroke-width:0.6999999999999998;"/><line style="stroke:#181818;stroke-width:0.6999999999999998;" x1="1615.25" x2="1744.75" y1="683.6594" y2="683.6594"/><text fill="#000000" font-family="sans-serif" font-size="9.1" lengthAdjust="spacing" textLength="30.8" x="1620.15" y="680.331">create()</text><polygon fill="#181818" points="1517.6,700.8258,1524.6,703.6258,1517.6,706.4258,1520.4,703.6258" style="stroke:#181818;stroke-width:0.6999999999999998;"/><line style="stroke:#181818;stroke-width:0.6999999999999998;" x1="1013.6" x2="1521.8" y1="703.6258" y2="703.6258"/><text fill="#000000" font-family="sans-serif" font-size="9.1" lengthAdjust="spacing" textLength="24.5" x="1018.5" y="700.2974">build()</text><polygon fill="#181818" points="1021.3,710.6258,1014.3,713.4258,1021.3,716.2258,1018.5,713.4258" style="stroke:#181818;stroke-width:0.6999999999999998;"/><line style="stroke:#181818;stroke-width:0.6999999999999998;" x1="1017.1" x2="1528.8" y1="713.4258" y2="713.4258"/><polygon fill="#181818" points="1250.9,730.5922,1257.9,733.3922,1250.9,736.1922,1253.7,733.3922" style="stroke:#181818;stroke-width:0.6999999999999998;"/><line style="stroke:#181818;stroke-width:0.6999999999999998;" x1="1013.6" x2="1255.1" y1="733.3922" y2="733.3922"/><text fill="#000000" font-family="sans-serif" font-size="9.1" lengthAdjust="spacing" textLength="72.1" x="1018.5" y="730.0638">save(newTeacher)</text><polygon fill="#181818" points="634.2,740.3922,627.2,743.1922,634.2,745.9922,631.4,743.1922" style="stroke:#181818;stroke-width:0.6999999999999998;"/><line style="stroke:#181818;stroke-width:0.6999999999999998;" x1="630" x2="1258.6" y1="743.1922" y2="743.1922"/><line style="stroke:#000000;stroke-width:0.6999999999999998;stroke-dasharray:2.0,2.0;" x1="570.5" x2="1842.75" y1="749.4922" y2="749.4922"/><text fill="#000000" font-family="sans-serif" font-size="7.7" font-weight="bold" lengthAdjust="spacing" textLength="35.7" x="574" y="756.4628">[student]</text><polygon fill="#181818" points="998.2,770.3609,1005.2,773.1609,998.2,775.9609,1001,773.1609" style="stroke:#181818;stroke-width:0.6999999999999998;"/><line style="stroke:#181818;stroke-width:0.6999999999999998;" x1="626.5" x2="1002.4" y1="773.1609" y2="773.1609"/><text fill="#000000" font-family="sans-serif" font-size="9.1" lengthAdjust="spacing" textLength="362.6" x="631.4" y="769.8325">registerStudent(email,password,fullName,shortName,acronym,birthDate,taxPayerNumber)</text><polygon fill="#181818" points="1437.8,790.3273,1444.8,793.1273,1437.8,795.9273,1440.6,793.1273" style="stroke:#181818;stroke-width:0.6999999999999998;"/><line style="stroke:#181818;stroke-width:0.6999999999999998;" x1="1013.6" x2="1442" y1="793.1273" y2="793.1273"/><text fill="#000000" font-family="sans-serif" font-size="9.1" lengthAdjust="spacing" textLength="30.8" x="1018.5" y="789.7989">create()</text><polygon fill="#181818" points="1434.3,810.2937,1441.3,813.0937,1434.3,815.8937,1437.1,813.0937" style="stroke:#181818;stroke-width:0.6999999999999998;"/><line style="stroke:#181818;stroke-width:0.6999999999999998;" x1="1013.6" x2="1438.5" y1="813.0937" y2="813.0937"/><text fill="#000000" font-family="sans-serif" font-size="9.1" lengthAdjust="spacing" textLength="293.3" x="1018.5" y="809.7653">with(email,rawPassword,fullName,shortname,birthDate,taxPayerNumber)</text><polygon fill="#181818" points="1021.3,820.0937,1014.3,822.8937,1021.3,825.6937,1018.5,822.8937" style="stroke:#181818;stroke-width:0.6999999999999998;"/><line style="stroke:#181818;stroke-width:0.6999999999999998;" x1="1017.1" x2="1445.5" y1="822.8937" y2="822.8937"/><polygon fill="#181818" points="1680.35,840.0602,1687.35,842.8602,1680.35,845.6602,1683.15,842.8602" style="stroke:#181818;stroke-width:0.6999999999999998;"/><line style="stroke:#181818;stroke-width:0.6999999999999998;" x1="1446.2" x2="1684.55" y1="842.8602" y2="842.8602"/><text fill="#000000" font-family="sans-serif" font-size="9.1" lengthAdjust="spacing" textLength="30.8" x="1451.1" y="839.5317">create()</text><polygon fill="#181818" points="1434.3,860.0266,1441.3,862.8266,1434.3,865.6266,1437.1,862.8266" style="stroke:#181818;stroke-width:0.6999999999999998;"/><line style="stroke:#181818;stroke-width:0.6999999999999998;" x1="1013.6" x2="1438.5" y1="862.8266" y2="862.8266"/><text fill="#000000" font-family="sans-serif" font-size="9.1" lengthAdjust="spacing" textLength="24.5" x="1018.5" y="859.4981">build()</text><polygon fill="#181818" points="1021.3,869.8266,1014.3,872.6266,1021.3,875.4266,1018.5,872.6266" style="stroke:#181818;stroke-width:0.6999999999999998;"/><line style="stroke:#181818;stroke-width:0.6999999999999998;" x1="1017.1" x2="1445.5" y1="872.6266" y2="872.6266"/><polygon fill="#181818" points="1156.4,889.793,1163.4,892.593,1156.4,895.393,1159.2,892.593" style="stroke:#181818;stroke-width:0.6999999999999998;"/><line style="stroke:#181818;stroke-width:0.6999999999999998;" x1="1013.6" x2="1160.6" y1="892.593" y2="892.593"/><text fill="#000000" font-family="sans-serif" font-size="9.1" lengthAdjust="spacing" textLength="71.4" x="1018.5" y="889.2646">save(newStudent)</text><polygon fill="#181818" points="634.2,899.593,627.2,902.393,634.2,905.193,631.4,902.393" style="stroke:#181818;stroke-width:0.6999999999999998;"/><line style="stroke:#181818;stroke-width:0.6999999999999998;" x1="630" x2="1164.1" y1="902.393" y2="902.393"/><polygon fill="#181818" points="254.1,914.293,247.1,917.093,254.1,919.893,251.3,917.093" style="stroke:#181818;stroke-width:0.6999999999999998;"/><line style="stroke:#181818;stroke-width:0.6999999999999998;" x1="249.9" x2="622.3" y1="917.093" y2="917.093"/><polygon fill="#181818" points="32.9,934.2594,25.9,937.0594,32.9,939.8594,30.1,937.0594" style="stroke:#181818;stroke-width:0.6999999999999998;"/><line style="stroke:#181818;stroke-width:0.6999999999999998;stroke-dasharray:2.0,2.0;" x1="28.7" x2="238.7" y1="937.0594" y2="937.0594"/><text fill="#000000" font-family="sans-serif" font-size="9.1" lengthAdjust="spacing" textLength="50.4" x="37.1" y="933.731">user created</text><!--SRC=[jLNDRk903Bxp52DEe8ONG1NITlUo1wggIVTk4aD6cyn4CnEolFrwVXAID05ww0d7zkU_psCWDLAnFGWueMAWMKdYeW9bUCeh48OjVsJPXqRryNjfxJLdpy-LGet2WE5Ix7QJxZ-bC4eM1Ie7Iuqg20XLLV3q5Yv6TUOfEf0-fxSnBw3nNHQedJkbG_BFP0dSkcPWu40UR1cREgDwtx6IcbF35-zFdp41LASUW1A4D4Sr0KhcGM6I4w3z63Je95JuKlCY2oCxUDbM6CGnA5Gu0KhcGQ722T1-7XJAywnukJ_fgQgSh_7oh6yePjbktcdeIykssRdTsR9K8HWarTDJq5kHRLacurmsgpLfDnjd8fiDHZRGVw-1ZxJfN1pbmXatBWBvS57LHZiBMo5bBg8Aj6waog9ZNHIlK6AaSwcCbTR3vAHlt0Rsy_kIdVs4nfgJI-LSt3FOxEocEhEGmYxz7oXgPtSh7F3kWo9QEVpun5CzjeEsFLhST8ykl3moaoEhAMyNrBwqteW7BO1_cEFHiC-pYMny7K6gfBYKqO4ha_-YY961VszmGVLQbmTKwuLDHody0zo6j3rbCgNSTqee35LLSj6ltzMgyCIreLNsb3z2PyZGlO5s3AjF9fUXuIOFOHKqRzEHXOlSXVG5Tjz4Pj_KhkUTnEvZTJFgS5XCmnbN0fim3DekPsZN2miwM65lHelGZZ4yvVjZV9ppxa3DjfjyRSuFfEvo3aUMZ8Xetz2ToaP4j55PF-nmbpicmZmz4ycGYN1MPvW81_WRc8Zd-us_oCHT1k8H0_6L0MyAVortAXenC1LrU64w0i8OFG7nbG2HzUzhkBY3CslFPQWgMop-0m00]--></g></svg>