<?xml version="1.0" encoding="us-ascii" standalone="no"?><svg xmlns="http://www.w3.org/2000/svg" xmlns:xlink="http://www.w3.org/1999/xlink" contentStyleType="text/css" height="587px" preserveAspectRatio="none" style="width:328px;height:587px;background:#FFFFFF;" version="1.1" viewBox="0 0 328 587" width="328px" zoomAndPan="magnify"><defs/><g><!--class DeactivateActivateUserUI--><g id="elem_DeactivateActivateUserUI"><rect codeLine="1" fill="#F1F1F1" height="70.6875" id="DeactivateActivateUserUI" rx="2.5" ry="2.5" style="stroke:#181818;stroke-width:0.5;" width="190" x="52.5" y="7"/><ellipse cx="67.5" cy="26.5234" fill="#ADD1B2" rx="11" ry="11" style="stroke:#181818;stroke-width:1.0;"/><path d="M69.5,23.0234 Q69.7031,22.5234 69.9375,22.2734 Q70.1719,22.0234 70.4375,22.0234 Q70.9063,22.0234 71.2031,22.3047 Q71.5,22.5859 71.5,23.2422 L71.5,24.8047 Q71.5,25.4609 71.2188,25.7422 Q70.9375,26.0234 70.5,26.0234 Q70.1094,26.0234 69.8594,25.8516 Q69.6094,25.6797 69.5,25.2266 Q69.4531,24.9141 69.2813,24.7422 Q68.9688,24.4141 68.4063,24.2266 Q67.8438,24.0234 67.2813,24.0234 Q66.5781,24.0234 65.9844,24.3047 Q65.4063,24.5859 64.9531,25.2109 Q64.5,25.8359 64.5,26.6953 L64.5,27.6172 Q64.5,28.6484 65.3438,29.3359 Q66.1875,30.0234 67.6875,30.0234 Q68.5781,30.0234 69.2031,29.8203 Q69.5625,29.7109 69.9688,29.3516 Q70.2344,29.1484 70.375,29.0859 Q70.5156,29.0234 70.6875,29.0234 Q71.0156,29.0234 71.25,29.2891 Q71.5,29.5391 71.5,29.8984 Q71.5,30.2422 71.1563,30.6484 Q70.6563,31.2422 69.8594,31.5703 Q68.8125,32.0234 67.5313,32.0234 Q66.0313,32.0234 64.8281,31.4297 Q63.8594,30.9609 63.1719,29.9453 Q62.5,28.9297 62.5,27.7266 L62.5,26.6328 Q62.5,25.3828 63.0938,24.2891 Q63.7031,23.1953 64.75,22.6172 Q65.8125,22.0234 67,22.0234 Q67.7188,22.0234 68.3438,22.2734 Q68.9688,22.5234 69.5,23.0234 Z " fill="#000000"/><text fill="#000000" font-family="sans-serif" font-size="12" font-style="italic" lengthAdjust="spacing" textLength="82" x="119.5" y="22.8633">&#171;presentation&#187;</text><text fill="#000000" font-family="sans-serif" font-size="14" lengthAdjust="spacing" textLength="158" x="81.5" y="38.0801">DeactivateActivateUserUI</text><line style="stroke:#181818;stroke-width:0.5;" x1="53.5" x2="241.5" y1="46.0469" y2="46.0469"/><line style="stroke:#181818;stroke-width:0.5;" x1="53.5" x2="241.5" y1="54.0469" y2="54.0469"/><ellipse cx="63.5" cy="67.3672" fill="#84BE84" rx="3" ry="3" style="stroke:#038048;stroke-width:1.0;"/><text fill="#000000" font-family="sans-serif" font-size="14" lengthAdjust="spacing" textLength="60" x="72.5" y="70.7207">doShow()</text></g><!--class DeactivateActivateUserController--><g id="elem_DeactivateActivateUserController"><rect codeLine="5" fill="#F1F1F1" height="117.6094" id="DeactivateActivateUserController" rx="2.5" ry="2.5" style="stroke:#181818;stroke-width:0.5;" width="240" x="27.5" y="138"/><ellipse cx="42.5" cy="157.5234" fill="#ADD1B2" rx="11" ry="11" style="stroke:#181818;stroke-width:1.0;"/><path d="M44.5,154.0234 Q44.7031,153.5234 44.9375,153.2734 Q45.1719,153.0234 45.4375,153.0234 Q45.9063,153.0234 46.2031,153.3047 Q46.5,153.5859 46.5,154.2422 L46.5,155.8047 Q46.5,156.4609 46.2188,156.7422 Q45.9375,157.0234 45.5,157.0234 Q45.1094,157.0234 44.8594,156.8516 Q44.6094,156.6797 44.5,156.2266 Q44.4531,155.9141 44.2813,155.7422 Q43.9688,155.4141 43.4063,155.2266 Q42.8438,155.0234 42.2813,155.0234 Q41.5781,155.0234 40.9844,155.3047 Q40.4063,155.5859 39.9531,156.2109 Q39.5,156.8359 39.5,157.6953 L39.5,158.6172 Q39.5,159.6484 40.3438,160.3359 Q41.1875,161.0234 42.6875,161.0234 Q43.5781,161.0234 44.2031,160.8203 Q44.5625,160.7109 44.9688,160.3516 Q45.2344,160.1484 45.375,160.0859 Q45.5156,160.0234 45.6875,160.0234 Q46.0156,160.0234 46.25,160.2891 Q46.5,160.5391 46.5,160.8984 Q46.5,161.2422 46.1563,161.6484 Q45.6563,162.2422 44.8594,162.5703 Q43.8125,163.0234 42.5313,163.0234 Q41.0313,163.0234 39.8281,162.4297 Q38.8594,161.9609 38.1719,160.9453 Q37.5,159.9297 37.5,158.7266 L37.5,157.6328 Q37.5,156.3828 38.0938,155.2891 Q38.7031,154.1953 39.75,153.6172 Q40.8125,153.0234 42,153.0234 Q42.7188,153.0234 43.3438,153.2734 Q43.9688,153.5234 44.5,154.0234 Z " fill="#000000"/><text fill="#000000" font-family="sans-serif" font-size="12" font-style="italic" lengthAdjust="spacing" textLength="74" x="123.5" y="153.8633">&#171;application&#187;</text><text fill="#000000" font-family="sans-serif" font-size="14" lengthAdjust="spacing" textLength="208" x="56.5" y="169.0801">DeactivateActivateUserController</text><line style="stroke:#181818;stroke-width:0.5;" x1="28.5" x2="266.5" y1="177.0469" y2="177.0469"/><line style="stroke:#181818;stroke-width:0.5;" x1="28.5" x2="266.5" y1="185.0469" y2="185.0469"/><ellipse cx="38.5" cy="198.3672" fill="#84BE84" rx="3" ry="3" style="stroke:#038048;stroke-width:1.0;"/><text fill="#000000" font-family="sans-serif" font-size="14" lengthAdjust="spacing" textLength="83" x="47.5" y="201.7207">activeUsers()</text><ellipse cx="38.5" cy="214.0078" fill="#84BE84" rx="3" ry="3" style="stroke:#038048;stroke-width:1.0;"/><text fill="#000000" font-family="sans-serif" font-size="14" lengthAdjust="spacing" textLength="99" x="47.5" y="217.3613">deactiveUsers()</text><ellipse cx="38.5" cy="229.6484" fill="#84BE84" rx="3" ry="3" style="stroke:#038048;stroke-width:1.0;"/><text fill="#000000" font-family="sans-serif" font-size="14" lengthAdjust="spacing" textLength="116" x="47.5" y="233.002">activateUser(user)</text><ellipse cx="38.5" cy="245.2891" fill="#84BE84" rx="3" ry="3" style="stroke:#038048;stroke-width:1.0;"/><text fill="#000000" font-family="sans-serif" font-size="14" lengthAdjust="spacing" textLength="132" x="47.5" y="248.6426">deactivateUser(user)</text></g><!--class UserManagementService--><g id="elem_UserManagementService"><rect codeLine="12" fill="#F1F1F1" height="117.6094" id="UserManagementService" rx="2.5" ry="2.5" style="stroke:#181818;stroke-width:0.5;" width="190" x="52.5" y="316"/><ellipse cx="67.5" cy="335.5234" fill="#ADD1B2" rx="11" ry="11" style="stroke:#181818;stroke-width:1.0;"/><path d="M69.5,332.0234 Q69.7031,331.5234 69.9375,331.2734 Q70.1719,331.0234 70.4375,331.0234 Q70.9063,331.0234 71.2031,331.3047 Q71.5,331.5859 71.5,332.2422 L71.5,333.8047 Q71.5,334.4609 71.2188,334.7422 Q70.9375,335.0234 70.5,335.0234 Q70.1094,335.0234 69.8594,334.8516 Q69.6094,334.6797 69.5,334.2266 Q69.4531,333.9141 69.2813,333.7422 Q68.9688,333.4141 68.4063,333.2266 Q67.8438,333.0234 67.2813,333.0234 Q66.5781,333.0234 65.9844,333.3047 Q65.4063,333.5859 64.9531,334.2109 Q64.5,334.8359 64.5,335.6953 L64.5,336.6172 Q64.5,337.6484 65.3438,338.3359 Q66.1875,339.0234 67.6875,339.0234 Q68.5781,339.0234 69.2031,338.8203 Q69.5625,338.7109 69.9688,338.3516 Q70.2344,338.1484 70.375,338.0859 Q70.5156,338.0234 70.6875,338.0234 Q71.0156,338.0234 71.25,338.2891 Q71.5,338.5391 71.5,338.8984 Q71.5,339.2422 71.1563,339.6484 Q70.6563,340.2422 69.8594,340.5703 Q68.8125,341.0234 67.5313,341.0234 Q66.0313,341.0234 64.8281,340.4297 Q63.8594,339.9609 63.1719,338.9453 Q62.5,337.9297 62.5,336.7266 L62.5,335.6328 Q62.5,334.3828 63.0938,333.2891 Q63.7031,332.1953 64.75,331.6172 Q65.8125,331.0234 67,331.0234 Q67.7188,331.0234 68.3438,331.2734 Q68.9688,331.5234 69.5,332.0234 Z " fill="#000000"/><text fill="#000000" font-family="sans-serif" font-size="12" font-style="italic" lengthAdjust="spacing" textLength="74" x="123.5" y="331.8633">&#171;application&#187;</text><text fill="#000000" font-family="sans-serif" font-size="14" lengthAdjust="spacing" textLength="158" x="81.5" y="347.0801">UserManagementService</text><line style="stroke:#181818;stroke-width:0.5;" x1="53.5" x2="241.5" y1="355.0469" y2="355.0469"/><line style="stroke:#181818;stroke-width:0.5;" x1="53.5" x2="241.5" y1="363.0469" y2="363.0469"/><ellipse cx="63.5" cy="376.3672" fill="#84BE84" rx="3" ry="3" style="stroke:#038048;stroke-width:1.0;"/><text fill="#000000" font-family="sans-serif" font-size="14" lengthAdjust="spacing" textLength="83" x="72.5" y="379.7207">activeUsers()</text><ellipse cx="63.5" cy="392.0078" fill="#84BE84" rx="3" ry="3" style="stroke:#038048;stroke-width:1.0;"/><text fill="#000000" font-family="sans-serif" font-size="14" lengthAdjust="spacing" textLength="132" x="72.5" y="395.3613">deactivateUser(user)</text><ellipse cx="63.5" cy="407.6484" fill="#84BE84" rx="3" ry="3" style="stroke:#038048;stroke-width:1.0;"/><text fill="#000000" font-family="sans-serif" font-size="14" lengthAdjust="spacing" textLength="116" x="72.5" y="411.002">activateUser(user)</text><ellipse cx="63.5" cy="423.2891" fill="#84BE84" rx="3" ry="3" style="stroke:#038048;stroke-width:1.0;"/><text fill="#000000" font-family="sans-serif" font-size="14" lengthAdjust="spacing" textLength="118" x="72.5" y="426.6426">deactivatedusers()</text></g><!--class SystemUser--><g id="elem_SystemUser"><rect codeLine="19" fill="#F1F1F1" height="86.3281" id="SystemUser" rx="2.5" ry="2.5" style="stroke:#181818;stroke-width:0.5;" width="107" x="7" y="494"/><ellipse cx="22" cy="513.5234" fill="#ADD1B2" rx="11" ry="11" style="stroke:#181818;stroke-width:1.0;"/><path d="M24,510.0234 Q24.2031,509.5234 24.4375,509.2734 Q24.6719,509.0234 24.9375,509.0234 Q25.4063,509.0234 25.7031,509.3047 Q26,509.5859 26,510.2422 L26,511.8047 Q26,512.4609 25.7188,512.7422 Q25.4375,513.0234 25,513.0234 Q24.6094,513.0234 24.3594,512.8516 Q24.1094,512.6797 24,512.2266 Q23.9531,511.9141 23.7813,511.7422 Q23.4688,511.4141 22.9063,511.2266 Q22.3438,511.0234 21.7813,511.0234 Q21.0781,511.0234 20.4844,511.3047 Q19.9063,511.5859 19.4531,512.2109 Q19,512.8359 19,513.6953 L19,514.6172 Q19,515.6484 19.8438,516.3359 Q20.6875,517.0234 22.1875,517.0234 Q23.0781,517.0234 23.7031,516.8203 Q24.0625,516.7109 24.4688,516.3516 Q24.7344,516.1484 24.875,516.0859 Q25.0156,516.0234 25.1875,516.0234 Q25.5156,516.0234 25.75,516.2891 Q26,516.5391 26,516.8984 Q26,517.2422 25.6563,517.6484 Q25.1563,518.2422 24.3594,518.5703 Q23.3125,519.0234 22.0313,519.0234 Q20.5313,519.0234 19.3281,518.4297 Q18.3594,517.9609 17.6719,516.9453 Q17,515.9297 17,514.7266 L17,513.6328 Q17,512.3828 17.5938,511.2891 Q18.2031,510.1953 19.25,509.6172 Q20.3125,509.0234 21.5,509.0234 Q22.2188,509.0234 22.8438,509.2734 Q23.4688,509.5234 24,510.0234 Z " fill="#000000"/><text fill="#000000" font-family="sans-serif" font-size="12" font-style="italic" lengthAdjust="spacing" textLength="56" x="45.5" y="509.8633">&#171;domain&#187;</text><text fill="#000000" font-family="sans-serif" font-size="14" lengthAdjust="spacing" textLength="75" x="36" y="525.0801">SystemUser</text><line style="stroke:#181818;stroke-width:0.5;" x1="8" x2="113" y1="533.0469" y2="533.0469"/><line style="stroke:#181818;stroke-width:0.5;" x1="8" x2="113" y1="541.0469" y2="541.0469"/><ellipse cx="18" cy="554.3672" fill="#84BE84" rx="3" ry="3" style="stroke:#038048;stroke-width:1.0;"/><text fill="#000000" font-family="sans-serif" font-size="14" lengthAdjust="spacing" textLength="59" x="27" y="557.7207">activate()</text><ellipse cx="18" cy="570.0078" fill="#84BE84" rx="3" ry="3" style="stroke:#038048;stroke-width:1.0;"/><text fill="#000000" font-family="sans-serif" font-size="14" lengthAdjust="spacing" textLength="75" x="27" y="573.3613">deactivate()</text></g><!--class UserRepository--><g id="elem_UserRepository"><rect codeLine="24" fill="#F1F1F1" height="70.6875" id="UserRepository" rx="2.5" ry="2.5" style="stroke:#181818;stroke-width:0.5;" width="172" x="149.5" y="501.5"/><ellipse cx="183.85" cy="521.0234" fill="#ADD1B2" rx="11" ry="11" style="stroke:#181818;stroke-width:1.0;"/><path d="M185.85,517.5234 Q186.0531,517.0234 186.2875,516.7734 Q186.5219,516.5234 186.7875,516.5234 Q187.2563,516.5234 187.5531,516.8047 Q187.85,517.0859 187.85,517.7422 L187.85,519.3047 Q187.85,519.9609 187.5688,520.2422 Q187.2875,520.5234 186.85,520.5234 Q186.4594,520.5234 186.2094,520.3516 Q185.9594,520.1797 185.85,519.7266 Q185.8031,519.4141 185.6313,519.2422 Q185.3188,518.9141 184.7563,518.7266 Q184.1938,518.5234 183.6313,518.5234 Q182.9281,518.5234 182.3344,518.8047 Q181.7563,519.0859 181.3031,519.7109 Q180.85,520.3359 180.85,521.1953 L180.85,522.1172 Q180.85,523.1484 181.6938,523.8359 Q182.5375,524.5234 184.0375,524.5234 Q184.9281,524.5234 185.5531,524.3203 Q185.9125,524.2109 186.3188,523.8516 Q186.5844,523.6484 186.725,523.5859 Q186.8656,523.5234 187.0375,523.5234 Q187.3656,523.5234 187.6,523.7891 Q187.85,524.0391 187.85,524.3984 Q187.85,524.7422 187.5063,525.1484 Q187.0063,525.7422 186.2094,526.0703 Q185.1625,526.5234 183.8813,526.5234 Q182.3813,526.5234 181.1781,525.9297 Q180.2094,525.4609 179.5219,524.4453 Q178.85,523.4297 178.85,522.2266 L178.85,521.1328 Q178.85,519.8828 179.4438,518.7891 Q180.0531,517.6953 181.1,517.1172 Q182.1625,516.5234 183.35,516.5234 Q184.0688,516.5234 184.6938,516.7734 Q185.3188,517.0234 185.85,517.5234 Z " fill="#000000"/><text fill="#000000" font-family="sans-serif" font-size="12" font-style="italic" lengthAdjust="spacing" textLength="68" x="216.65" y="517.3633">&#171;repository&#187;</text><text fill="#000000" font-family="sans-serif" font-size="14" lengthAdjust="spacing" textLength="97" x="202.15" y="532.5801">UserRepository</text><line style="stroke:#181818;stroke-width:0.5;" x1="150.5" x2="320.5" y1="540.5469" y2="540.5469"/><line style="stroke:#181818;stroke-width:0.5;" x1="150.5" x2="320.5" y1="548.5469" y2="548.5469"/><ellipse cx="160.5" cy="561.8672" fill="#84BE84" rx="3" ry="3" style="stroke:#038048;stroke-width:1.0;"/><text fill="#000000" font-family="sans-serif" font-size="14" lengthAdjust="spacing" textLength="146" x="169.5" y="565.2207">findByActive(true/false)</text></g><!--link DeactivateActivateUserUI to DeactivateActivateUserController--><g id="link_DeactivateActivateUserUI_DeactivateActivateUserController"><path codeLine="28" d="M147.5,78.1 C147.5,94.25 147.5,113.99 147.5,132.66 " fill="none" id="DeactivateActivateUserUI-to-DeactivateActivateUserController" style="stroke:#181818;stroke-width:1.0;"/><polygon fill="#181818" points="147.5,137.9,151.5,128.9,147.5,132.9,143.5,128.9,147.5,137.9" style="stroke:#181818;stroke-width:1.0;"/></g><!--link DeactivateActivateUserController to UserManagementService--><g id="link_DeactivateActivateUserController_UserManagementService"><path codeLine="29" d="M147.5,256.12 C147.5,273.69 147.5,293.07 147.5,310.94 " fill="none" id="DeactivateActivateUserController-to-UserManagementService" style="stroke:#181818;stroke-width:1.0;"/><polygon fill="#181818" points="147.5,315.94,151.5,306.94,147.5,310.94,143.5,306.94,147.5,315.94" style="stroke:#181818;stroke-width:1.0;"/></g><!--link UserManagementService to SystemUser--><g id="link_UserManagementService_SystemUser"><path codeLine="30" d="M115.84,434.22 C106.07,452.18 95.44,471.74 86.13,488.86 " fill="none" id="UserManagementService-to-SystemUser" style="stroke:#181818;stroke-width:1.0;"/><polygon fill="#181818" points="83.54,493.62,91.3462,487.6148,85.9233,489.2245,84.3135,483.8016,83.54,493.62" style="stroke:#181818;stroke-width:1.0;"/></g><!--link UserManagementService to UserRepository--><g id="link_UserManagementService_UserRepository"><path codeLine="31" d="M179.52,434.22 C190.94,454.97 203.52,477.85 213.86,496.65 " fill="none" id="UserManagementService-to-UserRepository" style="stroke:#181818;stroke-width:1.0;"/><polygon fill="#181818" points="216.43,501.33,215.5939,491.5167,214.0188,496.9498,208.5856,495.3747,216.43,501.33" style="stroke:#181818;stroke-width:1.0;"/></g><!--SRC=[ZP5D2eCm48NtEOLBYqWl849_DbrqK_40GpAsWPX84YrIUlT6A_vXjPk43EzzRp931HZZdH6evHLOF7HtQb2d5o-A2eq6fGNBbOpZ5mcOIXxgwU_8cn2wuZufQRKI0hMZG548JZk8voYjezKPXmeOpWem8lcbEmRHjDftqTIk8E6EkUitGLrnYlz7pxBMyrdPkVlqf3OMyqRj8fdAWO_Jd6KQvSyQls6X3BTArywk-ySNaN79ZdKxM_IjBd6VWJ3O8dvkBWpZpSMGpSqrbCN1akLnD_fX52kYwQS9-G00]--></g></svg>