<?xml version="1.0" encoding="us-ascii" standalone="no"?><svg xmlns="http://www.w3.org/2000/svg" xmlns:xlink="http://www.w3.org/1999/xlink" contentStyleType="text/css" height="669px" preserveAspectRatio="none" style="width:2033px;height:669px;background:#FFFFFF;" version="1.1" viewBox="0 0 2033 669" width="2033px" zoomAndPan="magnify"><defs/><g><!--class AddUserUI--><g id="elem_AddUserUI"><rect codeLine="1" fill="#F1F1F1" height="86.3281" id="AddUserUI" rx="2.5" ry="2.5" style="stroke:#181818;stroke-width:0.5;" width="110" x="788" y="7"/><ellipse cx="803" cy="26.5234" fill="#ADD1B2" rx="11" ry="11" style="stroke:#181818;stroke-width:1.0;"/><path d="M805,23.0234 Q805.2031,22.5234 805.4375,22.2734 Q805.6719,22.0234 805.9375,22.0234 Q806.4063,22.0234 806.7031,22.3047 Q807,22.5859 807,23.2422 L807,24.8047 Q807,25.4609 806.7188,25.7422 Q806.4375,26.0234 806,26.0234 Q805.6094,26.0234 805.3594,25.8516 Q805.1094,25.6797 805,25.2266 Q804.9531,24.9141 804.7813,24.7422 Q804.4688,24.4141 803.9063,24.2266 Q803.3438,24.0234 802.7813,24.0234 Q802.0781,24.0234 801.4844,24.3047 Q800.9063,24.5859 800.4531,25.2109 Q800,25.8359 800,26.6953 L800,27.6172 Q800,28.6484 800.8438,29.3359 Q801.6875,30.0234 803.1875,30.0234 Q804.0781,30.0234 804.7031,29.8203 Q805.0625,29.7109 805.4688,29.3516 Q805.7344,29.1484 805.875,29.0859 Q806.0156,29.0234 806.1875,29.0234 Q806.5156,29.0234 806.75,29.2891 Q807,29.5391 807,29.8984 Q807,30.2422 806.6563,30.6484 Q806.1563,31.2422 805.3594,31.5703 Q804.3125,32.0234 803.0313,32.0234 Q801.5313,32.0234 800.3281,31.4297 Q799.3594,30.9609 798.6719,29.9453 Q798,28.9297 798,27.7266 L798,26.6328 Q798,25.3828 798.5938,24.2891 Q799.2031,23.1953 800.25,22.6172 Q801.3125,22.0234 802.5,22.0234 Q803.2188,22.0234 803.8438,22.2734 Q804.4688,22.5234 805,23.0234 Z " fill="#000000"/><text fill="#000000" font-family="sans-serif" font-size="12" font-style="italic" lengthAdjust="spacing" textLength="82" x="815" y="22.8633">&#171;presentation&#187;</text><text fill="#000000" font-family="sans-serif" font-size="14" lengthAdjust="spacing" textLength="66" x="823" y="38.0801">AddUserUI</text><line style="stroke:#181818;stroke-width:0.5;" x1="789" x2="897" y1="46.0469" y2="46.0469"/><line style="stroke:#181818;stroke-width:0.5;" x1="789" x2="897" y1="54.0469" y2="54.0469"/><ellipse cx="799" cy="67.3672" fill="#84BE84" rx="3" ry="3" style="stroke:#038048;stroke-width:1.0;"/><text fill="#000000" font-family="sans-serif" font-size="14" lengthAdjust="spacing" textLength="60" x="808" y="70.7207">doShow()</text><ellipse cx="799" cy="83.0078" fill="#84BE84" rx="3" ry="3" style="stroke:#038048;stroke-width:1.0;"/><text fill="#000000" font-family="sans-serif" font-size="14" lengthAdjust="spacing" textLength="78" x="808" y="86.3613">showRoles()</text></g><!--class AddUserController--><g id="elem_AddUserController"><rect codeLine="6" fill="#F1F1F1" height="86.3281" id="AddUserController" rx="2.5" ry="2.5" style="stroke:#181818;stroke-width:0.5;" width="579" x="553.5" y="153"/><ellipse cx="780.75" cy="172.5234" fill="#ADD1B2" rx="11" ry="11" style="stroke:#181818;stroke-width:1.0;"/><path d="M782.75,169.0234 Q782.9531,168.5234 783.1875,168.2734 Q783.4219,168.0234 783.6875,168.0234 Q784.1563,168.0234 784.4531,168.3047 Q784.75,168.5859 784.75,169.2422 L784.75,170.8047 Q784.75,171.4609 784.4688,171.7422 Q784.1875,172.0234 783.75,172.0234 Q783.3594,172.0234 783.1094,171.8516 Q782.8594,171.6797 782.75,171.2266 Q782.7031,170.9141 782.5313,170.7422 Q782.2188,170.4141 781.6563,170.2266 Q781.0938,170.0234 780.5313,170.0234 Q779.8281,170.0234 779.2344,170.3047 Q778.6563,170.5859 778.2031,171.2109 Q777.75,171.8359 777.75,172.6953 L777.75,173.6172 Q777.75,174.6484 778.5938,175.3359 Q779.4375,176.0234 780.9375,176.0234 Q781.8281,176.0234 782.4531,175.8203 Q782.8125,175.7109 783.2188,175.3516 Q783.4844,175.1484 783.625,175.0859 Q783.7656,175.0234 783.9375,175.0234 Q784.2656,175.0234 784.5,175.2891 Q784.75,175.5391 784.75,175.8984 Q784.75,176.2422 784.4063,176.6484 Q783.9063,177.2422 783.1094,177.5703 Q782.0625,178.0234 780.7813,178.0234 Q779.2813,178.0234 778.0781,177.4297 Q777.1094,176.9609 776.4219,175.9453 Q775.75,174.9297 775.75,173.7266 L775.75,172.6328 Q775.75,171.3828 776.3438,170.2891 Q776.9531,169.1953 778,168.6172 Q779.0625,168.0234 780.25,168.0234 Q780.9688,168.0234 781.5938,168.2734 Q782.2188,168.5234 782.75,169.0234 Z " fill="#000000"/><text fill="#000000" font-family="sans-serif" font-size="12" font-style="italic" lengthAdjust="spacing" textLength="74" x="822.25" y="168.8633">&#171;application&#187;</text><text fill="#000000" font-family="sans-serif" font-size="14" lengthAdjust="spacing" textLength="116" x="801.25" y="184.0801">AddUserController</text><line style="stroke:#181818;stroke-width:0.5;" x1="554.5" x2="1131.5" y1="192.0469" y2="192.0469"/><line style="stroke:#181818;stroke-width:0.5;" x1="554.5" x2="1131.5" y1="200.0469" y2="200.0469"/><ellipse cx="564.5" cy="213.3672" fill="#84BE84" rx="3" ry="3" style="stroke:#038048;stroke-width:1.0;"/><text fill="#000000" font-family="sans-serif" font-size="14" lengthAdjust="spacing" textLength="83" x="573.5" y="216.7207">activeUsers()</text><ellipse cx="564.5" cy="229.0078" fill="#84BE84" rx="3" ry="3" style="stroke:#038048;stroke-width:1.0;"/><text fill="#000000" font-family="sans-serif" font-size="14" lengthAdjust="spacing" textLength="553" x="573.5" y="232.3613">addUser(email,password,fullName,shortName,roles,acronym,birthDate,taxPayerNumber)</text></g><!--class AddUserService--><g id="elem_AddUserService"><rect codeLine="12" fill="#F1F1F1" height="101.9688" id="AddUserService" rx="2.5" ry="2.5" style="stroke:#181818;stroke-width:0.5;" width="591" x="349.5" y="299"/><ellipse cx="590.25" cy="318.5234" fill="#ADD1B2" rx="11" ry="11" style="stroke:#181818;stroke-width:1.0;"/><path d="M592.25,315.0234 Q592.4531,314.5234 592.6875,314.2734 Q592.9219,314.0234 593.1875,314.0234 Q593.6563,314.0234 593.9531,314.3047 Q594.25,314.5859 594.25,315.2422 L594.25,316.8047 Q594.25,317.4609 593.9688,317.7422 Q593.6875,318.0234 593.25,318.0234 Q592.8594,318.0234 592.6094,317.8516 Q592.3594,317.6797 592.25,317.2266 Q592.2031,316.9141 592.0313,316.7422 Q591.7188,316.4141 591.1563,316.2266 Q590.5938,316.0234 590.0313,316.0234 Q589.3281,316.0234 588.7344,316.3047 Q588.1563,316.5859 587.7031,317.2109 Q587.25,317.8359 587.25,318.6953 L587.25,319.6172 Q587.25,320.6484 588.0938,321.3359 Q588.9375,322.0234 590.4375,322.0234 Q591.3281,322.0234 591.9531,321.8203 Q592.3125,321.7109 592.7188,321.3516 Q592.9844,321.1484 593.125,321.0859 Q593.2656,321.0234 593.4375,321.0234 Q593.7656,321.0234 594,321.2891 Q594.25,321.5391 594.25,321.8984 Q594.25,322.2422 593.9063,322.6484 Q593.4063,323.2422 592.6094,323.5703 Q591.5625,324.0234 590.2813,324.0234 Q588.7813,324.0234 587.5781,323.4297 Q586.6094,322.9609 585.9219,321.9453 Q585.25,320.9297 585.25,319.7266 L585.25,318.6328 Q585.25,317.3828 585.8438,316.2891 Q586.4531,315.1953 587.5,314.6172 Q588.5625,314.0234 589.75,314.0234 Q590.4688,314.0234 591.0938,314.2734 Q591.7188,314.5234 592.25,315.0234 Z " fill="#000000"/><text fill="#000000" font-family="sans-serif" font-size="12" font-style="italic" lengthAdjust="spacing" textLength="74" x="624.25" y="314.8633">&#171;application&#187;</text><text fill="#000000" font-family="sans-serif" font-size="14" lengthAdjust="spacing" textLength="101" x="610.75" y="330.0801">AddUserService</text><line style="stroke:#181818;stroke-width:0.5;" x1="350.5" x2="939.5" y1="338.0469" y2="338.0469"/><line style="stroke:#181818;stroke-width:0.5;" x1="350.5" x2="939.5" y1="346.0469" y2="346.0469"/><ellipse cx="360.5" cy="359.3672" fill="#84BE84" rx="3" ry="3" style="stroke:#038048;stroke-width:1.0;"/><text fill="#000000" font-family="sans-serif" font-size="14" lengthAdjust="spacing" textLength="341" x="369.5" y="362.7207">registerManager(email,password,fullName,shortName)</text><ellipse cx="360.5" cy="375.0078" fill="#84BE84" rx="3" ry="3" style="stroke:#038048;stroke-width:1.0;"/><text fill="#000000" font-family="sans-serif" font-size="14" lengthAdjust="spacing" textLength="565" x="369.5" y="378.3613">registerTeacher(email,password,fullName,shortname,acronym,birthDate,taxPayerNumber)</text><ellipse cx="360.5" cy="390.6484" fill="#84BE84" rx="3" ry="3" style="stroke:#038048;stroke-width:1.0;"/><text fill="#000000" font-family="sans-serif" font-size="14" lengthAdjust="spacing" textLength="512" x="369.5" y="394.002">reegisterStudent(email,password,fullName,shortName,birthDate,taxPayerNumber)</text></g><!--class StudentRepository--><g id="elem_StudentRepository"><rect codeLine="18" fill="#F1F1F1" height="70.6875" id="StudentRepository" rx="2.5" ry="2.5" style="stroke:#181818;stroke-width:0.5;" width="172" x="7" y="468.5"/><ellipse cx="32.35" cy="488.0234" fill="#ADD1B2" rx="11" ry="11" style="stroke:#181818;stroke-width:1.0;"/><path d="M34.35,484.5234 Q34.5531,484.0234 34.7875,483.7734 Q35.0219,483.5234 35.2875,483.5234 Q35.7563,483.5234 36.0531,483.8047 Q36.35,484.0859 36.35,484.7422 L36.35,486.3047 Q36.35,486.9609 36.0688,487.2422 Q35.7875,487.5234 35.35,487.5234 Q34.9594,487.5234 34.7094,487.3516 Q34.4594,487.1797 34.35,486.7266 Q34.3031,486.4141 34.1313,486.2422 Q33.8188,485.9141 33.2563,485.7266 Q32.6938,485.5234 32.1313,485.5234 Q31.4281,485.5234 30.8344,485.8047 Q30.2563,486.0859 29.8031,486.7109 Q29.35,487.3359 29.35,488.1953 L29.35,489.1172 Q29.35,490.1484 30.1938,490.8359 Q31.0375,491.5234 32.5375,491.5234 Q33.4281,491.5234 34.0531,491.3203 Q34.4125,491.2109 34.8188,490.8516 Q35.0844,490.6484 35.225,490.5859 Q35.3656,490.5234 35.5375,490.5234 Q35.8656,490.5234 36.1,490.7891 Q36.35,491.0391 36.35,491.3984 Q36.35,491.7422 36.0063,492.1484 Q35.5063,492.7422 34.7094,493.0703 Q33.6625,493.5234 32.3813,493.5234 Q30.8813,493.5234 29.6781,492.9297 Q28.7094,492.4609 28.0219,491.4453 Q27.35,490.4297 27.35,489.2266 L27.35,488.1328 Q27.35,486.8828 27.9438,485.7891 Q28.5531,484.6953 29.6,484.1172 Q30.6625,483.5234 31.85,483.5234 Q32.5688,483.5234 33.1938,483.7734 Q33.8188,484.0234 34.35,484.5234 Z " fill="#000000"/><text fill="#000000" font-family="sans-serif" font-size="12" font-style="italic" lengthAdjust="spacing" textLength="68" x="73.15" y="484.3633">&#171;repository&#187;</text><text fill="#000000" font-family="sans-serif" font-size="14" lengthAdjust="spacing" textLength="117" x="48.65" y="499.5801">StudentRepository</text><line style="stroke:#181818;stroke-width:0.5;" x1="8" x2="178" y1="507.5469" y2="507.5469"/><line style="stroke:#181818;stroke-width:0.5;" x1="8" x2="178" y1="515.5469" y2="515.5469"/><ellipse cx="18" cy="528.8672" fill="#84BE84" rx="3" ry="3" style="stroke:#038048;stroke-width:1.0;"/><text fill="#000000" font-family="sans-serif" font-size="14" lengthAdjust="spacing" textLength="146" x="27" y="532.2207">findByActive(true/false)</text></g><!--class TeacherRepository--><g id="elem_TeacherRepository"><rect codeLine="22" fill="#F1F1F1" height="70.6875" id="TeacherRepository" rx="2.5" ry="2.5" style="stroke:#181818;stroke-width:0.5;" width="172" x="214" y="468.5"/><ellipse cx="237.55" cy="488.0234" fill="#ADD1B2" rx="11" ry="11" style="stroke:#181818;stroke-width:1.0;"/><path d="M239.55,484.5234 Q239.7531,484.0234 239.9875,483.7734 Q240.2219,483.5234 240.4875,483.5234 Q240.9563,483.5234 241.2531,483.8047 Q241.55,484.0859 241.55,484.7422 L241.55,486.3047 Q241.55,486.9609 241.2688,487.2422 Q240.9875,487.5234 240.55,487.5234 Q240.1594,487.5234 239.9094,487.3516 Q239.6594,487.1797 239.55,486.7266 Q239.5031,486.4141 239.3313,486.2422 Q239.0188,485.9141 238.4563,485.7266 Q237.8938,485.5234 237.3313,485.5234 Q236.6281,485.5234 236.0344,485.8047 Q235.4563,486.0859 235.0031,486.7109 Q234.55,487.3359 234.55,488.1953 L234.55,489.1172 Q234.55,490.1484 235.3938,490.8359 Q236.2375,491.5234 237.7375,491.5234 Q238.6281,491.5234 239.2531,491.3203 Q239.6125,491.2109 240.0188,490.8516 Q240.2844,490.6484 240.425,490.5859 Q240.5656,490.5234 240.7375,490.5234 Q241.0656,490.5234 241.3,490.7891 Q241.55,491.0391 241.55,491.3984 Q241.55,491.7422 241.2063,492.1484 Q240.7063,492.7422 239.9094,493.0703 Q238.8625,493.5234 237.5813,493.5234 Q236.0813,493.5234 234.8781,492.9297 Q233.9094,492.4609 233.2219,491.4453 Q232.55,490.4297 232.55,489.2266 L232.55,488.1328 Q232.55,486.8828 233.1438,485.7891 Q233.7531,484.6953 234.8,484.1172 Q235.8625,483.5234 237.05,483.5234 Q237.7688,483.5234 238.3938,483.7734 Q239.0188,484.0234 239.55,484.5234 Z " fill="#000000"/><text fill="#000000" font-family="sans-serif" font-size="12" font-style="italic" lengthAdjust="spacing" textLength="68" x="279.95" y="484.3633">&#171;repository&#187;</text><text fill="#000000" font-family="sans-serif" font-size="14" lengthAdjust="spacing" textLength="121" x="253.45" y="499.5801">TeacherRepository</text><line style="stroke:#181818;stroke-width:0.5;" x1="215" x2="385" y1="507.5469" y2="507.5469"/><line style="stroke:#181818;stroke-width:0.5;" x1="215" x2="385" y1="515.5469" y2="515.5469"/><ellipse cx="225" cy="528.8672" fill="#84BE84" rx="3" ry="3" style="stroke:#038048;stroke-width:1.0;"/><text fill="#000000" font-family="sans-serif" font-size="14" lengthAdjust="spacing" textLength="146" x="234" y="532.2207">findByActive(true/false)</text></g><!--class ManagerRepository--><g id="elem_ManagerRepository"><rect codeLine="26" fill="#F1F1F1" height="70.6875" id="ManagerRepository" rx="2.5" ry="2.5" style="stroke:#181818;stroke-width:0.5;" width="172" x="421" y="468.5"/><ellipse cx="443.2" cy="488.0234" fill="#ADD1B2" rx="11" ry="11" style="stroke:#181818;stroke-width:1.0;"/><path d="M445.2,484.5234 Q445.4031,484.0234 445.6375,483.7734 Q445.8719,483.5234 446.1375,483.5234 Q446.6063,483.5234 446.9031,483.8047 Q447.2,484.0859 447.2,484.7422 L447.2,486.3047 Q447.2,486.9609 446.9188,487.2422 Q446.6375,487.5234 446.2,487.5234 Q445.8094,487.5234 445.5594,487.3516 Q445.3094,487.1797 445.2,486.7266 Q445.1531,486.4141 444.9813,486.2422 Q444.6688,485.9141 444.1063,485.7266 Q443.5438,485.5234 442.9813,485.5234 Q442.2781,485.5234 441.6844,485.8047 Q441.1063,486.0859 440.6531,486.7109 Q440.2,487.3359 440.2,488.1953 L440.2,489.1172 Q440.2,490.1484 441.0438,490.8359 Q441.8875,491.5234 443.3875,491.5234 Q444.2781,491.5234 444.9031,491.3203 Q445.2625,491.2109 445.6688,490.8516 Q445.9344,490.6484 446.075,490.5859 Q446.2156,490.5234 446.3875,490.5234 Q446.7156,490.5234 446.95,490.7891 Q447.2,491.0391 447.2,491.3984 Q447.2,491.7422 446.8563,492.1484 Q446.3563,492.7422 445.5594,493.0703 Q444.5125,493.5234 443.2313,493.5234 Q441.7313,493.5234 440.5281,492.9297 Q439.5594,492.4609 438.8719,491.4453 Q438.2,490.4297 438.2,489.2266 L438.2,488.1328 Q438.2,486.8828 438.7938,485.7891 Q439.4031,484.6953 440.45,484.1172 Q441.5125,483.5234 442.7,483.5234 Q443.4188,483.5234 444.0438,483.7734 Q444.6688,484.0234 445.2,484.5234 Z " fill="#000000"/><text fill="#000000" font-family="sans-serif" font-size="12" font-style="italic" lengthAdjust="spacing" textLength="68" x="486.8" y="484.3633">&#171;repository&#187;</text><text fill="#000000" font-family="sans-serif" font-size="14" lengthAdjust="spacing" textLength="124" x="458.8" y="499.5801">ManagerRepository</text><line style="stroke:#181818;stroke-width:0.5;" x1="422" x2="592" y1="507.5469" y2="507.5469"/><line style="stroke:#181818;stroke-width:0.5;" x1="422" x2="592" y1="515.5469" y2="515.5469"/><ellipse cx="432" cy="528.8672" fill="#84BE84" rx="3" ry="3" style="stroke:#038048;stroke-width:1.0;"/><text fill="#000000" font-family="sans-serif" font-size="14" lengthAdjust="spacing" textLength="146" x="441" y="532.2207">findByActive(true/false)</text></g><!--class ManagerBuilder--><g id="elem_ManagerBuilder"><rect codeLine="30" fill="#F1F1F1" height="86.3281" id="ManagerBuilder" rx="2.5" ry="2.5" style="stroke:#181818;stroke-width:0.5;" width="310" x="628" y="461"/><ellipse cx="728.75" cy="480.5234" fill="#ADD1B2" rx="11" ry="11" style="stroke:#181818;stroke-width:1.0;"/><path d="M730.75,477.0234 Q730.9531,476.5234 731.1875,476.2734 Q731.4219,476.0234 731.6875,476.0234 Q732.1563,476.0234 732.4531,476.3047 Q732.75,476.5859 732.75,477.2422 L732.75,478.8047 Q732.75,479.4609 732.4688,479.7422 Q732.1875,480.0234 731.75,480.0234 Q731.3594,480.0234 731.1094,479.8516 Q730.8594,479.6797 730.75,479.2266 Q730.7031,478.9141 730.5313,478.7422 Q730.2188,478.4141 729.6563,478.2266 Q729.0938,478.0234 728.5313,478.0234 Q727.8281,478.0234 727.2344,478.3047 Q726.6563,478.5859 726.2031,479.2109 Q725.75,479.8359 725.75,480.6953 L725.75,481.6172 Q725.75,482.6484 726.5938,483.3359 Q727.4375,484.0234 728.9375,484.0234 Q729.8281,484.0234 730.4531,483.8203 Q730.8125,483.7109 731.2188,483.3516 Q731.4844,483.1484 731.625,483.0859 Q731.7656,483.0234 731.9375,483.0234 Q732.2656,483.0234 732.5,483.2891 Q732.75,483.5391 732.75,483.8984 Q732.75,484.2422 732.4063,484.6484 Q731.9063,485.2422 731.1094,485.5703 Q730.0625,486.0234 728.7813,486.0234 Q727.2813,486.0234 726.0781,485.4297 Q725.1094,484.9609 724.4219,483.9453 Q723.75,482.9297 723.75,481.7266 L723.75,480.6328 Q723.75,479.3828 724.3438,478.2891 Q724.9531,477.1953 726,476.6172 Q727.0625,476.0234 728.25,476.0234 Q728.9688,476.0234 729.5938,476.2734 Q730.2188,476.5234 730.75,477.0234 Z " fill="#000000"/><text fill="#000000" font-family="sans-serif" font-size="12" font-style="italic" lengthAdjust="spacing" textLength="53" x="772.75" y="476.8633">&#171;builder&#187;</text><text fill="#000000" font-family="sans-serif" font-size="14" lengthAdjust="spacing" textLength="100" x="749.25" y="492.0801">ManagerBuilder</text><line style="stroke:#181818;stroke-width:0.5;" x1="629" x2="937" y1="500.0469" y2="500.0469"/><line style="stroke:#181818;stroke-width:0.5;" x1="629" x2="937" y1="508.0469" y2="508.0469"/><ellipse cx="639" cy="521.3672" fill="#84BE84" rx="3" ry="3" style="stroke:#038048;stroke-width:1.0;"/><text fill="#000000" font-family="sans-serif" font-size="14" lengthAdjust="spacing" textLength="284" x="648" y="524.7207">with(email,rawPassword,fullName,shortName)</text><ellipse cx="639" cy="537.0078" fill="#84BE84" rx="3" ry="3" style="stroke:#038048;stroke-width:1.0;"/><text fill="#000000" font-family="sans-serif" font-size="14" lengthAdjust="spacing" textLength="40" x="648" y="540.3613">build()</text></g><!--class TeacherBuilder--><g id="elem_TeacherBuilder"><rect codeLine="35" fill="#F1F1F1" height="86.3281" id="TeacherBuilder" rx="2.5" ry="2.5" style="stroke:#181818;stroke-width:0.5;" width="538" x="973" y="461"/><ellipse cx="1189.25" cy="480.5234" fill="#ADD1B2" rx="11" ry="11" style="stroke:#181818;stroke-width:1.0;"/><path d="M1191.25,477.0234 Q1191.4531,476.5234 1191.6875,476.2734 Q1191.9219,476.0234 1192.1875,476.0234 Q1192.6563,476.0234 1192.9531,476.3047 Q1193.25,476.5859 1193.25,477.2422 L1193.25,478.8047 Q1193.25,479.4609 1192.9688,479.7422 Q1192.6875,480.0234 1192.25,480.0234 Q1191.8594,480.0234 1191.6094,479.8516 Q1191.3594,479.6797 1191.25,479.2266 Q1191.2031,478.9141 1191.0313,478.7422 Q1190.7188,478.4141 1190.1563,478.2266 Q1189.5938,478.0234 1189.0313,478.0234 Q1188.3281,478.0234 1187.7344,478.3047 Q1187.1563,478.5859 1186.7031,479.2109 Q1186.25,479.8359 1186.25,480.6953 L1186.25,481.6172 Q1186.25,482.6484 1187.0938,483.3359 Q1187.9375,484.0234 1189.4375,484.0234 Q1190.3281,484.0234 1190.9531,483.8203 Q1191.3125,483.7109 1191.7188,483.3516 Q1191.9844,483.1484 1192.125,483.0859 Q1192.2656,483.0234 1192.4375,483.0234 Q1192.7656,483.0234 1193,483.2891 Q1193.25,483.5391 1193.25,483.8984 Q1193.25,484.2422 1192.9063,484.6484 Q1192.4063,485.2422 1191.6094,485.5703 Q1190.5625,486.0234 1189.2813,486.0234 Q1187.7813,486.0234 1186.5781,485.4297 Q1185.6094,484.9609 1184.9219,483.9453 Q1184.25,482.9297 1184.25,481.7266 L1184.25,480.6328 Q1184.25,479.3828 1184.8438,478.2891 Q1185.4531,477.1953 1186.5,476.6172 Q1187.5625,476.0234 1188.75,476.0234 Q1189.4688,476.0234 1190.0938,476.2734 Q1190.7188,476.5234 1191.25,477.0234 Z " fill="#000000"/><text fill="#000000" font-family="sans-serif" font-size="12" font-style="italic" lengthAdjust="spacing" textLength="53" x="1231.75" y="476.8633">&#171;builder&#187;</text><text fill="#000000" font-family="sans-serif" font-size="14" lengthAdjust="spacing" textLength="97" x="1209.75" y="492.0801">TeacherBuilder</text><line style="stroke:#181818;stroke-width:0.5;" x1="974" x2="1510" y1="500.0469" y2="500.0469"/><line style="stroke:#181818;stroke-width:0.5;" x1="974" x2="1510" y1="508.0469" y2="508.0469"/><ellipse cx="984" cy="521.3672" fill="#84BE84" rx="3" ry="3" style="stroke:#038048;stroke-width:1.0;"/><text fill="#000000" font-family="sans-serif" font-size="14" lengthAdjust="spacing" textLength="512" x="993" y="524.7207">with(email,rawPassword,fullName,shortName,acronym,birthDate,taxPayerNumber)</text><ellipse cx="984" cy="537.0078" fill="#84BE84" rx="3" ry="3" style="stroke:#038048;stroke-width:1.0;"/><text fill="#000000" font-family="sans-serif" font-size="14" lengthAdjust="spacing" textLength="40" x="993" y="540.3613">build()</text></g><!--class StudentBuilder--><g id="elem_StudentBuilder"><rect codeLine="40" fill="#F1F1F1" height="86.3281" id="StudentBuilder" rx="2.5" ry="2.5" style="stroke:#181818;stroke-width:0.5;" width="480" x="1546" y="461"/><ellipse cx="1735.25" cy="480.5234" fill="#ADD1B2" rx="11" ry="11" style="stroke:#181818;stroke-width:1.0;"/><path d="M1737.25,477.0234 Q1737.4531,476.5234 1737.6875,476.2734 Q1737.9219,476.0234 1738.1875,476.0234 Q1738.6563,476.0234 1738.9531,476.3047 Q1739.25,476.5859 1739.25,477.2422 L1739.25,478.8047 Q1739.25,479.4609 1738.9688,479.7422 Q1738.6875,480.0234 1738.25,480.0234 Q1737.8594,480.0234 1737.6094,479.8516 Q1737.3594,479.6797 1737.25,479.2266 Q1737.2031,478.9141 1737.0313,478.7422 Q1736.7188,478.4141 1736.1563,478.2266 Q1735.5938,478.0234 1735.0313,478.0234 Q1734.3281,478.0234 1733.7344,478.3047 Q1733.1563,478.5859 1732.7031,479.2109 Q1732.25,479.8359 1732.25,480.6953 L1732.25,481.6172 Q1732.25,482.6484 1733.0938,483.3359 Q1733.9375,484.0234 1735.4375,484.0234 Q1736.3281,484.0234 1736.9531,483.8203 Q1737.3125,483.7109 1737.7188,483.3516 Q1737.9844,483.1484 1738.125,483.0859 Q1738.2656,483.0234 1738.4375,483.0234 Q1738.7656,483.0234 1739,483.2891 Q1739.25,483.5391 1739.25,483.8984 Q1739.25,484.2422 1738.9063,484.6484 Q1738.4063,485.2422 1737.6094,485.5703 Q1736.5625,486.0234 1735.2813,486.0234 Q1733.7813,486.0234 1732.5781,485.4297 Q1731.6094,484.9609 1730.9219,483.9453 Q1730.25,482.9297 1730.25,481.7266 L1730.25,480.6328 Q1730.25,479.3828 1730.8438,478.2891 Q1731.4531,477.1953 1732.5,476.6172 Q1733.5625,476.0234 1734.75,476.0234 Q1735.4688,476.0234 1736.0938,476.2734 Q1736.7188,476.5234 1737.25,477.0234 Z " fill="#000000"/><text fill="#000000" font-family="sans-serif" font-size="12" font-style="italic" lengthAdjust="spacing" textLength="53" x="1775.75" y="476.8633">&#171;builder&#187;</text><text fill="#000000" font-family="sans-serif" font-size="14" lengthAdjust="spacing" textLength="93" x="1755.75" y="492.0801">StudentBuilder</text><line style="stroke:#181818;stroke-width:0.5;" x1="1547" x2="2025" y1="500.0469" y2="500.0469"/><line style="stroke:#181818;stroke-width:0.5;" x1="1547" x2="2025" y1="508.0469" y2="508.0469"/><ellipse cx="1557" cy="521.3672" fill="#84BE84" rx="3" ry="3" style="stroke:#038048;stroke-width:1.0;"/><text fill="#000000" font-family="sans-serif" font-size="14" lengthAdjust="spacing" textLength="454" x="1566" y="524.7207">with(email,rawPassword,fullName,shortName,birthDate,taxPayerNumber)</text><ellipse cx="1557" cy="537.0078" fill="#84BE84" rx="3" ry="3" style="stroke:#038048;stroke-width:1.0;"/><text fill="#000000" font-family="sans-serif" font-size="14" lengthAdjust="spacing" textLength="40" x="1566" y="540.3613">build()</text></g><!--class Manager--><g id="elem_Manager"><rect codeLine="45" fill="#F1F1F1" height="55.0469" id="Manager" rx="2.5" ry="2.5" style="stroke:#181818;stroke-width:0.5;" width="88" x="739" y="607"/><ellipse cx="754" cy="626.5234" fill="#ADD1B2" rx="11" ry="11" style="stroke:#181818;stroke-width:1.0;"/><path d="M756,623.0234 Q756.2031,622.5234 756.4375,622.2734 Q756.6719,622.0234 756.9375,622.0234 Q757.4063,622.0234 757.7031,622.3047 Q758,622.5859 758,623.2422 L758,624.8047 Q758,625.4609 757.7188,625.7422 Q757.4375,626.0234 757,626.0234 Q756.6094,626.0234 756.3594,625.8516 Q756.1094,625.6797 756,625.2266 Q755.9531,624.9141 755.7813,624.7422 Q755.4688,624.4141 754.9063,624.2266 Q754.3438,624.0234 753.7813,624.0234 Q753.0781,624.0234 752.4844,624.3047 Q751.9063,624.5859 751.4531,625.2109 Q751,625.8359 751,626.6953 L751,627.6172 Q751,628.6484 751.8438,629.3359 Q752.6875,630.0234 754.1875,630.0234 Q755.0781,630.0234 755.7031,629.8203 Q756.0625,629.7109 756.4688,629.3516 Q756.7344,629.1484 756.875,629.0859 Q757.0156,629.0234 757.1875,629.0234 Q757.5156,629.0234 757.75,629.2891 Q758,629.5391 758,629.8984 Q758,630.2422 757.6563,630.6484 Q757.1563,631.2422 756.3594,631.5703 Q755.3125,632.0234 754.0313,632.0234 Q752.5313,632.0234 751.3281,631.4297 Q750.3594,630.9609 749.6719,629.9453 Q749,628.9297 749,627.7266 L749,626.6328 Q749,625.3828 749.5938,624.2891 Q750.2031,623.1953 751.25,622.6172 Q752.3125,622.0234 753.5,622.0234 Q754.2188,622.0234 754.8438,622.2734 Q755.4688,622.5234 756,623.0234 Z " fill="#000000"/><text fill="#000000" font-family="sans-serif" font-size="12" font-style="italic" lengthAdjust="spacing" textLength="56" x="768" y="622.8633">&#171;domain&#187;</text><text fill="#000000" font-family="sans-serif" font-size="14" lengthAdjust="spacing" textLength="56" x="768" y="638.0801">Manager</text><line style="stroke:#181818;stroke-width:0.5;" x1="740" x2="826" y1="646.0469" y2="646.0469"/><line style="stroke:#181818;stroke-width:0.5;" x1="740" x2="826" y1="654.0469" y2="654.0469"/></g><!--class Teacher--><g id="elem_Teacher"><rect codeLine="48" fill="#F1F1F1" height="55.0469" id="Teacher" rx="2.5" ry="2.5" style="stroke:#181818;stroke-width:0.5;" width="85" x="1199.5" y="607"/><ellipse cx="1214.5" cy="626.5234" fill="#ADD1B2" rx="11" ry="11" style="stroke:#181818;stroke-width:1.0;"/><path d="M1216.5,623.0234 Q1216.7031,622.5234 1216.9375,622.2734 Q1217.1719,622.0234 1217.4375,622.0234 Q1217.9063,622.0234 1218.2031,622.3047 Q1218.5,622.5859 1218.5,623.2422 L1218.5,624.8047 Q1218.5,625.4609 1218.2188,625.7422 Q1217.9375,626.0234 1217.5,626.0234 Q1217.1094,626.0234 1216.8594,625.8516 Q1216.6094,625.6797 1216.5,625.2266 Q1216.4531,624.9141 1216.2813,624.7422 Q1215.9688,624.4141 1215.4063,624.2266 Q1214.8438,624.0234 1214.2813,624.0234 Q1213.5781,624.0234 1212.9844,624.3047 Q1212.4063,624.5859 1211.9531,625.2109 Q1211.5,625.8359 1211.5,626.6953 L1211.5,627.6172 Q1211.5,628.6484 1212.3438,629.3359 Q1213.1875,630.0234 1214.6875,630.0234 Q1215.5781,630.0234 1216.2031,629.8203 Q1216.5625,629.7109 1216.9688,629.3516 Q1217.2344,629.1484 1217.375,629.0859 Q1217.5156,629.0234 1217.6875,629.0234 Q1218.0156,629.0234 1218.25,629.2891 Q1218.5,629.5391 1218.5,629.8984 Q1218.5,630.2422 1218.1563,630.6484 Q1217.6563,631.2422 1216.8594,631.5703 Q1215.8125,632.0234 1214.5313,632.0234 Q1213.0313,632.0234 1211.8281,631.4297 Q1210.8594,630.9609 1210.1719,629.9453 Q1209.5,628.9297 1209.5,627.7266 L1209.5,626.6328 Q1209.5,625.3828 1210.0938,624.2891 Q1210.7031,623.1953 1211.75,622.6172 Q1212.8125,622.0234 1214,622.0234 Q1214.7188,622.0234 1215.3438,622.2734 Q1215.9688,622.5234 1216.5,623.0234 Z " fill="#000000"/><text fill="#000000" font-family="sans-serif" font-size="12" font-style="italic" lengthAdjust="spacing" textLength="56" x="1227" y="622.8633">&#171;domain&#187;</text><text fill="#000000" font-family="sans-serif" font-size="14" lengthAdjust="spacing" textLength="53" x="1228.5" y="638.0801">Teacher</text><line style="stroke:#181818;stroke-width:0.5;" x1="1200.5" x2="1283.5" y1="646.0469" y2="646.0469"/><line style="stroke:#181818;stroke-width:0.5;" x1="1200.5" x2="1283.5" y1="654.0469" y2="654.0469"/></g><!--class Student--><g id="elem_Student"><rect codeLine="51" fill="#F1F1F1" height="55.0469" id="Student" rx="2.5" ry="2.5" style="stroke:#181818;stroke-width:0.5;" width="84" x="1744" y="607"/><ellipse cx="1759" cy="626.5234" fill="#ADD1B2" rx="11" ry="11" style="stroke:#181818;stroke-width:1.0;"/><path d="M1761,623.0234 Q1761.2031,622.5234 1761.4375,622.2734 Q1761.6719,622.0234 1761.9375,622.0234 Q1762.4063,622.0234 1762.7031,622.3047 Q1763,622.5859 1763,623.2422 L1763,624.8047 Q1763,625.4609 1762.7188,625.7422 Q1762.4375,626.0234 1762,626.0234 Q1761.6094,626.0234 1761.3594,625.8516 Q1761.1094,625.6797 1761,625.2266 Q1760.9531,624.9141 1760.7813,624.7422 Q1760.4688,624.4141 1759.9063,624.2266 Q1759.3438,624.0234 1758.7813,624.0234 Q1758.0781,624.0234 1757.4844,624.3047 Q1756.9063,624.5859 1756.4531,625.2109 Q1756,625.8359 1756,626.6953 L1756,627.6172 Q1756,628.6484 1756.8438,629.3359 Q1757.6875,630.0234 1759.1875,630.0234 Q1760.0781,630.0234 1760.7031,629.8203 Q1761.0625,629.7109 1761.4688,629.3516 Q1761.7344,629.1484 1761.875,629.0859 Q1762.0156,629.0234 1762.1875,629.0234 Q1762.5156,629.0234 1762.75,629.2891 Q1763,629.5391 1763,629.8984 Q1763,630.2422 1762.6563,630.6484 Q1762.1563,631.2422 1761.3594,631.5703 Q1760.3125,632.0234 1759.0313,632.0234 Q1757.5313,632.0234 1756.3281,631.4297 Q1755.3594,630.9609 1754.6719,629.9453 Q1754,628.9297 1754,627.7266 L1754,626.6328 Q1754,625.3828 1754.5938,624.2891 Q1755.2031,623.1953 1756.25,622.6172 Q1757.3125,622.0234 1758.5,622.0234 Q1759.2188,622.0234 1759.8438,622.2734 Q1760.4688,622.5234 1761,623.0234 Z " fill="#000000"/><text fill="#000000" font-family="sans-serif" font-size="12" font-style="italic" lengthAdjust="spacing" textLength="56" x="1771" y="622.8633">&#171;domain&#187;</text><text fill="#000000" font-family="sans-serif" font-size="14" lengthAdjust="spacing" textLength="49" x="1774.5" y="638.0801">Student</text><line style="stroke:#181818;stroke-width:0.5;" x1="1745" x2="1827" y1="646.0469" y2="646.0469"/><line style="stroke:#181818;stroke-width:0.5;" x1="1745" x2="1827" y1="654.0469" y2="654.0469"/></g><!--class BaseRoles--><g id="elem_BaseRoles"><rect codeLine="54" fill="#F1F1F1" height="70.6875" id="BaseRoles" rx="2.5" ry="2.5" style="stroke:#181818;stroke-width:0.5;" width="132" x="976" y="314.5"/><ellipse cx="1005.4" cy="334.0234" fill="#ADD1B2" rx="11" ry="11" style="stroke:#181818;stroke-width:1.0;"/><path d="M1007.4,330.5234 Q1007.6031,330.0234 1007.8375,329.7734 Q1008.0719,329.5234 1008.3375,329.5234 Q1008.8063,329.5234 1009.1031,329.8047 Q1009.4,330.0859 1009.4,330.7422 L1009.4,332.3047 Q1009.4,332.9609 1009.1188,333.2422 Q1008.8375,333.5234 1008.4,333.5234 Q1008.0094,333.5234 1007.7594,333.3516 Q1007.5094,333.1797 1007.4,332.7266 Q1007.3531,332.4141 1007.1813,332.2422 Q1006.8688,331.9141 1006.3063,331.7266 Q1005.7438,331.5234 1005.1813,331.5234 Q1004.4781,331.5234 1003.8844,331.8047 Q1003.3063,332.0859 1002.8531,332.7109 Q1002.4,333.3359 1002.4,334.1953 L1002.4,335.1172 Q1002.4,336.1484 1003.2438,336.8359 Q1004.0875,337.5234 1005.5875,337.5234 Q1006.4781,337.5234 1007.1031,337.3203 Q1007.4625,337.2109 1007.8688,336.8516 Q1008.1344,336.6484 1008.275,336.5859 Q1008.4156,336.5234 1008.5875,336.5234 Q1008.9156,336.5234 1009.15,336.7891 Q1009.4,337.0391 1009.4,337.3984 Q1009.4,337.7422 1009.0563,338.1484 Q1008.5563,338.7422 1007.7594,339.0703 Q1006.7125,339.5234 1005.4313,339.5234 Q1003.9313,339.5234 1002.7281,338.9297 Q1001.7594,338.4609 1001.0719,337.4453 Q1000.4,336.4297 1000.4,335.2266 L1000.4,334.1328 Q1000.4,332.8828 1000.9938,331.7891 Q1001.6031,330.6953 1002.65,330.1172 Q1003.7125,329.5234 1004.9,329.5234 Q1005.6188,329.5234 1006.2438,329.7734 Q1006.8688,330.0234 1007.4,330.5234 Z " fill="#000000"/><text fill="#000000" font-family="sans-serif" font-size="12" font-style="italic" lengthAdjust="spacing" textLength="56" x="1028.6" y="330.3633">&#171;domain&#187;</text><text fill="#000000" font-family="sans-serif" font-size="14" lengthAdjust="spacing" textLength="68" x="1022.6" y="345.5801">BaseRoles</text><line style="stroke:#181818;stroke-width:0.5;" x1="977" x2="1107" y1="353.5469" y2="353.5469"/><line style="stroke:#181818;stroke-width:0.5;" x1="977" x2="1107" y1="361.5469" y2="361.5469"/><ellipse cx="987" cy="374.8672" fill="#84BE84" rx="3" ry="3" style="stroke:#038048;stroke-width:1.0;"/><text fill="#000000" font-family="sans-serif" font-size="14" lengthAdjust="spacing" textLength="106" x="996" y="378.2207">nonUserValues()</text></g><!--link AddUserUI to AddUserController--><g id="link_AddUserUI_AddUserController"><path codeLine="58" d="M843,93.04 C843,110.04 843,129.76 843,147.29 " fill="none" id="AddUserUI-to-AddUserController" style="stroke:#181818;stroke-width:1.0;"/><polygon fill="#181818" points="843,152.66,847,143.66,843,147.66,839,143.66,843,152.66" style="stroke:#181818;stroke-width:1.0;"/></g><!--link AddUserController to BaseRoles--><g id="link_AddUserController_BaseRoles"><path codeLine="59" d="M898.17,239.14 C927.77,261.75 963.95,289.38 992.62,311.28 " fill="none" id="AddUserController-to-BaseRoles" style="stroke:#181818;stroke-width:1.0;"/><polygon fill="#181818" points="996.79,314.47,992.0441,305.84,992.8089,311.4449,987.204,312.2098,996.79,314.47" style="stroke:#181818;stroke-width:1.0;"/></g><!--link AddUserController to AddUserService--><g id="link_AddUserController_AddUserService"><path codeLine="60" d="M788.11,239.14 C765.28,256.66 738.52,277.21 714.36,295.76 " fill="none" id="AddUserController-to-AddUserService" style="stroke:#181818;stroke-width:1.0;"/><polygon fill="#181818" points="710.19,298.96,719.7669,296.6614,714.159,295.919,714.9013,290.3111,710.19,298.96" style="stroke:#181818;stroke-width:1.0;"/></g><!--link AddUserService to StudentRepository--><g id="link_AddUserService_StudentRepository"><path codeLine="61" d="M412.73,401.03 C342.5,417.99 265.56,438.43 196,461 C190.55,462.77 184.97,464.69 179.38,466.71 " fill="none" id="AddUserService-to-StudentRepository" style="stroke:#181818;stroke-width:1.0;"/><polygon fill="#181818" points="174.68,468.43,184.5058,469.1039,179.3773,466.7167,181.7645,461.5882,174.68,468.43" style="stroke:#181818;stroke-width:1.0;"/></g><!--link AddUserService to TeacherRepository--><g id="link_AddUserService_TeacherRepository"><path codeLine="62" d="M531.08,401.19 C482.79,422.47 427.55,446.8 383.19,466.35 " fill="none" id="AddUserService-to-TeacherRepository" style="stroke:#181818;stroke-width:1.0;"/><polygon fill="#181818" points="378.39,468.47,388.2388,468.5015,382.9655,466.4539,385.0131,461.1806,378.39,468.47" style="stroke:#181818;stroke-width:1.0;"/></g><!--link AddUserService to ManagerRepository--><g id="link_AddUserService_ManagerRepository"><path codeLine="63" d="M599.43,401.19 C580.74,421.78 559.44,445.24 542,464.45 " fill="none" id="AddUserService-to-ManagerRepository" style="stroke:#181818;stroke-width:1.0;"/><polygon fill="#181818" points="538.57,468.23,547.5884,464.2716,541.9376,464.5342,541.6751,458.8834,538.57,468.23" style="stroke:#181818;stroke-width:1.0;"/></g><!--link AddUserService to ManagerBuilder--><g id="link_AddUserService_ManagerBuilder"><path codeLine="64" d="M690.57,401.19 C706.92,419.2 725.26,439.4 741.27,457.03 " fill="none" id="AddUserService-to-ManagerBuilder" style="stroke:#181818;stroke-width:1.0;"/><polygon fill="#181818" points="744.86,460.99,741.7747,451.6369,741.5002,457.2871,735.85,457.0126,744.86,460.99" style="stroke:#181818;stroke-width:1.0;"/></g><!--link ManagerBuilder to Manager--><g id="link_ManagerBuilder_Manager"><path codeLine="65" d="M783,547.08 C783,564.7 783,584.86 783,601.28 " fill="none" id="ManagerBuilder-to-Manager" style="stroke:#181818;stroke-width:1.0;"/><polygon fill="#181818" points="783,606.69,787,597.69,783,601.69,779,597.69,783,606.69" style="stroke:#181818;stroke-width:1.0;"/></g><!--link AddUserService to TeacherBuilder--><g id="link_AddUserService_TeacherBuilder"><path codeLine="66" d="M841.72,401.09 C916.04,420.01 999.92,441.36 1071.63,459.62 " fill="none" id="AddUserService-to-TeacherBuilder" style="stroke:#181818;stroke-width:1.0;"/><polygon fill="#181818" points="1076.77,460.93,1069.0299,454.8397,1071.9235,459.7005,1067.0627,462.5941,1076.77,460.93" style="stroke:#181818;stroke-width:1.0;"/></g><!--link TeacherBuilder to Teacher--><g id="link_TeacherBuilder_Teacher"><path codeLine="67" d="M1242,547.08 C1242,564.7 1242,584.86 1242,601.28 " fill="none" id="TeacherBuilder-to-Teacher" style="stroke:#181818;stroke-width:1.0;"/><polygon fill="#181818" points="1242,606.69,1246,597.69,1242,601.69,1238,597.69,1242,606.69" style="stroke:#181818;stroke-width:1.0;"/></g><!--link AddUserService to StudentBuilder--><g id="link_AddUserService_StudentBuilder"><path codeLine="68" d="M940.66,398.66 C946.49,399.46 952.27,400.24 958,401 C1210.53,434.44 1275.52,427.19 1528,461 C1532.2,461.56 1536.44,462.14 1540.71,462.73 " fill="none" id="AddUserService-to-StudentBuilder" style="stroke:#181818;stroke-width:1.0;"/><polygon fill="#181818" points="1545.73,463.43,1537.365,458.2312,1540.7774,462.7429,1536.2657,466.1553,1545.73,463.43" style="stroke:#181818;stroke-width:1.0;"/></g><!--link StudentBuilder to Student--><g id="link_StudentBuilder_Student"><path codeLine="69" d="M1786,547.08 C1786,564.7 1786,584.86 1786,601.28 " fill="none" id="StudentBuilder-to-Student" style="stroke:#181818;stroke-width:1.0;"/><polygon fill="#181818" points="1786,606.69,1790,597.69,1786,601.69,1782,597.69,1786,606.69" style="stroke:#181818;stroke-width:1.0;"/></g><!--SRC=[hLJ1Ri8m3BttApWMjMW_W91Wk-mmX63iRbf38wL9vQHqrRH_Nve6A6rNcDYfgVpUi_FiEEAWr6WUnrk5j7qTJQSPeKAXGJCfPhClBuZb9f65F_O2PRvhoL6Pds_FYvhSPoaqISwHZ0Pa6MUHanWP3OWqEsA5gxW1r1mVKs0yp8nC8IaEzpddIqWnD8b8snDLwKA8I8eo3NUCTF826aCDdoieaPPvkaEovLpNiq4wiWZxYY4yCAMHta30uPugnXVEEqAKtEA8wdIxPYFgL3SwZutdT_Wnw41jW1DROoOLqv9Aum6TVseBzap4Yt9kk-9hol5f3rnXGyLTz44LP_7_g2noncCxNxlwPCUpO3fnnX4Kgy4kMfxVlUM3olVqkfFQjUdHr7z9wNmqkM9fjEtpRblH7tJ5zWSNeD2kXQjm8AIe7k87yFoqCIvxPZAPTJU7rzqb5Uwi_qly-iLxhGLG8JfFeW_KcVW-K6UW1q2kjLvhV1k8WJ9EvDQ4DX035psHMpFMG9Xr-GC0]--></g></svg>