<?xml version="1.0" encoding="us-ascii" standalone="no"?><svg xmlns="http://www.w3.org/2000/svg" xmlns:xlink="http://www.w3.org/1999/xlink" contentStyleType="text/css" height="493px" preserveAspectRatio="none" style="width:907px;height:493px;background:#FFFFFF;" version="1.1" viewBox="0 0 907 493" width="907px" zoomAndPan="magnify"><defs/><g><line style="stroke:#181818;stroke-width:0.5;stroke-dasharray:5.0,5.0;" x1="36" x2="36" y1="82.2813" y2="400.4688"/><line style="stroke:#181818;stroke-width:0.5;stroke-dasharray:5.0,5.0;" x1="278.5" x2="278.5" y1="82.2813" y2="400.4688"/><line style="stroke:#181818;stroke-width:0.5;stroke-dasharray:5.0,5.0;" x1="408.5" x2="408.5" y1="82.2813" y2="400.4688"/><line style="stroke:#181818;stroke-width:0.5;stroke-dasharray:5.0,5.0;" x1="547.5" x2="547.5" y1="82.2813" y2="400.4688"/><line style="stroke:#181818;stroke-width:0.5;stroke-dasharray:5.0,5.0;" x1="707.5" x2="707.5" y1="82.2813" y2="400.4688"/><line style="stroke:#181818;stroke-width:0.5;stroke-dasharray:5.0,5.0;" x1="854.5" x2="854.5" y1="82.2813" y2="400.4688"/><text fill="#000000" font-family="sans-serif" font-size="14" lengthAdjust="spacing" textLength="56" x="5" y="79.3145">Manager</text><ellipse cx="36" cy="15.1406" fill="#E2E2F0" rx="8" ry="8" style="stroke:#181818;stroke-width:0.5;"/><path d="M36,23.1406 L36,50.1406 M23,31.1406 L49,31.1406 M36,50.1406 L23,65.1406 M36,50.1406 L49,65.1406 " fill="none" style="stroke:#181818;stroke-width:0.5;"/><text fill="#000000" font-family="sans-serif" font-size="14" lengthAdjust="spacing" textLength="56" x="5" y="412.1426">Manager</text><ellipse cx="36" cy="423.6094" fill="#E2E2F0" rx="8" ry="8" style="stroke:#181818;stroke-width:0.5;"/><path d="M36,431.6094 L36,458.6094 M23,439.6094 L49,439.6094 M36,458.6094 L23,473.6094 M36,458.6094 L49,473.6094 " fill="none" style="stroke:#181818;stroke-width:0.5;"/><rect fill="#E2E2F0" height="45.2813" rx="2.5" ry="2.5" style="stroke:#181818;stroke-width:0.5;" width="109" x="224.5" y="36"/><text fill="#000000" font-family="sans-serif" font-size="14" font-style="italic" lengthAdjust="spacing" textLength="95" x="231.5" y="55.6738">&#171;presentation&#187;</text><text fill="#000000" font-family="sans-serif" font-size="14" lengthAdjust="spacing" textLength="63" x="247.5" y="71.3145">ListUserUI</text><rect fill="#E2E2F0" height="45.2813" rx="2.5" ry="2.5" style="stroke:#181818;stroke-width:0.5;" width="109" x="224.5" y="399.4688"/><text fill="#000000" font-family="sans-serif" font-size="14" font-style="italic" lengthAdjust="spacing" textLength="95" x="231.5" y="419.1426">&#171;presentation&#187;</text><text fill="#000000" font-family="sans-serif" font-size="14" lengthAdjust="spacing" textLength="63" x="247.5" y="434.7832">ListUserUI</text><rect fill="#E2E2F0" height="45.2813" rx="2.5" ry="2.5" style="stroke:#181818;stroke-width:0.5;" width="131" x="343.5" y="36"/><text fill="#000000" font-family="sans-serif" font-size="14" font-style="italic" lengthAdjust="spacing" textLength="95" x="361.5" y="55.6738">&#171;presentation&#187;</text><text fill="#000000" font-family="sans-serif" font-size="14" lengthAdjust="spacing" textLength="117" x="350.5" y="71.3145">SystemUserPrinter</text><rect fill="#E2E2F0" height="45.2813" rx="2.5" ry="2.5" style="stroke:#181818;stroke-width:0.5;" width="131" x="343.5" y="399.4688"/><text fill="#000000" font-family="sans-serif" font-size="14" font-style="italic" lengthAdjust="spacing" textLength="95" x="361.5" y="419.1426">&#171;presentation&#187;</text><text fill="#000000" font-family="sans-serif" font-size="14" lengthAdjust="spacing" textLength="117" x="350.5" y="434.7832">SystemUserPrinter</text><rect fill="#E2E2F0" height="45.2813" rx="2.5" ry="2.5" style="stroke:#181818;stroke-width:0.5;" width="127" x="484.5" y="36"/><text fill="#000000" font-family="sans-serif" font-size="14" font-style="italic" lengthAdjust="spacing" textLength="84" x="506" y="55.6738">&#171;application&#187;</text><text fill="#000000" font-family="sans-serif" font-size="14" lengthAdjust="spacing" textLength="113" x="491.5" y="71.3145">ListUserController</text><rect fill="#E2E2F0" height="45.2813" rx="2.5" ry="2.5" style="stroke:#181818;stroke-width:0.5;" width="127" x="484.5" y="399.4688"/><text fill="#000000" font-family="sans-serif" font-size="14" font-style="italic" lengthAdjust="spacing" textLength="84" x="506" y="419.1426">&#171;application&#187;</text><text fill="#000000" font-family="sans-serif" font-size="14" lengthAdjust="spacing" textLength="113" x="491.5" y="434.7832">ListUserController</text><rect fill="#E2E2F0" height="45.2813" rx="2.5" ry="2.5" style="stroke:#181818;stroke-width:0.5;" width="172" x="621.5" y="36"/><text fill="#000000" font-family="sans-serif" font-size="14" font-style="italic" lengthAdjust="spacing" textLength="84" x="665.5" y="55.6738">&#171;application&#187;</text><text fill="#000000" font-family="sans-serif" font-size="14" lengthAdjust="spacing" textLength="158" x="628.5" y="71.3145">UserManagementService</text><rect fill="#E2E2F0" height="45.2813" rx="2.5" ry="2.5" style="stroke:#181818;stroke-width:0.5;" width="172" x="621.5" y="399.4688"/><text fill="#000000" font-family="sans-serif" font-size="14" font-style="italic" lengthAdjust="spacing" textLength="84" x="665.5" y="419.1426">&#171;application&#187;</text><text fill="#000000" font-family="sans-serif" font-size="14" lengthAdjust="spacing" textLength="158" x="628.5" y="434.7832">UserManagementService</text><text fill="#000000" font-family="sans-serif" font-size="14" font-style="italic" lengthAdjust="spacing" textLength="79" x="812.5" y="63.6738">&#171;repository&#187;</text><text fill="#000000" font-family="sans-serif" font-size="14" lengthAdjust="spacing" textLength="97" x="803.5" y="79.3145">UserRepository</text><path d="M837,15 C837,5 855,5 855,5 C855,5 873,5 873,15 L873,41 C873,51 855,51 855,51 C855,51 837,51 837,41 L837,15 " fill="#E2E2F0" style="stroke:#181818;stroke-width:1.5;"/><path d="M837,15 C837,25 855,25 855,25 C855,25 873,25 873,15 " fill="none" style="stroke:#181818;stroke-width:1.5;"/><text fill="#000000" font-family="sans-serif" font-size="14" font-style="italic" lengthAdjust="spacing" textLength="79" x="812.5" y="412.1426">&#171;repository&#187;</text><text fill="#000000" font-family="sans-serif" font-size="14" lengthAdjust="spacing" textLength="97" x="803.5" y="427.7832">UserRepository</text><path d="M837,440.75 C837,430.75 855,430.75 855,430.75 C855,430.75 873,430.75 873,440.75 L873,466.75 C873,476.75 855,476.75 855,476.75 C855,476.75 837,476.75 837,466.75 L837,440.75 " fill="#E2E2F0" style="stroke:#181818;stroke-width:1.5;"/><path d="M837,440.75 C837,450.75 855,450.75 855,450.75 C855,450.75 873,450.75 873,440.75 " fill="none" style="stroke:#181818;stroke-width:1.5;"/><polygon fill="#181818" points="267,94.2813,277,98.2813,267,102.2813,271,98.2813" style="stroke:#181818;stroke-width:1.0;"/><line style="stroke:#181818;stroke-width:1.0;stroke-dasharray:2.0,2.0;" x1="36" x2="273" y1="98.2813" y2="98.2813"/><polygon fill="#181818" points="536,122.8047,546,126.8047,536,130.8047,540,126.8047" style="stroke:#181818;stroke-width:1.0;"/><line style="stroke:#181818;stroke-width:1.0;" x1="279" x2="542" y1="126.8047" y2="126.8047"/><text fill="#000000" font-family="sans-serif" font-size="13" lengthAdjust="spacing" textLength="44" x="286" y="122.0498">create()</text><polygon fill="#181818" points="536,151.3281,546,155.3281,536,159.3281,540,155.3281" style="stroke:#181818;stroke-width:1.0;"/><line style="stroke:#181818;stroke-width:1.0;" x1="279" x2="542" y1="155.3281" y2="155.3281"/><text fill="#000000" font-family="sans-serif" font-size="13" lengthAdjust="spacing" textLength="55" x="286" y="150.5732">allUsers()</text><polygon fill="#181818" points="695.5,179.8516,705.5,183.8516,695.5,187.8516,699.5,183.8516" style="stroke:#181818;stroke-width:1.0;"/><line style="stroke:#181818;stroke-width:1.0;" x1="548" x2="701.5" y1="183.8516" y2="183.8516"/><text fill="#000000" font-family="sans-serif" font-size="13" lengthAdjust="spacing" textLength="44" x="555" y="179.0967">create()</text><polygon fill="#181818" points="695.5,208.375,705.5,212.375,695.5,216.375,699.5,212.375" style="stroke:#181818;stroke-width:1.0;"/><line style="stroke:#181818;stroke-width:1.0;" x1="548" x2="701.5" y1="212.375" y2="212.375"/><text fill="#000000" font-family="sans-serif" font-size="13" lengthAdjust="spacing" textLength="55" x="555" y="207.6201">allUsers()</text><polygon fill="#181818" points="843,236.8984,853,240.8984,843,244.8984,847,240.8984" style="stroke:#181818;stroke-width:1.0;"/><line style="stroke:#181818;stroke-width:1.0;" x1="707.5" x2="849" y1="240.8984" y2="240.8984"/><text fill="#000000" font-family="sans-serif" font-size="13" lengthAdjust="spacing" textLength="44" x="714.5" y="236.1436">create()</text><polygon fill="#181818" points="843,265.4219,853,269.4219,843,273.4219,847,269.4219" style="stroke:#181818;stroke-width:1.0;"/><line style="stroke:#181818;stroke-width:1.0;" x1="707.5" x2="849" y1="269.4219" y2="269.4219"/><text fill="#000000" font-family="sans-serif" font-size="13" lengthAdjust="spacing" textLength="43" x="714.5" y="264.667">findAll()</text><polygon fill="#181818" points="718.5,279.4219,708.5,283.4219,718.5,287.4219,714.5,283.4219" style="stroke:#181818;stroke-width:1.0;"/><line style="stroke:#181818;stroke-width:1.0;" x1="712.5" x2="854" y1="283.4219" y2="283.4219"/><polygon fill="#181818" points="559,293.4219,549,297.4219,559,301.4219,555,297.4219" style="stroke:#181818;stroke-width:1.0;"/><line style="stroke:#181818;stroke-width:1.0;" x1="553" x2="706.5" y1="297.4219" y2="297.4219"/><polygon fill="#181818" points="290,307.4219,280,311.4219,290,315.4219,286,311.4219" style="stroke:#181818;stroke-width:1.0;"/><line style="stroke:#181818;stroke-width:1.0;" x1="284" x2="547" y1="311.4219" y2="311.4219"/><polygon fill="#181818" points="397,335.9453,407,339.9453,397,343.9453,401,339.9453" style="stroke:#181818;stroke-width:1.0;"/><line style="stroke:#181818;stroke-width:1.0;" x1="279" x2="403" y1="339.9453" y2="339.9453"/><text fill="#000000" font-family="sans-serif" font-size="13" lengthAdjust="spacing" textLength="44" x="286" y="335.1904">create()</text><polygon fill="#181818" points="290,349.9453,280,353.9453,290,357.9453,286,353.9453" style="stroke:#181818;stroke-width:1.0;"/><line style="stroke:#181818;stroke-width:1.0;" x1="284" x2="408" y1="353.9453" y2="353.9453"/><polygon fill="#181818" points="47,378.4688,37,382.4688,47,386.4688,43,382.4688" style="stroke:#181818;stroke-width:1.0;"/><line style="stroke:#181818;stroke-width:1.0;stroke-dasharray:2.0,2.0;" x1="41" x2="278" y1="382.4688" y2="382.4688"/><text fill="#000000" font-family="sans-serif" font-size="13" lengthAdjust="spacing" textLength="219" x="53" y="377.7139">list of users presented to the manager</text><!--SRC=[XPB1QiCm38RlVGhHqtRe2vGI63iDDXWjVG3DKJU1OnjPBVJj9pbDbx31RlAV__iZoSQWMU0D4twI05OOh5mL5EN01PF2-fMh7Yl9yMNjXZF3RbU4AYL5vPowRka_NAlIuCIxS5AIXXMl_o6dFptdf99ZlA519Hg9fKGEVu8EZJCCbdqWkN2WnjPB-8NsgFY1bKPkJoLNjYrS6o1sD4BkgW6-4zXiEfjzPUDRqLhQGX12fOV7fOenUd0rlIdsnTkOsPVopE-2wQs9cNyfdpZrJp6QteGnP_9uz9H_RtTS_Ynm57ucigeDkOLeTm3v16Vl26wtHJre1lsYvhANyWq0]--></g></svg>