<?xml version="1.0" encoding="us-ascii" standalone="no"?><svg xmlns="http://www.w3.org/2000/svg" xmlns:xlink="http://www.w3.org/1999/xlink" contentStyleType="text/css" height="477px" preserveAspectRatio="none" style="width:369px;height:477px;background:#FFFFFF;" version="1.1" viewBox="0 0 369 477" width="369px" zoomAndPan="magnify"><defs/><g><!--class ListUsersUI--><g id="elem_ListUsersUI"><rect codeLine="1" fill="#F1F1F1" height="70.6875" id="ListUsersUI" rx="2.5" ry="2.5" style="stroke:#181818;stroke-width:0.5;" width="110" x="140" y="7"/><ellipse cx="155" cy="26.5234" fill="#ADD1B2" rx="11" ry="11" style="stroke:#181818;stroke-width:1.0;"/><path d="M157,23.0234 Q157.2031,22.5234 157.4375,22.2734 Q157.6719,22.0234 157.9375,22.0234 Q158.4063,22.0234 158.7031,22.3047 Q159,22.5859 159,23.2422 L159,24.8047 Q159,25.4609 158.7188,25.7422 Q158.4375,26.0234 158,26.0234 Q157.6094,26.0234 157.3594,25.8516 Q157.1094,25.6797 157,25.2266 Q156.9531,24.9141 156.7813,24.7422 Q156.4688,24.4141 155.9063,24.2266 Q155.3438,24.0234 154.7813,24.0234 Q154.0781,24.0234 153.4844,24.3047 Q152.9063,24.5859 152.4531,25.2109 Q152,25.8359 152,26.6953 L152,27.6172 Q152,28.6484 152.8438,29.3359 Q153.6875,30.0234 155.1875,30.0234 Q156.0781,30.0234 156.7031,29.8203 Q157.0625,29.7109 157.4688,29.3516 Q157.7344,29.1484 157.875,29.0859 Q158.0156,29.0234 158.1875,29.0234 Q158.5156,29.0234 158.75,29.2891 Q159,29.5391 159,29.8984 Q159,30.2422 158.6563,30.6484 Q158.1563,31.2422 157.3594,31.5703 Q156.3125,32.0234 155.0313,32.0234 Q153.5313,32.0234 152.3281,31.4297 Q151.3594,30.9609 150.6719,29.9453 Q150,28.9297 150,27.7266 L150,26.6328 Q150,25.3828 150.5938,24.2891 Q151.2031,23.1953 152.25,22.6172 Q153.3125,22.0234 154.5,22.0234 Q155.2188,22.0234 155.8438,22.2734 Q156.4688,22.5234 157,23.0234 Z " fill="#000000"/><text fill="#000000" font-family="sans-serif" font-size="12" font-style="italic" lengthAdjust="spacing" textLength="82" x="167" y="22.8633">&#171;presentation&#187;</text><text fill="#000000" font-family="sans-serif" font-size="14" lengthAdjust="spacing" textLength="70" x="173" y="38.0801">ListUsersUI</text><line style="stroke:#181818;stroke-width:0.5;" x1="141" x2="249" y1="46.0469" y2="46.0469"/><line style="stroke:#181818;stroke-width:0.5;" x1="141" x2="249" y1="54.0469" y2="54.0469"/><ellipse cx="151" cy="67.3672" fill="#84BE84" rx="3" ry="3" style="stroke:#038048;stroke-width:1.0;"/><text fill="#000000" font-family="sans-serif" font-size="14" lengthAdjust="spacing" textLength="67" x="160" y="70.7207">elements()</text></g><!--class ListUsersController--><g id="elem_ListUsersController"><rect codeLine="5" fill="#F1F1F1" height="70.6875" id="ListUsersController" rx="2.5" ry="2.5" style="stroke:#181818;stroke-width:0.5;" width="152" x="26" y="138"/><ellipse cx="41" cy="157.5234" fill="#ADD1B2" rx="11" ry="11" style="stroke:#181818;stroke-width:1.0;"/><path d="M43,154.0234 Q43.2031,153.5234 43.4375,153.2734 Q43.6719,153.0234 43.9375,153.0234 Q44.4063,153.0234 44.7031,153.3047 Q45,153.5859 45,154.2422 L45,155.8047 Q45,156.4609 44.7188,156.7422 Q44.4375,157.0234 44,157.0234 Q43.6094,157.0234 43.3594,156.8516 Q43.1094,156.6797 43,156.2266 Q42.9531,155.9141 42.7813,155.7422 Q42.4688,155.4141 41.9063,155.2266 Q41.3438,155.0234 40.7813,155.0234 Q40.0781,155.0234 39.4844,155.3047 Q38.9063,155.5859 38.4531,156.2109 Q38,156.8359 38,157.6953 L38,158.6172 Q38,159.6484 38.8438,160.3359 Q39.6875,161.0234 41.1875,161.0234 Q42.0781,161.0234 42.7031,160.8203 Q43.0625,160.7109 43.4688,160.3516 Q43.7344,160.1484 43.875,160.0859 Q44.0156,160.0234 44.1875,160.0234 Q44.5156,160.0234 44.75,160.2891 Q45,160.5391 45,160.8984 Q45,161.2422 44.6563,161.6484 Q44.1563,162.2422 43.3594,162.5703 Q42.3125,163.0234 41.0313,163.0234 Q39.5313,163.0234 38.3281,162.4297 Q37.3594,161.9609 36.6719,160.9453 Q36,159.9297 36,158.7266 L36,157.6328 Q36,156.3828 36.5938,155.2891 Q37.2031,154.1953 38.25,153.6172 Q39.3125,153.0234 40.5,153.0234 Q41.2188,153.0234 41.8438,153.2734 Q42.4688,153.5234 43,154.0234 Z " fill="#000000"/><text fill="#000000" font-family="sans-serif" font-size="12" font-style="italic" lengthAdjust="spacing" textLength="74" x="78" y="153.8633">&#171;application&#187;</text><text fill="#000000" font-family="sans-serif" font-size="14" lengthAdjust="spacing" textLength="120" x="55" y="169.0801">ListUsersController</text><line style="stroke:#181818;stroke-width:0.5;" x1="27" x2="177" y1="177.0469" y2="177.0469"/><line style="stroke:#181818;stroke-width:0.5;" x1="27" x2="177" y1="185.0469" y2="185.0469"/><ellipse cx="37" cy="198.3672" fill="#84BE84" rx="3" ry="3" style="stroke:#038048;stroke-width:1.0;"/><text fill="#000000" font-family="sans-serif" font-size="14" lengthAdjust="spacing" textLength="60" x="46" y="201.7207">allUsers()</text></g><!--class UserManagementService--><g id="elem_UserManagementService"><rect codeLine="9" fill="#F1F1F1" height="70.6875" id="UserManagementService" rx="2.5" ry="2.5" style="stroke:#181818;stroke-width:0.5;" width="190" x="7" y="269"/><ellipse cx="22" cy="288.5234" fill="#ADD1B2" rx="11" ry="11" style="stroke:#181818;stroke-width:1.0;"/><path d="M24,285.0234 Q24.2031,284.5234 24.4375,284.2734 Q24.6719,284.0234 24.9375,284.0234 Q25.4063,284.0234 25.7031,284.3047 Q26,284.5859 26,285.2422 L26,286.8047 Q26,287.4609 25.7188,287.7422 Q25.4375,288.0234 25,288.0234 Q24.6094,288.0234 24.3594,287.8516 Q24.1094,287.6797 24,287.2266 Q23.9531,286.9141 23.7813,286.7422 Q23.4688,286.4141 22.9063,286.2266 Q22.3438,286.0234 21.7813,286.0234 Q21.0781,286.0234 20.4844,286.3047 Q19.9063,286.5859 19.4531,287.2109 Q19,287.8359 19,288.6953 L19,289.6172 Q19,290.6484 19.8438,291.3359 Q20.6875,292.0234 22.1875,292.0234 Q23.0781,292.0234 23.7031,291.8203 Q24.0625,291.7109 24.4688,291.3516 Q24.7344,291.1484 24.875,291.0859 Q25.0156,291.0234 25.1875,291.0234 Q25.5156,291.0234 25.75,291.2891 Q26,291.5391 26,291.8984 Q26,292.2422 25.6563,292.6484 Q25.1563,293.2422 24.3594,293.5703 Q23.3125,294.0234 22.0313,294.0234 Q20.5313,294.0234 19.3281,293.4297 Q18.3594,292.9609 17.6719,291.9453 Q17,290.9297 17,289.7266 L17,288.6328 Q17,287.3828 17.5938,286.2891 Q18.2031,285.1953 19.25,284.6172 Q20.3125,284.0234 21.5,284.0234 Q22.2188,284.0234 22.8438,284.2734 Q23.4688,284.5234 24,285.0234 Z " fill="#000000"/><text fill="#000000" font-family="sans-serif" font-size="12" font-style="italic" lengthAdjust="spacing" textLength="74" x="78" y="284.8633">&#171;application&#187;</text><text fill="#000000" font-family="sans-serif" font-size="14" lengthAdjust="spacing" textLength="158" x="36" y="300.0801">UserManagementService</text><line style="stroke:#181818;stroke-width:0.5;" x1="8" x2="196" y1="308.0469" y2="308.0469"/><line style="stroke:#181818;stroke-width:0.5;" x1="8" x2="196" y1="316.0469" y2="316.0469"/><ellipse cx="18" cy="329.3672" fill="#84BE84" rx="3" ry="3" style="stroke:#038048;stroke-width:1.0;"/><text fill="#000000" font-family="sans-serif" font-size="14" lengthAdjust="spacing" textLength="60" x="27" y="332.7207">allUsers()</text></g><!--class SystemUserPrinter--><g id="elem_SystemUserPrinter"><rect codeLine="13" fill="#F1F1F1" height="70.6875" id="SystemUserPrinter" rx="2.5" ry="2.5" style="stroke:#181818;stroke-width:0.5;" width="149" x="213.5" y="138"/><ellipse cx="228.5" cy="157.5234" fill="#ADD1B2" rx="11" ry="11" style="stroke:#181818;stroke-width:1.0;"/><path d="M230.5,154.0234 Q230.7031,153.5234 230.9375,153.2734 Q231.1719,153.0234 231.4375,153.0234 Q231.9063,153.0234 232.2031,153.3047 Q232.5,153.5859 232.5,154.2422 L232.5,155.8047 Q232.5,156.4609 232.2188,156.7422 Q231.9375,157.0234 231.5,157.0234 Q231.1094,157.0234 230.8594,156.8516 Q230.6094,156.6797 230.5,156.2266 Q230.4531,155.9141 230.2813,155.7422 Q229.9688,155.4141 229.4063,155.2266 Q228.8438,155.0234 228.2813,155.0234 Q227.5781,155.0234 226.9844,155.3047 Q226.4063,155.5859 225.9531,156.2109 Q225.5,156.8359 225.5,157.6953 L225.5,158.6172 Q225.5,159.6484 226.3438,160.3359 Q227.1875,161.0234 228.6875,161.0234 Q229.5781,161.0234 230.2031,160.8203 Q230.5625,160.7109 230.9688,160.3516 Q231.2344,160.1484 231.375,160.0859 Q231.5156,160.0234 231.6875,160.0234 Q232.0156,160.0234 232.25,160.2891 Q232.5,160.5391 232.5,160.8984 Q232.5,161.2422 232.1563,161.6484 Q231.6563,162.2422 230.8594,162.5703 Q229.8125,163.0234 228.5313,163.0234 Q227.0313,163.0234 225.8281,162.4297 Q224.8594,161.9609 224.1719,160.9453 Q223.5,159.9297 223.5,158.7266 L223.5,157.6328 Q223.5,156.3828 224.0938,155.2891 Q224.7031,154.1953 225.75,153.6172 Q226.8125,153.0234 228,153.0234 Q228.7188,153.0234 229.3438,153.2734 Q229.9688,153.5234 230.5,154.0234 Z " fill="#000000"/><text fill="#000000" font-family="sans-serif" font-size="12" font-style="italic" lengthAdjust="spacing" textLength="82" x="260" y="153.8633">&#171;presentation&#187;</text><text fill="#000000" font-family="sans-serif" font-size="14" lengthAdjust="spacing" textLength="117" x="242.5" y="169.0801">SystemUserPrinter</text><line style="stroke:#181818;stroke-width:0.5;" x1="214.5" x2="361.5" y1="177.0469" y2="177.0469"/><line style="stroke:#181818;stroke-width:0.5;" x1="214.5" x2="361.5" y1="185.0469" y2="185.0469"/><ellipse cx="224.5" cy="198.3672" fill="#84BE84" rx="3" ry="3" style="stroke:#038048;stroke-width:1.0;"/><text fill="#000000" font-family="sans-serif" font-size="14" lengthAdjust="spacing" textLength="74" x="233.5" y="201.7207">visit(visitee)</text></g><!--class UserRepository--><g id="elem_UserRepository"><rect codeLine="17" fill="#F1F1F1" height="70.6875" id="UserRepository" rx="2.5" ry="2.5" style="stroke:#181818;stroke-width:0.5;" width="129" x="37.5" y="400"/><ellipse cx="52.5" cy="419.5234" fill="#ADD1B2" rx="11" ry="11" style="stroke:#181818;stroke-width:1.0;"/><path d="M54.5,416.0234 Q54.7031,415.5234 54.9375,415.2734 Q55.1719,415.0234 55.4375,415.0234 Q55.9063,415.0234 56.2031,415.3047 Q56.5,415.5859 56.5,416.2422 L56.5,417.8047 Q56.5,418.4609 56.2188,418.7422 Q55.9375,419.0234 55.5,419.0234 Q55.1094,419.0234 54.8594,418.8516 Q54.6094,418.6797 54.5,418.2266 Q54.4531,417.9141 54.2813,417.7422 Q53.9688,417.4141 53.4063,417.2266 Q52.8438,417.0234 52.2813,417.0234 Q51.5781,417.0234 50.9844,417.3047 Q50.4063,417.5859 49.9531,418.2109 Q49.5,418.8359 49.5,419.6953 L49.5,420.6172 Q49.5,421.6484 50.3438,422.3359 Q51.1875,423.0234 52.6875,423.0234 Q53.5781,423.0234 54.2031,422.8203 Q54.5625,422.7109 54.9688,422.3516 Q55.2344,422.1484 55.375,422.0859 Q55.5156,422.0234 55.6875,422.0234 Q56.0156,422.0234 56.25,422.2891 Q56.5,422.5391 56.5,422.8984 Q56.5,423.2422 56.1563,423.6484 Q55.6563,424.2422 54.8594,424.5703 Q53.8125,425.0234 52.5313,425.0234 Q51.0313,425.0234 49.8281,424.4297 Q48.8594,423.9609 48.1719,422.9453 Q47.5,421.9297 47.5,420.7266 L47.5,419.6328 Q47.5,418.3828 48.0938,417.2891 Q48.7031,416.1953 49.75,415.6172 Q50.8125,415.0234 52,415.0234 Q52.7188,415.0234 53.3438,415.2734 Q53.9688,415.5234 54.5,416.0234 Z " fill="#000000"/><text fill="#000000" font-family="sans-serif" font-size="12" font-style="italic" lengthAdjust="spacing" textLength="68" x="81" y="415.8633">&#171;repository&#187;</text><text fill="#000000" font-family="sans-serif" font-size="14" lengthAdjust="spacing" textLength="97" x="66.5" y="431.0801">UserRepository</text><line style="stroke:#181818;stroke-width:0.5;" x1="38.5" x2="165.5" y1="439.0469" y2="439.0469"/><line style="stroke:#181818;stroke-width:0.5;" x1="38.5" x2="165.5" y1="447.0469" y2="447.0469"/><ellipse cx="48.5" cy="460.3672" fill="#84BE84" rx="3" ry="3" style="stroke:#038048;stroke-width:1.0;"/><text fill="#000000" font-family="sans-serif" font-size="14" lengthAdjust="spacing" textLength="48" x="57.5" y="463.7207">findAll()</text></g><!--link ListUsersUI to ListUsersController--><g id="link_ListUsersUI_ListUsersController"><path codeLine="21" d="M170.08,78.07 C157.78,95.13 142.89,115.79 130.17,133.42 " fill="none" id="ListUsersUI-to-ListUsersController" style="stroke:#181818;stroke-width:1.0;"/><polygon fill="#181818" points="126.99,137.83,135.4977,132.8682,129.9138,133.774,129.008,128.1901,126.99,137.83" style="stroke:#181818;stroke-width:1.0;"/></g><!--link ListUsersUI to SystemUserPrinter--><g id="link_ListUsersUI_SystemUserPrinter"><path codeLine="22" d="M219.92,78.07 C232.22,95.13 247.11,115.79 259.83,133.42 " fill="none" id="ListUsersUI-to-SystemUserPrinter" style="stroke:#181818;stroke-width:1.0;"/><polygon fill="#181818" points="263.01,137.83,260.992,128.1901,260.0862,133.774,254.5023,132.8682,263.01,137.83" style="stroke:#181818;stroke-width:1.0;"/></g><!--link ListUsersController to UserManagementService--><g id="link_ListUsersController_UserManagementService"><path codeLine="23" d="M102,209.07 C102,225.84 102,246.09 102,263.52 " fill="none" id="ListUsersController-to-UserManagementService" style="stroke:#181818;stroke-width:1.0;"/><polygon fill="#181818" points="102,268.83,106,259.83,102,263.83,98,259.83,102,268.83" style="stroke:#181818;stroke-width:1.0;"/></g><!--link UserManagementService to UserRepository--><g id="link_UserManagementService_UserRepository"><path codeLine="24" d="M102,340.07 C102,356.84 102,377.09 102,394.52 " fill="none" id="UserManagementService-to-UserRepository" style="stroke:#181818;stroke-width:1.0;"/><polygon fill="#181818" points="102,399.83,106,390.83,102,394.83,98,390.83,102,399.83" style="stroke:#181818;stroke-width:1.0;"/></g><!--SRC=[ZP3D2i8m48JlUOeUAz8ta89u4XJ4qWS8SPM5RHAoeL34TpT9_Mbj3bu26URBJ4QHP2uEoBvbSDpkYyt6Ec3GNdeqkgxlOWq4NH2uN8c746gEx8pspX212wYqbb2zo2AWaYYvfcWKZbBBMtgr0TUZWd_XPc0FNPHF3hLFgVF2aUoHqPVf1FY9FeCrGJTk2AZxN4RmYlgo9HeJfxDKLPtxyyApw2ToIqLdTWQH7-Vj_tONuWa0]--></g></svg>