<?xml version="1.0" encoding="us-ascii" standalone="no"?><svg xmlns="http://www.w3.org/2000/svg" xmlns:xlink="http://www.w3.org/1999/xlink" contentStyleType="text/css" height="482px" preserveAspectRatio="none" style="width:1477px;height:482px;background:#FFFFFF;" version="1.1" viewBox="0 0 1477 482" width="1477px" zoomAndPan="magnify"><defs/><g><!--class ScheduleExtraClassUI--><g id="elem_ScheduleExtraClassUI"><rect codeLine="1" fill="#F1F1F1" height="66.6211" id="ScheduleExtraClassUI" rx="2.5" ry="2.5" style="stroke:#181818;stroke-width:0.5;" width="170" x="7" y="7"/><ellipse cx="22" cy="23" fill="#ADD1B2" rx="11" ry="11" style="stroke:#181818;stroke-width:1.0;"/><path d="M24.7656,18.875 Q24.9219,18.6563 25.1094,18.5469 Q25.2969,18.4375 25.5156,18.4375 Q25.8906,18.4375 26.125,18.7031 Q26.3594,18.9531 26.3594,19.5625 L26.3594,21.0156 Q26.3594,21.625 26.125,21.8906 Q25.8906,22.1563 25.5156,22.1563 Q25.1719,22.1563 24.9688,21.9531 Q24.7656,21.7656 24.6563,21.25 Q24.6094,20.8906 24.4219,20.7031 Q24.0938,20.3281 23.4844,20.1094 Q22.875,19.8906 22.25,19.8906 Q21.4844,19.8906 20.8438,20.2188 Q20.2188,20.5469 19.7188,21.2969 Q19.2344,22.0469 19.2344,23.0781 L19.2344,24.1719 Q19.2344,25.4063 20.125,26.2344 Q21.0156,27.0469 22.6094,27.0469 Q23.5469,27.0469 24.2031,26.7969 Q24.5938,26.6406 25.0156,26.2031 Q25.2813,25.9375 25.4219,25.8594 Q25.5781,25.7813 25.7813,25.7813 Q26.1094,25.7813 26.3594,26.0469 Q26.625,26.2969 26.625,26.6406 Q26.625,26.9844 26.2813,27.3906 Q25.7813,27.9688 24.9844,28.2969 Q23.9063,28.75 22.6094,28.75 Q21.0938,28.75 19.8906,28.125 Q18.9063,27.625 18.2188,26.5625 Q17.5313,25.4844 17.5313,24.2031 L17.5313,23.0469 Q17.5313,21.7188 18.1406,20.5781 Q18.7656,19.4219 19.8594,18.8125 Q20.9531,18.1875 22.1875,18.1875 Q22.9219,18.1875 23.5625,18.3594 Q24.2188,18.5156 24.7656,18.875 Z " fill="#000000"/><text fill="#000000" font-family="sans-serif" font-size="14" lengthAdjust="spacing" textLength="138" x="36" y="28.7969">ScheduleExtraClassUI</text><line style="stroke:#181818;stroke-width:0.5;" x1="8" x2="176" y1="39" y2="39"/><line style="stroke:#181818;stroke-width:0.5;" x1="8" x2="176" y1="47" y2="47"/><ellipse cx="18" cy="61.8105" fill="#84BE84" rx="3" ry="3" style="stroke:#038048;stroke-width:1.0;"/><text fill="#000000" font-family="sans-serif" font-size="14" lengthAdjust="spacing" textLength="60" x="27" y="66.1074">doShow()</text></g><!--class ScheduleExtraClassController--><g id="elem_ScheduleExtraClassController"><rect codeLine="5" fill="#F1F1F1" height="66.6211" id="ScheduleExtraClassController" rx="2.5" ry="2.5" style="stroke:#181818;stroke-width:0.5;" width="960" x="212" y="7"/><ellipse cx="593.75" cy="23" fill="#ADD1B2" rx="11" ry="11" style="stroke:#181818;stroke-width:1.0;"/><path d="M596.5156,18.875 Q596.6719,18.6563 596.8594,18.5469 Q597.0469,18.4375 597.2656,18.4375 Q597.6406,18.4375 597.875,18.7031 Q598.1094,18.9531 598.1094,19.5625 L598.1094,21.0156 Q598.1094,21.625 597.875,21.8906 Q597.6406,22.1563 597.2656,22.1563 Q596.9219,22.1563 596.7188,21.9531 Q596.5156,21.7656 596.4063,21.25 Q596.3594,20.8906 596.1719,20.7031 Q595.8438,20.3281 595.2344,20.1094 Q594.625,19.8906 594,19.8906 Q593.2344,19.8906 592.5938,20.2188 Q591.9688,20.5469 591.4688,21.2969 Q590.9844,22.0469 590.9844,23.0781 L590.9844,24.1719 Q590.9844,25.4063 591.875,26.2344 Q592.7656,27.0469 594.3594,27.0469 Q595.2969,27.0469 595.9531,26.7969 Q596.3438,26.6406 596.7656,26.2031 Q597.0313,25.9375 597.1719,25.8594 Q597.3281,25.7813 597.5313,25.7813 Q597.8594,25.7813 598.1094,26.0469 Q598.375,26.2969 598.375,26.6406 Q598.375,26.9844 598.0313,27.3906 Q597.5313,27.9688 596.7344,28.2969 Q595.6563,28.75 594.3594,28.75 Q592.8438,28.75 591.6406,28.125 Q590.6563,27.625 589.9688,26.5625 Q589.2813,25.4844 589.2813,24.2031 L589.2813,23.0469 Q589.2813,21.7188 589.8906,20.5781 Q590.5156,19.4219 591.6094,18.8125 Q592.7031,18.1875 593.9375,18.1875 Q594.6719,18.1875 595.3125,18.3594 Q595.9688,18.5156 596.5156,18.875 Z " fill="#000000"/><text fill="#000000" font-family="sans-serif" font-size="14" lengthAdjust="spacing" textLength="188" x="614.25" y="28.7969">ScheduleExtraClassController</text><line style="stroke:#181818;stroke-width:0.5;" x1="213" x2="1171" y1="39" y2="39"/><line style="stroke:#181818;stroke-width:0.5;" x1="213" x2="1171" y1="47" y2="47"/><ellipse cx="223" cy="61.8105" fill="#84BE84" rx="3" ry="3" style="stroke:#038048;stroke-width:1.0;"/><text fill="#000000" font-family="sans-serif" font-size="14" lengthAdjust="spacing" textLength="934" x="232" y="66.1074">scheduleExtraClass(acronym: String, title: String, initialTime: String, finishTime: String, newDate: String, extra_class_access_list: List&lt;Student&gt;): void</text></g><!--class StudentManagmentService--><g id="elem_StudentManagmentService"><rect codeLine="8" fill="#F1F1F1" height="66.6211" id="StudentManagmentService" rx="2.5" ry="2.5" style="stroke:#181818;stroke-width:0.5;" width="202" x="30" y="390.5"/><ellipse cx="45" cy="406.5" fill="#ADD1B2" rx="11" ry="11" style="stroke:#181818;stroke-width:1.0;"/><path d="M47.7656,402.375 Q47.9219,402.1563 48.1094,402.0469 Q48.2969,401.9375 48.5156,401.9375 Q48.8906,401.9375 49.125,402.2031 Q49.3594,402.4531 49.3594,403.0625 L49.3594,404.5156 Q49.3594,405.125 49.125,405.3906 Q48.8906,405.6563 48.5156,405.6563 Q48.1719,405.6563 47.9688,405.4531 Q47.7656,405.2656 47.6563,404.75 Q47.6094,404.3906 47.4219,404.2031 Q47.0938,403.8281 46.4844,403.6094 Q45.875,403.3906 45.25,403.3906 Q44.4844,403.3906 43.8438,403.7188 Q43.2188,404.0469 42.7188,404.7969 Q42.2344,405.5469 42.2344,406.5781 L42.2344,407.6719 Q42.2344,408.9063 43.125,409.7344 Q44.0156,410.5469 45.6094,410.5469 Q46.5469,410.5469 47.2031,410.2969 Q47.5938,410.1406 48.0156,409.7031 Q48.2813,409.4375 48.4219,409.3594 Q48.5781,409.2813 48.7813,409.2813 Q49.1094,409.2813 49.3594,409.5469 Q49.625,409.7969 49.625,410.1406 Q49.625,410.4844 49.2813,410.8906 Q48.7813,411.4688 47.9844,411.7969 Q46.9063,412.25 45.6094,412.25 Q44.0938,412.25 42.8906,411.625 Q41.9063,411.125 41.2188,410.0625 Q40.5313,408.9844 40.5313,407.7031 L40.5313,406.5469 Q40.5313,405.2188 41.1406,404.0781 Q41.7656,402.9219 42.8594,402.3125 Q43.9531,401.6875 45.1875,401.6875 Q45.9219,401.6875 46.5625,401.8594 Q47.2188,402.0156 47.7656,402.375 Z " fill="#000000"/><text fill="#000000" font-family="sans-serif" font-size="14" lengthAdjust="spacing" textLength="170" x="59" y="412.2969">StudentManagmentService</text><line style="stroke:#181818;stroke-width:0.5;" x1="31" x2="231" y1="422.5" y2="422.5"/><line style="stroke:#181818;stroke-width:0.5;" x1="31" x2="231" y1="430.5" y2="430.5"/><ellipse cx="41" cy="445.3105" fill="#84BE84" rx="3" ry="3" style="stroke:#038048;stroke-width:1.0;"/><text fill="#000000" font-family="sans-serif" font-size="14" lengthAdjust="spacing" textLength="103" x="50" y="449.6074">searchByEmail()</text></g><!--class ScheduleExtraClassService--><g id="elem_ScheduleExtraClassService"><rect codeLine="12" fill="#F1F1F1" height="178.3477" id="ScheduleExtraClassService" rx="2.5" ry="2.5" style="stroke:#181818;stroke-width:0.5;" width="969" x="207.5" y="134"/><ellipse cx="601.25" cy="150" fill="#ADD1B2" rx="11" ry="11" style="stroke:#181818;stroke-width:1.0;"/><path d="M604.0156,145.875 Q604.1719,145.6563 604.3594,145.5469 Q604.5469,145.4375 604.7656,145.4375 Q605.1406,145.4375 605.375,145.7031 Q605.6094,145.9531 605.6094,146.5625 L605.6094,148.0156 Q605.6094,148.625 605.375,148.8906 Q605.1406,149.1563 604.7656,149.1563 Q604.4219,149.1563 604.2188,148.9531 Q604.0156,148.7656 603.9063,148.25 Q603.8594,147.8906 603.6719,147.7031 Q603.3438,147.3281 602.7344,147.1094 Q602.125,146.8906 601.5,146.8906 Q600.7344,146.8906 600.0938,147.2188 Q599.4688,147.5469 598.9688,148.2969 Q598.4844,149.0469 598.4844,150.0781 L598.4844,151.1719 Q598.4844,152.4063 599.375,153.2344 Q600.2656,154.0469 601.8594,154.0469 Q602.7969,154.0469 603.4531,153.7969 Q603.8438,153.6406 604.2656,153.2031 Q604.5313,152.9375 604.6719,152.8594 Q604.8281,152.7813 605.0313,152.7813 Q605.3594,152.7813 605.6094,153.0469 Q605.875,153.2969 605.875,153.6406 Q605.875,153.9844 605.5313,154.3906 Q605.0313,154.9688 604.2344,155.2969 Q603.1563,155.75 601.8594,155.75 Q600.3438,155.75 599.1406,155.125 Q598.1563,154.625 597.4688,153.5625 Q596.7813,152.4844 596.7813,151.2031 L596.7813,150.0469 Q596.7813,148.7188 597.3906,147.5781 Q598.0156,146.4219 599.1094,145.8125 Q600.2031,145.1875 601.4375,145.1875 Q602.1719,145.1875 602.8125,145.3594 Q603.4688,145.5156 604.0156,145.875 Z " fill="#000000"/><text fill="#000000" font-family="sans-serif" font-size="14" lengthAdjust="spacing" textLength="173" x="621.75" y="155.7969">ScheduleExtraClassService</text><line style="stroke:#181818;stroke-width:0.5;" x1="208.5" x2="1175.5" y1="166" y2="166"/><rect fill="none" height="6" style="stroke:#C82930;stroke-width:1.0;" width="6" x="215.5" y="177.8105"/><text fill="#000000" font-family="sans-serif" font-size="14" lengthAdjust="spacing" textLength="211" x="227.5" y="185.1074">classRepository: ClassRepository</text><rect fill="none" height="6" style="stroke:#C82930;stroke-width:1.0;" width="6" x="215.5" y="196.4316"/><text fill="#000000" font-family="sans-serif" font-size="14" lengthAdjust="spacing" textLength="277" x="227.5" y="203.7285">extraClassRepository: ExtraClassRepository</text><rect fill="none" height="6" style="stroke:#C82930;stroke-width:1.0;" width="6" x="215.5" y="215.0527"/><text fill="#000000" font-family="sans-serif" font-size="14" lengthAdjust="spacing" textLength="245" x="227.5" y="222.3496">teacherRepository: TeacherRepository</text><line style="stroke:#181818;stroke-width:0.5;" x1="208.5" x2="1175.5" y1="229.8633" y2="229.8633"/><ellipse cx="218.5" cy="244.6738" fill="#84BE84" rx="3" ry="3" style="stroke:#038048;stroke-width:1.0;"/><text fill="#000000" font-family="sans-serif" font-size="14" lengthAdjust="spacing" textLength="867" x="227.5" y="248.9707">schedule(acronym: String, title: String, initialTime: String, finishTime: String, newDate: String, extra_class_access_list: List&lt;Student&gt;): void</text><ellipse cx="218.5" cy="263.2949" fill="#84BE84" rx="3" ry="3" style="stroke:#038048;stroke-width:1.0;"/><text fill="#000000" font-family="sans-serif" font-size="14" lengthAdjust="spacing" textLength="943" x="227.5" y="267.5918">scheduleClass(acronym: String, title: String, initialTime: String, finishTime: String, newDate: String, extra_class_access_list: List&lt;Student&gt;): ExtraClass</text><ellipse cx="218.5" cy="281.916" fill="#84BE84" rx="3" ry="3" style="stroke:#038048;stroke-width:1.0;"/><text fill="#000000" font-family="sans-serif" font-size="14" lengthAdjust="spacing" textLength="514" x="227.5" y="286.2129">isBetween(time: LocalTime, initialTime: LocalTime, finalTime: LocalTime): boolean</text><ellipse cx="218.5" cy="300.5371" fill="#84BE84" rx="3" ry="3" style="stroke:#038048;stroke-width:1.0;"/><text fill="#000000" font-family="sans-serif" font-size="14" lengthAdjust="spacing" textLength="262" x="227.5" y="304.834">verifyIfTeacher(acronym: String): boolean</text></g><!--class ClassRepository--><g id="elem_ClassRepository"><rect codeLine="22" fill="#F1F1F1" height="85.2422" id="ClassRepository" rx="2.5" ry="2.5" style="stroke:#181818;stroke-width:0.5;" width="400" x="267" y="381.5"/><ellipse cx="411.25" cy="397.5" fill="#ADD1B2" rx="11" ry="11" style="stroke:#181818;stroke-width:1.0;"/><path d="M414.0156,393.375 Q414.1719,393.1563 414.3594,393.0469 Q414.5469,392.9375 414.7656,392.9375 Q415.1406,392.9375 415.375,393.2031 Q415.6094,393.4531 415.6094,394.0625 L415.6094,395.5156 Q415.6094,396.125 415.375,396.3906 Q415.1406,396.6563 414.7656,396.6563 Q414.4219,396.6563 414.2188,396.4531 Q414.0156,396.2656 413.9063,395.75 Q413.8594,395.3906 413.6719,395.2031 Q413.3438,394.8281 412.7344,394.6094 Q412.125,394.3906 411.5,394.3906 Q410.7344,394.3906 410.0938,394.7188 Q409.4688,395.0469 408.9688,395.7969 Q408.4844,396.5469 408.4844,397.5781 L408.4844,398.6719 Q408.4844,399.9063 409.375,400.7344 Q410.2656,401.5469 411.8594,401.5469 Q412.7969,401.5469 413.4531,401.2969 Q413.8438,401.1406 414.2656,400.7031 Q414.5313,400.4375 414.6719,400.3594 Q414.8281,400.2813 415.0313,400.2813 Q415.3594,400.2813 415.6094,400.5469 Q415.875,400.7969 415.875,401.1406 Q415.875,401.4844 415.5313,401.8906 Q415.0313,402.4688 414.2344,402.7969 Q413.1563,403.25 411.8594,403.25 Q410.3438,403.25 409.1406,402.625 Q408.1563,402.125 407.4688,401.0625 Q406.7813,399.9844 406.7813,398.7031 L406.7813,397.5469 Q406.7813,396.2188 407.3906,395.0781 Q408.0156,393.9219 409.1094,393.3125 Q410.2031,392.6875 411.4375,392.6875 Q412.1719,392.6875 412.8125,392.8594 Q413.4688,393.0156 414.0156,393.375 Z " fill="#000000"/><text fill="#000000" font-family="sans-serif" font-size="14" lengthAdjust="spacing" textLength="103" x="431.75" y="403.2969">ClassRepository</text><line style="stroke:#181818;stroke-width:0.5;" x1="268" x2="666" y1="413.5" y2="413.5"/><line style="stroke:#181818;stroke-width:0.5;" x1="268" x2="666" y1="421.5" y2="421.5"/><ellipse cx="278" cy="436.3105" fill="#84BE84" rx="3" ry="3" style="stroke:#038048;stroke-width:1.0;"/><text fill="#000000" font-family="sans-serif" font-size="14" lengthAdjust="spacing" textLength="374" x="287" y="440.6074">findAllClassesByAcronym(acronym: String): Iterable&lt;Class&gt;</text><ellipse cx="278" cy="454.9316" fill="#84BE84" rx="3" ry="3" style="stroke:#038048;stroke-width:1.0;"/><text fill="#000000" font-family="sans-serif" font-size="14" lengthAdjust="spacing" textLength="154" x="287" y="459.2285">findAll(): Iterable&lt;Class&gt;</text></g><!--class ExtraClassRepository--><g id="elem_ExtraClassRepository"><rect codeLine="27" fill="#F1F1F1" height="85.2422" id="ExtraClassRepository" rx="2.5" ry="2.5" style="stroke:#181818;stroke-width:0.5;" width="432" x="702" y="381.5"/><ellipse cx="846.25" cy="397.5" fill="#ADD1B2" rx="11" ry="11" style="stroke:#181818;stroke-width:1.0;"/><path d="M849.0156,393.375 Q849.1719,393.1563 849.3594,393.0469 Q849.5469,392.9375 849.7656,392.9375 Q850.1406,392.9375 850.375,393.2031 Q850.6094,393.4531 850.6094,394.0625 L850.6094,395.5156 Q850.6094,396.125 850.375,396.3906 Q850.1406,396.6563 849.7656,396.6563 Q849.4219,396.6563 849.2188,396.4531 Q849.0156,396.2656 848.9063,395.75 Q848.8594,395.3906 848.6719,395.2031 Q848.3438,394.8281 847.7344,394.6094 Q847.125,394.3906 846.5,394.3906 Q845.7344,394.3906 845.0938,394.7188 Q844.4688,395.0469 843.9688,395.7969 Q843.4844,396.5469 843.4844,397.5781 L843.4844,398.6719 Q843.4844,399.9063 844.375,400.7344 Q845.2656,401.5469 846.8594,401.5469 Q847.7969,401.5469 848.4531,401.2969 Q848.8438,401.1406 849.2656,400.7031 Q849.5313,400.4375 849.6719,400.3594 Q849.8281,400.2813 850.0313,400.2813 Q850.3594,400.2813 850.6094,400.5469 Q850.875,400.7969 850.875,401.1406 Q850.875,401.4844 850.5313,401.8906 Q850.0313,402.4688 849.2344,402.7969 Q848.1563,403.25 846.8594,403.25 Q845.3438,403.25 844.1406,402.625 Q843.1563,402.125 842.4688,401.0625 Q841.7813,399.9844 841.7813,398.7031 L841.7813,397.5469 Q841.7813,396.2188 842.3906,395.0781 Q843.0156,393.9219 844.1094,393.3125 Q845.2031,392.6875 846.4375,392.6875 Q847.1719,392.6875 847.8125,392.8594 Q848.4688,393.0156 849.0156,393.375 Z " fill="#000000"/><text fill="#000000" font-family="sans-serif" font-size="14" lengthAdjust="spacing" textLength="135" x="866.75" y="403.2969">ExtraClassRepository</text><line style="stroke:#181818;stroke-width:0.5;" x1="703" x2="1133" y1="413.5" y2="413.5"/><line style="stroke:#181818;stroke-width:0.5;" x1="703" x2="1133" y1="421.5" y2="421.5"/><ellipse cx="713" cy="436.3105" fill="#84BE84" rx="3" ry="3" style="stroke:#038048;stroke-width:1.0;"/><text fill="#000000" font-family="sans-serif" font-size="14" lengthAdjust="spacing" textLength="406" x="722" y="440.6074">findAllClassesByAcronym(acronym: String): Iterable&lt;ExtraClass&gt;</text><ellipse cx="713" cy="454.9316" fill="#84BE84" rx="3" ry="3" style="stroke:#038048;stroke-width:1.0;"/><text fill="#000000" font-family="sans-serif" font-size="14" lengthAdjust="spacing" textLength="186" x="722" y="459.2285">findAll(): Iterable&lt;ExtraClass&gt;</text></g><!--class TeacherRepository--><g id="elem_TeacherRepository"><rect codeLine="32" fill="#F1F1F1" height="103.8633" id="TeacherRepository" rx="2.5" ry="2.5" style="stroke:#181818;stroke-width:0.5;" width="301" x="1169.5" y="372"/><ellipse cx="1255.25" cy="388" fill="#ADD1B2" rx="11" ry="11" style="stroke:#181818;stroke-width:1.0;"/><path d="M1258.0156,383.875 Q1258.1719,383.6563 1258.3594,383.5469 Q1258.5469,383.4375 1258.7656,383.4375 Q1259.1406,383.4375 1259.375,383.7031 Q1259.6094,383.9531 1259.6094,384.5625 L1259.6094,386.0156 Q1259.6094,386.625 1259.375,386.8906 Q1259.1406,387.1563 1258.7656,387.1563 Q1258.4219,387.1563 1258.2188,386.9531 Q1258.0156,386.7656 1257.9063,386.25 Q1257.8594,385.8906 1257.6719,385.7031 Q1257.3438,385.3281 1256.7344,385.1094 Q1256.125,384.8906 1255.5,384.8906 Q1254.7344,384.8906 1254.0938,385.2188 Q1253.4688,385.5469 1252.9688,386.2969 Q1252.4844,387.0469 1252.4844,388.0781 L1252.4844,389.1719 Q1252.4844,390.4063 1253.375,391.2344 Q1254.2656,392.0469 1255.8594,392.0469 Q1256.7969,392.0469 1257.4531,391.7969 Q1257.8438,391.6406 1258.2656,391.2031 Q1258.5313,390.9375 1258.6719,390.8594 Q1258.8281,390.7813 1259.0313,390.7813 Q1259.3594,390.7813 1259.6094,391.0469 Q1259.875,391.2969 1259.875,391.6406 Q1259.875,391.9844 1259.5313,392.3906 Q1259.0313,392.9688 1258.2344,393.2969 Q1257.1563,393.75 1255.8594,393.75 Q1254.3438,393.75 1253.1406,393.125 Q1252.1563,392.625 1251.4688,391.5625 Q1250.7813,390.4844 1250.7813,389.2031 L1250.7813,388.0469 Q1250.7813,386.7188 1251.3906,385.5781 Q1252.0156,384.4219 1253.1094,383.8125 Q1254.2031,383.1875 1255.4375,383.1875 Q1256.1719,383.1875 1256.8125,383.3594 Q1257.4688,383.5156 1258.0156,383.875 Z " fill="#000000"/><text fill="#000000" font-family="sans-serif" font-size="14" lengthAdjust="spacing" textLength="121" x="1275.75" y="393.7969">TeacherRepository</text><line style="stroke:#181818;stroke-width:0.5;" x1="1170.5" x2="1469.5" y1="404" y2="404"/><line style="stroke:#181818;stroke-width:0.5;" x1="1170.5" x2="1469.5" y1="412" y2="412"/><ellipse cx="1180.5" cy="426.8105" fill="#84BE84" rx="3" ry="3" style="stroke:#038048;stroke-width:1.0;"/><text fill="#000000" font-family="sans-serif" font-size="14" lengthAdjust="spacing" textLength="232" x="1189.5" y="431.1074">findAllTeachers(): Iterable&lt;Teacher&gt;</text><ellipse cx="1180.5" cy="445.4316" fill="#84BE84" rx="3" ry="3" style="stroke:#038048;stroke-width:1.0;"/><text fill="#000000" font-family="sans-serif" font-size="14" lengthAdjust="spacing" textLength="264" x="1189.5" y="449.7285">findByAcronym(acronym: String): Teacher</text><ellipse cx="1180.5" cy="464.0527" fill="#84BE84" rx="3" ry="3" style="stroke:#038048;stroke-width:1.0;"/><text fill="#000000" font-family="sans-serif" font-size="14" lengthAdjust="spacing" textLength="275" x="1189.5" y="468.3496">findTeacherByEmail(email: String): Teacher</text></g><!--link ScheduleExtraClassUI to ScheduleExtraClassController--><g id="link_ScheduleExtraClassUI_ScheduleExtraClassController"><path codeLine="37" d="M177.25,40.5 C187.1,40.5 196.94,40.5 206.79,40.5 " fill="none" id="ScheduleExtraClassUI-to-ScheduleExtraClassController" style="stroke:#181818;stroke-width:1.0;"/><polygon fill="#181818" points="211.94,40.5,202.94,36.5,206.94,40.5,202.94,44.5,211.94,40.5" style="stroke:#181818;stroke-width:1.0;"/></g><!--link ScheduleExtraClassController to ScheduleExtraClassService--><g id="link_ScheduleExtraClassController_ScheduleExtraClassService"><path codeLine="38" d="M692,74.19 C692,89.6 692,108.86 692,128.34 " fill="none" id="ScheduleExtraClassController-to-ScheduleExtraClassService" style="stroke:#181818;stroke-width:1.0;"/><polygon fill="#181818" points="692,133.83,696,124.83,692,128.83,688,124.83,692,133.83" style="stroke:#181818;stroke-width:1.0;"/></g><!--link ScheduleExtraClassService to StudentManagmentService--><g id="link_ScheduleExtraClassService_StudentManagmentService"><path codeLine="39" d="M417.55,312.02 C361.8,330.98 303.79,351.51 250,372 C236.72,377.06 222.74,382.73 209.21,388.41 " fill="none" id="ScheduleExtraClassService-to-StudentManagmentService" style="stroke:#181818;stroke-width:1.0;"/><polygon fill="#181818" points="204.25,390.49,214.0969,390.684,208.8582,388.5497,210.9925,383.3109,204.25,390.49" style="stroke:#181818;stroke-width:1.0;"/></g><!--link ScheduleExtraClassService to ClassRepository--><g id="link_ScheduleExtraClassService_ClassRepository"><path codeLine="41" d="M592.33,312.15 C566.55,334.95 539.86,358.56 517.77,378.1 " fill="none" id="ScheduleExtraClassService-to-ClassRepository" style="stroke:#181818;stroke-width:1.0;"/><polygon fill="#181818" points="513.98,381.45,523.3698,378.4782,517.7233,378.1353,518.0662,372.4888,513.98,381.45" style="stroke:#181818;stroke-width:1.0;"/></g><!--link ScheduleExtraClassService to ExtraClassRepository--><g id="link_ScheduleExtraClassService_ExtraClassRepository"><path codeLine="42" d="M792.11,312.15 C818.01,334.95 844.82,358.56 867,378.1 " fill="none" id="ScheduleExtraClassService-to-ExtraClassRepository" style="stroke:#181818;stroke-width:1.0;"/><polygon fill="#181818" points="870.81,381.45,866.7046,372.4976,867.0596,378.1433,861.4139,378.4983,870.81,381.45" style="stroke:#181818;stroke-width:1.0;"/></g><!--link ScheduleExtraClassService to TeacherRepository--><g id="link_ScheduleExtraClassService_TeacherRepository"><path codeLine="43" d="M969.74,312.01 C1036.48,333.16 1105.44,355.01 1164.34,373.67 " fill="none" id="ScheduleExtraClassService-to-TeacherRepository" style="stroke:#181818;stroke-width:1.0;"/><polygon fill="#181818" points="1169.28,375.24,1161.9116,368.7049,1164.5142,373.7275,1159.4917,376.3301,1169.28,375.24" style="stroke:#181818;stroke-width:1.0;"/></g><!--SRC=[pLHDZu8m4BttL_I8SVq3n9Yewy74lIpksTGoIfFIRjggIpR-zwrGeK35mrxaKE3rpSoRVZpAYTOueHca9mwh7wF8yWPzhNyH7kDK9fcyH2E4heW-e2wbC4fo3WhR6FkCTOyJ4QgaAF8O9qOnSNp3XXaEpIyJp332joptm8D5TTR615pUYV40k1NPbU9sX5AmBywqYV76ZjF4d58GPZQAyLcoj6cZmZ-88CVSVYIWpep2lG4WYcQBOfKJncttL_ImUnVeMf-Kj4_ubfePgOeOBzj0nO8wtAUk0cZ5Dq1iOUMJjrselVGli-0jLIzp5fgbhWGolG1p0H2HAIji9Aq4TDHuk1NKGstclPGSYAZIda6nGx4-kCtgTkxHwnFMsV_xbRBLqZddvIpeHJ6lCWKohWqeikSmBRcpLdWKcAyhXuxVFyetwGOq-AHQIEzeTrIuUTtAv42lrf1Ansx83hXVURYD0VuLXQmIJsQ3leW6JNCIZ7Q-WXuxJXaNjZ7q9AnhCiFie2yDX_JTwGy0]--></g></svg>