<?xml version="1.0" encoding="UTF-8" standalone="no"?><svg xmlns="http://www.w3.org/2000/svg" xmlns:xlink="http://www.w3.org/1999/xlink" contentStyleType="text/css" height="621px" preserveAspectRatio="none" style="width:310px;height:621px;background:#FFFFFF;" version="1.1" viewBox="0 0 310 621" width="310px" zoomAndPan="magnify"><defs/><g><!--MD5=[4d164f7a3d1da48ac13f2fa437f68522]
class DeactivateActivateCourseUI--><g id="elem_DeactivateActivateCourseUI"><rect codeLine="1" fill="#F1F1F1" height="76.3125" id="DeactivateActivateCourseUI" rx="2.5" ry="2.5" style="stroke:#181818;stroke-width:0.5;" width="207" x="37" y="7"/><ellipse cx="52" cy="28.3516" fill="#ADD1B2" rx="11" ry="11" style="stroke:#181818;stroke-width:1.0;"/><path d="M54,24.8516 Q54.2031,24.3516 54.4375,24.1016 Q54.6719,23.8516 54.9375,23.8516 Q55.4063,23.8516 55.7031,24.1328 Q56,24.4141 56,25.0703 L56,26.6328 Q56,27.2891 55.7188,27.5703 Q55.4375,27.8516 55,27.8516 Q54.6094,27.8516 54.3594,27.6797 Q54.1094,27.5078 54,27.0547 Q53.9531,26.7422 53.7813,26.5703 Q53.4688,26.2422 52.9063,26.0547 Q52.3438,25.8516 51.7813,25.8516 Q51.0781,25.8516 50.4844,26.1328 Q49.9063,26.4141 49.4531,27.0391 Q49,27.6641 49,28.5234 L49,29.4453 Q49,30.4766 49.8438,31.1641 Q50.6875,31.8516 52.1875,31.8516 Q53.0781,31.8516 53.7031,31.6484 Q54.0625,31.5391 54.4688,31.1797 Q54.7344,30.9766 54.875,30.9141 Q55.0156,30.8516 55.1875,30.8516 Q55.5156,30.8516 55.75,31.1172 Q56,31.3672 56,31.7266 Q56,32.0703 55.6563,32.4766 Q55.1563,33.0703 54.3594,33.3984 Q53.3125,33.8516 52.0313,33.8516 Q50.5313,33.8516 49.3281,33.2578 Q48.3594,32.7891 47.6719,31.7734 Q47,30.7578 47,29.5547 L47,28.4609 Q47,27.2109 47.5938,26.1172 Q48.2031,25.0234 49.25,24.4453 Q50.3125,23.8516 51.5,23.8516 Q52.2188,23.8516 52.8438,24.1016 Q53.4688,24.3516 54,24.8516 Z " fill="#000000"/><text fill="#000000" font-family="sans-serif" font-size="12" font-style="italic" lengthAdjust="spacing" textLength="82" x="112.5" y="24.457">«presentation»</text><text fill="#000000" font-family="sans-serif" font-size="14" lengthAdjust="spacing" textLength="175" x="66" y="41.627">DeactivateActivateCourseUI</text><line style="stroke:#181818;stroke-width:0.5;" x1="38" x2="243" y1="49.7031" y2="49.7031"/><line style="stroke:#181818;stroke-width:0.5;" x1="38" x2="243" y1="57.7031" y2="57.7031"/><ellipse cx="48" cy="72.0078" fill="#84BE84" rx="3" ry="3" style="stroke:#038048;stroke-width:1.0;"/><text fill="#000000" font-family="sans-serif" font-size="14" lengthAdjust="spacing" textLength="60" x="57" y="76.2363">doShow()</text></g><!--MD5=[904cf04761504db70868c2238c555075]
class DeactivateActivateCourseController--><g id="elem_DeactivateActivateCourseController"><rect codeLine="5" fill="#F1F1F1" height="129.1406" id="DeactivateActivateCourseController" rx="2.5" ry="2.5" style="stroke:#181818;stroke-width:0.5;" width="257" x="12" y="143"/><ellipse cx="27" cy="164.3516" fill="#ADD1B2" rx="11" ry="11" style="stroke:#181818;stroke-width:1.0;"/><path d="M29,160.8516 Q29.2031,160.3516 29.4375,160.1016 Q29.6719,159.8516 29.9375,159.8516 Q30.4063,159.8516 30.7031,160.1328 Q31,160.4141 31,161.0703 L31,162.6328 Q31,163.2891 30.7188,163.5703 Q30.4375,163.8516 30,163.8516 Q29.6094,163.8516 29.3594,163.6797 Q29.1094,163.5078 29,163.0547 Q28.9531,162.7422 28.7813,162.5703 Q28.4688,162.2422 27.9063,162.0547 Q27.3438,161.8516 26.7813,161.8516 Q26.0781,161.8516 25.4844,162.1328 Q24.9063,162.4141 24.4531,163.0391 Q24,163.6641 24,164.5234 L24,165.4453 Q24,166.4766 24.8438,167.1641 Q25.6875,167.8516 27.1875,167.8516 Q28.0781,167.8516 28.7031,167.6484 Q29.0625,167.5391 29.4688,167.1797 Q29.7344,166.9766 29.875,166.9141 Q30.0156,166.8516 30.1875,166.8516 Q30.5156,166.8516 30.75,167.1172 Q31,167.3672 31,167.7266 Q31,168.0703 30.6563,168.4766 Q30.1563,169.0703 29.3594,169.3984 Q28.3125,169.8516 27.0313,169.8516 Q25.5313,169.8516 24.3281,169.2578 Q23.3594,168.7891 22.6719,167.7734 Q22,166.7578 22,165.5547 L22,164.4609 Q22,163.2109 22.5938,162.1172 Q23.2031,161.0234 24.25,160.4453 Q25.3125,159.8516 26.5,159.8516 Q27.2188,159.8516 27.8438,160.1016 Q28.4688,160.3516 29,160.8516 Z " fill="#000000"/><text fill="#000000" font-family="sans-serif" font-size="12" font-style="italic" lengthAdjust="spacing" textLength="74" x="116.5" y="160.457">«application»</text><text fill="#000000" font-family="sans-serif" font-size="14" lengthAdjust="spacing" textLength="225" x="41" y="177.627">DeactivateActivateCourseController</text><line style="stroke:#181818;stroke-width:0.5;" x1="13" x2="268" y1="185.7031" y2="185.7031"/><line style="stroke:#181818;stroke-width:0.5;" x1="13" x2="268" y1="193.7031" y2="193.7031"/><ellipse cx="23" cy="208.0078" fill="#84BE84" rx="3" ry="3" style="stroke:#038048;stroke-width:1.0;"/><text fill="#000000" font-family="sans-serif" font-size="14" lengthAdjust="spacing" textLength="100" x="32" y="212.2363">activeCourses()</text><ellipse cx="23" cy="225.6172" fill="#84BE84" rx="3" ry="3" style="stroke:#038048;stroke-width:1.0;"/><text fill="#000000" font-family="sans-serif" font-size="14" lengthAdjust="spacing" textLength="111" x="32" y="229.8457">inactiveCourses()</text><ellipse cx="23" cy="243.2266" fill="#84BE84" rx="3" ry="3" style="stroke:#038048;stroke-width:1.0;"/><text fill="#000000" font-family="sans-serif" font-size="14" lengthAdjust="spacing" textLength="148" x="32" y="247.4551">activateCourse(course)</text><ellipse cx="23" cy="260.8359" fill="#84BE84" rx="3" ry="3" style="stroke:#038048;stroke-width:1.0;"/><text fill="#000000" font-family="sans-serif" font-size="14" lengthAdjust="spacing" textLength="164" x="32" y="265.0645">deactivateCourse(course)</text></g><!--MD5=[d2835a54d52a26759a9c0b49dfb83fe0]
class CourseManagementService--><g id="elem_CourseManagementService"><rect codeLine="12" fill="#F1F1F1" height="129.1406" id="CourseManagementService" rx="2.5" ry="2.5" style="stroke:#181818;stroke-width:0.5;" width="207" x="37" y="332"/><ellipse cx="52" cy="353.3516" fill="#ADD1B2" rx="11" ry="11" style="stroke:#181818;stroke-width:1.0;"/><path d="M54,349.8516 Q54.2031,349.3516 54.4375,349.1016 Q54.6719,348.8516 54.9375,348.8516 Q55.4063,348.8516 55.7031,349.1328 Q56,349.4141 56,350.0703 L56,351.6328 Q56,352.2891 55.7188,352.5703 Q55.4375,352.8516 55,352.8516 Q54.6094,352.8516 54.3594,352.6797 Q54.1094,352.5078 54,352.0547 Q53.9531,351.7422 53.7813,351.5703 Q53.4688,351.2422 52.9063,351.0547 Q52.3438,350.8516 51.7813,350.8516 Q51.0781,350.8516 50.4844,351.1328 Q49.9063,351.4141 49.4531,352.0391 Q49,352.6641 49,353.5234 L49,354.4453 Q49,355.4766 49.8438,356.1641 Q50.6875,356.8516 52.1875,356.8516 Q53.0781,356.8516 53.7031,356.6484 Q54.0625,356.5391 54.4688,356.1797 Q54.7344,355.9766 54.875,355.9141 Q55.0156,355.8516 55.1875,355.8516 Q55.5156,355.8516 55.75,356.1172 Q56,356.3672 56,356.7266 Q56,357.0703 55.6563,357.4766 Q55.1563,358.0703 54.3594,358.3984 Q53.3125,358.8516 52.0313,358.8516 Q50.5313,358.8516 49.3281,358.2578 Q48.3594,357.7891 47.6719,356.7734 Q47,355.7578 47,354.5547 L47,353.4609 Q47,352.2109 47.5938,351.1172 Q48.2031,350.0234 49.25,349.4453 Q50.3125,348.8516 51.5,348.8516 Q52.2188,348.8516 52.8438,349.1016 Q53.4688,349.3516 54,349.8516 Z " fill="#000000"/><text fill="#000000" font-family="sans-serif" font-size="12" font-style="italic" lengthAdjust="spacing" textLength="74" x="116.5" y="349.457">«application»</text><text fill="#000000" font-family="sans-serif" font-size="14" lengthAdjust="spacing" textLength="175" x="66" y="366.627">CourseManagementService</text><line style="stroke:#181818;stroke-width:0.5;" x1="38" x2="243" y1="374.7031" y2="374.7031"/><line style="stroke:#181818;stroke-width:0.5;" x1="38" x2="243" y1="382.7031" y2="382.7031"/><ellipse cx="48" cy="397.0078" fill="#84BE84" rx="3" ry="3" style="stroke:#038048;stroke-width:1.0;"/><text fill="#000000" font-family="sans-serif" font-size="14" lengthAdjust="spacing" textLength="100" x="57" y="401.2363">activeCourses()</text><ellipse cx="48" cy="414.6172" fill="#84BE84" rx="3" ry="3" style="stroke:#038048;stroke-width:1.0;"/><text fill="#000000" font-family="sans-serif" font-size="14" lengthAdjust="spacing" textLength="111" x="57" y="418.8457">inactiveCourses()</text><ellipse cx="48" cy="432.2266" fill="#84BE84" rx="3" ry="3" style="stroke:#038048;stroke-width:1.0;"/><text fill="#000000" font-family="sans-serif" font-size="14" lengthAdjust="spacing" textLength="148" x="57" y="436.4551">activateCourse(course)</text><ellipse cx="48" cy="449.8359" fill="#84BE84" rx="3" ry="3" style="stroke:#038048;stroke-width:1.0;"/><text fill="#000000" font-family="sans-serif" font-size="14" lengthAdjust="spacing" textLength="164" x="57" y="454.0645">deactivateCourse(course)</text></g><!--MD5=[4066b0363c5a91ff3b6e03e0428953a9]
class Course--><g id="elem_Course"><rect codeLine="19" fill="#F1F1F1" height="93.9219" id="Course" rx="2.5" ry="2.5" style="stroke:#181818;stroke-width:0.5;" width="101" x="7" y="521"/><ellipse cx="29.65" cy="542.3516" fill="#ADD1B2" rx="11" ry="11" style="stroke:#181818;stroke-width:1.0;"/><path d="M31.65,538.8516 Q31.8531,538.3516 32.0875,538.1016 Q32.3219,537.8516 32.5875,537.8516 Q33.0563,537.8516 33.3531,538.1328 Q33.65,538.4141 33.65,539.0703 L33.65,540.6328 Q33.65,541.2891 33.3688,541.5703 Q33.0875,541.8516 32.65,541.8516 Q32.2594,541.8516 32.0094,541.6797 Q31.7594,541.5078 31.65,541.0547 Q31.6031,540.7422 31.4313,540.5703 Q31.1188,540.2422 30.5563,540.0547 Q29.9938,539.8516 29.4313,539.8516 Q28.7281,539.8516 28.1344,540.1328 Q27.5563,540.4141 27.1031,541.0391 Q26.65,541.6641 26.65,542.5234 L26.65,543.4453 Q26.65,544.4766 27.4938,545.1641 Q28.3375,545.8516 29.8375,545.8516 Q30.7281,545.8516 31.3531,545.6484 Q31.7125,545.5391 32.1188,545.1797 Q32.3844,544.9766 32.525,544.9141 Q32.6656,544.8516 32.8375,544.8516 Q33.1656,544.8516 33.4,545.1172 Q33.65,545.3672 33.65,545.7266 Q33.65,546.0703 33.3063,546.4766 Q32.8063,547.0703 32.0094,547.3984 Q30.9625,547.8516 29.6813,547.8516 Q28.1813,547.8516 26.9781,547.2578 Q26.0094,546.7891 25.3219,545.7734 Q24.65,544.7578 24.65,543.5547 L24.65,542.4609 Q24.65,541.2109 25.2438,540.1172 Q25.8531,539.0234 26.9,538.4453 Q27.9625,537.8516 29.15,537.8516 Q29.8688,537.8516 30.4938,538.1016 Q31.1188,538.3516 31.65,538.8516 Z " fill="#000000"/><text fill="#000000" font-family="sans-serif" font-size="12" font-style="italic" lengthAdjust="spacing" textLength="56" x="43.35" y="538.457">«domain»</text><text fill="#000000" font-family="sans-serif" font-size="14" lengthAdjust="spacing" textLength="46" x="48.35" y="555.627">Course</text><line style="stroke:#181818;stroke-width:0.5;" x1="8" x2="107" y1="563.7031" y2="563.7031"/><line style="stroke:#181818;stroke-width:0.5;" x1="8" x2="107" y1="571.7031" y2="571.7031"/><ellipse cx="18" cy="586.0078" fill="#84BE84" rx="3" ry="3" style="stroke:#038048;stroke-width:1.0;"/><text fill="#000000" font-family="sans-serif" font-size="14" lengthAdjust="spacing" textLength="59" x="27" y="590.2363">activate()</text><ellipse cx="18" cy="603.6172" fill="#84BE84" rx="3" ry="3" style="stroke:#038048;stroke-width:1.0;"/><text fill="#000000" font-family="sans-serif" font-size="14" lengthAdjust="spacing" textLength="75" x="27" y="607.8457">deactivate()</text></g><!--MD5=[093c210125347143eef5bb9199eae634]
class UserRepository--><g id="elem_UserRepository"><rect codeLine="24" fill="#F1F1F1" height="93.9219" id="UserRepository" rx="2.5" ry="2.5" style="stroke:#181818;stroke-width:0.5;" width="160" x="143.5" y="521"/><ellipse cx="172.45" cy="542.3516" fill="#ADD1B2" rx="11" ry="11" style="stroke:#181818;stroke-width:1.0;"/><path d="M174.45,538.8516 Q174.6531,538.3516 174.8875,538.1016 Q175.1219,537.8516 175.3875,537.8516 Q175.8563,537.8516 176.1531,538.1328 Q176.45,538.4141 176.45,539.0703 L176.45,540.6328 Q176.45,541.2891 176.1688,541.5703 Q175.8875,541.8516 175.45,541.8516 Q175.0594,541.8516 174.8094,541.6797 Q174.5594,541.5078 174.45,541.0547 Q174.4031,540.7422 174.2313,540.5703 Q173.9188,540.2422 173.3563,540.0547 Q172.7938,539.8516 172.2313,539.8516 Q171.5281,539.8516 170.9344,540.1328 Q170.3563,540.4141 169.9031,541.0391 Q169.45,541.6641 169.45,542.5234 L169.45,543.4453 Q169.45,544.4766 170.2938,545.1641 Q171.1375,545.8516 172.6375,545.8516 Q173.5281,545.8516 174.1531,545.6484 Q174.5125,545.5391 174.9188,545.1797 Q175.1844,544.9766 175.325,544.9141 Q175.4656,544.8516 175.6375,544.8516 Q175.9656,544.8516 176.2,545.1172 Q176.45,545.3672 176.45,545.7266 Q176.45,546.0703 176.1063,546.4766 Q175.6063,547.0703 174.8094,547.3984 Q173.7625,547.8516 172.4813,547.8516 Q170.9813,547.8516 169.7781,547.2578 Q168.8094,546.7891 168.1219,545.7734 Q167.45,544.7578 167.45,543.5547 L167.45,542.4609 Q167.45,541.2109 168.0438,540.1172 Q168.6531,539.0234 169.7,538.4453 Q170.7625,537.8516 171.95,537.8516 Q172.6688,537.8516 173.2938,538.1016 Q173.9188,538.3516 174.45,538.8516 Z " fill="#000000"/><text fill="#000000" font-family="sans-serif" font-size="12" font-style="italic" lengthAdjust="spacing" textLength="68" x="204.05" y="538.457">«repository»</text><text fill="#000000" font-family="sans-serif" font-size="14" lengthAdjust="spacing" textLength="97" x="189.55" y="555.627">UserRepository</text><line style="stroke:#181818;stroke-width:0.5;" x1="144.5" x2="302.5" y1="563.7031" y2="563.7031"/><line style="stroke:#181818;stroke-width:0.5;" x1="144.5" x2="302.5" y1="571.7031" y2="571.7031"/><ellipse cx="154.5" cy="586.0078" fill="#84BE84" rx="3" ry="3" style="stroke:#038048;stroke-width:1.0;"/><text fill="#000000" font-family="sans-serif" font-size="14" lengthAdjust="spacing" textLength="124" x="163.5" y="590.2363">findActiveCourses()</text><ellipse cx="154.5" cy="603.6172" fill="#84BE84" rx="3" ry="3" style="stroke:#038048;stroke-width:1.0;"/><text fill="#000000" font-family="sans-serif" font-size="14" lengthAdjust="spacing" textLength="134" x="163.5" y="607.8457">findInactiveCourses()</text></g><!--MD5=[95f7c66c89cc410c04a53fad9abe4650]
link DeactivateActivateCourseUI to DeactivateActivateCourseController--><g id="link_DeactivateActivateCourseUI_DeactivateActivateCourseController"><path codeLine="29" d="M140.5,83.23 C140.5,99.39 140.5,118.87 140.5,137.52 " fill="none" id="DeactivateActivateCourseUI-to-DeactivateActivateCourseController" style="stroke:#181818;stroke-width:1.0;"/><polygon fill="#181818" points="140.5,142.75,144.5,133.75,140.5,137.75,136.5,133.75,140.5,142.75" style="stroke:#181818;stroke-width:1.0;"/></g><!--MD5=[86ed16d7b0062b17a05d8524ccad4770]
link DeactivateActivateCourseController to CourseManagementService--><g id="link_DeactivateActivateCourseController_CourseManagementService"><path codeLine="30" d="M140.5,272.07 C140.5,289.69 140.5,308.88 140.5,326.78 " fill="none" id="DeactivateActivateCourseController-to-CourseManagementService" style="stroke:#181818;stroke-width:1.0;"/><polygon fill="#181818" points="140.5,331.79,144.5,322.79,140.5,326.79,136.5,322.79,140.5,331.79" style="stroke:#181818;stroke-width:1.0;"/></g><!--MD5=[873bad903f75ebb668052762993ba6e4]
link CourseManagementService to Course--><g id="link_CourseManagementService_Course"><path codeLine="31" d="M109.36,461.1 C100.49,479.22 90.94,498.71 82.49,515.97 " fill="none" id="CourseManagementService-to-Course" style="stroke:#181818;stroke-width:1.0;"/><polygon fill="#181818" points="80.13,520.78,87.6844,514.4609,82.3317,516.2908,80.5017,510.9382,80.13,520.78" style="stroke:#181818;stroke-width:1.0;"/></g><!--MD5=[fc0b41960bf890f2d9b65f618d8dbd4a]
link CourseManagementService to UserRepository--><g id="link_CourseManagementService_UserRepository"><path codeLine="32" d="M171.64,461.1 C180.51,479.22 190.06,498.71 198.51,515.97 " fill="none" id="CourseManagementService-to-UserRepository" style="stroke:#181818;stroke-width:1.0;"/><polygon fill="#181818" points="200.87,520.78,200.4983,510.9382,198.6683,516.2908,193.3156,514.4609,200.87,520.78" style="stroke:#181818;stroke-width:1.0;"/></g><!--MD5=[1248f00c992bae1b50b7015ebe21d6eb]
@startuml
class DeactivateActivateCourseUI <<presentation>>{
+doShow()
}

class DeactivateActivateCourseController <<application>> {
+activeCourses()
+inactiveCourses()
+activateCourse(course)
+deactivateCourse(course)
}

class CourseManagementService <<application>> {
+activeCourses()
+inactiveCourses()
+activateCourse(course)
+deactivateCourse(course)
}

class Course <<domain>> {
+activate()
+deactivate()
}

class UserRepository <<repository>> {
+findActiveCourses()
+findInactiveCourses()
}

DeactivateActivateCourseUI - -> DeactivateActivateCourseController
DeactivateActivateCourseController - -> CourseManagementService
CourseManagementService - -> Course
CourseManagementService - -> UserRepository


@enduml

PlantUML version 1.2022.12(Sun Oct 23 19:12:26 BST 2022)
(GPL source distribution)
Java Runtime: OpenJDK Runtime Environment
JVM: OpenJDK 64-Bit Server VM
Default Encoding: Cp1252
Language: pt
Country: PT
--></g></svg>