<?xml version="1.0" encoding="UTF-8" standalone="no"?><svg xmlns="http://www.w3.org/2000/svg" xmlns:xlink="http://www.w3.org/1999/xlink" contentStyleType="text/css" height="1480px" preserveAspectRatio="none" style="width:1001px;height:1480px;background:#FFFFFF;" version="1.1" viewBox="0 0 1001 1480" width="1001px" zoomAndPan="magnify"><defs/><g><rect fill="#FFFFFF" height="1296.7656" style="stroke:#181818;stroke-width:1.0;" width="10" x="46" y="92.6094"/><rect fill="#FFFFFF" height="556.3281" style="stroke:#181818;stroke-width:1.0;" width="10" x="277" y="114.9609"/><rect fill="#FFFFFF" height="273.1641" style="stroke:#181818;stroke-width:1.0;" width="10" x="277" y="733.9922"/><rect fill="#FFFFFF" height="310.5156" style="stroke:#181818;stroke-width:1.0;" width="10" x="277" y="1069.8594"/><rect fill="#FFFFFF" height="212.4609" style="stroke:#181818;stroke-width:1.0;" width="10" x="482" y="214.0156"/><rect fill="#FFFFFF" height="182.1094" style="stroke:#181818;stroke-width:1.0;" width="10" x="482" y="489.1797"/><rect fill="#FFFFFF" height="212.4609" style="stroke:#181818;stroke-width:1.0;" width="10" x="482" y="794.6953"/><rect fill="#FFFFFF" height="212.4609" style="stroke:#181818;stroke-width:1.0;" width="10" x="482" y="1130.5625"/><rect fill="#FFFFFF" height="151.7578" style="stroke:#181818;stroke-width:1.0;" width="10" x="681.5" y="244.3672"/><rect fill="#FFFFFF" height="121.4063" style="stroke:#181818;stroke-width:1.0;" width="10" x="681.5" y="519.5313"/><rect fill="#FFFFFF" height="151.7578" style="stroke:#181818;stroke-width:1.0;" width="10" x="681.5" y="825.0469"/><rect fill="#FFFFFF" height="151.7578" style="stroke:#181818;stroke-width:1.0;" width="10" x="681.5" y="1160.9141"/><rect fill="#FFFFFF" height="30.3516" style="stroke:#181818;stroke-width:1.0;" width="10" x="814.5" y="855.3984"/><rect fill="#FFFFFF" height="30.3516" style="stroke:#181818;stroke-width:1.0;" width="10" x="814.5" y="1191.2656"/><rect fill="#FFFFFF" height="60.7031" style="stroke:#181818;stroke-width:1.0;" width="10" x="918.5" y="305.0703"/><rect fill="#FFFFFF" height="60.7031" style="stroke:#181818;stroke-width:1.0;" width="10" x="918.5" y="549.8828"/><rect fill="#FFFFFF" height="30.3516" style="stroke:#181818;stroke-width:1.0;" width="10" x="918.5" y="916.1016"/><rect fill="#FFFFFF" height="30.3516" style="stroke:#181818;stroke-width:1.0;" width="10" x="918.5" y="1251.9688"/><rect fill="none" height="261.1641" style="stroke:#000000;stroke-width:1.5;" width="820" x="175.5" y="173.3125"/><rect fill="none" height="230.8125" style="stroke:#000000;stroke-width:1.5;" width="820" x="175.5" y="448.4766"/><rect fill="none" height="321.8672" style="stroke:#000000;stroke-width:1.5;" width="985.5" x="10" y="693.2891"/><rect fill="none" height="321.8672" style="stroke:#000000;stroke-width:1.5;" width="985.5" x="10" y="1029.1563"/><line style="stroke:#181818;stroke-width:0.5;stroke-dasharray:5.0,5.0;" x1="51" x2="51" y1="82.6094" y2="1398.375"/><line style="stroke:#181818;stroke-width:0.5;stroke-dasharray:5.0,5.0;" x1="281.5" x2="281.5" y1="82.6094" y2="1398.375"/><line style="stroke:#181818;stroke-width:0.5;stroke-dasharray:5.0,5.0;" x1="486.5" x2="486.5" y1="82.6094" y2="1398.375"/><line style="stroke:#181818;stroke-width:0.5;stroke-dasharray:5.0,5.0;" x1="686.5" x2="686.5" y1="82.6094" y2="1398.375"/><line style="stroke:#181818;stroke-width:0.5;stroke-dasharray:5.0,5.0;" x1="819.5" x2="819.5" y1="82.6094" y2="1398.375"/><line style="stroke:#181818;stroke-width:0.5;stroke-dasharray:5.0,5.0;" x1="923.5" x2="923.5" y1="82.6094" y2="1398.375"/><text fill="#000000" font-family="sans-serif" font-size="14" lengthAdjust="spacing" textLength="56" x="20" y="79.5332">Manager</text><ellipse cx="51" cy="13.5" fill="#E2E2F0" rx="8" ry="8" style="stroke:#181818;stroke-width:0.5;"/><path d="M51,21.5 L51,48.5 M38,29.5 L64,29.5 M51,48.5 L38,63.5 M51,48.5 L64,63.5 " fill="none" style="stroke:#181818;stroke-width:0.5;"/><text fill="#000000" font-family="sans-serif" font-size="14" lengthAdjust="spacing" textLength="56" x="20" y="1411.9082">Manager</text><ellipse cx="51" cy="1423.4844" fill="#E2E2F0" rx="8" ry="8" style="stroke:#181818;stroke-width:0.5;"/><path d="M51,1431.4844 L51,1458.4844 M38,1439.4844 L64,1439.4844 M51,1458.4844 L38,1473.4844 M51,1458.4844 L64,1473.4844 " fill="none" style="stroke:#181818;stroke-width:0.5;"/><rect fill="#E2E2F0" height="31.6094" rx="2.5" ry="2.5" style="stroke:#181818;stroke-width:0.5;" width="193" x="185.5" y="50"/><text fill="#000000" font-family="sans-serif" font-size="14" lengthAdjust="spacing" textLength="179" x="192.5" y="71.5332">:DeactivateActivateCourseUI</text><rect fill="#E2E2F0" height="31.6094" rx="2.5" ry="2.5" style="stroke:#181818;stroke-width:0.5;" width="193" x="185.5" y="1397.375"/><text fill="#000000" font-family="sans-serif" font-size="14" lengthAdjust="spacing" textLength="179" x="192.5" y="1418.9082">:DeactivateActivateCourseUI</text><rect fill="#E2E2F0" height="31.6094" rx="2.5" ry="2.5" style="stroke:#181818;stroke-width:0.5;" width="197" x="388.5" y="50"/><text fill="#000000" font-family="sans-serif" font-size="14" lengthAdjust="spacing" textLength="183" x="395.5" y="71.5332">:OpenCloseCourseController</text><rect fill="#E2E2F0" height="31.6094" rx="2.5" ry="2.5" style="stroke:#181818;stroke-width:0.5;" width="197" x="388.5" y="1397.375"/><text fill="#000000" font-family="sans-serif" font-size="14" lengthAdjust="spacing" textLength="183" x="395.5" y="1418.9082">:OpenCloseCourseController</text><rect fill="#E2E2F0" height="31.6094" rx="2.5" ry="2.5" style="stroke:#181818;stroke-width:0.5;" width="182" x="595.5" y="50"/><text fill="#000000" font-family="sans-serif" font-size="14" lengthAdjust="spacing" textLength="168" x="602.5" y="71.5332">:OpenCloseCourseService</text><rect fill="#E2E2F0" height="31.6094" rx="2.5" ry="2.5" style="stroke:#181818;stroke-width:0.5;" width="182" x="595.5" y="1397.375"/><text fill="#000000" font-family="sans-serif" font-size="14" lengthAdjust="spacing" textLength="168" x="602.5" y="1418.9082">:OpenCloseCourseService</text><rect fill="#E2E2F0" height="31.6094" rx="2.5" ry="2.5" style="stroke:#181818;stroke-width:0.5;" width="64" x="787.5" y="50"/><text fill="#000000" font-family="sans-serif" font-size="14" lengthAdjust="spacing" textLength="50" x="794.5" y="71.5332">:Course</text><rect fill="#E2E2F0" height="31.6094" rx="2.5" ry="2.5" style="stroke:#181818;stroke-width:0.5;" width="64" x="787.5" y="1397.375"/><text fill="#000000" font-family="sans-serif" font-size="14" lengthAdjust="spacing" textLength="50" x="794.5" y="1418.9082">:Course</text><text fill="#000000" font-family="sans-serif" font-size="14" lengthAdjust="spacing" textLength="118" x="861.5" y="79.5332">:CourseRepository</text><path d="M905.5,29 C905.5,19 923.5,19 923.5,19 C923.5,19 941.5,19 941.5,29 L941.5,55 C941.5,65 923.5,65 923.5,65 C923.5,65 905.5,65 905.5,55 L905.5,29 " fill="#E2E2F0" style="stroke:#181818;stroke-width:1.5;"/><path d="M905.5,29 C905.5,39 923.5,39 923.5,39 C923.5,39 941.5,39 941.5,29 " fill="none" style="stroke:#181818;stroke-width:1.5;"/><text fill="#000000" font-family="sans-serif" font-size="14" lengthAdjust="spacing" textLength="118" x="861.5" y="1411.9082">:CourseRepository</text><path d="M905.5,1424.9844 C905.5,1414.9844 923.5,1414.9844 923.5,1414.9844 C923.5,1414.9844 941.5,1414.9844 941.5,1424.9844 L941.5,1450.9844 C941.5,1460.9844 923.5,1460.9844 923.5,1460.9844 C923.5,1460.9844 905.5,1460.9844 905.5,1450.9844 L905.5,1424.9844 " fill="#E2E2F0" style="stroke:#181818;stroke-width:1.5;"/><path d="M905.5,1424.9844 C905.5,1434.9844 923.5,1434.9844 923.5,1434.9844 C923.5,1434.9844 941.5,1434.9844 941.5,1424.9844 " fill="none" style="stroke:#181818;stroke-width:1.5;"/><rect fill="#FFFFFF" height="1296.7656" style="stroke:#181818;stroke-width:1.0;" width="10" x="46" y="92.6094"/><rect fill="#FFFFFF" height="556.3281" style="stroke:#181818;stroke-width:1.0;" width="10" x="277" y="114.9609"/><rect fill="#FFFFFF" height="273.1641" style="stroke:#181818;stroke-width:1.0;" width="10" x="277" y="733.9922"/><rect fill="#FFFFFF" height="310.5156" style="stroke:#181818;stroke-width:1.0;" width="10" x="277" y="1069.8594"/><rect fill="#FFFFFF" height="212.4609" style="stroke:#181818;stroke-width:1.0;" width="10" x="482" y="214.0156"/><rect fill="#FFFFFF" height="182.1094" style="stroke:#181818;stroke-width:1.0;" width="10" x="482" y="489.1797"/><rect fill="#FFFFFF" height="212.4609" style="stroke:#181818;stroke-width:1.0;" width="10" x="482" y="794.6953"/><rect fill="#FFFFFF" height="212.4609" style="stroke:#181818;stroke-width:1.0;" width="10" x="482" y="1130.5625"/><rect fill="#FFFFFF" height="151.7578" style="stroke:#181818;stroke-width:1.0;" width="10" x="681.5" y="244.3672"/><rect fill="#FFFFFF" height="121.4063" style="stroke:#181818;stroke-width:1.0;" width="10" x="681.5" y="519.5313"/><rect fill="#FFFFFF" height="151.7578" style="stroke:#181818;stroke-width:1.0;" width="10" x="681.5" y="825.0469"/><rect fill="#FFFFFF" height="151.7578" style="stroke:#181818;stroke-width:1.0;" width="10" x="681.5" y="1160.9141"/><rect fill="#FFFFFF" height="30.3516" style="stroke:#181818;stroke-width:1.0;" width="10" x="814.5" y="855.3984"/><rect fill="#FFFFFF" height="30.3516" style="stroke:#181818;stroke-width:1.0;" width="10" x="814.5" y="1191.2656"/><rect fill="#FFFFFF" height="60.7031" style="stroke:#181818;stroke-width:1.0;" width="10" x="918.5" y="305.0703"/><rect fill="#FFFFFF" height="60.7031" style="stroke:#181818;stroke-width:1.0;" width="10" x="918.5" y="549.8828"/><rect fill="#FFFFFF" height="30.3516" style="stroke:#181818;stroke-width:1.0;" width="10" x="918.5" y="916.1016"/><rect fill="#FFFFFF" height="30.3516" style="stroke:#181818;stroke-width:1.0;" width="10" x="918.5" y="1251.9688"/><polygon fill="#181818" points="265,110.9609,275,114.9609,265,118.9609,269,114.9609" style="stroke:#181818;stroke-width:1.0;"/><line style="stroke:#181818;stroke-width:1.0;" x1="56" x2="271" y1="114.9609" y2="114.9609"/><text fill="#000000" font-family="sans-serif" font-size="13" font-weight="bold" lengthAdjust="spacing" textLength="7" x="63" y="110.1045">1</text><text fill="#000000" font-family="sans-serif" font-size="13" lengthAdjust="spacing" textLength="38" x="74" y="110.1045">show()</text><line style="stroke:#181818;stroke-width:1.0;" x1="287" x2="329" y1="145.3125" y2="145.3125"/><line style="stroke:#181818;stroke-width:1.0;" x1="329" x2="329" y1="145.3125" y2="158.3125"/><line style="stroke:#181818;stroke-width:1.0;" x1="288" x2="329" y1="158.3125" y2="158.3125"/><polygon fill="#181818" points="298,154.3125,288,158.3125,298,162.3125,294,158.3125" style="stroke:#181818;stroke-width:1.0;"/><text fill="#000000" font-family="sans-serif" font-size="13" font-weight="bold" lengthAdjust="spacing" textLength="7" x="294" y="140.4561">2</text><text fill="#000000" font-family="sans-serif" font-size="13" lengthAdjust="spacing" textLength="54" x="305" y="140.4561">doShow()</text><path d="M175.5,173.3125 L236.5,173.3125 L236.5,181.6641 L226.5,191.6641 L175.5,191.6641 L175.5,173.3125 " fill="#EEEEEE" style="stroke:#000000;stroke-width:1.5;"/><rect fill="none" height="261.1641" style="stroke:#000000;stroke-width:1.5;" width="820" x="175.5" y="173.3125"/><text fill="#000000" font-family="sans-serif" font-size="13" font-weight="bold" lengthAdjust="spacing" textLength="16" x="190.5" y="187.8076">alt</text><text fill="#000000" font-family="sans-serif" font-size="11" font-weight="bold" lengthAdjust="spacing" textLength="106" x="251.5" y="186.7314">[deactivate course]</text><polygon fill="#181818" points="470,210.0156,480,214.0156,470,218.0156,474,214.0156" style="stroke:#181818;stroke-width:1.0;"/><line style="stroke:#181818;stroke-width:1.0;" x1="287" x2="476" y1="214.0156" y2="214.0156"/><text fill="#000000" font-family="sans-serif" font-size="13" font-weight="bold" lengthAdjust="spacing" textLength="7" x="294" y="209.1592">3</text><text fill="#000000" font-family="sans-serif" font-size="13" lengthAdjust="spacing" textLength="110" x="305" y="209.1592">openCloseCourse()</text><polygon fill="#181818" points="669.5,240.3672,679.5,244.3672,669.5,248.3672,673.5,244.3672" style="stroke:#181818;stroke-width:1.0;"/><line style="stroke:#181818;stroke-width:1.0;" x1="492" x2="675.5" y1="244.3672" y2="244.3672"/><text fill="#000000" font-family="sans-serif" font-size="13" font-weight="bold" lengthAdjust="spacing" textLength="7" x="499" y="239.5107">4</text><text fill="#000000" font-family="sans-serif" font-size="13" lengthAdjust="spacing" textLength="44" x="510" y="239.5107">create()</text><polygon fill="#181818" points="669.5,270.7188,679.5,274.7188,669.5,278.7188,673.5,274.7188" style="stroke:#181818;stroke-width:1.0;"/><line style="stroke:#181818;stroke-width:1.0;" x1="492" x2="675.5" y1="274.7188" y2="274.7188"/><text fill="#000000" font-family="sans-serif" font-size="13" font-weight="bold" lengthAdjust="spacing" textLength="7" x="499" y="269.8623">5</text><text fill="#000000" font-family="sans-serif" font-size="13" lengthAdjust="spacing" textLength="110" x="510" y="269.8623">openCloseCourse()</text><polygon fill="#181818" points="906.5,301.0703,916.5,305.0703,906.5,309.0703,910.5,305.0703" style="stroke:#181818;stroke-width:1.0;"/><line style="stroke:#181818;stroke-width:1.0;" x1="691.5" x2="912.5" y1="305.0703" y2="305.0703"/><text fill="#000000" font-family="sans-serif" font-size="13" font-weight="bold" lengthAdjust="spacing" textLength="7" x="698.5" y="300.2139">6</text><text fill="#000000" font-family="sans-serif" font-size="13" lengthAdjust="spacing" textLength="44" x="709.5" y="300.2139">create()</text><polygon fill="#181818" points="906.5,331.4219,916.5,335.4219,906.5,339.4219,910.5,335.4219" style="stroke:#181818;stroke-width:1.0;"/><line style="stroke:#181818;stroke-width:1.0;" x1="691.5" x2="912.5" y1="335.4219" y2="335.4219"/><text fill="#000000" font-family="sans-serif" font-size="13" font-weight="bold" lengthAdjust="spacing" textLength="7" x="698.5" y="330.5654">7</text><text fill="#000000" font-family="sans-serif" font-size="13" lengthAdjust="spacing" textLength="79" x="709.5" y="330.5654">findByActive()</text><polygon fill="#181818" points="702.5,361.7734,692.5,365.7734,702.5,369.7734,698.5,365.7734" style="stroke:#181818;stroke-width:1.0;"/><line style="stroke:#181818;stroke-width:1.0;stroke-dasharray:2.0,2.0;" x1="696.5" x2="922.5" y1="365.7734" y2="365.7734"/><text fill="#000000" font-family="sans-serif" font-size="13" font-weight="bold" lengthAdjust="spacing" textLength="7" x="708.5" y="360.917">8</text><text fill="#000000" font-family="sans-serif" font-size="13" lengthAdjust="spacing" textLength="4" x="719.5" y="360.917"> </text><polygon fill="#181818" points="503,392.125,493,396.125,503,400.125,499,396.125" style="stroke:#181818;stroke-width:1.0;"/><line style="stroke:#181818;stroke-width:1.0;stroke-dasharray:2.0,2.0;" x1="497" x2="685.5" y1="396.125" y2="396.125"/><text fill="#000000" font-family="sans-serif" font-size="13" font-weight="bold" lengthAdjust="spacing" textLength="7" x="509" y="391.2686">9</text><text fill="#000000" font-family="sans-serif" font-size="13" lengthAdjust="spacing" textLength="4" x="520" y="391.2686"> </text><polygon fill="#181818" points="298,422.4766,288,426.4766,298,430.4766,294,426.4766" style="stroke:#181818;stroke-width:1.0;"/><line style="stroke:#181818;stroke-width:1.0;stroke-dasharray:2.0,2.0;" x1="292" x2="486" y1="426.4766" y2="426.4766"/><text fill="#000000" font-family="sans-serif" font-size="13" font-weight="bold" lengthAdjust="spacing" textLength="14" x="304" y="421.6201">10</text><text fill="#000000" font-family="sans-serif" font-size="13" lengthAdjust="spacing" textLength="4" x="322" y="421.6201"> </text><path d="M175.5,448.4766 L236.5,448.4766 L236.5,456.8281 L226.5,466.8281 L175.5,466.8281 L175.5,448.4766 " fill="#EEEEEE" style="stroke:#000000;stroke-width:1.5;"/><rect fill="none" height="230.8125" style="stroke:#000000;stroke-width:1.5;" width="820" x="175.5" y="448.4766"/><text fill="#000000" font-family="sans-serif" font-size="13" font-weight="bold" lengthAdjust="spacing" textLength="16" x="190.5" y="462.9717">alt</text><text fill="#000000" font-family="sans-serif" font-size="11" font-weight="bold" lengthAdjust="spacing" textLength="92" x="251.5" y="461.8955">[activate course]</text><polygon fill="#181818" points="470,485.1797,480,489.1797,470,493.1797,474,489.1797" style="stroke:#181818;stroke-width:1.0;"/><line style="stroke:#181818;stroke-width:1.0;" x1="287" x2="476" y1="489.1797" y2="489.1797"/><text fill="#000000" font-family="sans-serif" font-size="13" font-weight="bold" lengthAdjust="spacing" textLength="14" x="294" y="484.3232">11</text><text fill="#000000" font-family="sans-serif" font-size="13" lengthAdjust="spacing" textLength="110" x="312" y="484.3232">openCloseCourse()</text><polygon fill="#181818" points="669.5,515.5313,679.5,519.5313,669.5,523.5313,673.5,519.5313" style="stroke:#181818;stroke-width:1.0;"/><line style="stroke:#181818;stroke-width:1.0;" x1="492" x2="675.5" y1="519.5313" y2="519.5313"/><text fill="#000000" font-family="sans-serif" font-size="13" font-weight="bold" lengthAdjust="spacing" textLength="14" x="499" y="514.6748">12</text><text fill="#000000" font-family="sans-serif" font-size="13" lengthAdjust="spacing" textLength="110" x="517" y="514.6748">openCloseCourse()</text><polygon fill="#181818" points="906.5,545.8828,916.5,549.8828,906.5,553.8828,910.5,549.8828" style="stroke:#181818;stroke-width:1.0;"/><line style="stroke:#181818;stroke-width:1.0;" x1="691.5" x2="912.5" y1="549.8828" y2="549.8828"/><text fill="#000000" font-family="sans-serif" font-size="13" font-weight="bold" lengthAdjust="spacing" textLength="14" x="698.5" y="545.0264">13</text><text fill="#000000" font-family="sans-serif" font-size="13" lengthAdjust="spacing" textLength="44" x="716.5" y="545.0264">create()</text><polygon fill="#181818" points="906.5,576.2344,916.5,580.2344,906.5,584.2344,910.5,580.2344" style="stroke:#181818;stroke-width:1.0;"/><line style="stroke:#181818;stroke-width:1.0;" x1="691.5" x2="912.5" y1="580.2344" y2="580.2344"/><text fill="#000000" font-family="sans-serif" font-size="13" font-weight="bold" lengthAdjust="spacing" textLength="14" x="698.5" y="575.3779">14</text><text fill="#000000" font-family="sans-serif" font-size="13" lengthAdjust="spacing" textLength="87" x="716.5" y="575.3779">findByInactive()</text><polygon fill="#181818" points="702.5,606.5859,692.5,610.5859,702.5,614.5859,698.5,610.5859" style="stroke:#181818;stroke-width:1.0;"/><line style="stroke:#181818;stroke-width:1.0;stroke-dasharray:2.0,2.0;" x1="696.5" x2="922.5" y1="610.5859" y2="610.5859"/><text fill="#000000" font-family="sans-serif" font-size="13" font-weight="bold" lengthAdjust="spacing" textLength="14" x="708.5" y="605.7295">15</text><text fill="#000000" font-family="sans-serif" font-size="13" lengthAdjust="spacing" textLength="4" x="726.5" y="605.7295"> </text><polygon fill="#181818" points="503,636.9375,493,640.9375,503,644.9375,499,640.9375" style="stroke:#181818;stroke-width:1.0;"/><line style="stroke:#181818;stroke-width:1.0;stroke-dasharray:2.0,2.0;" x1="497" x2="685.5" y1="640.9375" y2="640.9375"/><text fill="#000000" font-family="sans-serif" font-size="13" font-weight="bold" lengthAdjust="spacing" textLength="14" x="509" y="636.0811">16</text><text fill="#000000" font-family="sans-serif" font-size="13" lengthAdjust="spacing" textLength="4" x="527" y="636.0811"> </text><polygon fill="#181818" points="293,667.2891,283,671.2891,293,675.2891,289,671.2891" style="stroke:#181818;stroke-width:1.0;"/><line style="stroke:#181818;stroke-width:1.0;stroke-dasharray:2.0,2.0;" x1="287" x2="486" y1="671.2891" y2="671.2891"/><text fill="#000000" font-family="sans-serif" font-size="13" font-weight="bold" lengthAdjust="spacing" textLength="14" x="299" y="666.4326">17</text><text fill="#000000" font-family="sans-serif" font-size="13" lengthAdjust="spacing" textLength="4" x="317" y="666.4326"> </text><path d="M10,693.2891 L71,693.2891 L71,701.6406 L61,711.6406 L10,711.6406 L10,693.2891 " fill="#EEEEEE" style="stroke:#000000;stroke-width:1.5;"/><rect fill="none" height="321.8672" style="stroke:#000000;stroke-width:1.5;" width="985.5" x="10" y="693.2891"/><text fill="#000000" font-family="sans-serif" font-size="13" font-weight="bold" lengthAdjust="spacing" textLength="16" x="25" y="707.7842">alt</text><text fill="#000000" font-family="sans-serif" font-size="11" font-weight="bold" lengthAdjust="spacing" textLength="106" x="86" y="706.708">[deactivate course]</text><polygon fill="#181818" points="67,729.9922,57,733.9922,67,737.9922,63,733.9922" style="stroke:#181818;stroke-width:1.0;"/><line style="stroke:#181818;stroke-width:1.0;stroke-dasharray:2.0,2.0;" x1="61" x2="276" y1="733.9922" y2="733.9922"/><text fill="#000000" font-family="sans-serif" font-size="13" font-weight="bold" lengthAdjust="spacing" textLength="14" x="73" y="729.1357">18</text><text fill="#000000" font-family="sans-serif" font-size="13" lengthAdjust="spacing" textLength="184" x="91" y="729.1357">ask the user the course number</text><polygon fill="#181818" points="265,760.3438,275,764.3438,265,768.3438,269,764.3438" style="stroke:#181818;stroke-width:1.0;"/><line style="stroke:#181818;stroke-width:1.0;stroke-dasharray:2.0,2.0;" x1="56" x2="271" y1="764.3438" y2="764.3438"/><text fill="#000000" font-family="sans-serif" font-size="13" font-weight="bold" lengthAdjust="spacing" textLength="14" x="63" y="759.4873">19</text><text fill="#000000" font-family="sans-serif" font-size="13" lengthAdjust="spacing" textLength="144" x="81" y="759.4873">insert the course number</text><polygon fill="#181818" points="470,790.6953,480,794.6953,470,798.6953,474,794.6953" style="stroke:#181818;stroke-width:1.0;"/><line style="stroke:#181818;stroke-width:1.0;" x1="287" x2="476" y1="794.6953" y2="794.6953"/><text fill="#000000" font-family="sans-serif" font-size="13" font-weight="bold" lengthAdjust="spacing" textLength="14" x="294" y="789.8389">20</text><text fill="#000000" font-family="sans-serif" font-size="13" lengthAdjust="spacing" textLength="149" x="312" y="789.8389">openCloseCourse(course)</text><polygon fill="#181818" points="669.5,821.0469,679.5,825.0469,669.5,829.0469,673.5,825.0469" style="stroke:#181818;stroke-width:1.0;"/><line style="stroke:#181818;stroke-width:1.0;" x1="492" x2="675.5" y1="825.0469" y2="825.0469"/><text fill="#000000" font-family="sans-serif" font-size="13" font-weight="bold" lengthAdjust="spacing" textLength="14" x="499" y="820.1904">21</text><text fill="#000000" font-family="sans-serif" font-size="13" lengthAdjust="spacing" textLength="149" x="517" y="820.1904">openCloseCourse(course)</text><polygon fill="#181818" points="802.5,851.3984,812.5,855.3984,802.5,859.3984,806.5,855.3984" style="stroke:#181818;stroke-width:1.0;"/><line style="stroke:#181818;stroke-width:1.0;" x1="691.5" x2="808.5" y1="855.3984" y2="855.3984"/><text fill="#000000" font-family="sans-serif" font-size="13" font-weight="bold" lengthAdjust="spacing" textLength="14" x="698.5" y="850.542">22</text><text fill="#000000" font-family="sans-serif" font-size="13" lengthAdjust="spacing" textLength="58" x="716.5" y="850.542">deactivate</text><polygon fill="#181818" points="702.5,881.75,692.5,885.75,702.5,889.75,698.5,885.75" style="stroke:#181818;stroke-width:1.0;"/><line style="stroke:#181818;stroke-width:1.0;stroke-dasharray:2.0,2.0;" x1="696.5" x2="818.5" y1="885.75" y2="885.75"/><text fill="#000000" font-family="sans-serif" font-size="13" font-weight="bold" lengthAdjust="spacing" textLength="14" x="708.5" y="880.8936">23</text><text fill="#000000" font-family="sans-serif" font-size="13" lengthAdjust="spacing" textLength="4" x="726.5" y="880.8936"> </text><polygon fill="#181818" points="906.5,912.1016,916.5,916.1016,906.5,920.1016,910.5,916.1016" style="stroke:#181818;stroke-width:1.0;"/><line style="stroke:#181818;stroke-width:1.0;" x1="691.5" x2="912.5" y1="916.1016" y2="916.1016"/><text fill="#000000" font-family="sans-serif" font-size="13" font-weight="bold" lengthAdjust="spacing" textLength="14" x="698.5" y="911.2451">24</text><text fill="#000000" font-family="sans-serif" font-size="13" lengthAdjust="spacing" textLength="73" x="716.5" y="911.2451">save(course)</text><polygon fill="#181818" points="702.5,942.4531,692.5,946.4531,702.5,950.4531,698.5,946.4531" style="stroke:#181818;stroke-width:1.0;"/><line style="stroke:#181818;stroke-width:1.0;stroke-dasharray:2.0,2.0;" x1="696.5" x2="922.5" y1="946.4531" y2="946.4531"/><text fill="#000000" font-family="sans-serif" font-size="13" font-weight="bold" lengthAdjust="spacing" textLength="14" x="708.5" y="941.5967">25</text><text fill="#000000" font-family="sans-serif" font-size="13" lengthAdjust="spacing" textLength="4" x="726.5" y="941.5967"> </text><polygon fill="#181818" points="503,972.8047,493,976.8047,503,980.8047,499,976.8047" style="stroke:#181818;stroke-width:1.0;"/><line style="stroke:#181818;stroke-width:1.0;stroke-dasharray:2.0,2.0;" x1="497" x2="685.5" y1="976.8047" y2="976.8047"/><text fill="#000000" font-family="sans-serif" font-size="13" font-weight="bold" lengthAdjust="spacing" textLength="14" x="509" y="971.9482">26</text><text fill="#000000" font-family="sans-serif" font-size="13" lengthAdjust="spacing" textLength="4" x="527" y="971.9482"> </text><polygon fill="#181818" points="293,1003.1563,283,1007.1563,293,1011.1563,289,1007.1563" style="stroke:#181818;stroke-width:1.0;"/><line style="stroke:#181818;stroke-width:1.0;stroke-dasharray:2.0,2.0;" x1="287" x2="486" y1="1007.1563" y2="1007.1563"/><text fill="#000000" font-family="sans-serif" font-size="13" font-weight="bold" lengthAdjust="spacing" textLength="14" x="299" y="1002.2998">27</text><text fill="#000000" font-family="sans-serif" font-size="13" lengthAdjust="spacing" textLength="4" x="317" y="1002.2998"> </text><path d="M10,1029.1563 L71,1029.1563 L71,1037.5078 L61,1047.5078 L10,1047.5078 L10,1029.1563 " fill="#EEEEEE" style="stroke:#000000;stroke-width:1.5;"/><rect fill="none" height="321.8672" style="stroke:#000000;stroke-width:1.5;" width="985.5" x="10" y="1029.1563"/><text fill="#000000" font-family="sans-serif" font-size="13" font-weight="bold" lengthAdjust="spacing" textLength="16" x="25" y="1043.6514">alt</text><text fill="#000000" font-family="sans-serif" font-size="11" font-weight="bold" lengthAdjust="spacing" textLength="92" x="86" y="1042.5752">[activate course]</text><polygon fill="#181818" points="67,1065.8594,57,1069.8594,67,1073.8594,63,1069.8594" style="stroke:#181818;stroke-width:1.0;"/><line style="stroke:#181818;stroke-width:1.0;stroke-dasharray:2.0,2.0;" x1="61" x2="276" y1="1069.8594" y2="1069.8594"/><text fill="#000000" font-family="sans-serif" font-size="13" font-weight="bold" lengthAdjust="spacing" textLength="14" x="73" y="1065.0029">28</text><text fill="#000000" font-family="sans-serif" font-size="13" lengthAdjust="spacing" textLength="184" x="91" y="1065.0029">ask the user the course number</text><polygon fill="#181818" points="265,1096.2109,275,1100.2109,265,1104.2109,269,1100.2109" style="stroke:#181818;stroke-width:1.0;"/><line style="stroke:#181818;stroke-width:1.0;stroke-dasharray:2.0,2.0;" x1="56" x2="271" y1="1100.2109" y2="1100.2109"/><text fill="#000000" font-family="sans-serif" font-size="13" font-weight="bold" lengthAdjust="spacing" textLength="14" x="63" y="1095.3545">29</text><text fill="#000000" font-family="sans-serif" font-size="13" lengthAdjust="spacing" textLength="140" x="81" y="1095.3545">input the course number</text><polygon fill="#181818" points="470,1126.5625,480,1130.5625,470,1134.5625,474,1130.5625" style="stroke:#181818;stroke-width:1.0;"/><line style="stroke:#181818;stroke-width:1.0;" x1="287" x2="476" y1="1130.5625" y2="1130.5625"/><text fill="#000000" font-family="sans-serif" font-size="13" font-weight="bold" lengthAdjust="spacing" textLength="14" x="294" y="1125.7061">30</text><text fill="#000000" font-family="sans-serif" font-size="13" lengthAdjust="spacing" textLength="149" x="312" y="1125.7061">openCloseCourse(course)</text><polygon fill="#181818" points="669.5,1156.9141,679.5,1160.9141,669.5,1164.9141,673.5,1160.9141" style="stroke:#181818;stroke-width:1.0;"/><line style="stroke:#181818;stroke-width:1.0;" x1="492" x2="675.5" y1="1160.9141" y2="1160.9141"/><text fill="#000000" font-family="sans-serif" font-size="13" font-weight="bold" lengthAdjust="spacing" textLength="14" x="499" y="1156.0576">31</text><text fill="#000000" font-family="sans-serif" font-size="13" lengthAdjust="spacing" textLength="149" x="517" y="1156.0576">openCloseCourse(course)</text><polygon fill="#181818" points="802.5,1187.2656,812.5,1191.2656,802.5,1195.2656,806.5,1191.2656" style="stroke:#181818;stroke-width:1.0;"/><line style="stroke:#181818;stroke-width:1.0;" x1="691.5" x2="808.5" y1="1191.2656" y2="1191.2656"/><text fill="#000000" font-family="sans-serif" font-size="13" font-weight="bold" lengthAdjust="spacing" textLength="14" x="698.5" y="1186.4092">32</text><text fill="#000000" font-family="sans-serif" font-size="13" lengthAdjust="spacing" textLength="44" x="716.5" y="1186.4092">activate</text><polygon fill="#181818" points="702.5,1217.6172,692.5,1221.6172,702.5,1225.6172,698.5,1221.6172" style="stroke:#181818;stroke-width:1.0;"/><line style="stroke:#181818;stroke-width:1.0;stroke-dasharray:2.0,2.0;" x1="696.5" x2="818.5" y1="1221.6172" y2="1221.6172"/><text fill="#000000" font-family="sans-serif" font-size="13" font-weight="bold" lengthAdjust="spacing" textLength="14" x="708.5" y="1216.7607">33</text><text fill="#000000" font-family="sans-serif" font-size="13" lengthAdjust="spacing" textLength="4" x="726.5" y="1216.7607"> </text><polygon fill="#181818" points="906.5,1247.9688,916.5,1251.9688,906.5,1255.9688,910.5,1251.9688" style="stroke:#181818;stroke-width:1.0;"/><line style="stroke:#181818;stroke-width:1.0;" x1="691.5" x2="912.5" y1="1251.9688" y2="1251.9688"/><text fill="#000000" font-family="sans-serif" font-size="13" font-weight="bold" lengthAdjust="spacing" textLength="14" x="698.5" y="1247.1123">34</text><text fill="#000000" font-family="sans-serif" font-size="13" lengthAdjust="spacing" textLength="73" x="716.5" y="1247.1123">save(course)</text><polygon fill="#181818" points="702.5,1278.3203,692.5,1282.3203,702.5,1286.3203,698.5,1282.3203" style="stroke:#181818;stroke-width:1.0;"/><line style="stroke:#181818;stroke-width:1.0;stroke-dasharray:2.0,2.0;" x1="696.5" x2="922.5" y1="1282.3203" y2="1282.3203"/><text fill="#000000" font-family="sans-serif" font-size="13" font-weight="bold" lengthAdjust="spacing" textLength="14" x="708.5" y="1277.4639">35</text><text fill="#000000" font-family="sans-serif" font-size="13" lengthAdjust="spacing" textLength="4" x="726.5" y="1277.4639"> </text><polygon fill="#181818" points="503,1308.6719,493,1312.6719,503,1316.6719,499,1312.6719" style="stroke:#181818;stroke-width:1.0;"/><line style="stroke:#181818;stroke-width:1.0;stroke-dasharray:2.0,2.0;" x1="497" x2="685.5" y1="1312.6719" y2="1312.6719"/><text fill="#000000" font-family="sans-serif" font-size="13" font-weight="bold" lengthAdjust="spacing" textLength="14" x="509" y="1307.8154">36</text><text fill="#000000" font-family="sans-serif" font-size="13" lengthAdjust="spacing" textLength="4" x="527" y="1307.8154"> </text><polygon fill="#181818" points="298,1339.0234,288,1343.0234,298,1347.0234,294,1343.0234" style="stroke:#181818;stroke-width:1.0;"/><line style="stroke:#181818;stroke-width:1.0;stroke-dasharray:2.0,2.0;" x1="292" x2="486" y1="1343.0234" y2="1343.0234"/><text fill="#000000" font-family="sans-serif" font-size="13" font-weight="bold" lengthAdjust="spacing" textLength="14" x="304" y="1338.167">37</text><text fill="#000000" font-family="sans-serif" font-size="13" lengthAdjust="spacing" textLength="4" x="322" y="1338.167"> </text><polygon fill="#181818" points="67,1376.375,57,1380.375,67,1384.375,63,1380.375" style="stroke:#181818;stroke-width:1.0;"/><line style="stroke:#181818;stroke-width:1.0;stroke-dasharray:2.0,2.0;" x1="61" x2="281" y1="1380.375" y2="1380.375"/><text fill="#000000" font-family="sans-serif" font-size="13" font-weight="bold" lengthAdjust="spacing" textLength="14" x="73" y="1375.5186">38</text><text fill="#000000" font-family="sans-serif" font-size="13" lengthAdjust="spacing" textLength="106" x="91" y="1375.5186">success message</text><!--MD5=[da665d24c38bcc1f23b68e6468b599c0]
@startuml
autonumber
'hide footbox
actor "Manager" as manager

participant ":DeactivateActivateCourseUI" as ui
participant ":OpenCloseCourseController" as ctrl
participant ":OpenCloseCourseService" as srvc
participant ":Course" as course
database ":CourseRepository" as cs
activate manager


manager -> ui: show()
activate ui
ui -> ui: doShow()





alt deactivate course
ui -> ctrl : openCloseCourse()
activate ctrl

ctrl -> srvc: create()
activate srvc

ctrl -> srvc: openCloseCourse()

srvc -> cs: create()
activate cs

srvc -> cs: findByActive()
cs - -> srvc:
deactivate cs
srvc - -> ctrl:
deactivate srvc
ctrl - -> ui:
deactivate ctrl
end
alt activate course
ui -> ctrl: openCloseCourse()
activate ctrl

ctrl -> srvc: openCloseCourse()
activate srvc
srvc -> cs: create()
activate cs
srvc -> cs : findByInactive()

cs - -> srvc:
deactivate cs
srvc - -> ctrl:
deactivate srvc
ctrl - -> ui
deactivate ctrl
deactivate ui
end

alt deactivate course
ui - -> manager: ask the user the course number
activate ui
manager - -> ui: insert the course number
ui -> ctrl: openCloseCourse(course)
activate ctrl
ctrl -> srvc: openCloseCourse(course)
activate srvc
srvc -> course: deactivate
activate course
course - -> srvc:
deactivate course
srvc -> cs: save(course)

activate cs
cs - -> srvc:

deactivate cs
srvc - -> ctrl:
deactivate srvc

ctrl - -> ui:
deactivate ctrl
deactivate ui
end
alt activate course

ui - -> manager: ask the user the course number
activate ui
manager - -> ui: input the course number

ui -> ctrl: openCloseCourse(course)
activate ctrl
ctrl -> srvc: openCloseCourse(course)
activate srvc
srvc -> course: activate
activate course
course - -> srvc:
deactivate course
srvc -> cs: save(course)
activate cs
cs - -> srvc:
deactivate cs
srvc - -> ctrl:
deactivate srvc
ctrl - -> ui:
deactivate ctrl
end
ui - -> manager: success message
deactivate ui
@enduml

@startuml
autonumber
actor "Manager" as manager

participant ":DeactivateActivateCourseUI" as ui
participant ":OpenCloseCourseController" as ctrl
participant ":OpenCloseCourseService" as srvc
participant ":Course" as course
database ":CourseRepository" as cs
activate manager


manager -> ui: show()
activate ui
ui -> ui: doShow()





alt deactivate course
ui -> ctrl : openCloseCourse()
activate ctrl

ctrl -> srvc: create()
activate srvc

ctrl -> srvc: openCloseCourse()

srvc -> cs: create()
activate cs

srvc -> cs: findByActive()
cs - -> srvc:
deactivate cs
srvc - -> ctrl:
deactivate srvc
ctrl - -> ui:
deactivate ctrl
end
alt activate course
ui -> ctrl: openCloseCourse()
activate ctrl

ctrl -> srvc: openCloseCourse()
activate srvc
srvc -> cs: create()
activate cs
srvc -> cs : findByInactive()

cs - -> srvc:
deactivate cs
srvc - -> ctrl:
deactivate srvc
ctrl - -> ui
deactivate ctrl
deactivate ui
end

alt deactivate course
ui - -> manager: ask the user the course number
activate ui
manager - -> ui: insert the course number
ui -> ctrl: openCloseCourse(course)
activate ctrl
ctrl -> srvc: openCloseCourse(course)
activate srvc
srvc -> course: deactivate
activate course
course - -> srvc:
deactivate course
srvc -> cs: save(course)

activate cs
cs - -> srvc:

deactivate cs
srvc - -> ctrl:
deactivate srvc

ctrl - -> ui:
deactivate ctrl
deactivate ui
end
alt activate course

ui - -> manager: ask the user the course number
activate ui
manager - -> ui: input the course number

ui -> ctrl: openCloseCourse(course)
activate ctrl
ctrl -> srvc: openCloseCourse(course)
activate srvc
srvc -> course: activate
activate course
course - -> srvc:
deactivate course
srvc -> cs: save(course)
activate cs
cs - -> srvc:
deactivate cs
srvc - -> ctrl:
deactivate srvc
ctrl - -> ui:
deactivate ctrl
end
ui - -> manager: success message
deactivate ui
@enduml

PlantUML version 1.2022.12(Sun Oct 23 19:12:26 BST 2022)
(GPL source distribution)
Java Runtime: OpenJDK Runtime Environment
JVM: OpenJDK 64-Bit Server VM
Default Encoding: Cp1252
Language: pt
Country: PT
--></g></svg>