<?xml version="1.0" encoding="us-ascii" standalone="no"?><svg xmlns="http://www.w3.org/2000/svg" xmlns:xlink="http://www.w3.org/1999/xlink" contentStyleType="text/css" height="825px" preserveAspectRatio="none" style="width:1050px;height:825px;background:#FFFFFF;" version="1.1" viewBox="0 0 1050 825" width="1050px" zoomAndPan="magnify"><defs/><g><!--class UndoPostItUI--><g id="elem_UndoPostItUI"><rect codeLine="1" fill="#F1F1F1" height="100.8281" id="UndoPostItUI" rx="2.5" ry="2.5" style="stroke:#181818;stroke-width:0.5;" width="300" x="314" y="15.5"/><ellipse cx="419.75" cy="31.5" fill="#ADD1B2" rx="11" ry="11" style="stroke:#181818;stroke-width:1.0;"/><path d="M421.75,28 Q421.9531,27.5 422.1875,27.25 Q422.4219,27 422.6875,27 Q423.1563,27 423.4531,27.2813 Q423.75,27.5625 423.75,28.2188 L423.75,29.7813 Q423.75,30.4375 423.4688,30.7188 Q423.1875,31 422.75,31 Q422.3594,31 422.1094,30.8281 Q421.8594,30.6563 421.75,30.2031 Q421.7031,29.8906 421.5313,29.7188 Q421.2188,29.3906 420.6563,29.2031 Q420.0938,29 419.5313,29 Q418.8281,29 418.2344,29.2813 Q417.6563,29.5625 417.2031,30.1875 Q416.75,30.8125 416.75,31.6719 L416.75,32.5938 Q416.75,33.625 417.5938,34.3125 Q418.4375,35 419.9375,35 Q420.8281,35 421.4531,34.7969 Q421.8125,34.6875 422.2188,34.3281 Q422.4844,34.125 422.625,34.0625 Q422.7656,34 422.9375,34 Q423.2656,34 423.5,34.2656 Q423.75,34.5156 423.75,34.875 Q423.75,35.2188 423.4063,35.625 Q422.9063,36.2188 422.1094,36.5469 Q421.0625,37 419.7813,37 Q418.2813,37 417.0781,36.4063 Q416.1094,35.9375 415.4219,34.9219 Q414.75,33.9063 414.75,32.7031 L414.75,31.6094 Q414.75,30.3594 415.3438,29.2656 Q415.9531,28.1719 417,27.5938 Q418.0625,27 419.25,27 Q419.9688,27 420.5938,27.25 Q421.2188,27.5 421.75,28 Z " fill="#000000"/><text fill="#000000" font-family="sans-serif" font-size="14" lengthAdjust="spacing" textLength="80" x="440.25" y="37.2285">UndoPostItUI</text><line style="stroke:#181818;stroke-width:0.5;" x1="315" x2="613" y1="47.5" y2="47.5"/><line style="stroke:#181818;stroke-width:0.5;" x1="315" x2="613" y1="55.5" y2="55.5"/><ellipse cx="325" cy="69.8047" fill="#84BE84" rx="3" ry="3" style="stroke:#038048;stroke-width:1.0;"/><text fill="#000000" font-family="sans-serif" font-size="14" lengthAdjust="spacing" textLength="227" x="334" y="74.0332">UndoPostIt(String boardList) : String</text><ellipse cx="325" cy="87.4141" fill="#84BE84" rx="3" ry="3" style="stroke:#038048;stroke-width:1.0;"/><text fill="#000000" font-family="sans-serif" font-size="14" lengthAdjust="spacing" textLength="257" x="334" y="91.6426">showBoards(boards, boardList): boolean</text><ellipse cx="325" cy="105.0234" fill="#84BE84" rx="3" ry="3" style="stroke:#038048;stroke-width:1.0;"/><text fill="#000000" font-family="sans-serif" font-size="14" lengthAdjust="spacing" textLength="274" x="334" y="109.252">buildBoardsMenu(boards, boardList): Menu</text></g><!--class UndoPostItController--><g id="elem_UndoPostItController"><rect codeLine="7" fill="#F1F1F1" height="83.2188" id="UndoPostItController" rx="2.5" ry="2.5" style="stroke:#181818;stroke-width:0.5;" width="507" x="210.5" y="211.5"/><ellipse cx="394.75" cy="227.5" fill="#ADD1B2" rx="11" ry="11" style="stroke:#181818;stroke-width:1.0;"/><path d="M396.75,224 Q396.9531,223.5 397.1875,223.25 Q397.4219,223 397.6875,223 Q398.1563,223 398.4531,223.2813 Q398.75,223.5625 398.75,224.2188 L398.75,225.7813 Q398.75,226.4375 398.4688,226.7188 Q398.1875,227 397.75,227 Q397.3594,227 397.1094,226.8281 Q396.8594,226.6563 396.75,226.2031 Q396.7031,225.8906 396.5313,225.7188 Q396.2188,225.3906 395.6563,225.2031 Q395.0938,225 394.5313,225 Q393.8281,225 393.2344,225.2813 Q392.6563,225.5625 392.2031,226.1875 Q391.75,226.8125 391.75,227.6719 L391.75,228.5938 Q391.75,229.625 392.5938,230.3125 Q393.4375,231 394.9375,231 Q395.8281,231 396.4531,230.7969 Q396.8125,230.6875 397.2188,230.3281 Q397.4844,230.125 397.625,230.0625 Q397.7656,230 397.9375,230 Q398.2656,230 398.5,230.2656 Q398.75,230.5156 398.75,230.875 Q398.75,231.2188 398.4063,231.625 Q397.9063,232.2188 397.1094,232.5469 Q396.0625,233 394.7813,233 Q393.2813,233 392.0781,232.4063 Q391.1094,231.9375 390.4219,230.9219 Q389.75,229.9063 389.75,228.7031 L389.75,227.6094 Q389.75,226.3594 390.3438,225.2656 Q390.9531,224.1719 392,223.5938 Q393.0625,223 394.25,223 Q394.9688,223 395.5938,223.25 Q396.2188,223.5 396.75,224 Z " fill="#000000"/><text fill="#000000" font-family="sans-serif" font-size="14" lengthAdjust="spacing" textLength="130" x="415.25" y="233.2285">UndoPostItController</text><line style="stroke:#181818;stroke-width:0.5;" x1="211.5" x2="716.5" y1="243.5" y2="243.5"/><rect fill="none" height="6" style="stroke:#C82930;stroke-width:1.0;" width="6" x="218.5" y="254.8047"/><text fill="#000000" font-family="sans-serif" font-size="14" lengthAdjust="spacing" textLength="200" x="230.5" y="262.0332">svc : BoardManagementService</text><line style="stroke:#181818;stroke-width:0.5;" x1="211.5" x2="716.5" y1="269.1094" y2="269.1094"/><ellipse cx="221.5" cy="283.4141" fill="#84BE84" rx="3" ry="3" style="stroke:#038048;stroke-width:1.0;"/><text fill="#000000" font-family="sans-serif" font-size="14" lengthAdjust="spacing" textLength="481" x="230.5" y="287.6426">undoPostIt (String email, String row, String column, String idBoard) : boolean</text></g><!--class BoardManagementService--><g id="elem_BoardManagementService"><rect codeLine="12" fill="#F1F1F1" height="206.4844" id="BoardManagementService" rx="2.5" ry="2.5" style="stroke:#181818;stroke-width:0.5;" width="598" x="165" y="381"/><ellipse cx="376.25" cy="397" fill="#ADD1B2" rx="11" ry="11" style="stroke:#181818;stroke-width:1.0;"/><path d="M378.25,393.5 Q378.4531,393 378.6875,392.75 Q378.9219,392.5 379.1875,392.5 Q379.6563,392.5 379.9531,392.7813 Q380.25,393.0625 380.25,393.7188 L380.25,395.2813 Q380.25,395.9375 379.9688,396.2188 Q379.6875,396.5 379.25,396.5 Q378.8594,396.5 378.6094,396.3281 Q378.3594,396.1563 378.25,395.7031 Q378.2031,395.3906 378.0313,395.2188 Q377.7188,394.8906 377.1563,394.7031 Q376.5938,394.5 376.0313,394.5 Q375.3281,394.5 374.7344,394.7813 Q374.1563,395.0625 373.7031,395.6875 Q373.25,396.3125 373.25,397.1719 L373.25,398.0938 Q373.25,399.125 374.0938,399.8125 Q374.9375,400.5 376.4375,400.5 Q377.3281,400.5 377.9531,400.2969 Q378.3125,400.1875 378.7188,399.8281 Q378.9844,399.625 379.125,399.5625 Q379.2656,399.5 379.4375,399.5 Q379.7656,399.5 380,399.7656 Q380.25,400.0156 380.25,400.375 Q380.25,400.7188 379.9063,401.125 Q379.4063,401.7188 378.6094,402.0469 Q377.5625,402.5 376.2813,402.5 Q374.7813,402.5 373.5781,401.9063 Q372.6094,401.4375 371.9219,400.4219 Q371.25,399.4063 371.25,398.2031 L371.25,397.1094 Q371.25,395.8594 371.8438,394.7656 Q372.4531,393.6719 373.5,393.0938 Q374.5625,392.5 375.75,392.5 Q376.4688,392.5 377.0938,392.75 Q377.7188,393 378.25,393.5 Z " fill="#000000"/><text fill="#000000" font-family="sans-serif" font-size="14" lengthAdjust="spacing" textLength="167" x="396.75" y="402.7285">BoardManagementService</text><line style="stroke:#181818;stroke-width:0.5;" x1="166" x2="762" y1="413" y2="413"/><rect fill="none" height="6" style="stroke:#C82930;stroke-width:1.0;" width="6" x="173" y="424.3047"/><text fill="#000000" font-family="sans-serif" font-size="14" lengthAdjust="spacing" textLength="152" x="185" y="431.5332">repoB: BoardRepository</text><rect fill="none" height="6" style="stroke:#C82930;stroke-width:1.0;" width="6" x="173" y="441.9141"/><text fill="#000000" font-family="sans-serif" font-size="14" lengthAdjust="spacing" textLength="149" x="185" y="449.1426">repoP: PostItRepository</text><rect fill="none" height="6" style="stroke:#C82930;stroke-width:1.0;" width="6" x="173" y="459.5234"/><text fill="#000000" font-family="sans-serif" font-size="14" lengthAdjust="spacing" textLength="143" x="185" y="466.752">repoU: UserRepository</text><line style="stroke:#181818;stroke-width:0.5;" x1="166" x2="762" y1="473.8281" y2="473.8281"/><ellipse cx="176" cy="488.1328" fill="#84BE84" rx="3" ry="3" style="stroke:#038048;stroke-width:1.0;"/><text fill="#000000" font-family="sans-serif" font-size="14" lengthAdjust="spacing" textLength="555" x="185" y="492.3613">addPostIt(String email,String data, String rowS,String columnS, String boardId) : boolean</text><ellipse cx="176" cy="505.7422" fill="#84BE84" rx="3" ry="3" style="stroke:#038048;stroke-width:1.0;"/><text fill="#000000" font-family="sans-serif" font-size="14" lengthAdjust="spacing" textLength="483" x="185" y="509.9707">appendNewUser(String email, String stateId, String sharedBoardId) : boolean</text><ellipse cx="176" cy="523.3516" fill="#84BE84" rx="3" ry="3" style="stroke:#038048;stroke-width:1.0;"/><text fill="#000000" font-family="sans-serif" font-size="14" lengthAdjust="spacing" textLength="572" x="185" y="527.5801">ModifyPostIt(String email,String data, String rowS,String columnS, String boardId) : boolean</text><ellipse cx="176" cy="540.9609" fill="#84BE84" rx="3" ry="3" style="stroke:#038048;stroke-width:1.0;"/><text fill="#000000" font-family="sans-serif" font-size="14" lengthAdjust="spacing" textLength="328" x="185" y="545.1895">findBoardPresent(String email) : List&lt;SharedBoard&gt;</text><ellipse cx="176" cy="558.5703" fill="#84BE84" rx="3" ry="3" style="stroke:#038048;stroke-width:1.0;"/><text fill="#000000" font-family="sans-serif" font-size="14" lengthAdjust="spacing" textLength="243" x="185" y="562.7988">findPostIts(Long bordId) : List&lt;PostIts&gt;</text><ellipse cx="176" cy="576.1797" fill="#84BE84" rx="3" ry="3" style="stroke:#038048;stroke-width:1.0;"/><text fill="#000000" font-family="sans-serif" font-size="14" lengthAdjust="spacing" textLength="411" x="185" y="580.4082">undoPostIt(String email, int row, int column, int idBoard) : boolean</text></g><!--class JpaPostItRepository--><g id="elem_JpaPostItRepository"><rect codeLine="24" fill="#F1F1F1" height="118.4375" id="JpaPostItRepository" rx="2.5" ry="2.5" style="stroke:#181818;stroke-width:0.5;" width="412" x="7" y="673.5"/><ellipse cx="146.25" cy="689.5" fill="#ADD1B2" rx="11" ry="11" style="stroke:#181818;stroke-width:1.0;"/><path d="M148.25,686 Q148.4531,685.5 148.6875,685.25 Q148.9219,685 149.1875,685 Q149.6563,685 149.9531,685.2813 Q150.25,685.5625 150.25,686.2188 L150.25,687.7813 Q150.25,688.4375 149.9688,688.7188 Q149.6875,689 149.25,689 Q148.8594,689 148.6094,688.8281 Q148.3594,688.6563 148.25,688.2031 Q148.2031,687.8906 148.0313,687.7188 Q147.7188,687.3906 147.1563,687.2031 Q146.5938,687 146.0313,687 Q145.3281,687 144.7344,687.2813 Q144.1563,687.5625 143.7031,688.1875 Q143.25,688.8125 143.25,689.6719 L143.25,690.5938 Q143.25,691.625 144.0938,692.3125 Q144.9375,693 146.4375,693 Q147.3281,693 147.9531,692.7969 Q148.3125,692.6875 148.7188,692.3281 Q148.9844,692.125 149.125,692.0625 Q149.2656,692 149.4375,692 Q149.7656,692 150,692.2656 Q150.25,692.5156 150.25,692.875 Q150.25,693.2188 149.9063,693.625 Q149.4063,694.2188 148.6094,694.5469 Q147.5625,695 146.2813,695 Q144.7813,695 143.5781,694.4063 Q142.6094,693.9375 141.9219,692.9219 Q141.25,691.9063 141.25,690.7031 L141.25,689.6094 Q141.25,688.3594 141.8438,687.2656 Q142.4531,686.1719 143.5,685.5938 Q144.5625,685 145.75,685 Q146.4688,685 147.0938,685.25 Q147.7188,685.5 148.25,686 Z " fill="#000000"/><text fill="#000000" font-family="sans-serif" font-size="14" lengthAdjust="spacing" textLength="125" x="166.75" y="695.2285">JpaPostItRepository</text><line style="stroke:#181818;stroke-width:0.5;" x1="8" x2="418" y1="705.5" y2="705.5"/><line style="stroke:#181818;stroke-width:0.5;" x1="8" x2="418" y1="713.5" y2="713.5"/><ellipse cx="18" cy="727.8047" fill="#84BE84" rx="3" ry="3" style="stroke:#038048;stroke-width:1.0;"/><text fill="#000000" font-family="sans-serif" font-size="14" lengthAdjust="spacing" textLength="313" x="27" y="732.0332">findPostItByBoardId(idboard: Long) : List&lt;PostIts&gt;</text><ellipse cx="18" cy="745.4141" fill="#84BE84" rx="3" ry="3" style="stroke:#038048;stroke-width:1.0;"/><text fill="#000000" font-family="sans-serif" font-size="14" lengthAdjust="spacing" textLength="184" x="27" y="749.6426">alterstate(post: PostIts) : void</text><ellipse cx="18" cy="763.0234" fill="#84BE84" rx="3" ry="3" style="stroke:#038048;stroke-width:1.0;"/><text fill="#000000" font-family="sans-serif" font-size="14" lengthAdjust="spacing" textLength="337" x="27" y="767.252">getactivepost(numColums: int, numRows: int) : PostIts</text><ellipse cx="18" cy="780.6328" fill="#84BE84" rx="3" ry="3" style="stroke:#038048;stroke-width:1.0;"/><text fill="#000000" font-family="sans-serif" font-size="14" lengthAdjust="spacing" textLength="386" x="27" y="784.8613">undoPostIt(String email, int row, int column, int idBoard) : void</text></g><!--class JpaBoardRepository--><g id="elem_JpaBoardRepository"><rect codeLine="31" fill="#F1F1F1" height="171.2656" id="JpaBoardRepository" rx="2.5" ry="2.5" style="stroke:#181818;stroke-width:0.5;" width="521" x="454.5" y="647"/><ellipse cx="646.75" cy="663" fill="#ADD1B2" rx="11" ry="11" style="stroke:#181818;stroke-width:1.0;"/><path d="M648.75,659.5 Q648.9531,659 649.1875,658.75 Q649.4219,658.5 649.6875,658.5 Q650.1563,658.5 650.4531,658.7813 Q650.75,659.0625 650.75,659.7188 L650.75,661.2813 Q650.75,661.9375 650.4688,662.2188 Q650.1875,662.5 649.75,662.5 Q649.3594,662.5 649.1094,662.3281 Q648.8594,662.1563 648.75,661.7031 Q648.7031,661.3906 648.5313,661.2188 Q648.2188,660.8906 647.6563,660.7031 Q647.0938,660.5 646.5313,660.5 Q645.8281,660.5 645.2344,660.7813 Q644.6563,661.0625 644.2031,661.6875 Q643.75,662.3125 643.75,663.1719 L643.75,664.0938 Q643.75,665.125 644.5938,665.8125 Q645.4375,666.5 646.9375,666.5 Q647.8281,666.5 648.4531,666.2969 Q648.8125,666.1875 649.2188,665.8281 Q649.4844,665.625 649.625,665.5625 Q649.7656,665.5 649.9375,665.5 Q650.2656,665.5 650.5,665.7656 Q650.75,666.0156 650.75,666.375 Q650.75,666.7188 650.4063,667.125 Q649.9063,667.7188 649.1094,668.0469 Q648.0625,668.5 646.7813,668.5 Q645.2813,668.5 644.0781,667.9063 Q643.1094,667.4375 642.4219,666.4219 Q641.75,665.4063 641.75,664.2031 L641.75,663.1094 Q641.75,661.8594 642.3438,660.7656 Q642.9531,659.6719 644,659.0938 Q645.0625,658.5 646.25,658.5 Q646.9688,658.5 647.5938,658.75 Q648.2188,659 648.75,659.5 Z " fill="#000000"/><text fill="#000000" font-family="sans-serif" font-size="14" lengthAdjust="spacing" textLength="128" x="667.25" y="668.7285">JpaBoardRepository</text><line style="stroke:#181818;stroke-width:0.5;" x1="455.5" x2="974.5" y1="679" y2="679"/><line style="stroke:#181818;stroke-width:0.5;" x1="455.5" x2="974.5" y1="687" y2="687"/><ellipse cx="465.5" cy="701.3047" fill="#84BE84" rx="3" ry="3" style="stroke:#038048;stroke-width:1.0;"/><text fill="#000000" font-family="sans-serif" font-size="14" lengthAdjust="spacing" textLength="453" x="474.5" y="705.5332">appendUser(user: SystemUser, state: State, board: SharedBoard) : void</text><ellipse cx="465.5" cy="718.9141" fill="#84BE84" rx="3" ry="3" style="stroke:#038048;stroke-width:1.0;"/><text fill="#000000" font-family="sans-serif" font-size="14" lengthAdjust="spacing" textLength="495" x="474.5" y="723.1426">createBoard(rows: int, columns: int, owner: SystemUser, state: State) : boolean</text><ellipse cx="465.5" cy="736.5234" fill="#84BE84" rx="3" ry="3" style="stroke:#038048;stroke-width:1.0;"/><text fill="#000000" font-family="sans-serif" font-size="14" lengthAdjust="spacing" textLength="327" x="474.5" y="740.752">findBoardOwned(email: String) : List&lt;SharedBoard&gt;</text><ellipse cx="465.5" cy="754.1328" fill="#84BE84" rx="3" ry="3" style="stroke:#038048;stroke-width:1.0;"/><text fill="#000000" font-family="sans-serif" font-size="14" lengthAdjust="spacing" textLength="365" x="474.5" y="758.3613">findBoardPresentWrite(email: String) : List&lt;SharedBoard&gt;</text><ellipse cx="465.5" cy="771.7422" fill="#84BE84" rx="3" ry="3" style="stroke:#038048;stroke-width:1.0;"/><text fill="#000000" font-family="sans-serif" font-size="14" lengthAdjust="spacing" textLength="245" x="474.5" y="775.9707">findBoardById(id: Long) : SharedBoard</text><ellipse cx="465.5" cy="789.3516" fill="#84BE84" rx="3" ry="3" style="stroke:#038048;stroke-width:1.0;"/><text fill="#000000" font-family="sans-serif" font-size="14" lengthAdjust="spacing" textLength="220" x="474.5" y="793.5801">archiveBoard(boardId: Long) : void</text><ellipse cx="465.5" cy="806.9609" fill="#84BE84" rx="3" ry="3" style="stroke:#038048;stroke-width:1.0;"/><text fill="#000000" font-family="sans-serif" font-size="14" lengthAdjust="spacing" textLength="356" x="474.5" y="811.1895">findUsersPresent(Long idboard) : List&lt;SystemUserAuth&gt;</text></g><!--class TCPClient--><g id="elem_TCPClient"><rect codeLine="41" fill="#F1F1F1" height="118.4375" id="TCPClient" rx="2.5" ry="2.5" style="stroke:#181818;stroke-width:0.5;" width="313" x="730.5" y="7"/><ellipse cx="850.75" cy="23" fill="#ADD1B2" rx="11" ry="11" style="stroke:#181818;stroke-width:1.0;"/><path d="M852.75,19.5 Q852.9531,19 853.1875,18.75 Q853.4219,18.5 853.6875,18.5 Q854.1563,18.5 854.4531,18.7813 Q854.75,19.0625 854.75,19.7188 L854.75,21.2813 Q854.75,21.9375 854.4688,22.2188 Q854.1875,22.5 853.75,22.5 Q853.3594,22.5 853.1094,22.3281 Q852.8594,22.1563 852.75,21.7031 Q852.7031,21.3906 852.5313,21.2188 Q852.2188,20.8906 851.6563,20.7031 Q851.0938,20.5 850.5313,20.5 Q849.8281,20.5 849.2344,20.7813 Q848.6563,21.0625 848.2031,21.6875 Q847.75,22.3125 847.75,23.1719 L847.75,24.0938 Q847.75,25.125 848.5938,25.8125 Q849.4375,26.5 850.9375,26.5 Q851.8281,26.5 852.4531,26.2969 Q852.8125,26.1875 853.2188,25.8281 Q853.4844,25.625 853.625,25.5625 Q853.7656,25.5 853.9375,25.5 Q854.2656,25.5 854.5,25.7656 Q854.75,26.0156 854.75,26.375 Q854.75,26.7188 854.4063,27.125 Q853.9063,27.7188 853.1094,28.0469 Q852.0625,28.5 850.7813,28.5 Q849.2813,28.5 848.0781,27.9063 Q847.1094,27.4375 846.4219,26.4219 Q845.75,25.4063 845.75,24.2031 L845.75,23.1094 Q845.75,21.8594 846.3438,20.7656 Q846.9531,19.6719 848,19.0938 Q849.0625,18.5 850.25,18.5 Q850.9688,18.5 851.5938,18.75 Q852.2188,19 852.75,19.5 Z " fill="#000000"/><text fill="#000000" font-family="sans-serif" font-size="14" lengthAdjust="spacing" textLength="64" x="871.25" y="28.7285">TCPClient</text><line style="stroke:#181818;stroke-width:0.5;" x1="731.5" x2="1042.5" y1="39" y2="39"/><line style="stroke:#181818;stroke-width:0.5;" x1="731.5" x2="1042.5" y1="47" y2="47"/><ellipse cx="741.5" cy="61.3047" fill="#84BE84" rx="3" ry="3" style="stroke:#038048;stroke-width:1.0;"/><text fill="#000000" font-family="sans-serif" font-size="14" lengthAdjust="spacing" textLength="287" x="750.5" y="65.5332">connect(serverAddress: String, port: int): void</text><ellipse cx="741.5" cy="78.9141" fill="#84BE84" rx="3" ry="3" style="stroke:#038048;stroke-width:1.0;"/><text fill="#000000" font-family="sans-serif" font-size="14" lengthAdjust="spacing" textLength="221" x="750.5" y="83.1426">sendRequest(request: String): void</text><ellipse cx="741.5" cy="96.5234" fill="#84BE84" rx="3" ry="3" style="stroke:#038048;stroke-width:1.0;"/><text fill="#000000" font-family="sans-serif" font-size="14" lengthAdjust="spacing" textLength="165" x="750.5" y="100.752">receiveResponse(): String</text><ellipse cx="741.5" cy="114.1328" fill="#84BE84" rx="3" ry="3" style="stroke:#038048;stroke-width:1.0;"/><text fill="#000000" font-family="sans-serif" font-size="14" lengthAdjust="spacing" textLength="149" x="750.5" y="118.3613">closeConnection(): void</text></g><!--class TCPServer--><g id="elem_TCPServer"><rect codeLine="48" fill="#F1F1F1" height="136.0469" id="TCPServer" rx="2.5" ry="2.5" style="stroke:#181818;stroke-width:0.5;" width="269" x="752.5" y="185"/><ellipse cx="847.75" cy="201" fill="#ADD1B2" rx="11" ry="11" style="stroke:#181818;stroke-width:1.0;"/><path d="M849.75,197.5 Q849.9531,197 850.1875,196.75 Q850.4219,196.5 850.6875,196.5 Q851.1563,196.5 851.4531,196.7813 Q851.75,197.0625 851.75,197.7188 L851.75,199.2813 Q851.75,199.9375 851.4688,200.2188 Q851.1875,200.5 850.75,200.5 Q850.3594,200.5 850.1094,200.3281 Q849.8594,200.1563 849.75,199.7031 Q849.7031,199.3906 849.5313,199.2188 Q849.2188,198.8906 848.6563,198.7031 Q848.0938,198.5 847.5313,198.5 Q846.8281,198.5 846.2344,198.7813 Q845.6563,199.0625 845.2031,199.6875 Q844.75,200.3125 844.75,201.1719 L844.75,202.0938 Q844.75,203.125 845.5938,203.8125 Q846.4375,204.5 847.9375,204.5 Q848.8281,204.5 849.4531,204.2969 Q849.8125,204.1875 850.2188,203.8281 Q850.4844,203.625 850.625,203.5625 Q850.7656,203.5 850.9375,203.5 Q851.2656,203.5 851.5,203.7656 Q851.75,204.0156 851.75,204.375 Q851.75,204.7188 851.4063,205.125 Q850.9063,205.7188 850.1094,206.0469 Q849.0625,206.5 847.7813,206.5 Q846.2813,206.5 845.0781,205.9063 Q844.1094,205.4375 843.4219,204.4219 Q842.75,203.4063 842.75,202.2031 L842.75,201.1094 Q842.75,199.8594 843.3438,198.7656 Q843.9531,197.6719 845,197.0938 Q846.0625,196.5 847.25,196.5 Q847.9688,196.5 848.5938,196.75 Q849.2188,197 849.75,197.5 Z " fill="#000000"/><text fill="#000000" font-family="sans-serif" font-size="14" lengthAdjust="spacing" textLength="70" x="868.25" y="206.7285">TCPServer</text><line style="stroke:#181818;stroke-width:0.5;" x1="753.5" x2="1020.5" y1="217" y2="217"/><line style="stroke:#181818;stroke-width:0.5;" x1="753.5" x2="1020.5" y1="225" y2="225"/><ellipse cx="763.5" cy="239.3047" fill="#84BE84" rx="3" ry="3" style="stroke:#038048;stroke-width:1.0;"/><text fill="#000000" font-family="sans-serif" font-size="14" lengthAdjust="spacing" textLength="177" x="772.5" y="243.5332">startListening(port: int): void</text><ellipse cx="763.5" cy="256.9141" fill="#84BE84" rx="3" ry="3" style="stroke:#038048;stroke-width:1.0;"/><text fill="#000000" font-family="sans-serif" font-size="14" lengthAdjust="spacing" textLength="158" x="772.5" y="261.1426">acceptConnection(): void</text><ellipse cx="763.5" cy="274.5234" fill="#84BE84" rx="3" ry="3" style="stroke:#038048;stroke-width:1.0;"/><text fill="#000000" font-family="sans-serif" font-size="14" lengthAdjust="spacing" textLength="154" x="772.5" y="278.752">receiveRequest(): String</text><ellipse cx="763.5" cy="292.1328" fill="#84BE84" rx="3" ry="3" style="stroke:#038048;stroke-width:1.0;"/><text fill="#000000" font-family="sans-serif" font-size="14" lengthAdjust="spacing" textLength="243" x="772.5" y="296.3613">sendResponse(response: String): void</text><ellipse cx="763.5" cy="309.7422" fill="#84BE84" rx="3" ry="3" style="stroke:#038048;stroke-width:1.0;"/><text fill="#000000" font-family="sans-serif" font-size="14" lengthAdjust="spacing" textLength="149" x="772.5" y="313.9707">closeConnection(): void</text></g><!--link UndoPostItUI to UndoPostItController--><g id="link_UndoPostItUI_UndoPostItController"><path codeLine="56" d="M464,116.58 C464,144.37 464,178.81 464,206 " fill="none" id="UndoPostItUI-to-UndoPostItController" style="stroke:#181818;stroke-width:1.0;"/><polygon fill="#181818" points="464,211.34,468,202.34,464,206.34,460,202.34,464,211.34" style="stroke:#181818;stroke-width:1.0;"/></g><!--link UndoPostItController to BoardManagementService--><g id="link_UndoPostItController_BoardManagementService"><path codeLine="57" d="M464,294.68 C464,317.4 464,346.88 464,375.74 " fill="none" id="UndoPostItController-to-BoardManagementService" style="stroke:#181818;stroke-width:1.0;"/><polygon fill="#181818" points="464,380.74,468,371.74,464,375.74,460,371.74,464,380.74" style="stroke:#181818;stroke-width:1.0;"/></g><!--link BoardManagementService to JpaPostItRepository--><g id="link_BoardManagementService_JpaPostItRepository"><path codeLine="58" d="M360.1,587.04 C331.56,615.07 301.49,644.6 276.02,669.61 " fill="none" id="BoardManagementService-to-JpaPostItRepository" style="stroke:#181818;stroke-width:1.0;"/><polygon fill="#181818" points="272.3,673.26,281.5276,669.8175,275.8711,669.7604,275.9282,664.1038,272.3,673.26" style="stroke:#181818;stroke-width:1.0;"/></g><!--link BoardManagementService to JpaBoardRepository--><g id="link_BoardManagementService_JpaBoardRepository"><path codeLine="59" d="M567.9,587.04 C586.87,605.67 606.51,624.96 625.03,643.14 " fill="none" id="BoardManagementService-to-JpaBoardRepository" style="stroke:#181818;stroke-width:1.0;"/><polygon fill="#181818" points="628.72,646.77,625.1102,637.6065,625.156,643.2632,619.4993,643.309,628.72,646.77" style="stroke:#181818;stroke-width:1.0;"/></g><!--link TCPClient to TCPServer--><g id="link_TCPClient_TCPServer"><path codeLine="60" d="M887,125.03 C887,142.37 887,161.59 887,179.72 " fill="none" id="TCPClient-to-TCPServer" style="stroke:#181818;stroke-width:1.0;"/><polygon fill="#181818" points="887,184.81,891,175.81,887,179.81,883,175.81,887,184.81" style="stroke:#181818;stroke-width:1.0;"/></g><!--SRC=[jLNBhjem4DtdAxmqkk47K8LKM55TMaIAklQrvuAbn4vj1uIg_dl7ZpmRgAgg6x3ZuvbpPevjNZ9hoKa9VT3MxTnfHtvaXBmCFj726QdEv4qp8rwbTGko8l5RGDgBlctycgK1OlC1T8LZNG9J0VhMo594x1vKCult2zdFBECJPbkjdD5b2IOmN19xvKWaHDipnSvGWN85cAla4B8rtLxIQe2AoJ9Fx8dHjsxCTTbKgflAIDDBRGLqdEPJ9bO6Qhr9j8uujj9fS- -M3YiIASsidLRaPC6CLbu84sBSXwWXJGHpRAYdo4TwYcujb7Wt4XIYrpKeyHbkFlDybQnZ3dQYdr-OWLYUt-FjjP3lz_z8-5sgcFjWm6BrHqaysDleGz5pN7VR8YjBNtK8tqOF6zBQUcASIKMaSj4qVj0wne-VsULJpQOjJsUi9xMvftfIAO9mf8Kiv-cnqe49NQ4OqBMEiXvzrL84q1aSuqvUVKv7LLDjFLsxydHpWlEZliMPtvOY_Blwa7yeVN8Gal9ek-2v1d_mFhbR1vN_a4V3-Ii6_zBTWBE-eoETt032mdTgMabvejVEz4qzI_BGOrzmdw11VdlbFRVOq9dVZCGE_UtcpJsOeE__01fBP_W5sneLfqFIexkw-81UgMtFIN1zSbVFewl8nyPTrdtdlcuFsrBYljGmhfK2xYWYhmWM0gFQLbPEQcrSDDE00gR5pdzl00reudzNY07C00SKT0HRQsM1BaQl2o-rXMtCBhMYYwd7a6aHI2Mcs5ZZl3XG68FECcESG-rceexuHEPZEb5JOchIO4xL4zwZrtQvNCy-Sjdio-VH3rwy1w-Itp5p0_q1Fds-UZjuG5Vox1S0]--></g></svg>