<?xml version="1.0" encoding="us-ascii" standalone="no"?><svg xmlns="http://www.w3.org/2000/svg" xmlns:xlink="http://www.w3.org/1999/xlink" contentStyleType="text/css" height="959px" preserveAspectRatio="none" style="width:3053px;height:959px;background:#FFFFFF;" version="1.1" viewBox="0 0 3053 959" width="3053px" zoomAndPan="magnify"><defs/><g><rect fill="#FFFFFF" height="767.1406" style="stroke:#181818;stroke-width:1.0;" width="10" x="17.5" y="92.6094"/><rect fill="#FFFFFF" height="333.8672" style="stroke:#181818;stroke-width:1.0;" width="10" x="354.5" y="114.9609"/><rect fill="#FFFFFF" height="380.5703" style="stroke:#181818;stroke-width:1.0;" width="10" x="354.5" y="479.1797"/><rect fill="#FFFFFF" height="273.1641" style="stroke:#181818;stroke-width:1.0;" width="10" x="645.5" y="145.3125"/><rect fill="#FFFFFF" height="319.8672" style="stroke:#181818;stroke-width:1.0;" width="10" x="645.5" y="509.5313"/><rect fill="#FFFFFF" height="212.4609" style="stroke:#181818;stroke-width:1.0;" width="10" x="936.5" y="175.6641"/><rect fill="#FFFFFF" height="259.1641" style="stroke:#181818;stroke-width:1.0;" width="10" x="936.5" y="539.8828"/><rect fill="#FFFFFF" height="198.4609" style="stroke:#181818;stroke-width:1.0;" width="10" x="1312.5" y="570.2344"/><rect fill="#FFFFFF" height="151.7578" style="stroke:#181818;stroke-width:1.0;" width="10" x="1470.5" y="206.0156"/><rect fill="#FFFFFF" height="30.3516" style="stroke:#181818;stroke-width:1.0;" width="10" x="1628" y="236.3672"/><rect fill="#FFFFFF" height="121.4063" style="stroke:#181818;stroke-width:1.0;" width="10" x="2029.5" y="616.9375"/><rect fill="#FFFFFF" height="91.0547" style="stroke:#181818;stroke-width:1.0;" width="10" x="2200" y="266.7188"/><rect fill="#FFFFFF" height="30.3516" style="stroke:#181818;stroke-width:1.0;" width="10" x="2372" y="297.0703"/><rect fill="#FFFFFF" height="60.7031" style="stroke:#181818;stroke-width:1.0;" width="10" x="2668.5" y="647.2891"/><rect fill="#FFFFFF" height="30.3516" style="stroke:#181818;stroke-width:1.0;" width="10" x="2924.5" y="677.6406"/><rect fill="#FFFFFF" height="30.3516" style="stroke:#181818;stroke-width:1.0;" width="10" x="3015.5" y="327.4219"/><line style="stroke:#181818;stroke-width:0.5;stroke-dasharray:5.0,5.0;" x1="22" x2="22" y1="82.6094" y2="877.75"/><line style="stroke:#181818;stroke-width:0.5;stroke-dasharray:5.0,5.0;" x1="359.5" x2="359.5" y1="82.6094" y2="877.75"/><line style="stroke:#181818;stroke-width:0.5;stroke-dasharray:5.0,5.0;" x1="650.5" x2="650.5" y1="82.6094" y2="877.75"/><line style="stroke:#181818;stroke-width:0.5;stroke-dasharray:5.0,5.0;" x1="941.5" x2="941.5" y1="82.6094" y2="877.75"/><line style="stroke:#181818;stroke-width:0.5;stroke-dasharray:5.0,5.0;" x1="1317.5" x2="1317.5" y1="82.6094" y2="877.75"/><line style="stroke:#181818;stroke-width:0.5;stroke-dasharray:5.0,5.0;" x1="1475.5" x2="1475.5" y1="82.6094" y2="877.75"/><line style="stroke:#181818;stroke-width:0.5;stroke-dasharray:5.0,5.0;" x1="1632.5" x2="1632.5" y1="82.6094" y2="877.75"/><line style="stroke:#181818;stroke-width:0.5;stroke-dasharray:5.0,5.0;" x1="2034" x2="2034" y1="82.6094" y2="877.75"/><line style="stroke:#181818;stroke-width:0.5;stroke-dasharray:5.0,5.0;" x1="2205" x2="2205" y1="82.6094" y2="877.75"/><line style="stroke:#181818;stroke-width:0.5;stroke-dasharray:5.0,5.0;" x1="2377" x2="2377" y1="82.6094" y2="877.75"/><line style="stroke:#181818;stroke-width:0.5;stroke-dasharray:5.0,5.0;" x1="2523" x2="2523" y1="82.6094" y2="877.75"/><line style="stroke:#181818;stroke-width:0.5;stroke-dasharray:5.0,5.0;" x1="2673" x2="2673" y1="82.6094" y2="877.75"/><line style="stroke:#181818;stroke-width:0.5;stroke-dasharray:5.0,5.0;" x1="2809" x2="2809" y1="82.6094" y2="877.75"/><line style="stroke:#181818;stroke-width:0.5;stroke-dasharray:5.0,5.0;" x1="2929" x2="2929" y1="82.6094" y2="877.75"/><line style="stroke:#181818;stroke-width:0.5;stroke-dasharray:5.0,5.0;" x1="3020" x2="3020" y1="82.6094" y2="877.75"/><text fill="#000000" font-family="sans-serif" font-size="14" lengthAdjust="spacing" textLength="29" x="5" y="79.5332">User</text><ellipse cx="22.5" cy="13.5" fill="#E2E2F0" rx="8" ry="8" style="stroke:#181818;stroke-width:0.5;"/><path d="M22.5,21.5 L22.5,48.5 M9.5,29.5 L35.5,29.5 M22.5,48.5 L9.5,63.5 M22.5,48.5 L35.5,63.5 " fill="none" style="stroke:#181818;stroke-width:0.5;"/><text fill="#000000" font-family="sans-serif" font-size="14" lengthAdjust="spacing" textLength="29" x="5" y="891.2832">User</text><ellipse cx="22.5" cy="902.8594" fill="#E2E2F0" rx="8" ry="8" style="stroke:#181818;stroke-width:0.5;"/><path d="M22.5,910.8594 L22.5,937.8594 M9.5,918.8594 L35.5,918.8594 M22.5,937.8594 L9.5,952.8594 M22.5,937.8594 L35.5,952.8594 " fill="none" style="stroke:#181818;stroke-width:0.5;"/><rect fill="#E2E2F0" height="31.6094" rx="2.5" ry="2.5" style="stroke:#181818;stroke-width:0.5;" width="94" x="312.5" y="50"/><text fill="#000000" font-family="sans-serif" font-size="14" lengthAdjust="spacing" textLength="80" x="319.5" y="71.5332">UndoPostItUI</text><rect fill="#E2E2F0" height="31.6094" rx="2.5" ry="2.5" style="stroke:#181818;stroke-width:0.5;" width="94" x="312.5" y="876.75"/><text fill="#000000" font-family="sans-serif" font-size="14" lengthAdjust="spacing" textLength="80" x="319.5" y="898.2832">UndoPostItUI</text><rect fill="#E2E2F0" height="31.6094" rx="2.5" ry="2.5" style="stroke:#181818;stroke-width:0.5;" width="78" x="611.5" y="50"/><text fill="#000000" font-family="sans-serif" font-size="14" lengthAdjust="spacing" textLength="64" x="618.5" y="71.5332">TCPClient</text><rect fill="#E2E2F0" height="31.6094" rx="2.5" ry="2.5" style="stroke:#181818;stroke-width:0.5;" width="78" x="611.5" y="876.75"/><text fill="#000000" font-family="sans-serif" font-size="14" lengthAdjust="spacing" textLength="64" x="618.5" y="898.2832">TCPClient</text><rect fill="#E2E2F0" height="31.6094" rx="2.5" ry="2.5" style="stroke:#181818;stroke-width:0.5;" width="84" x="899.5" y="50"/><text fill="#000000" font-family="sans-serif" font-size="14" lengthAdjust="spacing" textLength="70" x="906.5" y="71.5332">TCPServer</text><rect fill="#E2E2F0" height="31.6094" rx="2.5" ry="2.5" style="stroke:#181818;stroke-width:0.5;" width="84" x="899.5" y="876.75"/><text fill="#000000" font-family="sans-serif" font-size="14" lengthAdjust="spacing" textLength="70" x="906.5" y="898.2832">TCPServer</text><rect fill="#E2E2F0" height="31.6094" rx="2.5" ry="2.5" style="stroke:#181818;stroke-width:0.5;" width="144" x="1245.5" y="50"/><text fill="#000000" font-family="sans-serif" font-size="14" lengthAdjust="spacing" textLength="130" x="1252.5" y="71.5332">UndoPostItController</text><rect fill="#E2E2F0" height="31.6094" rx="2.5" ry="2.5" style="stroke:#181818;stroke-width:0.5;" width="144" x="1245.5" y="876.75"/><text fill="#000000" font-family="sans-serif" font-size="14" lengthAdjust="spacing" textLength="130" x="1252.5" y="898.2832">UndoPostItController</text><rect fill="#E2E2F0" height="31.6094" rx="2.5" ry="2.5" style="stroke:#181818;stroke-width:0.5;" width="152" x="1399.5" y="50"/><text fill="#000000" font-family="sans-serif" font-size="14" lengthAdjust="spacing" textLength="138" x="1406.5" y="71.5332">ModifyPostItController</text><rect fill="#E2E2F0" height="31.6094" rx="2.5" ry="2.5" style="stroke:#181818;stroke-width:0.5;" width="152" x="1399.5" y="876.75"/><text fill="#000000" font-family="sans-serif" font-size="14" lengthAdjust="spacing" textLength="138" x="1406.5" y="898.2832">ModifyPostItController</text><rect fill="#E2E2F0" height="31.6094" rx="2.5" ry="2.5" style="stroke:#181818;stroke-width:0.5;" width="143" x="1561.5" y="50"/><text fill="#000000" font-family="sans-serif" font-size="14" lengthAdjust="spacing" textLength="129" x="1568.5" y="71.5332">AuthorizationService</text><rect fill="#E2E2F0" height="31.6094" rx="2.5" ry="2.5" style="stroke:#181818;stroke-width:0.5;" width="143" x="1561.5" y="876.75"/><text fill="#000000" font-family="sans-serif" font-size="14" lengthAdjust="spacing" textLength="129" x="1568.5" y="898.2832">AuthorizationService</text><rect fill="#E2E2F0" height="31.6094" rx="2.5" ry="2.5" style="stroke:#181818;stroke-width:0.5;" width="181" x="1944" y="50"/><text fill="#000000" font-family="sans-serif" font-size="14" lengthAdjust="spacing" textLength="167" x="1951" y="71.5332">BoardManagementService</text><rect fill="#E2E2F0" height="31.6094" rx="2.5" ry="2.5" style="stroke:#181818;stroke-width:0.5;" width="181" x="1944" y="876.75"/><text fill="#000000" font-family="sans-serif" font-size="14" lengthAdjust="spacing" textLength="167" x="1951" y="898.2832">BoardManagementService</text><rect fill="#E2E2F0" height="31.6094" rx="2.5" ry="2.5" style="stroke:#181818;stroke-width:0.5;" width="140" x="2135" y="50"/><text fill="#000000" font-family="sans-serif" font-size="14" lengthAdjust="spacing" textLength="126" x="2142" y="71.5332">Persistence Context</text><rect fill="#E2E2F0" height="31.6094" rx="2.5" ry="2.5" style="stroke:#181818;stroke-width:0.5;" width="140" x="2135" y="876.75"/><text fill="#000000" font-family="sans-serif" font-size="14" lengthAdjust="spacing" textLength="126" x="2142" y="898.2832">Persistence Context</text><rect fill="#E2E2F0" height="31.6094" rx="2.5" ry="2.5" style="stroke:#181818;stroke-width:0.5;" width="130" x="2312" y="50"/><text fill="#000000" font-family="sans-serif" font-size="14" lengthAdjust="spacing" textLength="116" x="2319" y="71.5332">RepositoryFactory</text><rect fill="#E2E2F0" height="31.6094" rx="2.5" ry="2.5" style="stroke:#181818;stroke-width:0.5;" width="130" x="2312" y="876.75"/><text fill="#000000" font-family="sans-serif" font-size="14" lengthAdjust="spacing" textLength="116" x="2319" y="898.2832">RepositoryFactory</text><rect fill="#E2E2F0" height="31.6094" rx="2.5" ry="2.5" style="stroke:#181818;stroke-width:0.5;" width="142" x="2452" y="50"/><text fill="#000000" font-family="sans-serif" font-size="14" lengthAdjust="spacing" textLength="128" x="2459" y="71.5332">JpaBoardRepository</text><rect fill="#E2E2F0" height="31.6094" rx="2.5" ry="2.5" style="stroke:#181818;stroke-width:0.5;" width="142" x="2452" y="876.75"/><text fill="#000000" font-family="sans-serif" font-size="14" lengthAdjust="spacing" textLength="128" x="2459" y="898.2832">JpaBoardRepository</text><rect fill="#E2E2F0" height="31.6094" rx="2.5" ry="2.5" style="stroke:#181818;stroke-width:0.5;" width="139" x="2604" y="50"/><text fill="#000000" font-family="sans-serif" font-size="14" lengthAdjust="spacing" textLength="125" x="2611" y="71.5332">JpaPostItRepository</text><rect fill="#E2E2F0" height="31.6094" rx="2.5" ry="2.5" style="stroke:#181818;stroke-width:0.5;" width="139" x="2604" y="876.75"/><text fill="#000000" font-family="sans-serif" font-size="14" lengthAdjust="spacing" textLength="125" x="2611" y="898.2832">JpaPostItRepository</text><text fill="#000000" font-family="sans-serif" font-size="14" lengthAdjust="spacing" textLength="106" x="2753" y="79.5332">BoardRepository</text><path d="M2791,29 C2791,19 2809,19 2809,19 C2809,19 2827,19 2827,29 L2827,55 C2827,65 2809,65 2809,65 C2809,65 2791,65 2791,55 L2791,29 " fill="#E2E2F0" style="stroke:#181818;stroke-width:1.5;"/><path d="M2791,29 C2791,39 2809,39 2809,39 C2809,39 2827,39 2827,29 " fill="none" style="stroke:#181818;stroke-width:1.5;"/><text fill="#000000" font-family="sans-serif" font-size="14" lengthAdjust="spacing" textLength="106" x="2753" y="891.2832">BoardRepository</text><path d="M2791,904.3594 C2791,894.3594 2809,894.3594 2809,894.3594 C2809,894.3594 2827,894.3594 2827,904.3594 L2827,930.3594 C2827,940.3594 2809,940.3594 2809,940.3594 C2809,940.3594 2791,940.3594 2791,930.3594 L2791,904.3594 " fill="#E2E2F0" style="stroke:#181818;stroke-width:1.5;"/><path d="M2791,904.3594 C2791,914.3594 2809,914.3594 2809,914.3594 C2809,914.3594 2827,914.3594 2827,904.3594 " fill="none" style="stroke:#181818;stroke-width:1.5;"/><text fill="#000000" font-family="sans-serif" font-size="14" lengthAdjust="spacing" textLength="103" x="2875" y="79.5332">PostItRepository</text><path d="M2911.5,29 C2911.5,19 2929.5,19 2929.5,19 C2929.5,19 2947.5,19 2947.5,29 L2947.5,55 C2947.5,65 2929.5,65 2929.5,65 C2929.5,65 2911.5,65 2911.5,55 L2911.5,29 " fill="#E2E2F0" style="stroke:#181818;stroke-width:1.5;"/><path d="M2911.5,29 C2911.5,39 2929.5,39 2929.5,39 C2929.5,39 2947.5,39 2947.5,29 " fill="none" style="stroke:#181818;stroke-width:1.5;"/><text fill="#000000" font-family="sans-serif" font-size="14" lengthAdjust="spacing" textLength="103" x="2875" y="891.2832">PostItRepository</text><path d="M2911.5,904.3594 C2911.5,894.3594 2929.5,894.3594 2929.5,894.3594 C2929.5,894.3594 2947.5,894.3594 2947.5,904.3594 L2947.5,930.3594 C2947.5,940.3594 2929.5,940.3594 2929.5,940.3594 C2929.5,940.3594 2911.5,940.3594 2911.5,930.3594 L2911.5,904.3594 " fill="#E2E2F0" style="stroke:#181818;stroke-width:1.5;"/><path d="M2911.5,904.3594 C2911.5,914.3594 2929.5,914.3594 2929.5,914.3594 C2929.5,914.3594 2947.5,914.3594 2947.5,904.3594 " fill="none" style="stroke:#181818;stroke-width:1.5;"/><rect fill="#E2E2F0" height="31.6094" rx="2.5" ry="2.5" style="stroke:#181818;stroke-width:0.5;" width="53" x="2994" y="50"/><text fill="#000000" font-family="sans-serif" font-size="14" lengthAdjust="spacing" textLength="39" x="3001" y="71.5332">MRPS</text><rect fill="#E2E2F0" height="31.6094" rx="2.5" ry="2.5" style="stroke:#181818;stroke-width:0.5;" width="53" x="2994" y="876.75"/><text fill="#000000" font-family="sans-serif" font-size="14" lengthAdjust="spacing" textLength="39" x="3001" y="898.2832">MRPS</text><rect fill="#FFFFFF" height="767.1406" style="stroke:#181818;stroke-width:1.0;" width="10" x="17.5" y="92.6094"/><rect fill="#FFFFFF" height="333.8672" style="stroke:#181818;stroke-width:1.0;" width="10" x="354.5" y="114.9609"/><rect fill="#FFFFFF" height="380.5703" style="stroke:#181818;stroke-width:1.0;" width="10" x="354.5" y="479.1797"/><rect fill="#FFFFFF" height="273.1641" style="stroke:#181818;stroke-width:1.0;" width="10" x="645.5" y="145.3125"/><rect fill="#FFFFFF" height="319.8672" style="stroke:#181818;stroke-width:1.0;" width="10" x="645.5" y="509.5313"/><rect fill="#FFFFFF" height="212.4609" style="stroke:#181818;stroke-width:1.0;" width="10" x="936.5" y="175.6641"/><rect fill="#FFFFFF" height="259.1641" style="stroke:#181818;stroke-width:1.0;" width="10" x="936.5" y="539.8828"/><rect fill="#FFFFFF" height="198.4609" style="stroke:#181818;stroke-width:1.0;" width="10" x="1312.5" y="570.2344"/><rect fill="#FFFFFF" height="151.7578" style="stroke:#181818;stroke-width:1.0;" width="10" x="1470.5" y="206.0156"/><rect fill="#FFFFFF" height="30.3516" style="stroke:#181818;stroke-width:1.0;" width="10" x="1628" y="236.3672"/><rect fill="#FFFFFF" height="121.4063" style="stroke:#181818;stroke-width:1.0;" width="10" x="2029.5" y="616.9375"/><rect fill="#FFFFFF" height="91.0547" style="stroke:#181818;stroke-width:1.0;" width="10" x="2200" y="266.7188"/><rect fill="#FFFFFF" height="30.3516" style="stroke:#181818;stroke-width:1.0;" width="10" x="2372" y="297.0703"/><rect fill="#FFFFFF" height="60.7031" style="stroke:#181818;stroke-width:1.0;" width="10" x="2668.5" y="647.2891"/><rect fill="#FFFFFF" height="30.3516" style="stroke:#181818;stroke-width:1.0;" width="10" x="2924.5" y="677.6406"/><rect fill="#FFFFFF" height="30.3516" style="stroke:#181818;stroke-width:1.0;" width="10" x="3015.5" y="327.4219"/><polygon fill="#181818" points="342.5,110.9609,352.5,114.9609,342.5,118.9609,346.5,114.9609" style="stroke:#181818;stroke-width:1.0;"/><line style="stroke:#181818;stroke-width:1.0;" x1="27.5" x2="348.5" y1="114.9609" y2="114.9609"/><text fill="#000000" font-family="sans-serif" font-size="13" font-weight="bold" lengthAdjust="spacing" textLength="7" x="34.5" y="110.1045">1</text><text fill="#000000" font-family="sans-serif" font-size="13" lengthAdjust="spacing" textLength="125" x="45.5" y="110.1045">want to undo a post it</text><polygon fill="#181818" points="633.5,141.3125,643.5,145.3125,633.5,149.3125,637.5,145.3125" style="stroke:#181818;stroke-width:1.0;"/><line style="stroke:#181818;stroke-width:1.0;" x1="364.5" x2="639.5" y1="145.3125" y2="145.3125"/><text fill="#000000" font-family="sans-serif" font-size="13" font-weight="bold" lengthAdjust="spacing" textLength="7" x="371.5" y="140.4561">2</text><text fill="#000000" font-family="sans-serif" font-size="13" lengthAdjust="spacing" textLength="125" x="382.5" y="140.4561">want to undo a post it</text><polygon fill="#181818" points="924.5,171.6641,934.5,175.6641,924.5,179.6641,928.5,175.6641" style="stroke:#181818;stroke-width:1.0;"/><line style="stroke:#181818;stroke-width:1.0;" x1="655.5" x2="930.5" y1="175.6641" y2="175.6641"/><text fill="#000000" font-family="sans-serif" font-size="13" font-weight="bold" lengthAdjust="spacing" textLength="7" x="662.5" y="170.8076">3</text><text fill="#000000" font-family="sans-serif" font-size="13" lengthAdjust="spacing" textLength="43" x="673.5" y="170.8076">request</text><polygon fill="#181818" points="1458.5,202.0156,1468.5,206.0156,1458.5,210.0156,1462.5,206.0156" style="stroke:#181818;stroke-width:1.0;"/><line style="stroke:#181818;stroke-width:1.0;" x1="946.5" x2="1464.5" y1="206.0156" y2="206.0156"/><text fill="#000000" font-family="sans-serif" font-size="13" font-weight="bold" lengthAdjust="spacing" textLength="7" x="953.5" y="201.1592">4</text><text fill="#000000" font-family="sans-serif" font-size="13" lengthAdjust="spacing" textLength="138" x="964.5" y="201.1592">findBoardPresent(email)</text><polygon fill="#181818" points="1616,232.3672,1626,236.3672,1616,240.3672,1620,236.3672" style="stroke:#181818;stroke-width:1.0;"/><line style="stroke:#181818;stroke-width:1.0;" x1="1480.5" x2="1622" y1="236.3672" y2="236.3672"/><text fill="#000000" font-family="sans-serif" font-size="13" font-weight="bold" lengthAdjust="spacing" textLength="7" x="1487.5" y="231.5107">5</text><text fill="#000000" font-family="sans-serif" font-size="13" lengthAdjust="spacing" textLength="75" x="1498.5" y="231.5107">userService()</text><polygon fill="#181818" points="2188,262.7188,2198,266.7188,2188,270.7188,2192,266.7188" style="stroke:#181818;stroke-width:1.0;"/><line style="stroke:#181818;stroke-width:1.0;" x1="1480.5" x2="2194" y1="266.7188" y2="266.7188"/><text fill="#000000" font-family="sans-serif" font-size="13" font-weight="bold" lengthAdjust="spacing" textLength="7" x="1487.5" y="261.8623">6</text><text fill="#000000" font-family="sans-serif" font-size="13" lengthAdjust="spacing" textLength="75" x="1498.5" y="261.8623">repositories()</text><polygon fill="#181818" points="2360,293.0703,2370,297.0703,2360,301.0703,2364,297.0703" style="stroke:#181818;stroke-width:1.0;"/><line style="stroke:#181818;stroke-width:1.0;" x1="2210" x2="2366" y1="297.0703" y2="297.0703"/><text fill="#000000" font-family="sans-serif" font-size="13" font-weight="bold" lengthAdjust="spacing" textLength="7" x="2217" y="292.2139">7</text><text fill="#000000" font-family="sans-serif" font-size="13" lengthAdjust="spacing" textLength="132" x="2228" y="292.2139">getRepositoryFactory()</text><polygon fill="#181818" points="3003.5,323.4219,3013.5,327.4219,3003.5,331.4219,3007.5,327.4219" style="stroke:#181818;stroke-width:1.0;"/><line style="stroke:#181818;stroke-width:1.0;" x1="2377" x2="3009.5" y1="327.4219" y2="327.4219"/><text fill="#000000" font-family="sans-serif" font-size="13" font-weight="bold" lengthAdjust="spacing" textLength="7" x="2384" y="322.5654">8</text><text fill="#000000" font-family="sans-serif" font-size="13" lengthAdjust="spacing" textLength="102" x="2395" y="322.5654">boardRepository()</text><polygon fill="#181818" points="1486.5,353.7734,1476.5,357.7734,1486.5,361.7734,1482.5,357.7734" style="stroke:#181818;stroke-width:1.0;"/><line style="stroke:#181818;stroke-width:1.0;stroke-dasharray:2.0,2.0;" x1="1480.5" x2="2204" y1="357.7734" y2="357.7734"/><text fill="#000000" font-family="sans-serif" font-size="13" font-weight="bold" lengthAdjust="spacing" textLength="7" x="1492.5" y="352.917">9</text><text fill="#000000" font-family="sans-serif" font-size="13" lengthAdjust="spacing" textLength="39" x="1503.5" y="352.917">factory</text><polygon fill="#181818" points="666.5,384.125,656.5,388.125,666.5,392.125,662.5,388.125" style="stroke:#181818;stroke-width:1.0;"/><line style="stroke:#181818;stroke-width:1.0;stroke-dasharray:2.0,2.0;" x1="660.5" x2="940.5" y1="388.125" y2="388.125"/><text fill="#000000" font-family="sans-serif" font-size="13" font-weight="bold" lengthAdjust="spacing" textLength="14" x="672.5" y="383.2686">10</text><text fill="#000000" font-family="sans-serif" font-size="13" lengthAdjust="spacing" textLength="83" x="690.5" y="383.2686">returns boards</text><polygon fill="#181818" points="375.5,414.4766,365.5,418.4766,375.5,422.4766,371.5,418.4766" style="stroke:#181818;stroke-width:1.0;"/><line style="stroke:#181818;stroke-width:1.0;stroke-dasharray:2.0,2.0;" x1="369.5" x2="649.5" y1="418.4766" y2="418.4766"/><text fill="#000000" font-family="sans-serif" font-size="13" font-weight="bold" lengthAdjust="spacing" textLength="14" x="381.5" y="413.6201">11</text><text fill="#000000" font-family="sans-serif" font-size="13" lengthAdjust="spacing" textLength="83" x="399.5" y="413.6201">returns boards</text><polygon fill="#181818" points="38.5,444.8281,28.5,448.8281,38.5,452.8281,34.5,448.8281" style="stroke:#181818;stroke-width:1.0;"/><line style="stroke:#181818;stroke-width:1.0;stroke-dasharray:2.0,2.0;" x1="32.5" x2="358.5" y1="448.8281" y2="448.8281"/><text fill="#000000" font-family="sans-serif" font-size="13" font-weight="bold" lengthAdjust="spacing" textLength="14" x="44.5" y="443.9717">12</text><text fill="#000000" font-family="sans-serif" font-size="13" lengthAdjust="spacing" textLength="80" x="62.5" y="443.9717">shows boards</text><polygon fill="#181818" points="342.5,475.1797,352.5,479.1797,342.5,483.1797,346.5,479.1797" style="stroke:#181818;stroke-width:1.0;"/><line style="stroke:#181818;stroke-width:1.0;" x1="27.5" x2="348.5" y1="479.1797" y2="479.1797"/><text fill="#000000" font-family="sans-serif" font-size="13" font-weight="bold" lengthAdjust="spacing" textLength="14" x="34.5" y="474.3232">13</text><text fill="#000000" font-family="sans-serif" font-size="13" lengthAdjust="spacing" textLength="290" x="52.5" y="474.3232">Choose board and insert row and column of post-it</text><polygon fill="#181818" points="633.5,505.5313,643.5,509.5313,633.5,513.5313,637.5,509.5313" style="stroke:#181818;stroke-width:1.0;"/><line style="stroke:#181818;stroke-width:1.0;" x1="364.5" x2="639.5" y1="509.5313" y2="509.5313"/><text fill="#000000" font-family="sans-serif" font-size="13" font-weight="bold" lengthAdjust="spacing" textLength="14" x="371.5" y="504.6748">14</text><text fill="#000000" font-family="sans-serif" font-size="13" lengthAdjust="spacing" textLength="130" x="389.5" y="504.6748">request to undo post-it</text><polygon fill="#181818" points="924.5,535.8828,934.5,539.8828,924.5,543.8828,928.5,539.8828" style="stroke:#181818;stroke-width:1.0;"/><line style="stroke:#181818;stroke-width:1.0;" x1="655.5" x2="930.5" y1="539.8828" y2="539.8828"/><text fill="#000000" font-family="sans-serif" font-size="13" font-weight="bold" lengthAdjust="spacing" textLength="14" x="662.5" y="535.0264">15</text><text fill="#000000" font-family="sans-serif" font-size="13" lengthAdjust="spacing" textLength="130" x="680.5" y="535.0264">request to undo post-it</text><polygon fill="#181818" points="1300.5,566.2344,1310.5,570.2344,1300.5,574.2344,1304.5,570.2344" style="stroke:#181818;stroke-width:1.0;"/><line style="stroke:#181818;stroke-width:1.0;" x1="946.5" x2="1306.5" y1="570.2344" y2="570.2344"/><text fill="#000000" font-family="sans-serif" font-size="13" font-weight="bold" lengthAdjust="spacing" textLength="14" x="953.5" y="565.3779">16</text><text fill="#000000" font-family="sans-serif" font-size="13" lengthAdjust="spacing" textLength="329" x="971.5" y="565.3779">undoPostIt(email, message[0], message[1], message[2])</text><polygon fill="#181818" points="2017.5,612.9375,2027.5,616.9375,2017.5,620.9375,2021.5,616.9375" style="stroke:#181818;stroke-width:1.0;"/><line style="stroke:#181818;stroke-width:1.0;" x1="1322.5" x2="2023.5" y1="616.9375" y2="616.9375"/><text fill="#000000" font-family="sans-serif" font-size="13" font-weight="bold" lengthAdjust="spacing" textLength="14" x="1329.5" y="603.9053">17</text><text fill="#000000" font-family="sans-serif" font-size="13" lengthAdjust="spacing" textLength="670" x="1347.5" y="595.7295">undoPostIt(email, Integer.parseInt(row), Integer.parseInt(column), Integer.parseInt(idBoard.replaceAll("[^a-zA-Z0-9@:.</text><text fill="#000000" font-family="sans-serif" font-size="13" lengthAdjust="spacing" textLength="35" x="1347.5" y="612.0811">]", ""))</text><polygon fill="#181818" points="2656.5,643.2891,2666.5,647.2891,2656.5,651.2891,2660.5,647.2891" style="stroke:#181818;stroke-width:1.0;"/><line style="stroke:#181818;stroke-width:1.0;" x1="2039.5" x2="2662.5" y1="647.2891" y2="647.2891"/><text fill="#000000" font-family="sans-serif" font-size="13" font-weight="bold" lengthAdjust="spacing" textLength="14" x="2046.5" y="642.4326">18</text><text fill="#000000" font-family="sans-serif" font-size="13" lengthAdjust="spacing" textLength="231" x="2064.5" y="642.4326">undoPostIt(email, row, column, idBoard)</text><polygon fill="#181818" points="2912.5,673.6406,2922.5,677.6406,2912.5,681.6406,2916.5,677.6406" style="stroke:#181818;stroke-width:1.0;"/><line style="stroke:#181818;stroke-width:1.0;" x1="2678.5" x2="2918.5" y1="677.6406" y2="677.6406"/><text fill="#000000" font-family="sans-serif" font-size="13" font-weight="bold" lengthAdjust="spacing" textLength="14" x="2685.5" y="672.7842">19</text><text fill="#000000" font-family="sans-serif" font-size="13" lengthAdjust="spacing" textLength="40" x="2703.5" y="672.7842">query()</text><polygon fill="#181818" points="2917.5,703.9922,2927.5,707.9922,2917.5,711.9922,2921.5,707.9922" style="stroke:#181818;stroke-width:1.0;"/><line style="stroke:#181818;stroke-width:1.0;" x1="2673.5" x2="2923.5" y1="707.9922" y2="707.9922"/><text fill="#000000" font-family="sans-serif" font-size="13" font-weight="bold" lengthAdjust="spacing" textLength="14" x="2680.5" y="703.1357">20</text><text fill="#000000" font-family="sans-serif" font-size="13" lengthAdjust="spacing" textLength="40" x="2698.5" y="703.1357">query()</text><polygon fill="#181818" points="1333.5,734.3438,1323.5,738.3438,1333.5,742.3438,1329.5,738.3438" style="stroke:#181818;stroke-width:1.0;"/><line style="stroke:#181818;stroke-width:1.0;stroke-dasharray:2.0,2.0;" x1="1327.5" x2="2033.5" y1="738.3438" y2="738.3438"/><text fill="#000000" font-family="sans-serif" font-size="13" font-weight="bold" lengthAdjust="spacing" textLength="14" x="1339.5" y="733.4873">21</text><text fill="#000000" font-family="sans-serif" font-size="13" lengthAdjust="spacing" textLength="89" x="1357.5" y="733.4873">returns boolean</text><polygon fill="#181818" points="957.5,764.6953,947.5,768.6953,957.5,772.6953,953.5,768.6953" style="stroke:#181818;stroke-width:1.0;"/><line style="stroke:#181818;stroke-width:1.0;stroke-dasharray:2.0,2.0;" x1="951.5" x2="1316.5" y1="768.6953" y2="768.6953"/><text fill="#000000" font-family="sans-serif" font-size="13" font-weight="bold" lengthAdjust="spacing" textLength="14" x="963.5" y="763.8389">22</text><text fill="#000000" font-family="sans-serif" font-size="13" lengthAdjust="spacing" textLength="89" x="981.5" y="763.8389">returns boolean</text><polygon fill="#181818" points="666.5,795.0469,656.5,799.0469,666.5,803.0469,662.5,799.0469" style="stroke:#181818;stroke-width:1.0;"/><line style="stroke:#181818;stroke-width:1.0;stroke-dasharray:2.0,2.0;" x1="660.5" x2="940.5" y1="799.0469" y2="799.0469"/><text fill="#000000" font-family="sans-serif" font-size="13" font-weight="bold" lengthAdjust="spacing" textLength="14" x="672.5" y="794.1904">23</text><text fill="#000000" font-family="sans-serif" font-size="13" lengthAdjust="spacing" textLength="239" x="690.5" y="794.1904">informs if operation was successful or not</text><polygon fill="#181818" points="375.5,825.3984,365.5,829.3984,375.5,833.3984,371.5,829.3984" style="stroke:#181818;stroke-width:1.0;"/><line style="stroke:#181818;stroke-width:1.0;stroke-dasharray:2.0,2.0;" x1="369.5" x2="649.5" y1="829.3984" y2="829.3984"/><text fill="#000000" font-family="sans-serif" font-size="13" font-weight="bold" lengthAdjust="spacing" textLength="14" x="381.5" y="824.542">24</text><text fill="#000000" font-family="sans-serif" font-size="13" lengthAdjust="spacing" textLength="239" x="399.5" y="824.542">informs if operation was successful or not</text><polygon fill="#181818" points="33.5,855.75,23.5,859.75,33.5,863.75,29.5,859.75" style="stroke:#181818;stroke-width:1.0;"/><line style="stroke:#181818;stroke-width:1.0;stroke-dasharray:2.0,2.0;" x1="27.5" x2="358.5" y1="859.75" y2="859.75"/><text fill="#000000" font-family="sans-serif" font-size="13" font-weight="bold" lengthAdjust="spacing" textLength="14" x="39.5" y="854.8936">25</text><text fill="#000000" font-family="sans-serif" font-size="13" lengthAdjust="spacing" textLength="239" x="57.5" y="854.8936">informs if operation was successful or not</text><!--SRC=[dPL1RwCm48Nl-HLMJgcKLDszRGwhJP0YKMqbH9hBTbl9XKbgYTXPsxJR_lfzDWHC8DsgDmpVZCVpdWTUMYNB_IFf4S-iqcoyCQJ7Z1ks6HsujY8J1oujtijS9ShOs6xYwdlS0MwZ92e4INlwTatw6UdF98kKj5eLHRrfYG_HxSykVQDoiNqTv7liehHFIeitReMIRckHaISNwowuL5pdDrpo7UrHTOWkJz24j176aio8kVtfh_LS4dMvb0xA27JnTUMR-UgfTDMbhW_SxztI7hjE5iiUM9svJoRnAEUMFt93zKbEc6KQ08DPaZWTESt5CxS4iJTizXsQiZbxSRjRvRLWd27ACc43DXw10zr8_e6WrXvjL9MYyWTIQFfJakd6rEPfCSH0Sz1R8ND_yaIJGRO9xRaeBjfePms78cAnHa09OzSgJm8ClgYf969pVMoI80Cgfv1hdY4yO8IaApRVaUq97su0_O41laaJLyTZLwxkBe2RPyVxVTepLzd300y5QvGMh5mFWjwTQAR9bbgQgY8JndKwVrJhw8ztmsgHdK4S3zmygPSXsDceyLpqf1IiwYd6PSw4X5oMQVNYbvagohraQkkTDVkl7MilDOxiHNtSZ-_c6F9dFSESvPenLxbpolPa32REtTLz-_mbUFvw7pZdE0oF2P5xkHvC6sCexKXVOduOmcA2lbqClAxQEFH5L9Vf4XUWu1ajYc8oldlWixV5xDVLxDkF-ULlUJ-Uil7u8gWGan8LeIu_amPBGoNJMhufgtS9CbJ3h0ftTp1EaGLzxzuXDwpECA7tGGNBAhMhhoDAQrzL49TX18xJzBfdXhDHHvdENpGXjqhl3HDRfWwa_Ry94zCmKsOPbD-M1SE_LohxuKluwPJz2_gvLBXsuUeV]--></g></svg>