<?xml version="1.0" encoding="UTF-8" standalone="no"?><svg xmlns="http://www.w3.org/2000/svg" xmlns:xlink="http://www.w3.org/1999/xlink" contentStyleType="text/css" height="883px" preserveAspectRatio="none" style="width:473px;height:883px;background:#FFFFFF;" version="1.1" viewBox="0 0 473 883" width="473px" zoomAndPan="magnify"><defs/><g><!--MD5=[3fd616f346a44cd59a91eb10b19e157c]
class User--><g id="elem_User"><rect codeLine="1" fill="#F1F1F1" height="48" id="User" rx="2.5" ry="2.5" style="stroke:#181818;stroke-width:0.5;" width="61" x="206" y="7"/><ellipse cx="221" cy="23" fill="#ADD1B2" rx="11" ry="11" style="stroke:#181818;stroke-width:1.0;"/><path d="M223,19.5 Q223.2031,19 223.4375,18.75 Q223.6719,18.5 223.9375,18.5 Q224.4063,18.5 224.7031,18.7813 Q225,19.0625 225,19.7188 L225,21.2813 Q225,21.9375 224.7188,22.2188 Q224.4375,22.5 224,22.5 Q223.6094,22.5 223.3594,22.3281 Q223.1094,22.1563 223,21.7031 Q222.9531,21.3906 222.7813,21.2188 Q222.4688,20.8906 221.9063,20.7031 Q221.3438,20.5 220.7813,20.5 Q220.0781,20.5 219.4844,20.7813 Q218.9063,21.0625 218.4531,21.6875 Q218,22.3125 218,23.1719 L218,24.0938 Q218,25.125 218.8438,25.8125 Q219.6875,26.5 221.1875,26.5 Q222.0781,26.5 222.7031,26.2969 Q223.0625,26.1875 223.4688,25.8281 Q223.7344,25.625 223.875,25.5625 Q224.0156,25.5 224.1875,25.5 Q224.5156,25.5 224.75,25.7656 Q225,26.0156 225,26.375 Q225,26.7188 224.6563,27.125 Q224.1563,27.7188 223.3594,28.0469 Q222.3125,28.5 221.0313,28.5 Q219.5313,28.5 218.3281,27.9063 Q217.3594,27.4375 216.6719,26.4219 Q216,25.4063 216,24.2031 L216,23.1094 Q216,21.8594 216.5938,20.7656 Q217.2031,19.6719 218.25,19.0938 Q219.3125,18.5 220.5,18.5 Q221.2188,18.5 221.8438,18.75 Q222.4688,19 223,19.5 Z " fill="#000000"/><text fill="#000000" font-family="sans-serif" font-size="14" lengthAdjust="spacing" textLength="29" x="235" y="28.7285">User</text><line style="stroke:#181818;stroke-width:0.5;" x1="207" x2="266" y1="39" y2="39"/><line style="stroke:#181818;stroke-width:0.5;" x1="207" x2="266" y1="47" y2="47"/></g><!--MD5=[343839bb48731e46d0fda742d45fdd31]
class BoardRepository--><g id="elem_BoardRepository"><rect codeLine="4" fill="#F1F1F1" height="65.6094" id="BoardRepository" rx="2.5" ry="2.5" style="stroke:#181818;stroke-width:0.5;" width="459" x="7" y="562"/><ellipse cx="179.25" cy="578" fill="#ADD1B2" rx="11" ry="11" style="stroke:#181818;stroke-width:1.0;"/><path d="M181.25,574.5 Q181.4531,574 181.6875,573.75 Q181.9219,573.5 182.1875,573.5 Q182.6563,573.5 182.9531,573.7813 Q183.25,574.0625 183.25,574.7188 L183.25,576.2813 Q183.25,576.9375 182.9688,577.2188 Q182.6875,577.5 182.25,577.5 Q181.8594,577.5 181.6094,577.3281 Q181.3594,577.1563 181.25,576.7031 Q181.2031,576.3906 181.0313,576.2188 Q180.7188,575.8906 180.1563,575.7031 Q179.5938,575.5 179.0313,575.5 Q178.3281,575.5 177.7344,575.7813 Q177.1563,576.0625 176.7031,576.6875 Q176.25,577.3125 176.25,578.1719 L176.25,579.0938 Q176.25,580.125 177.0938,580.8125 Q177.9375,581.5 179.4375,581.5 Q180.3281,581.5 180.9531,581.2969 Q181.3125,581.1875 181.7188,580.8281 Q181.9844,580.625 182.125,580.5625 Q182.2656,580.5 182.4375,580.5 Q182.7656,580.5 183,580.7656 Q183.25,581.0156 183.25,581.375 Q183.25,581.7188 182.9063,582.125 Q182.4063,582.7188 181.6094,583.0469 Q180.5625,583.5 179.2813,583.5 Q177.7813,583.5 176.5781,582.9063 Q175.6094,582.4375 174.9219,581.4219 Q174.25,580.4063 174.25,579.2031 L174.25,578.1094 Q174.25,576.8594 174.8438,575.7656 Q175.4531,574.6719 176.5,574.0938 Q177.5625,573.5 178.75,573.5 Q179.4688,573.5 180.0938,573.75 Q180.7188,574 181.25,574.5 Z " fill="#000000"/><text fill="#000000" font-family="sans-serif" font-size="14" lengthAdjust="spacing" textLength="106" x="199.75" y="583.7285">BoardRepository</text><line style="stroke:#181818;stroke-width:0.5;" x1="8" x2="465" y1="594" y2="594"/><line style="stroke:#181818;stroke-width:0.5;" x1="8" x2="465" y1="602" y2="602"/><ellipse cx="18" cy="613" fill="#84BE84" rx="3" ry="3" style="stroke:#038048;stroke-width:1.0;"/><text fill="#000000" font-family="sans-serif" font-size="14" lengthAdjust="spacing" textLength="433" x="27" y="620.5332">createBoard(int rows, int columns, final SystemUser owner) : boolean</text></g><!--MD5=[1df05c488f3418f9e6a068b11a24744c]
class CreateBoardUI--><g id="elem_CreateBoardUI"><rect codeLine="8" fill="#F1F1F1" height="83.2188" id="CreateBoardUI" rx="2.5" ry="2.5" style="stroke:#181818;stroke-width:0.5;" width="149" x="162" y="115"/><ellipse cx="187.8" cy="131" fill="#ADD1B2" rx="11" ry="11" style="stroke:#181818;stroke-width:1.0;"/><path d="M189.8,127.5 Q190.0031,127 190.2375,126.75 Q190.4719,126.5 190.7375,126.5 Q191.2063,126.5 191.5031,126.7813 Q191.8,127.0625 191.8,127.7188 L191.8,129.2813 Q191.8,129.9375 191.5188,130.2188 Q191.2375,130.5 190.8,130.5 Q190.4094,130.5 190.1594,130.3281 Q189.9094,130.1563 189.8,129.7031 Q189.7531,129.3906 189.5813,129.2188 Q189.2688,128.8906 188.7063,128.7031 Q188.1438,128.5 187.5813,128.5 Q186.8781,128.5 186.2844,128.7813 Q185.7063,129.0625 185.2531,129.6875 Q184.8,130.3125 184.8,131.1719 L184.8,132.0938 Q184.8,133.125 185.6438,133.8125 Q186.4875,134.5 187.9875,134.5 Q188.8781,134.5 189.5031,134.2969 Q189.8625,134.1875 190.2688,133.8281 Q190.5344,133.625 190.675,133.5625 Q190.8156,133.5 190.9875,133.5 Q191.3156,133.5 191.55,133.7656 Q191.8,134.0156 191.8,134.375 Q191.8,134.7188 191.4563,135.125 Q190.9563,135.7188 190.1594,136.0469 Q189.1125,136.5 187.8313,136.5 Q186.3313,136.5 185.1281,135.9063 Q184.1594,135.4375 183.4719,134.4219 Q182.8,133.4063 182.8,132.2031 L182.8,131.1094 Q182.8,129.8594 183.3938,128.7656 Q184.0031,127.6719 185.05,127.0938 Q186.1125,126.5 187.3,126.5 Q188.0188,126.5 188.6438,126.75 Q189.2688,127 189.8,127.5 Z " fill="#000000"/><text fill="#000000" font-family="sans-serif" font-size="14" lengthAdjust="spacing" textLength="93" x="204.2" y="136.7285">CreateBoardUI</text><line style="stroke:#181818;stroke-width:0.5;" x1="163" x2="310" y1="147" y2="147"/><line style="stroke:#181818;stroke-width:0.5;" x1="163" x2="310" y1="155" y2="155"/><ellipse cx="173" cy="166" fill="#84BE84" rx="3" ry="3" style="stroke:#038048;stroke-width:1.0;"/><text fill="#000000" font-family="sans-serif" font-size="14" lengthAdjust="spacing" textLength="123" x="182" y="173.5332">doShow() : boolean</text><ellipse cx="173" cy="183.6094" fill="#84BE84" rx="3" ry="3" style="stroke:#038048;stroke-width:1.0;"/><text fill="#000000" font-family="sans-serif" font-size="14" lengthAdjust="spacing" textLength="113" x="182" y="191.1426">headline() : String</text></g><!--MD5=[7333c6ac125e4f3f0243e9815b0f2b40]
class CreateBoardController--><g id="elem_CreateBoardController"><rect codeLine="13" fill="#F1F1F1" height="100.8281" id="CreateBoardController" rx="2.5" ry="2.5" style="stroke:#181818;stroke-width:0.5;" width="304" x="84.5" y="258"/><ellipse cx="160.75" cy="274" fill="#ADD1B2" rx="11" ry="11" style="stroke:#181818;stroke-width:1.0;"/><path d="M162.75,270.5 Q162.9531,270 163.1875,269.75 Q163.4219,269.5 163.6875,269.5 Q164.1563,269.5 164.4531,269.7813 Q164.75,270.0625 164.75,270.7188 L164.75,272.2813 Q164.75,272.9375 164.4688,273.2188 Q164.1875,273.5 163.75,273.5 Q163.3594,273.5 163.1094,273.3281 Q162.8594,273.1563 162.75,272.7031 Q162.7031,272.3906 162.5313,272.2188 Q162.2188,271.8906 161.6563,271.7031 Q161.0938,271.5 160.5313,271.5 Q159.8281,271.5 159.2344,271.7813 Q158.6563,272.0625 158.2031,272.6875 Q157.75,273.3125 157.75,274.1719 L157.75,275.0938 Q157.75,276.125 158.5938,276.8125 Q159.4375,277.5 160.9375,277.5 Q161.8281,277.5 162.4531,277.2969 Q162.8125,277.1875 163.2188,276.8281 Q163.4844,276.625 163.625,276.5625 Q163.7656,276.5 163.9375,276.5 Q164.2656,276.5 164.5,276.7656 Q164.75,277.0156 164.75,277.375 Q164.75,277.7188 164.4063,278.125 Q163.9063,278.7188 163.1094,279.0469 Q162.0625,279.5 160.7813,279.5 Q159.2813,279.5 158.0781,278.9063 Q157.1094,278.4375 156.4219,277.4219 Q155.75,276.4063 155.75,275.2031 L155.75,274.1094 Q155.75,272.8594 156.3438,271.7656 Q156.9531,270.6719 158,270.0938 Q159.0625,269.5 160.25,269.5 Q160.9688,269.5 161.5938,269.75 Q162.2188,270 162.75,270.5 Z " fill="#000000"/><text fill="#000000" font-family="sans-serif" font-size="14" lengthAdjust="spacing" textLength="143" x="181.25" y="279.7285">CreateBoardController</text><line style="stroke:#181818;stroke-width:0.5;" x1="85.5" x2="387.5" y1="290" y2="290"/><rect fill="none" height="6" style="stroke:#C82930;stroke-width:1.0;" width="6" x="92.5" y="298"/><text fill="#000000" font-family="sans-serif" font-size="14" lengthAdjust="spacing" textLength="177" x="104.5" y="308.5332">CreateBoardService service</text><rect fill="none" height="6" style="stroke:#C82930;stroke-width:1.0;" width="6" x="92.5" y="315.6094"/><text fill="#000000" font-family="sans-serif" font-size="14" lengthAdjust="spacing" textLength="167" x="104.5" y="326.1426">AuthorizationService authz</text><line style="stroke:#181818;stroke-width:0.5;" x1="85.5" x2="387.5" y1="333.2188" y2="333.2188"/><ellipse cx="95.5" cy="344.2188" fill="#84BE84" rx="3" ry="3" style="stroke:#038048;stroke-width:1.0;"/><text fill="#000000" font-family="sans-serif" font-size="14" lengthAdjust="spacing" textLength="278" x="104.5" y="351.752">createBoard(int rows, int columns) : boolean</text></g><!--MD5=[86c97d5acfb15f0edee0e9834f1e9e38]
class CreateBoardService--><g id="elem_CreateBoardService"><rect codeLine="19" fill="#F1F1F1" height="83.2188" id="CreateBoardService" rx="2.5" ry="2.5" style="stroke:#181818;stroke-width:0.5;" width="459" x="7" y="419"/><ellipse cx="168.25" cy="435" fill="#ADD1B2" rx="11" ry="11" style="stroke:#181818;stroke-width:1.0;"/><path d="M170.25,431.5 Q170.4531,431 170.6875,430.75 Q170.9219,430.5 171.1875,430.5 Q171.6563,430.5 171.9531,430.7813 Q172.25,431.0625 172.25,431.7188 L172.25,433.2813 Q172.25,433.9375 171.9688,434.2188 Q171.6875,434.5 171.25,434.5 Q170.8594,434.5 170.6094,434.3281 Q170.3594,434.1563 170.25,433.7031 Q170.2031,433.3906 170.0313,433.2188 Q169.7188,432.8906 169.1563,432.7031 Q168.5938,432.5 168.0313,432.5 Q167.3281,432.5 166.7344,432.7813 Q166.1563,433.0625 165.7031,433.6875 Q165.25,434.3125 165.25,435.1719 L165.25,436.0938 Q165.25,437.125 166.0938,437.8125 Q166.9375,438.5 168.4375,438.5 Q169.3281,438.5 169.9531,438.2969 Q170.3125,438.1875 170.7188,437.8281 Q170.9844,437.625 171.125,437.5625 Q171.2656,437.5 171.4375,437.5 Q171.7656,437.5 172,437.7656 Q172.25,438.0156 172.25,438.375 Q172.25,438.7188 171.9063,439.125 Q171.4063,439.7188 170.6094,440.0469 Q169.5625,440.5 168.2813,440.5 Q166.7813,440.5 165.5781,439.9063 Q164.6094,439.4375 163.9219,438.4219 Q163.25,437.4063 163.25,436.2031 L163.25,435.1094 Q163.25,433.8594 163.8438,432.7656 Q164.4531,431.6719 165.5,431.0938 Q166.5625,430.5 167.75,430.5 Q168.4688,430.5 169.0938,430.75 Q169.7188,431 170.25,431.5 Z " fill="#000000"/><text fill="#000000" font-family="sans-serif" font-size="14" lengthAdjust="spacing" textLength="128" x="188.75" y="440.7285">CreateBoardService</text><line style="stroke:#181818;stroke-width:0.5;" x1="8" x2="465" y1="451" y2="451"/><rect fill="none" height="6" style="stroke:#C82930;stroke-width:1.0;" width="6" x="15" y="459"/><text fill="#000000" font-family="sans-serif" font-size="14" lengthAdjust="spacing" textLength="123" x="27" y="469.5332">BoardRepository br</text><line style="stroke:#181818;stroke-width:0.5;" x1="8" x2="465" y1="476.6094" y2="476.6094"/><ellipse cx="18" cy="487.6094" fill="#84BE84" rx="3" ry="3" style="stroke:#038048;stroke-width:1.0;"/><text fill="#000000" font-family="sans-serif" font-size="14" lengthAdjust="spacing" textLength="433" x="27" y="495.1426">createBoard(int rows, int columns, final SystemUser owner) : boolean</text></g><!--MD5=[3762909e135fb728396985e200594027]
class SharedBoard--><g id="elem_SharedBoard"><rect codeLine="24" fill="#F1F1F1" height="188.875" id="SharedBoard" rx="2.5" ry="2.5" style="stroke:#181818;stroke-width:0.5;" width="227" x="123" y="688"/><ellipse cx="190.25" cy="704" fill="#ADD1B2" rx="11" ry="11" style="stroke:#181818;stroke-width:1.0;"/><path d="M192.25,700.5 Q192.4531,700 192.6875,699.75 Q192.9219,699.5 193.1875,699.5 Q193.6563,699.5 193.9531,699.7813 Q194.25,700.0625 194.25,700.7188 L194.25,702.2813 Q194.25,702.9375 193.9688,703.2188 Q193.6875,703.5 193.25,703.5 Q192.8594,703.5 192.6094,703.3281 Q192.3594,703.1563 192.25,702.7031 Q192.2031,702.3906 192.0313,702.2188 Q191.7188,701.8906 191.1563,701.7031 Q190.5938,701.5 190.0313,701.5 Q189.3281,701.5 188.7344,701.7813 Q188.1563,702.0625 187.7031,702.6875 Q187.25,703.3125 187.25,704.1719 L187.25,705.0938 Q187.25,706.125 188.0938,706.8125 Q188.9375,707.5 190.4375,707.5 Q191.3281,707.5 191.9531,707.2969 Q192.3125,707.1875 192.7188,706.8281 Q192.9844,706.625 193.125,706.5625 Q193.2656,706.5 193.4375,706.5 Q193.7656,706.5 194,706.7656 Q194.25,707.0156 194.25,707.375 Q194.25,707.7188 193.9063,708.125 Q193.4063,708.7188 192.6094,709.0469 Q191.5625,709.5 190.2813,709.5 Q188.7813,709.5 187.5781,708.9063 Q186.6094,708.4375 185.9219,707.4219 Q185.25,706.4063 185.25,705.2031 L185.25,704.1094 Q185.25,702.8594 185.8438,701.7656 Q186.4531,700.6719 187.5,700.0938 Q188.5625,699.5 189.75,699.5 Q190.4688,699.5 191.0938,699.75 Q191.7188,700 192.25,700.5 Z " fill="#000000"/><text fill="#000000" font-family="sans-serif" font-size="14" lengthAdjust="spacing" textLength="84" x="210.75" y="709.7285">SharedBoard</text><line style="stroke:#181818;stroke-width:0.5;" x1="124" x2="349" y1="720" y2="720"/><rect fill="none" height="6" style="stroke:#C82930;stroke-width:1.0;" width="6" x="131" y="728"/><text fill="#000000" font-family="sans-serif" font-size="14" lengthAdjust="spacing" textLength="89" x="143" y="738.5332">Long idBoard;</text><rect fill="none" height="6" style="stroke:#C82930;stroke-width:1.0;" width="6" x="131" y="745.6094"/><text fill="#000000" font-family="sans-serif" font-size="14" lengthAdjust="spacing" textLength="131" x="143" y="756.1426">NumRows numRows;</text><rect fill="none" height="6" style="stroke:#C82930;stroke-width:1.0;" width="6" x="131" y="763.2188"/><text fill="#000000" font-family="sans-serif" font-size="14" lengthAdjust="spacing" textLength="173" x="143" y="773.752">NumColumns numColumns;</text><rect fill="none" height="6" style="stroke:#C82930;stroke-width:1.0;" width="6" x="131" y="780.8281"/><text fill="#000000" font-family="sans-serif" font-size="14" lengthAdjust="spacing" textLength="121" x="143" y="791.3613">SystemUser admin;</text><rect fill="none" height="6" style="stroke:#C82930;stroke-width:1.0;" width="6" x="131" y="798.4375"/><text fill="#000000" font-family="sans-serif" font-size="14" lengthAdjust="spacing" textLength="171" x="143" y="808.9707">List&lt;SystemUser&gt; userList;</text><line style="stroke:#181818;stroke-width:0.5;" x1="124" x2="349" y1="816.0469" y2="816.0469"/><ellipse cx="134" cy="827.0469" fill="#84BE84" rx="3" ry="3" style="stroke:#038048;stroke-width:1.0;"/><text fill="#000000" font-family="sans-serif" font-size="14" lengthAdjust="spacing" textLength="201" x="143" y="834.5801">sameAs(Object other) : boolean</text><ellipse cx="134" cy="844.6563" fill="#84BE84" rx="3" ry="3" style="stroke:#038048;stroke-width:1.0;"/><text fill="#000000" font-family="sans-serif" font-size="14" lengthAdjust="spacing" textLength="101" x="143" y="852.1895">identity() : Code</text><ellipse cx="134" cy="862.2656" fill="#84BE84" rx="3" ry="3" style="stroke:#038048;stroke-width:1.0;"/><text fill="#000000" font-family="sans-serif" font-size="14" lengthAdjust="spacing" textLength="178" x="143" y="869.7988">compareTo(Long other) : int</text></g><!--MD5=[64af2c251c319e45cca20826e9db19e1]
link User to CreateBoardUI--><g id="link_User_CreateBoardUI"><path codeLine="35" d="M236.5,55.23 C236.5,70.56 236.5,91.16 236.5,109.7 " fill="none" id="User-to-CreateBoardUI" style="stroke:#181818;stroke-width:1.0;"/><polygon fill="#181818" points="236.5,114.87,240.5,105.87,236.5,109.87,232.5,105.87,236.5,114.87" style="stroke:#181818;stroke-width:1.0;"/></g><!--MD5=[a8e21c2675da13e94501003d210f0f63]
link CreateBoardUI to CreateBoardController--><g id="link_CreateBoardUI_CreateBoardController"><path codeLine="36" d="M236.5,198.09 C236.5,214.91 236.5,234.66 236.5,252.73 " fill="none" id="CreateBoardUI-to-CreateBoardController" style="stroke:#181818;stroke-width:1.0;"/><polygon fill="#181818" points="236.5,257.78,240.5,248.78,236.5,252.78,232.5,248.78,236.5,257.78" style="stroke:#181818;stroke-width:1.0;"/></g><!--MD5=[0c61691b713e2704e4ce183d9c6755dc]
link CreateBoardController to CreateBoardService--><g id="link_CreateBoardController_CreateBoardService"><path codeLine="37" d="M236.5,359.03 C236.5,376.51 236.5,396.08 236.5,413.27 " fill="none" id="CreateBoardController-to-CreateBoardService" style="stroke:#181818;stroke-width:1.0;"/><polygon fill="#181818" points="236.5,418.53,240.5,409.53,236.5,413.53,232.5,409.53,236.5,418.53" style="stroke:#181818;stroke-width:1.0;"/></g><!--MD5=[cfe67e871d7e2d6454844902fb2eadd5]
link CreateBoardService to BoardRepository--><g id="link_CreateBoardService_BoardRepository"><path codeLine="38" d="M236.5,502.34 C236.5,519.7 236.5,539.81 236.5,556.76 " fill="none" id="CreateBoardService-to-BoardRepository" style="stroke:#181818;stroke-width:1.0;"/><polygon fill="#181818" points="236.5,561.92,240.5,552.92,236.5,556.92,232.5,552.92,236.5,561.92" style="stroke:#181818;stroke-width:1.0;"/></g><!--MD5=[b3a4bd0aee203052c298c037815903b8]
link BoardRepository to SharedBoard--><g id="link_BoardRepository_SharedBoard"><path codeLine="39" d="M236.5,628.31 C236.5,643.72 236.5,663.07 236.5,682.77 " fill="none" id="BoardRepository-to-SharedBoard" style="stroke:#181818;stroke-width:1.0;"/><polygon fill="#181818" points="236.5,687.79,240.5,678.79,236.5,682.79,232.5,678.79,236.5,687.79" style="stroke:#181818;stroke-width:1.0;"/></g><!--MD5=[7e7d51455524a4572f2567a359918995]
@startuml
class User {
}

class BoardRepository {
    +createBoard(int rows, int columns, final SystemUser owner) : boolean
}

class CreateBoardUI {
    +doShow() : boolean
    +headline() : String
}

class CreateBoardController {
    -CreateBoardService service
    -AuthorizationService authz
    +createBoard(int rows, int columns) : boolean
}

class CreateBoardService {
    -BoardRepository br
    +createBoard(int rows, int columns, final SystemUser owner) : boolean
}

class SharedBoard {
    - Long idBoard;
    - NumRows numRows;
    - NumColumns numColumns;
    - SystemUser admin;
    - List<SystemUser> userList;
    + sameAs(Object other) : boolean
    + identity() : Code
    + compareTo(Long other) : int
}

User - -> CreateBoardUI
CreateBoardUI - -> CreateBoardController
CreateBoardController - -> CreateBoardService
CreateBoardService - -> BoardRepository
BoardRepository - -> SharedBoard
@enduml

PlantUML version 1.2022.4(Sat Apr 09 14:29:17 BST 2022)
(GPL source distribution)
Java Runtime: OpenJDK Runtime Environment
JVM: OpenJDK 64-Bit Server VM
Default Encoding: Cp1252
Language: pt
Country: PT
--></g></svg>