<?xml version="1.0" encoding="us-ascii" standalone="no"?><svg xmlns="http://www.w3.org/2000/svg" xmlns:xlink="http://www.w3.org/1999/xlink" contentStyleType="text/css" height="1022px" preserveAspectRatio="none" style="width:1868px;height:1022px;background:#FFFFFF;" version="1.1" viewBox="0 0 1868 1022" width="1868px" zoomAndPan="magnify"><defs/><g><rect fill="#FFFFFF" height="838.1406" style="stroke:#181818;stroke-width:1.0;" width="10" x="32.5" y="92.6094"/><rect fill="#FFFFFF" height="530.625" style="stroke:#181818;stroke-width:1.0;" width="10" x="423.5" y="114.9609"/><rect fill="#FFFFFF" height="254.8125" style="stroke:#181818;stroke-width:1.0;" width="10" x="423.5" y="675.9375"/><rect fill="#FFFFFF" height="182.1094" style="stroke:#181818;stroke-width:1.0;" width="10" x="641.5" y="145.3125"/><rect fill="#FFFFFF" height="257.4609" style="stroke:#181818;stroke-width:1.0;" width="10" x="641.5" y="357.7734"/><rect fill="#FFFFFF" height="121.4063" style="stroke:#181818;stroke-width:1.0;" width="10" x="641.5" y="706.2891"/><rect fill="#FFFFFF" height="30.3516" style="stroke:#181818;stroke-width:1.0;" width="10" x="823" y="175.6641"/><rect fill="#FFFFFF" height="121.4063" style="stroke:#181818;stroke-width:1.0;" width="10" x="974.5" y="206.0156"/><rect fill="#FFFFFF" height="60.7031" style="stroke:#181818;stroke-width:1.0;" width="10" x="1146.5" y="236.3672"/><rect fill="#FFFFFF" height="196.7578" style="stroke:#181818;stroke-width:1.0;" width="10" x="1298.5" y="388.125"/><rect fill="#FFFFFF" height="60.7031" style="stroke:#181818;stroke-width:1.0;" width="10" x="1491.5" y="736.6406"/><rect fill="#FFFFFF" height="30.3516" style="stroke:#181818;stroke-width:1.0;" width="10" x="1649" y="266.7188"/><rect fill="#FFFFFF" height="36.3516" style="stroke:#181818;stroke-width:1.0;" width="10" x="1649" y="504.1797"/><rect fill="#FFFFFF" height="30.3516" style="stroke:#181818;stroke-width:1.0;" width="10" x="1791.5" y="297.0703"/><rect fill="#FFFFFF" height="30" style="stroke:#181818;stroke-width:1.0;" width="10" x="1791.5" y="418.4766"/><rect fill="#FFFFFF" height="30.3516" style="stroke:#181818;stroke-width:1.0;" width="10" x="1791.5" y="766.9922"/><rect fill="none" height="92.0547" style="stroke:#000000;stroke-width:1.5;" width="509.5" x="1216.5" y="463.4766"/><rect fill="none" height="81.0547" style="stroke:#000000;stroke-width:1.5;" width="523.5" x="10" y="842.6953"/><line style="stroke:#181818;stroke-width:0.5;stroke-dasharray:5.0,5.0;" x1="37" x2="37" y1="82.6094" y2="940.75"/><line style="stroke:#181818;stroke-width:0.5;stroke-dasharray:5.0,5.0;" x1="428.5" x2="428.5" y1="82.6094" y2="940.75"/><line style="stroke:#181818;stroke-width:0.5;stroke-dasharray:5.0,5.0;" x1="646.5" x2="646.5" y1="82.6094" y2="940.75"/><line style="stroke:#181818;stroke-width:0.5;stroke-dasharray:5.0,5.0;" x1="827.5" x2="827.5" y1="82.6094" y2="940.75"/><line style="stroke:#181818;stroke-width:0.5;stroke-dasharray:5.0,5.0;" x1="979.5" x2="979.5" y1="82.6094" y2="940.75"/><line style="stroke:#181818;stroke-width:0.5;stroke-dasharray:5.0,5.0;" x1="1151.5" x2="1151.5" y1="82.6094" y2="940.75"/><line style="stroke:#181818;stroke-width:0.5;stroke-dasharray:5.0,5.0;" x1="1303.5" x2="1303.5" y1="82.6094" y2="940.75"/><line style="stroke:#181818;stroke-width:0.5;stroke-dasharray:5.0,5.0;" x1="1496" x2="1496" y1="82.6094" y2="940.75"/><line style="stroke:#181818;stroke-width:0.5;stroke-dasharray:5.0,5.0;" x1="1654" x2="1654" y1="82.6094" y2="940.75"/><line style="stroke:#181818;stroke-width:0.5;stroke-dasharray:5.0,5.0;" x1="1796" x2="1796" y1="82.6094" y2="940.75"/><text fill="#000000" font-family="sans-serif" font-size="14" lengthAdjust="spacing" textLength="29" x="20" y="79.5332">User</text><ellipse cx="37.5" cy="13.5" fill="#E2E2F0" rx="8" ry="8" style="stroke:#181818;stroke-width:0.5;"/><path d="M37.5,21.5 L37.5,48.5 M24.5,29.5 L50.5,29.5 M37.5,48.5 L24.5,63.5 M37.5,48.5 L50.5,63.5 " fill="none" style="stroke:#181818;stroke-width:0.5;"/><text fill="#000000" font-family="sans-serif" font-size="14" lengthAdjust="spacing" textLength="29" x="20" y="954.2832">User</text><ellipse cx="37.5" cy="965.8594" fill="#E2E2F0" rx="8" ry="8" style="stroke:#181818;stroke-width:0.5;"/><path d="M37.5,973.8594 L37.5,1000.8594 M24.5,981.8594 L50.5,981.8594 M37.5,1000.8594 L24.5,1015.8594 M37.5,1000.8594 L50.5,1015.8594 " fill="none" style="stroke:#181818;stroke-width:0.5;"/><rect fill="#E2E2F0" height="31.6094" rx="2.5" ry="2.5" style="stroke:#181818;stroke-width:0.5;" width="190" x="333.5" y="50"/><text fill="#000000" font-family="sans-serif" font-size="14" lengthAdjust="spacing" textLength="176" x="340.5" y="71.5332">StatusParticipantsMeetingUI</text><rect fill="#E2E2F0" height="31.6094" rx="2.5" ry="2.5" style="stroke:#181818;stroke-width:0.5;" width="190" x="333.5" y="939.75"/><text fill="#000000" font-family="sans-serif" font-size="14" lengthAdjust="spacing" textLength="176" x="340.5" y="961.2832">StatusParticipantsMeetingUI</text><rect fill="#E2E2F0" height="31.6094" rx="2.5" ry="2.5" style="stroke:#181818;stroke-width:0.5;" width="200" x="546.5" y="50"/><text fill="#000000" font-family="sans-serif" font-size="14" lengthAdjust="spacing" textLength="186" x="553.5" y="71.5332">MeetingParticipantsController</text><rect fill="#E2E2F0" height="31.6094" rx="2.5" ry="2.5" style="stroke:#181818;stroke-width:0.5;" width="200" x="546.5" y="939.75"/><text fill="#000000" font-family="sans-serif" font-size="14" lengthAdjust="spacing" textLength="186" x="553.5" y="961.2832">MeetingParticipantsController</text><rect fill="#E2E2F0" height="31.6094" rx="2.5" ry="2.5" style="stroke:#181818;stroke-width:0.5;" width="143" x="756.5" y="50"/><text fill="#000000" font-family="sans-serif" font-size="14" lengthAdjust="spacing" textLength="129" x="763.5" y="71.5332">AuthorizationService</text><rect fill="#E2E2F0" height="31.6094" rx="2.5" ry="2.5" style="stroke:#181818;stroke-width:0.5;" width="143" x="756.5" y="939.75"/><text fill="#000000" font-family="sans-serif" font-size="14" lengthAdjust="spacing" textLength="129" x="763.5" y="961.2832">AuthorizationService</text><rect fill="#E2E2F0" height="31.6094" rx="2.5" ry="2.5" style="stroke:#181818;stroke-width:0.5;" width="140" x="909.5" y="50"/><text fill="#000000" font-family="sans-serif" font-size="14" lengthAdjust="spacing" textLength="126" x="916.5" y="71.5332">Persistence Context</text><rect fill="#E2E2F0" height="31.6094" rx="2.5" ry="2.5" style="stroke:#181818;stroke-width:0.5;" width="140" x="909.5" y="939.75"/><text fill="#000000" font-family="sans-serif" font-size="14" lengthAdjust="spacing" textLength="126" x="916.5" y="961.2832">Persistence Context</text><rect fill="#E2E2F0" height="31.6094" rx="2.5" ry="2.5" style="stroke:#181818;stroke-width:0.5;" width="130" x="1086.5" y="50"/><text fill="#000000" font-family="sans-serif" font-size="14" lengthAdjust="spacing" textLength="116" x="1093.5" y="71.5332">RepositoryFactory</text><rect fill="#E2E2F0" height="31.6094" rx="2.5" ry="2.5" style="stroke:#181818;stroke-width:0.5;" width="130" x="1086.5" y="939.75"/><text fill="#000000" font-family="sans-serif" font-size="14" lengthAdjust="spacing" textLength="116" x="1093.5" y="961.2832">RepositoryFactory</text><rect fill="#E2E2F0" height="31.6094" rx="2.5" ry="2.5" style="stroke:#181818;stroke-width:0.5;" width="154" x="1226.5" y="50"/><text fill="#000000" font-family="sans-serif" font-size="14" lengthAdjust="spacing" textLength="140" x="1233.5" y="71.5332">JpaMeetingRepository</text><rect fill="#E2E2F0" height="31.6094" rx="2.5" ry="2.5" style="stroke:#181818;stroke-width:0.5;" width="154" x="1226.5" y="939.75"/><text fill="#000000" font-family="sans-serif" font-size="14" lengthAdjust="spacing" textLength="140" x="1233.5" y="961.2832">JpaMeetingRepository</text><rect fill="#E2E2F0" height="31.6094" rx="2.5" ry="2.5" style="stroke:#181818;stroke-width:0.5;" width="171" x="1411" y="50"/><text fill="#000000" font-family="sans-serif" font-size="14" lengthAdjust="spacing" textLength="157" x="1418" y="71.5332">JpaMeetingALRepository</text><rect fill="#E2E2F0" height="31.6094" rx="2.5" ry="2.5" style="stroke:#181818;stroke-width:0.5;" width="171" x="1411" y="939.75"/><text fill="#000000" font-family="sans-serif" font-size="14" lengthAdjust="spacing" textLength="157" x="1418" y="961.2832">JpaMeetingALRepository</text><text fill="#000000" font-family="sans-serif" font-size="14" lengthAdjust="spacing" textLength="118" x="1592" y="79.5332">MeetingRepository</text><path d="M1636,29 C1636,19 1654,19 1654,19 C1654,19 1672,19 1672,29 L1672,55 C1672,65 1654,65 1654,65 C1654,65 1636,65 1636,55 L1636,29 " fill="#E2E2F0" style="stroke:#181818;stroke-width:1.5;"/><path d="M1636,29 C1636,39 1654,39 1654,39 C1654,39 1672,39 1672,29 " fill="none" style="stroke:#181818;stroke-width:1.5;"/><text fill="#000000" font-family="sans-serif" font-size="14" lengthAdjust="spacing" textLength="118" x="1592" y="954.2832">MeetingRepository</text><path d="M1636,967.3594 C1636,957.3594 1654,957.3594 1654,957.3594 C1654,957.3594 1672,957.3594 1672,967.3594 L1672,993.3594 C1672,1003.3594 1654,1003.3594 1654,1003.3594 C1654,1003.3594 1636,1003.3594 1636,993.3594 L1636,967.3594 " fill="#E2E2F0" style="stroke:#181818;stroke-width:1.5;"/><path d="M1636,967.3594 C1636,977.3594 1654,977.3594 1654,977.3594 C1654,977.3594 1672,977.3594 1672,967.3594 " fill="none" style="stroke:#181818;stroke-width:1.5;"/><text fill="#000000" font-family="sans-serif" font-size="14" lengthAdjust="spacing" textLength="135" x="1726" y="79.5332">MeetingALRepository</text><path d="M1778.5,29 C1778.5,19 1796.5,19 1796.5,19 C1796.5,19 1814.5,19 1814.5,29 L1814.5,55 C1814.5,65 1796.5,65 1796.5,65 C1796.5,65 1778.5,65 1778.5,55 L1778.5,29 " fill="#E2E2F0" style="stroke:#181818;stroke-width:1.5;"/><path d="M1778.5,29 C1778.5,39 1796.5,39 1796.5,39 C1796.5,39 1814.5,39 1814.5,29 " fill="none" style="stroke:#181818;stroke-width:1.5;"/><text fill="#000000" font-family="sans-serif" font-size="14" lengthAdjust="spacing" textLength="135" x="1726" y="954.2832">MeetingALRepository</text><path d="M1778.5,967.3594 C1778.5,957.3594 1796.5,957.3594 1796.5,957.3594 C1796.5,957.3594 1814.5,957.3594 1814.5,967.3594 L1814.5,993.3594 C1814.5,1003.3594 1796.5,1003.3594 1796.5,1003.3594 C1796.5,1003.3594 1778.5,1003.3594 1778.5,993.3594 L1778.5,967.3594 " fill="#E2E2F0" style="stroke:#181818;stroke-width:1.5;"/><path d="M1778.5,967.3594 C1778.5,977.3594 1796.5,977.3594 1796.5,977.3594 C1796.5,977.3594 1814.5,977.3594 1814.5,967.3594 " fill="none" style="stroke:#181818;stroke-width:1.5;"/><rect fill="#FFFFFF" height="838.1406" style="stroke:#181818;stroke-width:1.0;" width="10" x="32.5" y="92.6094"/><rect fill="#FFFFFF" height="530.625" style="stroke:#181818;stroke-width:1.0;" width="10" x="423.5" y="114.9609"/><rect fill="#FFFFFF" height="254.8125" style="stroke:#181818;stroke-width:1.0;" width="10" x="423.5" y="675.9375"/><rect fill="#FFFFFF" height="182.1094" style="stroke:#181818;stroke-width:1.0;" width="10" x="641.5" y="145.3125"/><rect fill="#FFFFFF" height="257.4609" style="stroke:#181818;stroke-width:1.0;" width="10" x="641.5" y="357.7734"/><rect fill="#FFFFFF" height="121.4063" style="stroke:#181818;stroke-width:1.0;" width="10" x="641.5" y="706.2891"/><rect fill="#FFFFFF" height="30.3516" style="stroke:#181818;stroke-width:1.0;" width="10" x="823" y="175.6641"/><rect fill="#FFFFFF" height="121.4063" style="stroke:#181818;stroke-width:1.0;" width="10" x="974.5" y="206.0156"/><rect fill="#FFFFFF" height="60.7031" style="stroke:#181818;stroke-width:1.0;" width="10" x="1146.5" y="236.3672"/><rect fill="#FFFFFF" height="196.7578" style="stroke:#181818;stroke-width:1.0;" width="10" x="1298.5" y="388.125"/><rect fill="#FFFFFF" height="60.7031" style="stroke:#181818;stroke-width:1.0;" width="10" x="1491.5" y="736.6406"/><rect fill="#FFFFFF" height="30.3516" style="stroke:#181818;stroke-width:1.0;" width="10" x="1649" y="266.7188"/><rect fill="#FFFFFF" height="36.3516" style="stroke:#181818;stroke-width:1.0;" width="10" x="1649" y="504.1797"/><rect fill="#FFFFFF" height="30.3516" style="stroke:#181818;stroke-width:1.0;" width="10" x="1791.5" y="297.0703"/><rect fill="#FFFFFF" height="30" style="stroke:#181818;stroke-width:1.0;" width="10" x="1791.5" y="418.4766"/><rect fill="#FFFFFF" height="30.3516" style="stroke:#181818;stroke-width:1.0;" width="10" x="1791.5" y="766.9922"/><polygon fill="#181818" points="411.5,110.9609,421.5,114.9609,411.5,118.9609,415.5,114.9609" style="stroke:#181818;stroke-width:1.0;"/><line style="stroke:#181818;stroke-width:1.0;" x1="42.5" x2="417.5" y1="114.9609" y2="114.9609"/><text fill="#000000" font-family="sans-serif" font-size="13" font-weight="bold" lengthAdjust="spacing" textLength="7" x="49.5" y="110.1045">1</text><text fill="#000000" font-family="sans-serif" font-size="13" lengthAdjust="spacing" textLength="311" x="60.5" y="110.1045">want to see the status of the participants of a meeting</text><polygon fill="#181818" points="629.5,141.3125,639.5,145.3125,629.5,149.3125,633.5,145.3125" style="stroke:#181818;stroke-width:1.0;"/><line style="stroke:#181818;stroke-width:1.0;" x1="433.5" x2="635.5" y1="145.3125" y2="145.3125"/><text fill="#000000" font-family="sans-serif" font-size="13" font-weight="bold" lengthAdjust="spacing" textLength="7" x="440.5" y="140.4561">2</text><text fill="#000000" font-family="sans-serif" font-size="13" lengthAdjust="spacing" textLength="178" x="451.5" y="140.4561">MeetingParticipantsController()</text><polygon fill="#181818" points="811,171.6641,821,175.6641,811,179.6641,815,175.6641" style="stroke:#181818;stroke-width:1.0;"/><line style="stroke:#181818;stroke-width:1.0;" x1="651.5" x2="817" y1="175.6641" y2="175.6641"/><text fill="#000000" font-family="sans-serif" font-size="13" font-weight="bold" lengthAdjust="spacing" textLength="7" x="658.5" y="170.8076">3</text><text fill="#000000" font-family="sans-serif" font-size="13" lengthAdjust="spacing" textLength="75" x="669.5" y="170.8076">userService()</text><polygon fill="#181818" points="962.5,202.0156,972.5,206.0156,962.5,210.0156,966.5,206.0156" style="stroke:#181818;stroke-width:1.0;"/><line style="stroke:#181818;stroke-width:1.0;" x1="651.5" x2="968.5" y1="206.0156" y2="206.0156"/><text fill="#000000" font-family="sans-serif" font-size="13" font-weight="bold" lengthAdjust="spacing" textLength="7" x="658.5" y="201.1592">4</text><text fill="#000000" font-family="sans-serif" font-size="13" lengthAdjust="spacing" textLength="75" x="669.5" y="201.1592">repositories()</text><polygon fill="#181818" points="1134.5,232.3672,1144.5,236.3672,1134.5,240.3672,1138.5,236.3672" style="stroke:#181818;stroke-width:1.0;"/><line style="stroke:#181818;stroke-width:1.0;" x1="984.5" x2="1140.5" y1="236.3672" y2="236.3672"/><text fill="#000000" font-family="sans-serif" font-size="13" font-weight="bold" lengthAdjust="spacing" textLength="7" x="991.5" y="231.5107">5</text><text fill="#000000" font-family="sans-serif" font-size="13" lengthAdjust="spacing" textLength="132" x="1002.5" y="231.5107">getRepositoryFactory()</text><polygon fill="#181818" points="1637,262.7188,1647,266.7188,1637,270.7188,1641,266.7188" style="stroke:#181818;stroke-width:1.0;"/><line style="stroke:#181818;stroke-width:1.0;" x1="1156.5" x2="1643" y1="266.7188" y2="266.7188"/><text fill="#000000" font-family="sans-serif" font-size="13" font-weight="bold" lengthAdjust="spacing" textLength="7" x="1163.5" y="261.8623">6</text><text fill="#000000" font-family="sans-serif" font-size="13" lengthAdjust="spacing" textLength="116" x="1174.5" y="261.8623">meetingRepository()</text><polygon fill="#181818" points="1779.5,293.0703,1789.5,297.0703,1779.5,301.0703,1783.5,297.0703" style="stroke:#181818;stroke-width:1.0;"/><line style="stroke:#181818;stroke-width:1.0;" x1="1151.5" x2="1785.5" y1="297.0703" y2="297.0703"/><text fill="#000000" font-family="sans-serif" font-size="13" font-weight="bold" lengthAdjust="spacing" textLength="7" x="1158.5" y="292.2139">7</text><text fill="#000000" font-family="sans-serif" font-size="13" lengthAdjust="spacing" textLength="128" x="1169.5" y="292.2139">meetingAlRepository()</text><polygon fill="#181818" points="657.5,323.4219,647.5,327.4219,657.5,331.4219,653.5,327.4219" style="stroke:#181818;stroke-width:1.0;"/><line style="stroke:#181818;stroke-width:1.0;stroke-dasharray:2.0,2.0;" x1="651.5" x2="978.5" y1="327.4219" y2="327.4219"/><text fill="#000000" font-family="sans-serif" font-size="13" font-weight="bold" lengthAdjust="spacing" textLength="7" x="663.5" y="322.5654">8</text><text fill="#000000" font-family="sans-serif" font-size="13" lengthAdjust="spacing" textLength="39" x="674.5" y="322.5654">factory</text><polygon fill="#181818" points="629.5,353.7734,639.5,357.7734,629.5,361.7734,633.5,357.7734" style="stroke:#181818;stroke-width:1.0;"/><line style="stroke:#181818;stroke-width:1.0;" x1="433.5" x2="635.5" y1="357.7734" y2="357.7734"/><text fill="#000000" font-family="sans-serif" font-size="13" font-weight="bold" lengthAdjust="spacing" textLength="7" x="440.5" y="352.917">9</text><text fill="#000000" font-family="sans-serif" font-size="13" lengthAdjust="spacing" textLength="86" x="451.5" y="352.917">userMeetings()</text><polygon fill="#181818" points="1286.5,384.125,1296.5,388.125,1286.5,392.125,1290.5,388.125" style="stroke:#181818;stroke-width:1.0;"/><line style="stroke:#181818;stroke-width:1.0;" x1="651.5" x2="1292.5" y1="388.125" y2="388.125"/><text fill="#000000" font-family="sans-serif" font-size="13" font-weight="bold" lengthAdjust="spacing" textLength="14" x="658.5" y="383.2686">10</text><text fill="#000000" font-family="sans-serif" font-size="13" lengthAdjust="spacing" textLength="197" x="676.5" y="383.2686">allUserMeetings(String userEmail)</text><polygon fill="#181818" points="1779.5,414.4766,1789.5,418.4766,1779.5,422.4766,1783.5,418.4766" style="stroke:#181818;stroke-width:1.0;"/><line style="stroke:#181818;stroke-width:1.0;" x1="1308.5" x2="1785.5" y1="418.4766" y2="418.4766"/><text fill="#000000" font-family="sans-serif" font-size="13" font-weight="bold" lengthAdjust="spacing" textLength="14" x="1315.5" y="413.6201">11</text><text fill="#000000" font-family="sans-serif" font-size="13" lengthAdjust="spacing" textLength="73" x="1333.5" y="413.6201">list = query()</text><path d="M1216.5,463.4766 L1289.5,463.4766 L1289.5,471.8281 L1279.5,481.8281 L1216.5,481.8281 L1216.5,463.4766 " fill="#EEEEEE" style="stroke:#000000;stroke-width:1.5;"/><rect fill="none" height="92.0547" style="stroke:#000000;stroke-width:1.5;" width="509.5" x="1216.5" y="463.4766"/><text fill="#000000" font-family="sans-serif" font-size="13" font-weight="bold" lengthAdjust="spacing" textLength="28" x="1231.5" y="477.9717">loop</text><text fill="#000000" font-family="sans-serif" font-size="11" font-weight="bold" lengthAdjust="spacing" textLength="75" x="1304.5" y="476.8955">[foreach(list)]</text><polygon fill="#181818" points="1637,500.1797,1647,504.1797,1637,508.1797,1641,504.1797" style="stroke:#181818;stroke-width:1.0;"/><line style="stroke:#181818;stroke-width:1.0;" x1="1308.5" x2="1643" y1="504.1797" y2="504.1797"/><text fill="#000000" font-family="sans-serif" font-size="13" font-weight="bold" lengthAdjust="spacing" textLength="14" x="1315.5" y="499.3232">12</text><text fill="#000000" font-family="sans-serif" font-size="13" lengthAdjust="spacing" textLength="98" x="1333.5" y="499.3232">tempList = query</text><line style="stroke:#181818;stroke-width:1.0;" x1="1308.5" x2="1350.5" y1="539.5313" y2="539.5313"/><line style="stroke:#181818;stroke-width:1.0;" x1="1350.5" x2="1350.5" y1="539.5313" y2="552.5313"/><line style="stroke:#181818;stroke-width:1.0;" x1="1303.5" x2="1350.5" y1="552.5313" y2="552.5313"/><polygon fill="#181818" points="1313.5,548.5313,1303.5,552.5313,1313.5,556.5313,1309.5,552.5313" style="stroke:#181818;stroke-width:1.0;"/><text fill="#000000" font-family="sans-serif" font-size="13" font-weight="bold" lengthAdjust="spacing" textLength="14" x="1315.5" y="534.6748">13</text><text fill="#000000" font-family="sans-serif" font-size="13" lengthAdjust="spacing" textLength="151" x="1333.5" y="534.6748">resultList.addAll(tempList)</text><polygon fill="#181818" points="662.5,580.8828,652.5,584.8828,662.5,588.8828,658.5,584.8828" style="stroke:#181818;stroke-width:1.0;"/><line style="stroke:#181818;stroke-width:1.0;stroke-dasharray:2.0,2.0;" x1="656.5" x2="1302.5" y1="584.8828" y2="584.8828"/><text fill="#000000" font-family="sans-serif" font-size="13" font-weight="bold" lengthAdjust="spacing" textLength="14" x="668.5" y="580.0264">14</text><text fill="#000000" font-family="sans-serif" font-size="13" lengthAdjust="spacing" textLength="61" x="686.5" y="580.0264">returns list</text><polygon fill="#181818" points="444.5,611.2344,434.5,615.2344,444.5,619.2344,440.5,615.2344" style="stroke:#181818;stroke-width:1.0;"/><line style="stroke:#181818;stroke-width:1.0;stroke-dasharray:2.0,2.0;" x1="438.5" x2="645.5" y1="615.2344" y2="615.2344"/><text fill="#000000" font-family="sans-serif" font-size="13" font-weight="bold" lengthAdjust="spacing" textLength="14" x="450.5" y="610.3779">15</text><text fill="#000000" font-family="sans-serif" font-size="13" lengthAdjust="spacing" textLength="61" x="468.5" y="610.3779">returns list</text><polygon fill="#181818" points="53.5,641.5859,43.5,645.5859,53.5,649.5859,49.5,645.5859" style="stroke:#181818;stroke-width:1.0;"/><line style="stroke:#181818;stroke-width:1.0;stroke-dasharray:2.0,2.0;" x1="47.5" x2="427.5" y1="645.5859" y2="645.5859"/><text fill="#000000" font-family="sans-serif" font-size="13" font-weight="bold" lengthAdjust="spacing" textLength="14" x="59.5" y="640.7295">16</text><text fill="#000000" font-family="sans-serif" font-size="13" lengthAdjust="spacing" textLength="339" x="77.5" y="640.7295">asks user from what meeting he wants to see users status</text><polygon fill="#181818" points="411.5,671.9375,421.5,675.9375,411.5,679.9375,415.5,675.9375" style="stroke:#181818;stroke-width:1.0;"/><line style="stroke:#181818;stroke-width:1.0;" x1="42.5" x2="417.5" y1="675.9375" y2="675.9375"/><text fill="#000000" font-family="sans-serif" font-size="13" font-weight="bold" lengthAdjust="spacing" textLength="14" x="49.5" y="671.0811">17</text><text fill="#000000" font-family="sans-serif" font-size="13" lengthAdjust="spacing" textLength="99" x="67.5" y="671.0811">chooses meeting</text><polygon fill="#181818" points="629.5,702.2891,639.5,706.2891,629.5,710.2891,633.5,706.2891" style="stroke:#181818;stroke-width:1.0;"/><line style="stroke:#181818;stroke-width:1.0;" x1="433.5" x2="635.5" y1="706.2891" y2="706.2891"/><text fill="#000000" font-family="sans-serif" font-size="13" font-weight="bold" lengthAdjust="spacing" textLength="14" x="440.5" y="701.4326">18</text><text fill="#000000" font-family="sans-serif" font-size="13" lengthAdjust="spacing" textLength="169" x="458.5" y="701.4326">meetingParticipants(Meeting)</text><polygon fill="#181818" points="1479.5,732.6406,1489.5,736.6406,1479.5,740.6406,1483.5,736.6406" style="stroke:#181818;stroke-width:1.0;"/><line style="stroke:#181818;stroke-width:1.0;" x1="651.5" x2="1485.5" y1="736.6406" y2="736.6406"/><text fill="#000000" font-family="sans-serif" font-size="13" font-weight="bold" lengthAdjust="spacing" textLength="14" x="658.5" y="731.7842">19</text><text fill="#000000" font-family="sans-serif" font-size="13" lengthAdjust="spacing" textLength="117" x="676.5" y="731.7842">usersState(Meeting)</text><polygon fill="#181818" points="1779.5,762.9922,1789.5,766.9922,1779.5,770.9922,1783.5,766.9922" style="stroke:#181818;stroke-width:1.0;"/><line style="stroke:#181818;stroke-width:1.0;" x1="1501.5" x2="1785.5" y1="766.9922" y2="766.9922"/><text fill="#000000" font-family="sans-serif" font-size="13" font-weight="bold" lengthAdjust="spacing" textLength="14" x="1508.5" y="762.1357">20</text><text fill="#000000" font-family="sans-serif" font-size="13" lengthAdjust="spacing" textLength="73" x="1526.5" y="762.1357">list = query()</text><polygon fill="#181818" points="662.5,793.3438,652.5,797.3438,662.5,801.3438,658.5,797.3438" style="stroke:#181818;stroke-width:1.0;"/><line style="stroke:#181818;stroke-width:1.0;" x1="656.5" x2="1495.5" y1="797.3438" y2="797.3438"/><text fill="#000000" font-family="sans-serif" font-size="13" font-weight="bold" lengthAdjust="spacing" textLength="14" x="668.5" y="792.4873">21</text><text fill="#000000" font-family="sans-serif" font-size="13" lengthAdjust="spacing" textLength="61" x="686.5" y="792.4873">returns list</text><polygon fill="#181818" points="444.5,823.6953,434.5,827.6953,444.5,831.6953,440.5,827.6953" style="stroke:#181818;stroke-width:1.0;"/><line style="stroke:#181818;stroke-width:1.0;" x1="438.5" x2="645.5" y1="827.6953" y2="827.6953"/><text fill="#000000" font-family="sans-serif" font-size="13" font-weight="bold" lengthAdjust="spacing" textLength="14" x="450.5" y="822.8389">22</text><text fill="#000000" font-family="sans-serif" font-size="13" lengthAdjust="spacing" textLength="61" x="468.5" y="822.8389">returns list</text><path d="M10,842.6953 L71,842.6953 L71,851.0469 L61,861.0469 L10,861.0469 L10,842.6953 " fill="#EEEEEE" style="stroke:#000000;stroke-width:1.5;"/><rect fill="none" height="81.0547" style="stroke:#000000;stroke-width:1.5;" width="523.5" x="10" y="842.6953"/><text fill="#000000" font-family="sans-serif" font-size="13" font-weight="bold" lengthAdjust="spacing" textLength="16" x="25" y="857.1904">alt</text><text fill="#000000" font-family="sans-serif" font-size="11" font-weight="bold" lengthAdjust="spacing" textLength="118" x="86" y="856.1143">[exception is thrown]</text><polygon fill="#181818" points="53.5,879.3984,43.5,883.3984,53.5,887.3984,49.5,883.3984" style="stroke:#181818;stroke-width:1.0;"/><line style="stroke:#181818;stroke-width:1.0;stroke-dasharray:2.0,2.0;" x1="47.5" x2="422.5" y1="883.3984" y2="883.3984"/><text fill="#000000" font-family="sans-serif" font-size="13" font-weight="bold" lengthAdjust="spacing" textLength="14" x="59.5" y="878.542">23</text><text fill="#000000" font-family="sans-serif" font-size="13" lengthAdjust="spacing" textLength="195" x="77.5" y="878.542">Informs that an error has occurred</text><line style="stroke:#000000;stroke-width:1.0;stroke-dasharray:2.0,2.0;" x1="10" x2="533.5" y1="892.3984" y2="892.3984"/><polygon fill="#181818" points="53.5,911.75,43.5,915.75,53.5,919.75,49.5,915.75" style="stroke:#181818;stroke-width:1.0;"/><line style="stroke:#181818;stroke-width:1.0;stroke-dasharray:2.0,2.0;" x1="47.5" x2="422.5" y1="915.75" y2="915.75"/><text fill="#000000" font-family="sans-serif" font-size="13" font-weight="bold" lengthAdjust="spacing" textLength="14" x="59.5" y="910.8936">24</text><text fill="#000000" font-family="sans-serif" font-size="13" lengthAdjust="spacing" textLength="237" x="77.5" y="910.8936">Shows participants and respective status</text><!--SRC=[bPN1Zjem48RlUOeH9_RGFW1IAqMeIAn0YaXv06yoRA8wTcexoswVlZEEapX4B5ekuEIRyVZ_Puped5PTyu8c4ONJ1bPdYsO5mi8vQOLnTL6tGZbOvKwupcRJ8tj4TBLwFUzxV3_dmziuOAkLCrhAiC7szs4UadQkqgR-9rojLOxchIxGasa-1pCqjhOELO70IV7TUIxRphaJjjhMTAoFdJ_TXwTEkpdrt8fGxCHxy3bBZ_VGzB24qqDI2YTUXCNn_3VKyPJbIsYHx4XF26HFwZVXaCmumxUV939iuCgbE0qM4Lo5OBqpe2z-5TNhdmbe-asYPFk44b4wSe3oVUhK-ccAOyCuX2BJd08xQfLWKuoHMu7Ajh0nmybgj4IL67FZRtAEO0evxM3pYcxXNBm16KWOmQmcrT7SIXt3Nl60UrMdW5JEGgBIVD2qwjs8tbC5NEueuQKlSfPY4SJotUuHhKc2-GwnHonryCdUiOIxbKWXvJc6SsVesoVurOXQHi6-ltrOB8waoO8VyBV36o7x0qcjMxXeGwLMQsQV4g3FykJyT4pUftROj8SelMVcWiHHuKG6RISTntqNPPbAkHxoBBVc5AZAXSvzob5EWwupolgpngnNnEiv3DizaeLdWvXZrUqVwpM6Yz4DN2lXXYu36ighdyOmiupPCBLnIXhB91hpejBQedquliroVDV1_RkDaWuzPVbQnucVDGVTPptxXVOO0nuAdHu-7nVlMoZveHM9a0xmlS2M_pkW9h4hew_ADqZaqrvHwpRybWmI2j0O-jEhwChLHT4PWsM2qk9jM5xfgvrVhKALt9ajSXd39SozHnFeRcoDL_y1]--></g></svg>