<?xml version="1.0" encoding="us-ascii" standalone="no"?><svg xmlns="http://www.w3.org/2000/svg" xmlns:xlink="http://www.w3.org/1999/xlink" contentStyleType="text/css" height="1520px" preserveAspectRatio="none" style="width:916px;height:1520px;background:#FFFFFF;" version="1.1" viewBox="0 0 916 1520" width="916px" zoomAndPan="magnify"><defs/><g><!--class User--><g id="elem_User"><rect codeLine="1" fill="#F1F1F1" height="48" id="User" rx="2.5" ry="2.5" style="stroke:#181818;stroke-width:0.5;" width="61" x="495" y="7"/><ellipse cx="510" cy="23" fill="#ADD1B2" rx="11" ry="11" style="stroke:#181818;stroke-width:1.0;"/><path d="M512,19.5 Q512.2031,19 512.4375,18.75 Q512.6719,18.5 512.9375,18.5 Q513.4063,18.5 513.7031,18.7813 Q514,19.0625 514,19.7188 L514,21.2813 Q514,21.9375 513.7188,22.2188 Q513.4375,22.5 513,22.5 Q512.6094,22.5 512.3594,22.3281 Q512.1094,22.1563 512,21.7031 Q511.9531,21.3906 511.7813,21.2188 Q511.4688,20.8906 510.9063,20.7031 Q510.3438,20.5 509.7813,20.5 Q509.0781,20.5 508.4844,20.7813 Q507.9063,21.0625 507.4531,21.6875 Q507,22.3125 507,23.1719 L507,24.0938 Q507,25.125 507.8438,25.8125 Q508.6875,26.5 510.1875,26.5 Q511.0781,26.5 511.7031,26.2969 Q512.0625,26.1875 512.4688,25.8281 Q512.7344,25.625 512.875,25.5625 Q513.0156,25.5 513.1875,25.5 Q513.5156,25.5 513.75,25.7656 Q514,26.0156 514,26.375 Q514,26.7188 513.6563,27.125 Q513.1563,27.7188 512.3594,28.0469 Q511.3125,28.5 510.0313,28.5 Q508.5313,28.5 507.3281,27.9063 Q506.3594,27.4375 505.6719,26.4219 Q505,25.4063 505,24.2031 L505,23.1094 Q505,21.8594 505.5938,20.7656 Q506.2031,19.6719 507.25,19.0938 Q508.3125,18.5 509.5,18.5 Q510.2188,18.5 510.8438,18.75 Q511.4688,19 512,19.5 Z " fill="#000000"/><text fill="#000000" font-family="sans-serif" font-size="14" lengthAdjust="spacing" textLength="29" x="524" y="28.7285">User</text><line style="stroke:#181818;stroke-width:0.5;" x1="496" x2="555" y1="39" y2="39"/><line style="stroke:#181818;stroke-width:0.5;" x1="496" x2="555" y1="47" y2="47"/></g><!--class MeetingRepository--><g id="elem_MeetingRepository"><rect codeLine="4" fill="#F1F1F1" height="118.4375" id="MeetingRepository" rx="2.5" ry="2.5" style="stroke:#181818;stroke-width:0.5;" width="310" x="201.5" y="712"/><ellipse cx="293.25" cy="728" fill="#ADD1B2" rx="11" ry="11" style="stroke:#181818;stroke-width:1.0;"/><path d="M295.25,724.5 Q295.4531,724 295.6875,723.75 Q295.9219,723.5 296.1875,723.5 Q296.6563,723.5 296.9531,723.7813 Q297.25,724.0625 297.25,724.7188 L297.25,726.2813 Q297.25,726.9375 296.9688,727.2188 Q296.6875,727.5 296.25,727.5 Q295.8594,727.5 295.6094,727.3281 Q295.3594,727.1563 295.25,726.7031 Q295.2031,726.3906 295.0313,726.2188 Q294.7188,725.8906 294.1563,725.7031 Q293.5938,725.5 293.0313,725.5 Q292.3281,725.5 291.7344,725.7813 Q291.1563,726.0625 290.7031,726.6875 Q290.25,727.3125 290.25,728.1719 L290.25,729.0938 Q290.25,730.125 291.0938,730.8125 Q291.9375,731.5 293.4375,731.5 Q294.3281,731.5 294.9531,731.2969 Q295.3125,731.1875 295.7188,730.8281 Q295.9844,730.625 296.125,730.5625 Q296.2656,730.5 296.4375,730.5 Q296.7656,730.5 297,730.7656 Q297.25,731.0156 297.25,731.375 Q297.25,731.7188 296.9063,732.125 Q296.4063,732.7188 295.6094,733.0469 Q294.5625,733.5 293.2813,733.5 Q291.7813,733.5 290.5781,732.9063 Q289.6094,732.4375 288.9219,731.4219 Q288.25,730.4063 288.25,729.2031 L288.25,728.1094 Q288.25,726.8594 288.8438,725.7656 Q289.4531,724.6719 290.5,724.0938 Q291.5625,723.5 292.75,723.5 Q293.4688,723.5 294.0938,723.75 Q294.7188,724 295.25,724.5 Z " fill="#000000"/><text fill="#000000" font-family="sans-serif" font-size="14" lengthAdjust="spacing" textLength="118" x="313.75" y="733.7285">MeetingRepository</text><line style="stroke:#181818;stroke-width:0.5;" x1="202.5" x2="510.5" y1="744" y2="744"/><line style="stroke:#181818;stroke-width:0.5;" x1="202.5" x2="510.5" y1="752" y2="752"/><ellipse cx="212.5" cy="766.3047" fill="#84BE84" rx="3" ry="3" style="stroke:#038048;stroke-width:1.0;"/><text fill="#000000" font-family="sans-serif" font-size="14" lengthAdjust="spacing" textLength="108" x="221.5" y="770.5332">findMaxId() : long</text><ellipse cx="212.5" cy="783.9141" fill="#84BE84" rx="3" ry="3" style="stroke:#038048;stroke-width:1.0;"/><text fill="#000000" font-family="sans-serif" font-size="14" lengthAdjust="spacing" textLength="212" x="221.5" y="788.1426">cancelMeeting(long idMeet) : void</text><ellipse cx="212.5" cy="801.5234" fill="#84BE84" rx="3" ry="3" style="stroke:#038048;stroke-width:1.0;"/><text fill="#000000" font-family="sans-serif" font-size="14" lengthAdjust="spacing" textLength="269" x="221.5" y="805.752">userMeetings(String email) : List&lt;Meeting&gt;</text><ellipse cx="212.5" cy="819.1328" fill="#84BE84" rx="3" ry="3" style="stroke:#038048;stroke-width:1.0;"/><text fill="#000000" font-family="sans-serif" font-size="14" lengthAdjust="spacing" textLength="284" x="221.5" y="823.3613">allUserMeetings(String email) : List&lt;Meeting&gt;</text></g><!--class MeetingALRepository--><g id="elem_MeetingALRepository"><rect codeLine="11" fill="#F1F1F1" height="118.4375" id="MeetingALRepository" rx="2.5" ry="2.5" style="stroke:#181818;stroke-width:0.5;" width="457" x="452" y="472"/><ellipse cx="608.75" cy="488" fill="#ADD1B2" rx="11" ry="11" style="stroke:#181818;stroke-width:1.0;"/><path d="M610.75,484.5 Q610.9531,484 611.1875,483.75 Q611.4219,483.5 611.6875,483.5 Q612.1563,483.5 612.4531,483.7813 Q612.75,484.0625 612.75,484.7188 L612.75,486.2813 Q612.75,486.9375 612.4688,487.2188 Q612.1875,487.5 611.75,487.5 Q611.3594,487.5 611.1094,487.3281 Q610.8594,487.1563 610.75,486.7031 Q610.7031,486.3906 610.5313,486.2188 Q610.2188,485.8906 609.6563,485.7031 Q609.0938,485.5 608.5313,485.5 Q607.8281,485.5 607.2344,485.7813 Q606.6563,486.0625 606.2031,486.6875 Q605.75,487.3125 605.75,488.1719 L605.75,489.0938 Q605.75,490.125 606.5938,490.8125 Q607.4375,491.5 608.9375,491.5 Q609.8281,491.5 610.4531,491.2969 Q610.8125,491.1875 611.2188,490.8281 Q611.4844,490.625 611.625,490.5625 Q611.7656,490.5 611.9375,490.5 Q612.2656,490.5 612.5,490.7656 Q612.75,491.0156 612.75,491.375 Q612.75,491.7188 612.4063,492.125 Q611.9063,492.7188 611.1094,493.0469 Q610.0625,493.5 608.7813,493.5 Q607.2813,493.5 606.0781,492.9063 Q605.1094,492.4375 604.4219,491.4219 Q603.75,490.4063 603.75,489.2031 L603.75,488.1094 Q603.75,486.8594 604.3438,485.7656 Q604.9531,484.6719 606,484.0938 Q607.0625,483.5 608.25,483.5 Q608.9688,483.5 609.5938,483.75 Q610.2188,484 610.75,484.5 Z " fill="#000000"/><text fill="#000000" font-family="sans-serif" font-size="14" lengthAdjust="spacing" textLength="135" x="629.25" y="493.7285">MeetingALRepository</text><line style="stroke:#181818;stroke-width:0.5;" x1="453" x2="908" y1="504" y2="504"/><line style="stroke:#181818;stroke-width:0.5;" x1="453" x2="908" y1="512" y2="512"/><ellipse cx="463" cy="526.3047" fill="#84BE84" rx="3" ry="3" style="stroke:#038048;stroke-width:1.0;"/><text fill="#000000" font-family="sans-serif" font-size="14" lengthAdjust="spacing" textLength="431" x="472" y="530.5332">verifyAndNotify(List&lt;SystemUser&gt; users, Meeting meeting) : boolean</text><ellipse cx="463" cy="543.9141" fill="#84BE84" rx="3" ry="3" style="stroke:#038048;stroke-width:1.0;"/><text fill="#000000" font-family="sans-serif" font-size="14" lengthAdjust="spacing" textLength="316" x="472" y="548.1426">alterStateA(SystemUser user) : MeetingAccessList</text><ellipse cx="463" cy="561.5234" fill="#84BE84" rx="3" ry="3" style="stroke:#038048;stroke-width:1.0;"/><text fill="#000000" font-family="sans-serif" font-size="14" lengthAdjust="spacing" textLength="317" x="472" y="565.752">alterStateD(SystemUser user) : MeetingAccessList</text><ellipse cx="463" cy="579.1328" fill="#84BE84" rx="3" ry="3" style="stroke:#038048;stroke-width:1.0;"/><text fill="#000000" font-family="sans-serif" font-size="14" lengthAdjust="spacing" textLength="330" x="472" y="583.3613">usersState(Meeting meet) : List&lt;MeetingAccessList&gt;</text></g><!--class StatusParticipantsUI--><g id="elem_StatusParticipantsUI"><rect codeLine="18" fill="#F1F1F1" height="100.8281" id="StatusParticipantsUI" rx="2.5" ry="2.5" style="stroke:#181818;stroke-width:0.5;" width="245" x="403" y="115"/><ellipse cx="458.25" cy="131" fill="#ADD1B2" rx="11" ry="11" style="stroke:#181818;stroke-width:1.0;"/><path d="M460.25,127.5 Q460.4531,127 460.6875,126.75 Q460.9219,126.5 461.1875,126.5 Q461.6563,126.5 461.9531,126.7813 Q462.25,127.0625 462.25,127.7188 L462.25,129.2813 Q462.25,129.9375 461.9688,130.2188 Q461.6875,130.5 461.25,130.5 Q460.8594,130.5 460.6094,130.3281 Q460.3594,130.1563 460.25,129.7031 Q460.2031,129.3906 460.0313,129.2188 Q459.7188,128.8906 459.1563,128.7031 Q458.5938,128.5 458.0313,128.5 Q457.3281,128.5 456.7344,128.7813 Q456.1563,129.0625 455.7031,129.6875 Q455.25,130.3125 455.25,131.1719 L455.25,132.0938 Q455.25,133.125 456.0938,133.8125 Q456.9375,134.5 458.4375,134.5 Q459.3281,134.5 459.9531,134.2969 Q460.3125,134.1875 460.7188,133.8281 Q460.9844,133.625 461.125,133.5625 Q461.2656,133.5 461.4375,133.5 Q461.7656,133.5 462,133.7656 Q462.25,134.0156 462.25,134.375 Q462.25,134.7188 461.9063,135.125 Q461.4063,135.7188 460.6094,136.0469 Q459.5625,136.5 458.2813,136.5 Q456.7813,136.5 455.5781,135.9063 Q454.6094,135.4375 453.9219,134.4219 Q453.25,133.4063 453.25,132.2031 L453.25,131.1094 Q453.25,129.8594 453.8438,128.7656 Q454.4531,127.6719 455.5,127.0938 Q456.5625,126.5 457.75,126.5 Q458.4688,126.5 459.0938,126.75 Q459.7188,127 460.25,127.5 Z " fill="#000000"/><text fill="#000000" font-family="sans-serif" font-size="14" lengthAdjust="spacing" textLength="126" x="478.75" y="136.7285">StatusParticipantsUI</text><line style="stroke:#181818;stroke-width:0.5;" x1="404" x2="647" y1="147" y2="147"/><rect fill="none" height="6" style="stroke:#C82930;stroke-width:1.0;" width="6" x="411" y="158.3047"/><text fill="#000000" font-family="sans-serif" font-size="14" lengthAdjust="spacing" textLength="219" x="423" y="165.5332">CancelMeetingController controller</text><line style="stroke:#181818;stroke-width:0.5;" x1="404" x2="647" y1="172.6094" y2="172.6094"/><ellipse cx="414" cy="186.9141" fill="#84BE84" rx="3" ry="3" style="stroke:#038048;stroke-width:1.0;"/><text fill="#000000" font-family="sans-serif" font-size="14" lengthAdjust="spacing" textLength="123" x="423" y="191.1426">doShow() : boolean</text><ellipse cx="414" cy="204.5234" fill="#84BE84" rx="3" ry="3" style="stroke:#038048;stroke-width:1.0;"/><text fill="#000000" font-family="sans-serif" font-size="14" lengthAdjust="spacing" textLength="113" x="423" y="208.752">headline() : String</text></g><!--class MeetingParticipantsController--><g id="elem_MeetingParticipantsController"><rect codeLine="24" fill="#F1F1F1" height="136.0469" id="MeetingParticipantsController" rx="2.5" ry="2.5" style="stroke:#181818;stroke-width:0.5;" width="412" x="319.5" y="276"/><ellipse cx="428.25" cy="292" fill="#ADD1B2" rx="11" ry="11" style="stroke:#181818;stroke-width:1.0;"/><path d="M430.25,288.5 Q430.4531,288 430.6875,287.75 Q430.9219,287.5 431.1875,287.5 Q431.6563,287.5 431.9531,287.7813 Q432.25,288.0625 432.25,288.7188 L432.25,290.2813 Q432.25,290.9375 431.9688,291.2188 Q431.6875,291.5 431.25,291.5 Q430.8594,291.5 430.6094,291.3281 Q430.3594,291.1563 430.25,290.7031 Q430.2031,290.3906 430.0313,290.2188 Q429.7188,289.8906 429.1563,289.7031 Q428.5938,289.5 428.0313,289.5 Q427.3281,289.5 426.7344,289.7813 Q426.1563,290.0625 425.7031,290.6875 Q425.25,291.3125 425.25,292.1719 L425.25,293.0938 Q425.25,294.125 426.0938,294.8125 Q426.9375,295.5 428.4375,295.5 Q429.3281,295.5 429.9531,295.2969 Q430.3125,295.1875 430.7188,294.8281 Q430.9844,294.625 431.125,294.5625 Q431.2656,294.5 431.4375,294.5 Q431.7656,294.5 432,294.7656 Q432.25,295.0156 432.25,295.375 Q432.25,295.7188 431.9063,296.125 Q431.4063,296.7188 430.6094,297.0469 Q429.5625,297.5 428.2813,297.5 Q426.7813,297.5 425.5781,296.9063 Q424.6094,296.4375 423.9219,295.4219 Q423.25,294.4063 423.25,293.2031 L423.25,292.1094 Q423.25,290.8594 423.8438,289.7656 Q424.4531,288.6719 425.5,288.0938 Q426.5625,287.5 427.75,287.5 Q428.4688,287.5 429.0938,287.75 Q429.7188,288 430.25,288.5 Z " fill="#000000"/><text fill="#000000" font-family="sans-serif" font-size="14" lengthAdjust="spacing" textLength="186" x="448.75" y="297.7285">MeetingParticipantsController</text><line style="stroke:#181818;stroke-width:0.5;" x1="320.5" x2="730.5" y1="308" y2="308"/><rect fill="none" height="6" style="stroke:#C82930;stroke-width:1.0;" width="6" x="327.5" y="319.3047"/><text fill="#000000" font-family="sans-serif" font-size="14" lengthAdjust="spacing" textLength="138" x="339.5" y="326.5332">MeetingRepository mr</text><rect fill="none" height="6" style="stroke:#C82930;stroke-width:1.0;" width="6" x="327.5" y="336.9141"/><text fill="#000000" font-family="sans-serif" font-size="14" lengthAdjust="spacing" textLength="166" x="339.5" y="344.1426">MeetingALRepository malr</text><rect fill="none" height="6" style="stroke:#C82930;stroke-width:1.0;" width="6" x="327.5" y="354.5234"/><text fill="#000000" font-family="sans-serif" font-size="14" lengthAdjust="spacing" textLength="261" x="339.5" y="361.752">AuthorizationService authorizationService</text><line style="stroke:#181818;stroke-width:0.5;" x1="320.5" x2="730.5" y1="368.8281" y2="368.8281"/><ellipse cx="330.5" cy="383.1328" fill="#84BE84" rx="3" ry="3" style="stroke:#038048;stroke-width:1.0;"/><text fill="#000000" font-family="sans-serif" font-size="14" lengthAdjust="spacing" textLength="195" x="339.5" y="387.3613">userMeetings() : List&lt;Meeting&gt;</text><ellipse cx="330.5" cy="400.7422" fill="#84BE84" rx="3" ry="3" style="stroke:#038048;stroke-width:1.0;"/><text fill="#000000" font-family="sans-serif" font-size="14" lengthAdjust="spacing" textLength="386" x="339.5" y="404.9707">meetingParticipants(Meeting meet) : List&lt;MeetingAccessList&gt;</text></g><!--class MeetingAccessList--><g id="elem_MeetingAccessList"><rect codeLine="32" fill="#F1F1F1" height="241.7031" id="MeetingAccessList" rx="2.5" ry="2.5" style="stroke:#181818;stroke-width:0.5;" width="295" x="547" y="650"/><ellipse cx="631.75" cy="666" fill="#ADD1B2" rx="11" ry="11" style="stroke:#181818;stroke-width:1.0;"/><path d="M633.75,662.5 Q633.9531,662 634.1875,661.75 Q634.4219,661.5 634.6875,661.5 Q635.1563,661.5 635.4531,661.7813 Q635.75,662.0625 635.75,662.7188 L635.75,664.2813 Q635.75,664.9375 635.4688,665.2188 Q635.1875,665.5 634.75,665.5 Q634.3594,665.5 634.1094,665.3281 Q633.8594,665.1563 633.75,664.7031 Q633.7031,664.3906 633.5313,664.2188 Q633.2188,663.8906 632.6563,663.7031 Q632.0938,663.5 631.5313,663.5 Q630.8281,663.5 630.2344,663.7813 Q629.6563,664.0625 629.2031,664.6875 Q628.75,665.3125 628.75,666.1719 L628.75,667.0938 Q628.75,668.125 629.5938,668.8125 Q630.4375,669.5 631.9375,669.5 Q632.8281,669.5 633.4531,669.2969 Q633.8125,669.1875 634.2188,668.8281 Q634.4844,668.625 634.625,668.5625 Q634.7656,668.5 634.9375,668.5 Q635.2656,668.5 635.5,668.7656 Q635.75,669.0156 635.75,669.375 Q635.75,669.7188 635.4063,670.125 Q634.9063,670.7188 634.1094,671.0469 Q633.0625,671.5 631.7813,671.5 Q630.2813,671.5 629.0781,670.9063 Q628.1094,670.4375 627.4219,669.4219 Q626.75,668.4063 626.75,667.2031 L626.75,666.1094 Q626.75,664.8594 627.3438,663.7656 Q627.9531,662.6719 629,662.0938 Q630.0625,661.5 631.25,661.5 Q631.9688,661.5 632.5938,661.75 Q633.2188,662 633.75,662.5 Z " fill="#000000"/><text fill="#000000" font-family="sans-serif" font-size="14" lengthAdjust="spacing" textLength="117" x="652.25" y="671.7285">MeetingAccessList</text><line style="stroke:#181818;stroke-width:0.5;" x1="548" x2="841" y1="682" y2="682"/><rect fill="none" height="6" style="stroke:#C82930;stroke-width:1.0;" width="6" x="555" y="693.3047"/><text fill="#000000" font-family="sans-serif" font-size="14" lengthAdjust="spacing" textLength="114" x="567" y="700.5332">Long idAccessList</text><rect fill="none" height="6" style="stroke:#C82930;stroke-width:1.0;" width="6" x="555" y="710.9141"/><text fill="#000000" font-family="sans-serif" font-size="14" lengthAdjust="spacing" textLength="107" x="567" y="718.1426">SystemUser user</text><rect fill="none" height="6" style="stroke:#C82930;stroke-width:1.0;" width="6" x="555" y="728.5234"/><text fill="#000000" font-family="sans-serif" font-size="14" lengthAdjust="spacing" textLength="136" x="567" y="735.752">InviteState inviteState</text><rect fill="none" height="6" style="stroke:#C82930;stroke-width:1.0;" width="6" x="555" y="746.1328"/><text fill="#000000" font-family="sans-serif" font-size="14" lengthAdjust="spacing" textLength="104" x="567" y="753.3613">Meeting meeting</text><line style="stroke:#181818;stroke-width:0.5;" x1="548" x2="841" y1="760.4375" y2="760.4375"/><ellipse cx="558" cy="774.7422" fill="#84BE84" rx="3" ry="3" style="stroke:#038048;stroke-width:1.0;"/><text fill="#000000" font-family="sans-serif" font-size="14" lengthAdjust="spacing" textLength="269" x="567" y="778.9707">setInviteState(InviteState inviteState) : void</text><ellipse cx="558" cy="792.3516" fill="#84BE84" rx="3" ry="3" style="stroke:#038048;stroke-width:1.0;"/><text fill="#000000" font-family="sans-serif" font-size="14" lengthAdjust="spacing" textLength="147" x="567" y="796.5801">getIdAccessList() : long</text><ellipse cx="558" cy="809.9609" fill="#84BE84" rx="3" ry="3" style="stroke:#038048;stroke-width:1.0;"/><text fill="#000000" font-family="sans-serif" font-size="14" lengthAdjust="spacing" textLength="146" x="567" y="814.1895">getUser() : SystemUser</text><ellipse cx="558" cy="827.5703" fill="#84BE84" rx="3" ry="3" style="stroke:#038048;stroke-width:1.0;"/><text fill="#000000" font-family="sans-serif" font-size="14" lengthAdjust="spacing" textLength="174" x="567" y="831.7988">getInviteState() : InviteState</text><ellipse cx="558" cy="845.1797" fill="#84BE84" rx="3" ry="3" style="stroke:#038048;stroke-width:1.0;"/><text fill="#000000" font-family="sans-serif" font-size="14" lengthAdjust="spacing" textLength="142" x="567" y="849.4082">getMeeting() : Meeting</text><ellipse cx="558" cy="862.7891" fill="#84BE84" rx="3" ry="3" style="stroke:#038048;stroke-width:1.0;"/><text fill="#000000" font-family="sans-serif" font-size="14" lengthAdjust="spacing" textLength="201" x="567" y="867.0176">sameAs(Object other) : boolean</text><ellipse cx="558" cy="880.3984" fill="#84BE84" rx="3" ry="3" style="stroke:#038048;stroke-width:1.0;"/><text fill="#000000" font-family="sans-serif" font-size="14" lengthAdjust="spacing" textLength="101" x="567" y="884.627">identity() : Code</text></g><!--class Meeting--><g id="elem_Meeting"><rect codeLine="46" fill="#F1F1F1" height="241.7031" id="Meeting" rx="2.5" ry="2.5" style="stroke:#181818;stroke-width:0.5;" width="227" x="262" y="952"/><ellipse cx="346.25" cy="968" fill="#ADD1B2" rx="11" ry="11" style="stroke:#181818;stroke-width:1.0;"/><path d="M348.25,964.5 Q348.4531,964 348.6875,963.75 Q348.9219,963.5 349.1875,963.5 Q349.6563,963.5 349.9531,963.7813 Q350.25,964.0625 350.25,964.7188 L350.25,966.2813 Q350.25,966.9375 349.9688,967.2188 Q349.6875,967.5 349.25,967.5 Q348.8594,967.5 348.6094,967.3281 Q348.3594,967.1563 348.25,966.7031 Q348.2031,966.3906 348.0313,966.2188 Q347.7188,965.8906 347.1563,965.7031 Q346.5938,965.5 346.0313,965.5 Q345.3281,965.5 344.7344,965.7813 Q344.1563,966.0625 343.7031,966.6875 Q343.25,967.3125 343.25,968.1719 L343.25,969.0938 Q343.25,970.125 344.0938,970.8125 Q344.9375,971.5 346.4375,971.5 Q347.3281,971.5 347.9531,971.2969 Q348.3125,971.1875 348.7188,970.8281 Q348.9844,970.625 349.125,970.5625 Q349.2656,970.5 349.4375,970.5 Q349.7656,970.5 350,970.7656 Q350.25,971.0156 350.25,971.375 Q350.25,971.7188 349.9063,972.125 Q349.4063,972.7188 348.6094,973.0469 Q347.5625,973.5 346.2813,973.5 Q344.7813,973.5 343.5781,972.9063 Q342.6094,972.4375 341.9219,971.4219 Q341.25,970.4063 341.25,969.2031 L341.25,968.1094 Q341.25,966.8594 341.8438,965.7656 Q342.4531,964.6719 343.5,964.0938 Q344.5625,963.5 345.75,963.5 Q346.4688,963.5 347.0938,963.75 Q347.7188,964 348.25,964.5 Z " fill="#000000"/><text fill="#000000" font-family="sans-serif" font-size="14" lengthAdjust="spacing" textLength="50" x="366.75" y="973.7285">Meeting</text><line style="stroke:#181818;stroke-width:0.5;" x1="263" x2="488" y1="984" y2="984"/><rect fill="none" height="6" style="stroke:#C82930;stroke-width:1.0;" width="6" x="270" y="995.3047"/><text fill="#000000" font-family="sans-serif" font-size="14" lengthAdjust="spacing" textLength="97" x="282" y="1002.5332">Long idMeeting</text><rect fill="none" height="6" style="stroke:#C82930;stroke-width:1.0;" width="6" x="270" y="1012.9141"/><text fill="#000000" font-family="sans-serif" font-size="14" lengthAdjust="spacing" textLength="110" x="282" y="1020.1426">Duration duration</text><rect fill="none" height="6" style="stroke:#C82930;stroke-width:1.0;" width="6" x="270" y="1030.5234"/><text fill="#000000" font-family="sans-serif" font-size="14" lengthAdjust="spacing" textLength="161" x="282" y="1037.752">TimeMeeting timeMeeting</text><rect fill="none" height="6" style="stroke:#C82930;stroke-width:1.0;" width="6" x="270" y="1048.1328"/><text fill="#000000" font-family="sans-serif" font-size="14" lengthAdjust="spacing" textLength="62" x="282" y="1055.3613">Date date</text><rect fill="none" height="6" style="stroke:#C82930;stroke-width:1.0;" width="6" x="270" y="1065.7422"/><text fill="#000000" font-family="sans-serif" font-size="14" lengthAdjust="spacing" textLength="124" x="282" y="1072.9707">SystemUser creator</text><line style="stroke:#181818;stroke-width:0.5;" x1="263" x2="488" y1="1080.0469" y2="1080.0469"/><ellipse cx="273" cy="1094.3516" fill="#84BE84" rx="3" ry="3" style="stroke:#038048;stroke-width:1.0;"/><text fill="#000000" font-family="sans-serif" font-size="14" lengthAdjust="spacing" textLength="115" x="282" y="1098.5801">idMeeting() : Long</text><ellipse cx="273" cy="1111.9609" fill="#84BE84" rx="3" ry="3" style="stroke:#038048;stroke-width:1.0;"/><text fill="#000000" font-family="sans-serif" font-size="14" lengthAdjust="spacing" textLength="128" x="282" y="1116.1895">duration() : Duration</text><ellipse cx="273" cy="1129.5703" fill="#84BE84" rx="3" ry="3" style="stroke:#038048;stroke-width:1.0;"/><text fill="#000000" font-family="sans-serif" font-size="14" lengthAdjust="spacing" textLength="179" x="282" y="1133.7988">timeMeeting() : TimeMeeting</text><ellipse cx="273" cy="1147.1797" fill="#84BE84" rx="3" ry="3" style="stroke:#038048;stroke-width:1.0;"/><text fill="#000000" font-family="sans-serif" font-size="14" lengthAdjust="spacing" textLength="80" x="282" y="1151.4082">date() : Date</text><ellipse cx="273" cy="1164.7891" fill="#84BE84" rx="3" ry="3" style="stroke:#038048;stroke-width:1.0;"/><text fill="#000000" font-family="sans-serif" font-size="14" lengthAdjust="spacing" textLength="201" x="282" y="1169.0176">sameAs(Object other) : boolean</text><ellipse cx="273" cy="1182.3984" fill="#84BE84" rx="3" ry="3" style="stroke:#038048;stroke-width:1.0;"/><text fill="#000000" font-family="sans-serif" font-size="14" lengthAdjust="spacing" textLength="94" x="282" y="1186.627">identity() : long</text></g><!--class Duration--><g id="elem_Duration"><rect codeLine="60" fill="#F1F1F1" height="83.2188" id="Duration" rx="2.5" ry="2.5" style="stroke:#181818;stroke-width:0.5;" width="137" x="7" y="1342"/><ellipse cx="44.95" cy="1358" fill="#ADD1B2" rx="11" ry="11" style="stroke:#181818;stroke-width:1.0;"/><path d="M46.95,1354.5 Q47.1531,1354 47.3875,1353.75 Q47.6219,1353.5 47.8875,1353.5 Q48.3563,1353.5 48.6531,1353.7813 Q48.95,1354.0625 48.95,1354.7188 L48.95,1356.2813 Q48.95,1356.9375 48.6688,1357.2188 Q48.3875,1357.5 47.95,1357.5 Q47.5594,1357.5 47.3094,1357.3281 Q47.0594,1357.1563 46.95,1356.7031 Q46.9031,1356.3906 46.7313,1356.2188 Q46.4188,1355.8906 45.8563,1355.7031 Q45.2938,1355.5 44.7313,1355.5 Q44.0281,1355.5 43.4344,1355.7813 Q42.8563,1356.0625 42.4031,1356.6875 Q41.95,1357.3125 41.95,1358.1719 L41.95,1359.0938 Q41.95,1360.125 42.7938,1360.8125 Q43.6375,1361.5 45.1375,1361.5 Q46.0281,1361.5 46.6531,1361.2969 Q47.0125,1361.1875 47.4188,1360.8281 Q47.6844,1360.625 47.825,1360.5625 Q47.9656,1360.5 48.1375,1360.5 Q48.4656,1360.5 48.7,1360.7656 Q48.95,1361.0156 48.95,1361.375 Q48.95,1361.7188 48.6063,1362.125 Q48.1063,1362.7188 47.3094,1363.0469 Q46.2625,1363.5 44.9813,1363.5 Q43.4813,1363.5 42.2781,1362.9063 Q41.3094,1362.4375 40.6219,1361.4219 Q39.95,1360.4063 39.95,1359.2031 L39.95,1358.1094 Q39.95,1356.8594 40.5438,1355.7656 Q41.1531,1354.6719 42.2,1354.0938 Q43.2625,1353.5 44.45,1353.5 Q45.1688,1353.5 45.7938,1353.75 Q46.4188,1354 46.95,1354.5 Z " fill="#000000"/><text fill="#000000" font-family="sans-serif" font-size="14" lengthAdjust="spacing" textLength="54" x="64.05" y="1363.7285">Duration</text><line style="stroke:#181818;stroke-width:0.5;" x1="8" x2="143" y1="1374" y2="1374"/><rect fill="none" height="6" style="stroke:#C82930;stroke-width:1.0;" width="6" x="15" y="1385.3047"/><text fill="#000000" font-family="sans-serif" font-size="14" lengthAdjust="spacing" textLength="93" x="27" y="1392.5332">String duration</text><line style="stroke:#181818;stroke-width:0.5;" x1="8" x2="143" y1="1399.6094" y2="1399.6094"/><ellipse cx="18" cy="1413.9141" fill="#84BE84" rx="3" ry="3" style="stroke:#038048;stroke-width:1.0;"/><text fill="#000000" font-family="sans-serif" font-size="14" lengthAdjust="spacing" textLength="111" x="27" y="1418.1426">duration() : String</text></g><!--class TimeMeeting--><g id="elem_TimeMeeting"><rect codeLine="65" fill="#F1F1F1" height="83.2188" id="TimeMeeting" rx="2.5" ry="2.5" style="stroke:#181818;stroke-width:0.5;" width="161" x="179" y="1342"/><ellipse cx="215.6" cy="1358" fill="#ADD1B2" rx="11" ry="11" style="stroke:#181818;stroke-width:1.0;"/><path d="M217.6,1354.5 Q217.8031,1354 218.0375,1353.75 Q218.2719,1353.5 218.5375,1353.5 Q219.0063,1353.5 219.3031,1353.7813 Q219.6,1354.0625 219.6,1354.7188 L219.6,1356.2813 Q219.6,1356.9375 219.3188,1357.2188 Q219.0375,1357.5 218.6,1357.5 Q218.2094,1357.5 217.9594,1357.3281 Q217.7094,1357.1563 217.6,1356.7031 Q217.5531,1356.3906 217.3813,1356.2188 Q217.0688,1355.8906 216.5063,1355.7031 Q215.9438,1355.5 215.3813,1355.5 Q214.6781,1355.5 214.0844,1355.7813 Q213.5063,1356.0625 213.0531,1356.6875 Q212.6,1357.3125 212.6,1358.1719 L212.6,1359.0938 Q212.6,1360.125 213.4438,1360.8125 Q214.2875,1361.5 215.7875,1361.5 Q216.6781,1361.5 217.3031,1361.2969 Q217.6625,1361.1875 218.0688,1360.8281 Q218.3344,1360.625 218.475,1360.5625 Q218.6156,1360.5 218.7875,1360.5 Q219.1156,1360.5 219.35,1360.7656 Q219.6,1361.0156 219.6,1361.375 Q219.6,1361.7188 219.2563,1362.125 Q218.7563,1362.7188 217.9594,1363.0469 Q216.9125,1363.5 215.6313,1363.5 Q214.1313,1363.5 212.9281,1362.9063 Q211.9594,1362.4375 211.2719,1361.4219 Q210.6,1360.4063 210.6,1359.2031 L210.6,1358.1094 Q210.6,1356.8594 211.1938,1355.7656 Q211.8031,1354.6719 212.85,1354.0938 Q213.9125,1353.5 215.1,1353.5 Q215.8188,1353.5 216.4438,1353.75 Q217.0688,1354 217.6,1354.5 Z " fill="#000000"/><text fill="#000000" font-family="sans-serif" font-size="14" lengthAdjust="spacing" textLength="81" x="234.4" y="1363.7285">TimeMeeting</text><line style="stroke:#181818;stroke-width:0.5;" x1="180" x2="339" y1="1374" y2="1374"/><rect fill="none" height="6" style="stroke:#C82930;stroke-width:1.0;" width="6" x="187" y="1385.3047"/><text fill="#000000" font-family="sans-serif" font-size="14" lengthAdjust="spacing" textLength="67" x="199" y="1392.5332">String time</text><line style="stroke:#181818;stroke-width:0.5;" x1="180" x2="339" y1="1399.6094" y2="1399.6094"/><ellipse cx="190" cy="1413.9141" fill="#84BE84" rx="3" ry="3" style="stroke:#038048;stroke-width:1.0;"/><text fill="#000000" font-family="sans-serif" font-size="14" lengthAdjust="spacing" textLength="135" x="199" y="1418.1426">timeMeeting() : String</text></g><!--class Date--><g id="elem_Date"><rect codeLine="70" fill="#F1F1F1" height="118.4375" id="Date" rx="2.5" ry="2.5" style="stroke:#181818;stroke-width:0.5;" width="239" x="375" y="1324.5"/><ellipse cx="475.25" cy="1340.5" fill="#ADD1B2" rx="11" ry="11" style="stroke:#181818;stroke-width:1.0;"/><path d="M477.25,1337 Q477.4531,1336.5 477.6875,1336.25 Q477.9219,1336 478.1875,1336 Q478.6563,1336 478.9531,1336.2813 Q479.25,1336.5625 479.25,1337.2188 L479.25,1338.7813 Q479.25,1339.4375 478.9688,1339.7188 Q478.6875,1340 478.25,1340 Q477.8594,1340 477.6094,1339.8281 Q477.3594,1339.6563 477.25,1339.2031 Q477.2031,1338.8906 477.0313,1338.7188 Q476.7188,1338.3906 476.1563,1338.2031 Q475.5938,1338 475.0313,1338 Q474.3281,1338 473.7344,1338.2813 Q473.1563,1338.5625 472.7031,1339.1875 Q472.25,1339.8125 472.25,1340.6719 L472.25,1341.5938 Q472.25,1342.625 473.0938,1343.3125 Q473.9375,1344 475.4375,1344 Q476.3281,1344 476.9531,1343.7969 Q477.3125,1343.6875 477.7188,1343.3281 Q477.9844,1343.125 478.125,1343.0625 Q478.2656,1343 478.4375,1343 Q478.7656,1343 479,1343.2656 Q479.25,1343.5156 479.25,1343.875 Q479.25,1344.2188 478.9063,1344.625 Q478.4063,1345.2188 477.6094,1345.5469 Q476.5625,1346 475.2813,1346 Q473.7813,1346 472.5781,1345.4063 Q471.6094,1344.9375 470.9219,1343.9219 Q470.25,1342.9063 470.25,1341.7031 L470.25,1340.6094 Q470.25,1339.3594 470.8438,1338.2656 Q471.4531,1337.1719 472.5,1336.5938 Q473.5625,1336 474.75,1336 Q475.4688,1336 476.0938,1336.25 Q476.7188,1336.5 477.25,1337 Z " fill="#000000"/><text fill="#000000" font-family="sans-serif" font-size="14" lengthAdjust="spacing" textLength="30" x="495.75" y="1346.2285">Date</text><line style="stroke:#181818;stroke-width:0.5;" x1="376" x2="613" y1="1356.5" y2="1356.5"/><rect fill="none" height="6" style="stroke:#C82930;stroke-width:1.0;" width="6" x="383" y="1367.8047"/><text fill="#000000" font-family="sans-serif" font-size="14" lengthAdjust="spacing" textLength="69" x="395" y="1375.0332">String date</text><line style="stroke:#181818;stroke-width:0.5;" x1="376" x2="613" y1="1382.1094" y2="1382.1094"/><ellipse cx="386" cy="1396.4141" fill="#84BE84" rx="3" ry="3" style="stroke:#038048;stroke-width:1.0;"/><text fill="#000000" font-family="sans-serif" font-size="14" lengthAdjust="spacing" textLength="111" x="395" y="1400.6426">duration() : String</text><ellipse cx="386" cy="1414.0234" fill="#84BE84" rx="3" ry="3" style="stroke:#038048;stroke-width:1.0;"/><text fill="#000000" font-family="sans-serif" font-size="14" lengthAdjust="spacing" textLength="213" x="395" y="1418.252">isValidDate(String date) : boolean</text><ellipse cx="386" cy="1431.6328" fill="#84BE84" rx="3" ry="3" style="stroke:#038048;stroke-width:1.0;"/><text fill="#000000" font-family="sans-serif" font-size="14" lengthAdjust="spacing" textLength="166" x="395" y="1435.8613">setDate(String date) : void</text></g><!--class InviteState--><g id="elem_InviteState"><rect codeLine="77" fill="#F1F1F1" height="118.4375" id="InviteState" rx="2.5" ry="2.5" style="stroke:#181818;stroke-width:0.5;" width="98" x="594.5" y="1014"/><ellipse cx="609.5" cy="1030" fill="#ADD1B2" rx="11" ry="11" style="stroke:#181818;stroke-width:1.0;"/><path d="M611.5,1026.5 Q611.7031,1026 611.9375,1025.75 Q612.1719,1025.5 612.4375,1025.5 Q612.9063,1025.5 613.2031,1025.7813 Q613.5,1026.0625 613.5,1026.7188 L613.5,1028.2813 Q613.5,1028.9375 613.2188,1029.2188 Q612.9375,1029.5 612.5,1029.5 Q612.1094,1029.5 611.8594,1029.3281 Q611.6094,1029.1563 611.5,1028.7031 Q611.4531,1028.3906 611.2813,1028.2188 Q610.9688,1027.8906 610.4063,1027.7031 Q609.8438,1027.5 609.2813,1027.5 Q608.5781,1027.5 607.9844,1027.7813 Q607.4063,1028.0625 606.9531,1028.6875 Q606.5,1029.3125 606.5,1030.1719 L606.5,1031.0938 Q606.5,1032.125 607.3438,1032.8125 Q608.1875,1033.5 609.6875,1033.5 Q610.5781,1033.5 611.2031,1033.2969 Q611.5625,1033.1875 611.9688,1032.8281 Q612.2344,1032.625 612.375,1032.5625 Q612.5156,1032.5 612.6875,1032.5 Q613.0156,1032.5 613.25,1032.7656 Q613.5,1033.0156 613.5,1033.375 Q613.5,1033.7188 613.1563,1034.125 Q612.6563,1034.7188 611.8594,1035.0469 Q610.8125,1035.5 609.5313,1035.5 Q608.0313,1035.5 606.8281,1034.9063 Q605.8594,1034.4375 605.1719,1033.4219 Q604.5,1032.4063 604.5,1031.2031 L604.5,1030.1094 Q604.5,1028.8594 605.0938,1027.7656 Q605.7031,1026.6719 606.75,1026.0938 Q607.8125,1025.5 609,1025.5 Q609.7188,1025.5 610.3438,1025.75 Q610.9688,1026 611.5,1026.5 Z " fill="#000000"/><text fill="#000000" font-family="sans-serif" font-size="14" lengthAdjust="spacing" textLength="66" x="623.5" y="1035.7285">InviteState</text><line style="stroke:#181818;stroke-width:0.5;" x1="595.5" x2="691.5" y1="1046" y2="1046"/><rect fill="none" height="6" style="stroke:#C82930;stroke-width:1.0;" width="6" x="602.5" y="1057.3047"/><text fill="#000000" font-family="sans-serif" font-size="14" lengthAdjust="spacing" textLength="60" x="614.5" y="1064.5332">Occupied</text><rect fill="none" height="6" style="stroke:#C82930;stroke-width:1.0;" width="6" x="602.5" y="1074.9141"/><text fill="#000000" font-family="sans-serif" font-size="14" lengthAdjust="spacing" textLength="29" x="614.5" y="1082.1426">Sent</text><rect fill="none" height="6" style="stroke:#C82930;stroke-width:1.0;" width="6" x="602.5" y="1092.5234"/><text fill="#000000" font-family="sans-serif" font-size="14" lengthAdjust="spacing" textLength="59" x="614.5" y="1099.752">Accepted</text><rect fill="none" height="6" style="stroke:#C82930;stroke-width:1.0;" width="6" x="602.5" y="1110.1328"/><text fill="#000000" font-family="sans-serif" font-size="14" lengthAdjust="spacing" textLength="45" x="614.5" y="1117.3613">Denied</text><line style="stroke:#181818;stroke-width:0.5;" x1="595.5" x2="691.5" y1="1124.4375" y2="1124.4375"/></g><!--class SystemUser--><g id="elem_SystemUser"><rect codeLine="84" fill="#F1F1F1" height="259.3125" id="SystemUser" rx="2.5" ry="2.5" style="stroke:#181818;stroke-width:0.5;" width="193" x="649" y="1254"/><ellipse cx="703.75" cy="1270" fill="#ADD1B2" rx="11" ry="11" style="stroke:#181818;stroke-width:1.0;"/><path d="M705.75,1266.5 Q705.9531,1266 706.1875,1265.75 Q706.4219,1265.5 706.6875,1265.5 Q707.1563,1265.5 707.4531,1265.7813 Q707.75,1266.0625 707.75,1266.7188 L707.75,1268.2813 Q707.75,1268.9375 707.4688,1269.2188 Q707.1875,1269.5 706.75,1269.5 Q706.3594,1269.5 706.1094,1269.3281 Q705.8594,1269.1563 705.75,1268.7031 Q705.7031,1268.3906 705.5313,1268.2188 Q705.2188,1267.8906 704.6563,1267.7031 Q704.0938,1267.5 703.5313,1267.5 Q702.8281,1267.5 702.2344,1267.7813 Q701.6563,1268.0625 701.2031,1268.6875 Q700.75,1269.3125 700.75,1270.1719 L700.75,1271.0938 Q700.75,1272.125 701.5938,1272.8125 Q702.4375,1273.5 703.9375,1273.5 Q704.8281,1273.5 705.4531,1273.2969 Q705.8125,1273.1875 706.2188,1272.8281 Q706.4844,1272.625 706.625,1272.5625 Q706.7656,1272.5 706.9375,1272.5 Q707.2656,1272.5 707.5,1272.7656 Q707.75,1273.0156 707.75,1273.375 Q707.75,1273.7188 707.4063,1274.125 Q706.9063,1274.7188 706.1094,1275.0469 Q705.0625,1275.5 703.7813,1275.5 Q702.2813,1275.5 701.0781,1274.9063 Q700.1094,1274.4375 699.4219,1273.4219 Q698.75,1272.4063 698.75,1271.2031 L698.75,1270.1094 Q698.75,1268.8594 699.3438,1267.7656 Q699.9531,1266.6719 701,1266.0938 Q702.0625,1265.5 703.25,1265.5 Q703.9688,1265.5 704.5938,1265.75 Q705.2188,1266 705.75,1266.5 Z " fill="#000000"/><text fill="#000000" font-family="sans-serif" font-size="14" lengthAdjust="spacing" textLength="75" x="724.25" y="1275.7285">SystemUser</text><line style="stroke:#181818;stroke-width:0.5;" x1="650" x2="841" y1="1286" y2="1286"/><rect fill="none" height="6" style="stroke:#C82930;stroke-width:1.0;" width="6" x="657" y="1297.3047"/><text fill="#000000" font-family="sans-serif" font-size="14" lengthAdjust="spacing" textLength="167" x="669" y="1304.5332">long serialVersionUID = 1L</text><rect fill="none" height="6" style="stroke:#C82930;stroke-width:1.0;" width="6" x="657" y="1314.9141"/><text fill="#000000" font-family="sans-serif" font-size="14" lengthAdjust="spacing" textLength="82" x="669" y="1322.1426">Long version</text><rect fill="none" height="6" style="stroke:#C82930;stroke-width:1.0;" width="6" x="657" y="1332.5234"/><text fill="#000000" font-family="sans-serif" font-size="14" lengthAdjust="spacing" textLength="123" x="669" y="1339.752">EmailAddress email</text><rect fill="none" height="6" style="stroke:#C82930;stroke-width:1.0;" width="6" x="657" y="1350.1328"/><text fill="#000000" font-family="sans-serif" font-size="14" lengthAdjust="spacing" textLength="125" x="669" y="1357.3613">Password password</text><rect fill="none" height="6" style="stroke:#C82930;stroke-width:1.0;" width="6" x="657" y="1367.7422"/><text fill="#000000" font-family="sans-serif" font-size="14" lengthAdjust="spacing" textLength="75" x="669" y="1374.9707">Name name</text><rect fill="none" height="6" style="stroke:#C82930;stroke-width:1.0;" width="6" x="657" y="1385.3516"/><text fill="#000000" font-family="sans-serif" font-size="14" lengthAdjust="spacing" textLength="85" x="669" y="1392.5801">RoleSet roles</text><rect fill="none" height="6" style="stroke:#C82930;stroke-width:1.0;" width="6" x="657" y="1402.9609"/><text fill="#000000" font-family="sans-serif" font-size="14" lengthAdjust="spacing" textLength="129" x="669" y="1410.1895">Calendar createdOn</text><rect fill="none" height="6" style="stroke:#C82930;stroke-width:1.0;" width="6" x="657" y="1420.5703"/><text fill="#000000" font-family="sans-serif" font-size="14" lengthAdjust="spacing" textLength="92" x="669" y="1427.7988">boolean active</text><rect fill="none" height="6" style="stroke:#C82930;stroke-width:1.0;" width="6" x="657" y="1438.1797"/><text fill="#000000" font-family="sans-serif" font-size="14" lengthAdjust="spacing" textLength="154" x="669" y="1445.4082">Calendar deactivatedOn</text><rect fill="none" height="6" style="stroke:#C82930;stroke-width:1.0;" width="6" x="657" y="1455.7891"/><text fill="#000000" font-family="sans-serif" font-size="14" lengthAdjust="spacing" textLength="138" x="669" y="1463.0176">Calendar activatedOn</text><rect fill="none" height="6" style="stroke:#C82930;stroke-width:1.0;" width="6" x="657" y="1473.3984"/><text fill="#000000" font-family="sans-serif" font-size="14" lengthAdjust="spacing" textLength="113" x="669" y="1480.627">String resetToken</text><line style="stroke:#181818;stroke-width:0.5;" x1="650" x2="841" y1="1487.7031" y2="1487.7031"/><ellipse cx="660" cy="1502.0078" fill="#84BE84" rx="3" ry="3" style="stroke:#038048;stroke-width:1.0;"/><text fill="#000000" font-family="sans-serif" font-size="14" lengthAdjust="spacing" textLength="141" x="669" y="1506.2363">email() : EmailAddress</text></g><!--link User to StatusParticipantsUI--><g id="link_User_StatusParticipantsUI"><path codeLine="99" d="M525.5,55.08 C525.5,70.13 525.5,90.43 525.5,109.47 " fill="none" id="User-to-StatusParticipantsUI" style="stroke:#181818;stroke-width:1.0;"/><polygon fill="#181818" points="525.5,114.8,529.5,105.8,525.5,109.8,521.5,105.8,525.5,114.8" style="stroke:#181818;stroke-width:1.0;"/></g><!--link StatusParticipantsUI to MeetingParticipantsController--><g id="link_StatusParticipantsUI_MeetingParticipantsController"><path codeLine="100" d="M525.5,216.13 C525.5,233.1 525.5,252.43 525.5,270.8 " fill="none" id="StatusParticipantsUI-to-MeetingParticipantsController" style="stroke:#181818;stroke-width:1.0;"/><polygon fill="#181818" points="525.5,275.96,529.5,266.96,525.5,270.96,521.5,266.96,525.5,275.96" style="stroke:#181818;stroke-width:1.0;"/></g><!--link MeetingParticipantsController to MeetingRepository--><g id="link_MeetingParticipantsController_MeetingRepository"><path codeLine="101" d="M470.57,412.02 C457.31,430.61 444.18,451.37 434.5,472 C398.47,548.75 377.15,644.73 366.14,706.69 " fill="none" id="MeetingParticipantsController-to-MeetingRepository" style="stroke:#181818;stroke-width:1.0;"/><polygon fill="#181818" points="365.24,711.83,370.7459,703.6639,366.1106,706.9064,362.8681,702.271,365.24,711.83" style="stroke:#181818;stroke-width:1.0;"/></g><!--link MeetingParticipantsController to MeetingALRepository--><g id="link_MeetingParticipantsController_MeetingALRepository"><path codeLine="102" d="M581.68,412.05 C596.9,430.22 613.31,449.81 628.31,467.71 " fill="none" id="MeetingParticipantsController-to-MeetingALRepository" style="stroke:#181818;stroke-width:1.0;"/><polygon fill="#181818" points="631.68,471.74,628.9566,462.2752,628.465,467.9106,622.8296,467.4191,631.68,471.74" style="stroke:#181818;stroke-width:1.0;"/></g><!--link MeetingRepository to Meeting--><g id="link_MeetingRepository_Meeting"><path codeLine="103" d="M360.19,830.2 C362.28,863.3 364.99,906.1 367.55,946.47 " fill="none" id="MeetingRepository-to-Meeting" style="stroke:#181818;stroke-width:1.0;"/><polygon fill="#181818" points="367.89,951.89,371.3159,942.6562,367.5754,946.8999,363.3317,943.1595,367.89,951.89" style="stroke:#181818;stroke-width:1.0;"/></g><!--link Meeting to Duration--><g id="link_Meeting_Duration"><path codeLine="104" d="M261.8,1159.56 C227.72,1187.78 191.47,1220.56 161.5,1254 C138.55,1279.61 117.04,1311.76 101.27,1337.5 " fill="none" id="Meeting-to-Duration" style="stroke:#181818;stroke-width:1.0;"/><polygon fill="#181818" points="98.59,1341.9,106.6863,1336.292,101.1897,1337.629,99.8527,1332.1324,98.59,1341.9" style="stroke:#181818;stroke-width:1.0;"/></g><!--link Meeting to TimeMeeting--><g id="link_Meeting_TimeMeeting"><path codeLine="105" d="M330.32,1194.16 C311.51,1244.19 290.8,1299.26 276.66,1336.85 " fill="none" id="Meeting-to-TimeMeeting" style="stroke:#181818;stroke-width:1.0;"/><polygon fill="#181818" points="274.8,1341.81,281.7242,1334.806,276.5681,1337.1331,274.241,1331.977,274.8,1341.81" style="stroke:#181818;stroke-width:1.0;"/></g><!--link Meeting to Date--><g id="link_Meeting_Date"><path codeLine="106" d="M421.85,1194.16 C438.34,1236.9 456.24,1283.32 470.15,1319.39 " fill="none" id="Meeting-to-Date" style="stroke:#181818;stroke-width:1.0;"/><polygon fill="#181818" points="472,1324.18,472.4965,1314.3437,470.2022,1319.5144,465.0315,1317.2201,472,1324.18" style="stroke:#181818;stroke-width:1.0;"/></g><!--link Meeting to SystemUser--><g id="link_Meeting_SystemUser"><path codeLine="107" d="M489.05,1145.52 C535.09,1176.59 587.63,1214.82 631.5,1254 C636.02,1258.04 640.54,1262.24 645.03,1266.56 " fill="none" id="Meeting-to-SystemUser" style="stroke:#181818;stroke-width:1.0;"/><polygon fill="#181818" points="648.79,1270.21,645.1248,1261.0685,645.2048,1266.7248,639.5485,1266.8048,648.79,1270.21" style="stroke:#181818;stroke-width:1.0;"/></g><!--link MeetingAccessList to Meeting--><g id="link_MeetingAccessList_Meeting"><path codeLine="108" d="M566.59,892.29 C542.24,915.19 516.86,939.06 492.86,961.63 " fill="none" id="MeetingAccessList-to-Meeting" style="stroke:#181818;stroke-width:1.0;"/><polygon fill="#181818" points="489.02,965.24,498.3153,961.9845,492.661,961.8132,492.8323,956.1589,489.02,965.24" style="stroke:#181818;stroke-width:1.0;"/></g><!--link MeetingAccessList to SystemUser--><g id="link_MeetingAccessList_SystemUser"><path codeLine="109" d="M705.3,892.05 C707.06,912.07 708.85,932.62 710.5,952 C718.96,1051.45 728.09,1163.85 734.9,1248.87 " fill="none" id="MeetingAccessList-to-SystemUser" style="stroke:#181818;stroke-width:1.0;"/><polygon fill="#181818" points="735.3,1253.91,738.5674,1244.6189,734.9001,1248.926,730.5931,1245.2587,735.3,1253.91" style="stroke:#181818;stroke-width:1.0;"/></g><!--link MeetingAccessList to InviteState--><g id="link_MeetingAccessList_InviteState"><path codeLine="110" d="M674.05,892.29 C667.29,932.06 660.04,974.73 654.29,1008.51 " fill="none" id="MeetingAccessList-to-InviteState" style="stroke:#181818;stroke-width:1.0;"/><polygon fill="#181818" points="653.39,1013.85,658.8267,1005.6377,654.2189,1008.9192,650.9375,1004.3114,653.39,1013.85" style="stroke:#181818;stroke-width:1.0;"/></g><!--link MeetingALRepository to MeetingAccessList--><g id="link_MeetingALRepository_MeetingAccessList"><path codeLine="111" d="M683.92,590.22 C684.9,606.83 686.01,625.59 687.12,644.57 " fill="none" id="MeetingALRepository-to-MeetingAccessList" style="stroke:#181818;stroke-width:1.0;"/><polygon fill="#181818" points="687.44,649.93,690.8922,640.706,687.1397,644.939,682.9067,641.1865,687.44,649.93" style="stroke:#181818;stroke-width:1.0;"/></g><!--SRC=[bLLBRzim3BxdL-ZeeSjXrs4h42Gx14WVQ9hUDObjjCbI82dfic7_VNhQjEnsRIwH-H0_VYH59gcrP6V1a3-plxCPYzzN04wefpiuQ2kSDcUl9FvtyIWKlwA_rhpvG3uJgTLJaZEg6CZirWGv4Jny1hEJ5ZoP7NsSR6IRhJF-dq1BXGnc6s7TbwozJFPKojtRNMhuYyquWHCOyNXUA7wjdJyqyORjsJfeGwHB4Y3QZ-KAqgR_4EoxrXAeAiWScAsZ3XPDxnwzWsr1m1XO6sBKNgjtU4L8qQl1i6e2UZT4HN0xsbjgd63YG9MpktNcOhx4HLjgvOoMqiDXtJ75vtgxry_DY8CzK2w5WgX9fHdL04T68JA2SP-rPg0PbB2bCciNHxVNHlocJcYr1NCI30YT44wqtGkjrexnlf_jaQuaIZPf9AhIpadL1LcwLYVX89QSYFwSjLLl9lp4WaDkpGjN3EUHF7ad1AgQwg0Eq5A1EwJ85mKCDkiAQpGghmBgy0APjh2mpStt7y0SqMwVnc3GP9uqK4wuS_HVQWuZkckISP0vMHrDx0Z2yo7BxqKBvGBNdujNu8ttdACwCGFKzsC73-UtwRahuQ9yXMDVu7XHVL_5luYXasVFvVlfYgNiwEgOA7pbvvGFmGs0rsEDMQkk2Kcza5zzIsItHj4dEeKWPsSVg1Gy-3V8Rqo3duOfezZw7Gmy8mND3MF7Wm1Um7asyp6CoS5rcXMeODQ_j5s7bAlY6lJVWie7_uBxX7Rh5VbAFcrmlvwIAek-XTMsuDpuYKnxBYjkVOndRJWvv4EMN_kc88gsfL7lF0jRSCG_j62pR4abA4vpwmA_AT4oPuGo9qvGMtE8ye57fnohCjKUERXx_HDAAM8MiPGukK1S7AVv_79oIyqcLrUmVdMrp5vVFCY_tonlzy7xQ3RUNiYoQAEi6tyin4C_C0w3W0NevHqlc8cGbVQ_xlZLdjgxEF_Eyny0]--></g></svg>